<?xml version="1.0" encoding="UTF-8" standalone="no"?>
<!-- Created with Inkscape (http://www.inkscape.org/) -->

<svg
   xmlns:dc="http://purl.org/dc/elements/1.1/"
   xmlns:cc="http://creativecommons.org/ns#"
   xmlns:rdf="http://www.w3.org/1999/02/22-rdf-syntax-ns#"
   xmlns:svg="http://www.w3.org/2000/svg"
   xmlns="http://www.w3.org/2000/svg"
   xmlns:sodipodi="http://sodipodi.sourceforge.net/DTD/sodipodi-0.dtd"
   xmlns:inkscape="http://www.inkscape.org/namespaces/inkscape"
   id="svg2"
   xml:space="preserve"
   height="300"
   viewBox="0 0 300 300"
   width="300"
   version="1.1"
   inkscape:version="0.91 r13725"
   sodipodi:docname="subscribe.svg"><sodipodi:namedview
     pagecolor="#ffffff"
     bordercolor="#666666"
     borderopacity="1"
     objecttolerance="10"
     gridtolerance="10"
     guidetolerance="10"
     inkscape:pageopacity="0"
     inkscape:pageshadow="2"
     inkscape:window-width="1303"
     inkscape:window-height="744"
     id="namedview43"
     showgrid="false"
     inkscape:zoom="3.33"
     inkscape:cx="141.54781"
     inkscape:cy="171.71306"
     inkscape:window-x="63"
     inkscape:window-y="24"
     inkscape:window-maximized="1"
     inkscape:current-layer="svg2"
     showguides="false" /><metadata
     id="metadata8"><rdf:RDF><cc:Work
         rdf:about=""><dc:format>image/svg+xml</dc:format><dc:type
           rdf:resource="http://purl.org/dc/dcmitype/StillImage" /><dc:title /></cc:Work></rdf:RDF></metadata><defs
     id="defs6"><clipPath
       id="clipPath48"
       clipPathUnits="userSpaceOnUse"><path
         id="path50"
         d="m 2371.3,2810.8 0,1371.7 c 0,439.59 357.63,797.22 797.23,797.22 439.59,0 797.21,-357.63 797.21,-797.22 l 0,-1371.7 -1594.4,0"
         inkscape:connector-curvature="0" /></clipPath></defs><g
     id="g9"
     transform="matrix(1.0305,0,0,-0.995125,-486.86715,278.68385)"><path
       id="path16"
       d="m 741.27,147.86 -23.27,0 c -1.6966,0 -3.308,0.88565 -4.411,2.4243 -1.7973,2.5163 -2.9107,5.9956 -2.9107,9.8331 0,0.0428 0,0.0862 4e-4,0.12907 0.0417,6.4364 4.4746,11.603 9.8661,11.603 l 10.475,0 c 5.8357,0 10.566,6.0032 10.566,13.408 0,7.4047 -4.7305,13.408 -10.566,13.408 l -21.025,0 c -2.7352,0.006 -5.2149,1.5065 -7.0093,3.9281 -1.7973,2.4266 -2.9103,5.7808 -2.9103,9.4811 0,0.0464 0,0.0924 3.5e-4,0.13891 0.0464,6.0706 4.2695,10.918 9.355,10.918 l 12.895,0 c 5.8357,0 10.566,5.7397 10.566,12.82 0,7.0805 -4.7305,12.821 -10.566,12.821 l -196.76,0 c -5.8356,0 -10.566,-5.7401 -10.566,-12.821 0,-7.0805 4.7308,-12.82 10.566,-12.82 l 12.895,0 c 5.0855,0 9.3086,-4.8473 9.355,-10.918 3.8e-4,-0.0465 3.8e-4,-0.0924 3.8e-4,-0.13891 0,-3.7004 -1.113,-7.0546 -2.9107,-9.4811 -1.7943,-2.4216 -4.2736,-3.9223 -7.0089,-3.9281 l -21.025,0 c -5.8358,0 -10.566,-6.0028 -10.566,-13.408 0,-7.4052 4.7307,-13.408 10.566,-13.408 l 21.078,0 c 5.3915,0 9.8238,-5.1666 9.8661,-11.603 3.8e-4,-0.0429 3.8e-4,-0.0862 3.8e-4,-0.12907 0,-3.8375 -1.113,-7.3168 -2.9107,-9.8331 -1.1029,-1.5387 -2.7143,-2.4243 -4.4109,-2.4243 l -33.872,0 c -5.8355,0 -10.566,-5.7625 -10.566,-12.871 0,-7.1082 4.7308,-12.87 10.566,-12.87 l 31.274,0 c 5.4787,-0.011 9.9196,-5.7656 9.9196,-12.867 0,-3.5516 -1.113,-6.7719 -2.9107,-9.1006 -1.3577,-1.7526 -3.2665,-2.7486 -5.2662,-2.7486 l -14.073,0 c -5.8356,0 -10.566,-5.8826 -10.566,-13.139 0,-7.2569 4.7308,-13.14 10.566,-13.14 l 12.37,0 c 7.0115,0 10.985,-9.0608 9.6143,-16.536 -1.4984,-8.1671 -8.2727,-7.6428 -14.068,-7.6424 -5.9344,0 -10.726,-5.8402 -10.562,-12.968 0.1575,-6.871 5.0245,-12.26 10.782,-12.26 l 180.49,0 c 5.7574,0 10.624,5.3886 10.782,12.26 0.16388,7.1283 -4.628,12.968 -10.562,12.968 -5.7949,-4.42e-4 -12.569,-0.52478 -14.068,7.6424 -1.3712,7.4749 2.6028,16.536 9.6142,16.536 l 12.37,0 c 5.8357,0 10.566,5.8826 10.566,13.14 0,7.2565 -4.7305,13.139 -10.566,13.139 l -14.073,0 c -1.9997,0 -3.9085,0.99598 -5.2665,2.7486 -1.7973,2.3287 -2.9103,5.549 -2.9103,9.1006 0,7.101 4.4408,12.856 9.9196,12.867 l 31.274,0 c 5.8352,0 10.566,5.762 10.566,12.87 0,7.1082 -4.7308,12.871 -10.566,12.871"
       inkscape:connector-curvature="0"
       style="fill:#c2e2f7" /><path
       id="path18"
       d="m 624.75,29.24 21.098,0 0,81.853 -21.098,0 0,-81.853 z"
       inkscape:connector-curvature="0"
       style="fill:#1d2671;fill-opacity:1" /><path
       id="path20"
       d="m 703.56606,167.61062 0,-68.453004 -145.39,0 0,68.453004 c 0,22.99 15.612,41.628 34.87,41.628 l 75.646,0 c 7.875,0 15.137,-3.113 20.972,-8.3664 1.8849,-1.695 3.6219,-3.6146 5.1783,-5.724 1.2249,-1.6512 2.3349,-3.4167 3.3234,-5.2837 0.97015,-1.8187 1.8183,-3.7298 2.5415,-5.7245 1.8403,-5.068 2.8587,-10.656 2.8587,-16.529"
       inkscape:connector-curvature="0"
       style="fill:#1d2671;fill-opacity:1" /><path
       id="path22"
       d="m 700.5,181.58 -114.58,0 0,5.7245 112.04,0 c 0.97015,-1.8187 1.8186,-3.7298 2.5415,-5.7245"
       inkscape:connector-curvature="0"
       style="fill:#c33764;fill-opacity:1" /><path
       id="path24"
       d="m 585.91,133.59 117.44,0 0,18.053 -117.44,0 0,-18.053 z"
       inkscape:connector-curvature="0"
       style="fill:#c33764;fill-opacity:1" /><path
       id="path26"
       d="m 694.63,192.59 -114.4,0 0,5.724 109.22,0 c 1.8849,-1.695 3.6219,-3.6146 5.1783,-5.724"
       inkscape:connector-curvature="0"
       style="fill:#c33764;fill-opacity:1" /><path
       id="path28"
       d="m 627.71,165.05 0,-46.877 -69.741,0 0,46.877 c 0,22.989 15.613,41.628 34.87,41.628 19.257,0 34.87,-18.639 34.87,-41.628"
       inkscape:connector-curvature="0"
       style="fill:#c33764;fill-opacity:1" /><path
       id="path30"
       d="m 563.01,103.21 0,61.265 c 0,19.634 13.38,35.607 29.826,35.607 16.446,0 29.826,-15.973 29.826,-35.607 l 0,-61.265 -59.652,0"
       inkscape:connector-curvature="0"
       style="fill:#1d2671;fill-opacity:1" /><path
       id="path32"
       d="m 504.89,93.52 198.47,0 0,5.7241 -198.47,0 0,-5.7241 z"
       inkscape:connector-curvature="0"
       style="fill:#1d2671;fill-opacity:1" /><path
       id="path34"
       d="m 703.36,118.18 0,-24.658 -198.47,0 0,5.7241 53.08,0 0,-2.6418 69.741,0 0,21.576 75.65,0"
       inkscape:connector-curvature="0"
       style="fill:#c33764;fill-opacity:1" /><path
       id="path36"
       d="m 677.78,233.33 -33.071,0 0,-75.754 12.354,0 0,54.115 20.716,0 0,21.638"
       inkscape:connector-curvature="0"
       style="fill:#a0a2a3" /><path
       id="path38"
       d="m 679.01,233.33 -31.303,0 0,-75.754 10.587,0 0,54.115 20.716,0 0,21.638"
       inkscape:connector-curvature="0"
       style="fill:#ffffff" /><path
       id="path40"
       d="m 662.75,153.48 c 0,-8.1207 -4.6096,-14.703 -10.295,-14.703 -5.6856,0 -10.295,6.5825 -10.295,14.703 0,8.1202 4.6096,14.703 10.295,14.703 5.6856,0 10.295,-6.5829 10.295,-14.703"
       inkscape:connector-curvature="0"
       style="fill:#fbcd1e" /><path
       id="path42"
       d="m 658.73,153.48 c 0,-4.9451 -2.8067,-8.9532 -6.2689,-8.9532 -3.4622,0 -6.2689,4.0081 -6.2689,8.9532 0,4.9447 2.8067,8.9532 6.2689,8.9532 3.4622,0 6.2689,-4.0086 6.2689,-8.9532"
       inkscape:connector-curvature="0"
       style="fill:#f8f459" /></g><g
     id="g44"
     transform="matrix(0.0385541,0,0,-0.04444527,1.899,300.90897)"><g
       id="g46"
       clip-path="url(#clipPath48)"><path
         id="path52"
         d="m 4514.8,4227 0,-1352.5 c 0,-32.12 -25.98,-58.18 -58.19,-58.18 l -1895.8,0 c -12.18,0 -23.52,3.77 -32.87,10.19 -15.3,10.49 -25.31,28.06 -25.31,47.99 l 0,1352.5 c 0,12.66 4.06,24.37 11.05,33.91 l 0,0.09 c 10.48,14.65 27.68,24.09 47.13,24.09 l 1895.8,0 c 24.94,0 46.1,-15.58 54.42,-37.5 2.45,-6.42 3.77,-13.32 3.77,-20.59"
         inkscape:connector-curvature="0"
         style="fill:#fbcd24" /><path
         id="path54"
         d="m 4514.8,4227 0,-1352.5 c 0,-32.12 -25.98,-58.18 -58.19,-58.18 l -1895.8,0 c -12.18,0 -23.52,3.77 -32.87,10.19 l 1983.1,1421.1 c 2.45,-6.42 3.77,-13.32 3.77,-20.59"
         inkscape:connector-curvature="0"
         style="fill:#fab41a" /><path
         id="path56"
         d="m 4514.8,4205.7 -977.2,-771.29 c -38.02,-30.01 -85.18,-28.1 -121.83,4.92 l -902.06,812.71 0,0.14 c 10.48,20.01 27.68,32.91 47.13,32.91 l 1895.8,0 c 24.94,0 46.1,-21.3 54.42,-51.24 l 3.77,-28.15"
         inkscape:connector-curvature="0"
         style="fill:#d5701c" /><path
         id="path58"
         d="m 4514.8,4227 -977.2,-564.42 c -38.02,-21.96 -85.18,-20.57 -121.83,3.6 l -902.06,594.73 0,0.09 c 10.48,14.65 27.68,24.09 47.13,24.09 l 1895.8,0 c 24.94,0 46.1,-15.58 54.42,-37.5 l 3.77,-20.59"
         inkscape:connector-curvature="0"
         style="fill:#fbca22" /><path
         id="path60"
         d="m 3002.8,4054.7 -3.67,-6.57 c -16.16,-28.87 -5.75,-65.72 23.12,-81.87 l 251.57,-140.75 c 28.88,-16.15 65.72,-5.75 81.88,23.12 l 3.67,6.57 c 16.16,28.87 5.75,65.72 -23.12,81.87 l -251.58,140.75 c -28.87,16.16 -65.71,5.75 -81.87,-23.12"
         inkscape:connector-curvature="0"
         style="fill:#f7f340" /></g></g><path
     id="path62"
     d="m 142.61377,252.94494 50.29356,0 0,-5.45796 -50.29356,0 0,5.45796 z"
     inkscape:connector-curvature="0"
     style="fill:#1d2671;fill-opacity:1" /><g
     id="g33"
     style="fill:#7ab5e6"
     transform="matrix(1.0305,0,0,-0.995125,-486.86715,278.68385)"><path
       id="path64"
       d="m 557.33,222.69 c 0,-3.1456 -2.1362,-5.6959 -4.7712,-5.6959 -2.6354,0 -4.7712,2.5503 -4.7712,5.6959 0,3.1461 2.1359,5.6959 4.7712,5.6959 2.635,0 4.7712,-2.5498 4.7712,-5.6959"
       inkscape:connector-curvature="0" /><path
       id="path66"
       d="m 596.31,55.812 c 0,-3.1456 -2.1363,-5.6959 -4.7712,-5.6959 -2.635,0 -4.7712,2.5503 -4.7712,5.6959 0,3.1456 2.1363,5.6959 4.7712,5.6959 2.635,0 4.7712,-2.5503 4.7712,-5.6959"
       inkscape:connector-curvature="0" /><path
       id="path68"
       d="m 625.42,226.89 c 0,-2.3203 -1.5754,-4.201 -3.5194,-4.201 -1.9432,0 -3.519,1.8808 -3.519,4.201 0,2.3207 1.5758,4.2015 3.519,4.2015 1.944,0 3.5194,-1.8808 3.5194,-4.2015"
       inkscape:connector-curvature="0" /><path
       id="path70"
       d="m 663.15,64.356 c 0,-1.573 -1.0677,-2.8482 -2.3858,-2.8482 -1.3173,0 -2.3854,1.2751 -2.3854,2.8482 0,1.5726 1.0681,2.8477 2.3854,2.8477 1.318,0 2.3858,-1.2751 2.3858,-2.8477"
       inkscape:connector-curvature="0" /><path
       id="path72"
       d="m 714.25,138.77 c 0,-1.5735 -1.0682,-2.8482 -2.3858,-2.8482 -1.3173,0 -2.3854,1.2747 -2.3854,2.8482 0,1.5726 1.0681,2.8478 2.3854,2.8478 1.3176,0 2.3858,-1.2751 2.3858,-2.8478"
       inkscape:connector-curvature="0" /><path
       id="path74"
       d="m 683.06,236.18 c 0,-1.573 -1.0681,-2.8482 -2.3858,-2.8482 -1.3173,0 -2.3854,1.2752 -2.3854,2.8482 0,1.5726 1.0681,2.8477 2.3854,2.8477 1.3177,0 2.3858,-1.2751 2.3858,-2.8477"
       inkscape:connector-curvature="0" /><path
       id="path76"
       d="m 552.55,64.356 c 0,-1.573 -1.0682,-2.8482 -2.3858,-2.8482 -1.3173,0 -2.3854,1.2751 -2.3854,2.8482 0,1.5726 1.0681,2.8477 2.3854,2.8477 1.3177,0 2.3858,-1.2751 2.3858,-2.8477"
       inkscape:connector-curvature="0" /><path
       id="path136"
       d="m 624.87,-4.4373 c 0.18742,0 0.32585,-0.017446 0.48448,-0.049119 l 0.0449,0.34073 c 0,0 -0.4381,0.16034 -1.0142,0.10409 l -0.0452,0.18581 c 0.17883,0.045038 0.31351,0.23484 0.31351,0.46182 0,0.2594 -0.17735,0.4707 -0.39545,0.4707 -0.21812,0 -0.39507,-0.2113 -0.39507,-0.4707 0,-0.22698 0.13432,-0.41681 0.31276,-0.46182 l 0.05,-0.20729 c -0.61137,-0.099558 -1.0981,-0.3845 -1.0981,-0.3845 l 0.0859,-0.31528 c 0.37001,0.14689 0.69102,0.23622 0.98171,0.27373 0.28508,0.036089 0.49947,0.051773 0.67455,0.051773"
       inkscape:connector-curvature="0" /></g></svg>