<?xml version="1.0" encoding="UTF-8" standalone="no"?>
<!-- Created with Inkscape (http://www.inkscape.org/) -->
<svg id="svg2" xmlns:rdf="http://www.w3.org/1999/02/22-rdf-syntax-ns#" xmlns="http://www.w3.org/2000/svg" xml:space="preserve" height="300" viewBox="0 0 420 300" width="420" version="1.1" xmlns:cc="http://creativecommons.org/ns#" xmlns:dc="http://purl.org/dc/elements/1.1/"><metadata id="metadata8"><rdf:RDF><cc:Work rdf:about=""><dc:format>image/svg+xml</dc:format><dc:type rdf:resource="http://purl.org/dc/dcmitype/StillImage"/><dc:title/></cc:Work></rdf:RDF></metadata><defs id="defs6"><clipPath id="clipPath140" clipPathUnits="userSpaceOnUse"><path id="path142" d="m1138.4 3500.2 2.62 98 567.63 348.67 342.5-103.57 332.5 137.5 687.5-145 518.12 203.91 36.4 0.55 341.42-125.78 39.03 3.53 361.32 214.33 20.9-2.23 105.28-110.67 39.61-6.49 606.51 243.86h56.48v-756.61h-4057.8z"/></clipPath><clipPath id="clipPath262" clipPathUnits="userSpaceOnUse"><path id="path264" d="m3223.6 6209.3c0-142.03-115.14-257.16-257.17-257.16s-257.16 115.13-257.16 257.16 115.13 257.17 257.16 257.17 257.17-115.14 257.17-257.17z"/></clipPath><clipPath id="clipPath276" clipPathUnits="userSpaceOnUse"><path id="path278" d="m2583.6 6209.3c0-142.03-115.14-257.16-257.17-257.16s-257.16 115.13-257.16 257.16 115.13 257.17 257.16 257.17 257.17-115.14 257.17-257.17z"/></clipPath></defs><g id="g10" transform="matrix(1.25,0,0,-1.25,0,300)"><g id="g5601" transform="matrix(.28596 0 0 .28175 55.508 3.8584)"><g><path id="path16" d="m712.33 235.6-9.511-164.67h-14.538l-11.295 164.67h35.344" fill="#496c9c"/><path id="path18" d="m120.96 235.6-9.512-164.67h-14.538l-11.295 164.67h35.345" fill="#496c9c"/><path id="path20" d="m173.13 307.27-9.512-164.67h-14.538l-11.295 164.67h35.345" fill="#3d5f89"/><path id="path22" d="m662.21 307.27-9.512-164.67h-14.538l-11.295 164.67h35.345" fill="#3d5f89"/><path id="path24" d="m97.666 665.04h605.16v104.56h-605.16v-104.56z" fill="#364f73"/><path id="path26" d="m97.666 565.04h605.16v104.56h-605.16v-104.56z" fill="#496c9c"/><path id="path28" d="m97.666 328.04h605.16v242.56h-605.16v-242.56z" fill="#364f73"/><path id="path30" d="m67.667 260.04h664.67l-30 74h-604.67l-30-74" fill="#496c9c"/><path id="path32" d="m694.81 274.06h4.551l-20.48 45.968h-4.552l20.481-45.968" fill="#2e4760"/><path id="path34" d="m675.9 313.49-1.947 4.37h7.159l1.947-4.37h-7.159" fill="#fff"/><path id="path36" d="m674.81 274.06h4.551l-20.48 45.968h-4.552l20.481-45.968" fill="#2e4760"/><path id="path38" d="m655.9 313.49-1.947 4.37h7.159l1.947-4.37h-7.159" fill="#fbbe2b"/><path id="path40" d="m654.81 274.06h4.551l-20.48 45.968h-4.552l20.481-45.968" fill="#2e4760"/><path id="path42" d="m637.66 310.07-1.947 4.37h7.159l1.947-4.37h-7.159" fill="#fff"/><path id="path44" d="m634.81 274.06h4.551l-20.48 45.968h-4.552l20.481-45.968" fill="#2e4760"/><path id="path46" d="m622.24 299.57-1.947 4.37h7.159l1.947-4.37h-7.159" fill="#fbbe2b"/><path id="path48" d="m614.81 274.06h4.551l-20.48 45.968h-4.552l20.481-45.968" fill="#2e4760"/><path id="path50" d="m599.32 306.07-1.947 4.37h7.159l1.947-4.37h-7.159" fill="#fff"/><path id="path52" d="m594.81 274.06h4.551l-20.48 45.968h-4.552l20.481-45.968" fill="#2e4760"/><path id="path54" d="m592.54 276.57-1.947 4.37h7.158l1.947-4.37h-7.158" fill="#fbbe2b"/><path id="path56" d="m574.81 274.06h4.551l-20.48 45.968h-4.552l20.481-45.968" fill="#2e4760"/><path id="path58" d="m560.07 304.42-1.947 4.37h7.159l1.947-4.37h-7.159" fill="#fff"/><path id="path60" d="m554.81 274.06h4.551l-20.48 45.968h-4.552l20.481-45.968" fill="#2e4760"/><path id="path62" d="m537.74 310.15-1.947 4.37h7.159l1.947-4.37h-7.159" fill="#fbbe2b"/><path id="path64" d="m534.81 274.06h4.551l-20.48 45.968h-4.552l20.481-45.968" fill="#2e4760"/><path id="path66" d="m527.17 287.99-1.947 4.37h7.159l1.947-4.37h-7.159" fill="#fff"/><path id="path68" d="m514.81 274.06h4.551l-20.48 45.968h-4.552l20.481-45.968" fill="#2e4760"/><path id="path70" d="m500.9 302.24-1.947 4.37h7.159l1.947-4.37h-7.159" fill="#fbbe2b"/><path id="path72" d="m494.81 274.06h4.551l-20.48 45.968h-4.552l20.481-45.968" fill="#2e4760"/><path id="path74" d="m475.9 313.49-1.947 4.37h7.159l1.947-4.37h-7.159" fill="#fff"/><path id="path76" d="m376.93 320.02h4.551l-20.48-45.968h-4.552l20.481 45.968" fill="#2e4760"/><path id="path78" d="m358.02 280.59-1.947-4.37h7.159l1.947 4.37h-7.159" fill="#fff"/><path id="path80" d="m356.93 320.02h4.551l-20.48-45.968h-4.552l20.481 45.968" fill="#2e4760"/><path id="path82" d="m338.02 280.59-1.947-4.37h7.159l1.947 4.37h-7.159" fill="#fbbe2b"/><path id="path84" d="m336.93 320.02h4.551l-20.48-45.968h-4.552l20.481 45.968" fill="#2e4760"/><path id="path86" d="m319.77 284.01-1.947-4.37h7.159l1.947 4.37h-7.159" fill="#fff"/><path id="path88" d="m316.93 320.02h4.551l-20.48-45.968h-4.552l20.481 45.968" fill="#2e4760"/><path id="path90" d="m304.36 294.51-1.947-4.37h7.159l1.947 4.37h-7.159" fill="#fbbe2b"/><path id="path92" d="m296.93 320.02h4.551l-20.48-45.968h-4.552l20.481 45.968" fill="#2e4760"/><path id="path94" d="m281.44 288.01-1.947-4.37h7.159l1.947 4.37h-7.159" fill="#fff"/><path id="path96" d="m276.93 320.02h4.551l-20.48-45.968h-4.552l20.481 45.968" fill="#2e4760"/><path id="path98" d="m274.66 317.51-1.947-4.37h7.159l1.947 4.37h-7.159" fill="#fbbe2b"/><path id="path100" d="m256.93 320.02h4.551l-20.48-45.968h-4.552l20.481 45.968" fill="#2e4760"/><path id="path102" d="m242.19 289.66-1.947-4.37h7.159l1.947 4.37h-7.159" fill="#fff"/><path id="path104" d="m236.93 320.02h4.551l-20.48-45.968h-4.552l20.481 45.968" fill="#2e4760"/><path id="path106" d="m219.86 283.92-1.947-4.37h7.159l1.947 4.37h-7.159" fill="#fbbe2b"/><path id="path108" d="m216.93 320.02h4.551l-20.48-45.968h-4.552l20.481 45.968" fill="#2e4760"/><path id="path110" d="m209.29 306.09-1.947-4.37h7.158l1.947 4.37h-7.158" fill="#fff"/><path id="path112" d="m196.93 320.02h4.551l-20.48-45.968h-4.552l20.481 45.968" fill="#2e4760"/><path id="path114" d="m183.02 291.84-1.947-4.37h7.159l1.947 4.37h-7.159" fill="#fbbe2b"/><path id="path116" d="m176.93 320.02h4.551l-20.48-45.968h-4.552l20.481 45.968" fill="#2e4760"/><path id="path118" d="m158.02 280.59-1.947-4.37h7.159l1.947 4.37h-7.159" fill="#fff"/><path id="path120" d="m127.83 273.37h-47.333l18.861 47.333h47.306l-18.834-47.333" fill="#5e8cc3"/><path id="path122" d="m106.82 276.63h-21.819l8.6941 21.819h21.806l-8.681-21.819" fill="#fff"/><path id="path124" d="m139.16 311.85c-0.5-2.272-2.79-3.698-5.115-3.187-2.325 0.512-3.805 2.769-3.305 5.04 0.5 2.272 2.79 3.699 5.115 3.187 2.325-0.511 3.805-2.768 3.305-5.04" fill="#fbbe2b"/></g><g fill="#fff"><path id="path126" d="m107.5 311.85c-0.5-2.272-2.79-3.698-5.115-3.187-2.325 0.512-3.8046 2.769-3.3046 5.04 0.5 2.272 2.7906 3.699 5.1156 3.187 2.325-0.511 3.804-2.768 3.304-5.04"/><path id="path128" d="m131.46 291.21 0.793 1.993h-14.643l-0.794-1.993h14.644"/><path id="path130" d="m129.21 285.96 0.793 1.993h-14.643l-0.794-1.993h14.644"/></g><path id="path132" d="m67.681 224.93h663.82v37.197h-663.82v-37.197z" fill="#364f73"/><path id="path134" d="m113.84 350.02h405.78v89.334h-405.78v-89.334z" fill="#fff"/><g id="g136" transform="scale(.1)"><g id="g138" fill="#d5d7d4" clip-path="url(#clipPath140)"><path id="path144" d="m1133.4 3482.6h10v971.25h-10v-971.25z"/><path id="path146" d="m1233.4 3482.6h10v971.25h-10v-971.25z"/><path id="path148" d="m1333.4 3482.6h10v971.25h-10v-971.25z"/><path id="path150" d="m1433.4 3482.6h10v971.25h-10v-971.25z"/><path id="path152" d="m1533.4 3482.6h10v971.25h-10v-971.25z"/><path id="path154" d="m1633.4 3482.6h10v971.25h-10v-971.25z"/><path id="path156" d="m1733.4 3482.6h10v971.25h-10v-971.25z"/><path id="path158" d="m1833.4 3482.6h10v971.25h-10v-971.25z"/><path id="path160" d="m1933.4 3482.6h10v971.25h-10v-971.25z"/><path id="path162" d="m2033.4 3482.6h10v971.25h-10v-971.25z"/><path id="path164" d="m2133.4 3482.6h10v971.25h-10v-971.25z"/><path id="path166" d="m2233.4 3482.6h10v971.25h-10v-971.25z"/><path id="path168" d="m2333.4 3482.6h10v971.25h-10v-971.25z"/><path id="path170" d="m2433.4 3482.6h10v971.25h-10v-971.25z"/><path id="path172" d="m2533.4 3482.6h10v971.25h-10v-971.25z"/><path id="path174" d="m2633.4 3482.6h10v971.25h-10v-971.25z"/><path id="path176" d="m2733.4 3482.6h10v971.25h-10v-971.25z"/><path id="path178" d="m2833.4 3482.6h10v971.25h-10v-971.25z"/><path id="path180" d="m2933.4 3482.6h10v971.25h-10v-971.25z"/><path id="path182" d="m3033.4 3482.6h10v971.25h-10v-971.25z"/><path id="path184" d="m3133.4 3482.6h10v971.25h-10v-971.25z"/><path id="path186" d="m3233.4 3482.6h10v971.25h-10v-971.25z"/><path id="path188" d="m3333.4 3482.6h10v971.25h-10v-971.25z"/><path id="path190" d="m3433.4 3482.6h10v971.25h-10v-971.25z"/><path id="path192" d="m3533.4 3482.6h10v971.25h-10v-971.25z"/><path id="path194" d="m3633.4 3482.6h10v971.25h-10v-971.25z"/><path id="path196" d="m3733.4 3482.6h10v971.25h-10v-971.25z"/><path id="path198" d="m3833.4 3482.6h10v971.25h-10v-971.25z"/><path id="path200" d="m3933.4 3482.6h10v971.25h-10v-971.25z"/><path id="path202" d="m4033.4 3482.6h10v971.25h-10v-971.25z"/><path id="path204" d="m4133.4 3482.6h10v971.25h-10v-971.25z"/><path id="path206" d="m4233.4 3482.6h10v971.25h-10v-971.25z"/><path id="path208" d="m4333.4 3482.6h10v971.25h-10v-971.25z"/><path id="path210" d="m4433.4 3482.6h10v971.25h-10v-971.25z"/><path id="path212" d="m4533.4 3482.6h10v971.25h-10v-971.25z"/><path id="path214" d="m4633.4 3482.6h10v971.25h-10v-971.25z"/><path id="path216" d="m4733.4 3482.6h10v971.25h-10v-971.25z"/><path id="path218" d="m4833.4 3482.6h10v971.25h-10v-971.25z"/><path id="path220" d="m4933.4 3482.6h10v971.25h-10v-971.25z"/><path id="path222" d="m5033.4 3482.6h10v971.25h-10v-971.25z"/><path id="path224" d="m5133.4 3482.6h10v971.25h-10v-971.25z"/></g></g><g><path id="path226" d="m515.7 429.03c-1.174 0-2.125-0.952-2.125-2.125 0-0.104 0.016-0.204 0.03-0.304l-60.67-24.393c-0.388 0.521-1.003 0.863-1.702 0.863-0.45 0-0.866-0.141-1.209-0.38l-10.394 10.928c0.295 0.364 0.478 0.822 0.478 1.327 0 1.174-0.951 2.125-2.125 2.125-1.173 0-2.125-0.951-2.125-2.125 0-0.342 0.088-0.66 0.232-0.946l-36.142-21.439c-0.344 0.241-0.762 0.385-1.215 0.385-0.591 0-1.124-0.242-1.51-0.631l-34.374 12.664c0.001 0.031 0.009 0.061 0.009 0.092 0 1.174-0.951 2.125-2.125 2.125-1.173 0-2.125-0.951-2.125-2.125 0-0.052 0.012-0.101 0.016-0.153-13.742-5.699-42.416-17.542-50.033-20.498-0.385 0.544-1.016 0.901-1.733 0.901-0.857 0-1.591-0.51-1.927-1.241-8.361 1.707-43.57 9.378-64.342 13.923 0.006 0.064 0.019 0.127 0.019 0.193 0 1.174-0.951 2.125-2.125 2.125-1.173 0-2.125-0.951-2.125-2.125 0-0.233 0.047-0.454 0.117-0.664l-29.57-12.122c-0.387 0.414-0.935 0.676-1.547 0.676-0.683 0-1.285-0.328-1.673-0.83l-31.337 9.259c0.005 0.061 0.018 0.119 0.018 0.181 0 1.174-0.951 2.125-2.125 2.125-1.173 0-2.125-0.951-2.125-2.125 0-0.193 0.035-0.378 0.083-0.556l-54.62-33.475 0.524-0.854 54.579 33.452c0.388-0.423 0.941-0.692 1.559-0.692 0.757 0 1.417 0.398 1.793 0.994l31.237-9.229c-0.022-0.122-0.038-0.246-0.038-0.375 0-1.174 0.952-2.125 2.125-2.125 1.174 0 2.125 0.951 2.125 2.125 0 0.198-0.036 0.387-0.087 0.569l29.612 12.141c0.383-0.37 0.901-0.6 1.475-0.6 0.75 0 1.407 0.391 1.785 0.978 12.668-2.772 54.855-11.991 64.474-13.944 0.049-1.13 0.974-2.034 2.116-2.034 1.174 0 2.125 0.952 2.125 2.125 0 0.113-0.016 0.222-0.033 0.331 8.362 3.201 37.645 15.319 49.978 20.435 0.374-0.607 1.04-1.016 1.805-1.016 0.788 0 1.468 0.434 1.835 1.071l34.142-12.578c-0.06-0.197-0.102-0.401-0.102-0.618 0-1.173 0.952-2.125 2.125-2.125 1.174 0 2.125 0.952 2.125 2.125 0 0.352-0.093 0.679-0.245 0.971l36.132 21.433c0.349-0.251 0.775-0.404 1.238-0.404 0.304 0 0.591 0.066 0.852 0.181l10.528-11.067c-0.157-0.297-0.255-0.63-0.255-0.989 0-1.173 0.952-2.125 2.125-2.125 1.174 0 2.125 0.952 2.125 2.125 0 0.117-0.016 0.229-0.034 0.34l60.651 24.386c0.385-0.539 1.012-0.892 1.725-0.892 1.173 0 2.125 0.951 2.125 2.125 0 1.173-0.952 2.125-2.125 2.125" fill="#f78d28"/><path id="path228" d="m116.08 584.1h222.9v73.666h-222.9v-73.666z" fill="#fff"/><path id="path230" d="m341.48 660.27h-227.9v-78.667h227.9v78.667zm-5-5v-68.667h-217.9v68.667h217.9" fill="#364f73"/><path id="path232" d="m462.88 584.1h222.9v73.666h-222.9v-73.666z" fill="#fff"/><path id="path234" d="m688.28 660.27h-227.9v-78.667h227.9v78.667zm-5-5v-68.667h-217.9v68.667h217.9" fill="#364f73"/><path id="path236" d="m175.86 599.35h-48.784c-2.094 0-3.808-1.714-3.808-3.809 0-2.094 1.714-3.808 3.808-3.808h48.784c2.095 0 3.809 1.714 3.809 3.808 0 2.095-1.714 3.809-3.809 3.809" fill="#d5d7d4"/><path id="path238" d="m148.24 599.35h-21.17c-2.094 0-3.808-1.714-3.808-3.809 0-2.094 1.714-3.808 3.808-3.808h21.17c2.095 0 3.809 1.714 3.809 3.808 0 2.095-1.714 3.809-3.809 3.809" fill="#fbbe2b"/><path id="path240" d="m175.86 612.05h-48.784c-2.094 0-3.808-1.714-3.808-3.809 0-2.094 1.714-3.808 3.808-3.808h48.784c2.095 0 3.809 1.714 3.809 3.808 0 2.095-1.714 3.809-3.809 3.809" fill="#d5d7d4"/><path id="path242" d="m161.26 612.05h-34.186c-2.094 0-3.808-1.714-3.808-3.809 0-2.094 1.714-3.808 3.808-3.808h34.186c2.094 0 3.808 1.714 3.808 3.808 0 2.095-1.714 3.809-3.808 3.809" fill="#f78d28"/><path id="path244" d="m175.86 624.74h-48.784c-2.094 0-3.808-1.714-3.808-3.809 0-2.094 1.714-3.808 3.808-3.808h48.784c2.095 0 3.809 1.714 3.809 3.808 0 2.095-1.714 3.809-3.809 3.809" fill="#d5d7d4"/><path id="path246" d="m131.18 624.74h-4.109c-2.094 0-3.808-1.714-3.808-3.809 0-2.094 1.714-3.808 3.808-3.808h4.109c2.095 0 3.809 1.714 3.809 3.808 0 2.095-1.714 3.809-3.809 3.809" fill="#fbbe2b"/><path id="path248" d="m175.86 637.44h-48.784c-2.094 0-3.808-1.714-3.808-3.809 0-2.094 1.714-3.808 3.808-3.808h48.784c2.095 0 3.809 1.714 3.809 3.808 0 2.095-1.714 3.809-3.809 3.809" fill="#d5d7d4"/><path id="path250" d="m153.34 637.44h-26.271c-2.094 0-3.808-1.714-3.808-3.809 0-2.094 1.714-3.808 3.808-3.808h26.271c2.094 0 3.808 1.714 3.808 3.808 0 2.095-1.714 3.809-3.808 3.809" fill="#f78d28"/><path id="path252" d="m175.86 650.13h-48.784c-2.094 0-3.808-1.714-3.808-3.809s1.714-3.808 3.808-3.808h48.784c2.095 0 3.809 1.713 3.809 3.808s-1.714 3.809-3.809 3.809" fill="#d5d7d4"/><path id="path254" d="m157.92 650.13h-30.844c-2.094 0-3.808-1.714-3.808-3.809s1.714-3.808 3.808-3.808h30.844c2.094 0 3.808 1.713 3.808 3.808s-1.714 3.809-3.808 3.809" fill="#fbbe2b"/><path id="path256" d="m322.36 620.93c0-14.203-11.514-25.716-25.717-25.716s-25.716 11.513-25.716 25.716 11.513 25.717 25.716 25.717 25.717-11.514 25.717-25.717" fill="#fbbe2b"/></g><g id="g258" transform="scale(.1)"><g id="g260" clip-path="url(#clipPath262)"><path id="path266" d="m2966.4 6216.5-290.23 290.23h-82.21v-572.27l356.25-110.61 16.19 88.33v304.32" fill="#263a4b"/><path id="path268" d="m3170 6466.5-204.84-248.32v-317.2l292.34 82.5s112.5 272.84 112.5 281.42-151.69 166.08-151.69 166.08l-48.31 35.52" fill="#f78d28"/></g></g><path id="path270" d="m258.36 620.93c0-14.203-11.514-25.716-25.717-25.716s-25.716 11.513-25.716 25.716 11.513 25.717 25.716 25.717 25.717-11.514 25.717-25.717" fill="#fbbe2b"/><g id="g272" transform="scale(.1)"><g id="g274" clip-path="url(#clipPath276)"><path id="path280" d="m2326.4 6216.5v-304.32h376.64v168.5l-376.64 135.82" fill="#f78d28"/><path id="path282" d="m2326.4 6216.5-290.23 290.23h-82.21v-572.27l356.25-110.61 16.19 88.33v304.32" fill="#263a4b"/></g></g><g><path id="path284" d="m427.68 622.11c0-15.29-12.395-27.685-27.685-27.685s-27.685 12.395-27.685 27.685 12.395 27.684 27.685 27.684 27.685-12.394 27.685-27.684" fill="#fff"/><path id="path286" d="m400 647.29c-13.887 0-25.185-11.297-25.185-25.184s11.298-25.185 25.185-25.185 25.185 11.298 25.185 25.185-11.298 25.184-25.185 25.184zm0-55.369c-16.644 0-30.185 13.541-30.185 30.185s13.541 30.184 30.185 30.184 30.185-13.54 30.185-30.184-13.541-30.185-30.185-30.185" fill="#364f73"/><path id="path288" d="m400.63 639.74c-0.195 0.008-0.389 0.01-0.582 0.008l-0.111-26.885 4.416-0.019 0.144 3.443c0.72 3.268 6.081 8.369 6.252 12.458 0.244 5.83-4.284 10.751-10.119 10.995" fill="#f78d28"/><path id="path290" d="m399.46 639.75c0.195 0.006 0.389 0.007 0.583 0.003l-0.111-26.885-4.417 0.018-0.116 3.444c-0.693 3.273-6.011 8.419-6.148 12.509-0.196 5.832 4.372 10.715 10.209 10.911" fill="#fac12f"/><path id="path292" d="m404.49 611.92-9.117 0.037c-0.27 0.001-0.49 0.223-0.489 0.494 0.001 0.27 0.223 0.49 0.493 0.489l9.117-0.038c0.271-0.001 0.491-0.223 0.49-0.493s-0.224-0.49-0.494-0.489" fill="#ecebe9"/><path id="path294" d="m395.45 611.96c-0.032-0.159-0.05-0.323-0.05-0.491l-0.016-3.822c-0.006-1.441 1.168-2.625 2.609-2.631l3.822-0.016c1.441-0.006 2.625 1.169 2.631 2.61l0.016 3.822c0.001 0.167-0.016 0.332-0.046 0.491l-8.966 0.037" fill="#afb1b0"/></g><g fill="#a1a3a2"><path id="path296" d="m398.08 605.01c0.308-0.323 1.006-0.55 1.821-0.554 0.815-0.003 1.515 0.219 1.825 0.539l-3.646 0.015"/><path id="path298" d="m404.5 609.56-8.864-2.282c-0.312-0.08-0.634 0.11-0.714 0.422-0.081 0.313 0.109 0.635 0.422 0.715l8.863 2.282c0.313 0.08 0.634-0.11 0.715-0.422 0.08-0.313-0.11-0.634-0.422-0.715"/><path id="path300" d="m404.49 607.38-8.323-2.142c-0.313-0.08-0.634 0.109-0.715 0.422-0.08 0.313 0.11 0.634 0.422 0.715l8.323 2.142c0.313 0.081 0.634-0.109 0.715-0.422 0.08-0.313-0.11-0.634-0.422-0.715"/><path id="path302" d="m400.53 611.94-5.179-1.333c-0.313-0.081-0.503-0.402-0.422-0.715 0.08-0.312 0.402-0.502 0.714-0.422l8.864 2.282c0.113 0.029 0.209 0.09 0.283 0.171l-4.26 0.017"/></g><path id="path304" d="m494.7 596.42 20.039 14.451 14.511-7.225 32.478 19.492 29.714-9.101 61.955 26.593h26.099v-49.404h-190.2l5.4 5.194" fill="#345070"/><path id="path306" d="m489.3 591.25 5.4 5.191 20.039 14.444 14.511-7.222 32.478 19.482 29.714-9.096 61.955 26.579h26.099v-17.468h-27.064l-58.226-14.49-30.75 7.269-16.93-9.8-2.764 1.265-16.239-10.783-8.638 4.976-12.438-4.976-4.146 0.591-13.001-5.962" fill="#41607d"/><g fill="#fff"><path id="path308" d="m119.25 556.4c0-1.565-1.269-2.834-2.834-2.834-1.564 0-2.833 1.269-2.833 2.834 0 1.564 1.269 2.833 2.833 2.833 1.565 0 2.834-1.269 2.834-2.833"/><path id="path310" d="m119.25 546.2c0-1.564-1.269-2.833-2.834-2.833-1.564 0-2.833 1.269-2.833 2.833 0 1.565 1.269 2.833 2.833 2.833 1.565 0 2.834-1.268 2.834-2.833"/><path id="path312" d="m119.25 536c0-1.564-1.269-2.833-2.834-2.833-1.564 0-2.833 1.269-2.833 2.833 0 1.565 1.269 2.833 2.833 2.833 1.565 0 2.834-1.268 2.834-2.833"/><path id="path314" d="m119.25 525.8c0-1.565-1.269-2.833-2.834-2.833-1.564 0-2.833 1.268-2.833 2.833s1.269 2.833 2.833 2.833c1.565 0 2.834-1.268 2.834-2.833"/><path id="path316" d="m119.25 515.6c0-1.565-1.269-2.833-2.834-2.833-1.564 0-2.833 1.268-2.833 2.833s1.269 2.833 2.833 2.833c1.565 0 2.834-1.268 2.834-2.833"/><path id="path318" d="m119.25 505.4c0-1.565-1.269-2.833-2.834-2.833-1.564 0-2.833 1.268-2.833 2.833s1.269 2.833 2.833 2.833c1.565 0 2.834-1.268 2.834-2.833"/></g><g fill="#fbbe2b"><path id="path320" d="m119.25 495.2c0-1.565-1.269-2.833-2.834-2.833-1.564 0-2.833 1.268-2.833 2.833 0 1.564 1.269 2.833 2.833 2.833 1.565 0 2.834-1.269 2.834-2.833"/><path id="path322" d="m119.25 485c0-1.565-1.269-2.833-2.834-2.833-1.564 0-2.833 1.268-2.833 2.833 0 1.564 1.269 2.833 2.833 2.833 1.565 0 2.834-1.269 2.834-2.833"/><path id="path324" d="m119.25 474.8c0-1.564-1.269-2.833-2.834-2.833-1.564 0-2.833 1.269-2.833 2.833 0 1.565 1.269 2.834 2.833 2.834 1.565 0 2.834-1.269 2.834-2.834"/><path id="path326" d="m119.25 464.61c0-1.564-1.269-2.833-2.834-2.833-1.564 0-2.833 1.269-2.833 2.833 0 1.565 1.269 2.833 2.833 2.833 1.565 0 2.834-1.268 2.834-2.833"/><path id="path328" d="m119.25 454.41c0-1.564-1.269-2.833-2.834-2.833-1.564 0-2.833 1.269-2.833 2.833 0 1.565 1.269 2.833 2.833 2.833 1.565 0 2.834-1.268 2.834-2.833"/></g><g fill="#fff"><path id="path330" d="m130.29 556.4c0-1.565-1.269-2.834-2.833-2.834-1.565 0-2.834 1.269-2.834 2.834 0 1.564 1.269 2.833 2.834 2.833 1.564 0 2.833-1.269 2.833-2.833"/><path id="path332" d="m130.29 546.2c0-1.564-1.269-2.833-2.833-2.833-1.565 0-2.834 1.269-2.834 2.833 0 1.565 1.269 2.833 2.834 2.833 1.564 0 2.833-1.268 2.833-2.833"/><path id="path334" d="m130.29 536c0-1.564-1.269-2.833-2.833-2.833-1.565 0-2.834 1.269-2.834 2.833 0 1.565 1.269 2.833 2.834 2.833 1.564 0 2.833-1.268 2.833-2.833"/></g><g fill="#fbbe2b"><path id="path336" d="m130.29 525.8c0-1.565-1.269-2.833-2.833-2.833-1.565 0-2.834 1.268-2.834 2.833s1.269 2.833 2.834 2.833c1.564 0 2.833-1.268 2.833-2.833"/><path id="path338" d="m130.29 515.6c0-1.565-1.269-2.833-2.833-2.833-1.565 0-2.834 1.268-2.834 2.833s1.269 2.833 2.834 2.833c1.564 0 2.833-1.268 2.833-2.833"/><path id="path340" d="m130.29 505.4c0-1.565-1.269-2.833-2.833-2.833-1.565 0-2.834 1.268-2.834 2.833s1.269 2.833 2.834 2.833c1.564 0 2.833-1.268 2.833-2.833"/><path id="path342" d="m130.29 495.2c0-1.565-1.269-2.833-2.833-2.833-1.565 0-2.834 1.268-2.834 2.833 0 1.564 1.269 2.833 2.834 2.833 1.564 0 2.833-1.269 2.833-2.833"/><path id="path344" d="m130.29 485c0-1.565-1.269-2.833-2.833-2.833-1.565 0-2.834 1.268-2.834 2.833 0 1.564 1.269 2.833 2.834 2.833 1.564 0 2.833-1.269 2.833-2.833"/><path id="path346" d="m130.29 474.8c0-1.564-1.269-2.833-2.833-2.833-1.565 0-2.834 1.269-2.834 2.833 0 1.565 1.269 2.834 2.834 2.834 1.564 0 2.833-1.269 2.833-2.834"/><path id="path348" d="m130.29 464.61c0-1.564-1.269-2.833-2.833-2.833-1.565 0-2.834 1.269-2.834 2.833 0 1.565 1.269 2.833 2.834 2.833 1.564 0 2.833-1.268 2.833-2.833"/><path id="path350" d="m130.29 454.41c0-1.564-1.269-2.833-2.833-2.833-1.565 0-2.834 1.269-2.834 2.833 0 1.565 1.269 2.833 2.834 2.833 1.564 0 2.833-1.268 2.833-2.833"/></g><g fill="#fff"><path id="path352" d="m141.32 556.4c0-1.565-1.269-2.834-2.833-2.834-1.565 0-2.833 1.269-2.833 2.834 0 1.564 1.268 2.833 2.833 2.833 1.564 0 2.833-1.269 2.833-2.833"/><path id="path354" d="m141.32 546.2c0-1.564-1.269-2.833-2.833-2.833-1.565 0-2.833 1.269-2.833 2.833 0 1.565 1.268 2.833 2.833 2.833 1.564 0 2.833-1.268 2.833-2.833"/><path id="path356" d="m141.32 536c0-1.564-1.269-2.833-2.833-2.833-1.565 0-2.833 1.269-2.833 2.833 0 1.565 1.268 2.833 2.833 2.833 1.564 0 2.833-1.268 2.833-2.833"/><path id="path358" d="m141.32 525.8c0-1.565-1.269-2.833-2.833-2.833-1.565 0-2.833 1.268-2.833 2.833s1.268 2.833 2.833 2.833c1.564 0 2.833-1.268 2.833-2.833"/><path id="path360" d="m141.32 515.6c0-1.565-1.269-2.833-2.833-2.833-1.565 0-2.833 1.268-2.833 2.833s1.268 2.833 2.833 2.833c1.564 0 2.833-1.268 2.833-2.833"/><path id="path362" d="m141.32 505.4c0-1.565-1.269-2.833-2.833-2.833-1.565 0-2.833 1.268-2.833 2.833s1.268 2.833 2.833 2.833c1.564 0 2.833-1.268 2.833-2.833"/><path id="path364" d="m141.32 495.2c0-1.565-1.269-2.833-2.833-2.833-1.565 0-2.833 1.268-2.833 2.833 0 1.564 1.268 2.833 2.833 2.833 1.564 0 2.833-1.269 2.833-2.833"/><path id="path366" d="m141.32 485c0-1.565-1.269-2.833-2.833-2.833-1.565 0-2.833 1.268-2.833 2.833 0 1.564 1.268 2.833 2.833 2.833 1.564 0 2.833-1.269 2.833-2.833"/><path id="path368" d="m141.32 474.8c0-1.564-1.269-2.833-2.833-2.833-1.565 0-2.833 1.269-2.833 2.833 0 1.565 1.268 2.834 2.833 2.834 1.564 0 2.833-1.269 2.833-2.834"/><path id="path370" d="m141.32 464.61c0-1.564-1.269-2.833-2.833-2.833-1.565 0-2.833 1.269-2.833 2.833 0 1.565 1.268 2.833 2.833 2.833 1.564 0 2.833-1.268 2.833-2.833"/><path id="path372" d="m141.32 454.41c0-1.564-1.269-2.833-2.833-2.833-1.565 0-2.833 1.269-2.833 2.833 0 1.565 1.268 2.833 2.833 2.833 1.564 0 2.833-1.268 2.833-2.833"/><path id="path374" d="m152.36 556.4c0-1.565-1.269-2.834-2.833-2.834-1.565 0-2.833 1.269-2.833 2.834 0 1.564 1.268 2.833 2.833 2.833 1.564 0 2.833-1.269 2.833-2.833"/><path id="path376" d="m152.36 546.2c0-1.564-1.269-2.833-2.833-2.833-1.565 0-2.833 1.269-2.833 2.833 0 1.565 1.268 2.833 2.833 2.833 1.564 0 2.833-1.268 2.833-2.833"/><path id="path378" d="m152.36 536c0-1.564-1.269-2.833-2.833-2.833-1.565 0-2.833 1.269-2.833 2.833 0 1.565 1.268 2.833 2.833 2.833 1.564 0 2.833-1.268 2.833-2.833"/><path id="path380" d="m152.36 525.8c0-1.565-1.269-2.833-2.833-2.833-1.565 0-2.833 1.268-2.833 2.833s1.268 2.833 2.833 2.833c1.564 0 2.833-1.268 2.833-2.833"/><path id="path382" d="m152.36 515.6c0-1.565-1.269-2.833-2.833-2.833-1.565 0-2.833 1.268-2.833 2.833s1.268 2.833 2.833 2.833c1.564 0 2.833-1.268 2.833-2.833"/><path id="path384" d="m152.36 505.4c0-1.565-1.269-2.833-2.833-2.833-1.565 0-2.833 1.268-2.833 2.833s1.268 2.833 2.833 2.833c1.564 0 2.833-1.268 2.833-2.833"/><path id="path386" d="m152.36 495.2c0-1.565-1.269-2.833-2.833-2.833-1.565 0-2.833 1.268-2.833 2.833 0 1.564 1.268 2.833 2.833 2.833 1.564 0 2.833-1.269 2.833-2.833"/><path id="path388" d="m152.36 485c0-1.565-1.269-2.833-2.833-2.833-1.565 0-2.833 1.268-2.833 2.833 0 1.564 1.268 2.833 2.833 2.833 1.564 0 2.833-1.269 2.833-2.833"/></g><g fill="#fbbe2b"><path id="path390" d="m152.36 474.8c0-1.564-1.269-2.833-2.833-2.833-1.565 0-2.833 1.269-2.833 2.833 0 1.565 1.268 2.834 2.833 2.834 1.564 0 2.833-1.269 2.833-2.834"/><path id="path392" d="m152.36 464.61c0-1.564-1.269-2.833-2.833-2.833-1.565 0-2.833 1.269-2.833 2.833 0 1.565 1.268 2.833 2.833 2.833 1.564 0 2.833-1.268 2.833-2.833"/><path id="path394" d="m152.36 454.41c0-1.564-1.269-2.833-2.833-2.833-1.565 0-2.833 1.269-2.833 2.833 0 1.565 1.268 2.833 2.833 2.833 1.564 0 2.833-1.268 2.833-2.833"/></g><g fill="#fff"><path id="path396" d="m163.4 556.4c0-1.565-1.269-2.834-2.833-2.834-1.565 0-2.833 1.269-2.833 2.834 0 1.564 1.268 2.833 2.833 2.833 1.564 0 2.833-1.269 2.833-2.833"/><path id="path398" d="m163.4 546.2c0-1.564-1.269-2.833-2.833-2.833-1.565 0-2.833 1.269-2.833 2.833 0 1.565 1.268 2.833 2.833 2.833 1.564 0 2.833-1.268 2.833-2.833"/><path id="path400" d="m163.4 536c0-1.564-1.269-2.833-2.833-2.833-1.565 0-2.833 1.269-2.833 2.833 0 1.565 1.268 2.833 2.833 2.833 1.564 0 2.833-1.268 2.833-2.833"/><path id="path402" d="m163.4 525.8c0-1.565-1.269-2.833-2.833-2.833-1.565 0-2.833 1.268-2.833 2.833s1.268 2.833 2.833 2.833c1.564 0 2.833-1.268 2.833-2.833"/><path id="path404" d="m163.4 515.6c0-1.565-1.269-2.833-2.833-2.833-1.565 0-2.833 1.268-2.833 2.833s1.268 2.833 2.833 2.833c1.564 0 2.833-1.268 2.833-2.833"/><path id="path406" d="m163.4 505.4c0-1.565-1.269-2.833-2.833-2.833-1.565 0-2.833 1.268-2.833 2.833s1.268 2.833 2.833 2.833c1.564 0 2.833-1.268 2.833-2.833"/><path id="path408" d="m163.4 495.2c0-1.565-1.269-2.833-2.833-2.833-1.565 0-2.833 1.268-2.833 2.833 0 1.564 1.268 2.833 2.833 2.833 1.564 0 2.833-1.269 2.833-2.833"/><path id="path410" d="m163.4 485c0-1.565-1.269-2.833-2.833-2.833-1.565 0-2.833 1.268-2.833 2.833 0 1.564 1.268 2.833 2.833 2.833 1.564 0 2.833-1.269 2.833-2.833"/><path id="path412" d="m163.4 474.8c0-1.564-1.269-2.833-2.833-2.833-1.565 0-2.833 1.269-2.833 2.833 0 1.565 1.268 2.834 2.833 2.834 1.564 0 2.833-1.269 2.833-2.834"/><path id="path414" d="m163.4 464.61c0-1.564-1.269-2.833-2.833-2.833-1.565 0-2.833 1.269-2.833 2.833 0 1.565 1.268 2.833 2.833 2.833 1.564 0 2.833-1.268 2.833-2.833"/></g><path id="path416" d="m163.4 454.41c0-1.564-1.269-2.833-2.833-2.833-1.565 0-2.833 1.269-2.833 2.833 0 1.565 1.268 2.833 2.833 2.833 1.564 0 2.833-1.268 2.833-2.833" fill="#fbbe2b"/><g fill="#fff"><path id="path418" d="m174.44 556.4c0-1.565-1.268-2.834-2.833-2.834s-2.833 1.269-2.833 2.834c0 1.564 1.268 2.833 2.833 2.833s2.833-1.269 2.833-2.833"/><path id="path420" d="m174.44 546.2c0-1.564-1.268-2.833-2.833-2.833s-2.833 1.269-2.833 2.833c0 1.565 1.268 2.833 2.833 2.833s2.833-1.268 2.833-2.833"/><path id="path422" d="m174.44 536c0-1.564-1.268-2.833-2.833-2.833s-2.833 1.269-2.833 2.833c0 1.565 1.268 2.833 2.833 2.833s2.833-1.268 2.833-2.833"/><path id="path424" d="m174.44 525.8c0-1.565-1.268-2.833-2.833-2.833s-2.833 1.268-2.833 2.833 1.268 2.833 2.833 2.833 2.833-1.268 2.833-2.833"/><path id="path426" d="m174.44 515.6c0-1.565-1.268-2.833-2.833-2.833s-2.833 1.268-2.833 2.833 1.268 2.833 2.833 2.833 2.833-1.268 2.833-2.833"/></g><g fill="#fbbe2b"><path id="path428" d="m174.44 505.4c0-1.565-1.268-2.833-2.833-2.833s-2.833 1.268-2.833 2.833 1.268 2.833 2.833 2.833 2.833-1.268 2.833-2.833"/><path id="path430" d="m174.44 495.2c0-1.565-1.268-2.833-2.833-2.833s-2.833 1.268-2.833 2.833c0 1.564 1.268 2.833 2.833 2.833s2.833-1.269 2.833-2.833"/><path id="path432" d="m174.44 485c0-1.565-1.268-2.833-2.833-2.833s-2.833 1.268-2.833 2.833c0 1.564 1.268 2.833 2.833 2.833s2.833-1.269 2.833-2.833"/><path id="path434" d="m174.44 474.8c0-1.564-1.268-2.833-2.833-2.833s-2.833 1.269-2.833 2.833c0 1.565 1.268 2.834 2.833 2.834s2.833-1.269 2.833-2.834"/><path id="path436" d="m174.44 464.61c0-1.564-1.268-2.833-2.833-2.833s-2.833 1.269-2.833 2.833c0 1.565 1.268 2.833 2.833 2.833s2.833-1.268 2.833-2.833"/><path id="path438" d="m174.44 454.41c0-1.564-1.268-2.833-2.833-2.833s-2.833 1.269-2.833 2.833c0 1.565 1.268 2.833 2.833 2.833s2.833-1.268 2.833-2.833"/></g><g fill="#fff"><path id="path440" d="m185.47 556.4c0-1.565-1.268-2.834-2.833-2.834s-2.833 1.269-2.833 2.834c0 1.564 1.268 2.833 2.833 2.833s2.833-1.269 2.833-2.833"/><path id="path442" d="m185.47 546.2c0-1.564-1.268-2.833-2.833-2.833s-2.833 1.269-2.833 2.833c0 1.565 1.268 2.833 2.833 2.833s2.833-1.268 2.833-2.833"/><path id="path444" d="m185.47 536c0-1.564-1.268-2.833-2.833-2.833s-2.833 1.269-2.833 2.833c0 1.565 1.268 2.833 2.833 2.833s2.833-1.268 2.833-2.833"/><path id="path446" d="m185.47 525.8c0-1.565-1.268-2.833-2.833-2.833s-2.833 1.268-2.833 2.833 1.268 2.833 2.833 2.833 2.833-1.268 2.833-2.833"/><path id="path448" d="m185.47 515.6c0-1.565-1.268-2.833-2.833-2.833s-2.833 1.268-2.833 2.833 1.268 2.833 2.833 2.833 2.833-1.268 2.833-2.833"/><path id="path450" d="m185.47 505.4c0-1.565-1.268-2.833-2.833-2.833s-2.833 1.268-2.833 2.833 1.268 2.833 2.833 2.833 2.833-1.268 2.833-2.833"/></g><g fill="#fbbe2b"><path id="path452" d="m185.47 495.2c0-1.565-1.268-2.833-2.833-2.833s-2.833 1.268-2.833 2.833c0 1.564 1.268 2.833 2.833 2.833s2.833-1.269 2.833-2.833"/><path id="path454" d="m185.47 485c0-1.565-1.268-2.833-2.833-2.833s-2.833 1.268-2.833 2.833c0 1.564 1.268 2.833 2.833 2.833s2.833-1.269 2.833-2.833"/><path id="path456" d="m185.47 474.8c0-1.564-1.268-2.833-2.833-2.833s-2.833 1.269-2.833 2.833c0 1.565 1.268 2.834 2.833 2.834s2.833-1.269 2.833-2.834"/><path id="path458" d="m185.47 464.61c0-1.564-1.268-2.833-2.833-2.833s-2.833 1.269-2.833 2.833c0 1.565 1.268 2.833 2.833 2.833s2.833-1.268 2.833-2.833"/><path id="path460" d="m185.47 454.41c0-1.564-1.268-2.833-2.833-2.833s-2.833 1.269-2.833 2.833c0 1.565 1.268 2.833 2.833 2.833s2.833-1.268 2.833-2.833"/></g><path id="path462" d="m196.51 556.4c0-1.565-1.268-2.834-2.833-2.834s-2.833 1.269-2.833 2.834c0 1.564 1.268 2.833 2.833 2.833s2.833-1.269 2.833-2.833" fill="#fff"/><g fill="#fbbe2b"><path id="path464" d="m196.51 546.2c0-1.564-1.268-2.833-2.833-2.833s-2.833 1.269-2.833 2.833c0 1.565 1.268 2.833 2.833 2.833s2.833-1.268 2.833-2.833"/><path id="path466" d="m196.51 536c0-1.564-1.268-2.833-2.833-2.833s-2.833 1.269-2.833 2.833c0 1.565 1.268 2.833 2.833 2.833s2.833-1.268 2.833-2.833"/><path id="path468" d="m196.51 525.8c0-1.565-1.268-2.833-2.833-2.833s-2.833 1.268-2.833 2.833 1.268 2.833 2.833 2.833 2.833-1.268 2.833-2.833"/><path id="path470" d="m196.51 515.6c0-1.565-1.268-2.833-2.833-2.833s-2.833 1.268-2.833 2.833 1.268 2.833 2.833 2.833 2.833-1.268 2.833-2.833"/><path id="path472" d="m196.51 505.4c0-1.565-1.268-2.833-2.833-2.833s-2.833 1.268-2.833 2.833 1.268 2.833 2.833 2.833 2.833-1.268 2.833-2.833"/><path id="path474" d="m196.51 495.2c0-1.565-1.268-2.833-2.833-2.833s-2.833 1.268-2.833 2.833c0 1.564 1.268 2.833 2.833 2.833s2.833-1.269 2.833-2.833"/><path id="path476" d="m196.51 485c0-1.565-1.268-2.833-2.833-2.833s-2.833 1.268-2.833 2.833c0 1.564 1.268 2.833 2.833 2.833s2.833-1.269 2.833-2.833"/><path id="path478" d="m196.51 474.8c0-1.564-1.268-2.833-2.833-2.833s-2.833 1.269-2.833 2.833c0 1.565 1.268 2.834 2.833 2.834s2.833-1.269 2.833-2.834"/><path id="path480" d="m196.51 464.61c0-1.564-1.268-2.833-2.833-2.833s-2.833 1.269-2.833 2.833c0 1.565 1.268 2.833 2.833 2.833s2.833-1.268 2.833-2.833"/><path id="path482" d="m196.51 454.41c0-1.564-1.268-2.833-2.833-2.833s-2.833 1.269-2.833 2.833c0 1.565 1.268 2.833 2.833 2.833s2.833-1.268 2.833-2.833"/></g><g fill="#fff"><path id="path484" d="m207.55 556.4c0-1.565-1.268-2.834-2.833-2.834s-2.833 1.269-2.833 2.834c0 1.564 1.268 2.833 2.833 2.833s2.833-1.269 2.833-2.833"/><path id="path486" d="m207.55 546.2c0-1.564-1.268-2.833-2.833-2.833s-2.833 1.269-2.833 2.833c0 1.565 1.268 2.833 2.833 2.833s2.833-1.268 2.833-2.833"/><path id="path488" d="m207.55 536c0-1.564-1.268-2.833-2.833-2.833s-2.833 1.269-2.833 2.833c0 1.565 1.268 2.833 2.833 2.833s2.833-1.268 2.833-2.833"/><path id="path490" d="m207.55 525.8c0-1.565-1.268-2.833-2.833-2.833s-2.833 1.268-2.833 2.833 1.268 2.833 2.833 2.833 2.833-1.268 2.833-2.833"/></g><g fill="#fbbe2b"><path id="path492" d="m207.55 515.6c0-1.565-1.268-2.833-2.833-2.833s-2.833 1.268-2.833 2.833 1.268 2.833 2.833 2.833 2.833-1.268 2.833-2.833"/><path id="path494" d="m207.55 505.4c0-1.565-1.268-2.833-2.833-2.833s-2.833 1.268-2.833 2.833 1.268 2.833 2.833 2.833 2.833-1.268 2.833-2.833"/><path id="path496" d="m207.55 495.2c0-1.565-1.268-2.833-2.833-2.833s-2.833 1.268-2.833 2.833c0 1.564 1.268 2.833 2.833 2.833s2.833-1.269 2.833-2.833"/><path id="path498" d="m207.55 485c0-1.565-1.268-2.833-2.833-2.833s-2.833 1.268-2.833 2.833c0 1.564 1.268 2.833 2.833 2.833s2.833-1.269 2.833-2.833"/><path id="path500" d="m207.55 474.8c0-1.564-1.268-2.833-2.833-2.833s-2.833 1.269-2.833 2.833c0 1.565 1.268 2.834 2.833 2.834s2.833-1.269 2.833-2.834"/><path id="path502" d="m207.55 464.61c0-1.564-1.268-2.833-2.833-2.833s-2.833 1.269-2.833 2.833c0 1.565 1.268 2.833 2.833 2.833s2.833-1.268 2.833-2.833"/><path id="path504" d="m207.55 454.41c0-1.564-1.268-2.833-2.833-2.833s-2.833 1.269-2.833 2.833c0 1.565 1.268 2.833 2.833 2.833s2.833-1.268 2.833-2.833"/></g><g fill="#fff"><path id="path506" d="m218.58 556.4c0-1.565-1.268-2.834-2.833-2.834-1.564 0-2.833 1.269-2.833 2.834 0 1.564 1.269 2.833 2.833 2.833 1.565 0 2.833-1.269 2.833-2.833"/><path id="path508" d="m218.58 546.2c0-1.564-1.268-2.833-2.833-2.833-1.564 0-2.833 1.269-2.833 2.833 0 1.565 1.269 2.833 2.833 2.833 1.565 0 2.833-1.268 2.833-2.833"/><path id="path510" d="m218.58 536c0-1.564-1.268-2.833-2.833-2.833-1.564 0-2.833 1.269-2.833 2.833 0 1.565 1.269 2.833 2.833 2.833 1.565 0 2.833-1.268 2.833-2.833"/><path id="path512" d="m218.58 525.8c0-1.565-1.268-2.833-2.833-2.833-1.564 0-2.833 1.268-2.833 2.833s1.269 2.833 2.833 2.833c1.565 0 2.833-1.268 2.833-2.833"/><path id="path514" d="m218.58 515.6c0-1.565-1.268-2.833-2.833-2.833-1.564 0-2.833 1.268-2.833 2.833s1.269 2.833 2.833 2.833c1.565 0 2.833-1.268 2.833-2.833"/><path id="path516" d="m218.58 505.4c0-1.565-1.268-2.833-2.833-2.833-1.564 0-2.833 1.268-2.833 2.833s1.269 2.833 2.833 2.833c1.565 0 2.833-1.268 2.833-2.833"/><path id="path518" d="m218.58 495.2c0-1.565-1.268-2.833-2.833-2.833-1.564 0-2.833 1.268-2.833 2.833 0 1.564 1.269 2.833 2.833 2.833 1.565 0 2.833-1.269 2.833-2.833"/><path id="path520" d="m218.58 485c0-1.565-1.268-2.833-2.833-2.833-1.564 0-2.833 1.268-2.833 2.833 0 1.564 1.269 2.833 2.833 2.833 1.565 0 2.833-1.269 2.833-2.833"/></g><g fill="#fbbe2b"><path id="path522" d="m218.58 474.8c0-1.564-1.268-2.833-2.833-2.833-1.564 0-2.833 1.269-2.833 2.833 0 1.565 1.269 2.834 2.833 2.834 1.565 0 2.833-1.269 2.833-2.834"/><path id="path524" d="m218.58 464.61c0-1.564-1.268-2.833-2.833-2.833-1.564 0-2.833 1.269-2.833 2.833 0 1.565 1.269 2.833 2.833 2.833 1.565 0 2.833-1.268 2.833-2.833"/><path id="path526" d="m218.58 454.41c0-1.564-1.268-2.833-2.833-2.833-1.564 0-2.833 1.269-2.833 2.833 0 1.565 1.269 2.833 2.833 2.833 1.565 0 2.833-1.268 2.833-2.833"/></g><g><path id="path528" d="m228.97 451.57h180.52v107.66h-180.52v-107.66z" fill="#496c9c"/><path id="path530" d="m262.42 543.58c0-3.708-3.006-6.714-6.714-6.714s-6.714 3.006-6.714 6.714 3.006 6.714 6.714 6.714 6.714-3.006 6.714-6.714" fill="#fbbe2b"/><path id="path532" d="m280.55 543.58c0-3.708-3.006-6.714-6.714-6.714s-6.714 3.006-6.714 6.714 3.006 6.714 6.714 6.714 6.714-3.006 6.714-6.714" fill="#f78d28"/><path id="path534" d="m298.67 543.58c0-3.708-3.006-6.714-6.714-6.714s-6.714 3.006-6.714 6.714 3.006 6.714 6.714 6.714 6.714-3.006 6.714-6.714" fill="#fff"/><path id="path536" d="m316.79 543.58c0-3.708-3.006-6.714-6.715-6.714-3.708 0-6.714 3.006-6.714 6.714s3.006 6.714 6.714 6.714c3.709 0 6.715-3.006 6.715-6.714" fill="#fbbe2b"/><path id="path538" d="m335.1 543.58c0-3.708-3.006-6.714-6.714-6.714s-6.714 3.006-6.714 6.714 3.006 6.714 6.714 6.714 6.714-3.006 6.714-6.714" fill="#fbbe2b"/><path id="path540" d="m353.22 543.58c0-3.708-3.006-6.714-6.715-6.714-3.708 0-6.714 3.006-6.714 6.714s3.006 6.714 6.714 6.714c3.709 0 6.715-3.006 6.715-6.714" fill="#f78d28"/><path id="path542" d="m371.34 543.58c0-3.708-3.006-6.714-6.714-6.714-3.709 0-6.715 3.006-6.715 6.714s3.006 6.714 6.715 6.714c3.708 0 6.714-3.006 6.714-6.714" fill="#fff"/><path id="path544" d="m389.46 543.58c0-3.708-3.006-6.714-6.714-6.714s-6.714 3.006-6.714 6.714 3.006 6.714 6.714 6.714 6.714-3.006 6.714-6.714" fill="#fbbe2b"/><path id="path546" d="m251.75 460.65h4.2289v40.612h-4.2289v-40.612z" fill="#2e4760"/><path id="path548" d="m249.07 494.37h9.5918v4.6719h-9.5918v-4.6719z" fill="#fff"/><path id="path550" d="m270.78 460.65h4.2281v40.612h-4.2281v-40.612z" fill="#2e4760"/><path id="path552" d="m268.1 482.69h9.5918v4.6719h-9.5918v-4.6719z" fill="#fff"/><path id="path554" d="m289.81 460.65h4.2289v40.612h-4.2289v-40.612z" fill="#2e4760"/><path id="path556" d="m287.13 470.29h9.5922v4.673h-9.5922v-4.673z" fill="#fff"/><path id="path558" d="m308.84 460.65h4.2289v40.612h-4.2289v-40.612z" fill="#2e4760"/><path id="path560" d="m306.16 492.04h9.5918v4.6719h-9.5918v-4.6719z" fill="#fff"/><path id="path562" d="m325.39 460.65h4.2293v40.612h-4.2293v-40.612z" fill="#2e4760"/><path id="path564" d="m322.71 494.37h9.5918v4.6719h-9.5918v-4.6719z" fill="#fff"/><path id="path566" d="m344.42 460.65h4.2277v40.612h-4.2277v-40.612z" fill="#2e4760"/><path id="path568" d="m341.74 482.69h9.5918v4.6719h-9.5918v-4.6719z" fill="#fff"/><path id="path570" d="m363.45 460.65h4.2293v40.612h-4.2293v-40.612z" fill="#2e4760"/><path id="path572" d="m360.77 470.29h9.5922v4.673h-9.5922v-4.673z" fill="#fff"/><path id="path574" d="m382.48 460.65h4.2277v40.612h-4.2277v-40.612z" fill="#2e4760"/></g><g fill="#fff"><path id="path576" d="m379.79 492.04h9.5918v4.6719h-9.5918v-4.6719z"/><path id="path578" d="m249 514.75h140.46v7.366h-140.46v-7.366z"/><path id="path580" d="m424.66 454.58h178.82v101.66h-178.82v-101.66z"/></g><g><path id="path582" d="m606.48 559.23h-184.82v-107.66h184.82v107.66zm-6-6v-95.658h-172.82v95.658h172.82" fill="#496c9c"/><path id="path584" d="m519.78 509.85h74.724v37.849h-74.724v-37.849z" fill="#ebece9"/><path id="path586" d="m519.78 509.85s7.795 14.869 26.772 14.29c18.978-0.58 20.164-2.511 26.264 1.931 6.099 4.441 14.233 8.303 21.688 5.407v-21.628h-74.724" fill="#fbbe2b"/><path id="path588" d="m433.64 509.85h74.723v37.849h-74.723v-37.849z" fill="#ebece9"/><path id="path590" d="m433.64 509.85s0.384 11.895 19.361 11.315c18.977-0.579 30.171-1.778 33.674 4.906 4.076 7.778 14.233 14.675 21.688 11.778v-27.999h-74.723" fill="#345070"/><path id="path592" d="m519.78 463.11h74.724v37.849h-74.724v-37.849z" fill="#ebece9"/><path id="path594" d="m519.78 463.11s10.474 22.631 26.772 14.29c16.902-8.65 17.796 2.468 22.452 8.341 4.687 5.913 18.045 14.508 25.5 11.611v-34.242h-74.724" fill="#f78d28"/><path id="path596" d="m433.64 463.11h74.723v37.849h-74.723v-37.849z" fill="#ebece9"/><path id="path598" d="m433.64 463.11s7.794 14.869 26.771 14.29c18.978-0.579 20.49-7.416 26.59-2.975 6.1 4.442 13.907 7.074 21.362 4.177v-15.492h-74.723" fill="#496c9c"/><path id="path600" d="m614.33 449.32h73.951v109.91h-73.951v-109.91z" fill="#496c9c"/></g><g fill="#fbbe2b"><path id="path602" d="m635.14 541.78c0-3.497-2.836-6.333-6.333-6.333-3.498 0-6.334 2.836-6.334 6.333 0 3.498 2.836 6.334 6.334 6.334 3.497 0 6.333-2.836 6.333-6.334"/><path id="path604" d="m635.14 511.78c0-3.497-2.836-6.333-6.333-6.333-3.498 0-6.334 2.836-6.334 6.333 0 3.498 2.836 6.334 6.334 6.334 3.497 0 6.333-2.836 6.333-6.334"/><path id="path606" d="m635.14 481.78c0-3.497-2.836-6.333-6.333-6.333-3.498 0-6.334 2.836-6.334 6.333 0 3.498 2.836 6.334 6.334 6.334 3.497 0 6.333-2.836 6.333-6.334"/></g><g fill="#f78d28"><path id="path608" d="m650.14 526.78c0-3.497-2.836-6.333-6.333-6.333-3.498 0-6.334 2.836-6.334 6.333 0 3.498 2.836 6.334 6.334 6.334 3.497 0 6.333-2.836 6.333-6.334"/><path id="path610" d="m650.14 496.78c0-3.497-2.836-6.333-6.333-6.333-3.498 0-6.334 2.836-6.334 6.333 0 3.498 2.836 6.334 6.334 6.334 3.497 0 6.333-2.836 6.333-6.334"/><path id="path612" d="m650.14 466.78c0-3.497-2.836-6.333-6.333-6.333-3.498 0-6.334 2.836-6.334 6.333 0 3.498 2.836 6.334 6.334 6.334 3.497 0 6.333-2.836 6.333-6.334"/></g><g fill="#fbbe2b"><path id="path614" d="m665.14 541.78c0-3.497-2.836-6.333-6.333-6.333-3.498 0-6.334 2.836-6.334 6.333 0 3.498 2.836 6.334 6.334 6.334 3.497 0 6.333-2.836 6.333-6.334"/><path id="path616" d="m665.14 511.78c0-3.497-2.836-6.333-6.333-6.333-3.498 0-6.334 2.836-6.334 6.333 0 3.498 2.836 6.334 6.334 6.334 3.497 0 6.333-2.836 6.333-6.334"/><path id="path618" d="m665.14 481.78c0-3.497-2.836-6.333-6.333-6.333-3.498 0-6.334 2.836-6.334 6.333 0 3.498 2.836 6.334 6.334 6.334 3.497 0 6.333-2.836 6.333-6.334"/></g><g fill="#f78d28"><path id="path620" d="m680.14 526.78c0-3.497-2.836-6.333-6.333-6.333-3.498 0-6.334 2.836-6.334 6.333 0 3.498 2.836 6.334 6.334 6.334 3.497 0 6.333-2.836 6.333-6.334"/><path id="path622" d="m680.14 496.78c0-3.497-2.836-6.333-6.333-6.333-3.498 0-6.334 2.836-6.334 6.333 0 3.498 2.836 6.334 6.334 6.334 3.497 0 6.333-2.836 6.333-6.334"/><path id="path624" d="m680.14 466.78c0-3.497-2.836-6.333-6.333-6.333-3.498 0-6.334 2.836-6.334 6.333 0 3.498 2.836 6.334 6.334 6.334 3.497 0 6.333-2.836 6.333-6.334"/></g><g><path id="path626" d="m534.33 349.52h153.95v89.834h-153.95v-89.834z" fill="#fff"/><path id="path628" d="m545.63 366.58v-6.189c0-1.293-1.057-2.35-2.35-2.35h-2.29c-1.292 0-2.35 1.057-2.35 2.35v6.189c0 1.293 1.058 2.35 2.35 2.35h2.29c1.293 0 2.35-1.057 2.35-2.35" fill="#fbbe2b"/><path id="path630" d="m556.3 373.11v-12.712c0-1.293-1.057-2.35-2.35-2.35h-2.29c-1.292 0-2.35 1.057-2.35 2.35v12.712c0 1.292 1.058 2.35 2.35 2.35h2.29c1.293 0 2.35-1.058 2.35-2.35" fill="#f78d28"/><path id="path632" d="m566.97 369.12v-8.729c0-1.293-1.058-2.35-2.351-2.35h-2.29c-1.292 0-2.35 1.057-2.35 2.35v8.729c0 1.293 1.058 2.35 2.35 2.35h2.29c1.293 0 2.351-1.057 2.351-2.35" fill="#fbbe2b"/><path id="path634" d="m577.64 375.08v-14.684c0-1.293-1.058-2.35-2.35-2.35h-2.291c-1.292 0-2.35 1.057-2.35 2.35v14.684c0 1.292 1.058 2.35 2.35 2.35h2.291c1.292 0 2.35-1.058 2.35-2.35" fill="#f78d28"/><path id="path636" d="m588.32 373.18v-12.788c0-1.293-1.058-2.35-2.35-2.35h-2.291c-1.292 0-2.35 1.057-2.35 2.35v12.788c0 1.292 1.058 2.35 2.35 2.35h2.291c1.292 0 2.35-1.058 2.35-2.35" fill="#fbbe2b"/><path id="path638" d="m598.99 378.8v-18.4c0-1.293-1.058-2.35-2.35-2.35h-2.29c-1.293 0-2.351 1.057-2.351 2.35v18.4c0 1.293 1.058 2.35 2.351 2.35h2.29c1.292 0 2.35-1.057 2.35-2.35" fill="#f78d28"/><path id="path640" d="m609.66 380.77v-20.372c0-1.293-1.058-2.35-2.35-2.35h-2.29c-1.293 0-2.35 1.057-2.35 2.35v20.372c0 1.293 1.057 2.35 2.35 2.35h2.29c1.292 0 2.35-1.057 2.35-2.35" fill="#fbbe2b"/><path id="path642" d="m619.95 382.18v-21.78c0-1.293-1.057-2.35-2.35-2.35h-2.29c-1.292 0-2.35 1.057-2.35 2.35v21.78c0 1.293 1.058 2.35 2.35 2.35h2.29c1.293 0 2.35-1.057 2.35-2.35" fill="#f78d28"/><path id="path644" d="m630.62 398.04v-37.642c0-1.293-1.058-2.35-2.35-2.35h-2.291c-1.292 0-2.35 1.057-2.35 2.35v37.642c0 1.292 1.058 2.35 2.35 2.35h2.291c1.292 0 2.35-1.058 2.35-2.35" fill="#fbbe2b"/><path id="path646" d="m641.29 388.35v-27.956c0-1.293-1.058-2.35-2.35-2.35h-2.291c-1.292 0-2.35 1.057-2.35 2.35v27.956c0 1.293 1.058 2.35 2.35 2.35h2.291c1.292 0 2.35-1.057 2.35-2.35" fill="#f78d28"/><path id="path648" d="m651.96 402.83v-42.437c0-1.293-1.058-2.35-2.35-2.35h-2.29c-1.293 0-2.351 1.057-2.351 2.35v42.437c0 1.293 1.058 2.35 2.351 2.35h2.29c1.292 0 2.35-1.057 2.35-2.35" fill="#fbbe2b"/><path id="path650" d="m662.64 398.22v-37.826c0-1.293-1.058-2.35-2.35-2.35h-2.29c-1.293 0-2.35 1.057-2.35 2.35v37.826c0 1.293 1.057 2.35 2.35 2.35h2.29c1.292 0 2.35-1.057 2.35-2.35" fill="#f78d28"/><path id="path652" d="m673.31 411.87v-51.475c0-1.293-1.058-2.35-2.35-2.35h-2.29c-1.293 0-2.35 1.057-2.35 2.35v51.475c0 1.292 1.057 2.35 2.35 2.35h2.29c1.292 0 2.35-1.058 2.35-2.35" fill="#fbbe2b"/><path id="path654" d="m683.98 416.67v-56.27c0-1.293-1.057-2.35-2.35-2.35h-2.29c-1.293 0-2.35 1.057-2.35 2.35v56.27c0 1.293 1.057 2.35 2.35 2.35h2.29c1.293 0 2.35-1.057 2.35-2.35" fill="#f78d28"/><path id="path656" d="m605.71 424.93h-45.458c-1.712 0-3.113-1.401-3.113-3.113v-16.671c0-1.713 1.401-3.113 3.113-3.113h32.151c2.647-5.236 6.318-11.885 6.318-11.885v11.885h6.989c1.712 0 3.113 1.4 3.113 3.113v16.671c0 1.712-1.401 3.113-3.113 3.113" fill="#496c9c"/><path id="path658" d="m113.58 676.07h227.9v82.5h-227.9v-82.5z" fill="#fff"/></g><g fill="#d5d7d4"><path id="path660" d="m113.58 756.82h227.9v1h-227.9v-1z"/><path id="path662" d="m113.58 746.82h227.9v1h-227.9v-1z"/><path id="path664" d="m113.58 736.82h227.9v1h-227.9v-1z"/><path id="path666" d="m113.58 726.82h227.9v1h-227.9v-1z"/><path id="path668" d="m113.58 716.82h227.9v1h-227.9v-1z"/><path id="path670" d="m113.58 706.82h227.9v1h-227.9v-1z"/><path id="path672" d="m113.58 696.82h227.9v1h-227.9v-1z"/><path id="path674" d="m113.58 686.82h227.9v1h-227.9v-1z"/><path id="path676" d="m113.58 676.82h227.9v1h-227.9v-1z"/></g><g><path id="path678" d="m121.01 676.07h13.039v41.75h-13.039v-41.75z" fill="#fbbe2b"/><path id="path680" d="m141.01 676.07h13.039v45.083h-13.039v-45.083z" fill="#f78d28"/><path id="path682" d="m161.01 676.07h13.039v25.416h-13.039v-25.416z" fill="#fbbe2b"/><path id="path684" d="m181.01 676.07h13.039v40.416h-13.039v-40.416z" fill="#f78d28"/><path id="path686" d="m201.01 676.07h13.039v33.416h-13.039v-33.416z" fill="#fbbe2b"/><path id="path688" d="m221.01 676.07h13.039v52.75h-13.039v-52.75z" fill="#f78d28"/><path id="path690" d="m241.01 676.07h13.039v64.75h-13.039v-64.75z" fill="#fbbe2b"/><path id="path692" d="m261.01 676.07h13.039v37.416h-13.039v-37.416z" fill="#f78d28"/><path id="path694" d="m281.01 676.07h13.039v50.304h-13.039v-50.304z" fill="#fbbe2b"/><path id="path696" d="m301.01 676.07h13.039v64.304h-13.039v-64.304z" fill="#f78d28"/><path id="path698" d="m321.01 676.07h13.039v78.083h-13.039v-78.083z" fill="#fbbe2b"/><path id="path700" d="m351.33 676.07h143v82.5h-143v-82.5z" fill="#496c9c"/></g><g fill="#fbbe2b"><path id="path702" d="m366.98 734.84h4.9812v4.9805h-4.9812v-4.9805z"/><path id="path704" d="m377.65 734.84h4.9809v4.9805h-4.9809v-4.9805z"/><path id="path706" d="m388.32 734.84h4.9801v4.9805h-4.9801v-4.9805z"/><path id="path708" d="m399 734.84h4.9801v4.9805h-4.9801v-4.9805z"/><path id="path710" d="m409.67 734.84h4.9797v4.9805h-4.9797v-4.9805z"/><path id="path712" d="m420.34 734.84h4.9801v4.9805h-4.9801v-4.9805z"/><path id="path714" d="m431.01 734.84h4.9801v4.9805h-4.9801v-4.9805z"/></g><g fill="#fff"><path id="path716" d="m441.68 734.84h4.9797v4.9805h-4.9797v-4.9805z"/><path id="path718" d="m452.36 734.84h4.9801v4.9805h-4.9801v-4.9805z"/><path id="path720" d="m463.03 734.84h4.9801v4.9805h-4.9801v-4.9805z"/><path id="path722" d="m473.7 734.84h4.9797v4.9805h-4.9797v-4.9805z"/></g><g fill="#fbbe2b"><path id="path724" d="m366.98 726.84h4.9812v4.9805h-4.9812v-4.9805z"/><path id="path726" d="m377.65 726.84h4.9809v4.9805h-4.9809v-4.9805z"/><path id="path728" d="m388.32 726.84h4.9801v4.9805h-4.9801v-4.9805z"/><path id="path730" d="m399 726.84h4.9801v4.9805h-4.9801v-4.9805z"/><path id="path732" d="m409.67 726.84h4.9797v4.9805h-4.9797v-4.9805z"/><path id="path734" d="m420.34 726.84h4.9801v4.9805h-4.9801v-4.9805z"/><path id="path736" d="m431.01 726.84h4.9801v4.9805h-4.9801v-4.9805z"/><path id="path738" d="m441.68 726.84h4.9797v4.9805h-4.9797v-4.9805z"/><path id="path740" d="m452.36 726.84h4.9801v4.9805h-4.9801v-4.9805z"/></g><path id="path742" d="m463.03 726.84h4.9801v4.9805h-4.9801v-4.9805z" fill="#fff"/><path id="path744" d="m473.7 726.84h4.9797v4.9805h-4.9797v-4.9805z" fill="#fff"/><g fill="#fbbe2b"><path id="path746" d="m366.98 718.83h4.9812v4.9805h-4.9812v-4.9805z"/><path id="path748" d="m377.65 718.83h4.9809v4.9805h-4.9809v-4.9805z"/><path id="path750" d="m388.32 718.83h4.9801v4.9805h-4.9801v-4.9805z"/><path id="path752" d="m399 718.83h4.9801v4.9805h-4.9801v-4.9805z"/></g><g fill="#fff"><path id="path754" d="m409.67 718.83h4.9797v4.9805h-4.9797v-4.9805z"/><path id="path756" d="m420.34 718.83h4.9801v4.9805h-4.9801v-4.9805z"/><path id="path758" d="m431.01 718.83h4.9801v4.9805h-4.9801v-4.9805z"/><path id="path760" d="m441.68 718.83h4.9797v4.9805h-4.9797v-4.9805z"/><path id="path762" d="m452.36 718.83h4.9801v4.9805h-4.9801v-4.9805z"/><path id="path764" d="m463.03 718.83h4.9801v4.9805h-4.9801v-4.9805z"/><path id="path766" d="m473.7 718.83h4.9797v4.9805h-4.9797v-4.9805z"/></g><g fill="#fbbe2b"><path id="path768" d="m366.98 710.83h4.9812v4.9801h-4.9812v-4.9801z"/><path id="path770" d="m377.65 710.83h4.9809v4.9801h-4.9809v-4.9801z"/><path id="path772" d="m388.32 710.83h4.9801v4.9801h-4.9801v-4.9801z"/><path id="path774" d="m399 710.83h4.9801v4.9801h-4.9801v-4.9801z"/><path id="path776" d="m409.67 710.83h4.9797v4.9801h-4.9797v-4.9801z"/><path id="path778" d="m420.34 710.83h4.9801v4.9801h-4.9801v-4.9801z"/><path id="path780" d="m431.01 710.83h4.9801v4.9801h-4.9801v-4.9801z"/><path id="path782" d="m441.68 710.83h4.9797v4.9801h-4.9797v-4.9801z"/><path id="path784" d="m452.36 710.83h4.9801v4.9801h-4.9801v-4.9801z"/></g><path id="path786" d="m463.03 710.83h4.9801v4.9801h-4.9801v-4.9801z" fill="#fff"/><path id="path788" d="m473.7 710.83h4.9797v4.9801h-4.9797v-4.9801z" fill="#fff"/><g fill="#fbbe2b"><path id="path790" d="m366.98 702.82h4.9812v4.9805h-4.9812v-4.9805z"/><path id="path792" d="m377.65 702.82h4.9809v4.9805h-4.9809v-4.9805z"/><path id="path794" d="m388.32 702.82h4.9801v4.9805h-4.9801v-4.9805z"/><path id="path796" d="m399 702.82h4.9801v4.9805h-4.9801v-4.9805z"/><path id="path798" d="m409.67 702.82h4.9797v4.9805h-4.9797v-4.9805z"/><path id="path800" d="m420.34 702.82h4.9801v4.9805h-4.9801v-4.9805z"/><path id="path802" d="m431.01 702.82h4.9801v4.9805h-4.9801v-4.9805z"/></g><g fill="#fff"><path id="path804" d="m441.68 702.82h4.9797v4.9805h-4.9797v-4.9805z"/><path id="path806" d="m452.36 702.82h4.9801v4.9805h-4.9801v-4.9805z"/><path id="path808" d="m463.03 702.82h4.9801v4.9805h-4.9801v-4.9805z"/><path id="path810" d="m473.7 702.82h4.9797v4.9805h-4.9797v-4.9805z"/></g><g fill="#fbbe2b"><path id="path812" d="m366.98 694.82h4.9812v4.9801h-4.9812v-4.9801z"/><path id="path814" d="m377.65 694.82h4.9809v4.9801h-4.9809v-4.9801z"/><path id="path816" d="m388.32 694.82h4.9801v4.9801h-4.9801v-4.9801z"/><path id="path818" d="m399 694.82h4.9801v4.9801h-4.9801v-4.9801z"/><path id="path820" d="m409.67 694.82h4.9797v4.9801h-4.9797v-4.9801z"/><path id="path822" d="m420.34 694.82h4.9801v4.9801h-4.9801v-4.9801z"/><path id="path824" d="m431.01 694.82h4.9801v4.9801h-4.9801v-4.9801z"/><path id="path826" d="m441.68 694.82h4.9797v4.9801h-4.9797v-4.9801z"/></g><g fill="#fff"><path id="path828" d="m452.36 694.82h4.9801v4.9801h-4.9801v-4.9801z"/><path id="path830" d="m463.03 694.82h4.9801v4.9801h-4.9801v-4.9801z"/><path id="path832" d="m473.7 694.82h4.9797v4.9801h-4.9797v-4.9801z"/></g><g><path id="path834" d="m504.5 676.07h61.5v82.5h-61.5v-82.5z" fill="#496c9c"/><path id="path836" d="m523.63 745.46c0-4.349-3.526-7.875-7.875-7.875s-7.875 3.526-7.875 7.875 3.526 7.875 7.875 7.875 7.875-3.526 7.875-7.875" fill="#fac12f"/><path id="path838" d="m523.63 723.28c0-4.349-3.526-7.875-7.875-7.875s-7.875 3.526-7.875 7.875 3.526 7.875 7.875 7.875 7.875-3.526 7.875-7.875" fill="#f78d28"/></g><g fill="#fff"><path id="path840" d="m527.47 746.97h4.9801v4.9801h-4.9801v-4.9801z"/><path id="path842" d="m538.14 746.97h4.9797v4.9801h-4.9797v-4.9801z"/><path id="path844" d="m527.47 738.97h4.9801v4.9805h-4.9801v-4.9805z"/><path id="path846" d="m538.14 738.97h4.9797v4.9805h-4.9797v-4.9805z"/><path id="path848" d="m546.97 746.97h4.9801v4.9801h-4.9801v-4.9801z"/><path id="path850" d="m557.64 746.97h4.9797v4.9801h-4.9797v-4.9801z"/><path id="path852" d="m546.97 738.97h4.9801v4.9805h-4.9801v-4.9805z"/><path id="path854" d="m557.64 738.97h4.9797v4.9805h-4.9797v-4.9805z"/><path id="path856" d="m532.05 681.3h9.5148v9.516h-9.5148v-9.516z"/><path id="path858" d="m511 681.3h9.516v9.516h-9.516v-9.516z"/><path id="path860" d="m553.1 681.3h9.516v9.516h-9.516v-9.516z"/><path id="path862" d="m527.47 697.31h35.152v35.54h-35.152v-35.54z"/></g><g fill="#fac12f"><path id="path864" d="m531 708.59h28.08v18.498h-28.08v-18.498z"/><path id="path866" d="m531 703.07h28.08v2.4902h-28.08v-2.4902z"/><path id="path868" d="m511 698.35h12.633v12.478h-12.633v-12.478z"/></g><g><path id="path870" d="m576.15 676.07h112.14v82.5h-112.14v-82.5z" fill="#fff"/><path id="path872" d="m604.07 735.95c-11.063 0-20.031-8.968-20.031-20.031s8.968-20.031 20.031-20.031 20.031 8.968 20.031 20.031h-20.031v20.031" fill="#fbbe2b"/><path id="path874" d="m605.37 717.22h20.031c0 11.063-8.968 20.032-20.031 20.032v-20.032" fill="#f78d28"/></g><g fill="#c4c5c3"><path id="path876" d="m679.05 716.28h-44.012c-0.735 0-1.336 0.601-1.336 1.336s0.601 1.336 1.336 1.336h44.012c0.735 0 1.336-0.601 1.336-1.336s-0.601-1.336-1.336-1.336"/><path id="path878" d="m679.05 710.93h-44.012c-0.735 0-1.336 0.601-1.336 1.336s0.601 1.336 1.336 1.336h44.012c0.735 0 1.336-0.601 1.336-1.336s-0.601-1.336-1.336-1.336"/><path id="path880" d="m679.05 705.44h-44.012c-0.735 0-1.336 0.601-1.336 1.336s0.601 1.336 1.336 1.336h44.012c0.735 0 1.336-0.601 1.336-1.336s-0.601-1.336-1.336-1.336"/><path id="path882" d="m679.05 700.1h-44.012c-0.735 0-1.336 0.602-1.336 1.336 0 0.735 0.601 1.337 1.336 1.337h44.012c0.735 0 1.336-0.602 1.336-1.337 0-0.734-0.601-1.336-1.336-1.336"/></g><g><path id="path884" d="m642.07 723.15h-6.835c-0.839 0-1.526 0.686-1.526 1.526v6.835c0 0.84 0.687 1.526 1.526 1.526h6.835c0.84 0 1.526-0.686 1.526-1.526v-6.835c0-0.84-0.686-1.526-1.526-1.526" fill="#f78d28"/><path id="path886" d="m420.9 87.979h32v76.5h-32v-76.5z" fill="#364f73"/><path id="path888" d="m420.9 87.979s-1.388-1.3359 0-2.7238-5.5-9.7762 0-20.276h32s5.5 12.375 0 20.276c0 0 3.5 2.7238 0 2.7238h-32" fill="#84563e"/><path id="path890" d="m418.15 64.979h37.195v2h-37.195v-2z" fill="#6c4633"/><path id="path892" d="m347.41 87.979h32v76.5h-32v-76.5z" fill="#364f73"/><path id="path894" d="m347.41 87.979s-1.388-1.3359 0-2.7238-5.5-9.7762 0-20.276h32s5.5 12.375 0 20.276c0 0 3.5 2.7238 0 2.7238h-32" fill="#84563e"/><path id="path896" d="m344.66 64.979h37.195v2h-37.195v-2z" fill="#6c4633"/><path id="path898" d="m509.25 44.729c0-5.0391-4.085-9.125-9.125-9.125s-9.125 4.0859-9.125 9.125c0 5.0402 4.085 9.125 9.125 9.125s9.125-4.0848 9.125-9.125" fill="#2f3a44"/><path id="path900" d="m410.25 80.854 79.75-25h12.5s6.75-1 6.75-6.75h-22.25l-76.75 15.875v15.875" fill="#496c9c"/><path id="path902" d="m291.13 44.729c0-5.0391 4.086-9.125 9.125-9.125 5.04 0 9.125 4.0859 9.125 9.125 0 5.0402-4.085 9.125-9.125 9.125-5.039 0-9.125-4.0848-9.125-9.125" fill="#2f3a44"/><path id="path904" d="m390.13 80.854-79.75-25h-12.5s-6.75-1-6.75-6.75h22.25l76.75 15.875v15.875" fill="#496c9c"/><path id="path906" d="m411.25 64.979v15.562l-11.25 2.2871-11.25-1.9742v-15.875l4.695-20.948c-1.233-1.4438-1.981-3.3137-1.981-5.3618 0-4.566 3.701-8.2679 8.268-8.2679 4.566 0 8.268 3.7019 8.268 8.2679 0 1.8039-0.584 3.468-1.565 4.827l4.815 21.483" fill="#364f73"/><path id="path908" d="m388.75 78.328h22.5v59h-22.5v-59z" fill="#496c9c"/><path id="path910" d="m479.94 310.64c-6.956 11.066-21.331 18.494-21.331 18.494-0.696 1.173-1.875 2.037-3.296 2.297l-32.878 6.013c-5.799-3.316-13.557-5.346-22.087-5.346-0.118 0-0.234 0.004-0.352 0.005-0.118-0.001-0.234-0.005-0.352-0.005-8.53 0-16.288 2.03-22.087 5.346l-32.878-6.013c-1.421-0.26-2.6-1.124-3.296-2.297 0 0-14.375-7.428-21.331-18.494l-40.732-38.289s0-14.008 8.082-15.624c8.081-1.616 46.873 17.241 46.873 17.241h131.44s38.792-18.857 46.873-17.241c8.082 1.616 8.082 15.624 8.082 15.624l-40.732 38.289" fill="#f24f63"/><path id="path912" d="m418.73 359.57-19.079-3.857-18.744 3.857-1.635-15.105c3.315-6.902 20.379-4.62 20.379-4.62s17.063-2.282 20.378 4.62l-1.299 15.105" fill="#fbcf8f"/><path id="path914" d="m420.03 344.46s-6.195-1.957-20.378-1.957c-14.184 0-20.379 1.957-20.379 1.957l-7.168-8.017c7.679-7.679 27.547-7.308 27.547-7.308s19.867-0.371 27.546 7.308l-7.168 8.017" fill="#efefed"/><path id="path916" d="m370.31 385.23s-9.18 5.893-4.492-9.037c4.688-14.931 12.35-1.965 12.35-1.965l-7.858 11.002" fill="#fbcf8f"/><path id="path918" d="m431.54 385.23s9.18 5.893 4.492-9.037c-4.688-14.931-12.35-1.965-12.35-1.965l7.858 11.002" fill="#fbcf8f"/><path id="path920" d="m408.07 440.85s-9.707 3.233-19.395-4.445c-5.424-4.298-11.495 1.082-19.746-15.421-8.252-16.502 2.161-52.258 5.108-58.152 2.947-5.893 26.129-11.001 26.129-11.001s22.396 5.304 24.557 8.448c2.161 3.143 9.43 24.164 9.823 27.504 0.393 3.339 13.528 48.218-26.476 53.067" fill="#84563e"/><path id="path922" d="m467.94 193.69h-135.3v74.243c0 11.069 8.973 20.042 20.041 20.042h95.215c11.069 0 20.041-8.973 20.041-20.042v-74.243" fill="#fff"/><path id="path924" d="m440.48 194.52h-80.365v66.116c0 4.532 3.674 8.206 8.206 8.206h63.953c4.532 0 8.206-3.674 8.206-8.206v-66.116" fill="#ebece9"/><path id="path926" d="m400.3 212.27-67.649-18.572v-62.095s8.186-18.667 67.649-18.667 67.648 18.667 67.648 18.667v62.095l-67.648 18.572" fill="#fff"/><path id="path928" d="m360.11 140.27h80.365v112.67h-80.365v-112.67z" fill="#ebece9"/></g></g></g></svg>
