<?xml version="1.0" encoding="UTF-8" standalone="no"?>
<!-- Created with Inkscape (http://www.inkscape.org/) -->
<svg xmlns="http://www.w3.org/2000/svg" height="300" width="400" version="1.1" viewBox="0 0 105.83333 79.375002">
 <defs>
  <clipPath id="clipPath10503" clipPathUnits="userSpaceOnUse">
   <path d="m6631.8 4957.9c-0.66 0.66-2.66 2.55-5.88 5.44 2.44-1.67 4.44-3.56 5.88-5.44"/>
  </clipPath>
 </defs>
 <g transform="translate(0 -217.62)">
  <g transform="matrix(.35278 0 0 -.35278 -118.05 237.03)">
   <g transform="scale(.1)">
    <g transform="matrix(10 0 0 10 -2829.1 -2929.6)">
     <g transform="scale(.10920)">
      <g transform="matrix(9.1573 0 0 9.1573 5953.5 -3.1192)">
       <g transform="scale(.1)">
        <path d="m22350 385.71h5e3v5e3h-5e3z" fill-opacity=".32727" fill="#9fc4ea"/>
        <g transform="matrix(10 0 0 10 -1534.8 -207.81)">
         <g transform="scale(.1)">
          <g transform="matrix(10 0 0 10 -2100 -2022.8)">
           <g transform="matrix(.30428 0 0 .25163 304.43 309.71)">
            <g transform="scale(.1)">
             <path d="m9265.9 1638.3h-8319.6c-44.802 0-81.451 25.84-81.451 57.41s36.649 57.4 81.451 57.4h182.81v-52.26h178.56v52.26h1226.1v-52.26h178.55v52.26h4315.8v-52.26h178.67v52.26h1239.6v-52.26h178.55v52.26h640.87c44.802 0 81.439-25.83 81.439-57.4s-36.637-57.41-81.439-57.41" fill="#ada3bd"/>
             <g fill="#526392">
              <path d="m5707 1823c0-62.75-50.87-113.62-113.61-113.62-62.76 0-113.63 50.87-113.63 113.62"/>
              <path d="m6481 1823c0-62.75-50.87-113.62-113.62-113.62s-113.62 50.87-113.62 113.62"/>
              <path d="m7100.2 1823c0-62.75-50.87-113.62-113.63-113.62-62.75 0-113.62 50.87-113.62 113.62"/>
             </g>
             <g>
              <path d="m5867 2264.2h204.67v918.32h-204.7z" fill="#b6bdb8"/>
              <path d="m5867 3179.9v-287.48l204.67 62.79v224.69h-204.67" fill="#7a8699"/>
              <path d="m5741.7 2140.1v-63.02h455.31v111.91l-455.31-48.89" fill="#b6bdb8"/>
              <path d="m6234.7 3309.5c0 61.14-50.03 111.17-111.17 111.17h-308.27c-61.14 0-111.17-50.03-111.17-111.17v-131.2c0-61.15 50.03-111.17 111.17-111.17h308.27c61.14 0 111.17 50.02 111.17 111.17v131.16" fill="#3e4f77"/>
              <path d="m6610.6 3275.2c0 52.41-50.03 95.29-111.18 95.29h-1060c-61.16 0-111.18-42.88-111.18-95.29s50.02-95.3 111.18-95.3h1060.1c61.15 0 111.18 42.89 111.18 95.3" fill="#36425d"/>
              <path d="m7011.9 3580.3c9.69-60.37-32.09-115.41-92.84-122.3l-1212.2-137.6c-60.75-6.9-117.35 37.01-125.77 97.57l-94.68 680.64c-8.43 60.56-3.44 158.7 11.08 218.1l323.16 1322c14.51 59.39 74.79 120.69 133.93 136.22l631.98 165.9c59.14 15.52 157.56 28.22 218.7 28.22h119.9c61.14 0 107.61-49.9 103.28-110.88l-109.6-1538.5c-4.35-60.99 0.02-160.29 9.71-220.66l83.26-518.65" fill="#ee433f"/>
              <path d="m6836.9 3418c8.42-60.56-34.7-110.11-95.86-110.11h-1192.4c-61.14 0-118.06 49.55-126.48 110.11l-94.69 680.64c-8.43 60.56-4.87 159.03 7.9 218.83l329.52 1542.9c12.78 59.79 73.25 108.71 134.39 108.71h941.87c61.16 0 107.63-49.9 103.28-110.88l-109.6-1538.5c-4.34-60.99-1-160.44 7.43-221l94.68-680.64" fill="#912428"/>
              <path d="m6852.3 3485.7c0-97.83-80.04-177.87-177.88-177.87h-1811c-97.83 0-177.87 80.04-177.87 177.87v49.68c0 97.83 80.04 177.88 177.87 177.88h1811c97.84 0 177.88-80.05 177.88-177.88v-49.68" fill="#b22c33"/>
              <path d="m5826.6 3714c-161.82 0-361.63-406.15-256.78-406.15h-537.16l367.79 406.15h426.15" fill="#912428"/>
              <path d="m6091.7 3474.6c0-91.71 75.04-166.75 166.75-166.75h622.44c91.72 0 158.57 74.59 148.57 165.76l-8.1 73.9c-10 91.17-93.22 165.77-184.93 165.77h-577.98c-91.71 0-166.75-75.04-166.75-166.76v-71.92" fill="#ee433f"/>
              <path d="m5569.4 4615.7c-48.86-36.74-81.62-17.3-72.78 43.2l175.37 1200.2c8.84 60.5 66.1 110 127.24 110h941.87c61.16 0 107.63-49.9 103.28-110.88l-87.39-1227.6c-4.34-60.99-25.14-63.93-46.21-6.53l-206.2 561.61c-21.07 57.4-78.3 74.29-127.18 37.55l-808-607.52" fill="#b22c33"/>
             </g>
             <path stroke-linejoin="round" d="m4966.8 2039.5 1002.6 185.1 1017.2-185.1" stroke="#b6bdb8" stroke-linecap="round" stroke-miterlimit="10" stroke-width="111.17" fill="none"/>
             <path stroke-linejoin="round" d="m5593.4 2039.5 375.95 185.13 390.57-185.13" stroke="#b6bdb8" stroke-linecap="round" stroke-miterlimit="10" stroke-width="111.17" fill="none"/>
             <path d="m5081.3 1823c0-62.75-50.87-113.62-113.62-113.62-62.76 0-113.63 50.87-113.63 113.62" fill="#526392"/>
             <g fill="#b6bdb8">
              <path d="m4854 1817.5c-9.21 0-16.68 7.47-16.68 16.68 0 71.84 58.46 130.29 130.31 130.29 71.84 0 130.3-58.45 130.3-130.29 0-9.21-7.47-16.68-16.68-16.68h-227.25"/>
              <path d="m4967.7 1981.1c-81.04 0-146.98-65.93-146.98-146.97 0-18.42 14.94-33.35 33.35-33.35h227.25c18.42 0 33.35 14.93 33.35 33.35 0 81.04-65.93 146.97-146.97 146.97zm0-33.35c62.75 0 113.62-50.87 113.62-113.62h-227.25c0 62.75 50.87 113.62 113.63 113.62"/>
              <path d="m5479.8 1817.5c-9.2 0-16.67 7.47-16.67 16.68 0 71.84 58.45 130.29 130.3 130.29 71.84 0 130.3-58.45 130.3-130.29 0-9.21-7.47-16.68-16.68-16.68h-227.25"/>
              <path d="m5593.4 1981.1c-81.05 0-146.97-65.93-146.97-146.97 0-18.42 14.93-33.35 33.34-33.35h227.24c18.42 0 33.35 14.93 33.35 33.35 0 81.04-65.93 146.97-146.96 146.97zm0-33.35c62.74 0 113.61-50.87 113.61-113.62h-227.2c0 62.75 50.87 113.62 113.63 113.62"/>
              <path d="m6253.7 1817.5c-9.21 0-16.68 7.47-16.68 16.68 0 71.84 58.46 130.29 130.3 130.29 71.85 0 130.31-58.45 130.31-130.29 0-9.21-7.47-16.68-16.68-16.68h-227.3"/>
              <path d="m6367.3 1981.1c-81.04 0-146.97-65.93-146.97-146.97 0-18.42 14.93-33.35 33.35-33.35h227.24c18.42 0 33.35 14.93 33.35 33.35 0 81.04-65.93 146.97-146.97 146.97zm0-33.35c62.75 0 113.62-50.87 113.62-113.62h-227.24c0 62.75 50.87 113.62 113.62 113.62"/>
              <path d="m6872.9 1817.5c-9.21 0-16.68 7.47-16.68 16.68 0 71.84 58.46 130.29 130.3 130.29 71.85 0 130.31-58.45 130.31-130.29 0-9.21-7.48-16.68-16.68-16.68h-227.25"/>
              <path d="m6986.6 1981.1c-81.03 0-146.97-65.93-146.97-146.97 0-18.42 14.93-33.35 33.35-33.35h227.25c18.41 0 33.35 14.93 33.35 33.35 0 81.04-65.93 146.97-146.98 146.97zm0-33.35c62.76 0 113.63-50.87 113.63-113.62h-227.25c0 62.75 50.87 113.62 113.62 113.62"/>
             </g>
             <path d="m6109.3 2253.1v261.2c0 30.57-25.01 55.59-55.59 55.59h-168.69c-30.58 0-55.59-25.02-55.59-55.59v-261.2" fill="#36425d"/>
             <g stroke-linejoin="round" stroke="#b6bdb8" stroke-linecap="round" stroke-miterlimit="10" stroke-width="111.17" fill="none">
              <path d="m4967.7 1911.6v120.32"/>
              <path d="m5593.4 1911.6v120.32"/>
              <path d="m6367.3 1911.6v120.32"/>
              <path d="m6986.6 1911.6v120.32"/>
             </g>
             <g>
              <path d="m5501.7 5924c-18.86-42.91-38.24-90.5-57.97-141.36-34.51-88.94-70.05-187.84-104.14-286.57-102.21-295.98-191.49-590.68-191.82-591.73l-0.02-0.04 47.9-14.5-46.22 19.26c-0.31-0.75-0.87-2.16-1.68-4.76l47.9-14.5-46.22 19.26 16.94-7.06-16.67 7.67-0.27-0.61 16.94-7.06-16.67 7.67 0.51-0.23-0.5 0.25-0.01-0.02 0.51-0.23-0.5 0.25c-0.23-0.58-2.6-4.54-4.41-6.8l-1.12-1.38-0.37-0.43 3.99-3.7-3.86 3.83-0.13-0.13 3.99-3.7-3.86 3.83 31.38-30.99-27.2 34.63c-2.76-2.18-3.8-3.27-4.18-3.64l31.38-30.99-27.2 34.63 0.03 0.02 85.56-108.88-58.58 125.69c-5.87-2.78-15.13-7.54-26.98-16.81l85.56-108.88-58.58 125.69 28.06-60.22-20.18 63.45c-0.05-0.03-2.72-0.84-7.88-3.23l28.06-60.22-20.18 63.45c0-0.01-1.93-0.61-6.04-1.56-7.2-1.7-20.97-4.42-42.53-7.36-32.37-4.43-82.27-9.36-155.12-13.09-72.87-3.74-168.74-6.32-293.57-6.32-85.46 0-154.72-69.27-154.72-154.72s69.26-154.72 154.72-154.72c128.46 0 229.01 2.62 308.27 6.66 59.46 3.03 106.94 6.87 145.4 11.08 57.78 6.38 95.04 13.35 123.68 21.1 14.36 3.94 26.63 8.09 38.74 13.4 12.07 5.37 24.16 11.78 37.51 22.18l0.02 0.02c14.66 11.59 25.82 22.82 35.97 34.19 15.08 17.07 27.59 34.42 38.95 53.31 5.64 9.46 10.96 19.3 15.93 29.96 4.96 10.7 9.62 22.15 13.71 35.59l-0.01-0.04s0.17 0.57 0.55 1.83c5.9 19.39 58.24 190.94 125.76 395.34 33.75 102.17 71.32 212.57 108.61 315.87 37.22 103.21 74.4 199.68 106.15 271.84 34.39 78.23-1.15 169.52-79.37 203.91-78.24 34.39-169.53-1.15-203.91-79.38h-0.01" fill="#352836"/>
              <path d="m5928.1 6078.2 297.38 0.01-0.01 477.89-297.37-0.02v-477.88" fill="#f8a478"/>
              <path d="m6286.4 6478.8c-7.39-19.19 6.25-19-15.14-44.66-33.21-39.86-55.72-131.02-43.92-181.21 11.81-50.19-42.81-102.86-44.28-96.96-1.48 5.91-4.43 179.63 0 192.92 4.43 13.28 16.24 59.05 19.19 63.48 2.95 4.42 33.95 36.9 33.95 36.9l50.2 29.53" fill="#f5785e"/>
              <path d="m5928.5 6246.6c78.22-11.96 154.98 12.38 220.47 42.27 28.4 12.96 32-21.83 32-52.11 0-12.34 44.18 20.96 44.18 20.96l0.89-112.83 1.14 506.97-298.62 0.62-0.06-405.88" fill="#f5785e"/>
              <path d="m5488.8 5878.8c-0.36-0.9-0.56-1.43-0.56-1.43s0.1 0.52 0.56 1.43" fill="#f89b55"/>
             </g>
             <g fill="#352836">
              <path d="m6718.6 5887.3c-23.71 63.93-69.44 154.08-152.44 177.03-204.23 56.46-339.88 103.57-339.88 173.88 0 15.34 4.66-124.68-176.42-124.68-128.55 0-121.7 155.1-121.7 143.12 0-139.87-128.92-151.75-308.03-213.09-197.85-67.75-86.41-254.03-86.41-254.03s-83.42 90.15 472.03 100.89c567.43-9.24 667.69-92.72 667.69-92.72s72.57 15.73 45.16 89.6"/>
              <path d="m6440.7 4885.9c-5.54-58.82-8.73-115.77-8.73-169.06 0-41.38 60.37-384.17 96.57-461.98 16.14-34.77-31.25-59.77-106.35-77.57-99.62-23.7-247.93-34.78-360.16-39.38-227.07-9.43-362.17-118.83-456.13-118.83-119.78 0-64.38 167.64-10.26 336.46 21.46 66.97 54.35 360.48 58.35 398.44 4.72 45.63 7.67 89.36 9.09 131.92 5.78 165.05-10.27 312.77-27.11 491.5-5.43 56-73.58 58.24-63.31 184.03 10.37 127.33 50.57 250.28 76.38 307.7 79.82 17.1 193.7 30.3 356.4 33.48 418.4-6.83 582.98-60.59 640.52-88.42-12.5-33.24-42.21-127.56-75.58-253.35-49.87-187.68-107.99-445.63-129.68-674.94"/>
              <path d="m6422.2 4177.3c-99.62-23.7-247.93-34.78-360.16-39.38-227.07-9.43-362.17-118.83-456.13-118.83-119.78 0-64.38 167.64-10.26 336.46 21.46 66.97 54.35 360.48 58.35 398.44 4.72 45.63 7.67 89.36 9.09 131.92h777.62c-5.54-58.82-8.73-115.77-8.73-169.06 0-41.38 60.37-384.17 96.57-461.98 16.14-34.77-31.25-59.77-106.35-77.57"/>
             </g>
             <path d="m5581.8 5631.8c-11.46-112.46 34.78-244.23 156.43-218.73 142.32 25.01 300.32 13.92 418.76-2.33 297.75-29.52 343.31 247.75 343.31 247.75s23.34-25.15 70.03-97.72c-62.64-235.92-67.85-547.95-67.85-847.78 0-109.24 26.14-368.93 52.94-468.13 10.02-37.09-83.47-48.21-158.56-66-29.68 75.34-65.8 343.13-71.53 495.95-5.27 140.67-12.98 259.65-2.41 423.19 9.53 147.6-88.91 207.84-249.98 207.84l-1.1 0.07-1.55-0.07c-147.7 0-265.72-1.47-330.08-22.99-76-25.43-87.33-70.58-87.33-70.58-3.52 23-114.77 183.15-71.08 419.53" fill="#241c23"/>
             <path d="m6466.4 5718.9c3.2-4.13 8.18-11.55 13.75-21.64 10.55-18.93 23.09-47.06 35.29-80.85 21.54-59.28 42.38-135.79 60.43-217.54 27.21-122.78 48.57-257.81 62.82-372.16 7.14-57.17 12.53-109.26 16.07-151.85 1.77-21.27 3.07-40.17 3.91-55.89 0.85-15.66 1.21-28.32 1.2-35.92 0-0.73-0.02-2.38-0.02-5.25h154.73l-154.72 2.17 59.95-0.84-58.64 12.1c-0.98-4.79-1.27-8.69-1.31-11.26l59.95-0.84-58.64 12.1 79.02-16.31-65.76 46.49c-6.67-9.22-11.54-21.23-13.26-30.18l79.02-16.31-65.76 46.49 59.06-41.74-42.61 58.72c-4.23-3.02-10.71-8.81-16.45-16.98l59.06-41.74-42.61 58.72 25.92-35.72-21.64 38.5c-0.95-0.54-2.42-1.42-4.28-2.78l25.92-35.72-21.64 38.5 7.84-13.95-6.54 14.63-1.3-0.68 7.84-13.95-6.54 14.63c-0.07-0.12-7.04-2.79-19.39-5.1-18.54-3.67-48.63-6.73-85.98-8.24-37.44-1.58-82.31-1.89-132.59-1.88-22.41 0-45.91 0.06-70.38 0.06-59.33-0.01-124.35-0.31-193.68-2.55-85.41-2.76-152.41-74.24-149.64-159.64 2.76-85.41 74.23-152.41 159.64-149.65 63.99 2.07 125.47 2.39 183.68 2.39 24.01 0 47.48-0.05 70.38-0.05 54.34 0.01 105.31 0.26 153.37 2.5 36.08 1.71 70.51 4.47 104.49 9.82 25.51 4.08 50.83 9.55 76.87 18.32 19.52 6.62 39.53 15.13 59.78 27.19 15.14 9.04 30.41 20.15 44.81 33.88 10.78 10.28 21.04 22.03 30.1 35.02 13.64 19.47 24.39 41.76 31.17 64.45 6.87 22.73 9.91 45.63 10.2 67.26h0.01v2.17c0 0.47 0.02 2.32 0.02 5.25 0 12.89-0.4 26.57-1.11 41.77-1.32 28.42-3.74 62.06-7.22 100.38-12.24 133.85-37.38 324.47-75.7 506.79-19.23 91.22-41.65 180.15-68.63 260.4-13.54 40.17-28.22 78.22-45.02 113.99-16.9 35.79-35.59 69.37-60.04 101.28-52.13 67.71-149.27 80.34-216.98 28.22-67.71-52.13-80.34-149.27-28.21-216.98h-0.01" fill="#352836"/>
             <g fill="#f8a478">
              <path d="m6211.9 6244.4 0.07 1.9c0.09 1.35 0.12 0.55-0.07-1.9"/>
              <path d="m5915 6273"/>
              <path d="m5951.5 5763.3c68.2 4.36 282.17 355.64 412.83 373.06-35.41 18.79-71.18 42.06-97.42 65.32-24.41 21.66-40.57 43.33-40.57 61.55-0.11-1.26-0.02-14.43-0.02-17.58 0-34.32-31.27-82.82-176.37-82.82-114.03 0-121.6 72.66-121.83 91.92-0.23-27.16-5.39-49.51-14.9-68.2-10.65-21.08-26.93-37.82-47.91-51.8-59.48-126.64 32.21-374.89 86.19-371.45"/>
             </g>
             <g>
              <path d="m5878.9 5511.8s46.32 80.9 45.26 28.48c-0.02-1.07 292.51 570.06 406.96 585.32-35.41 18.8-55.92 76.1-82.17 99.37-11.46-22-210.76-108.19-210.76-108.19l-65.22-149.68-15.36 48.36-33.35 104.41s-4.36 6.19-9.51 16.96c-7 14.56-15.36 37.48-16.28 64.3l-33.13-66.36c-14.78-31.52-24.74-86.07-30.48-150.37-0.91-9.85-1.72-20.06-2.4-30.37-8.99-133.2 15.81-364.87 15.81-364.87l30.63-77.36" fill="#f4f4f6"/>
              <path d="m6266.9 6201.7c14.52-17.8-47.56-151.51-167.91-300.5-120.33-149 31.53-229.22 31.53-229.22s634.44 169.72 622.71 191.01c-51.17 92.87-55.49 146.77-99.5 185.08-46.87 40.81-133.27 63.52-183.2 82.35-92.21 34.75-203.63 71.28-203.63 71.28" fill="#352836"/>
              <path d="m6359.7 6176.2c28.65-68.77 97.42-280.79-5.74-320.91-103.14-40.11-137.53-51.57-137.53-51.57s40.11-45.85 74.5-85.96c34.38-40.11-189.11-92.64-412.6-207.26 0 0 143.26 339.06 297.99 556.82 65.09 91.6 50.3 156.07 74.5 163.32 33.32 9.98 108.88-54.44 108.88-54.44" fill="#44384c"/>
              <path d="m5869.8 6150.4c-32.42-68.76-212.42-255-164.07-295.12 48.34-40.11 64.91-51.57 64.91-51.57s-33.39-45.85-62.22-85.96c-28.82-40.11 73.73-94.55 171.88-209.16 0 0-14.49 333.19 3.82 552.99 11.47 137.53-14.32 88.82-14.32 88.82" fill="#44384c"/>
              <path d="m5878.6 5973.4c1.36 30.63 3.16 60.36 5.48 88.25 2.04 24.42 2.9 42.96 2.94 56.96l27.67 18.22c5.15-10.77-3.38-32.2-3.38-32.2l17.18-110.31-49.89-20.92" fill="#b1b5bd"/>
              <path d="m5821.1 5948.4 13.75 35.98 50.66 133.18 1.56 1.03c-0.04-14-0.9-32.54-2.94-56.96-2.32-27.89-4.12-57.62-5.48-88.25l-46.2-19.37-11.35-5.61" fill="#383547"/>
              <path d="m6106.8 5960.8-86.08 39.73 31.52 108.89s0.99-0.07 2.59-0.07c5.79 0 19.6 0.91 23.64 9.35l29.22-19.26 32.5-85.43c-11.27-17.33-22.42-35.12-33.39-53.21" fill="#b1b5bd"/>
              <path d="m6172.1 5930.2-11.35 5.61-53.95 24.91c10.97 18.09 22.12 35.88 33.39 53.21l18.16-47.75 13.75-35.98" fill="#383547"/>
              <path d="m5924.2 6119.9-101.24-170.96s-31.99 89.78 19.58 180.03c22.24 38.94 51.57 75.22 51.57 75.22l35.1 45.12s1.43-33.66-4.3-44.41c-5.73-10.74-15.75-26.5-14.32-37.25 1.06-7.93 13.61-47.75 13.61-47.75" fill="#fff"/>
              <path d="m6038.8 6117s21.49-48.24 57.3-98.38c35.82-50.14 74.5-86.91 74.5-86.91s174.78 158.54 121.77 277.45c-14.58 32.71-65.9 97.42-65.9 97.42v-63.04c0-11.46-38.68-42.26-76.65-68.05-37.96-25.78-111.02-58.49-111.02-58.49" fill="#fff"/>
              <path d="m6234.2 4815.1c18.21-1.22 61.19-62.3 61.19-136.65 0-155.56-57.29-133.44-75.51-132.22l-104.99 2.97 7.16 267.9 112.15-2" fill="#f4f4f6"/>
              <path d="m6086.7 4687.3v-4.81c0-28.77 2.17-55.36 5.95-77.14 5.85-34.49 15.59-56.95 26.48-56.95 8.37 0 16.04 13.06 21.66 34.61 6.3 23.26 10.31 56.39 10.77 93.41v6.07c0 8.13-0.22 16.05-0.57 23.73-2.07 50.07-11 90.65-22.69 104.86-2.87 3.56-5.96 5.5-9.17 5.5-2.07 0-4.24-0.8-6.19-2.52-9.86-7.91-18.23-34.5-22.7-70.6-2.06-16.96-3.32-35.99-3.54-56.16" fill="#f4f4f6"/>
              <path d="m6103.2 4799c-96.25 0-231.87 0.86-302.58 0.86-70.72 0-39.2-181.15-39.2-181.15h424.06s19.85 180.29-82.28 180.29" fill="#f8a478"/>
              <path d="m5921.9 4620.8c39.17 25.35 64.53 38.41 83.72 49.16 19.2 10.75 40.71 10.75 85.26 10.75h66.81s1.55 46.08-30.72 82.95c-32.25 36.87-56.83 36.1-56.83 36.1h88.55s60.45-20.74 60.45-97.54v-76.81l-297.24-4.61" fill="#f5785e"/>
              <path d="m5532.6 4620.1v51.17c0 28.15 52.72 57.02 117.17 64.17l92.67 10.27c64.44 7.15 117.17-18.19 117.17-56.31v-69.3" fill="#fff"/>
              <path d="m5624.2 4618.7c-3.93 33.9 9.03 70.58 32.62 89.73 23.57 19.16 64.84 51.22 83.99 63.93 19.16 12.71 42.74 27.44 100.21 27.44h178.32c38.32 0 73.68-11.43 89.89-70.56 16.21-59.12-5.89-45.98-26.53-45.98h-122.31c-36.85 0-69.17-64.56-125.42-64.56h-210.77" fill="#f8a16f"/>
             </g>
             <path d="m5589.1 4732c13.27 14 58.22 66.32 62.64 67.79 4.41 1.48 125.19-36.71 183.31-36.71" stroke="#f8a16f" stroke-linecap="round" stroke-miterlimit="10" stroke-width="70.736" fill="none"/>
             <g>
              <path d="m6700.1 7067.6c0-87.86-71.23-159.09-159.09-159.09s-159.09 71.23-159.09 159.09 71.23 159.09 159.09 159.09 159.09-71.23 159.09-159.09" fill="#642c26"/>
              <path d="m6571.2 6990.6c0 300.03-189.47 488.12-489.5 488.12-300.04 0-198.43-188.09-198.43-488.12 0-300.04-89.2-493.49 206.68-543.26 315.91-53.15 481.25 243.22 481.25 543.26" fill="#8b2f23"/>
              <path d="m5571.3 7085.1c24.48-194.62 166.25-268.13 267.51-274.99l194.43 658.64c-259.41 6.25-486.43-189.02-461.94-383.65" fill="#642c26"/>
              <path d="m5650.4 6693.6c0-74.39 64.82-246.35 105.07-297.95 17.17-22.01 34.02-49.37 88.5-66.3 49.56-15.4 124.18-27.6 143.91-78.03 10.61-27.09 3.16 25.58 23.64 29.16 216.3 37.77 369.98 263.87 369.98 445.57l-48.61 253.11c0.01 198.92-157.2 361.66-349.35 361.66-192.13 0-349.34-162.74-349.34-361.66l16.2-285.56" fill="#f5785e"/>
              <path d="m5638.6 6698.8c7.31-208.83 91.04-389.22 307.33-381.65 251.39 8.8 321.01 261.2 314.06 459.99l-12.11 172.42c-6.96 198.8-90.19 398.94-282.23 392.22-192.02-6.72-343.43-174.87-336.48-373.66l9.43-269.32" fill="#f8a478"/>
              <path d="m6499 6964.2c183.49 34.35-291.63 400.52-340.23 416.59-33.35 11.03 16.49 97.34-90.37 98.73-102.62 1.34-212.71-21.1-283.55-68.31-97.34-64.88-105.3-77.84-72.89-160.88 85.31-218.57 620.64-317.28 787.04-286.13" fill="#8b2f23"/>
              <path d="m6232.6 6978.9c3.01-94.43 10.05-124.57 17.34-142.64 12.99-32.14 34.83-19.26 38.49 2.01 4.8 27.88 18.31 69.64 83.11 88.39 7.27 2.11-139.82 88.42-139.82 88.42l0.88-36.18" fill="#8b2f23"/>
             </g>
             <path d="m6101.8 6931.4-154.05 16.07" stroke="#8b2f23" stroke-linecap="round" stroke-miterlimit="10" stroke-width="36.311" fill="none"/>
             <path d="m5631 6920.5 130.25 12.05" stroke="#8b2f23" stroke-linecap="round" stroke-miterlimit="10" stroke-width="36.311" fill="none"/>
             <g>
              <path d="m6012.4 7226.7c62.11-99.12-27.33-193.13 92.38-221.29 100.39-23.62 119.79-42.59 135.87-128.99 11.2-60.23 126.58 108.5 126.58 108.5s28.63 134.62 7.03 145.34c-21.6 10.71-186.33 40.18-202.53 48.22-16.2 8.03-159.33 48.22-159.33 48.22" fill="#8b2f23"/>
              <path d="m5881.5 6419.6c21.46 0 32.81 2.22 48.51 5.38 15.71 3.17 23.98-10.15 9.73-19.7-16.36-10.97-35.98-16.65-60.31-14.62-13.39 1.12-24.97 5.07-34.97 11-15.17 9.01-13.66 27.09 0.15 23.51 9.18-2.38 25.17-5.57 36.89-5.57" fill="#f5785e"/>
              <path d="m5838.2 6644.8c-36.78 0.22-68.08 25.95-66.46 51.93 0.59 9.46 8.29 20.81 22.71 12.37 6.62-3.87 24.5-8.47 43.51-8.47s29.31 4.6 40.06 8.47c23.4 8.44 30.78-2.91 31.36-12.37 1.63-25.98-34.38-51.71-71.18-51.93" fill="#f5785e"/>
              <path d="m6044.9 6821.8c0-17.61-14.39-31.89-32.15-31.89-17.75 0-32.14 14.28-32.14 31.89 0 17.62 14.39 31.9 32.14 31.9 17.76 0 32.15-14.28 32.15-31.9" fill="#3b2523"/>
              <path d="m5780.9 6831.4c-2.79 0-5.62 0.79-8.11 2.44h-0.01l-0.34 0.22c-0.37 0.22-1.02 0.6-1.96 1.08-1.86 0.97-4.8 2.35-8.73 3.77-7.88 2.82-19.71 5.76-35 5.77h-0.19c-9.55 0-20.71-2.31-29.39-4.81-8.77-2.5-15.1-5.12-15.51-5.29h-0.01 0.01c-1.88-0.8-3.84-1.18-5.76-1.18-5.74 0-11.19 3.37-13.58 8.98-3.17 7.49 0.32 16.15 7.82 19.33 0.37 0.15 7.49 3.17 17.95 6.22 10.49 3.03 24.25 6.19 38.66 6.22 38.27-0.02 60.8-14.72 62.39-15.78 6.75-4.54 8.54-13.7 4.01-20.45-2.85-4.24-7.51-6.52-12.25-6.52" fill="#663840"/>
              <path d="m6282.6 6823.3c-4.99-60.83 30.74-113.35 79.79-117.3 49.06-3.95 92.85 42.16 97.83 102.99 5 60.83-22.36 108.4-70.93 116.23-48.58 7.84-101.71-41.08-106.69-101.92" fill="#f5785e"/>
              <path d="m6383.4 6732.1c-1.28-15.68 7.93-29.21 20.57-30.23s23.93 10.87 25.22 26.55c1.28 15.68-5.76 27.94-18.29 29.95-12.52 2.02-26.21-10.59-27.5-26.27" fill="#fff"/>
              <path d="m6408.5 6782.5c-15.48-41.39-52.53-57.56-78.64-49.03-33.68 11.01 15.51 162.56 56.79 149.98 38.22-11.63 37.65-59.51 21.85-100.95" fill="#f5785e"/>
              <path d="m6089.3 6828c-2.39 0-4.81 0.59-7.05 1.81l-0.01 0.01-0.18 0.09-0.84 0.44c-0.76 0.39-1.94 0.98-3.47 1.71-3.05 1.46-7.53 3.47-12.97 5.57-8.76 3.4-20.08 7.02-31.93 9.07-5.51 4.39-12.5 7.02-20.12 7.02-8.43 0-16.11-3.23-21.85-8.51-6.21-1.32-10.62-2.62-11.36-2.88l-0.11-0.03h0.01c-1.49-0.48-3.01-0.71-4.5-0.71-6.24 0-12.03 3.99-14.04 10.24-2.48 7.75 1.79 16.05 9.54 18.54 0.77 0.18 22.29 7.27 46.41 7.36 3.36 0 6.8-0.15 10.27-0.5 18.75-1.91 35.76-7.27 48.3-12.11 12.53-4.85 20.57-9.22 20.99-9.45 7.13-3.9 9.75-12.86 5.86-20-2.68-4.89-7.73-7.67-12.95-7.67" fill="#663840"/>
              <path d="m5990.9 6845.2c5.74 5.28 13.42 8.51 21.85 8.51 7.62 0 14.61-2.63 20.12-7.02-2.88 0.51-5.79 0.91-8.71 1.21-2.35 0.23-4.8 0.34-7.31 0.34h-0.34c-9.03 0-18.5-1.53-25.61-3.04" fill="#3f222d"/>
              <path d="m4732.4 3715.6h583.6v481.46h-583.57z" fill="#f47458"/>
              <path d="m4364.2 3338.2c29.94 151.82 107.71 429.61 182.19 726.04 25.23 100.41 121.52 93.67 129.51 193.52l280.88 15.1c-67.11-112.39-109.28-191.88-109.28-191.88s38.39-111.36 52.71-275.93l0.15-0.03c15.95-180.9 3.04-425.99-121.35-658.09-237.41-443.43-486.2-770.49-486.2-770.49l-183.7-28.88s184.93 636.83 255.09 990.64" fill="#f47458"/>
              <path d="m4300.7 2167c59.86-68.79 58.26-37.76 59.62-80.26 1.04-32.28 3.93-51.41-2.28-93.22-17.79-119.67-49.87-257.86-54-261.44-9.48-8.21-28.14-14.51-49.27-3.43-22.77 11.95-31.26 233.22-31 229.4" fill="#dd3436"/>
              <path d="m4079.1 1755c-120.25-80.89-323.38-109.55-393.33-83.72-67.25 23.56 55.94 157.32 194.85 285.2 153.09 144.97 287.52 255.76 385.18 237.32 20.66-3.82 62.55 3.19 80.26-39.81 19.28-46.87 43.21-119.5 0.41-195.96-11.82-21.11-79.14-76.41-267.37-203.03" fill="#dd3436"/>
              <path d="m4109.2 2347.5c-115.21-418.62-334.04-453.2-266.53-478.68s188.49-3.82 318.15 105.73c129.65 109.56 157.02 133.46 154.22 175.81-1.35 20.38-42.35 153.46 68.73 387.04 14.1 29.63-159.93-93.5-159.93-93.5s-106.66-67.4-114.64-96.4" fill="#f47458"/>
              <path d="m5096.1 2167c59.85-68.79 58.26-37.76 59.62-80.26 1.04-32.28 3.92-51.41-2.29-93.22-17.78-119.67-49.85-257.86-54-261.44-9.48-8.21-28.14-14.51-49.26-3.43-22.78 11.95-31.26 233.22-31.01 229.4" fill="#ee433f"/>
              <path d="m4874.4 1755c-120.26-80.89-323.37-109.55-393.34-83.72-67.25 23.56 55.94 157.32 194.85 285.2 153.09 144.97 287.52 255.76 385.18 237.32 20.66-3.82 62.56 3.19 80.26-39.81 19.28-46.87 43.21-119.5 0.41-195.96-11.82-21.11-79.13-76.41-267.36-203.03" fill="#ee433f"/>
              <path d="m4897.3 2280.1c-8.67-189.21-326.83-385.76-259.32-411.24s188.51-3.82 318.15 105.73c129.65 109.56 157.03 133.46 154.22 175.81-1.35 20.38-36.04 70.46-21.23 132.59 7.61 31.92-61.41-57.43-61.41-57.43s-129.04 84.59-130.41 54.54" fill="#f8a478"/>
              <path d="m4980.2 3094.4c4.92 154.67-8.37 428.63-28.11 710.12-7.15 103.29-15.29 207.62-23.61 307.46l474.95-0.78c-47.98-121.79-76.7-207.07-76.7-207.07s55.95-103.66 96.79-263.74l0.14-0.01c45.08-175.93 72.1-419.89-12.98-669.1-162.32-476.07-359.88-826.85-359.88-826.85l-176.58-58.28s94.16 647.73 105.98 1008.2" fill="#f8a478"/>
              <path d="m5299 4351.7c-232.74 0-92.72 3.78-328.5 3.78-203.18 0-342.53-16.79-423.97-284.88-0.8-2.65 19.52 21.35 54.27 45.35 58.05 40.09 156.36 80.19 263.63-3.99 218.02-171.09 389.44-403.75 606.62-403.75h586.52c227.16 0 635.86-62.12 495.65 546.69-66.45 288.54-131.06 257.74-191.56 226.95-19.42-9.89-38.42-19.78-56.91-19.1-126.86 4.67-650.72 291.22-709.07-111.05h-296.68" fill="#241c23"/>
              <path d="m5984.9 6545.5c-62.55-19.74-128.33-13.67-191.77-1.51-15.25 2.92-21.75-20.41-6.43-23.34 67.63-12.96 137.96-19.54 204.63 1.51 14.83 4.68 8.49 28.05-6.43 23.34" fill="#e6624f"/>
              <path d="m5752.9 6821.8c0-17.61-14.39-31.89-32.15-31.89-17.75 0-32.15 14.28-32.15 31.89 0 17.62 14.4 31.9 32.15 31.9 17.76 0 32.15-14.28 32.15-31.9" fill="#3b2523"/>
              <path d="m4489.2 4730.2c-34.79 0 14.6-66.92-12.25-61.23-101.03 21.43-127.51-70.25-127.51-93.2 0-61.41-40.54-101.83-90.75-77.52-8.71 4.22-6.55 51.94-16.67 51.94-90.37 0-81.86 81.87-76.66 118.78 14.12 100.1 44.89 180.05 276.38 180.05 202.88 0 47.46-118.82 47.46-118.82" fill="#f5785e"/>
              <path d="m4640.4 4849.8c12.06-0.17 46.03-40.16 46.02-89.31-0.03-49.15-34.04-88.86-46.11-88.69l-154.14-1.71-4.61 177.12 158.84 2.59" fill="#f4f4f6"/>
              <path d="m4532.5 4668.9h-175.74c-62.29 0-112.92-6.76-112.92 52.17s33.29 128.44 173.08 128.44h115.58c76.66 0 91.89-180.61 0-180.61" fill="#f5785e"/>
              <path d="m4516.3 4778.1c0-7.31-0.24-15.11-0.86-22.32-0.46-5.4-1.15-10.48-1.99-14.6-0.63-3.1-1.35-5.65-1.96-7.32-0.45-1.24-0.83-1.98-0.88-2.07l1.89-1.09-1.79 1.25-0.1-0.16 1.89-1.09-1.79 1.25 11.78-8.17-7.29 12.11c-2.87-1.73-4.17-3.49-4.49-3.94l11.78-8.17-7.29 12.11 10.17-16.88 0.01 19.75c-3.07 0.09-7.4-1.09-10.18-2.87l10.17-16.88 0.01 19.75c-5.63 0.02-11.87-0.68-17.98-2.39-5.35-1.47-10.5-3.69-15.11-6.3-8.1-4.62-14.56-10.14-20.82-16.22-9.36-9.18-18.66-20.1-31.09-34.81-12.37-14.68-27.73-33.12-48.07-56.61-13.13-15.16-11.47-38.1 3.69-51.22 15.17-13.13 38.1-11.47 51.24 3.69 18.09 20.92 32.35 37.94 43.77 51.51 17 20.32 28.12 33.01 33.76 37.88 1.37 1.22 2.34 1.95 2.85 2.29l0.37 0.25 0.05 0.02-2.8 5.02 1.4-5.52 1.4 0.5-2.8 5.02 1.4-5.52-1.84 7.21 0.87-7.39 0.97 0.18-1.84 7.21 0.87-7.39-0.51 4.41 0.24-4.44 0.27 0.03-0.51 4.41 0.24-4.44-0.02 0.3v-0.3h0.02l-0.02 0.3v-0.3c8.56-0.06 17.58 2.2 24.98 6.23 6.52 3.5 11.75 8.07 15.78 12.73 7.06 8.24 10.93 16.58 13.82 24.57 4.23 12.01 6.16 23.8 7.41 35.4 1.2 11.57 1.54 22.88 1.55 33.03 0 20.05-16.25 36.31-36.3 36.31-20.06 0-36.31-16.26-36.31-36.31h-0.01" fill="#f5785e"/>
              <path d="m8473.9 1700.8h146.74v2811.6h-146.74z" fill="#b6bdb8"/>
              <path d="m7308.2 1700.8h146.84v2811.6h-146.84z" fill="#b6bdb8"/>
              <path d="m2530 1700.8h146.74v2790.6h-146.74z" fill="#7a8193"/>
              <path d="m1129.1 1700.8h146.75v2790.6h-146.75z" fill="#b6bdb8"/>
             </g>
             <g clip-path="url(#clipPath10503)">
              <path d="m6626 4957.9h5.8789v5.4414h-5.8789z" fill="#8a2027"/>
             </g>
             <g>
              <g>
               <path d="m6396.7 4997c-3.34 0-6.23 0.12-8.79 0.34l8.79-0.34" fill="#1e171b"/>
               <path d="m4378.8 4797.2c2.65-23.87-14.83-43.4-38.84-43.4h-1168.6c-24.02 0-45.84 19.53-48.5 43.4l-124.27 1117.4c-2.66 23.87 14.83 43.41 38.85 43.41h1168.6c24.03 0 45.85-19.54 48.5-43.41l124.27-1117.4" fill="#9ea2ba"/>
               <path d="m4439.3 4662.2c0-24.02-19.65-43.67-43.66-43.67h-1180.9c-24.02 0-43.67 19.65-43.67 43.67v47.99c0 24.02 19.64 43.67 43.67 43.67h1180.9c24.02 0 43.67-19.65 43.67-43.67v-47.99" fill="#7c849c"/>
               <path d="m5076 4662.2c0-24.02-19.66-43.67-43.68-43.67h-618.07c-24.02 0-43.67 19.66-43.67 43.67v47.99c0 24.02 19.65 43.67 43.67 43.67h618.07c24.02 0 43.68-19.65 43.68-43.67v-47.99" fill="#d0d5e3"/>
               <path d="m4724.6 4663.7h-51.76c-7.98 0-14.5 6.53-14.5 14.5v15.95c0 7.98 6.52 14.5 14.5 14.5h51.76c7.98 0 14.51-6.52 14.51-14.5v-15.95c0-7.97-6.53-14.5-14.51-14.5" fill="#5f566b"/>
               <path d="m4391.9 4784.9c1.87-17.1-9.67-31.09-25.64-31.09-15.96 0-30.55 13.99-32.41 31.09l-36.31 333.36c-1.87 17.1-4.9 45.08-6.76 62.18l-33.29 306.54c-1.86 17.1-3.9 35.88-4.54 41.72s-2.69 24.61-4.56 41.71l-11.41 104.51c-1.86 17.09-4.91 45.07-6.77 62.17l-20.61 189.8c-1.86 17.1 9.69 31.09 25.65 31.09s30.54-13.99 32.39-31.09l4.64-43.06c1.85-17.1 3.91-36.17 4.59-42.38 0.69-6.2 2.76-25.27 4.62-42.37l18.28-168.26c1.86-17.1 4.23-38.98 5.28-48.62 1.03-9.65 3.42-31.53 5.28-48.63l31.94-292.72c1.86-17.09 4.92-45.07 6.77-62.17l42.86-393.78" fill="#d0d5e3"/>
               <path d="m4556.8 4644.6h-66.28c-7.98 0-14.51 6.53-14.51 14.51v15.94c0 0.53 0.03 1.06 0.08 1.58 0.8-7.24 6.97-12.92 14.43-12.92h66.27c7.45 0 13.63 5.68 14.42 12.92 0.06-0.52 0.09-1.05 0.09-1.58v-15.94c0-7.98-6.53-14.51-14.5-14.51" fill="#9d8ea5"/>
               <path d="m4571.2 4676.6c-0.79 7.25-6.98 12.93-14.42 12.93h-0.01v4.6c0 7.98-6.53 14.5-14.52 14.5h-37.23 51.76c7.98 0 14.51-6.52 14.51-14.5v-15.95c0-0.53-0.03-1.06-0.09-1.58" fill="#5f566b"/>
               <path d="m4556.8 4663.7h-14.52c7.98 0 14.51 6.53 14.51 14.5v11.35h0.01c7.44 0 13.63-5.68 14.42-12.93-0.79-7.24-6.97-12.92-14.42-12.92" fill="#524358"/>
               <path d="m4476.1 4676.6c-0.05 0.52-0.08 1.05-0.08 1.58v15.95c0 7.98 6.52 14.5 14.5 14.5h14.52c-7.98 0-14.5-6.52-14.5-14.5v-4.6h-0.02c-7.45 0-13.62-5.68-14.42-12.93" fill="#5f566b"/>
               <path d="m4542.3 4663.7h-51.75c-7.46 0-13.63 5.68-14.43 12.92 0.8 7.25 6.97 12.93 14.42 12.93h0.02v-11.35c0-7.97 6.52-14.5 14.5-14.5h37.24" fill="#524358"/>
               <path d="m4556.8 4689.5h-66.25v4.6c0 7.98 6.52 14.5 14.5 14.5h37.23c7.99 0 14.52-6.52 14.52-14.5v-4.6" fill="#413546"/>
               <path d="m4542.3 4663.7h-37.24c-7.98 0-14.5 6.53-14.5 14.5v11.35h66.25v-11.35c0-7.97-6.53-14.5-14.51-14.5" fill="#3d2f41"/>
               <path d="m4566 4678.2c0-7.98-6.52-14.51-14.5-14.51h-51.76c-7.97 0-14.5 6.53-14.51 14.51v15.94c0 7.97 6.54 14.5 14.51 14.5h51.76c7.98 0 14.5-6.53 14.5-14.5v-15.94" fill="#e1dfe3"/>
               <path d="m4591.9 4678.2c0-7.98-6.52-14.51-14.5-14.51h-51.76c-7.97 0-14.51 6.53-14.51 14.51v15.94c0 7.97 6.53 14.5 14.5 14.5h51.77c7.98 0 14.5-6.53 14.5-14.5v-15.94" fill="#fff"/>
               <path d="m4321 4874.5-20.28 186.48 2.68 3.14 20.31-186.49-2.71-3.13" fill="#d3d4df"/>
               <path d="m4323.8 4877.6-20.31 186.49 48.69 57.26 20.51-187.25-48.89-56.5" fill="#e9ebf3"/>
               <path d="m3766.7 5329.6c7.78-61.39-35.68-111.16-97.08-111.16s-117.47 49.77-125.26 111.16c-7.78 61.4 35.68 111.17 97.08 111.17 61.39 0 117.48-49.77 125.26-111.17" fill="#fff"/>
               <path d="m1275.9 4314.3v177.09h-146.75v77.82h146.75v-254.91" fill="#677389"/>
               <path d="m1129.1 4314.3h146.75v177.09h-146.75z" fill="#475262"/>
               <path d="m2676.8 4335.3v156.08h-146.74v98.84h146.74v-254.9" fill="#8d95a4"/>
               <path d="m2530 4335.3h146.74v156.08h-146.74z" fill="#42495c"/>
               <path d="m6272 4467.7v44.72h-146.84v21.36c22.07-12.1 47.38-18.97 74.19-18.97 1.69 0 3.39 0.03 5.09 0.08 22.85 0.74 45.39 1.26 67.56 1.62v-48.81" fill="#1b181e"/>
               <path d="m6199.3 4514.8c-26.81 0-52.12 6.87-74.19 18.97v15.13l94.75-2.68c4.31-0.29 10.8-1.74 18.21-1.74 10.67 0 23.24 3.03 33.88 16.96v-44.94c-22.17-0.36-44.71-0.88-67.56-1.62-1.7-0.05-3.4-0.08-5.09-0.08" fill="#1b181e"/>
               <path d="m6238.1 4544.5c-7.41 0-13.9 1.45-18.21 1.74l-94.75 2.68v1.72c6.02 4.59 11.46 16.04 15.72 32.38 0.63 2.31 1.23 4.72 1.81 7.23h129.31v-28.79c-10.64-13.93-23.21-16.96-33.88-16.96" fill="#606c81"/>
               <path d="m6125.1 4550.6v39.61h17.53c-0.58-2.51-1.18-4.92-1.81-7.23-4.26-16.34-9.7-27.79-15.72-32.38" fill="#606c81"/>
               <path d="m6272 4314.3h-146.84v198.11h146.84v-198.11" fill="#475262"/>
               <path d="m7585.4 4314.3v198.11h-146.74v77.82h146.74v-275.93" fill="#8d95a4"/>
               <path d="m7290.7 4314.3h146.74v198.11h-146.7z" fill="#616d78"/>
              </g>
              <g fill-rule="evenodd">
               <path d="m7185.7 5040.9-0.92-11.95-2.45-31.89-3.02-40.03-19.63-256.62-6.4-84.17h-261.04l-0.5 6.09-3.87 42.77-1.51 17.2-1.6 18.11 46.97 26.64 10.64 27.66-21.28 48.94-59 153.38-3.45 40.03-2.87 31.89-1.42 15.98 331.35-4.03" fill="#ecdfb1"/>
               <path d="m6870.5 5101.8h299.01v29.312h-299z" fill="#ecdfb1"/>
               <path d="m6836.3 5028.9h367.41v72.887h-367.41z" fill="#f2ebcb"/>
               <path d="m7179.3 4957-19.61-256.67h-274.95l-22.65 256.67h317.21" fill="#eb3344"/>
               <path d="m6855.8 5028.9 2.02-23.36h325.19l1.79 23.36h-329" fill="#aea683"/>
              </g>
              <g>
               <path d="m7153.3 4616.2h-59.65v0.01h59.65v-0.01m1.58 20.65 4.83 63.5h0.03l19.61 256.67 3.01 40.01 0.65 8.5h0.03l1.78 23.36-1.78-23.36-0.66-8.51-3.03-40-19.61-256.67-4.86-63.5m48.89 392.04v72.89h-74.19 39.99v29.3-29.29h34.2v-72.9" fill="#d0c2e0"/>
               <path d="m7153.3 4616.2h-59.65l4.58 84.14h61.48l-4.83-63.5-1.58-20.64m26.05 340.81h-67.16l2.16 40 0.47 8.51h68.19l-0.65-8.5-3.02-40.01" fill="#bca89b"/>
               <path d="m7169.5 5101.8h-39.99v0.01h-24.34v29.29h64.33v-29.3" fill="#bca89b"/>
               <path d="m7184.8 5028.9h0.01-55.25v72.89h74.19v-72.89h-18.95" fill="#c1b1b1"/>
               <path d="m7159.7 4700.4h-61.51l13.96 256.67h67.16l-19.61-256.67" fill="#bd2b3d"/>
               <path d="m7183 5005.5h-68.22l1.27 23.36h68.74-0.01l-1.78-23.36" fill="#8a7c74"/>
               <path d="m6919.3 5101.8h100.69v29.312h-100.7z" fill="#fff"/>
               <path d="m7020 5101.8h-100.69 100.69" fill="#fff"/>
               <path d="m6950.6 5028.9h-50.22v72.89h50.22v-72.89" fill="#fcf9ee"/>
               <path d="m6940 4616.2h41.539v0.01h-41.5z" fill="#fff"/>
               <path d="m6931.4 4616.2h8.668v0.01h-8.668z" fill="#f36757"/>
               <path d="m6981.6 4616.2h-50.21l-4.13 84.14h50.21l4.13-84.14m-16.67 340.81h-50.21l-1.96 40-0.41 8.51h50.22l0.41-8.51 1.95-40" fill="#f5eed2"/>
               <path d="m6977.4 4700.4h-50.21l-12.54 256.67h50.21l12.54-256.67" fill="#f14c60"/>
               <path d="m7965.9 4410.2h1320.2v215.14h-1320.2z" fill="#e4803a"/>
               <path d="m962.4 4410.2h7003.5v215.11h-7003.5z" fill="#9b4b39"/>
              </g>
             </g>
            </g>
           </g>
           <g>
            <path d="m362.44 516.54v-16.423h5.8231v19.237l-1.0657 0.82804-4.7574-3.6415" fill="#ffa466"/>
            <path d="m372.42 516.23-1.0376 0.70427-1.5662 1.2174v-18.033h5.8211v18.482l-2.1425-1.6445-1.0748-0.72598" fill="#ffa466"/>
            <path d="m377.19 500.11h5.8231v24.14l-5.8231-4.4695v-19.67" fill="#ff6800"/>
            <path d="m384.56 525.44v-25.33h5.8237v29.799l-5.8237-4.4688" fill="#ff6800"/>
            <path d="m389.59 539.34 1.0631-1.7017-18.933-14.53-4.5716 3.5539-0.62542 0.49509-0.66533-0.49074-3.4182-2.6166v-3.0342l4.0561 3.1037 4.5729-3.5539 0.64636-0.43791 0.64374 0.43356 19.576 15.026 1.1704-1.8739 2.6476 6.1813-6.1626-0.55444" fill="#00b3ff"/>
            <path d="m400.21 492.35h-45.461v45.329h3.7597v-41.17h41.702v-4.1597" fill="#3c3c3b"/>
            <path d="m399.18 518.79h-18.47c-1.4576 0-2.6397-1.3079-2.6397-2.9191v-24.81c0-1.6126 1.1822-2.9206 2.6397-2.9206h18.474c1.4563 0 2.6384 1.3079 2.6384 2.9206v24.819c0 1.6112-1.1822 2.9191-2.6384 2.9191" fill="#00b3ff"/>
            <path d="m401.82 491.06c0-1.6126-1.1822-2.9206-2.6384-2.9206h-18.47c-1.4576 0-2.6397 1.3079-2.6397 2.9206v24.819c0 1.6112 1.1822 2.9191 2.6397 2.9191h18.474c1.4563 0 2.6384-1.3079 2.6384-2.9191zm-2.6384 28.711h-18.47c-1.941 0-3.519-1.7473-3.519-3.8927v-24.82c0-2.1468 1.5779-3.8934 3.519-3.8934h18.474c1.9391 0 3.5183 1.7466 3.5183 3.8934v24.819c0 2.1454-1.5792 3.8927-3.5183 3.8927" fill="#959595"/>
           </g>
           <g fill="#fff">
            <path d="m380.27 509.37h19.354v6.5703h-19.354z"/>
            <path d="m394.24 503.53h5.3762v3.2851h-5.3762z"/>
            <path d="m387.26 503.53h5.377v3.2851h-5.377z"/>
            <path d="m380.27 503.53h5.3783v3.2851h-5.3783z"/>
            <path d="m380.27 497.69h5.3783v3.2854h-5.3783z"/>
            <path d="m387.26 497.69h5.377v3.2854h-5.377z"/>
           </g>
           <g>
            <path d="m394.24 491.85h5.3762v9.124h-5.3762z" fill="#ffa466"/>
            <path d="m380.27 491.85h5.3783v3.2837h-5.3783z" fill="#fff"/>
            <path d="m387.26 491.85h5.377v3.2837h-5.377z" fill="#fff"/>
            <path d="m395.92 510.81h2.0293v3.6912h-2.0293z" fill="#3c3c3b"/>
            <path d="m392.87 510.81h2.0301v3.6912h-2.0301z" fill="#3c3c3b"/>
           </g>
           <g fill="#ff6800">
            <path d="m389.48 504.2h0.92253v1.8463h-0.92253z"/>
            <path d="m382.49 504.2h0.92355v1.8463h-0.92355z"/>
            <path d="m396.47 504.2h0.92253v1.8463h-0.92253z"/>
            <path d="m389.48 498.41h0.92253v1.8446h-0.92253z"/>
            <path d="m382.49 498.41h0.92355v1.8446h-0.92355z"/>
            <path d="m389.48 492.57h0.92253v1.8449h-0.92253z"/>
            <path d="m396.47 492.57h0.92253v1.8449h-0.92253z"/>
            <path d="m382.49 492.57h0.92355v1.8449h-0.92355z"/>
           </g>
           <g>
            <path d="m569.74 469.04h37.705v30.859h-37.705z" fill="#fff"/>
            <path d="m607.44 469.04h-37.705v30.859h37.705zm-41.164 34.687v-38.515h44.624v38.515h-44.624" fill="#ffa466"/>
            <path d="m573.17 472.14h5.6085v6.2058h-5.6085z" fill="#959595"/>
            <path d="m581.58 472.14h5.6083v6.2058h-5.6083z" fill="#ff6800"/>
            <path d="m589.99 472.14h5.6098v6.2058h-5.6098z" fill="#ff6800"/>
           </g>
           <g fill="#959595">
            <path d="m573.17 481.37h5.6085v6.2058h-5.6085z"/>
            <path d="m581.58 481.37h5.6083v6.2058h-5.6083z"/>
            <path d="m589.99 481.37h5.6098v6.2058h-5.6098z"/>
            <path d="m598.41 481.37h5.609v6.2058h-5.609z"/>
           </g>
           <g>
            <path d="m573.17 490.63h30.85v9.2676h-30.85z" fill="#ff6800"/>
            <path d="m600.03 499.89c-1.0526 0-1.907-0.94457-1.907-2.1106 0-1.1653 0.85439-2.1106 1.907-2.1106 1.0533 0 1.9083 0.94529 1.9083 2.1106 0 1.1661-0.85505 2.1106-1.9083 2.1106" fill="#3c3c3b"/>
            <path d="m600.03 496.84c-0.64112 0-1.1599 0.57399-1.1599 1.2833v6.6952c0 0.70861 0.51878 1.284 1.1599 1.284 0.64046 0 1.1599-0.57543 1.1599-1.284v-6.6952c0-0.70933-0.51944-1.2833-1.1599-1.2833" fill="#fff"/>
            <path d="m594.31 499.89c-1.0539 0-1.907-0.94457-1.907-2.1106 0-1.1653 0.85308-2.1106 1.907-2.1106 1.0533 0 1.9077 0.94529 1.9077 2.1106 0 1.1661-0.85439 2.1106-1.9077 2.1106" fill="#3c3c3b"/>
            <path d="m594.31 496.84c-0.64178 0-1.1599 0.57399-1.1599 1.2833v6.6952c0 0.70861 0.51812 1.284 1.1599 1.284 0.64047 0 1.1599-0.57543 1.1599-1.284v-6.6952c0-0.70933-0.51944-1.2833-1.1599-1.2833" fill="#fff"/>
            <path d="m588.59 499.89c-1.0539 0-1.9076-0.94457-1.9076-2.1106 0-1.1653 0.85374-2.1106 1.9076-2.1106 1.0533 0 1.9077 0.94529 1.9077 2.1106 0 1.1661-0.85439 2.1106-1.9077 2.1106" fill="#3c3c3b"/>
            <path d="m588.59 496.84c-0.64111 0-1.1599 0.57399-1.1599 1.2833v6.6952c0 0.70861 0.51879 1.284 1.1599 1.284 0.63982 0 1.1592-0.57543 1.1592-1.284v-6.6952c0-0.70933-0.51943-1.2833-1.1592-1.2833" fill="#fff"/>
            <path d="m582.87 499.89c-1.0533 0-1.907-0.94457-1.907-2.1106 0-1.1653 0.85374-2.1106 1.907-2.1106 1.0539 0 1.9083 0.94529 1.9083 2.1106 0 1.1661-0.85439 2.1106-1.9083 2.1106" fill="#3c3c3b"/>
            <path d="m582.87 496.84c-0.64111 0-1.1599 0.57399-1.1599 1.2833v6.6952c0 0.70861 0.51878 1.284 1.1599 1.284s1.1599-0.57543 1.1599-1.284v-6.6952c0-0.70933-0.51879-1.2833-1.1599-1.2833" fill="#fff"/>
            <path d="m577.15 499.89c-1.0533 0-1.9083-0.94457-1.9083-2.1106 0-1.1653 0.85504-2.1106 1.9083-2.1106 1.0526 0 1.9076 0.94529 1.9076 2.1106 0 1.1661-0.85504 2.1106-1.9076 2.1106" fill="#3c3c3b"/>
            <path d="m577.15 496.84c-0.64047 0-1.1606 0.57399-1.1606 1.2833v6.6952c0 0.70861 0.52009 1.284 1.1606 1.284 0.64046 0 1.1592-0.57543 1.1592-1.284v-6.6952c0-0.70933-0.51878-1.2833-1.1592-1.2833" fill="#fff"/>
            <path d="m615.52 467.21v-3.3672l-1.0932 2.1866v5.1448h1.2777v-3.9643h-0.18449" fill="#ffa466"/>
            <path d="m615.89 463.85v3.3592h-0.19169v3.9643h1.277v-5.1448l-1.0853-2.1787" fill="#ff6800"/>
            <path d="m615.89 466.65v-2.7982l-0.19169-0.21425-0.18449 0.20628v2.8062c-0.22766 0.0861-0.39121 0.32499-0.39121 0.60511 0 0.35322 0.25908 0.64129 0.58028 0.64129 0.31925 0 0.57897-0.28807 0.57897-0.64129 0-0.28012-0.1642-0.51898-0.39186-0.60511" fill="#3c3c3b"/>
            <path d="m615.7 496.23v13.249h2.5449v-1.127h0.005v-12.122h-2.5494" fill="#00b3ff"/>
            <path d="m613.15 496.23v13.249h2.5507v-13.249h-2.5507" fill="#66d1ff"/>
            <path d="m613.61 471.18h2.096v22.606h-2.096z" fill="#66d1ff"/>
            <path d="m615.7 471.18h2.036v22.606h-2.036z" fill="#00b3ff"/>
            <path d="m616.39 509.48v-11.219c0-0.41982-0.30749-0.75928-0.68627-0.75928-0.37747 0-0.68495 0.33946-0.68495 0.75928l-0.00063 11.219h-1.8651c0 1.1205 0.82103 2.0281 1.8337 2.0281h1.4268c1.0134 0 1.8331-0.90766 1.835-2.0281h-1.8586" fill="#ff6800"/>
            <path d="m615.7 480.28h2.036v0.97856h-2.036z" fill="#3c3c3b"/>
            <path d="m613.6 480.28h2.0968v0.97856h-2.0968z" fill="#959595"/>
            <path d="m615.7 493.78h2.5494v2.4471h-2.5494z" fill="#ff6800"/>
           </g>
           <g fill="#ffa466">
            <path d="m613.15 493.78h2.5514v2.4471h-2.5514z"/>
            <path d="m524.78 555.62h10.435v4.6114h-10.435z"/>
            <path d="m535.21 555.62h10.435v4.6114h-10.435z"/>
            <path d="m524.78 554.43h10.435v1.192h-10.435z"/>
           </g>
           <path d="m535.21 554.43h10.435v1.192h-10.435z" fill="#ff6800"/>
           <path d="m535.21 560.23h10.435v1.192h-10.435z" fill="#ff6800"/>
           <g fill="#ffa466">
            <path d="m524.78 560.23h10.435v1.192h-10.435z"/>
            <path d="m535.21 549.82h10.435v4.6109h-10.435z"/>
            <path d="m524.78 549.82h10.435v4.6109h-10.435z"/>
           </g>
           <path d="m535.21 548.62h10.435v1.192h-10.435z" fill="#ff6800"/>
           <g fill="#ffa466">
            <path d="m524.78 548.62h10.435v1.192h-10.435z"/>
            <path d="m535.21 544.01h10.435v4.6098h-10.435z"/>
            <path d="m524.78 544.01h10.435v4.6098h-10.435z"/>
           </g>
           <path d="m535.21 542.82h10.435v1.1923h-10.435z" fill="#ff6800"/>
           <g fill="#ffa466">
            <path d="m524.78 542.82h10.435v1.1923h-10.435z"/>
            <path d="m535.21 538.21h10.435v4.6115h-10.435z"/>
            <path d="m524.78 538.21h10.435v4.6115h-10.435z"/>
            <path d="m524.78 537.02h10.435v1.1912h-10.435z"/>
           </g>
           <path d="m535.21 537.02h10.435v1.1912h-10.435z" fill="#ff6800"/>
           <g fill="#ffa466">
            <path d="m535.21 532.41h10.435v4.6115h-10.435z"/>
            <path d="m524.78 532.41h10.435v4.6115h-10.435z"/>
            <path d="m524.78 531.22h10.435v1.192h-10.435z"/>
           </g>
           <path d="m535.21 531.22h10.435v1.192h-10.435z" fill="#ff6800"/>
           <g fill="#fff">
            <path d="m524.78 555.62h0.83538v4.6114h-0.83538z"/>
            <path d="m526.45 555.62h0.83411v4.6114h-0.83411z"/>
            <path d="m528.12 555.62h0.83411v4.6114h-0.83411z"/>
            <path d="m529.79 555.62h0.83462v4.6114h-0.83462z"/>
            <path d="m531.45 555.62h0.83538v4.6114h-0.83538z"/>
            <path d="m533.12 555.62h0.83411v4.6114h-0.83411z"/>
           </g>
           <g fill="#ff6800">
            <path d="m534.79 555.62h0.83385v4.6114h-0.83385z"/>
            <path d="m536.46 555.62h0.83487v4.6114h-0.83487z"/>
            <path d="m538.13 555.62h0.83411v4.6114h-0.83411z"/>
            <path d="m539.8 555.62h0.83411v4.6114h-0.83411z"/>
            <path d="m541.47 555.62h0.83461v4.6114h-0.83461z"/>
            <path d="m543.14 555.62h0.83411v4.6114h-0.83411z"/>
            <path d="m544.81 555.62h0.83539v4.6114h-0.83539z"/>
           </g>
           <g fill="#fff">
            <path d="m524.78 549.82h0.83538v4.6109h-0.83538z"/>
            <path d="m526.45 549.82h0.83411v4.6109h-0.83411z"/>
            <path d="m528.12 549.82h0.83411v4.6109h-0.83411z"/>
            <path d="m529.79 549.82h0.83462v4.6109h-0.83462z"/>
            <path d="m531.45 549.82h0.83538v4.6109h-0.83538z"/>
            <path d="m533.12 549.82h0.83411v4.6109h-0.83411z"/>
           </g>
           <g fill="#ff6800">
            <path d="m534.79 549.82h0.83385v4.6109h-0.83385z"/>
            <path d="m536.46 549.82h0.83487v4.6109h-0.83487z"/>
            <path d="m538.13 549.82h0.83411v4.6109h-0.83411z"/>
            <path d="m539.8 549.82h0.83411v4.6109h-0.83411z"/>
            <path d="m541.47 549.82h0.83461v4.6109h-0.83461z"/>
            <path d="m543.14 549.82h0.83411v4.6109h-0.83411z"/>
            <path d="m544.81 549.82h0.83539v4.6109h-0.83539z"/>
           </g>
           <g fill="#fff">
            <path d="m524.78 544.01h0.83538v4.6098h-0.83538z"/>
            <path d="m526.45 544.01h0.83411v4.6098h-0.83411z"/>
            <path d="m528.12 544.01h0.83411v4.6098h-0.83411z"/>
            <path d="m529.79 544.01h0.83462v4.6098h-0.83462z"/>
            <path d="m531.45 544.01h0.83538v4.6098h-0.83538z"/>
            <path d="m533.12 544.01h0.83411v4.6098h-0.83411z"/>
           </g>
           <g fill="#ff6800">
            <path d="m534.79 544.01h0.83385v4.6098h-0.83385z"/>
            <path d="m536.46 544.01h0.83487v4.6098h-0.83487z"/>
            <path d="m538.13 544.01h0.83411v4.6098h-0.83411z"/>
            <path d="m539.8 544.01h0.83411v4.6098h-0.83411z"/>
            <path d="m541.47 544.01h0.83461v4.6098h-0.83461z"/>
            <path d="m543.14 544.01h0.83411v4.6098h-0.83411z"/>
            <path d="m544.81 544.01h0.83539v4.6098h-0.83539z"/>
           </g>
           <g fill="#fff">
            <path d="m524.78 538.21h0.83538v4.6115h-0.83538z"/>
            <path d="m526.45 538.21h0.83411v4.6115h-0.83411z"/>
            <path d="m528.12 538.21h0.83411v4.6115h-0.83411z"/>
            <path d="m529.79 538.21h0.83462v4.6115h-0.83462z"/>
            <path d="m531.45 538.21h0.83538v4.6115h-0.83538z"/>
            <path d="m533.12 538.21h0.83411v4.6115h-0.83411z"/>
           </g>
           <g fill="#ff6800">
            <path d="m534.79 538.21h0.83385v4.6115h-0.83385z"/>
            <path d="m536.46 538.21h0.83487v4.6115h-0.83487z"/>
            <path d="m538.13 538.21h0.83411v4.6115h-0.83411z"/>
            <path d="m539.8 538.21h0.83411v4.6115h-0.83411z"/>
            <path d="m541.47 538.21h0.83461v4.6115h-0.83461z"/>
            <path d="m543.14 538.21h0.83411v4.6115h-0.83411z"/>
            <path d="m544.81 538.21h0.83539v4.6115h-0.83539z"/>
           </g>
           <g fill="#fff">
            <path d="m524.78 532.41h0.83539v4.6115h-0.83539z"/>
            <path d="m526.45 532.41h0.83487v4.6115h-0.83487z"/>
            <path d="m528.12 532.41h0.83488v4.6115h-0.83488z"/>
            <path d="m529.79 532.41h0.83411v4.6115h-0.83411z"/>
            <path d="m531.46 532.41h0.83487v4.6115h-0.83487z"/>
            <path d="m533.12 532.41h0.83462v4.6115h-0.83462z"/>
           </g>
           <g fill="#ff6800">
            <path d="m534.79 532.41h0.83385v4.6115h-0.83385z"/>
            <path d="m536.46 532.41h0.83411v4.6115h-0.83411z"/>
            <path d="m538.13 532.41h0.83462v4.6115h-0.83462z"/>
            <path d="m539.8 532.41h0.83411v4.6115h-0.83411z"/>
            <path d="m541.47 532.41h0.83386v4.6115h-0.83386z"/>
            <path d="m543.14 532.41h0.83462v4.6115h-0.83z"/>
            <path d="m544.81 532.41h0.83487v4.6115h-0.83487z"/>
           </g>
           <path d="m531.69 549.17h-18.47c-1.4563 0-2.6384-1.3079-2.6384-2.9191v-24.819c0-1.6126 1.1821-2.9206 2.6384-2.9206h18.475c1.4563 0 2.6384 1.3079 2.6384 2.9206v24.819c0 1.6112-1.1821 2.9191-2.6384 2.9191" fill="#3c3c3b"/>
           <path d="m534.33 521.43c0-1.6126-1.1821-2.9206-2.6384-2.9206h-18.47c-1.4563 0-2.6384 1.3079-2.6384 2.9206v24.819c0 1.6112 1.1821 2.9191 2.6384 2.9191h18.475c1.4563 0 2.6384-1.3079 2.6384-2.9191zm-2.6384 28.711h-18.47c-1.9397 0-3.5176-1.7466-3.5176-3.8919v-24.819c0-2.1468 1.5779-3.8926 3.5176-3.8926h18.475c1.9391 0 3.5176 1.7458 3.5176 3.8926v24.819c0 2.1454-1.5786 3.8919-3.5176 3.8919" fill="#959595"/>
           <g fill="#fff">
            <path d="m512.78 539.75h19.354v6.5694h-19.354z"/>
            <path d="m526.76 533.91h5.3775v3.2854h-5.3775z"/>
            <path d="m519.77 533.91h5.3783v3.2854h-5.3783z"/>
            <path d="m512.78 533.91h5.3767v3.2854h-5.3767z"/>
            <path d="m512.78 528.07h5.3767v3.2854h-5.3767z"/>
            <path d="m519.77 528.07h5.3783v3.2854h-5.3783z"/>
           </g>
           <g>
            <path d="m526.76 522.23h5.3775v9.1243h-5.3775z" fill="#66d1ff"/>
            <path d="m512.78 522.23h5.3767v3.2837h-5.3767z" fill="#fff"/>
            <path d="m519.77 522.23h5.3783v3.2837h-5.3783z" fill="#fff"/>
            <path d="m528.43 541.19h2.0306v3.6909h-2.0306z" fill="#3c3c3b"/>
            <path d="m525.39 541.19h2.0293v3.6909h-2.0293z" fill="#3c3c3b"/>
           </g>
           <g fill="#ff6800">
            <path d="m521.99 534.58h0.9238v1.8457h-0.9238z"/>
            <path d="m515.01 534.58h0.92228v1.8457h-0.92228z"/>
            <path d="m528.98 534.58h0.92382v1.8457h-0.92382z"/>
            <path d="m521.99 528.79h0.9238v1.8449h-0.9238z"/>
            <path d="m515.01 528.79h0.92228v1.8449h-0.92228z"/>
            <path d="m521.99 522.95h0.9238v1.8452h-0.9238z"/>
            <path d="m528.98 522.95h0.92382v1.8452h-0.92382z"/>
            <path d="m515.01 522.95h0.92228v1.8452h-0.92228z"/>
           </g>
           <path d="m557.32 518.5h-24.949l0.00093 15.05h24.948v-15.05" fill="#66d1ff"/>
           <path d="m550.32 526.07c-0.00094-3.3491-2.4533-6.0619-5.479-6.0634-3.0257 0.002-5.4802 2.7143-5.4802 6.0619s2.4546 6.0619 5.4802 6.0619c3.0244 0 5.4776-2.7143 5.479-6.0605" fill="#fff"/>
           <g fill="#3c3c3b">
            <path d="m546.21 526.22c-0.21719 0.19036-0.53383 0.36842-0.95448 0.53127l-0.26692 0.0992c-0.0536 0.0195-0.10009 0.0412-0.14851 0.0622-0.21457 0.0963-0.37027 0.19471-0.46513 0.29821-0.11514 0.1274-0.17205 0.29243-0.17205 0.49727 0 0.21207 0.0569 0.38651 0.16943 0.51897 0.11515 0.13462 0.26365 0.20266 0.44617 0.20266 0.007 0 0.0137-0.002 0.0215-0.002 0.18644-0.005 0.34411-0.0666 0.46514-0.19252 0.12627-0.12884 0.19953-0.30545 0.21719-0.52766l1.1933 0.002c-0.0189 0.37348-0.1073 0.71295-0.26823 1.0126-0.16223 0.3011-0.38205 0.53417-0.65551 0.70137-0.13412 0.0804-0.27608 0.14115-0.42654 0.18241v1.1812h-0.99047l0.00094-1.1885c-0.14524-0.0427-0.28327-0.10495-0.41739-0.18819-0.2813-0.17226-0.50504-0.41112-0.66859-0.71222-0.16356-0.30039-0.24402-0.62828-0.24533-0.98005 0.00093-0.32789 0.0726-0.63912 0.2185-0.92865 0.1472-0.29242 0.34084-0.52331 0.5901-0.69702 0.12691-0.0861 0.29896-0.17517 0.51747-0.26854 0.0321-0.0102 0.11645-0.0398 0.25056-0.0876 0.0779-0.0282 0.14982-0.0564 0.2185-0.0847 0.25842-0.1093 0.45403-0.22656 0.58421-0.34961 0.19037-0.1795 0.28458-0.41835 0.28458-0.71946 0-0.25696-0.0778-0.46903-0.23224-0.63768-0.1557-0.16647-0.35524-0.25044-0.59271-0.25189-0.017 0-0.0295 0.003-0.0438 0.005-0.22961 0.008-0.41868 0.0855-0.56457 0.23378-0.15112 0.15635-0.23486 0.36987-0.25318 0.6413h-1.2109c0.015-0.31486 0.0608-0.57254 0.14392-0.76579 0.0857-0.24899 0.21982-0.47265 0.40038-0.67315 0.2885-0.32788 0.62999-0.53561 1.0192-0.62609l0.00093-1.1552h0.98916v1.1719c0.17401 0.0485 0.33757 0.12305 0.4972 0.22366 0.31008 0.19615 0.5541 0.4654 0.73597 0.8027 0.1786 0.33947 0.26954 0.71296 0.26954 1.1212 0 0.63334-0.21982 1.1494-0.65813 1.5482"/>
            <path d="m555.07 526.07c0-1.0126-0.74252-1.8327-1.6571-1.8327-0.91524 0-1.6571 0.82007-1.6571 1.8327 0 1.0119 0.74186 1.8334 1.6571 1.8334 0.91458 0 1.6571-0.82152 1.6571-1.8334"/>
            <path d="m537.86 526.02c0-1.0119-0.74187-1.832-1.6558-1.832-0.91588 0-1.6571 0.82008-1.6571 1.832 0 1.0126 0.74122 1.8334 1.6558 1.8334 0.91523 0 1.6571-0.8208 1.6571-1.8334"/>
           </g>
           <g>
            <path d="m536.07 519.47c0.00093 1.7285-1.2652 3.1312-2.8301 3.1341v6.8661c1.538 0.0253 2.7804 1.4078 2.7882 3.116h17.586c0.0334-1.6995 1.2855-3.0653 2.8307-3.0675v-6.9174c-1.5465-0.0225-2.7921-1.4165-2.7921-3.1312zm-4.5742 15.046v-16.98h26.692l0.00093 16.978h-26.693" fill="#00b3ff"/>
            <path d="m555.39 528.58-23.364-9.6795-4.7698 14.095 23.364 9.6795 4.7698-14.095" fill="#66d1ff"/>
            <path d="m546.44 532.96c1.0605-3.1355-0.37616-6.6286-3.2102-7.802-2.8327-1.1747-5.9925 0.41402-7.053 3.551-1.0618 3.1341 0.37682 6.6272 3.2095 7.802 2.8327 1.174 5.9912-0.41691 7.0536-3.551" fill="#fff"/>
           </g>
           <g fill="#3c3c3b">
            <path d="m542.55 531.51c-0.26299 0.097-0.61692 0.1397-1.0618 0.12956l-0.28196-0.0108c-0.0562-0.003-0.10599 0-0.15832 0.002-0.23028 0.006-0.40887 0.0376-0.52925 0.0984-0.14981 0.0753-0.25579 0.20628-0.31925 0.39881-0.068 0.19978-0.0693 0.3829-0.006 0.553 0.0641 0.16937 0.18252 0.28953 0.35393 0.36046 0.007 0.005 0.0124 0.005 0.0202 0.007 0.17532 0.0687 0.3428 0.0702 0.4972 0 0.15962-0.0709 0.28261-0.20846 0.36766-0.40895l1.118 0.46541c-0.13542 0.34164-0.3258 0.62465-0.57243 0.84251-0.24664 0.2186-0.52597 0.35322-0.83542 0.40172-0.15177 0.0253-0.30289 0.0268-0.45598 0.006l-0.37551 1.1067-0.49196-0.20484-0.4357-0.1795 0.37813-1.114v0.002c-0.12299-0.0977-0.2329-0.20918-0.33103-0.3402-0.20934-0.26925-0.3428-0.57977-0.39971-0.92503-0.0589-0.34526-0.0308-0.68109 0.0805-1.0119 0.10467-0.30688 0.26953-0.57108 0.49785-0.78749 0.23028-0.21498 0.48541-0.35612 0.77588-0.4227 0.14458-0.0312 0.33365-0.0485 0.56982-0.0499 0.0321 0.003 0.12037 0.008 0.26168 0.0145 0.0818 0.005 0.15766 0.006 0.23028 0.005 0.27738 0 0.49719-0.034 0.65813-0.0977 0.23485-0.0963 0.39971-0.28302 0.49588-0.56385 0.0818-0.24175 0.0752-0.4712-0.017-0.68762-0.0916-0.21714-0.25318-0.37276-0.47496-0.46614-0.0157-0.006-0.0295-0.008-0.0425-0.0138-0.21851-0.0796-0.4187-0.0825-0.60187 0-0.19169 0.0891-0.33822 0.25551-0.44094 0.50305l-1.1344-0.46975c0.11384-0.28953 0.23879-0.51174 0.37682-0.66301 0.15963-0.1976 0.35655-0.35612 0.58945-0.47338 0.3742-0.19542 0.76018-0.2584 1.1534-0.19108l0.3657-1.0814 0.4344 0.17951 0.49326 0.20557-0.37223 1.0966c0.14719 0.11146 0.27738 0.24609 0.39513 0.40171 0.22898 0.304 0.37159 0.64998 0.43439 1.0372 0.0615 0.38724 0.0269 0.77376-0.10336 1.1538-0.20084 0.59424-0.56982 0.99234-1.1069 1.1936"/>
            <path d="m550.89 534.8c0.32121-0.94819-0.11318-2.0042-0.96953-2.3589-0.85766-0.35685-1.8128 0.12521-2.134 1.0727-0.32055 0.9482 0.11384 2.0042 0.9715 2.3611 0.8557 0.35467 1.8115-0.12739 2.1321-1.0749"/>
            <path d="m534.79 528.08c0.32187-0.9482-0.11383-2.0028-0.96953-2.3582-0.85766-0.35467-1.8122 0.1245-2.1327 1.0734-0.32055 0.94674 0.11384 2.0042 0.96953 2.3596 0.85767 0.35467 1.8135-0.12594 2.1327-1.0748"/>
           </g>
           <g>
            <path d="m535.19 521.25c-0.54692 1.6199-2.1785 2.4414-3.6439 1.8363l-2.1759 6.4325c1.4321 0.62031 2.1569 2.3958 1.6224 3.9991l16.47 6.8241c0.56981-1.5794 2.1759-2.3741 3.6223-1.7755l2.1929-6.4796c-1.4399-0.62031-2.1661-2.4088-1.6218-4.0143zm-9.0529 12.316 5.3821-15.901 24.998 10.356-5.3822 15.901-24.998-10.357" fill="#00b3ff"/>
            <path d="m551.21 535.93-19.629-17.036-8.3948 11.841 19.629 17.036 8.3948-11.841" fill="#66d1ff"/>
            <path d="m541.48 537.11c1.8684-2.6354 1.453-6.4455-0.92897-8.512-2.3787-2.065-5.8237-1.6076-7.6915 1.0278-1.8684 2.634-1.4504 6.4448 0.92897 8.512 2.38 2.065 5.825 1.6047 7.6915-1.0278" fill="#fff"/>
            <path d="m545.22 540.35c0.56393-0.79548 0.43832-1.9492-0.28066-2.5739-0.71961-0.62538-1.7624-0.48496-2.327 0.31195-0.56459 0.79474-0.43833 1.9485 0.2813 2.5732 0.71897 0.62465 1.7618 0.48495 2.3264-0.31123" fill="#3c3c3b"/>
            <path d="m531.71 528.56c0.56458-0.79691 0.43832-1.9492-0.2813-2.5724-0.72028-0.62683-1.7605-0.48641-2.325 0.30906-0.56523 0.79619-0.43962 1.95 0.27935 2.5731 0.72094 0.62611 1.7624 0.48641 2.327-0.30979" fill="#3c3c3b"/>
            <path d="m533.96 522.18c-0.96365 1.3615-2.7437 1.6003-3.9769 0.53273l-3.8291 5.4032c1.1959 1.072 1.4013 3.0067 0.45467 4.3559l13.838 12.009c0.97345-1.3144 2.7215-1.5338 3.9364-0.48061l3.8591-5.4438c-1.2024-1.0734-1.4072-3.0197-0.45009-4.3696h0.00094zm-11.993 8.7154 9.4703-13.359 21.003 18.228-9.4709 13.359-21.002-18.228" fill="#00b3ff"/>
            <path d="m474.84 559.99 3.7918-4.1945v7.8989c0 0.58846-0.43243 1.0662-0.96429 1.0662h-34.714c-0.53187 0-0.96299-0.47772-0.96299-1.0662v-47.992c0-0.58847 0.43112-1.0662 0.96299-1.0662h7.3173l-4.6933 5.1926 29.263 40.161" fill="#959595"/>
            <path d="m478.63 515.7v40.093l-3.7918 4.1945-29.263-40.161 4.6933-5.1926h27.397c0.53186 0 0.96429 0.47771 0.96429 1.0662" fill="#3c3c3b"/>
            <path d="m474.84 559.99h-29.263v-40.161h29.263v40.161" fill="#fafeff"/>
           </g>
           <g fill="#ff6800">
            <path d="m452.94 550.88-0.98851 1.0944-2.6279-2.9068-1.4805 1.6373-0.9885-1.0951 2.4664-2.7288 0.003 0.002 0.002-0.002 3.6145 3.999"/>
            <path d="m452.94 542-0.98851 1.0951-2.6279-2.9068-1.4805 1.6365-0.9885-1.0937 2.4664-2.7295 0.003 0.003 0.002-0.003 3.6145 3.9983"/>
            <path d="m452.94 533.11-0.98851 1.0951-2.6279-2.9076-1.4805 1.6365-0.9885-1.0937 2.4664-2.7295 0.003 0.003 0.002-0.003 3.6145 3.999"/>
           </g>
           <g>
            <path d="m460.96 546.41-5.2166-5.7709 1.8926 0.67604 3.9645 4.3863-0.64046 0.7086" fill="#959595"/>
            <path d="m460.32 547.12-3.9645-4.3863-0.61103-2.094 5.2166 5.7709-0.64112 0.70934" fill="#e2e3e4"/>
            <path d="m465.05 554.38-2.9158-3.226 1.5564-1.722 2.9164 3.226-1.557 1.7219" fill="#ffa466"/>
            <path d="m465.43 547.92 2.7261 3.0168 1.1194-1.2384 1.2574 1.3904-5.3514 5.9215-1.2574-1.3912 2.6757-2.9611-2.3231-2.5703-0.20672 0.228c-1.364 1.5099-3.5778 1.5099-4.9425 0l-0.90083-0.99741 5.3547-5.9237 0.90083 0.99669c0.86617 0.95832 1.1808 2.2945 0.94795 3.5286" fill="#ff6800"/>
            <path d="m460.96 530.85-5.2166-5.7724 1.8926 0.67676 3.9645 4.387-0.64046 0.70862" fill="#959595"/>
            <path d="m460.32 531.55-3.9645-4.387-0.61103-2.0947 5.2166 5.7724-0.64112 0.70933" fill="#e2e3e4"/>
            <path d="m465.05 538.81-2.9158-3.2268 1.5564-1.7219 2.9164 3.2268-1.557 1.7219" fill="#959595"/>
            <path d="m465.43 532.35 2.7261 3.0161 1.1194-1.2384 1.2574 1.3919-5.3514 5.92-1.2574-1.3904 2.6757-2.9611-2.3231-2.5703-0.20672 0.22801c-1.364 1.5099-3.5778 1.5099-4.9425 0l-0.90083-0.99669 5.3547-5.9244 0.90083 0.99669c0.86617 0.95833 1.1808 2.2945 0.94795 3.5286" fill="#3c3c3b"/>
           </g>
          </g>
         </g>
        </g>
       </g>
      </g>
     </g>
    </g>
   </g>
  </g>
 </g>
</svg>
