<?xml version="1.0" encoding="UTF-8" standalone="no"?>
<!-- Created with Inkscape (http://www.inkscape.org/) -->
<svg xmlns="http://www.w3.org/2000/svg" height="300" width="400" version="1.1" viewBox="0 0 105.83333 79.375002">
 <g transform="translate(0 -217.62)">
  <g transform="matrix(.35278 0 0 -.35278 -118.05 237.03)">
   <g transform="scale(.1)">
    <g transform="matrix(10 0 0 10 -2829.1 -2929.6)">
     <g transform="scale(.10920)">
      <g transform="matrix(9.1573 0 0 9.1573 5953.5 -3.1192)">
       <g transform="scale(.1)">
        <path d="m22350 385.71h5e3v5e3h-5e3z" fill-opacity=".32727" fill="#9fc4ea"/>
        <g transform="matrix(10 0 0 10 -1534.8 -207.81)">
         <g transform="scale(.1)">
          <path d="m1760.8 2046.7v-117.6c0-81.354 63.98-147.92 142.17-147.92h1640.4c78.206 0 142.18 66.567 142.18 147.92v117.58h-1924.8" fill="#ccc"/>
          <path d="m3685.6 2046.7v944.41c0 81.354-63.973 147.92-142.18 147.92h-1640.4c-78.193 0-142.17-66.567-142.17-147.92v-944.41h1924.8" fill="#7d6275"/>
          <path d="m2499.7 1613.8h447.13v167.31h-447.13z" fill="#ddd"/>
          <path d="m1855.9 2133.6h1734.7v908.72h-1734.7z" fill="#7c93b4"/>
          <path d="m1968.2 2046.7c0-199.56-155.48-361.33-347.29-361.33s-347.29 161.77-347.29 361.33 155.48 361.33 347.29 361.33 347.29-161.77 347.29-361.33" fill="#96daed"/>
          <path d="m3446.1 2046.7c0-199.56 155.49-361.33 347.29-361.33s347.29 161.77 347.29 361.33-155.49 361.33-347.29 361.33-347.29-161.77-347.29-361.33" fill="#96daed"/>
          <path d="m2917.7 3006.5s43.234-164.21-39.728-220.55c0 0 15.805 26.418 10.917 58.249 0 0-10.026-96.659-197.77-96.659v208.32l226.58 50.648" fill="#582a1a"/>
          <path d="m2471.3 3006.5s-43.241-164.21 39.722-220.55c0 0-15.805 26.418-10.917 58.249 0 0 10.032-96.659 197.78-96.659v208.32l-226.58 50.648" fill="#582a1a"/>
          <path d="m2793.4 2577.7c26.374 50.839 57.381 51.227 50.462 125.42 0 0-91.246 14.876-90.833 102.76 0 0-30.424-16.321-56.339-17.337-25.936-1.043-55.848 21.428-55.848 21.428s-7.5419-95.398-74.857-112.9c-8.9509-77.079 20.444-154.55 63.724-194.13 31.603-28.947 139.37 27.904 163.69 74.754" fill="#fece9a"/>
          <path d="m2782.3 2734.2s-0.013 0 0 0c-13.996 16.819-29.356 39.61-29.205 71.734 0 0-30.424-16.321-56.339-17.337-20.012-0.8112-42.33 12.34-51.51 18.428l-4.6655-5.5565c-0.052-0.9203-0.1177-1.8951-0.2029-2.9587 8.4856-11.842 74.608-93.005 141.92-64.31" fill="#eeb881"/>
          <path d="m2905.8 3052.9c9.5408 306.45-209.8 284.24-209.89 284.24-0.072 0-219.41 22.205-209.88-284.24 0 0-0.2949-127.94 32.737-175.81 43.398-62.905 122.93-95.807 177.14-95.807s134.46 28.743 177.15 95.807c33.707 52.938 32.743 175.81 32.743 175.81" fill="#fece9a"/>
          <path d="m2900.5 3026.9s12.994 26.493 27.436 8.5493c14.462-17.944 11.638-91.028-34.362-91.117 0 0 6.7033 65.203 6.9262 82.567" fill="#fece9a"/>
          <path d="m2900.7 3000.2s9.3178 26.009 18.577 12.599c9.2588-13.39 4.5541-30.761-9.2852-42.562 0 0 6.2577 47.293-9.2915 29.963" fill="#eeb881"/>
          <path d="m2488.2 3026.9s-12.987 26.493-27.449 8.5493c-14.481-17.944-9.842-91.028 36.157-91.117 0 0-8.5053 65.203-8.7084 82.567" fill="#fece9a"/>
          <path d="m2488 3000.2s-9.3179 26.009-18.57 12.599c-9.259-13.39-4.5672-30.761 9.2719-42.562 0 0-6.2511 47.293 9.2982 29.963" fill="#eeb881"/>
          <path d="m2721 2940.6c0-8.9105-11.015-16.137-24.579-16.137-13.597 0-24.598 7.2266-24.598 16.137 0 8.9174 11.002 16.151 24.598 16.151 13.564 0 24.579-7.2335 24.579-16.151" fill="#eeb881"/>
          <path d="m2610.3 2905.1s2.5753-1.5 7.195-3.6746c4.6129-2.1953 11.198-5.1812 19.278-7.9767 3.9777-1.5476 8.4531-2.6588 13.06-4.0972 4.6785-1.1659 9.6323-2.2907 14.75-3.2043 2.575-0.375 5.1897-0.7636 7.8368-1.1453 2.6342-0.4432 5.3602-0.3205 8.0533-0.6205 5.4059-0.6544 10.923-0.2794 16.414-0.068 5.5173-0.068 10.943 1.1863 16.355 1.684 5.3404 1.1727 10.589 2.3247 15.674 3.4361 4.9995 1.6429 9.8288 3.2314 14.409 4.7381 2.3721 0.6204 4.4624 1.7454 6.5723 2.6588 2.123 0.9068 4.1675 1.7862 6.1332 2.6314 3.9184 1.7456 7.6994 3.0886 10.714 4.9225 3.0798 1.7043 5.8646 3.0815 8.158 4.2541 4.5934 2.3043 7.3323 3.5452 7.3323 3.5452s-2.0574-2.1475-5.8447-5.7745c-1.9069-1.793-4.2135-4.0156-6.9722-6.4426-2.6406-2.6248-6.0611-4.8951-9.8092-7.3902-3.794-2.4066-7.6796-5.5835-12.384-7.7447-4.6787-2.2089-9.5734-4.7655-14.855-6.8517-5.4386-1.5748-10.989-3.7018-16.834-4.9291-5.9236-0.75-11.893-2.2567-17.987-2.3453-6.0873-0.082-12.175-0.2931-18.118 0.5728-5.9957 0.3135-11.71 1.8748-17.24 3.1565-5.5107 1.3294-10.654 3.3882-15.458 5.3041-4.7573 2.0998-9.1867 4.1926-13.04 6.606-3.9775 2.1272-7.3128 4.6633-10.294 6.7631-2.9355 2.2158-5.3927 4.261-7.3258 6.0609-3.8988 3.5451-5.773 5.9313-5.773 5.9313" fill="#ea81a7"/>
          <path d="m2833 3006.5c0-14.937-11.637-27.045-25.994-27.045-14.363 0-26.007 12.108-26.007 27.045s11.644 27.045 26.007 27.045c14.357 0 25.994-12.108 25.994-27.045" fill="#352213"/>
          <path d="m2823.8 3018.9c0-4.8132-3.7349-8.706-8.3677-8.706-4.613 0-8.3546 3.8928-8.3546 8.706 0 4.7995 3.7416 8.6992 8.3546 8.6992 4.6328 0 8.3677-3.8997 8.3677-8.6992" fill="#fff"/>
          <path d="m2610.3 3006.5c0-14.937-11.631-27.045-25.994-27.045s-26.001 12.108-26.001 27.045 11.638 27.045 26.001 27.045c14.364 0 25.994-12.108 25.994-27.045" fill="#352213"/>
          <path d="m2601 3018.9c0-4.8132-3.7479-8.706-8.3676-8.706-4.6131 0-8.3546 3.8928-8.3546 8.706 0 4.7995 3.7415 8.6992 8.3546 8.6992 4.6197 0 8.3676-3.8997 8.3676-8.6992" fill="#fff"/>
          <path d="m2984.3 2652.6c-15.72 18.871-203.67 82.458-203.67 82.458l-82.36-62.285-82.373 62.285s-187.94-63.588-203.66-82.458c-15.726-18.871 98.984-182.44 98.984-182.44l18.963-337.92h341.46l13.675 337.92s114.7 163.57 98.984 182.44" fill="#5fa3a8"/>
          <g fill="#75c4c6">
           <path d="m2615.9 2735-58.561-20.487 87.039-113.81 53.895 72.014-82.373 62.285"/>
           <path d="m2780.6 2735 59.328-20.487-87.058-113.81-54.629 72.014 82.36 62.285"/>
           <path d="m2715.2 2579.3c0-9.7422-7.5946-17.637-16.945-17.637-9.3637 0-16.958 7.8947-16.958 17.637 0 9.7355 7.5946 17.637 16.958 17.637 9.3505 0 16.945-7.9015 16.945-17.637"/>
           <path d="m2715.2 2456.6c0-9.7355-7.5946-17.63-16.945-17.63-9.3637 0-16.958 7.8946-16.958 17.63 0 9.7424 7.5946 17.637 16.958 17.637 9.3505 0 16.945-7.8947 16.945-17.637"/>
           <path d="m2715.2 2333.9c0-9.749-7.5946-17.617-16.945-17.617-9.3637 0-16.958 7.8677-16.958 17.617 0 9.749 7.5946 17.644 16.958 17.644 9.3505 0 16.945-7.8948 16.945-17.644"/>
           <path d="m2715.2 2211.2c0-9.7628-7.5946-17.644-16.945-17.644-9.3637 0-16.958 7.8809-16.958 17.644 0 9.7287 7.5946 17.63 16.958 17.63 9.3505 0 16.945-7.9016 16.945-17.63"/>
          </g>
          <path d="m2441.5 2133.6c25.084 179.67 55.389 305.3 55.389 305.3-13.197-86.44-25.444-196.19-35.994-305.3h160.04l-25.241 594.44c-72.99-6.8242-201.17-75.518-201.17-75.518-30.66-51.793-58.679-302.56-77.754-518.92h124.72" fill="#fff"/>
          <path d="m2595.7 2728.1-75.722-52.788 44.42-48.091-50.836-39.208 98.126-236.47-15.988 376.56" fill="#edf2f2"/>
          <path d="m2951.4 2133.6c-25.083 179.67-55.389 305.3-55.389 305.3 13.197-86.44 25.444-196.19 35.987-305.3h-160.03l25.241 594.44c72.996-6.8242 201.17-75.518 201.17-75.518 30.666-51.793 58.679-302.56 77.747-518.92h-124.72" fill="#fff"/>
          <path d="m2797.1 2728.1 75.729-52.782-44.42-48.098 50.835-39.201-98.126-236.47 15.982 376.55" fill="#edf2f2"/>
          <path d="m2569.3 3221.2s18.668-116.62 119.58-150.91c0 0-49.439 84.483-54.931 109.1 0 0 72.603-122.38 133.46-137.65 0 0-57.539 99.162-54.996 121.88 0 0 40.607-129.49 188.26-140.5 0 0 19.468 16.908 28.589 10.472 0 0 28.753 355.47-229.13 332.52 0 0-256.08 45.65-240.79-332.52 0 0 15.431 9.7557 28.936-10.472 0 0 66.182 111.01 81.01 198.08" fill="#582a1a"/>
          <path d="m2537.9 3073.5s2.1755 5.0041 7.8697 10.465c2.7521 2.8432 6.4542 5.5701 10.668 8.1267 2.1756 1.1316 4.3904 2.4338 6.841 3.2861 2.3787 1.0225 4.8948 1.7861 7.4569 2.3928 2.5358 0.7159 5.157 0.975 7.7256 1.2681 2.5489 0.3886 5.1241 0.1097 7.5551 0.1156 2.4442-0.013 4.7769-0.6545 6.972-0.9817 2.2082-0.2523 4.2003-1.0637 6.035-1.684 1.8216-0.6544 3.5056-1.1386 4.8882-1.9566 1.4155-0.7092 2.5949-1.4317 3.5648-1.9976 1.9394-1.1659 2.9748-1.9158 2.9748-1.9158s-1.3171-0.061-3.5123-0.041c-1.0942 0.02-2.4179 0.027-3.8856 0.1433-1.4613 0.1566-3.1715-0.102-4.9473-0.027-1.7889-0.048-3.6957 0.075-5.7073-0.1231-2.0116-0.2114-4.102-0.1636-6.2445-0.4907-2.1363-0.3615-4.3511-0.3955-6.5463-0.8933-2.2017-0.4772-4.4688-0.6952-6.651-1.377-4.4687-0.9205-8.7803-2.5089-12.889-3.9338-4.0626-1.5544-7.8762-3.1703-11.133-4.7382-6.5133-3.0882-11.035-5.6381-11.035-5.6381" fill="#582a1a"/>
          <path d="m2571.9 2481c-6.5132 19.28-12.011 39.392-19.782 58.167-13.97 33.74-29.926 42.814-63.567 42.814-1.0353 0-1.933-0.2045-2.7587-0.491-0.832 0.2865-1.7298 0.491-2.7585 0.491-33.648 0-49.597-9.074-63.567-42.814-7.7714-18.776-13.276-38.887-19.789-58.167-8.4726-25.082-17.378-49.768-15.55-76.882 1.979-29.459 34.447-31.47 55.448-31.47 10.563 0 10.563 17.044 0 17.044-61.149 0-33.366 59.36-22.036 92.882 4.5868 13.587 9.1803 27.182 13.767 40.769 9.0556 26.793 21.525 41.594 51.726 41.594 1.0287 0 1.9265 0.2046 2.7585 0.4908 0.8257-0.2862 1.7234-0.4908 2.7587-0.4908 30.194 0 42.671-14.801 51.72-41.594 4.5934-13.588 9.1803-27.182 13.774-40.769 11.323-33.522 39.113-92.882-22.036-92.882-10.57 0-10.57-17.044 0-17.044 20.994 0 53.463 2.0112 55.448 31.47 1.8283 27.113-7.0834 51.8-15.556 76.882" fill="#7d6275"/>
          <path d="m2459.7 2382.1c0-8.6925-6.8998-15.756-15.412-15.756-8.5119 0-15.412 7.063-15.412 15.756 0 8.6787 6.8999 15.742 15.412 15.742 8.5118 0 15.412-7.063 15.412-15.742" fill="#cab9c4"/>
          <path d="m2542.7 2382.1c0-8.6925-6.8999-15.756-15.412-15.756-8.512 0-15.412 7.063-15.412 15.756 0 8.6787 6.8999 15.742 15.412 15.742 8.5118 0 15.412-7.063 15.412-15.742" fill="#cab9c4"/>
          <path d="m2494 2581.5c2.6735 74.898 42.356 136.39 113.93 146.56 10.425 1.4862 16.12 16.635 5.7925 15.169-78.848-11.215-133.18-79.718-136.1-161.73-0.3931-10.996 15.988-10.956 16.382 0" fill="#7d6275"/>
          <path d="m2911.2 2581.5c-2.68 74.898-47.14 138.72-118.71 148.9-10.419 1.4862-21.643 14.392-11.316 12.919 78.848-11.215 141.38-59.804 146.41-161.81 0.544-10.99-15.995-10.956-16.381 0" fill="#7d6275"/>
          <path d="m2956.9 2561.6c0-22.3-17.364-40.38-38.805-40.38-21.427 0-38.805 18.08-38.805 40.38 0 22.293 17.378 40.374 38.805 40.374 21.44 0 38.805-18.08 38.805-40.374" fill="#cab9c4"/>
          <path d="m2942.3 2561.6c0-13.942-10.858-25.239-24.258-25.239s-24.251 11.297-24.251 25.239c0 13.935 10.851 25.238 24.251 25.238s24.258-11.304 24.258-25.238" fill="#e5d6e1"/>
          <path d="m2081.1 3191.4c0-169.44-132.02-306.79-294.87-306.79s-294.87 137.35-294.87 306.79 132.02 306.79 294.87 306.79 294.87-137.35 294.87-306.79" fill="#96daed"/>
          <path d="m1875.2 3113.2c0-52.584-40.974-95.214-91.514-95.214h-45.762c-50.542 0-91.511 42.63-91.511 95.214v143.82c0 52.584 40.969 95.214 91.511 95.214h45.762c50.54 0 91.514-42.63 91.514-95.214v-143.82" fill="#e13d41"/>
          <path d="m1848.3 3354.2c0-13.09-10.294-23.807-22.875-23.807h-129.3c-12.586 0-22.88 10.717-22.88 23.807v33.092c0 13.09 10.295 23.807 22.88 23.807h129.32c12.581 0 22.875-10.717 22.875-23.807v-33.092" fill="#fff"/>
          <g fill="#eae5e8">
           <path d="m1721.8 3350.2c0-5.4812-4.2671-9.9195-9.5322-9.9195-5.2656 0-9.532 4.4383-9.532 9.9195v40.66c0 5.4813 4.2664 9.9196 9.532 9.9196 5.2651 0 9.5322-4.4383 9.5322-9.9196v-40.66"/>
           <path d="m1767.6 3350.2c0-5.4812-4.2724-9.9195-9.534-9.9195-5.2617 0-9.534 4.4383-9.534 9.9195v40.66c0 5.4813 4.2723 9.9196 9.534 9.9196 5.2616 0 9.534-4.4383 9.534-9.9196v-40.66"/>
           <path d="m1813.3 3350.2c0-5.4812-4.2657-9.9195-9.5339-9.9195-5.2684 0-9.5277 4.4383-9.5277 9.9195v40.66c0 5.4813 4.2593 9.9196 9.5277 9.9196 5.2682 0 9.5339-4.4383 9.5339-9.9196v-40.66"/>
          </g>
          <path d="m1840.4 3185.1c0-45.712-35.607-82.772-79.549-82.772s-79.559 37.06-79.559 82.772c0 45.725 35.617 82.765 79.559 82.765s79.549-37.04 79.549-82.765" fill="#fff"/>
          <path d="m1800.9 3198.8h-26.964v28.048h-26.302v-28.048h-26.947v-27.359h26.947v-28.061h26.302v28.061h26.964v27.359" fill="#f46969"/>
          <path d="m1845.8 3088.4-63.226-41.832c-25.523-16.88-33.058-52.086-16.834-78.634 16.224-26.554 50.069-34.388 75.591-17.514l63.226 41.832-58.757 96.148" fill="#53999b"/>
          <path d="m1904.6 2992.3 63.22 41.819c25.522 16.887 33.058 52.093 16.834 78.64-16.231 26.548-50.069 34.388-75.584 17.514l-63.226-41.826 58.757-96.148" fill="#f97a7a"/>
          <path d="m3692.9 2678.2c0 72.136-56.195 130.64-125.49 130.64-48.752 0-90.938-28.906-111.74-71.114-20.805 42.208-63.036 71.114-111.74 71.114-69.32 0-125.52-58.501-125.52-130.64 0-23.827 6.2053-46.203 16.925-65.469 0.2031-0.4023 48.024-49.795 220.33-193.08 171.33 142.44 219.5 191.56 220.27 193.05 10.76 19.253 16.965 41.628 16.965 65.503" fill="#f46969"/>
          <path d="m3703.7 2616.6h-66.712c-2.0377 0-4.5476-1.5817-4.8686-3.8588-3.0929-21.871-6.1855-43.291-9.2785-62.66-8.4857 55.89-16.971 111.79-25.457 167.68-0.7602 5.0586-8.9445 5.0246-9.7373 0-9.9993-63.055-20.018-126.1-30.018-189.15-6.2316 72.491-12.437 145-18.682 217.49-0.4849 5.679-8.394 7.4516-9.9141 1.3975-9.6586-38.09-19.311-76.186-28.976-114.28-1.8022-7.0766-3.591-14.146-5.3863-21.223-0.4064 0.3408-2.4769 0.2727-9.9928 0.2727h-56.418c-0.7667 0-1.4416-0.1704-2.0314-0.4363h-9.7634c-2.0314 0-4.5475-1.5817-4.8685-3.8586-3.0929-21.864-6.1858-43.278-9.2785-62.66-8.4922 55.89-16.971 111.79-25.451 167.69-0.7665 5.0519-8.9442 5.0178-9.7437 0-10.006-63.049-20.025-126.1-30.024-189.16-6.2315 72.498-12.443 145-18.682 217.49-0.4849 5.6724-8.3808 7.4517-9.9141 1.3975-9.6651-38.09-19.317-76.186-28.969-114.28-1.8085-7.0766-3.5909-14.146-5.3995-21.223-0.3932 0.3341-2.4702 0.266-9.9732 0.266h-56.425c-6.5199 0-6.5199-10.513 0-10.513h70.369c2.2278 0 4.3051 1.5952 4.8686 3.8588 9.3244 36.733 18.629 73.473 27.94 110.21 6.5524-76.22 13.092-152.46 19.638-228.69 0.4718-5.4813 8.9312-7.6425 9.9208-1.3907 10.478 65.946 20.942 131.91 31.407 197.86 8.5249-56.142 17.05-112.28 25.568-168.41 0.747-5.0245 9.0164-5.0655 9.7372 0 4.1806 29.534 8.3546 53.797 12.535 83.338 0.7144 4.9973 1.4483 6.8994 1.4613 7.5742h17.292 44.702c0.7666 0 1.4351 0.1639 2.0248 0.4296h13.426c2.2345 0 4.3051 1.6022 4.8686 3.8656 9.3244 36.726 18.629 73.466 27.947 110.21 6.5461-76.227 13.092-152.46 19.632-228.69 0.4783-5.4882 8.9378-7.6493 9.9338-1.3908 10.464 65.946 20.922 131.91 31.4 197.86 8.512-56.142 17.037-112.28 25.556-168.42 0.7599-5.0177 9.036-5.0586 9.7502 0 4.1675 29.541 8.3612 53.804 12.522 83.338 0.7208 5.004 1.4547 6.9063 1.4743 7.5744h17.299 44.689c6.5133 0 6.5133 10.519 0 10.519" fill="#fff"/>
          <path d="m3365.4 3191.4c0-169.44 132.02-306.79 294.87-306.79s294.87 137.35 294.87 306.79-132.02 306.79-294.87 306.79-294.87-137.35-294.87-306.79" fill="#96daed"/>
          <path d="m3821.2 3079.4c-4.187-22.075-24.978-36.569-46.183-32.213l-114.23 23.439c-21.204 4.3564-35.142 25.982-30.961 48.05l43.267 228.2c4.1872 22.068 24.979 36.562 46.183 32.213l114.23-23.446c21.204-4.3496 35.142-25.975 30.955-48.05l-43.26-228.19" fill="#f4f3f2"/>
          <path d="m3738.5 3103.8c-1.2647-6.6947-7.5093-11.051-13.944-9.7355-6.4346 1.3227-10.628 7.8197-9.3572 14.515l40.58 214.04c1.2713 6.6948 7.5224 11.051 13.951 9.7354 6.4413-1.3226 10.622-7.8197 9.3571-14.515l-40.587-214.04" fill="#d7e2e2"/>
          <path d="m3741.1 3311.7c-3.0663-16.164-18.144-26.677-33.674-23.493-15.53 3.1905-25.64 18.871-22.574 35.035 3.06 16.158 18.138 26.677 33.674 23.486 15.53-3.1838 25.64-18.871 22.574-35.029" fill="#f9be58"/>
          <path d="m3725.2 3298.5c-2.6735-1.8612-6.3037-1.1181-8.099 1.6635l-17.895 27.768c-1.789 2.7817-1.0747 6.5516 1.6053 8.4129 2.6736 1.8679 6.2971 1.1249 8.0925-1.6567l17.889-27.768c1.8021-2.7816 1.0813-6.5517-1.5922-8.4196" fill="#f2a22f"/>
          <path d="m3723.4 3218.1c-3.0667-16.158-18.144-26.677-33.68-23.487-15.53 3.1909-25.64 18.871-22.574 35.036 3.0667 16.158 18.144 26.67 33.674 23.48 15.53-3.1837 25.64-18.871 22.58-35.028" fill="#f9be58"/>
          <path d="m3707.4 3204.9c-2.6736-1.8612-6.3037-1.1181-8.0925 1.6634l-17.895 27.761c-1.7955 2.7884-1.0811 6.5517 1.5987 8.4196 2.6735 1.8682 6.3037 1.1182 8.0991-1.6565l17.889-27.768c1.7955-2.7883 1.0747-6.5517-1.5987-8.4197" fill="#f2a22f"/>
          <path d="m3705.6 3124.4c-3.0669-16.164-18.144-26.677-33.674-23.486-15.53 3.1837-25.64 18.871-22.58 35.029 3.0667 16.157 18.151 26.677 33.681 23.486 15.53-3.1838 25.64-18.871 22.574-35.029" fill="#f9be58"/>
          <path d="m3689.7 3111.3c-2.6734-1.8681-6.3035-1.1181-8.099 1.6567l-17.895 27.768c-1.7889 2.7815-1.0748 6.5518 1.6053 8.4196 2.6735 1.8611 6.3036 1.1181 8.0924-1.6635l17.889-27.761c1.8022-2.7885 1.0813-6.5585-1.5923-8.4197" fill="#f2a22f"/>
          <path d="m3844.9 3290.4c-3.06-16.158-18.144-26.677-33.674-23.486-15.53 3.1836-25.64 18.871-22.574 35.028 3.06 16.164 18.138 26.677 33.668 23.486 15.53-3.1838 25.64-18.871 22.58-35.028" fill="#f9be58"/>
          <path d="m3829 3277.2c-2.6734-1.8612-6.3036-1.1181-8.0992 1.6635l-17.888 27.768c-1.7955 2.7883-1.0813 6.5517 1.5922 8.4128 2.6801 1.868 6.3037 1.125 8.1056-1.6567l17.882-27.768c1.8019-2.7816 1.0812-6.5517-1.5923-8.4197" fill="#f2a22f"/>
          <path d="m3827.2 3196.7c-3.0667-16.158-18.144-26.67-33.674-23.487-15.536 3.1908-25.64 18.878-22.58 35.036 3.0601 16.158 18.138 26.677 33.674 23.486 15.53-3.1906 25.64-18.871 22.58-35.035" fill="#f9be58"/>
          <path d="m3811.3 3183.6c-2.6801-1.8612-6.3101-1.1181-8.0991 1.6634l-17.895 27.768c-1.7887 2.7815-1.0811 6.5516 1.599 8.4127 2.68 1.868 6.3037 1.1249 8.0991-1.6566l17.889-27.768c1.7953-2.7814 1.0811-6.5515-1.5923-8.4195" fill="#f2a22f"/>
          <path d="m3809.4 3103.1c-3.0601-16.158-18.144-26.677-33.674-23.486-15.53 3.1837-25.64 18.871-22.574 35.035 3.0601 16.158 18.138 26.67 33.668 23.486 15.53-3.1905 25.64-18.871 22.58-35.035" fill="#f9be58"/>
          <path d="m3793.5 3090c-2.6735-1.8681-6.3036-1.118-8.099 1.6635l-17.889 27.761c-1.7953 2.7885-1.0812 6.5585 1.5923 8.4198 2.6801 1.8611 6.3037 1.1248 8.1057-1.6635l17.882-27.761c1.8021-2.7884 1.0812-6.5517-1.5922-8.4197" fill="#f2a22f"/>
          <path d="m3685.8 3074.1c3.6039-22.184-10.897-43.4-32.219-47.15l-114.78-20.187c-21.322-3.7497-41.714 11.338-45.318 33.515l-37.258 229.34c-3.6038 22.184 10.897 43.4 32.219 47.15l114.79 20.18c21.322 3.7496 41.714-11.331 45.318-33.515l37.252-229.34" fill="#fff"/>
          <path d="m3600.2 3066.3c1.0943-6.7221-3.2632-13.103-9.7306-14.235-6.4676-1.1385-12.594 3.3952-13.688 10.117l-34.939 215.11c-1.0943 6.7289 3.2632 13.11 9.7306 14.249 6.4611 1.1318 12.594-3.4019 13.688-10.131l34.939-215.11" fill="#dcefef"/>
          <path d="m3518.8 3278-17.364-3.0542 3.6825-22.689 17.371 3.0543c6.0154 1.0567 10.078 6.9948 9.0558 13.26-1.0155 6.2655-6.723 10.486-12.745 9.4288" fill="#53999b"/>
          <path d="m3487.8 3249.2 17.358 3.0542-3.6825 22.689-17.364-3.0541c-6.0219-1.057-10.078-6.995-9.0622-13.26 1.022-6.2654 6.7295-10.486 12.751-9.4287" fill="#f46969"/>
          <path d="m3529.7 3210.8-17.358-3.0474 3.6826-22.689 17.364 3.0542c6.022 1.0566 10.078 6.9948 9.0559 13.26-1.0157 6.2654-6.7232 10.485-12.745 9.4218" fill="#53999b"/>
          <path d="m3498.7 3182 17.364 3.0544-3.6826 22.689-17.371-3.0543c-6.0154-1.0567-10.078-6.9947-9.0624-13.26 1.0224-6.2653 6.7296-10.485 12.751-9.4288" fill="#f46969"/>
          <path d="m3540.7 3143.6-17.364-3.0475 3.6825-22.689 17.364 3.0475c6.0219 1.0635 10.078 7.0015 9.0558 13.267-1.0158 6.2653-6.7231 10.485-12.738 9.4219" fill="#53999b"/>
          <path d="m3509.6 3114.8 17.364 3.0543-3.6825 22.689-17.364-3.061c-6.0219-1.05-10.078-6.988-9.0622-13.253 1.0221-6.2653 6.7295-10.486 12.745-9.4287" fill="#f46969"/>
          <path d="m3551.6 3076.3-17.364-3.0542 3.6826-22.682 17.371 3.0542c6.0154 1.0568 10.078 6.988 9.0558 13.253-1.0158 6.2721-6.7231 10.485-12.745 9.4286" fill="#53999b"/>
          <path d="m3520.5 3047.6 17.358 3.0543-3.6826 22.682-17.364-3.0474c-6.0218-1.0637-10.078-7.0016-9.0623-13.267 1.0222-6.2654 6.7296-10.486 12.752-9.4219" fill="#f46969"/>
          <path d="m3621.5 3296.1-17.358-3.061 3.6825-22.682 17.358 3.0544c6.0219 1.0566 10.084 6.9946 9.0623 13.26-1.0158 6.2653-6.723 10.485-12.745 9.4287" fill="#53999b"/>
          <path d="m3590.5 3267.3 17.364 3.0542-3.6825 22.682-17.371-3.0476c-6.0154-1.0634-10.078-6.9948-9.0623-13.26 1.0221-6.2721 6.7362-10.485 12.751-9.4286" fill="#f46969"/>
          <path d="m3632.4 3228.8-17.364-3.0474 3.6824-22.696 17.364 3.0611c6.0154 1.0498 10.078 6.9947 9.0557 13.253-1.0155 6.2654-6.723 10.492-12.738 9.4287" fill="#53999b"/>
          <path d="m3601.4 3200.1 17.358 3.0474-3.6824 22.696-17.365-3.0543c-6.0218-1.0635-10.078-7.0016-9.0623-13.267 1.0222-6.2584 6.7296-10.485 12.752-9.4217" fill="#f46969"/>
          <path d="m3643.4 3161.6-17.364-3.0542 3.6826-22.682 17.364 3.0473c6.0219 1.0638 10.085 6.9949 9.0622 13.26-1.0155 6.2722-6.723 10.486-12.745 9.4287" fill="#53999b"/>
          <path d="m3612.3 3132.8 17.358 3.0542-3.6826 22.682-17.364-3.0543c-6.0218-1.0567-10.078-6.988-9.0623-13.26 1.0222-6.2653 6.7295-10.478 12.751-9.4217" fill="#f46969"/>
          <path d="m3654.3 3094.4-17.358-3.0542 3.6826-22.689 17.358 3.0542c6.0218 1.0567 10.084 6.9949 9.0623 13.26-1.0157 6.2653-6.723 10.485-12.745 9.4286" fill="#53999b"/>
          <path d="m3623.2 3065.6 17.364 3.0541-3.6826 22.689-17.371-3.0544c-6.0154-1.0566-10.078-6.9947-9.0624-13.26 1.0224-6.2653 6.7297-10.485 12.752-9.4285" fill="#f46969"/>
          <path d="m1828 1920.4c0-30.774-24.196-55.945-53.77-55.945h-313.67c-29.574 0-53.77 25.17-53.77 55.945v214.45c0 30.768 24.196 55.945 53.77 55.945h313.67c29.573 0 53.77-25.177 53.77-55.945v-214.45" fill="#fff"/>
          <path d="m1705.2 2190.8h-20.162v32.226c0 9.6401-7.5382 17.487-16.807 17.487h-101.64c-9.266 0-16.804-7.847-16.804-17.487v-32.226h-20.165v32.226c0 21.203 16.584 38.465 36.968 38.465h101.64c20.385 0 36.969-17.262 36.969-38.465v-32.226" fill="#7d6275"/>
          <path d="m1714.6 2023c0-55.904-43.544-101.23-97.281-101.23-53.729 0-97.289 45.33-97.289 101.23 0 55.911 43.56 101.21 97.289 101.21 53.737 0 97.281-45.296 97.281-101.21" fill="#f46969"/>
          <path d="m1666.3 2039.8h-32.97v34.299h-32.167v-34.299h-32.952v-33.447h32.952v-34.326h32.167v34.326h32.97v33.447" fill="#fff"/>
          <path d="m3962.6 1841.4c0-18.748-14.743-34.088-32.763-34.088h-275.56c-18.02 0-32.763 15.34-32.763 34.088v395.42c0 18.748 14.743 34.088 32.763 34.088h275.56c18.02 0 32.763-15.34 32.763-34.088v-395.42" fill="#7d6275"/>
          <path d="m3657.6 1856.3h268.91v379.15h-268.91z" fill="#fff"/>
          <path d="m3792.1 2259.5c-7.8435 0-14.193 6.6062-14.193 14.767 0 8.1606 6.3495 14.774 14.193 14.774 7.8433 0 14.199-6.6131 14.199-14.774 0-8.1606-6.3561-14.767-14.199-14.767zm69.556-2.4066h-33.183c1.3696 4.111 2.1362 8.4946 2.1362 13.083 0 22.137-17.24 40.08-38.51 40.08s-38.523-17.944-38.523-40.08c0-4.5883 0.7796-8.9719 2.149-13.083h-33.182c-10.346 0-18.727-8.7196-18.727-19.478s8.3809-19.485 18.727-19.485h139.11c10.34 0 18.721 8.7265 18.721 19.485s-8.3807 19.478-18.721 19.478" fill="#f9be58"/>
          <path d="m3684 2050.8h93.918v138.62h-93.918z" fill="#f9be58"/>
          <g fill="#cdeef9">
           <path d="m3794.3 2173.5h105.94v15.906h-105.94z"/>
           <path d="m3794.3 2132.6h105.94v15.907h-105.94z"/>
           <path d="m3794.3 2091.7h105.94v15.907h-105.94z"/>
           <path d="m3794.3 2050.8h105.94v15.907h-105.94z"/>
           <path d="m3684 2009.9h216.23v15.907h-216.23z"/>
           <path d="m3684 1969h216.23v15.907h-216.23z"/>
           <path d="m3684 1928.1h216.23v15.907h-216.23z"/>
           <path d="m3684 1887.2h216.23v15.907h-216.23z"/>
          </g>
          <path d="m2392.4 2838.3c12.62 15.974 8.0728 22.205-10.104 13.86l-102.44-47.034c-18.177-8.3446-49.309-15.176-69.176-15.176h-841.38c-19.871 0-36.126-16.914-36.126-37.585v-231.36c0-20.678 16.256-37.585 36.126-37.585h841.38c19.867 0 36.125 16.908 36.125 37.585v95.487c0 20.671 10.327 50.647 22.947 66.621l122.65 155.19" fill="#f9be58"/>
          <g fill="#ffd18f">
           <path d="m1443.5 2718h685.35v25.361h-685.35z"/>
           <path d="m1443.5 2595.3h685.35v25.361h-685.35z"/>
           <path d="m1443.5 2656.6h685.35v25.361h-685.35z"/>
           <path d="m1443.5 2533.9h685.35v25.361h-685.35z"/>
          </g>
          <path d="m4113.8 2967.4c19.566 10.151 43.562 1.8135 53.332-18.53l21.244-44.28c9.7634-20.35 1.743-45.33-17.81-55.481l-165.28-85.846c-19.566-10.144-43.562-1.8067-53.319 18.53l-21.257 44.287c-9.757 20.35-1.7431 45.316 17.81 55.481l165.28 85.84" fill="#eee"/>
          <path d="m4004.9 2869.4c-5.0783 10.588-0.9239 23.555 9.2654 28.845l49.787 25.859c10.183 5.2903 22.672 0.975 27.75-9.6194l25.09-52.284c5.0717-10.588 0.9043-23.561-9.285-28.852l-49.78-25.866c-10.196-5.2904-22.659-0.9477-27.75 9.64l-25.077 52.277" fill="#f9be58"/>
          <g fill="#f2a22f">
           <path d="m4080.1 2875.8c-1.9658 4.1315-0.3604 9.1627 3.6041 11.215 3.9642 2.0658 8.7804 0.375 10.759-3.7563 1.9854-4.1179 0.3799-9.1356-3.5844-11.194-3.9578-2.0589-8.7938-0.3818-10.779 3.736"/>
           <path d="m4053.6 2862.1c-1.9921 4.1247-0.3933 9.1492 3.5777 11.208 3.984 2.059 8.8002 0.375 10.786-3.7496 1.9591-4.1178 0.3538-9.1424-3.5974-11.201-3.9775-2.0589-8.7936-0.3682-10.766 3.7428"/>
           <path d="m4027.2 2848.4c-1.9724 4.1315-0.3605 9.1559 3.6039 11.215 3.9708 2.0658 8.787 0.3614 10.772-3.7564 1.9658-4.1246 0.3603-9.1356-3.5974-11.201-3.9643-2.0522-8.7872-0.3749-10.779 3.7429"/>
           <path d="m4093.2 2848.3c-1.9656 4.0973-0.3539 9.1357 3.6171 11.188 3.9579 2.0588 8.7675 0.3954 10.74-3.7293 1.9854-4.1313 0.38-9.156-3.5713-11.208-3.9642-2.0657-8.7936-0.3818-10.786 3.7496"/>
           <path d="m4066.8 2834.6c-1.9789 4.1451-0.3734 9.1354 3.6039 11.194 3.9512 2.0589 8.774 0.3886 10.74-3.736 1.9986-4.1247 0.3865-9.1424-3.5843-11.201-3.9643-2.0522-8.7872-0.382-10.76 3.7428"/>
           <path d="m4040.4 2820.9c-1.9789 4.118-0.367 9.122 3.6104 11.194 3.9579 2.052 8.7675 0.375 10.74-3.7428 1.992-4.1383 0.3932-9.1492-3.5712-11.215-3.9643-2.0522-8.7936-0.368-10.779 3.7632"/>
           <path d="m4066.9 2903.3c-1.979 4.1451-0.367 9.1492 3.5974 11.194 3.9708 2.0726 8.7804 0.4023 10.753-3.7223 1.9983-4.1315 0.3931-9.1424-3.5844-11.215-3.9579-2.0452-8.7805-0.375-10.766 3.7428"/>
           <path d="m4040.4 2889.6c-1.9919 4.1249-0.3733 9.1221 3.6041 11.201 3.9644 2.0522 8.7738 0.3955 10.772-3.7427 1.9659-4.1314 0.3604-9.1491-3.5973-11.194-3.984-2.0726-8.7937-0.3953-10.779 3.7359"/>
           <path d="m4014 2875.9c-1.979 4.1383-0.3539 9.1356 3.6103 11.208 3.971 2.0521 8.7676 0.375 10.753-3.7429 1.9856-4.1382 0.3801-9.1422-3.5908-11.208-3.9579-2.052-8.7937-0.3817-10.772 3.7429"/>
          </g>
          <path d="m4109 2676c21.65-3.1358 36.911-24.127 33.91-46.646l-6.5396-49.025c-3.0075-22.532-23.196-38.417-44.833-35.288l-182.98 26.425c-21.657 3.136-36.918 24.134-33.916 46.646l6.5394 49.032c3.0143 22.525 23.19 38.403 44.846 35.288l182.97-26.432" fill="#eee"/>
          <path d="m3965.9 2659.3c1.5596 11.72 12.037 19.969 23.308 18.339l55.114-7.9629c11.284-1.6225 19.232-12.531 17.672-24.257l-7.719-57.881c-1.5661-11.719-12.063-19.962-23.34-18.332l-55.114 7.9424c-11.284 1.6431-19.199 12.551-17.653 24.277l7.7321 57.874" fill="#f9be58"/>
          <g fill="#f2a22f">
           <path d="m4031.4 2620.4c0.616 4.5611 4.6851 7.7653 9.0688 7.1245 4.3904-0.6271 7.4438-4.854 6.8344-9.4287-0.6028-4.5609-4.6457-7.7582-9.0361-7.1244-4.3901 0.6341-7.4633 4.8542-6.8671 9.4286"/>
           <path d="m4002.1 2624.6c0.5899 4.5746 4.6394 7.7788 9.0427 7.1449 4.3968-0.6409 7.4504-4.8747 6.8476-9.4356-0.6161-4.5541-4.6655-7.7515-9.0493-7.1242-4.3968 0.6409-7.4568 4.8676-6.841 9.4149"/>
           <path d="m3972.8 2628.8c0.6158 4.5677 4.6786 7.7583 9.0622 7.1311 4.4035-0.6408 7.4438-4.8745 6.8475-9.4356-0.6225-4.561-4.6719-7.7514-9.0556-7.1242-4.3839 0.6408-7.4569 4.8608-6.8541 9.4287"/>
           <path d="m4027.3 2589.9c0.6029 4.5337 4.6655 7.7378 9.0557 7.0971 4.3903-0.6272 7.4504-4.8336 6.8279-9.3877-0.5963-4.5815-4.659-7.7788-9.0295-7.1449-4.3838 0.6273-7.4568 4.8542-6.8541 9.4355"/>
           <path d="m3998.1 2594.2c0.6224 4.5815 4.6523 7.7517 9.0556 7.1176 4.3772-0.6341 7.4438-4.8405 6.8344-9.4013-0.6029-4.5815-4.6588-7.772-9.0493-7.1312-4.3835 0.6407-7.4633 4.854-6.8407 9.4149"/>
           <path d="m3968.8 2598.4c0.6094 4.5608 4.6655 7.7379 9.0622 7.1106 4.3837-0.6409 7.4437-4.8472 6.8278-9.4082-0.6029-4.5882-4.6458-7.772-9.036-7.1516-4.3903 0.6408-7.4634 4.8745-6.854 9.4492"/>
           <path d="m4035.4 2650.8c0.6225 4.581 4.6722 7.758 9.0558 7.1241 4.4035-0.634 7.4569-4.8405 6.8475-9.4014-0.5963-4.5814-4.6457-7.7788-9.0493-7.1448-4.3771 0.6477-7.4502 4.8609-6.854 9.4221"/>
           <path d="m4006.2 2655.1c0.6028 4.5677 4.6522 7.7379 9.0622 7.1106 4.3837-0.6339 7.4569-4.8336 6.8541-9.4217-0.6291-4.561-4.6787-7.7585-9.0558-7.1176-4.4099 0.6341-7.4633 4.8473-6.8605 9.4287"/>
           <path d="m3976.9 2659.3c0.6159 4.5745 4.6719 7.7447 9.0687 7.1175 4.3904-0.6408 7.4373-4.8473 6.8344-9.4151-0.616-4.5746-4.6588-7.7584-9.0556-7.1311-4.3838 0.6409-7.4569 4.861-6.8475 9.4287"/>
          </g>
          <path d="m3229 3288.9-180.81 152.37-45.239-58.202 180.8-152.39-19.062-24.461 21.368-18.005 83.349 107.12-21.362 18.012-19.042-24.448" fill="#7c93b4"/>
          <path d="m3157.8 3391.2-14.147-18.169-142.08 119.77c-21.526 18.141-50.082 19.716-67.322 5.0041l-75.938 64.003c-3.296 2.8088-8.1777 2.2769-10.864-1.1728-2.6933-3.4632-2.1755-8.515 1.1402-11.31l75.951-64.003c-10.268-20.616-2.8503-49.325 18.688-67.487l142.07-119.76-14.147-18.176 13.577-11.508 86.672 111.3-13.597 11.508" fill="#fff"/>
          <path d="m3038.8 3440.1-41.262 34.885c-15.851 13.362-37.481 13.151-48.057-0.4432-10.583-13.601-6.2971-35.663 9.5406-49.011l41.282-34.885 38.497 49.454" fill="#f46969"/>
          <g fill="#fff">
           <path d="m2408.6 3556c30.575-32.82 61.149-65.639 91.73-98.452 8.0859-8.6721 22.082 3.2996 13.938 12.046-30.575 32.82-61.156 65.633-91.73 98.452-8.086 8.6788-22.089-3.2996-13.937-12.046"/>
           <path d="m2361.5 3515.8c30.574-32.82 61.149-65.633 91.73-98.452 8.0859-8.6788 22.082 3.2997 13.937 12.04-30.574 32.827-61.156 65.64-91.73 98.459-8.0859 8.6788-22.089-3.3065-13.937-12.047"/>
           <path d="m2221 3364.1c28.17-32.751 56.34-65.503 84.503-98.254 7.4767-8.6855 21.322 2.2907 13.813 11.017-28.163 32.758-56.34 65.503-84.503 98.254-7.4699 8.6855-21.316-2.2907-13.813-11.017"/>
           <path d="m2173.5 3328.3c28.163-32.752 56.339-65.503 84.503-98.248 7.4702-8.6856 21.316 2.2907 13.807 11.017-28.163 32.751-56.333 65.503-84.503 98.248-7.4635 8.6923-21.316-2.284-13.806-11.017"/>
          </g>
          <path d="m2429.8 3586.1c-41.072-20.753-75.604-58.597-91.625-102.97-13.531-37.463-8.6037-81.92-14.377-121.07-7.9483-54.022-33.418-95.514-77.642-124.97-15.936-10.601-0.3145-36.426 15.628-25.811 64.032 42.637 89.332 106.3 95.183 183.24 3.8595 50.723 5.406 90.687 40.469 129.49 13.302 14.719 30.47 27.427 47.992 36.283 17.017 8.5899 1.2121 34.312-15.628 25.811" fill="#e13d41"/>
          <path d="m2533.2 3482.2c-22.325-41.451-60.664-75.089-104.19-89.133-36.728-11.849-79.09-4.1314-117-7.8266-52.296-5.0859-93.604-29.111-124.45-73.316-11.107-15.926-34.978 1.8136-23.858 17.746 44.663 64.01 107.23 86.549 181.38 88.124 48.909 1.0364 87.347 0.2863 126.62 34.429 14.907 12.953 28.104 30.038 37.632 47.723 9.2325 17.173 32.992-0.7568 23.858-17.746" fill="#53999b"/>
         </g>
        </g>
       </g>
      </g>
     </g>
    </g>
   </g>
  </g>
 </g>
</svg>
