<?xml version="1.0" encoding="UTF-8" standalone="no"?>
<!-- Created with Inkscape (http://www.inkscape.org/) -->
<svg xmlns="http://www.w3.org/2000/svg" height="300" width="400" version="1.1" viewBox="0 0 105.83333 79.375002">
 <defs>
  <clipPath id="clipPath9697" clipPathUnits="userSpaceOnUse">
   <path d="m5008.5 2212.4c34.76 584.29 25.38 1124.5-20.14 1233.9-46.68 67.93-327 235.04-603.07 358.9l155.15 346.08c193.76-86.84 657.3-310.89 776.56-515.45 50.35-86.34 98.64-254.94 75.05-850.72-12.35-312.05-27.59-556.51-27.59-556.51l-355.96-16.18"/>
  </clipPath>
 </defs>
 <g transform="translate(0 -217.62)">
  <g transform="matrix(.35278 0 0 -.35278 -118.05 237.03)">
   <g transform="scale(.1)">
    <g transform="matrix(10 0 0 10 -2829.1 -2929.6)">
     <g transform="scale(.10920)">
      <g transform="matrix(9.1573 0 0 9.1573 5953.5 -3.1192)">
       <g transform="scale(.1)">
        <path d="m22350 385.71h5e3v5e3h-5e3z" fill-opacity=".32727" fill="#9fc4ea"/>
        <g transform="matrix(10 0 0 10 -1534.8 -207.81)">
         <g transform="scale(.1)">
          <g transform="matrix(10 0 0 10 -2100 -2022.8)">
           <g transform="matrix(.039182 0 0 .036042 303.01 293.13)">
            <g>
             <path d="m7965.5 1744.7h-6904.5c-54.42 0-98.948 44.52-98.948 98.95 0 54.42 44.528 98.95 98.948 98.95h6904.4c54.42 0 98.95-44.53 98.95-98.95 0-54.43-44.53-98.95-98.95-98.95" fill="#9386ac"/>
             <path d="m6427.8 5860.8c-49.03 52.29-44.78 132.98 9.49 180.22l6.14 5.34c54.26 47.24 138 43.15 187.03-9.14 49.03-52.28 44.78-132.97-9.48-180.21l-6.15-5.34c-54.26-47.25-138-43.15-187.03 9.13" fill="#192645"/>
             <path d="m6532 5607.1-128.96-112.27-366.2 390.54 128.97 112.26c89.35 77.79 217.52 88.13 316.99 34.14 25.13-13.59 48.37-31.24 68.76-52.98 50.52-53.88 73.63-122.42 70.18-189.75-3.64-67.33-33.83-133.27-89.74-181.94" fill="#f14e30"/>
             <path d="m6415.4 5731.3-128.96-112.27-249.68 266.28 128.97 112.26c89.35 77.79 217.52 88.13 316.99 34.14 17.09-37.67 24.54-78.26 22.42-118.47-3.63-67.33-33.82-133.27-89.74-181.94" fill="#f8a12b"/>
             <path d="m6409.7 5496.3c-38.9-34.74-153.87 23.3-256.79 129.87s-154.95 221.16-115.98 256.01c30.68 27.54 109.02-3.01 191.41-69.69 21.69-17.72 43.82-37.86 65.27-60.12 25.1-26.02 47.22-52.49 65.67-78.19 57.31-79.55 79.82-151.57 50.42-177.88" fill="#2f3564"/>
             <path d="m6359.2 5674.2c-29.8-32.83-80.49-42.2-121.56-19.84-46.92 25.53-63.52 83.07-36.96 128.37 7.08 12.08 16.56 22.17 27.58 29.78 21.69-17.72 43.82-37.86 65.27-60.12 25.1-26.02 47.22-52.49 65.67-78.19" fill="#fff"/>
            </g>
            <path d="m7079.1 4597.9 334.3 1079.1-676.96 450.96-142.08-120.79" stroke="#192645" stroke-miterlimit="10" stroke-width="52.291" fill="none"/>
            <g>
             <path d="m6810.8 6121.5c0-44.3-37.26-80.21-83.23-80.21-45.98 0-83.24 35.91-83.24 80.21 0 44.29 37.26 80.2 83.24 80.2 45.97 0 83.23-35.91 83.23-80.2" fill="#192645"/>
             <path d="m6769.2 6121.5c0-22.15-18.63-40.11-41.61-40.11-22.99 0-41.62 17.96-41.62 40.11 0 22.14 18.63 40.09 41.62 40.09 22.98 0 41.61-17.95 41.61-40.09" fill="#2f3564"/>
             <path d="m7415.6 4461.2h-861.22c0 94.5 76.61 171.1 171.1 171.1h519.02c94.5 0 171.1-76.6 171.1-171.1" fill="#f8a12b"/>
             <path d="m6732 4628h155.38v47.051h-155.4z" fill="#192645"/>
             <path d="m7523.3 5666c0-62.01-52.17-112.28-116.53-112.28s-116.53 50.27-116.53 112.28 52.17 112.28 116.53 112.28 116.53-50.27 116.53-112.28" fill="#192645"/>
             <path d="m7465 5666c0-31-26.08-56.14-58.26-56.14s-58.27 25.14-58.27 56.14c0 31.01 26.09 56.14 58.27 56.14s58.26-25.13 58.26-56.14" fill="#2f3564"/>
             <path d="m7904.8 4711.6h-789.91v273.26h789.91c33.39 0 60.46-27.07 60.46-60.46v-152.35c0-33.39-27.07-60.45-60.46-60.45" fill="#581b3a"/>
             <path d="m7617.2 4711.6h-789.9v273.26h789.9c33.39 0 60.46-27.07 60.46-60.46v-152.35c0-33.39-27.07-60.45-60.46-60.45" fill="#581b3a"/>
             <path d="m7578.1 4749.1h-750.81v208.47h750.81c28.6 0 51.79-23.18 51.79-51.79v-104.9c0-28.6-23.19-51.79-51.79-51.79" fill="#ebedee"/>
             <path d="m7737 4857.2h179.78v19.77h-179.8z" fill="#fff"/>
             <path d="m7737 4814.8h179.78v19.77h-179.8z" fill="#fff"/>
             <path d="m8033 5195.2h-789.91v273.26h789.91c33.39 0 60.46-27.06 60.46-60.45v-152.35c0-33.39-27.07-60.46-60.46-60.46" fill="#581b3a"/>
             <path d="m7745.3 5195.2h-789.91v273.26h789.91c33.39 0 60.46-27.06 60.46-60.45v-152.35c0-33.39-27.07-60.46-60.46-60.46" fill="#581b3a"/>
             <path d="m7716.2 5222.7h-760.82v218.47h760.82c28.6 0 51.79-23.18 51.79-51.79v-114.89c0-28.6-23.19-51.79-51.79-51.79" fill="#ebedee"/>
             <path d="m7843.7 5285h219.93v97.078h-219.93z" fill="#ebedee"/>
            </g>
            <g fill="#192645">
             <path d="m7865.1 5340.8h179.78v19.777h-179.8z"/>
             <path d="m7865.1 5308.4h179.78v19.777h-179.8z"/>
             <path d="m7962.4 4452.7h-789.9v273.27h789.9c33.39 0 60.46-27.07 60.46-60.46v-152.35c0-33.39-27.07-60.46-60.46-60.46"/>
             <path d="m7674.7 4452.7h-789.9v273.27h789.9c33.39 0 60.46-27.07 60.46-60.46v-152.35c0-33.39-27.07-60.46-60.46-60.46"/>
            </g>
            <g>
             <path d="m7635.6 4490.2h-750.81v198.47h750.81c28.61 0 51.79-23.19 51.79-51.79v-94.89c0-28.61-23.18-51.79-51.79-51.79" fill="#ebedee"/>
             <path d="m7773.1 4542.6h219.92v97.078h-219.9z" fill="#ebedee"/>
             <path d="m7794.5 4598.3h179.78v19.773h-179.8z" fill="#192645"/>
             <path d="m7794.5 4565.9h179.78v19.777h-179.8z" fill="#192645"/>
             <path d="m7011.8 5197.1v-212.5h907.7c58.66 0 106.26 47.6 106.26 106.25 0 29.27-11.9 55.86-31.09 75.17-19.31 19.18-45.9 31.08-75.17 31.08h-907.7" fill="#d2322f"/>
             <path d="m6906.4 5197.1v-212.5h763.89c58.65 0 106.25 47.6 106.25 106.25 0 29.27-11.9 55.86-31.08 75.17-19.31 19.18-45.91 31.08-75.17 31.08h-763.89" fill="#f36543"/>
             <path d="m6906.4 5160.7v-136.24h735.23c37.65 0 68.12 30.48 68.12 68.12 0 18.82-7.64 35.82-19.91 48.21-12.39 12.26-29.39 19.91-48.21 19.91h-735.23" fill="#ebedee"/>
            </g>
            <g stroke="#9386ac" stroke-miterlimit="10" stroke-width="14.382" fill="none">
             <path d="m6955.3 5409.1h786.33"/>
             <path d="m6955.3 5363.6h786.33"/>
             <path d="m6955.3 5318h786.33"/>
             <path d="m6955.3 5272.5h786.33"/>
             <path d="m6826.7 4917.7h791.03"/>
             <path d="m6826.7 4872.2h791.03"/>
             <path d="m6826.7 4826.6h791.03"/>
             <path d="m6826.7 4781.1h791.03"/>
             <path d="m6886.6 4656.4h791.04"/>
             <path d="m6886.6 4610.9h791.04"/>
             <path d="m6886.6 4575.4h791.04"/>
             <path d="m6886.6 4529.8h791.04"/>
            </g>
            <g>
             <path d="m2435.2 1742h230.12v2493h-230.1z" fill="#1a2e4d"/>
             <path d="m4832.3 3511-1373.5-103.08-381.13 1934.4 922.57 3.24c258.47 0.9 482.1-179.73 535.58-432.61l296.5-1402" fill="#5e2b48"/>
             <path d="m3179.5 3498.5-228.47 1692.7c-10.17 75.42 43.2 145.44 118.61 155.62s145.44-43.19 155.62-118.6l228.46-1692.7c10.18-75.41-43.19-145.44-118.6-155.62s-145.44 43.2-155.62 118.61" fill="#d2322f"/>
             <path d="m3961.9 2317.4h160.94v949.24h-160.9z" fill="#484f7b"/>
             <path d="m4122.8 3211.3v-214.52l-160.94 62.27v145.24c40.27 1.9 117.79 5.12 160.94 7.01" fill="#192645"/>
             <path d="m4415.2 3189.8h-719.1c-39.55 0-71.91 32.36-71.91 71.91s32.36 71.91 71.91 71.91h719.12c39.56 0 71.92-32.36 71.92-71.91s-32.36-71.91-71.92-71.91" fill="#262e50"/>
             <path d="m4767.2 3276.1h-826.54c-98.89 0-179.81 80.92-179.81 179.81 0 98.9 80.92 179.81 179.81 179.81h826.54c98.9 0 179.81-80.91 179.81-179.81 0-98.89-80.91-179.81-179.81-179.81" fill="#5e2b48"/>
             <path d="m4040.9 3271.3h-661.14c-98.9 0-179.81 80.91-179.81 179.81 0 98.89 80.91 179.81 179.81 179.81h661.14c98.89 0 179.81-80.92 179.81-179.81 0-98.9-80.92-179.81-179.81-179.81" fill="#d2322f"/>
            </g>
            <g fill="#192645">
             <path d="m4724.4 2000.9h-100.68c0 120.28-97.86 218.13-218.13 218.13h-733.51c-120.28 0-218.13-97.85-218.13-218.13h-100.68c0 175.79 143.02 318.81 318.81 318.81h733.51c175.79 0 318.81-143.02 318.81-318.81"/>
             <path d="m3923.8 2317.3h234.92v153.42h-234.9z"/>
             <path d="m3483.4 1903.5c0-46.19-37.44-83.63-83.63-83.63-46.18 0-83.63 37.44-83.63 83.63s37.45 83.63 83.63 83.63c46.19 0 83.63-37.44 83.63-83.63"/>
            </g>
            <g>
             <path d="m3520.4 1910.9h-228.87v25.41c0 60.78 49.27 110.05 110.05 110.05h8.77c60.78 0 110.05-49.27 110.05-110.05v-25.41" fill="#2f3564"/>
             <path d="m4762.5 1903.5c0-46.19-37.44-83.63-83.63-83.63s-83.63 37.44-83.63 83.63 37.44 83.63 83.63 83.63 83.63-37.44 83.63-83.63" fill="#192645"/>
             <path d="m4799.4 1910.9h-228.87v25.41c0 60.78 49.27 110.05 110.05 110.05h8.77c60.78 0 110.05-49.27 110.05-110.05v-25.41" fill="#2f3564"/>
             <path d="m3979.4 1986.5h133.26v302.03h-133.3z" fill="#192645"/>
             <path d="m4132.5 1903.5c0-46.19-37.45-83.63-83.63-83.63-46.19 0-83.63 37.44-83.63 83.63s37.44 83.63 83.63 83.63c46.18 0 83.63-37.44 83.63-83.63" fill="#192645"/>
             <path d="m4169.4 1910.9h-228.87v25.41c0 60.78 49.27 110.05 110.05 110.05h8.77c60.78 0 110.05-49.27 110.05-110.05v-25.41" fill="#2f3564"/>
            </g>
            <g fill="#f79073">
             <path d="m5742.8 4814.8 228.12-65.4c16.66-4.77 34.2 4.95 38.97 21.61 4.78 16.66-4.94 34.2-21.6 38.97l-228.12 65.4c-16.66 4.78-34.2-4.94-38.97-21.6-4.78-16.66 4.94-34.2 21.6-38.98"/>
             <path d="m5805.7 4739.2 183.16-52.51c16.66-4.78 34.2 4.94 38.98 21.6 4.77 16.66-4.95 34.2-21.61 38.97l-183.17 52.52c-16.66 4.77-34.19-4.95-38.97-21.61-4.77-16.66 4.95-34.2 21.61-38.97"/>
             <path d="m5753.7 4696.7 216.8-62.15c16.66-4.78 34.2 4.95 38.97 21.6 4.78 16.67-4.94 34.2-21.6 38.98l-216.8 62.15c-16.66 4.78-34.2-4.95-38.97-21.61-4.78-16.66 4.94-34.19 21.6-38.97"/>
             <path d="m5572.8 4680.6 232.74-46.38c16.99-3.38 33.67 7.75 37.06 24.75 3.39 16.99-7.75 33.67-24.75 37.06l-232.73 46.38c-17 3.39-33.67-7.75-37.06-24.74-3.39-17 7.75-33.68 24.74-37.07"/>
             <path d="m5916.4 4758.2c-2.4 0.8-28.27 13.34-56.26 27.01-48.33 23.61-101.59 35.36-155.37 34.32l-102.99-2s-19.77-170.79-12.58-168.99c7.19 1.79 226.52-37.76 226.52-37.76l100.68 147.42"/>
            </g>
            <g>
             <path d="m5539.4 4571.1h98.281v263.33h-98.3z" fill="#ebedee"/>
             <path d="m5040.5 2000.2 598.6 22.5c35.69 1.34 63.54 31.37 62.2 67.06-1.03 27.5-19.34 51.32-45.64 59.4l-300.05 92.18-323.42-20.06 8.31-221.08" fill="#9386ac"/>
             <path d="m5651.7 2006.5-605.79-27.27-1.95 43.42 649.2 29.22c1.08-23.98-17.48-44.29-41.46-45.37" fill="#192645"/>
            </g>
            <g stroke="#192645" stroke-linecap="round" stroke-miterlimit="10" stroke-width="14.382" fill="none">
             <path d="m5352.2 2153.5 66.89 78.27"/>
             <path d="m5404.7 2134.1 66.89 78.27"/>
             <path d="m5455.3 2107.2 75.27 88.73"/>
            </g>
            <g fill="#192645" clip-path="url(#clipPath9697)">
             <path d="m5008.5 2212.4c34.76 584.29 25.38 1124.5-20.14 1233.9-46.68 67.93-327 235.04-603.07 358.9l155.15 346.08c193.76-86.84 657.3-310.89 776.56-515.45 50.35-86.34 98.64-254.94 75.05-850.72-12.35-312.05-27.58-556.51-27.58-556.51l-355.97-16.18"/>
             <path d="m4333.7 4e3s704.74-254.09 786.24-455.44c81.5-201.36 52.74-1328 52.74-1328l-234.91-9.59-781.45 1831.4 177.38-38.35"/>
            </g>
            <path d="m4465.2 5656.4 301.5-770.63c53.05-114.79 168.48-187.81 294.92-186.56l518.55 5.14" stroke="#162134" stroke-miterlimit="10" stroke-width="316.41" fill="none"/>
            <g>
             <path d="m4187.9 5882.5h-71.61c-65.7 0-119.46 53.76-119.46 119.46v336.63c0 65.71 53.76 119.46 119.46 119.46h71.61c65.7 0 119.46-53.75 119.46-119.46v-336.63c0-65.7-53.76-119.46-119.46-119.46" fill="#f79073"/>
             <path d="m4794.8 6757.3c-0.53-7.57-1.22-15.12-2.06-22.67-4.25-36.32-12.17-71.61-23.52-105.11-48.4-143.39-158.16-256.87-296.38-311.4-68.63-27.15-144.31-39.68-222.9-34.16-38.86 2.73-76.1 0.01-111.47-2.71-80.47-6.19-151.28-12.39-209.4 45.59-26.97 26.88-50.96 56.5-71.2 88.64-7.96 12.66-15.44 25.45-22.27 38.65-41.67 80.52-65.82 277.72-59 374.69 19.21 273.47 250.44 481.45 521.68 474.66 7.74-0.24 15.47-0.63 23.19-1.17 171.4-12.04 316.94-107.3 400.15-243.65l0.15-0.16c24.34-40.04 43.31-83.73 56.06-129.78 14.96-54.28 21.14-112.13 16.97-171.42" fill="#5b293c"/>
             <path d="m4122.1 6658c-0.57-10.64-3.02-20.85-7.34-30.2-4.88-11.22-12.37-23.16-21.57-31.5-16.68-14.96-38.98-25.46-63.14-24.16l-51.92 2.73-39.84 2.01 5.9 118.22h0.14l1.01 21.86 0.86 16.98 0.87 15.53 0.14 4.03h0.14l91.62-4.74c23.15-1.16 43.72-11.23 58.68-26.61 9.06-9.35 15.96-20.86 20.14-33.37 3.45-9.78 4.89-20 4.31-30.78" fill="#fabbbb"/>
             <path d="m4752.8 6708.2-9.78-191.14-1.44-28.62c-0.86-18.84-3.31-37.54-6.76-55.52-32.79-168.84-172.88-298.43-344.75-319.72-5.17-0.86-10.5-1.29-15.67-1.58-18.41-1.87-36.96-2.01-55.95-1.15-18.41 0.86-36.25 3.17-53.93 6.47-34.52 6.33-67.46 17.12-98.09 31.64l-0.29 0.15c-133.47 63.14-225.52 196.32-230.4 348.34-0.15 4.61-0.29 9.06-0.15 13.66-0.29 5.33 0 10.79 0.29 16.25v2.88l0.57 12.95 1.87 34.08 5.76 117.07 0.14 1.15v0.15l1.15 21.71 0.86 16.98 0.86 15.53 0.29 4.03c1.59 27.04 7.05 53.21 14.96 78.24 5.32 17.55 11.94 34.66 19.28 51.06 1 2.73 2.01 5.03 3.16 7.48 6.04 13.52 13.08 26.89 20.71 39.55l0.14 0.29c28.91 48.32 67.89 90.17 113.91 122.54 9.21 6.47 18.7 12.65 28.34 18.4 67.16 39.41 145.98 60.55 229.11 56.24 111.17-5.75 210.84-55.66 280.31-131.89 37.25-40.7 61.7-88.45 79.53-141.24 6.91-20.13 11.37-40.84 13.81-61.99 3.31-27.17 3.74-55.22 2.16-83.99" fill="#fabda3"/>
             <path d="m3984.2 6693.5-6.04-118.65-4.17-80.11-31.5 1.58c-2.3 0.15-4.6 0.29-6.75 0.72-52.5 6.32-92.05 54.22-89.47 106.86 1.3 27.33 13.96 50.05 33.23 67.31 17.26 15.39 39.98 23.59 64.72 23.87h0.14c2.88 0.29 5.32 0.29 8.2 0l31.64-1.58" fill="#fabbbb"/>
             <path d="m4608.2 6548.1c-9.89 0-17.98 8.09-17.98 17.97v57.53c0 9.89 8.09 17.98 17.98 17.98s17.98-8.09 17.98-17.98v-57.53c0-9.88-8.09-17.97-17.98-17.97" fill="#192645"/>
             <path d="m4344.5 6548.1c-9.89 0-17.98 8.09-17.98 17.97v57.53c0 9.89 8.09 17.98 17.98 17.98s17.98-8.09 17.98-17.98v-57.53c0-9.88-8.09-17.97-17.98-17.97" fill="#192645"/>
             <path d="m4307.4 6111.9s-71.92-4.79-140.95 36.67l-0.29 0.15c-133.47 63.14-225.52 196.32-230.4 348.34-52.5 6.32-92.05 54.22-89.47 106.86 1.3 27.33 13.96 50.05 33.23 67.31 17.26 15.39 39.98 23.59 64.72 23.87v0.15l1.15 21.71 0.86 16.98 0.87 15.53 0.14 4.03h0.14c1.59 27.04 7.05 53.22 14.96 78.24 54.37 30.35 109.74 36.1 141.24-31.93 0 0-3.17-30.78-5.9-77.66-2.16-35.09-4.17-79.11-4.46-125.85-0.86-96.08 4.89-203.51 29.63-268.67 52.64-139.07 184.53-215.73 184.53-215.73" fill="#f79073"/>
             <path d="m4768.6 6985.2h-648.36c-42.57 0-77.41 34.83-77.41 77.41 0 42.57 34.84 77.4 77.41 77.4h648.36c42.58 0 77.41-34.83 77.41-77.4 0-42.58-34.83-77.41-77.41-77.41" fill="#5b293c"/>
             <path d="m4909.8 6922.5c6.33-34.88-5.85-67.93-28.25-90.33-18.41-18.41-44.01-29.92-71.91-29.92h-591.2c-84.79 0-153.53-68.73-153.53-153.52v-95.58c0-31.72-25.95-57.67-57.68-57.67h-13.66c-31.85 0-57.67 25.82-57.67 57.67v287.94c0 2.3 0.14 4.45 0.43 6.62-10.93 16.11-17.26 35.66-17.26 56.37 0 28.05 11.51 53.5 29.92 72.06 18.4 18.41 44.01 29.91 71.91 29.91h784.54c50.04 0 95.41-34.31 104.35-83.55" fill="#5b293c"/>
             <path d="m4708.9 6694.4h-127.04c-12.53 0-22.77 10.24-22.77 22.77 0 12.52 10.24 22.77 22.77 22.77h127.04c12.53 0 22.78-10.25 22.78-22.77 0-12.53-10.25-22.77-22.78-22.77" fill="#5e2b48"/>
             <path d="m4399.6 6694.4h-127c-12.53 0-22.78 10.24-22.78 22.77 0 12.52 10.25 22.77 22.78 22.77h127.04c12.53 0 22.77-10.25 22.77-22.77 0-12.53-10.24-22.77-22.77-22.77" fill="#5e2b48"/>
             <path d="m4415.2 6531.4-59.92 117.45h43.15l62.32-112.66-45.55-4.79" fill="#fdded3"/>
             <path d="m4695.7 6531.4-59.92 117.45h43.14l62.33-112.66-45.55-4.79" fill="#fdded3"/>
            </g>
            <g stroke-miterlimit="10" fill="none">
             <path d="m4710.7 6524.8h-135.32c-15.08 0-27.42 12.34-27.42 27.41v74.63c0 15.07 12.34 27.41 27.42 27.41h135.32c15.08 0 27.41-12.34 27.41-27.41v-74.63c0-15.07-12.33-27.41-27.41-27.41z" stroke="#192645" stroke-width="12.974"/>
             <path d="m4446.3 6524.8h-148.57c-15.67 0-28.5 12.83-28.5 28.5v72.45c0 15.67 12.83 28.5 28.5 28.5h148.57c15.68 0 28.5-12.83 28.5-28.5v-72.45c0-15.67-12.82-28.5-28.5-28.5z" stroke="#192645" stroke-width="13.49"/>
             <path d="m4550.8 6370.2c-21.27-22.05-54.24-34.92-90.57-33.05-30.45 1.56-57.51 13.18-76.61 31.1" stroke="#f36543" stroke-width="14.382"/>
            </g>
            <path d="m4559.9 6474-2.46 0.07c-0.6-20.42-18.3-36.64-62.12-35.38l-5.15 160.99c46.75-59.32 66.52-92.28 69.73-125.68" fill="#f79073"/>
            <path d="m4477.6 6588.9 76.7-2.4" stroke="#192645" stroke-miterlimit="10" stroke-width="13.49" fill="none"/>
            <g>
             <path d="m4658.9 5501.2v-1453.2l-1056.4-115.5-51.9 1568.7c0 233.58 169.14 427.88 391.63 466.99 26.76 4.61 54.23 7.06 82.41 7.06h160.23c261.76 0 474.04-212.29 474.04-474.05" fill="#192645"/>
             <path d="m4575 3920.4c0-65.44-23.3-125.41-61.99-172.16-49.47-59.97-124.55-98.23-208.54-98.23h-454.63c-13.52 0-26.75 1-39.7 3.02-33.37 4.75-64.72 15.82-92.91 31.78-5.03 2.74-9.92 5.76-14.67 8.92-74.06 48.18-123.11 131.75-123.11 226.67l8.34 144.26 979.3 8.48 7.91-152.74" fill="#192645"/>
             <path d="m4006.7 4300h365.41v1704h-365.41z" fill="#ebedee"/>
             <path d="m4201.6 5780.3-106.57 151.74 98.18 58.73 114.96-58.73-106.57-151.74" fill="#192645"/>
             <path d="m4239.3 4258.6-119.02 160.61 47.78 1432.5 73.89-7.09 108.03-1419.5-110.68-166.47" fill="#192645"/>
             <path d="m4378.4 5863.6-171.4 117.34-200.32-117.34-14.18 144.42h385.9v-144.42" fill="#fff"/>
             <path d="m4292.6 2103.2 560.16-212.27c33.4-12.65 70.74 4.16 83.39 37.57 9.75 25.72 2.16 54.8-18.91 72.47l-240.51 201.7-305.73 107.41-78.4-206.88" fill="#9386ac"/>
             <path d="m4858.1 1871.2-568.64 210.67 15.1 40.75 609.39-225.77c-8.34-22.51-33.34-33.99-55.85-25.65" fill="#192645"/>
             <path d="m4754.1 2804.9c-7.91-309.36-35.24-592.26-36.38-604.06l-200.78 19.57-176.62 17.11c51.2 527.4 48.9 1058-4.46 1171.2-61.84 58.25-302.17 164.39-525.68 244.36-31.49 11.21-62.7 21.86-92.91 31.78-5.32 1.87-10.64 3.6-15.96 5.33l1.29 3.59s185.3 325.47 575.65 213.48c82.27-23.6 149.8-101.73 234.8-158.97 44.01-29.48 81.55-59.83 108.88-89.89 77.95-85.72 147.85-248.38 132.17-853.46" fill="#1a2e4d"/>
            </g>
            <g stroke="#192645" stroke-linecap="round" stroke-miterlimit="10" stroke-width="14.382" fill="none">
             <path d="m4620.2 2142.3 93.49 43.15"/>
             <path d="m4659.7 2102.8 93.49 43.14"/>
             <path d="m4694.5 2057.2 105.47 49.14"/>
            </g>
            <g>
             <path d="m3959.7 5318.4-409.18 167.7v15.1c0 233.58 169.14 427.88 391.63 466.99 1.02-0.85 2.16-1.72 3.17-2.58l14.38-647.21" fill="#1a2e4d"/>
             <path d="m4516.9 2220.4-176.62 17.11c51.2 527.4 48.9 1058-4.46 1171.2-61.84 58.25-302.17 164.39-525.68 244.36-33.37 4.75-64.72 15.82-92.91 31.78-5.32 1.87-10.64 3.6-15.96 5.33l1.29 3.59c-74.06 48.18-123.11 131.75-123.11 226.67l8.34 144.26 156.2-21.44c-3.74-11.21-24.88-121.38 13.66-187.54 10.79-18.85 26.46-34.09 48.75-42.58 61.13-23.3 293.7-80.25 478.8-163.09 119.66-53.65 219.62-118.23 240.32-191.72 48.62-172.59-0.71-1096.8-8.62-1237.9" fill="#192645"/>
             <path d="m6579.8 4473.5h-941.6c-61.59 0-102.29 64.03-76.15 119.8l328.39 700.58c28.64 61.08 90.01 100.1 157.47 100.1h866.87c44.91 0 74.59-46.69 55.53-87.36l-390.53-833.12" fill="#b0a5c7"/>
             <path d="m5641.7 4471.1h-671.38c-27.12 0-49.3 22.19-49.3 49.3 0 27.12 22.18 49.3 49.3 49.3h671.38c27.12 0 49.3-22.18 49.3-49.3 0-27.11-22.18-49.3-49.3-49.3" fill="#b0a5c7"/>
             <path d="m5304.5 4508.2h95.883v28.762h-95.9z" fill="#192645"/>
             <path d="m5206.3 4508.2h69.508v28.762h-69.5z" fill="#192645"/>
             <path d="m6565.6 4473.5h-943.78c-33.89 0-56.27 35.22-41.89 65.9l353.66 754.48c28.63 61.08 90.01 100.1 157.47 100.1h866.87c44.91 0 74.58-46.69 55.52-87.36l-366.19-781.22c-14.85-31.67-46.68-51.9-81.66-51.9" fill="#7d7591"/>
             <path d="m6359.4 4879.9c-22.37-52.35-64.19-84.66-93.4-72.17-29.22 12.48-34.77 65.04-12.4 117.39 22.37 52.34 64.2 84.65 93.41 72.17 29.22-12.49 34.76-65.05 12.39-117.39" fill="#fff"/>
            </g>
            <g fill="#f79073">
             <path d="m4887.3 4690.9 234.33 37.45c17.11 2.74 28.88 18.98 26.14 36.09-2.73 17.11-18.97 28.88-36.08 26.14l-234.34-37.45c-17.11-2.74-28.88-18.98-26.14-36.09 2.73-17.12 18.97-28.88 36.09-26.14"/>
             <path d="m4962 4627.5 188.15 30.07c17.12 2.74 28.88 18.98 26.15 36.09-2.74 17.11-18.98 28.88-36.09 26.14l-188.3-30c-17.11-2.74-28.87-18.98-26.14-36.09 2.74-17.11 18.98-28.88 36.09-26.14"/>
             <path d="m4918.4 4545.4 222.7 35.59c17.11 2.74 28.88 18.98 26.14 36.09-2.73 17.11-18.97 28.88-36.08 26.14l-222.71-35.6c-17.11-2.73-28.87-18.97-26.14-36.08 2.74-17.12 18.98-28.88 36.09-26.14"/>
             <path d="m4988.5 4751.5c-2.51-0.3-31.26 0.09-62.4 0.61-53.78 0.9-107.01-11.03-155.28-34.77l-92.42-45.46s52.93-157.08 60.23-158.4c178.19-32.21 239.32 48.69 239.32 48.69l10.55 189.33"/>
            </g>
            <g>
             <path d="m4771.4 4495h79.098v257.09h-79.1z" fill="#ebedee"/>
             <path d="m4253.1 4467.1c-186.5 0-357.01 108.86-435.36 278.41l-3.87 8.37-244.11 745.42 300.71 98.47 237.88-726.42c28.22-54.2 84.98-88.5 146.36-87.83l518.55 5.14 3.13-316.4-518.55-5.14c-1.57-0.01-3.17-0.02-4.74-0.02" fill="#1a2e4d"/>
             <path d="m4080.8 4062.6h263.68v90.809h-263.68z" fill="#9386ac"/>
            </g>
            <g fill="#7d7591">
             <path d="m3557.1 1742h230.12v2493h-230.1z"/>
             <path d="m6500.7 1742h230.1v2493h-230.1z"/>
             <path d="m7622.5 1742h230.1v2493h-230.1z"/>
            </g>
            <g fill="#2f3564">
             <path d="m6500.7 4235h230.1v-822.3l-230.1-114.2v936.5"/>
             <path d="m7852.6 4235v-265.6l-230.1-114.2v379.8h230.1"/>
             <path d="m3789.1 4239.9v-269l-233.1-115.7v384.71h233.07"/>
             <path d="m2219.1 4160.6h5165.4v209.46c0 55.98-45.38 101.36-101.36 101.36h-4962.6c-55.98 0-101.36-45.38-101.36-101.36v-209.46"/>
            </g>
            <path d="m2975 4461.6h1128.1v240.02h-1128.1z" fill="#c4c3c8"/>
            <path d="m3584.4 4458.9h521.7v245.47h-521.7z" fill="#ebedee"/>
            <g stroke="#9386ac" stroke-miterlimit="10" stroke-width="17.691" fill="none">
             <path d="m2976 4657.5h1129.1"/>
             <path d="m2976 4609.2h1129.1"/>
             <path d="m2976 4560.9h1129.1"/>
             <path d="m2976 4512.7h1129.1"/>
            </g>
            <path d="m1106.5 1742.4h1583.9v2029.2h-1583.9z" fill="#5e2b48"/>
            <path d="m1695.1 1742.4h1683.9v2029.2h-1683.9z" fill="#5e2b48"/>
            <g fill="#f36543">
             <path d="m1802.8 3086h1476.6v536.95h-1476.6z"/>
             <path d="m1802.8 2455.9h1476.6v536.94h-1476.6z"/>
             <path d="m1802.8 1825.9h1476.6v536.94h-1476.6z"/>
            </g>
            <g fill="#fff">
             <path d="m2799.6 3325.7h-369.15c-15.82 0-28.77 12.95-28.77 28.77s12.95 28.76 28.77 28.76h369.15c15.82 0 28.76-12.94 28.76-28.76s-12.94-28.77-28.76-28.77"/>
             <path d="m2814 2700.1h-369.15c-15.82 0-28.76 12.94-28.76 28.76s12.94 28.77 28.76 28.77h369.15c15.82 0 28.76-12.95 28.76-28.77s-12.94-28.76-28.76-28.76"/>
             <path d="m2814 2074.4h-369.15c-15.82 0-28.76 12.94-28.76 28.76 0 15.83 12.94 28.77 28.76 28.77h369.15c15.82 0 28.76-12.94 28.76-28.77 0-15.82-12.94-28.76-28.76-28.76"/>
            </g>
            <g>
             <path d="m4714.9 4803.6v-352.9h-294.84v352.94c0 15.54 12.65 28.19 28.19 28.19h238.46c15.53 0 28.19-12.65 28.19-28.19" fill="#f8a12b"/>
             <path d="m4423.6 4511.1c-3.85 2.22-94.36 55.23-102.43 148.08-3.08 35.41 10.32 57.34 22.1 69.51 32.4 33.46 86.23 31.53 92.26 31.21l-2.35-43.09c-10.94 0.51-43.12-1.71-59-18.22-8.1-8.43-11.38-20.09-10.03-35.67 6.15-70.66 80.2-113.97 80.94-114.4l-21.49-37.42" fill="#f14e30"/>
             <path d="m4642 4607.1h-84.5c-29.29 0-53.04 23.74-53.04 53.03s23.75 53.04 53.04 53.04h84.5c29.29 0 53.03-23.75 53.03-53.04s-23.74-53.03-53.03-53.03" fill="#d2322f"/>
             <path d="m4577.1 4450.7h-157.05v352.94c0 15.54 12.65 28.19 28.19 28.19h9.49c0.43-18.41 5.46-159.21 45.02-260.61 34.37-88.3 65-114.34 74.35-120.52" fill="#f14e30"/>
            </g>
            <g stroke="#9386ac" stroke-miterlimit="10" stroke-width="14.382" fill="none">
             <path d="m6886.6 4656.4h791.04"/>
             <path d="m6886.6 4610.9h791.04"/>
             <path d="m6886.6 4575.4h791.04"/>
             <path d="m6886.6 4529.8h791.04"/>
            </g>
            <g>
             <path d="m3473.2 4697.6 189.37 407.5 186.97-402.71-376.34-4.79" fill="#fff"/>
             <path d="m3322.2 4709.6h340.38v393.12h-340.4z" fill="#fff"/>
             <path d="m3147.2 4697.6 172.59 402.7 186.97-402.7h-359.56" fill="#2f3564"/>
            </g>
            <g fill="#9386ac">
             <path d="m3461.2 5035.6h170.19v16.777h-170.2z"/>
             <path d="m3475.6 5002h170.19v16.781h-170.2z"/>
             <path d="m3500.2 4948.4 79.02-186.29 173.48 4.23-84.3 180.68zm69.7-201.15-91.24 215.11 198.61-0.78 97.99-208.54-205.36-5.79"/>
            </g>
            <g stroke="#9386ac" stroke-miterlimit="10" stroke-width="14.611" fill="none">
             <path d="m3510.9 4917.5h181.82"/>
             <path d="m3526.7 4878.3h181.82"/>
             <path d="m3539.7 4839h181.82"/>
             <path d="m3561 4799.8h181.82"/>
             <path d="m3638.6 4950.8 84.5-187.87"/>
             <path d="m3588.2 4949.9 84.5-187.87"/>
             <path d="m3538.8 4953.5 83.63-195.04"/>
            </g>
            <g>
             <path d="m7690 4737.7-47.21 8.36 115.3 651.47 47.21-8.36-115.3-651.47" fill="#424fa8"/>
             <path d="m7787.7 5207.3-73.17 12.95 34.67 195.91 73.18-12.95-34.68-195.91" fill="#424fa8"/>
             <path d="m7611.3 4654.5-47.78 4 55.29 659.28 28.9 42.17 18.88-46.17-55.29-659.28" fill="#5e2b48"/>
             <path d="m7544.9 4620.8-47.06-9.16-126.43 649.4 16.32 48.45 30.74-39.29 126.43-649.4" fill="#1a2e4d"/>
             <path d="m7650.6 4469.8h-204.9l-67.18 542.44h339.27l-67.19-542.44" fill="#f14e30"/>
             <path d="m7727.9 4469.8h-204.9l-30.23 542.44h302.32l-67.19-542.44" fill="#f8a12b"/>
             <path d="m2693.3 4038v-268h-831.94c-58.1 0-107.73 37.11-126.29 88.95-4.98 14.03-7.77 29.22-7.77 45.11 0 36.88 14.96 70.39 39.2 94.74 24.35 24.24 57.87 39.2 94.86 39.2h831.94" fill="#424fa8"/>
             <path d="m2379.9 3859v-89h-518.49c-58.1 0-107.73 37.11-126.29 88.95h644.78" fill="#31427f"/>
             <path d="m3007.8 4038v-268.08l-831.93 0.01c-73.99 0-134.04 60.05-134.04 134.03 0 36.93 15.01 70.47 39.22 94.82 24.35 24.21 57.9 39.22 94.82 39.22h831.93" fill="#192645"/>
             <path d="m3007.8 3992.1v-171.87l-795.78 0.01c-47.49 0-85.94 38.44-85.94 85.93 0 23.74 9.65 45.19 25.13 60.81 15.62 15.48 37.07 25.12 60.81 25.12h795.78" fill="#ebedee"/>
             <path d="m2711.4 4570.7v-268.07l-831.93 0.01c-73.99 0-134.04 60.04-134.04 134.03 0 36.92 15.02 70.47 39.22 94.82 24.35 24.21 57.9 39.22 94.82 39.22l831.93-0.01" fill="#f8a12b"/>
             <path d="m2395.3 4481.3v88.95h-518.49c-58.1 0-107.73-37.11-126.28-88.95h644.77" fill="#fbd41f"/>
             <path d="m3007.8 4570.7v-268.07h-831.93c-73.99 0-134.04 60.05-134.04 134.04 0 36.92 15.01 70.47 39.22 94.82 24.35 24.21 57.9 39.22 94.82 39.22l831.93-0.01" fill="#f36543"/>
             <path d="m3007.8 4524.8v-171.87h-795.78c-47.49 0-85.94 38.45-85.94 85.94 0 23.74 9.65 45.18 25.13 60.81 15.62 15.47 37.07 25.12 60.81 25.12h795.78" fill="#ebedee"/>
             <path d="m2759.8 4301.1v-268.12h-831.94c-73.99 0-133.94 60.07-133.94 134.06 0 22.73 5.68 44.18 15.65 62.97 6.27 11.71 14.27 22.5 23.55 31.89 24.35 24.24 57.86 39.2 94.74 39.2h831.94" fill="#94d223"/>
             <path d="m2631.1 4301.1v-71.09h-821.51c6.27 11.71 14.27 22.5 23.55 31.89 24.35 24.24 57.86 39.2 94.74 39.2h703.22" fill="#63a130"/>
             <path d="m2631.1 4032.9v71.09h-821.51c6.27-11.72 14.27-22.5 23.55-31.89 24.35-24.24 57.86-39.2 94.74-39.2h703.22" fill="#63a130"/>
             <path d="m3171.1 4301.1v-268.07h-831.93c-73.99 0-134.04 60.05-134.04 134.04 0 36.92 15.01 70.47 39.22 94.82 24.35 24.2 57.9 39.22 94.82 39.22l831.93-0.01" fill="#468632"/>
             <path d="m3171.1 4255.2v-171.9h-795.78c-47.49 0-85.94 38.45-85.94 85.94 0 23.74 9.65 45.18 25.13 60.81 15.62 15.47 37.07 25.12 60.81 25.12h795.78" fill="#ebedee"/>
             <path d="m1893 4477.7c-111.3-151.57-334.59-176.73-334.59-176.73s-42.83 220.58 68.47 372.15 334.59 176.72 334.59 176.72 42.83-220.58-68.47-372.14" fill="#497f2f"/>
             <path d="m1425.6 4568.3c102.03-100.56 96.46-271.65 96.46-271.65s-170.99-8.05-273.02 92.51-96.47 271.65-96.47 271.65 171 8.05 273.03-92.51" fill="#386834"/>
             <path d="m1678.5 4644.4c20.73-186.9-126.54-356.61-126.54-356.61s-180.89 133.32-201.62 320.21c-20.72 186.9 126.55 356.61 126.55 356.61s180.88-133.31 201.61-320.21" fill="#59b84c"/>
             <path d="m1664.7 3771.4h-387.3l-126.99 565.09h641.29l-126.99-565.09" fill="#5e2b48"/>
             <path d="m1810.7 3771.4h-387.3l-57.15 565.09h571.44l-126.99-565.09" fill="#9d4534"/>
             <path d="m3360.1 4160.6h4877.8v209.46c0 55.98-45.38 101.36-101.36 101.36h-4675c-55.98 0-101.36-45.38-101.36-101.36v-209.46" fill="#5273c2"/>
            </g>
           </g>
          </g>
         </g>
        </g>
       </g>
      </g>
     </g>
    </g>
   </g>
  </g>
 </g>
</svg>
