<?xml version="1.0" encoding="UTF-8" standalone="no"?>
<!-- Created with Inkscape (http://www.inkscape.org/) -->

<svg
   xmlns:dc="http://purl.org/dc/elements/1.1/"
   xmlns:cc="http://creativecommons.org/ns#"
   xmlns:rdf="http://www.w3.org/1999/02/22-rdf-syntax-ns#"
   xmlns:svg="http://www.w3.org/2000/svg"
   xmlns="http://www.w3.org/2000/svg"
   xmlns:sodipodi="http://sodipodi.sourceforge.net/DTD/sodipodi-0.dtd"
   xmlns:inkscape="http://www.inkscape.org/namespaces/inkscape"
   id="svg2"
   version="1.1"
   inkscape:version="0.92.3 (unknown)"
   xml:space="preserve"
   width="400"
   height="300"
   viewBox="0 0 1000 1000"
   sodipodi:docname="getcustom.svg"><metadata
     id="metadata8"><rdf:RDF><cc:Work
         rdf:about=""><dc:format>image/svg+xml</dc:format><dc:type
           rdf:resource="http://purl.org/dc/dcmitype/StillImage" /><dc:title></dc:title></cc:Work></rdf:RDF></metadata><defs
     id="defs6" /><sodipodi:namedview
     pagecolor="#ffffff"
     bordercolor="#666666"
     borderopacity="1"
     objecttolerance="10"
     gridtolerance="10"
     guidetolerance="10"
     inkscape:pageopacity="0"
     inkscape:pageshadow="2"
     inkscape:window-width="1366"
     inkscape:window-height="744"
     id="namedview4"
     showgrid="false"
     inkscape:zoom="1.3350176"
     inkscape:cx="142.4788"
     inkscape:cy="145.77795"
     inkscape:window-x="0"
     inkscape:window-y="24"
     inkscape:window-maximized="1"
     inkscape:current-layer="g12" /><g
     id="g10"
     inkscape:groupmode="layer"
     inkscape:label="ink_ext_XXXXXX"
     transform="matrix(1.25,0,0,-1.25,0,1000)"><g
       id="g12"
       transform="matrix(0.10632163,0,0,0.10328769,3.5954574,40.748533)"><path
         d="m 3878.5212,65.255107 -0.022,0.194605 0.022,-0.194605"
         style="fill:#234e61;fill-opacity:1;fill-rule:nonzero;stroke:none;stroke-width:1.11378622"
         id="path58"
         inkscape:connector-curvature="0" /><path
         d="m 3879.9465,55.867534 h 0.033 c -0.5372,2.670197 -0.9649,5.317776 -1.3047,7.951773 0.3398,-2.647573 0.7675,-5.308729 1.2718,-7.951773"
         style="fill:#234e61;fill-opacity:1;fill-rule:nonzero;stroke:none;stroke-width:1.11378622"
         id="path60"
         inkscape:connector-curvature="0" /><path
         d="m 3889.3647,28.642768 -0.1975,0.375632 0.1975,-0.375632"
         style="fill:#234e61;fill-opacity:1;fill-rule:nonzero;stroke:none;stroke-width:1.11378622"
         id="path62"
         inkscape:connector-curvature="0" /><path
         d="m 3888.4655,30.4542 -0.7236,1.525185 0.7236,-1.525185"
         style="fill:#234e61;fill-opacity:1;fill-rule:nonzero;stroke:none;stroke-width:1.11378622"
         id="path64"
         inkscape:connector-curvature="0" /><path
         d="m 3882.5998,45.38924 c 1.3925,-4.525765 3.059,-8.928204 5.0106,-13.104366 -1.9736,4.26894 -3.6181,8.657802 -4.9667,13.104366 h -0.043"
         style="fill:#234e61;fill-opacity:1;fill-rule:nonzero;stroke:none;stroke-width:1.11378622"
         id="path66"
         inkscape:connector-curvature="0" /><path
         d="m 5188.0681,6347.9858 c 0.6579,-8.7122 -28.5066,-45.0314 -61.0698,-82.7084 -31.3572,-18.3295 -59.0962,-36.9982 -59.0962,-36.9982 -44.2949,15.2744 -134.858,-12.6722 -134.858,-12.6722 -4.0567,9.0515 -17.5424,17.3111 -32.2343,25.0049 24.3402,33.4907 65.2361,90.6285 85.5197,122.6483 29.8222,47.1811 66.0036,48.3126 69.6218,31.0015 2.412,-11.0881 -43.5273,-81.3506 -76.9677,-130.6815 29.1643,30.7752 63.5915,67.6602 83.4364,91.1942 39.5802,46.6154 79.0508,41.9765 80.5859,22.5158 0.4385,-5.7704 -12.1702,-23.5341 -30.0415,-45.7104 37.6067,40.0531 73.6784,35.0747 75.1037,16.406"
         style="fill:#f9b28a;fill-opacity:1;fill-rule:nonzero;stroke:none;stroke-width:1.11378622"
         id="path78"
         inkscape:connector-curvature="0" /><path
         d="m 4181.3485,4531.7945 c 10.964,-248.9173 -751.8055,-485.2756 -751.8055,-485.2756 0,0 -300.744,-63.4739 -421.3487,428.7035 -120.6046,492.1774 269.6062,1196.5003 269.6062,1196.5003 274.1014,-496.3638 862.5423,-252.1986 862.5423,-252.1986 0,0 0.7676,-17.1979 2.1929,-47.0679 3.7167,-78.409 11.5232,-244.2785 19.4064,-415.0131 7.4555,-160.2123 15.0207,-324.9503 19.4064,-425.6486"
         style="fill:#234e61;fill-opacity:1;fill-rule:nonzero;stroke:none;stroke-width:1.11378622"
         id="path80"
         inkscape:connector-curvature="0" /><path
         d="m 5210.5444,6265.9562 c -43.4176,-34.0565 -165.4476,-129.5502 -181.6744,-165.7563 -16.3364,-36.2061 -59.0962,-182.728 -59.0962,-182.728 l -143.6291,51.2544 c 0,0 25.6558,131.4736 11.0736,149.0109 -14.5822,17.5374 -55.807,105.2242 -45.5008,120.7249 10.1965,15.614 19.9546,176.5051 53.3949,169.1507 33.55,-7.3544 7.4556,-120.046 10.5256,-136.6783 1.7541,-9.7304 24.5594,-19.4608 45.1718,-30.3226 14.6919,-7.6938 28.1776,-15.9534 32.2343,-25.0049 0,0 90.5631,27.9466 134.858,12.6722 0,0 27.739,18.6687 59.0962,36.9982 24.6692,14.4824 51.6407,28.6254 68.964,33.4907 0,0 57.9998,1.1314 14.5821,-32.8119"
         style="fill:#fab98e;fill-opacity:1;fill-rule:nonzero;stroke:none;stroke-width:1.11378622"
         id="path82"
         inkscape:connector-curvature="0" /><path
         d="m 4993.4561,5944.8528 c 0,0 -289.4511,-839.0776 -831.514,-987.4097 -7.8942,170.7346 -15.6787,336.6041 -19.4064,415.0131 48.7901,-23.3078 175.5345,-60.8716 319.054,79.4272 183.9769,179.8994 356.3318,554.1805 356.3318,554.1805 0,0 100.4308,-47.2943 175.5346,-61.2111"
         style="fill:#234e61;fill-opacity:1;fill-rule:nonzero;stroke:none;stroke-width:1.11378622"
         id="path84"
         inkscape:connector-curvature="0" /><path
         d="m 4119.3357,5289.4761 -99.762,-385.2447 -37.3874,-144.7228 -85.5305,139.7444 -217.9655,355.8274 440.6454,34.3957"
         style="fill:#f7fcfd;fill-opacity:1;fill-rule:nonzero;stroke:none;stroke-width:1.11378622"
         id="path86"
         inkscape:connector-curvature="0" /><path
         d="m 3965.3565,5142.3208 54.1624,-238.0555 -37.3874,-144.7115 -85.5196,139.7332 32.8922,241.676 c -27.6295,22.0632 -69.7314,74.3358 -88.48,98.3224 10.3062,10.975 21.9281,23.3077 33.6597,35.7536 34.0982,35.7536 69.0735,71.8466 75.1037,74.6752 21.9282,-26.2495 58.9867,-74.3358 83.3268,-106.3556 -18.5292,-34.7353 -47.8032,-80.1062 -67.7578,-101.0378"
         style="fill:#f03b50;fill-opacity:1;fill-rule:nonzero;stroke:none;stroke-width:1.11378622"
         id="path88"
         inkscape:connector-curvature="0" /><path
         d="m 3949.7875,5349.7142 c -6.0302,-2.8286 -41.0055,-38.9216 -75.1037,-74.6752 -11.7316,-12.4459 -23.3535,-24.7786 -33.6597,-35.7536 -20.722,-21.95 -35.9621,-38.469 -35.9621,-38.469 -119.6179,11.3144 -567.7189,361.9484 -567.7189,392.0447 0,30.2095 52.0793,121.8563 52.0793,121.8563 l 0.1096,-0.113 c 3.9471,-10.7488 8.9905,-18.782 15.3497,-23.6472 93.1945,-72.186 377.3828,-344.6373 641.6166,-338.075 l 1.3157,-0.792 0.4386,-0.5657 1.5349,-1.8103"
         style="fill:#d2eeee;fill-opacity:1;fill-rule:nonzero;stroke:none;stroke-width:1.11378622"
         id="path90"
         inkscape:connector-curvature="0" /><path
         d="m 3950.3358,5350.0536 -0.5483,-0.3394 -1.9735,2.376 c 1.9735,-1.2446 2.8506,-2.0366 2.5218,-2.0366"
         style="fill:#d2eeee;fill-opacity:1;fill-rule:nonzero;stroke:none;stroke-width:1.11378622"
         id="path92"
         inkscape:connector-curvature="0" /><path
         d="m 4141.5489,5420.4293 v -26.9283 c 0,-30.2096 -19.1871,-153.3105 -84.0943,-182.0491 0,0 -9.9773,13.1248 -24.3403,31.9067 -24.3401,32.0198 -61.3986,80.1061 -83.3268,106.3556 l 0.5483,0.3394 -1.2061,1.3577 -0.6578,0.2264 -0.6579,0.4525 -0.7675,0.9051 c 66.8808,1.5841 132.4459,21.2712 193.2963,66.5288 l 1.2061,0.9052"
         style="fill:#d2eeee;fill-opacity:1;fill-rule:nonzero;stroke:none;stroke-width:1.11378622"
         id="path94"
         inkscape:connector-curvature="0" /><path
         d="m 3950.3358,5350.0536 -0.5483,-0.3394 -1.9735,2.376 c 1.9735,-1.2446 2.8506,-2.0366 2.5218,-2.0366"
         style="fill:#d2eeee;fill-opacity:1;fill-rule:nonzero;stroke:none;stroke-width:1.11378622"
         id="path96"
         inkscape:connector-curvature="0" /><path
         d="m 4140.3428,5800.4808 c 97.6898,-280.1452 42.8696,-348.4842 1.2061,-380.0515 l -1.2061,-0.9052 c -60.8504,-45.2576 -126.4155,-64.9447 -193.2963,-66.5288 l -0.5482,-0.1131 c -264.2338,-6.5623 -548.4221,265.889 -641.6166,338.075 -6.3592,4.8652 -11.4026,12.8984 -15.3497,23.6472 l -0.1096,0.113 c -69.841,188.7247 198.559,1222.863 198.559,1222.863 43.8563,110.3156 561.9079,-59.4008 633.1744,-107.4871 71.2663,-48.0862 10.964,-325.2897 41.1151,-446.9197 30.1512,-121.6301 156.2379,-260.2318 156.2379,-398.8334 0,-138.6017 -178.166,-183.8594 -178.166,-183.8594"
         style="fill:#fab98e;fill-opacity:1;fill-rule:nonzero;stroke:none;stroke-width:1.11378622"
         id="path98"
         inkscape:connector-curvature="0" /><path
         d="m 3563.798,6307.7064 h -60.3023 c 0,0 -20.1081,82.98 -69.4464,79.201 -49.3383,-3.779 -105.9786,-111.2661 -32.8922,-258.3536 73.0974,-147.0875 -99.9594,-68.4748 -99.9594,-68.4748 0,0 -157.6959,849.17 105.4414,981.1754 263.1374,132.0054 1026.9593,60.3399 928.2829,-203.6595 -98.6656,-263.9996 -319.7777,-143.3086 -462.3104,-32.0538 -142.5328,111.2547 -186.3781,165.9373 -250.3424,150.8552 0,0 -191.871,-128.2264 -58.4712,-648.6899"
         style="fill:#5b251a;fill-opacity:1;fill-rule:nonzero;stroke:none;stroke-width:1.11378622"
         id="path100"
         inkscape:connector-curvature="0" /><path
         d="m 3651.1047,6076.2925 c 0,0 -46.97,-416.3707 162.6299,-431.8262 127.9176,-9.4363 149.8458,107.4869 149.8458,107.4869 0,0 -257.6554,-105.6088 -312.4757,324.3393"
         style="fill:#ffffff;fill-opacity:1;fill-rule:nonzero;stroke:none;stroke-width:1.11378622"
         id="path102"
         inkscape:connector-curvature="0" /><path
         d="m 3839.8181,6354.8423 c 0,-31.2391 -15.547,-56.5721 -34.7232,-56.5721 -19.1762,0 -34.7232,25.333 -34.7232,56.5721 0,31.2504 15.547,56.5721 34.7232,56.5721 19.1762,0 34.7232,-25.3217 34.7232,-56.5721"
         style="fill:#5b251a;fill-opacity:1;fill-rule:nonzero;stroke:none;stroke-width:1.11378622"
         id="path104"
         inkscape:connector-curvature="0" /><path
         d="m 3683.5144,6411.4144 c 0,0 -0.7674,4.5597 -0.4165,12.5477 0.043,4.0392 0.5482,8.8365 1.2937,14.4032 1.0964,5.4084 1.8529,11.835 4.0458,18.3746 0.9867,3.3152 2.0612,6.7888 3.2892,10.3414 1.4691,3.4623 2.9822,7.0377 4.55,10.7148 3.2234,7.3431 7.6968,14.6296 12.5429,22.0179 5.3504,6.9923 10.7338,14.5504 17.8276,20.6827 3.4865,3.0889 6.5784,6.8 10.5254,9.3911 l 11.6877,8.1124 c 7.8503,5.3404 16.8299,8.565 25.1736,12.4685 8.7383,2.7946 17.5534,4.8426 25.9518,6.7207 8.563,0.7921 16.8298,1.2786 24.5705,1.5841 7.7407,-0.09 14.9878,-1.4143 21.5882,-2.2064 3.2783,-0.5204 6.425,-1.0182 9.4181,-1.4822 2.9494,-0.6335 5.6904,-1.7084 8.2779,-2.4665 5.164,-1.5501 9.5826,-3.2585 13.1897,-4.5823 7.2144,-2.6928 11.1505,-4.6163 11.1505,-4.6163 0,0 -4.4514,-0.9957 -11.9289,-2.0932 -3.7387,-0.5091 -8.234,-1.2332 -13.2994,-1.6632 -5.0763,-0.2602 -10.7338,-1.4935 -16.786,-2.772 -6.0302,-1.2898 -12.5758,-1.9574 -19.2309,-3.5528 -6.6113,-1.946 -13.4858,-3.8356 -20.5576,-5.5214 -6.71,-2.591 -13.6503,-5.2838 -20.7001,-7.9993 -3.3002,-1.7877 -6.5785,-3.6319 -9.9554,-5.2725 -3.377,-1.6746 -6.8416,-3.1907 -9.8239,-5.578 -6.3262,-4.1185 -12.7183,-8.1464 -18.288,-13.2266 -6.085,-4.4579 -11.0407,-10.0811 -16.4022,-15.0821 -4.8242,-5.4875 -9.8347,-10.7261 -13.9572,-16.2701 -4.287,-5.4536 -8.2779,-10.7714 -11.6549,-15.9986 -3.7167,-5.0463 -6.4906,-10.1038 -9.44,-14.4372 -2.3901,-4.5485 -5.0982,-8.4066 -6.7977,-11.7897 -3.7936,-6.6642 -5.8439,-10.7487 -5.8439,-10.7487"
         style="fill:#5b251a;fill-opacity:1;fill-rule:nonzero;stroke:none;stroke-width:1.11378622"
         id="path106"
         inkscape:connector-curvature="0" /><path
         d="m 7705.306,5676.5878 -126.4156,-416.9364 -91.1113,124.798 -600.94,-433.5687 L 6176.6971,3150.3034 4552.1528,3309.7236 2695.1706,1052.6094 1802.3673,1225.0412 -215.23475,-294.48586 h -186.06333 v 140.18797 l 2150.81878,1619.77049 860.788,-166.2089 1848.7592,2246.9313 1575.9736,-154.6681 673.0835,1706.5545 647.5372,467.1726 -81.2437,111.3338 h 430.8875"
         style="fill:#435dc2;fill-opacity:0.67727272;fill-rule:nonzero;stroke:none;stroke-width:1.11378622"
         id="path108"
         inkscape:connector-curvature="0" /><path
         d="m 1834.8758,755.27653 c 0,0 78.6123,76.80457 104.1915,234.91117 0,0 -237.6679,-117.3758 -509.4888,-117.3758 -29.3618,0 -59.1401,1.36904 -89.0501,4.4013 l 461.8389,347.828 762.9669,-147.359 C 2402.507,916.14614 2169.1699,789.49361 1834.8758,755.27653 m -692.15,253.21787 c 9.155,367.2435 280.8663,685.3372 280.8663,685.3372 -20.6892,2.3761 -40.2819,3.3943 -58.6906,3.3943 -119.0257,0 -188.7134,-42.859 -188.7134,-42.859 254.9034,668.3995 761.5087,798.2552 1116.7221,798.2552 225.7171,0 390.2986,-52.4423 390.2986,-52.4423 l 36.7515,-50.2022 92.1309,-125.7485 128.8606,-175.8147 c 0,0 4.3198,-190.1616 -64.063,-425.1621 l -266.5801,-323.9886 -860.788,166.2089 -606.7949,-456.9782"
         style="fill:#69ccb9;fill-opacity:1;fill-rule:nonzero;stroke:none;stroke-width:1.11378622"
         id="path110"
         inkscape:connector-curvature="0" /><path
         d="m 1340.5284,877.2132 c -65.2471,6.63026 -131.163,21.18061 -195.0944,46.7512 -2.5765,28.37658 -3.3989,56.60604 -2.7082,84.53 l 606.7949,456.9782 860.788,-166.2089 266.5801,323.9886 c -51.553,-177.1387 -144.3857,-379.7346 -311.5546,-545.5701 l -762.9669,147.359 -461.8389,-347.828"
         style="fill:#435dc2;fill-opacity:0.15454544;fill-rule:nonzero;stroke:none;stroke-width:1.11378622"
         id="path112"
         inkscape:connector-curvature="0" /><path
         d="m 5545.7266,4539.4318 c 0,0 554.9239,358.8255 560.1208,327.7788 5.1969,-31.0921 -450.7105,-475.9413 -450.7105,-475.9413 l -109.4103,148.1625"
         style="fill:#f03b50;fill-opacity:1;fill-rule:nonzero;stroke:none;stroke-width:1.11378622"
         id="path114"
         inkscape:connector-curvature="0" /><path
         d="m 3296.6587,1783.5211 -786.3421,1043.3369 96.6371,77.5943 786.3641,-1043.3369 -96.6591,-77.5943"
         style="fill:#f03b50;fill-opacity:1;fill-rule:nonzero;stroke:none;stroke-width:1.11378622"
         id="path116"
         inkscape:connector-curvature="0" /><path
         d="m 3048.2241,1907.3461 -485.927,644.7411 96.6372,77.5604 485.938,-644.7072 -96.6482,-77.5943"
         style="fill:#f03b50;fill-opacity:1;fill-rule:nonzero;stroke:none;stroke-width:1.11378622"
         id="path118"
         inkscape:connector-curvature="0" /><path
         d="m 3119.5891,3828.603 c -289.7799,-248.4647 -524.7397,-522.4887 -692.0512,-792.8015 l -665.7375,-321.6692 636.0249,1034.0252 c 31.2475,50.8017 103.8297,91.0812 162.0488,90.0628 l 559.715,-9.6173"
         style="fill:#f03b50;fill-opacity:1;fill-rule:nonzero;stroke:none;stroke-width:1.11378622"
         id="path120"
         inkscape:connector-curvature="0" /><path
         d="m 4397.5597,2127.819 -128.6084,-561.9875 c -13.3762,-58.6086 -69.0737,-121.1775 -124.4421,-139.9594 l -1127.6532,-381.6353 466.1916,586.9921 2.5218,1.4709 h 0.1096 c 294.056,100.5852 608.1762,267.473 911.8807,495.1192"
         style="fill:#f03b50;fill-opacity:1;fill-rule:nonzero;stroke:none;stroke-width:1.11378622"
         id="path122"
         inkscape:connector-curvature="0" /><path
         d="m 5729.6926,4035.3176 c -74.3363,-537.4351 -570.3503,-1299.1221 -1226.878,-1825.9217 -34.8657,-28.0597 -70.0604,-55.2144 -105.2549,-81.5769 -303.7045,-227.6462 -617.8247,-394.534 -911.8807,-495.1192 h -0.1096 l -2.8506,-1.0183 -533.4014,707.4796 -523.2048,694.3774 1.4253,2.263 c 167.3115,270.3128 402.2713,544.3368 692.0512,792.8015 32.6729,28.0598 66.1133,55.7801 100.2115,83.1611 656.4181,526.9127 1501.3084,825.6135 2022.6492,769.9466 176.7406,-18.7821 316.4228,-78.5221 398.7628,-183.6332 1.535,-1.8103 2.8507,-3.6206 4.276,-5.4309 85.4099,-113.2574 109.8598,-271.9987 84.204,-457.329"
         style="fill:#e4d4cf;fill-opacity:1;fill-rule:nonzero;stroke:none;stroke-width:1.11378622"
         id="path124"
         inkscape:connector-curvature="0" /><path
         d="m 4931.7613,3223.372 c -235.4092,-188.917 -574.6481,-145.1755 -757.7478,97.7566 -183.0779,242.898 -140.6579,592.9889 94.7184,781.9284 235.3874,188.917 574.6372,145.1755 757.7261,-97.7226 183.0887,-242.9207 140.6907,-593.0116 -94.6967,-781.9624"
         style="fill:#ef334a;fill-opacity:1;fill-rule:nonzero;stroke:none;stroke-width:1.11378622"
         id="path126"
         inkscape:connector-curvature="0" /><path
         d="m 4878.7173,3293.7251 c -197.7258,-158.7414 -482.7256,-121.9583 -636.5293,82.0973 -153.8148,204.0557 -118.2035,498.1628 79.5661,656.8929 197.7588,158.7187 482.7584,121.9469 636.5513,-82.1201 153.8147,-204.033 118.1815,-498.1628 -79.5881,-656.8701"
         style="fill:#d0f0f7;fill-opacity:1;fill-rule:nonzero;stroke:none;stroke-width:1.11378622"
         id="path128"
         inkscape:connector-curvature="0" /><path
         d="m 5729.7254,4035.3063 -487.2865,646.4609 c 179.8325,-19.1666 321.192,-80.5587 403.0716,-189.1771 85.3332,-113.2348 109.827,-271.8743 84.2149,-457.2838"
         style="fill:#f03b50;fill-opacity:1;fill-rule:nonzero;stroke:none;stroke-width:1.11378622"
         id="path130"
         inkscape:connector-curvature="0" /><path
         d="m 2850.5532,2163.3349 -44.6676,60.9509 -31.9383,43.5944 -12.7403,17.4016 c 0,0 -377.9091,120.3968 -522.4263,-258.5459 0,0 32.2014,19.8115 85.7718,13.6792 0,0 -109.0705,-127.6833 -96.4399,-266.8846 126.3499,-50.519 275.1211,22.9682 275.1211,22.9682 -8.8699,-54.8184 -36.1156,-81.4412 -36.1156,-81.4412 392.6887,40.1888 383.4351,448.2774 383.4351,448.2774"
         style="fill:#fbc652;fill-opacity:1;fill-rule:nonzero;stroke:none;stroke-width:1.11378622"
         id="path132"
         inkscape:connector-curvature="0" /><path
         d="m 2836.2341,2182.9089 -30.0087,41.0826 -30.0414,41.1167 c -230.0479,-24.2694 -368.9844,-351.6297 -368.9844,-351.6297 0,0 343.1969,47.86 429.0345,269.4304"
         style="fill:#fde0a3;fill-opacity:1;fill-rule:nonzero;stroke:none;stroke-width:1.11378622"
         id="path134"
         inkscape:connector-curvature="0" /><path
         d="m 2950.3042,2347.1603 -517.5035,686.6724 c 185.8407,299.8209 455.2605,604.5297 790.333,873.5074 603.0012,484.0877 1366.0886,775.3775 1888.5369,775.3775 0.088,0 0.1863,0 0.285,0 45.2158,0 88.6225,-2.1837 129.957,-6.5963 1.7433,-0.181 3.4757,-0.3734 5.2079,-0.5657 l 228.5019,-303.1474 -452.4098,-362.8196 c -106.4172,138.4546 -264.0474,210.8669 -423.3442,210.8669 -115.8572,0 -232.6135,-38.3219 -331.1365,-117.3985 -233.8852,-187.7402 -277.2481,-534.5838 -98.183,-777.2895 L 2950.3042,2347.1603"
         style="fill:#f1e8e4;fill-opacity:1;fill-rule:nonzero;stroke:none;stroke-width:1.11378622"
         id="path136"
         inkscape:connector-curvature="0" /><path
         d="m 4170.5489,3325.7675 c -179.0651,242.7057 -135.7022,589.5493 98.183,777.2895 98.523,79.0766 215.2793,117.3985 331.1365,117.3985 159.2968,0 316.927,-72.4123 423.3442,-210.8669 l -68.1855,-54.6826 c -89.39,115.8371 -221.5617,176.4371 -355.1039,176.4371 -97.328,0 -195.3904,-32.1895 -278.1691,-98.6278 -196.2676,-157.5308 -232.8217,-448.4019 -83.0089,-652.2539 l -68.1963,-54.6939"
         style="fill:#f25377;fill-opacity:1;fill-rule:nonzero;stroke:none;stroke-width:1.11378622"
         id="path138"
         inkscape:connector-curvature="0" /><path
         d="m 4238.7452,3380.4614 c -149.8128,203.852 -113.2587,494.7231 83.0089,652.2539 82.7787,66.4383 180.8411,98.6278 278.1691,98.6278 133.5422,0 265.7139,-60.6 355.1039,-176.4371 l -716.2819,-574.4446"
         style="fill:#e7f7fc;fill-opacity:1;fill-rule:nonzero;stroke:none;stroke-width:1.11378622"
         id="path140"
         inkscape:connector-curvature="0" /><path
         d="m 5475.6224,4372.4082 -228.5019,303.1474 c 170.9296,-19.0536 305.678,-76.8702 386.3076,-176.5956 l -157.8057,-126.5518"
         style="fill:#f3647e;fill-opacity:1;fill-rule:nonzero;stroke:none;stroke-width:1.11378622"
         id="path142"
         inkscape:connector-curvature="0" /><path
         d="m 2550.5546,2859.1606 -130.4284,173.0542 7.4117,3.5867 c 167.3115,270.3128 402.2713,544.3368 692.0512,792.8015 l -8.4751,0.1472 c 34.3284,29.5533 69.4243,58.7331 105.2878,87.517 55.1053,44.2168 111.5592,86.8608 168.9999,127.7851 3.3002,-0.1244 6.4469,-0.1923 9.4291,-0.2036 -59.5239,-42.2367 -118.0171,-86.3177 -175.0302,-132.0846 -34.0982,-27.381 -67.5386,-55.1013 -100.2115,-83.1611 -289.7799,-248.4647 -524.7397,-522.4887 -692.0512,-792.8015 l -1.4253,-2.263 128.7618,-170.893 -4.3198,-3.4849 m 1618.8101,1611.9773 c 1.0525,2.4439 2.0393,4.8878 2.9493,7.343 340.0393,139.258 670.9126,215.4945 939.6416,215.5511 45.5557,0 89.3352,-2.195 131.0863,-6.6528 139.4628,-14.8559 256.4931,-55.0787 340.8396,-123.4065 -1.6885,-1.0862 -3.333,-2.1384 -4.9337,-3.168 -83.1844,66.6985 -198.5153,106.2537 -336.5089,120.9625 l 0.043,-0.057 c 0,0 -0.022,0 -0.033,0 -41.5537,4.4351 -85.103,6.6189 -130.5161,6.6189 -269.0799,0 -601.2799,-76.8363 -942.569,-217.1917"
         style="fill:#81d19c;fill-opacity:1;fill-rule:nonzero;stroke:none;stroke-width:1.11378622"
         id="path144"
         inkscape:connector-curvature="0" /><path
         d="m 3394.8308,4043.8487 c -2.9822,0.011 -6.1289,0.079 -9.4291,0.2036 251.1866,178.9942 521.8124,325.8442 786.9123,434.4286 -0.91,-2.4552 -1.8968,-4.8991 -2.9493,-7.343 -260.8897,-107.2947 -527.086,-251.6893 -774.5339,-427.2892"
         style="fill:#5e7651;fill-opacity:1;fill-rule:nonzero;stroke:none;stroke-width:1.11378622"
         id="path146"
         inkscape:connector-curvature="0" /><path
         d="m 5641.2784,4498.0888 c -18.0907,23.0814 -38.9443,43.9792 -62.3306,62.7159 1.6007,1.0296 3.2452,2.0818 4.9337,3.168 23.0574,-18.6688 43.6479,-39.4308 61.618,-62.3537 l -4.2211,-3.5302"
         style="fill:#f25b43;fill-opacity:1;fill-rule:nonzero;stroke:none;stroke-width:1.11378622"
         id="path148"
         inkscape:connector-curvature="0" /><path
         d="m 2948.3745,2331.2862 -397.8199,527.8744 4.3198,3.4849 394.443,-523.4844 3.344,-4.4353 -4.2869,-3.4396"
         style="fill:#f25b43;fill-opacity:1;fill-rule:nonzero;stroke:none;stroke-width:1.11378622"
         id="path150"
         inkscape:connector-curvature="0" /><path
         d="m 2420.1262,3032.2148 -0.7236,0.973 2.0722,3.3717 c 166.84,270.03 401.0213,543.7938 689.6392,792.1907 l 8.4751,-0.1472 c -289.7799,-248.4647 -524.7397,-522.4887 -692.0512,-792.8015 l -7.4117,-3.5867"
         style="fill:#f25b43;fill-opacity:1;fill-rule:nonzero;stroke:none;stroke-width:1.11378622"
         id="path152"
         inkscape:connector-curvature="0" /><path
         d="m 2952.6614,2334.7258 -3.344,4.4353 -394.443,523.4844 -128.7618,170.893 1.4253,2.263 c 167.3115,270.3128 402.2713,544.3368 692.0512,792.8015 32.6729,28.0598 66.1133,55.7801 100.2115,83.1611 57.0131,45.7669 115.5063,89.8479 175.0302,132.0846 247.4479,175.5999 513.6442,319.9945 774.5339,427.2892 341.2891,140.3554 673.4891,217.1917 942.569,217.1917 45.4131,0 88.9624,-2.1838 130.5161,-6.6189 0.011,0 0.033,0 0.033,0 l 4.6378,-6.1551 c -1.7322,0.1923 -3.4646,0.3847 -5.2079,0.5657 -41.3345,4.4126 -84.7412,6.5963 -129.957,6.5963 -0.099,0 -0.1973,0 -0.285,0 -522.4483,0 -1285.5357,-291.2898 -1888.5369,-775.3775 -335.0725,-268.9777 -604.4923,-573.6865 -790.333,-873.5074 l 517.5035,-686.6724 1220.2447,978.6072 c 1.1402,-1.5501 2.3024,-3.1002 3.4646,-4.6389 1.0854,-1.4369 2.1709,-2.8739 3.2673,-4.2882 L 2952.6614,2334.7258 m 2077.2831,1665.9357 c -1.1512,1.5614 -2.3135,3.1228 -3.4865,4.6729 -1.0746,1.4256 -2.16,2.8512 -3.2454,4.2542 l 452.4098,362.8196 6.7319,-8.9271 -452.4098,-362.8196"
         style="fill:#f1dfc5;fill-opacity:1;fill-rule:nonzero;stroke:none;stroke-width:1.11378622"
         id="path154"
         inkscape:connector-curvature="0" /><path
         d="m 5644.6882,4493.6649 c -0.055,0.079 -0.1096,0.1471 -0.1644,0.215 -1.0745,1.4143 -2.1491,2.8173 -3.2454,4.2089 l 4.2211,3.5302 3.5085,-4.4806 -4.3198,-3.4735"
         style="fill:#f25b43;fill-opacity:1;fill-rule:nonzero;stroke:none;stroke-width:1.11378622"
         id="path156"
         inkscape:connector-curvature="0" /><path
         d="m 5644.6882,4493.6649 c -0.055,0.079 -0.1096,0.1357 -0.1644,0.215 0.055,-0.068 0.1096,-0.1358 0.1644,-0.215 v 0"
         style="fill:#f1dfc5;fill-opacity:1;fill-rule:nonzero;stroke:none;stroke-width:1.11378622"
         id="path158"
         inkscape:connector-curvature="0" /><path
         d="m 4177.2808,3316.8404 c -1.0964,1.4143 -2.1819,2.8513 -3.2673,4.2882 -1.1622,1.5387 -2.3244,3.0888 -3.4646,4.6389 l 68.1963,54.6939 c 1.1403,-1.5614 2.2806,-3.1001 3.4428,-4.639 1.0964,-1.4481 2.1818,-2.8738 3.2782,-4.2994 l -68.1854,-54.6826 m 784.4782,629.1272 c -1.1512,1.55 -2.2914,3.0889 -3.4536,4.6276 -1.0855,1.4483 -2.1819,2.8738 -3.2783,4.3108 l 68.1855,54.6826 c 1.0854,-1.403 2.1708,-2.8286 3.2454,-4.2542 1.173,-1.5501 2.3353,-3.1115 3.4865,-4.6729 l -68.1855,-54.6939"
         style="fill:#f14d3f;fill-opacity:1;fill-rule:nonzero;stroke:none;stroke-width:1.11378622"
         id="path160"
         inkscape:connector-curvature="0" /><path
         d="m 4245.4662,3371.523 c -1.0964,1.4256 -2.1818,2.8513 -3.2782,4.2994 -1.1622,1.5389 -2.3025,3.0776 -3.4428,4.639 l 716.2819,574.4446 c 1.0964,-1.437 2.1928,-2.8625 3.2783,-4.3108 1.1622,-1.5387 2.3024,-3.0776 3.4536,-4.6276 L 4245.4662,3371.523"
         style="fill:#e9f5fc;fill-opacity:1;fill-rule:nonzero;stroke:none;stroke-width:1.11378622"
         id="path162"
         inkscape:connector-curvature="0" /><path
         d="m 5482.3543,4363.4811 -6.7319,8.9271 157.8057,126.5518 c -80.6296,99.7254 -215.378,157.542 -386.3076,176.5956 l -4.6378,6.1551 -0.043,0.057 c 137.9936,-14.7088 253.3245,-54.264 336.5089,-120.9625 23.3863,-18.7367 44.2399,-39.6345 62.3306,-62.7159 l -0.043,-0.022 0.043,0.022 c 1.0963,-1.3916 2.1709,-2.7946 3.2454,-4.2089 0.055,-0.079 0.1096,-0.1358 0.1644,-0.215 l -162.3339,-130.1838"
         style="fill:#f25b43;fill-opacity:1;fill-rule:nonzero;stroke:none;stroke-width:1.11378622"
         id="path164"
         inkscape:connector-curvature="0" /><path
         d="m 3382.0029,4043.86 c 0,0 449.647,-14.1204 457.8152,-70.6925 8.1572,-56.5721 -158.5293,-469.7975 -158.5293,-469.7975 l 86.2432,-33.6944 c 0,0 289.7142,446.8632 196.0484,574.1844 -93.6769,127.3099 -437.9154,216.6486 -460.9729,209.4413 -56.2347,-17.5826 -120.6046,-209.4413 -120.6046,-209.4413"
         style="fill:#234e61;fill-opacity:1;fill-rule:nonzero;stroke:none;stroke-width:1.11378622"
         id="path166"
         inkscape:connector-curvature="0" /><path
         d="m 3837.9432,3455.7363 c 67.4509,-52.9063 104.3121,-119.9782 82.3182,-149.837 -21.983,-29.8474 -94.4773,-11.156 -161.9173,41.7276 -67.4509,52.9063 -104.312,119.9895 -82.3181,149.8483 21.9829,29.8361 94.4773,11.156 161.9172,-41.7389"
         style="fill:#0c0c0d;fill-opacity:1;fill-rule:nonzero;stroke:none;stroke-width:1.11378622"
         id="path168"
         inkscape:connector-curvature="0" /><path
         d="m 2899.5406,3679.7052 c -23.0246,-1.6971 -14.363,111.6734 -38.4839,126.269 -24.2306,14.5956 -20.0643,-188.6114 -20.0643,-188.6114 0,0 -28.7258,-15.8402 -102.2945,43.6737 -53.395,42.9948 -6.9075,199.9146 22.8052,283.3132 l 151.1943,-14.1431 c 9.9773,-93.6834 4.9339,-249.1436 -13.1568,-250.5014"
         style="fill:#fab98e;fill-opacity:1;fill-rule:nonzero;stroke:none;stroke-width:1.11378622"
         id="path170"
         inkscape:connector-curvature="0" /><path
         d="m 3277.8005,5021.5959 c -244.937,-399.7386 -359.95,-1091.8418 -359.95,-1091.8418 l -5.1531,0.4525 -151.1943,14.1431 -6.3592,0.5656 c -24.998,800.3823 454.7891,1587.64 454.7891,1587.64 l 67.8675,-510.9594"
         style="fill:#234e61;fill-opacity:1;fill-rule:nonzero;stroke:none;stroke-width:1.11378622"
         id="path172"
         inkscape:connector-curvature="0" /><path
         d="m 3028.8178,4408.5465 194.283,515.1683 c 0,0 -200.0721,-597.311 -114.7497,-698.4959 0,0 -48.9766,84.1001 -79.5333,183.3276"
         style="fill:#193b48;fill-opacity:1;fill-rule:nonzero;stroke:none;stroke-width:1.11378622"
         id="path174"
         inkscape:connector-curvature="0" /><path
         d="m 5151.3385,6552.0753 c 34.6245,39.1932 55.9058,91.149 55.9058,148.366 0,121.8451 -95.7162,220.6201 -213.7882,220.6201 -118.0719,0 -213.7881,-98.775 -213.7881,-220.6201 0,-57.217 21.2812,-109.1728 55.9057,-148.366 h -0.3399 c 0,0 77.2417,-82.6179 77.5378,-181.6191 0,0 154.4617,-40.7885 159.2639,0 14.9221,126.5405 80.3447,179.7862 79.643,181.6191 h -0.34"
         style="fill:#fbc652;fill-opacity:1;fill-rule:nonzero;stroke:none;stroke-width:1.11378622"
         id="path176"
         inkscape:connector-curvature="0" /><path
         d="m 5086.3874,6353.0433 h -192.7262 c 0,9.6172 6.9075,17.4129 15.4593,17.4129 h 161.8186 c 8.552,0 15.4483,-7.7957 15.4483,-17.4129"
         style="fill:#e4d4cf;fill-opacity:1;fill-rule:nonzero;stroke:none;stroke-width:1.11378622"
         id="path178"
         inkscape:connector-curvature="0" /><path
         d="m 5086.4094,6318.127 c 0,-9.6286 -6.9402,-17.4355 -15.5142,-17.4355 h -161.7308 c -8.5629,0 -15.5032,7.8069 -15.5032,17.4355 0,9.6398 6.9403,17.4468 15.5032,17.4468 h 161.7308 c 8.574,0 15.5142,-7.807 15.5142,-17.4468"
         style="fill:#e4d4cf;fill-opacity:1;fill-rule:nonzero;stroke:none;stroke-width:1.11378622"
         id="path180"
         inkscape:connector-curvature="0" /><path
         d="m 5086.4094,6283.2447 c 0,-9.6286 -6.9402,-17.4356 -15.5142,-17.4356 h -161.7308 c -8.5629,0 -15.5032,7.807 -15.5032,17.4356 0,9.6398 6.9403,17.4468 15.5032,17.4468 h 161.7308 c 8.574,0 15.5142,-7.807 15.5142,-17.4468"
         style="fill:#e4d4cf;fill-opacity:1;fill-rule:nonzero;stroke:none;stroke-width:1.11378622"
         id="path182"
         inkscape:connector-curvature="0" /><path
         d="m 5086.4094,6248.3623 c 0,-9.6287 -6.9402,-17.4469 -15.5142,-17.4469 h -161.7308 c -8.5629,0 -15.5032,7.8182 -15.5032,17.4469 0,9.6286 6.9403,17.4468 15.5032,17.4468 h 161.7308 c 8.574,0 15.5142,-7.8182 15.5142,-17.4468"
         style="fill:#e4d4cf;fill-opacity:1;fill-rule:nonzero;stroke:none;stroke-width:1.11378622"
         id="path184"
         inkscape:connector-curvature="0" /><path
         d="m 5086.3874,6353.0433 c 0,-9.6173 -6.8963,-17.4242 -15.4483,-17.4242 h -161.8186 c -8.5518,0 -15.4593,7.8069 -15.4593,17.4242 h 192.7262"
         style="fill:#494844;fill-opacity:1;fill-rule:nonzero;stroke:none;stroke-width:1.11378622"
         id="path186"
         inkscape:connector-curvature="0" /><path
         d="m 5086.3874,6318.127 c 0,-9.6173 -6.8963,-17.4242 -15.4483,-17.4242 h -161.8186 c -8.5518,0 -15.4593,7.8069 -15.4593,17.4242 h 192.7262"
         style="fill:#494844;fill-opacity:1;fill-rule:nonzero;stroke:none;stroke-width:1.11378622"
         id="path188"
         inkscape:connector-curvature="0" /><path
         d="m 5086.3874,6283.222 c 0,-9.6173 -6.8963,-17.4243 -15.4483,-17.4243 h -161.8186 c -8.5518,0 -15.4593,7.807 -15.4593,17.4243 h 192.7262"
         style="fill:#494844;fill-opacity:1;fill-rule:nonzero;stroke:none;stroke-width:1.11378622"
         id="path190"
         inkscape:connector-curvature="0" /><path
         d="m 5086.3874,6248.317 c 0,-9.6173 -6.8963,-17.4242 -15.4483,-17.4242 h -161.8186 c -8.5518,0 -15.4593,7.8069 -15.4593,17.4242 h 192.7262"
         style="fill:#494844;fill-opacity:1;fill-rule:nonzero;stroke:none;stroke-width:1.11378622"
         id="path192"
         inkscape:connector-curvature="0" /><path
         d="m 4990.0243,6973.1303 c -10.9092,0 -19.7462,9.1307 -19.7462,20.3886 v 115.7353 c 0,11.2578 8.837,20.3885 19.7462,20.3885 10.9203,0 19.7573,-9.1307 19.7573,-20.3885 v -115.7353 c 0,-11.2579 -8.837,-20.3886 -19.7573,-20.3886"
         style="fill:#82d4c5;fill-opacity:1;fill-rule:nonzero;stroke:none;stroke-width:1.11378622"
         id="path194"
         inkscape:connector-curvature="0" /><path
         d="m 5100.3886,6949.6528 c -2.6095,0 -5.2628,0.5431 -7.8065,1.6745 -10.0102,4.4467 -14.6369,16.44 -10.3281,26.7814 l 44.3277,106.3103 c 3.2234,7.7164 10.5145,12.3327 18.1674,12.3327 2.5985,0 5.2518,-0.5432 7.7955,-1.6632 10.0211,-4.4579 14.648,-16.4512 10.339,-26.7926 l -44.3495,-106.3103 c -3.2125,-7.7164 -10.4927,-12.3328 -18.1455,-12.3328"
         style="fill:#82d4c5;fill-opacity:1;fill-rule:nonzero;stroke:none;stroke-width:1.11378622"
         id="path196"
         inkscape:connector-curvature="0" /><path
         d="m 5192.7827,6883.0788 c -5.2409,0 -10.4598,2.1384 -14.3519,6.3814 -7.4995,8.169 -7.1486,21.0674 0.7674,28.8065 l 81.4519,79.563 c 3.8265,3.7337 8.7055,5.578 13.5846,5.578 5.2298,0 10.4596,-2.1271 14.3409,-6.37 7.5104,-8.1691 7.1486,-21.0788 -0.7565,-28.8178 l -81.463,-79.5631 c -3.8154,-3.7225 -8.6945,-5.578 -13.5734,-5.578"
         style="fill:#82d4c5;fill-opacity:1;fill-rule:nonzero;stroke:none;stroke-width:1.11378622"
         id="path198"
         inkscape:connector-curvature="0" /><path
         d="m 5252.1311,6784.2246 c -8.0476,0 -15.6128,5.1255 -18.5512,13.3851 -3.7497,10.5563 1.513,22.2667 11.7425,26.1475 l 105.3098,39.8382 c 2.2476,0.8485 4.5391,1.2559 6.7977,1.2559 8.0476,0 15.6128,-5.1142 18.5512,-13.3624 3.7497,-10.579 -1.5131,-22.2894 -11.7535,-26.1702 l -105.3097,-39.8381 c -2.2368,-0.8487 -4.5392,-1.256 -6.7868,-1.256"
         style="fill:#82d4c5;fill-opacity:1;fill-rule:nonzero;stroke:none;stroke-width:1.11378622"
         id="path200"
         inkscape:connector-curvature="0" /><path
         d="m 4889.1441,6952.4248 c -7.653,0 -14.9331,4.6164 -18.1566,12.3215 l -44.3495,106.3104 c -4.2979,10.3413 0.318,22.3345 10.3501,26.7925 2.5437,1.1314 5.1859,1.6632 7.7844,1.6632 7.653,0 14.9441,-4.6163 18.1674,-12.3328 l 44.3388,-106.3103 c 4.2978,-10.3414 -0.329,-22.3233 -10.3392,-26.7812 -2.5437,-1.1314 -5.197,-1.6633 -7.7954,-1.6633"
         style="fill:#82d4c5;fill-opacity:1;fill-rule:nonzero;stroke:none;stroke-width:1.11378622"
         id="path202"
         inkscape:connector-curvature="0" /><path
         d="m 4796.739,6885.8509 c -4.8681,0 -9.747,1.8442 -13.5735,5.5667 l -81.4519,79.5629 c -7.9161,7.7505 -8.267,20.6489 -0.7675,28.8292 3.8812,4.2316 9.1111,6.37 14.3409,6.37 4.879,0 9.769,-1.8556 13.5845,-5.5893 l 81.452,-79.5631 c 7.927,-7.7277 8.2668,-20.6375 0.7675,-28.8065 -3.8813,-4.2428 -9.1112,-6.3699 -14.352,-6.3699"
         style="fill:#82d4c5;fill-opacity:1;fill-rule:nonzero;stroke:none;stroke-width:1.11378622"
         id="path204"
         inkscape:connector-curvature="0" /><path
         d="m 4737.3906,6786.9854 c -2.2476,0 -4.5501,0.4073 -6.7868,1.2559 l -105.3097,39.8381 c -10.2405,3.8809 -15.5033,15.6025 -11.7426,26.1703 2.9274,8.2481 10.4927,13.3623 18.5403,13.3623 2.2585,0 4.5611,-0.3961 6.7977,-1.2446 l 105.3097,-39.8494 c 10.2295,-3.8809 15.5032,-15.5799 11.7426,-26.1477 -2.9384,-8.2594 -10.5036,-13.3849 -18.5512,-13.3849"
         style="fill:#82d4c5;fill-opacity:1;fill-rule:nonzero;stroke:none;stroke-width:1.11378622"
         id="path206"
         inkscape:connector-curvature="0" /><path
         d="m 5052.4756,6864.8513 c -42.2116,0 -79.1495,-24.0545 -100.1018,-60.1249 18.2442,12.4572 39.7666,19.7777 62.9118,19.7777 65.3567,0 118.3241,-57.4774 118.3241,-128.3961 0,-25.1181 -6.7429,-48.4824 -18.2333,-68.26 33.254,22.7193 55.4233,62.8063 55.4233,108.6072 0,70.9187 -52.9783,128.3961 -118.3241,128.3961"
         style="fill:#fccf79;fill-opacity:1;fill-rule:nonzero;stroke:none;stroke-width:1.11378622"
         id="path208"
         inkscape:connector-curvature="0" /><path
         d="m 5112.9863,6921.0614 c 0,0 -10.8325,-73.5438 -59.4691,-83.444 0,0 55.4014,-31.6125 59.2608,-83.4439 0.1315,-1.8555 0.2083,-3.7337 0.2083,-5.6458 0,0 5.6135,69.2895 54.9518,86.2611 0,0 -51.3885,26.8718 -54.9518,86.2726"
         style="fill:#fde7b5;fill-opacity:1;fill-rule:nonzero;stroke:none;stroke-width:1.11378622"
         id="path210"
         inkscape:connector-curvature="0" /><path
         d="m 5109.2256,6805.5863 c 0,0 4.9667,30.4585 25.2283,34.2375 0,0 -22.8052,13.5207 -24.0771,35.052 l -0.043,2.3535 c 0,0 -2.7849,-28.7387 -23.3754,-35.4481 0,0 21.1716,-11.5068 22.268,-36.1949"
         style="fill:#ffffff;fill-opacity:1;fill-rule:nonzero;stroke:none;stroke-width:1.11378622"
         id="path212"
         inkscape:connector-curvature="0" /></g></g></svg>