<?xml version="1.0" encoding="UTF-8" standalone="no"?>
<!-- Created with Inkscape (http://www.inkscape.org/) -->
<svg xmlns="http://www.w3.org/2000/svg" height="300" width="400" version="1.1" viewBox="0 0 105.83333 79.375002">
 <defs>
  <clipPath id="clipPath23014" clipPathUnits="userSpaceOnUse">
   <path d="m5749.7 1936.7h1940v2580h-1940z"/>
  </clipPath>
  <clipPath id="clipPath23036" clipPathUnits="userSpaceOnUse">
   <path d="m8084.7 1936.7h1940.3v2580h-1940.3z"/>
  </clipPath>
  <clipPath id="clipPath23058" clipPathUnits="userSpaceOnUse">
   <path d="m10420 1936.7h1940v2580h-1940z"/>
  </clipPath>
 </defs>
 <g transform="translate(0 -217.62)">
  <g transform="matrix(.35278 0 0 -.35278 -118.05 237.03)">
   <g transform="scale(.1)">
    <g transform="matrix(10 0 0 10 -2829.1 -2929.6)">
     <g transform="scale(.10920)">
      <g transform="matrix(9.1573 0 0 9.1573 5953.5 -3.1192)">
       <g transform="scale(.1)">
        <g transform="matrix(10 0 0 10 -1534.8 -207.81)">
         <g transform="scale(.1)">
          <g transform="matrix(10 0 0 10 -2100 -2022.8)">
           <g transform="translate(247.33 227.28)">
            <g transform="scale(.1)">
             <g transform="matrix(10 0 0 10 -642.19 -250)">
              <g transform="scale(.1)">
               <g transform="matrix(10,0,0,10,-1500,-1500)">
                <g transform="translate(-2977.2 -2543.4)">
                 <g transform="scale(.47716)">
                  <g transform="matrix(2.0957 0 0 2.0957 6833 5099.3)">
                   <g transform="scale(.1)">
                    <g>
                     <path d="m165.9 4540.8c259.79-101.63 1669.4-24.478 2572.9-51.097 491.91 4.3324 305.31 203.66 335.85 347.18h-2993.5c0.02777-94.066-40.711 203.71 84.665-296.09z" fill="#6097ab"/>
                     <path d="m274.22 5021.4h814.28v1104.7h-814.28z" fill="#87b1c0"/>
                     <path d="m299.85 5056.2h763.05v1035.2h-763.05z" fill="#97bbc8"/>
                    </g>
                    <g transform="matrix(.39333 0 0 .40123 -1961.6 4279.1)">
                     <g fill="#a7c6d1" clip-path="url(#clipPath23014)">
                      <path d="m7790.4 4590.7-2337.4-2337.4-388.38 388.38 2337.4 2337.4 388.37-388.37"/>
                      <path d="m7283.7 5070.7-2337.4-2337.4-100 100 2337.4 2337.4 100-100"/>
                      <path d="m8357.1 3597.4-2337.4-2337.4l-340 340 2337.4 2337.4 340-340"/>
                      <path d="m8537.1 3224.1-2337.4-2337.4l-166.66 166.66 2337.4 2337.4 166.67-166.67"/>
                      <path d="m7910.4 4084.1-2337.4-2337.4-93.34 93.33 2337.4 2337.4 93.33-93.34"/>
                     </g>
                    </g>
                    <path d="m1192.6 5021.4h814.3v1104.7h-814.3z" fill="#87b1c0"/>
                    <path d="m1218.3 5056.2h763.06v1035.2h-763.06z" fill="#97bbc8"/>
                    <g transform="matrix(.39333 0 0 .40123 -1961.6 4279.1)">
                     <g fill="#a7c6d1" clip-path="url(#clipPath23036)">
                      <path d="m10125 4590.7-2337.4-2337.4-388.38 388.38 2337.4 2337.4 388.36-388.37"/>
                      <path d="m9618.7 5070.7-2337.4-2337.4-100 100 2337.4 2337.4 100-100"/>
                      <path d="m10692 3597.4-2337.3-2337.4l-340 340 2337.4 2337.4 340-340"/>
                      <path d="m10872 3224.1-2337.3-2337.4l-166.66 166.66 2337.4 2337.4 166.7-166.67"/>
                      <path d="m10245 4084.1-2337.4-2337.4-93.34 93.33 2337.4 2337.4 93.3-93.34"/>
                     </g>
                    </g>
                    <path d="m2111 5021.4h814.3v1104.7h-814.3z" fill="#87b1c0"/>
                    <path d="m2136.7 5056.2h763.05v1035.2h-763.05z" fill="#97bbc8"/>
                    <g transform="matrix(.39333 0 0 .40123 -1961.6 4279.1)">
                     <g fill="#a7c6d1" clip-path="url(#clipPath23058)">
                      <path d="m12460 4590.7-2337-2337.4l-388.37 388.38 2337.4 2337.4 388.4-388.37"/>
                      <path d="m11954 5070.7-2337.4-2337.4-100 100 2337.4 2337.4 100-100"/>
                      <path d="m13027 3597.4-2337-2337.4l-340 340 2337.4 2337.4 340-340"/>
                      <path d="m13207 3224.1-2337-2337.4-167 166.6l2337.4 2337.4 166.7-166.67"/>
                      <path d="m12580 4084.1-2337.4-2337.4-93.3 93.33 2337.4 2337.4 93.3-93.34"/>
                     </g>
                    </g>
                    <g fill="#6097ab">
                     <path d="m1171.8 5443.4h-941.31c-7.2136 0-13.113 6.0184-13.113 13.373 0 7.3544 5.8999 13.373 13.113 13.373h941.36c7.2096 0 13.11-6.0186 13.11-13.373 0-7.3545-5.8999-13.373-13.11-13.373"/>
                     <path d="m473.04 4818.1c-10.097 0-18.357 8.4257-18.357 18.725v663.36c0 10.3 8.2599 18.725 18.357 18.725s18.356-8.4259 18.356-18.725v-663.3c0-10.3-8.2598-18.725-18.356-18.725"/>
                     <path d="m377.07 5298.9h-13.904c-18.53 0-33.692 15.463-33.692 34.369v246.89c0 18.906 15.163 34.369 33.692 34.369h13.904c18.53 0 33.692-15.463 33.692-34.369v-246.89c0-18.906-15.163-34.369-33.692-34.369"/>
                     <path d="m302.62 5346.4h-24.945c-15.493 0-28.17 12.932-28.17 28.736v163.2c0 15.804 12.677 28.736 28.17 28.736h24.945c15.493 0 28.17-12.932 28.17-28.736v-163.2c0-15.804-12.677-28.736-28.17-28.736"/>
                     <path d="m246.22 5443.4h941.36c7.2137 0 13.114 6.0184 13.114 13.373 0 7.3544-5.8998 13.373-13.114 13.373h-941.38c-7.2096 0-13.11-6.0186-13.11-13.373 0-7.3545 5.8999-13.373 13.11-13.373"/>
                     <path d="m945.03 4818.1c10.097 0 18.356 8.4257 18.356 18.725v663.36c0 10.3-8.2598 18.725-18.356 18.725-10.097 0-18.357-8.4259-18.357-18.725v-663.3c0-10.3 8.2598-18.725 18.357-18.725"/>
                     <path d="m1041 5298.9h13.904c18.53 0 33.692 15.463 33.692 34.369v246.89c0 18.906-15.163 34.369-33.692 34.369h-13.904c-18.53 0-33.692-15.463-33.692-34.369v-246.89c0-18.906 15.163-34.369 33.692-34.369"/>
                     <path d="m1115.5 5346.4h24.945c15.493 0 28.17 12.932 28.17 28.736v163.2c0 15.804-12.677 28.736-28.17 28.736h-24.945c-15.493 0-28.17-12.932-28.17-28.736v-163.2c0-15.804 12.677-28.736 28.17-28.736"/>
                     <path d="m584.26 4799.4h249.11v220.68h-249.11z"/>
                     <path d="m569.19 5010h279.26v28.086h-279.26z"/>
                     <path d="m797.97 5072.2h-178.31c-22.715 0-41.299-18.958-41.299-42.129h260.91c0 23.171-18.585 42.129-41.299 42.129"/>
                     <path d="m2086.7 5490.9c-5.3886 0-9.8332 4.5139-9.8332 10.031l-23.6 414.6c0 5.5169 4.4053 10.031 9.8332 10.031 5.3886 0 9.8332-4.5138 9.8332-10.031l23.6-414.6c0-5.5169-4.4052-10.031-9.8331-10.031"/>
                     <path d="m2086.7 5361.8c-33.472 0-60.651 27.697-60.651 61.857 0 34.161 27.179 61.858 60.651 61.858s60.651-27.697 60.651-61.858-27.179-61.857-60.651-61.857zm0 149.79c-47.592 0-86.217-39.373-86.217-87.937 0-48.565 38.625-87.937 86.217-87.937s86.217 39.373 86.217 87.937c0 48.565-38.625 87.937-86.217 87.937"/>
                     <path d="m2050 5367.8c-5.4279 0-9.8332 4.5138-9.8332 10.031l11.8 534.99c0 5.517 4.4053 10.031 9.8331 10.031 5.3886 0 9.8331-4.5137 9.8331-10.031l-11.8-534.99c0-5.5169-4.4447-10.031-9.8332-10.031"/>
                     <path d="m2050 5238.8c-33.511 0-60.651 27.693-60.651 61.853 0 34.165 27.14 61.858 60.651 61.858 33.472 0 60.612-27.693 60.612-61.858 0-34.161-27.139-61.853-60.612-61.853zm0 149.79c-47.632 0-86.217-39.368-86.217-87.937 0-48.565 38.585-87.933 86.217-87.933 47.592 0 86.178 39.369 86.178 87.933 0 48.569-38.585 87.937-86.178 87.937"/>
                     <path d="m2130.9 4806.1c-9.0071 0-16.402 7.5232-16.402 16.719v343.05c0 9.1922 7.3945 16.715 16.402 16.715 9.0072 0 16.402-7.523 16.402-16.715v-343.05c0-9.196-7.3945-16.719-16.402-16.719"/>
                     <path d="m2992.3 4806.1c-9.007 0-16.402 7.5232-16.402 16.719v343.05c0 9.1922 7.3946 16.715 16.402 16.715 9.0073 0 16.402-7.523 16.402-16.715v-343.05c0-9.196-7.3942-16.719-16.402-16.719"/>
                     <path d="m2993 5092.3h-853.52c-5.7819 0-10.502 4.8147-10.502 10.701 0 5.8859 4.7198 10.697 10.502 10.697h853.52c5.7426 0 10.463-4.8107 10.463-10.697 0-5.8861-4.7201-10.701-10.463-10.701"/>
                     <path d="m2237.1 5112.7c0-18.834-14.986-34.104-33.433-34.104s-33.433 15.271-33.433 34.104c0 18.838 14.986 34.104 33.433 34.104s33.433-15.267 33.433-34.104"/>
                     <path d="m2338.2 5112.7c0-22.601-17.936-40.921-40.119-40.921-22.144 0-40.119 18.32-40.119 40.921 0 22.605 17.975 40.929 40.119 40.929 22.184 0 40.119-18.324 40.119-40.929"/>
                     <path d="m2456.4 5112.7c0-27.123-21.554-49.11-48.143-49.11s-48.143 21.987-48.143 49.11 21.554 49.106 48.143 49.106 48.143-21.983 48.143-49.106"/>
                     <path d="m2591.9 5112.7c0-32.544-25.881-58.928-57.78-58.928s-57.78 26.385-57.78 58.928c0 32.548 25.881 58.937 57.78 58.937s57.78-26.389 57.78-58.937"/>
                     <path d="m2752.9 5112.7c0-39.056-31.033-70.716-69.343-70.716-38.271 0-69.304 31.661-69.304 70.716 0 39.06 31.033 70.721 69.304 70.721 38.31 0 69.343-31.661 69.343-70.721"/>
                     <path d="m2943.8 5112.7c0-46.867-37.248-84.86-83.189-84.86-45.94 0-83.188 37.992-83.188 84.86 0 46.872 37.248 84.864 83.188 84.864s83.189-37.992 83.189-84.864"/>
                     <path d="m2993 4915.8h-853.52c-5.7819 0-10.502 4.8147-10.502 10.697 0 5.8861 4.7198 10.701 10.502 10.701h853.52c5.7426 0 10.463-4.8147 10.463-10.701 0-5.8819-4.7201-10.697-10.463-10.697"/>
                     <path d="m2237.1 4936.1c0-18.834-14.986-34.104-33.433-34.104s-33.433 15.271-33.433 34.104c0 18.838 14.986 34.104 33.433 34.104s33.433-15.267 33.433-34.104"/>
                     <path d="m2338.2 4936.1c0-22.601-17.936-40.925-40.119-40.925-22.144 0-40.119 18.324-40.119 40.925s17.975 40.926 40.119 40.926c22.184 0 40.119-18.324 40.119-40.926"/>
                     <path d="m2456.4 4936.1c0-27.123-21.554-49.11-48.143-49.11s-48.143 21.987-48.143 49.11 21.554 49.11 48.143 49.11 48.143-21.987 48.143-49.11"/>
                     <path d="m2591.9 4936.1c0-32.548-25.881-58.932-57.78-58.932s-57.78 26.385-57.78 58.932c0 32.548 25.881 58.932 57.78 58.932s57.78-26.385 57.78-58.932"/>
                     <path d="m2752.9 4936.1c0-39.056-31.033-70.72-69.343-70.72-38.271 0-69.304 31.665-69.304 70.72 0 39.056 31.033 70.721 69.304 70.721 38.31 0 69.343-31.665 69.343-70.721"/>
                     <path d="m2943.8 4936.1c0-46.868-37.248-84.864-83.189-84.864-45.94 0-83.188 37.996-83.188 84.864s37.248 84.864 83.188 84.864 83.189-37.996 83.189-84.864"/>
                    </g>
                    <g>
                     <path d="m2720 4576.6c-24.976 0-45.233 5.3884-45.233 12.037 0 6.6471 20.256 12.037 45.233 12.037 24.976 0 45.233-5.3897 45.233-12.037 0-6.6484-20.256-12.037-45.233-12.037" fill="#42788f"/>
                     <path d="m2122.1 4564.1c-57.032 0-103.25 10.985-103.25 24.536 0 13.55 46.216 24.535 103.25 24.535 57.032 0 103.25-10.985 103.25-24.535 0-13.551-46.216-24.536-103.25-24.536" fill="#42788f"/>
                     <path d="m2428.9 4543.5c-104.82 0-189.78 20.19-189.78 45.097 0 24.909 84.958 45.102 189.78 45.102s189.78-20.194 189.78-45.102-84.959-45.097-189.78-45.097" fill="#4b8197"/>
                     <path d="m2355.1 4826.8 94.792 2.0222c22.616 3.4064 38.232 24.864 34.928 47.935l-4.4056 30.341c-3.3432 23.239-24.74 39.449-47.514 36.018l-97.781 3.0493 19.981-119.37" fill="#686868"/>
                     <path d="m2181.3 4657.4s-2.3992 49.23 0.1574 65.363c2.4386 15.532 8.1418 23.757 11.564 26.826 5.1132 4.5901 8.4172 9.5533 11.682 16.92 3.4612 7.7877 8.6532 27.3 0.3539 50.122-4.1299 11.286-12.626 20.447-23.403 25.257v0.7464s31.584-14.898 63.798-14.524l100.1-1.954c13.963-0.1205 25.448 11.415 25.566 25.63 0.039 5.9262-1.9273 11.403-5.1919 15.804l0.079 42.891-30.679 0.059c-2.95 12.27-13.766 21.506-26.668 21.614l-100.42 1.2278c-40.277-3.3342-49.126-12.358-59.864-22.473-8.2599-3.3662-16.048-6.5681-23.364-11.692-9.1646-6.4278-8.3386-14.878-9.4006-22.028-0.2753-1.677-0.3933-3.3863-0.3933-5.1075l-0.7867-214.55 66.866-0.1317" fill="#fecdbc"/>
                     <path d="m2130.2 4860.8c0 1.7171 0.118 3.4264 0.3934 5.1035 1.0619 7.154 0.236 15.6 9.4005 22.032 7.3158 5.1196 15.143 8.3216 23.364 11.688 10.777 10.119 19.588 19.138 59.864 22.477l100.46-1.2278c2.6353-0.024 5.192-0.5217 7.6306-1.272-4.9166 7.5231-13.255 12.559-22.734 12.639l-100.42 1.2277c-40.276-3.3341-49.126-12.358-59.864-22.473-8.2599-3.3664-16.048-6.5681-23.364-11.692-9.1646-6.4277-8.3386-14.878-9.4005-22.028-0.2753-1.6771-0.3934-3.3863-0.3934-5.1075l-0.7866-214.55 15.143-0.029 0.708 203.21" fill="#fee2d9"/>
                     <path d="m2355.4 4895.6 10.698-0.048 0.079 15.965-20.453 0.088c4.8379-4.0043 8.3384-9.6055 9.6758-16.005" fill="#fee2d9"/>
                     <path d="m2114.2 4691.7-0.1179-32.599 66.866-0.29 0.118 32.889h-66.866" fill="#e4e4e4"/>
                     <path d="m2133.9 4691.7h-19.745l-0.1179-32.599 19.745-0.086 0.118 32.684" fill="#fff"/>
                     <path d="m2261.3 4934.7v-107.6l110.01-0.7784c13.924-0.056-12.783 82.252-12.783 109.33l-97.23-0.9309" fill="#686868"/>
                     <path d="m2359.7 4923-27.887-96.403 39.529-0.2769c12.154-0.048-6.6865 62.744-11.642 96.68" fill="#4d4d4d"/>
                     <path d="m2113 4601.2 45.626-0.012c14.553-0.01 26.471 13.128 26.471 29.186v1.7445c0 16.057-11.918 29.197-26.432 29.202l-45.626 0.01c-14.553 0.01-26.471-13.128-26.471-29.187v-1.741c0-16.057 11.918-29.197 26.432-29.201" fill="#686868"/>
                    </g>
                    <g fill="#4d4d4d">
                     <path d="m2147.5 4596.4 25.448-0.01c11.407-0.01 20.728 9.5056 20.728 21.126 0 11.623-9.3217 21.137-20.689 21.14l-25.488 0.01c-11.367 0.011-20.689-9.501-20.689-21.124-0.039-11.624 9.2825-21.138 20.689-21.141"/>
                     <path d="m2176.7 4602c9.5578-0.01 17.346 7.9604 17.385 17.698v36.612c0 9.7378-7.8272 17.706-17.346 17.709-9.5579 0.01-17.385-7.9636-17.385-17.701v-36.609c0-9.7411 7.7878-17.709 17.346-17.709"/>
                     <path d="m2064.7 4594.6 27.69-0.01c11.367-0.011 20.689 9.5059 20.689 21.13 0 11.623-9.3219 21.132-20.689 21.137l-27.69 0.011c-11.407 0.01-20.728-9.5059-20.728-21.129 0-11.624 9.3217-21.133 20.728-21.136"/>
                    </g>
                    <g>
                     <path d="m2048.2 4588.7 133.57-0.031c4.7594-0.01 8.6533 3.9811 8.6533 8.8475 0 4.8714-3.8939 8.8557-8.6533 8.8557l-133.57 0.035c-4.7986 0-8.6925-3.9806-8.6925-8.8519s3.8939-8.8551 8.6925-8.8551" fill="#e32b3d"/>
                     <path d="m2082.7 4641 18.683-0.1646c1.0227-0.01 1.8881 0.8586 1.8881 1.926v0.5457c0.039 1.0672-0.826 1.9447-1.8881 1.9575l-18.644 0.1647c-1.0226 0.01-1.8879-0.8592-1.9272-1.9263v-0.5454c0-1.0673 0.8653-1.9452 1.888-1.9576" fill="#fff"/>
                     <path d="m2087.8 4649.3 18.644-0.1646c1.0619-0.01 1.9273 0.859 1.9273 1.9232v0.5484c0 1.0673-0.826 1.9469-1.888 1.9544l-18.644 0.1645c-1.0619 0.013-1.9272-0.8538-1.9272-1.9215v-0.5453c0-1.0671 0.826-1.9467 1.8879-1.9591" fill="#fff"/>
                     <path d="m2658.1 4723.2s-47.356-9.8902-63.365-9.786c-15.418 0.1002-24.268 4.6262-27.73 7.6034-5.2311 4.4495-10.541 7.0415-18.172 9.2202-8.1025 2.3071-27.769 4.5899-48.615-7.2664-10.344-5.862-17.896-15.816-20.964-27.392l-0.7083-0.1123s9.6367 34.096 4.4052 66.528l-13.294 101.23c-2.0059 14.071-14.907 23.917-28.713 21.879-5.7425-0.8507-10.738-3.6512-14.514-7.6314l-41.574-6.4197 4.6018-30.955c-11.446-4.8148-18.762-17.116-16.913-30.152l14.042-101.44c9.3612-40.123 19.43-47.646 30.837-56.962 4.5233-7.7926 8.8105-15.187 14.907-21.779 7.5913-8.277 15.654-6.1501 22.774-6.1501 1.652 0 3.304 0.1236 4.9952 0.3807l207.99 31.769-9.9904 67.442" fill="#fecdbc"/>
                     <path d="m2446.7 4629.1c-6.0572 6.5923-10.344 13.986-14.868 21.778-11.446 9.3177-21.515 16.841-30.837 56.963l-14.042 101.45c-1.8486 13.032 5.4673 25.338 16.913 30.148l-4.6019 30.955 41.575 6.4195c3.2253 3.4145 7.3944 5.8741 12.154 7.0656-3.776 1.3642-7.8666 1.8538-12.075 1.2359-5.7425-0.8507-10.738-3.6512-14.514-7.6314l-41.574-6.4197 4.6018-30.955c-11.446-4.8148-18.762-17.116-16.913-30.152l14.042-101.44c9.3612-40.123 19.43-47.646 30.837-56.962 4.5233-7.7926 8.8105-15.187 14.907-21.779 7.5913-8.277 15.654-6.1501 22.774-6.1501-2.7927 0.8667-5.6246 2.4873-8.3779 5.4807" fill="#fee2d9"/>
                     <path d="m2620.5 4717.4 8.7709-67.634 38.822 5.998-9.9904 67.442-37.602-5.8058" fill="#e4e4e4"/>
                     <path d="m2724.3 4663.6-7.0013 45.986c-2.242 14.661-16.795 24.635-32.331 22.168l-1.6912-0.2649c-15.576-2.4676-26.471-16.482-24.229-31.139l7.0012-45.985c2.2421-14.66 16.795-24.635 32.332-22.171l1.6913 0.268c15.576 2.4684 26.471 16.478 24.229 31.139" fill="#686868"/>
                    </g>
                    <g fill="#4d4d4d">
                     <path d="m2723.7 4699.1-3.894 25.667c-1.7702 11.483-12.39 19.42-23.639 17.634-11.289-1.7855-19.077-12.643-17.306-24.126l3.894-25.671c1.7697-11.483 12.429-19.419 23.678-17.634 11.249 1.7854 19.037 12.643 17.267 24.13"/>
                     <path d="m2713.8 4727.7c-1.4552 9.6215-10.384 16.27-19.824 14.773l-35.438-5.6212c-9.4401-1.4965-15.969-10.596-14.514-20.218 1.4945-9.6215 10.384-16.27 19.824-14.773l35.478 5.6212c9.4399 1.4967 15.93 10.596 14.474 20.218"/>
                     <path d="m2738.2 4615.9-4.2481 27.906c-1.7305 11.484-12.39 19.42-23.639 17.634-11.289-1.7852-19.037-12.642-17.306-24.13l4.2481-27.904c1.7698-11.484 12.39-19.42 23.678-17.634 11.25 1.785 19.038 12.642 17.267 24.129"/>
                    </g>
                    <g>
                     <path d="m2746.4 4600.2-20.531 134.64c-0.7082 4.8108-5.1924 8.1369-9.9119 7.3866-4.6808-0.7463-7.9455-5.2963-7.2373-10.107l20.532-134.64c0.7474-4.812 5.1918-8.1378 9.9118-7.3871 4.72 0.7463 7.9847 5.2963 7.2371 10.106" fill="#e32b3d"/>
                     <path d="m2690.5 4626.9-2.7138 18.83c-0.1178 1.0564-1.1012 1.7947-2.1239 1.6378l-0.5508-0.079c-1.0227-0.1537-1.7697-1.1443-1.6122-2.1992l2.7138-18.829c0.157-1.0564 1.1404-1.7947 2.1632-1.6379l0.5507 0.079c1.0227 0.1565 1.7305 1.144 1.573 2.1987" fill="#fff"/>
                     <path d="m2681.7 4630.8-2.7139 18.83c-0.1182 1.0548-1.1016 1.7927-2.1243 1.6362l-0.5503-0.079c-1.0228-0.1522-1.7702-1.1444-1.6128-2.1993l2.7139-18.83c0.1575-1.0544 1.1408-1.7927 2.1631-1.6378l0.5509 0.081c1.0226 0.1516 1.7308 1.1423 1.5734 2.1986" fill="#fff"/>
                     <path d="m2376.3 4773.7 103.88 15.748-15.576 127.02c-1.9667 14.071-86.846 1.6731-108.24 8.4418l19.942-151.21" fill="#686868"/>
                     <path d="m2377.4 4944.5c-10.227 0.065-19.037-1.0953-24.111 0.5015l22.97-171.36 23.128 3.5066-21.987 167.35" fill="#828282"/>
                     <path d="m2106.1 5229.4-19.745 39.268c33.118 17.349 68.714 25.783 108.83 25.783v-44.135c-33.079 0-62.224-6.841-89.088-20.916" fill="#4d4d4d"/>
                    </g>
                    <g fill="#fecdbc">
                     <path d="m2462.8 5069.6h-149.5c-27.808 0-50.542 23.199-50.542 51.558v31.966c0 28.355 22.734 51.558 50.542 51.558h149.5c27.808 0 50.543-23.203 50.543-51.558v-31.966c0-28.359-22.734-51.558-50.543-51.558"/>
                     <path d="m2436.7 4975h-87.987c-22.302 0-40.591 18.629-40.591 41.399v46.238c0 22.77 18.29 41.399 40.591 41.399h87.987c22.302 0 40.552-18.629 40.552-41.399v-46.238c0-22.77-18.25-41.399-40.552-41.399"/>
                     <path d="m2164.4 5080.8c8.9677 0.011 39.451 9.3526 39.451 9.3526 27.1-16.88 54.633-6.195 68.557 16.186 0.2754 0.4495 0.3539 0.9871 0.5507 1.4766 21.672-6.0024 45.154 4.907 54.436 26.485 10.187 23.745-0.472 51.698-23.757 62.118s-50.661-0.4776-60.887-24.222c-0.5114-1.2077-0.9441-2.4314-1.3767-3.6592l-0.4326-0.1525c-11.76 8.462-25.802 15.146-40.749 11.411-24.072-6.0224-32.214-22.457-35.714-28.022-0.3934 0.5777-0.708 1.1796-1.18 1.7252 0 0-30.168 35.148-53.335 47.221-13.845 7.2341-24.15 27.26-24.15 27.26 3.3039 8.2733 2.2812 18.091-3.5007 25.55l-59.392-48.095c6.5292-8.3937 17.306-11.439 26.825-8.5381 0 0 11.052-10.877 13.609-15.355 20.06-35.26 56.01-73.999 56.01-73.999 4.7199-5.6854 28.556-26.758 45.036-26.742"/>
                    </g>
                    <g>
                     <path d="m2085.8 5219.5s10.305-20.025 24.15-27.26c23.167-12.073 53.335-47.22 53.335-47.22 0.472-0.5457 0.7866-1.1475 1.18-1.7254 3.5005 5.565 11.642 21.999 35.714 28.022 14.946 3.7356 28.988-2.949 40.749-11.411l0.4326 0.1526c0.4326 1.2277 0.8653 2.4515 1.3767 3.6591 10.226 23.745 37.602 34.642 60.887 24.222 15.89-7.1098 25.881-22.384 27.415-38.911 1.6912 19.612-8.8105 39.116-27.415 47.437-23.285 10.42-50.661-0.4776-60.887-24.222-0.5114-1.2077-0.9441-2.4314-1.3767-3.6592l-0.4326-0.1525c-11.76 8.462-25.802 15.146-40.749 11.411-24.072-6.0224-32.214-22.457-35.714-28.022-0.3934 0.5777-0.708 1.1796-1.18 1.7252 0 0-30.168 35.148-53.335 47.221-10.699 5.5931-19.273 18.798-22.616 24.515-0.2753-1.974-0.7866-3.92-1.5339-5.7817" fill="#fee2d9"/>
                     <path d="m2090 5220.7-7.1979 12.201-35.871-33.338 8.9285-8.9555c2.7533 0.9108 4.5626 2.1185 6.9619 4.0644l20.178 16.338c3.6185 2.9371 5.4671 5.549 7.0012 9.6897" fill="#fdb79f"/>
                     <path d="m2508.4 5099c-14.317 5.0193-30.522 19.949-31.388 42.819v60.774c-4.5233 1.344-9.2434 2.1024-14.16 2.1024h-149.5c-7.4338 0-14.435-1.6932-20.807-4.6543v-58.222c-0.1181-19.893-11.918-35.709-25.173-41.848 7.3553-16.491 22.97-28.419 41.417-30.12-0.3934-2.3472-0.6686-4.7466-0.6686-7.2101v-46.238c0-17.108 10.305-31.878 24.937-38.165v-18.866c0-0.4814 0.039-0.9549 0.039-1.4323h-0.079v-18.388h116.74v18.388h-0.079c0 0.4774 0.039 0.9509 0.039 1.4323v17.883c15.969 5.5811 27.533 21.036 27.533 39.148v46.238c0 3.0533-0.3542 6.0225-0.9835 8.8872 14.16 4.0123 25.881 14.192 32.135 27.472" fill="#e64050"/>
                     <path d="m2477 5191.3v11.275c-4.5233 1.344-9.2434 2.1024-14.16 2.1024h-149.5c-7.4338 0-14.435-1.6932-20.807-4.6543v-8.7227h184.47" fill="#f08a94"/>
                     <path d="m2352.7 5382.2h5.7818c28.634 0 52.076-23.905 52.076-53.119v-48.139h6.1359v-95.3c0-19.48-15.615-35.412-34.691-35.412-19.116 0-34.731 15.933-34.731 35.412v24.956c-26.117 2.7927-46.648 25.478-46.648 52.826v97.378c0 29.217 23.442 21.397 52.076 21.397" fill="#fecdbc"/>
                     <path d="m2300.7 5349.2h84.329c4.72 0 9.0073 1.9298 12.232 5.0193v-4.4255c-3.2252-3.0895-7.5125-5.0234-12.232-5.0234h-84.329v4.4296" fill="#fdb79f"/>
                     <path d="m2403 5278.2c0-11.407 9.0465-20.655 20.256-20.655 11.17 0 20.217 9.2483 20.217 20.655s-9.0464 20.655-20.217 20.655c-11.21 0-20.256-9.2482-20.256-20.655" fill="#fecdbc"/>
                     <path d="m2347.4 5210.6c26.078 2.7925 46.648 25.478 46.648 52.826v-8.855c0-27.348-20.571-50.033-46.648-52.822v8.8511" fill="#fdb79f"/>
                     <path d="m2299.3 5408.3h85.706c9.7939 0 17.818-8.1771 17.818-18.168v-2.7123c3.7366 4.0444 9.0071 6.6123 14.828 6.6123 11.249 0 20.453-9.3807 20.453-20.844v-64.55c0-11.463-9.2038-20.844-20.453-20.844s-20.414 9.3808-20.414 20.844v45.596c-3.2252-3.0895-7.5125-5.0193-12.232-5.0193h-85.706c-9.7938 0-17.778 8.173-17.778 18.164v22.754c0 9.9906 7.9846 18.168 17.778 18.168" fill="#8a402b"/>
                     <path d="m2299.3 5408.3h85.706c9.7939 0 17.818-8.1771 17.818-18.168v-2.7123c3.7366 4.0444 9.0071 6.6123 14.828 6.6123 11.249 0 20.453-9.3807 20.453-20.844v-8.8511c0 11.463-9.2038 20.84-20.453 20.84-5.8213 0-11.092-2.5679-14.828-6.6123v2.7123c0 9.9906-8.0238 18.168-17.818 18.168h-85.706c-9.7938 0-17.778-8.177-17.778-18.168v8.8551c0 9.9906 7.9846 18.168 17.778 18.168" fill="#ad796b"/>
                     <path d="m2300.2 5323.7h133.22c5.9 0 10.738 4.9352 10.738 10.962v16.198c0 6.0266-4.8378 10.958-10.738 10.958h-133.2c-5.8999 0-10.738-4.931-10.738-10.958v-16.198c0-6.0263 4.8379-10.962 10.738-10.962" fill="#e64050"/>
                     <path d="m2293 5200.2-0.5112-0.2046v-0.9469l0.5112 1.1515" fill="#e74b5a"/>
                     <path d="m2462.8 5061.5h-149.5c-1.7699 0-3.5006 0.096-5.2311 0.2768v0.7744c0 2.4635 0.2752 4.8629 0.6686 7.2101 1.4946-0.1365 3.0286-0.2368 4.5625-0.2368h149.5c4.6412 0 9.125 0.6982 13.412 1.9059 0.5509-2.5157 0.8653-5.1117 0.9442-7.7718-4.5625-1.3883-9.3613-2.1586-14.357-2.1586" fill="#cf1019"/>
                    </g>
                    <g fill="#e64050">
                     <path d="m2320.4 4986.8c0.7082-0.7142 1.4554-1.4044 2.2421-2.0624-0.7867 0.658-1.5339 1.3482-2.2421 2.0624"/>
                     <path d="m2319.6 4987.7c-0.5506 0.5978-1.1013 1.2118-1.652 1.8457 0.5507-0.6339 1.1014-1.2479 1.652-1.8457"/>
                     <path d="m2317.2 4990.4c-0.708 0.9149-1.4159 1.8498-2.0453 2.8208 0.6294-0.971 1.3373-1.9059 2.0453-2.8208"/>
                     <path d="m2315 4993.5c-0.59 0.9109-1.18 1.8537-1.6912 2.8168 0.5112-0.9631 1.1012-1.9059 1.6912-2.8168"/>
                     <path d="m2328.8 4980.4c-0.7079 0.4052-1.3766 0.8265-2.0452 1.2679 0.6686-0.4414 1.3373-0.8627 2.0452-1.2679"/>
                     <path d="m2325.7 4982.3c-0.9439 0.658-1.8486 1.34-2.7139 2.0663 0.8653-0.7263 1.77-1.4083 2.7139-2.0663"/>
                     <path d="m2308.3 5066.3c-0.1179-1.2197-0.1965-2.4515-0.1965-3.7033 0 1.2518 0.079 2.4796 0.1965 3.7033"/>
                     <path d="m2312.7 4997.3c-0.3933 0.7705-0.7867 1.5529-1.1406 2.3473 0.3539-0.7985 0.7473-1.5768 1.1406-2.3473"/>
                     <path d="m2308.4 5011.4c0.1181-0.9148 0.2361-1.8215 0.4327-2.7163-0.1966 0.8948-0.3146 1.8015-0.4327 2.7163"/>
                     <path d="m2308.1 5016.4c0-1.2839 0.079-2.5478 0.1965-3.8036-0.1179 1.2558-0.1965 2.5197-0.1965 3.8036"/>
                     <path d="m2309.9 5004.2c-0.3148 1.1315-0.6294 2.283-0.8654 3.4506 0.236-1.1676 0.5506-2.3191 0.8654-3.4506"/>
                     <path d="m2311.2 5000.7c-0.4327 1.1114-0.8653 2.2429-1.2194 3.4025 0.3541-1.1596 0.7867-2.2911 1.2194-3.4025"/>
                     <path d="m2476.9 5011.3c-0.1176-0.8666-0.2359-1.7254-0.3933-2.576 0.1574 0.8506 0.2757 1.7094 0.3933 2.576"/>
                     <path d="m2332.5 4978.5c-0.8653 0.4013-1.77 0.8305-2.596 1.292 0.826-0.4615 1.7307-0.8907 2.596-1.292"/>
                     <path d="m2471.7 4995.7c-0.3144-0.5256-0.5901-1.0472-0.9437-1.5568 0.3536 0.5096 0.6293 1.0312 0.9437 1.5568"/>
                     <path d="m2476.3 5007.4c-0.1967-0.8185-0.3933-1.6249-0.6293-2.4234 0.236 0.7985 0.4326 1.6049 0.6293 2.4234"/>
                     <path d="m2473.6 4999.4c-0.3144-0.7664-0.6685-1.5206-1.0619-2.259 0.3934 0.7384 0.7475 1.4926 1.0619 2.259"/>
                     <path d="m2477 5067.1-0.039 0.1284 0.039-0.1284"/>
                     <path d="m2475.3 5003.7c-0.3144-1.0513-0.6686-2.0824-1.1012-3.0975 0.4326 1.0111 0.7868 2.0462 1.1012 3.0975"/>
                     <path d="m2463.5 4985.4-0.3933-0.3811 0.3933 0.3811"/>
                     <path d="m2461.1 4983.4-0.5901-0.4654 0.5901 0.4654"/>
                     <path d="m2458.3 4981.4-0.354-0.2367 0.354 0.2367"/>
                     <path d="m2469.8 4992.5c-0.3148-0.4213-0.5902-0.8266-0.9048-1.2317 0.3146 0.4051 0.59 0.8145 0.9048 1.2317"/>
                     <path d="m2477.2 5016.4c0-1.3001-0.079-2.5799-0.1967-3.8477 0.1177 1.2678 0.1967 2.5476 0.1967 3.8477"/>
                     <path d="m2467.6 4989.6-0.3933-0.4374 0.3933 0.4374"/>
                    </g>
                    <g>
                     <path d="m2436.7 4966.9h-87.987c-5.546 0-10.856 1.1553-15.654 3.2337v8.0246c4.7986-2.0783 10.108-3.234 15.654-3.234h87.987c4.5627 0 8.9287 0.8146 13.019 2.251v-8.0245c-4.0905-1.4365-8.4565-2.2508-13.019-2.2508" fill="#cf1019"/>
                     <path d="m2449.7 4977.2m-116.66 0.983" fill="#e5333b"/>
                     <path d="m2524 4857.4c-49.048 52.914-96.483 75.491-158.55 75.491v36.11c91.999 0 146.79-46.382 184.27-86.794l-25.723-24.808" fill="#4d4d4d"/>
                     <path d="m2555 4816.2c-24.268 30.81-51.408 62.275-84.998 83.66l22.892 37.443c39.057-24.86 69.146-59.603 95.814-93.442l-33.708-27.661" fill="#4d4d4d"/>
                     <path d="m2601.6 5074.2c-3.6183 8.3577-24.268 33.102-24.268 33.102 4.2482 32.098-16.402 53.496-42.086 57.508-0.511 0.08-1.0221-0.056-1.5337-0.08-3.304 22.661-22.538 40.203-45.665 40.203-25.409 0-46.216-21.213-46.216-47.144 0-25.927 20.807-47.144 46.216-47.144 1.2979 0 2.5962 0.093 3.8548 0.2007l0.3144-0.3692c-2.8713-14.384-3.2249-30.18 6.136-42.63 15.064-20.062 33.079-21.064 39.49-22.108-0.3541-0.5858-0.7475-1.1394-1.0619-1.7773 0 0-19.43-42.318-20.965-68.795-0.9045-15.868-14.75-33.515-14.75-33.515-8.771-0.2448-17.188-5.1398-21.515-13.562l-4.1692-8.0085c-6.4114-12.418-1.7305-27.946 10.423-34.506l22.774-12.278c12.193-6.5601 27.415-1.7695 33.826 10.649l4.1692 8.0084c4.9167 9.4811 3.3039 20.756-3.1072 28.487 0 0 5.31 14.705 8.299 18.878 23.6 32.901 43.935 82.051 43.935 82.051 3.1858 6.7085 12.547 37.426 5.8996 52.83" fill="#fecdbc"/>
                     <path d="m2485.5 5195.6c23.088 0 42.322-17.546 45.625-40.203 0.5116 0.024 1.062 0.1605 1.5736 0.08 25.684-4.0124 46.334-25.414 42.046-57.512 0 0 20.65-24.74 24.269-33.102 4.0902-9.505 2.1237-24.832-0.7869-36.756 3.8151 11.808 8.6925 33.828 3.4217 46.121-3.6183 8.3577-24.268 33.102-24.268 33.102 4.2482 32.098-16.402 53.496-42.086 57.508-0.511 0.08-1.0221-0.056-1.5337-0.08-3.304 22.661-22.538 40.203-45.665 40.203-22.655 0-41.614-16.908-45.468-38.967 6.8832 17.301 23.521 29.607 42.873 29.607" fill="#fee2d9"/>
                     <path d="m2196.7 4830.7v-0.088l0.118-0.068-0.118 0.1564" fill="#fee2d9"/>
                     <path d="m2088.2 5265.1c-55.813-29.23-94.359-79.447-131.63-128.01-55.05-71.74-107.05-139.5-210.8-139.5-103.74 0-155.74 67.755-210.8 139.5-57.854 75.391-117.68 153.35-238.67 153.35s-180.82-77.959-238.67-153.35c-55.054-71.74-107.06-139.5-210.8-139.5-103.75 0-155.75 67.755-210.81 139.5-57.858 75.391-117.69 153.35-238.69 153.35s-180.82-77.959-238.68-153.35c-11.237-14.641-22.353-29.101-33.802-42.871v-53.628c22.306 22.97 42.106 48.745 61.67 74.239 55.062 71.74 107.06 139.5 210.81 139.5s155.76-67.76 210.82-139.5c57.858-75.391 117.69-153.35 238.68-153.35s180.82 77.955 238.67 153.35c55.054 71.74 107.06 139.5 210.8 139.5s155.74-67.76 210.8-139.5c57.854-75.391 117.68-153.35 238.67-153.35s180.82 77.955 238.66 153.35c36.54 47.59 71.035 92.539 119.93 118.14l-16.166 32.13" fill="#4d4d4d"/>
                     <path d="m2126.8 4815.7c-55.066-71.736-107.06-139.49-210.81-139.49-103.74 0-155.74 67.759-210.8 139.49-57.854 75.391-117.68 153.35-238.67 153.35s-180.82-77.955-238.67-153.35c-55.054-71.736-107.05-139.49-210.8-139.49s-155.75 67.759-210.81 139.49c-57.858 75.391-117.69 153.35-238.69 153.35s-180.82-77.955-238.68-153.34c-53.819-70.123-104.75-136.41-203.91-139.36v-36.11c116.36 2.9246 175.04 79.275 231.78 153.21 55.058 71.74 107.06 139.5 210.81 139.5s155.76-67.756 210.82-139.5c57.858-75.387 117.69-153.34 238.68-153.34s180.82 77.958 238.67 153.35c55.054 71.736 107.06 139.49 210.8 139.49s155.75-67.756 210.8-139.5c57.854-75.387 117.68-153.34 238.67-153.34 120.97 0 180.8 77.958 238.65 153.35 55.066 71.736 107.06 139.49 210.82 139.49v36.11c-120.99 0-180.81-77.955-238.67-153.35" fill="#4d4d4d"/>
                     <path d="m2057.6 5201.4 20.178 16.334c10.777 8.7307 12.586 24.876 4.0513 35.874l-5.5459 7.0978c-8.5353 10.998-24.386 12.855-35.163 4.1245l-20.178-16.338c-10.777-8.7307-12.586-24.872-4.0512-35.874l5.5459-7.0936c8.5351-11.002 24.386-12.855 35.163-4.1247" fill="#fecdbc"/>
                     <path d="m2027.3 5238.9 20.178 16.338c10.777 8.7306 26.589 6.873 35.163-4.1247l2.3207-2.9931c-0.826 1.8978-1.888 3.7274-3.1859 5.4246l-5.5459 7.0978c-8.5353 10.998-24.386 12.855-35.163 4.1245l-20.178-16.338c-10.777-8.7307-12.586-24.872-4.0512-35.874l3.2252-4.1046c-4.5626 10.392-1.8879 23.067 7.2373 30.449" fill="#fee2d9"/>
                    </g>
                   </g>
                  </g>
                 </g>
                </g>
               </g>
              </g>
             </g>
            </g>
           </g>
          </g>
         </g>
        </g>
       </g>
      </g>
     </g>
    </g>
   </g>
  </g>
 </g>
</svg>
