<?xml version="1.0" encoding="UTF-8" standalone="no"?>
<!-- Created with Inkscape (http://www.inkscape.org/) -->
<svg xmlns="http://www.w3.org/2000/svg" height="300" width="400" version="1.1" viewBox="0 0 105.83333 79.375002">
 <defs>
  <clipPath id="clipPath15903" clipPathUnits="userSpaceOnUse">
   <path d="m3594.4 1234.1 53.09-390.22s168.66-56.379 387.49 82.621c218.18 138.59 219.09 314.58 219.09 314.58l-268.84 103.64-390.83-110.62"/>
  </clipPath>
 </defs>
 <g transform="translate(0 -217.62)">
  <g transform="matrix(.35278 0 0 -.35278 -118.05 237.03)">
   <g transform="scale(.1)">
    <g transform="matrix(10 0 0 10 -2829.1 -2929.6)">
     <g transform="scale(.10920)">
      <g transform="matrix(9.1573 0 0 9.1573 5953.5 -3.1192)">
       <g transform="scale(.1)">
        <path d="m22350 385.71h5e3v5e3h-5e3z" fill-opacity=".32727" fill="#9fc4ea"/>
        <g transform="matrix(10 0 0 10 -1534.8 -207.81)">
         <g transform="scale(.1)">
          <g transform="matrix(10 0 0 10 -2100 -2022.8)">
           <g transform="translate(247.33 227.28)">
            <g transform="scale(.1)">
             <g transform="matrix(3.6022 0 0 4.6308 711.38 1309.6)">
              <g transform="scale(.1)">
               <path d="m1820.6 1650.9c76.75 24.67 169.94 60.3 189.13-21.93l-197.35-52.07 8.22 74" fill="#f57f82"/>
               <path stroke-linejoin="round" d="m1334.5 1684.7c78.57-34.72 246.68-140.7 495.19-82.23" stroke="#f57f82" stroke-linecap="round" stroke-miterlimit="10" stroke-width="100" fill="none"/>
               <g>
                <path d="m1577.5 1500.2-57.92-27.26-84.41 179.08 57.91 27.26 84.42-179.08" fill="#eb2f38"/>
                <path d="m1492.9 1679.6-56.71-26.69 3.3 40.14 1.93 22.13 18.28-12.62 33.2-22.96" fill="#f9b159"/>
                <path d="m1459.7 1702.5-20.21-9.51 1.93 22.13 18.28-12.62" fill="#eb2f38"/>
                <path d="m5292.6 412.04h-4705c-30.59 0-55.617 25.031-55.617 55.633 0 30.59 25.027 55.609 55.617 55.609h4705c30.59 0 55.61-25.019 55.61-55.609 0-30.602-25.02-55.633-55.61-55.633" fill="#ada4c7"/>
                <path d="m8347.4 412.04h-2026.1c-30.6 0-55.62 25.031-55.62 55.633 0 30.59 25.02 55.609 55.62 55.609h2026.1c30.59 0 55.62-25.019 55.62-55.609 0-30.602-25.03-55.633-55.62-55.633" fill="#ada4c7"/>
                <path d="m4970.5 1570.7-63.59-7.32-41.96 364.18 63.58 7.33 41.97-364.19" fill="#eb2f38"/>
                <path d="m4928.4 1935.3-62.26-7.17 15.95 36.98 8.9 20.36 13.29-17.8 24.12-32.37" fill="#f9b159"/>
                <path d="m4904.3 1967.6-22.19-2.56 8.9 20.36 13.29-17.8" fill="#eb2f38"/>
                <path d="m4972.2 1565.8-60.5-20.9-119.71 346.49 60.5 20.9 119.71-346.49" fill="#f46f9a"/>
                <path d="m4852.3 1912.7-59.24-20.46 7.58 39.55 4.29 21.8 16.83-14.5 30.54-26.39" fill="#f9b159"/>
                <path d="m4821.7 1939.1-21.12-7.3 4.29 21.8 16.83-14.5" fill="#f46f9a"/>
                <path d="m4999.6 1585.2h-145.35l-29.08 192.25h203.5l-29.07-192.25" fill="#f7d121"/>
                <path d="m4870.1 483.71c-27.16 0-49.18 22.019-49.18 49.18v1020.5c0 27.17 22.02 49.18 49.18 49.18s49.18-22.01 49.18-49.18v-1020.5c0-27.161-22.02-49.18-49.18-49.18" fill="#484d69"/>
                <path d="m4121.7 1371.3c-9.61 35.19 11.12 71.51 46.31 81.11l951.88 259.95c35.18 9.61 71.5-11.12 81.11-46.31 9.6-35.18-11.13-71.49-46.32-81.1l-951.88-259.95c-35.18-9.61-71.49 11.12-81.1 46.3" fill="#d1633e"/>
                <path d="m4256 518.52c0 27.16 22.01 49.179 49.17 49.179h856.53c27.16 0 49.18-22.019 49.18-49.179 0-27.161-22.02-49.18-49.18-49.18h-856.53c-27.16 0-49.17 22.019-49.17 49.18" fill="#484d69"/>
               </g>
               <g fill="#2f324b">
                <path d="m3553.2 462.73c-14.72 0-26.76 12.051-26.76 26.77v454.94c0 14.719 12.04 26.77 26.76 26.77s26.76-12.051 26.76-26.77v-454.94c0-14.719-12.04-26.77-26.76-26.77"/>
                <path d="m4030.5 462.73c-14.72 0-26.76 12.051-26.76 26.77v454.94c0 14.719 12.04 26.77 26.76 26.77s26.76-12.051 26.76-26.77v-454.94c0-14.719-12.04-26.77-26.76-26.77"/>
                <path d="m3553.2 685.75c0 14.719 12.04 26.762 26.76 26.762h454.95c14.72 0 26.76-12.043 26.76-26.762s-12.04-26.762-26.76-26.762h-454.95c-14.72 0-26.76 12.043-26.76 26.762"/>
               </g>
               <path d="m3382.2 1319.1c0-12.85-1.54-47.27-3.51-86.08-4.46-87.65 55.09-165.69 140.82-184.44l41.1-9" stroke="#2f324b" stroke-miterlimit="10" stroke-width="97.637" fill="none"/>
               <g>
                <path d="m4054.3 938.5h-523.34c-50.7 0-92.18 41.48-92.18 92.17 0 50.7 41.48 92.18 92.18 92.18h523.34c50.69 0 92.18-41.48 92.18-92.18 0-50.69-41.49-92.17-92.18-92.17" fill="#eb2f38"/>
                <path d="m3382.2 1295.3c-49.06 0-89.2 40.14-89.2 89.2v294.38c0 49.06 40.14 89.21 89.2 89.21 49.07 0 89.21-40.15 89.21-89.21v-294.38c0-49.06-40.14-89.2-89.21-89.2" fill="#eb2f38"/>
                <path d="m4338.3 1759.2 16.3 16.57c19.5 19.82 51.67 20.08 71.48 0.58 19.82-19.49 20.08-51.66 0.58-71.48l-16.3-16.56c-19.5-19.82-51.66-20.08-71.48-0.59-19.81 19.5-20.07 51.67-0.58 71.48" fill="#dd9b9b"/>
               </g>
               <g fill="#f57f82">
                <path d="m4404.4 1721.6 72.24 73.42c5.27 5.36 13.97 5.43 19.34 0.15 5.36-5.27 5.43-13.97 0.15-19.34l-72.24-73.42c-5.27-5.36-13.98-5.43-19.34-0.16-5.36 5.28-5.43 13.98-0.15 19.35"/>
                <path d="m4399.9 1770.3 58.01 58.95c5.27 5.36 13.98 5.43 19.34 0.16 5.36-5.28 5.43-13.98 0.15-19.34l-58-58.96c-5.28-5.36-13.98-5.43-19.34-0.15-5.36 5.27-5.43 13.98-0.16 19.34"/>
                <path d="m4363.5 1780.9 68.66 69.77c5.27 5.36 13.97 5.44 19.34 0.16 5.36-5.27 5.43-13.98 0.15-19.34l-68.65-69.78c-5.28-5.36-13.98-5.43-19.34-0.15-5.37 5.27-5.43 13.98-0.16 19.34"/>
                <path d="m4141.4 1549.1c-162.17 0-303.66 121.55-309.83 126.94-21.57 18.78-23.83 51.51-5.04 73.08 18.76 21.57 51.46 23.83 73.04 5.09 2.24-1.91 128.29-109.24 255.31-101.08 92.68 5.87 176.12 99.62 176.94 100.56 18.71 21.66 51.43 24.03 73.07 5.34 21.64-18.71 24.04-51.42 5.34-73.07-4.5-5.21-111.69-127.55-248.8-136.23-6.7-0.42-13.39-0.63-20.03-0.63"/>
               </g>
               <g>
                <path d="m3983.4 1640.3c14.92 39.22-4.77 83.1-43.99 98.02l-70.12 33.38c-39.21 14.92-108.23 20.74-123.15-18.48l-13.36-35.5c-14.92-39.21 45.74-80.75 84.95-95.67l67.65-25.74c39.22-14.92 83.1 4.78 98.02 43.99" fill="#282963"/>
                <path d="m4018.6 1114.8-424.25 114.78-35.83 341.37c-0.99 9.6-1.36 19.21-1.36 28.69 0 81.89 34.98 155.04 89.78 196.91 5.91 4.56 11.94 8.75 18.22 12.44 21.92 13.06 46.43 21.55 72.79 24.14 6.15 0.62 12.31 0.74 18.22 0.37 14.29-0.37 28.08-3.2 41.38-8.01 1.72-0.61 3.57-1.23 5.29-1.97 14.29-5.66 27.96-13.79 40.77-23.64 59.23-45.81 100.73-132.14 109.35-219.82l19.21-136.21 46.43-329.05" fill="#2e3082"/>
                <path d="m4330.3 810.02-102.6-111.29s-53.36 313.49-131.09 385.11c-60.41 55.67-319.8 96.93-319.8 96.93l102.55 111.29s255-37.2 313.94-91.51c79.19-72.98 136.96-390.53 136.96-390.53" fill="#f57f82"/>
                <path d="m4179.9 809.86c3.55-16.32 23.17-114.57 23.17-114.57l175.43 38.152-24.84 114.21-173.76-37.789" fill="#fef6e4"/>
                <path d="m4458.4 699.57-244.73-53.23-24.84 114.21 134.62 29.281c63.77 13.867 120.1-21.992 133.97-85.762l0.98-4.5" fill="#282963"/>
                <path d="m4135.3 770.2-113.7-99.871s-20.06 317.37-89.81 396.77c-54.21 61.72-307.82 130.07-307.82 130.07l131.38 66.51s231.99-30.49 284.88-90.71c71.07-80.9 95.07-402.77 95.07-402.77" fill="#f9b8b6"/>
                <path d="m3985.7 785.88c1.82-16.598 10.99-116.37 10.99-116.37l178.46 19.457-12.67 116.19-176.78-19.281" fill="#fef6e4"/>
                <path d="m4251.1 646.87-248.97-27.16-12.67 116.19 136.95 14.934c64.87 7.078 117.12-34.512 124.19-99.383l0.5-4.578" fill="#2a2c6b"/>
               </g>
               <g clip-path="url(#clipPath15903)">
                <path d="m3594.4 1234.1 53.09-390.22s168.66-56.379 387.49 82.621c218.18 138.59 219.09 314.58 219.09 314.58l-232.96 114.98-426.71-121.96" fill="#403293"/>
                <g fill="#fef6e4">
                 <path d="m3643.3 1045.3c0-11.78-8.8-21.33-19.67-21.33-10.86 0-19.67 9.55-19.67 21.33s8.81 21.33 19.67 21.33c10.87 0 19.67-9.55 19.67-21.33"/>
                 <path d="m3717.1 998.11c0-11.789-8.81-21.339-19.67-21.339s-19.67 9.55-19.67 21.339c0 11.781 8.81 21.321 19.67 21.321s19.67-9.54 19.67-21.321"/>
                 <path d="m3753.1 1084.3c0-11.78-8.81-21.33-19.67-21.33s-19.67 9.55-19.67 21.33 8.81 21.33 19.67 21.33 19.67-9.55 19.67-21.33"/>
                 <path d="m3673.6 1119.2c0-11.78-8.81-21.33-19.67-21.33-10.87 0-19.67 9.55-19.67 21.33s8.8 21.33 19.67 21.33c10.86 0 19.67-9.55 19.67-21.33"/>
                 <path d="m3745.7 1169.3c0-11.78-8.8-21.34-19.67-21.34-10.86 0-19.67 9.56-19.67 21.34 0 11.77 8.81 21.33 19.67 21.33 10.87 0 19.67-9.56 19.67-21.33"/>
                 <path d="m3819.6 1122.1c0-11.78-8.81-21.33-19.67-21.33s-19.67 9.55-19.67 21.33 8.81 21.33 19.67 21.33 19.67-9.55 19.67-21.33"/>
                 <path d="m3855.5 1208.3c0-11.78-8.8-21.33-19.67-21.33-10.86 0-19.67 9.55-19.67 21.33s8.81 21.33 19.67 21.33c10.87 0 19.67-9.55 19.67-21.33"/>
                 <path d="m3776 1243.2c0-11.77-8.81-21.32-19.67-21.32-10.87 0-19.67 9.55-19.67 21.32 0 11.79 8.8 21.34 19.67 21.34 10.86 0 19.67-9.55 19.67-21.34"/>
                 <path d="m3770.3 931.18c0-11.782-8.81-21.328-19.67-21.328-10.87 0-19.67 9.546-19.67 21.328 0 11.781 8.8 21.332 19.67 21.332 10.86 0 19.67-9.551 19.67-21.332"/>
                 <path d="m3844.2 883.97c0-11.778-8.81-21.328-19.67-21.328-10.87 0-19.67 9.55-19.67 21.328 0 11.781 8.8 21.332 19.67 21.332 10.86 0 19.67-9.551 19.67-21.332"/>
                 <path d="m3880.1 970.18c0-11.789-8.81-21.328-19.67-21.328-10.87 0-19.67 9.539-19.67 21.328 0 11.781 8.8 21.332 19.67 21.332 10.86 0 19.67-9.551 19.67-21.332"/>
                 <path d="m3800.6 1005.1c0-11.781-8.81-21.332-19.68-21.332-10.86 0-19.67 9.551-19.67 21.332 0 11.78 8.81 21.33 19.67 21.33 10.87 0 19.68-9.55 19.68-21.33"/>
                 <path d="m3883.9 1070.8c0-11.79-8.8-21.33-19.67-21.33-10.86 0-19.67 9.54-19.67 21.33 0 11.78 8.81 21.33 19.67 21.33 10.87 0 19.67-9.55 19.67-21.33"/>
                 <path d="m3957.7 1023.5c0-11.78-8.8-21.33-19.67-21.33-10.86 0-19.67 9.55-19.67 21.33s8.81 21.33 19.67 21.33c10.87 0 19.67-9.55 19.67-21.33"/>
                 <path d="m3993.7 1109.8c0-11.79-8.8-21.34-19.67-21.34-10.86 0-19.67 9.55-19.67 21.34 0 11.77 8.81 21.32 19.67 21.32 10.87 0 19.67-9.55 19.67-21.32"/>
                 <path d="m3914.2 1144.6c0-11.78-8.81-21.33-19.67-21.33-10.87 0-19.67 9.55-19.67 21.33s8.8 21.33 19.67 21.33c10.86 0 19.67-9.55 19.67-21.33"/>
                 <path d="m3908.5 1271.9c0-11.78-8.81-21.33-19.67-21.33s-19.67 9.55-19.67 21.33 8.81 21.33 19.67 21.33 19.67-9.55 19.67-21.33"/>
                 <path d="m3982.3 1224.7c0-11.78-8.81-21.33-19.67-21.33-10.87 0-19.67 9.55-19.67 21.33s8.8 21.34 19.67 21.34c10.86 0 19.67-9.56 19.67-21.34"/>
                 <path d="m4018.3 1310.9c0-11.78-8.81-21.33-19.67-21.33s-19.67 9.55-19.67 21.33 8.81 21.33 19.67 21.33 19.67-9.55 19.67-21.33"/>
                 <path d="m3938.8 1345.8c0-11.78-8.8-21.33-19.67-21.33-10.86 0-19.67 9.55-19.67 21.33s8.81 21.33 19.67 21.33c10.87 0 19.67-9.55 19.67-21.33"/>
                 <path d="m4050.5 1148.7c0-11.78-8.81-21.33-19.67-21.33-10.87 0-19.67 9.55-19.67 21.33s8.8 21.33 19.67 21.33c10.86 0 19.67-9.55 19.67-21.33"/>
                 <path d="m4124.3 1101.5c0-11.77-8.8-21.32-19.67-21.32-10.86 0-19.67 9.55-19.67 21.32 0 11.79 8.81 21.34 19.67 21.34 10.87 0 19.67-9.55 19.67-21.34"/>
                 <path d="m4160.2 1187.7c0-11.78-8.81-21.33-19.67-21.33-10.87 0-19.67 9.55-19.67 21.33s8.8 21.33 19.67 21.33c10.86 0 19.67-9.55 19.67-21.33"/>
                 <path d="m4080.8 1222.6c0-11.78-8.81-21.33-19.67-21.33s-19.67 9.55-19.67 21.33 8.81 21.33 19.67 21.33 19.67-9.55 19.67-21.33"/>
                 <path d="m4097.8 1304.7c0-11.78-8.81-21.33-19.67-21.33-10.87 0-19.68 9.55-19.68 21.33s8.81 21.33 19.68 21.33c10.86 0 19.67-9.55 19.67-21.33"/>
                 <path d="m4171.6 1257.5c0-11.78-8.8-21.33-19.67-21.33-10.86 0-19.67 9.55-19.67 21.33s8.81 21.33 19.67 21.33c10.87 0 19.67-9.55 19.67-21.33"/>
                 <path d="m4207.6 1343.7c0-11.78-8.81-21.33-19.67-21.33-10.87 0-19.67 9.55-19.67 21.33s8.8 21.33 19.67 21.33c10.86 0 19.67-9.55 19.67-21.33"/>
                 <path d="m4025.9 961.97c0-11.778-8.81-21.34-19.67-21.34s-19.67 9.562-19.67 21.34c0 11.781 8.81 21.332 19.67 21.332s19.67-9.551 19.67-21.332"/>
                 <path d="m4099.7 914.76c0-11.782-8.81-21.332-19.67-21.332-10.87 0-19.67 9.55-19.67 21.332 0 11.777 8.8 21.328 19.67 21.328 10.86 0 19.67-9.551 19.67-21.328"/>
                 <path d="m4135.6 1001c0-11.78-8.81-21.331-19.67-21.331s-19.67 9.551-19.67 21.331 8.81 21.33 19.67 21.33 19.67-9.55 19.67-21.33"/>
                 <path d="m4056.2 1035.8c0-11.77-8.81-21.32-19.68-21.32-10.86 0-19.67 9.55-19.67 21.32 0 11.79 8.81 21.34 19.67 21.34 10.87 0 19.68-9.55 19.68-21.34"/>
                 <path d="m3912.3 834.71c0-11.781-8.81-21.332-19.68-21.332-10.86 0-19.67 9.551-19.67 21.332 0 11.777 8.81 21.328 19.67 21.328 10.87 0 19.68-9.551 19.68-21.328"/>
                 <path d="m4022.1 873.71c0-11.781-8.81-21.332-19.68-21.332-10.86 0-19.67 9.551-19.67 21.332s8.81 21.328 19.67 21.328c10.87 0 19.68-9.547 19.68-21.328"/>
                 <path d="m3942.6 908.6c0-11.782-8.81-21.332-19.67-21.332s-19.67 9.55-19.67 21.332c0 11.777 8.81 21.328 19.67 21.328s19.67-9.551 19.67-21.328"/>
                 <path d="m4179.2 1066.6c0-11.78-8.8-21.33-19.67-21.33-10.86 0-19.67 9.55-19.67 21.33s8.81 21.33 19.67 21.33c10.87 0 19.67-9.55 19.67-21.33"/>
                 <path d="m4253 1019.4c0-11.77-8.81-21.321-19.67-21.321s-19.67 9.551-19.67 21.321c0 11.79 8.81 21.34 19.67 21.34s19.67-9.55 19.67-21.34"/>
                 <path d="m4289 1105.6c0-11.78-8.8-21.33-19.67-21.33-10.86 0-19.67 9.55-19.67 21.33s8.81 21.33 19.67 21.33c10.87 0 19.67-9.55 19.67-21.33"/>
                 <path d="m4209.5 1140.5c0-11.78-8.81-21.33-19.67-21.33-10.87 0-19.67 9.55-19.67 21.33s8.8 21.33 19.67 21.33c10.86 0 19.67-9.55 19.67-21.33"/>
                 <path d="m4249.2 1228.8c0-11.78-8.81-21.33-19.67-21.33-10.87 0-19.68 9.55-19.68 21.33s8.81 21.33 19.68 21.33c10.86 0 19.67-9.55 19.67-21.33"/>
                 <path d="m4279.5 1302.7c0-11.78-8.81-21.33-19.67-21.33s-19.67 9.55-19.67 21.33 8.81 21.33 19.67 21.33 19.67-9.55 19.67-21.33"/>
                 <path d="m3637.8 820.35c0-11.793-8.81-21.34-19.67-21.34-10.87 0-19.67 9.547-19.67 21.34 0 11.769 8.8 21.32 19.67 21.32 10.86 0 19.67-9.551 19.67-21.32"/>
                 <path d="m3747.6 859.34c0-11.781-8.81-21.328-19.67-21.328-10.87 0-19.67 9.547-19.67 21.328s8.8 21.332 19.67 21.332c10.86 0 19.67-9.551 19.67-21.332"/>
                 <path d="m3668.1 894.23c0-11.769-8.81-21.32-19.67-21.32s-19.67 9.551-19.67 21.32c0 11.79 8.81 21.34 19.67 21.34s19.67-9.55 19.67-21.34"/>
                 <path d="m3662.4 1179.5c0-11.78-8.8-21.33-19.67-21.33-10.86 0-19.67 9.55-19.67 21.33s8.81 21.33 19.67 21.33c10.87 0 19.67-9.55 19.67-21.33"/>
                 <path d="m3698.4 1265.7c0-11.78-8.81-21.33-19.67-21.33-10.87 0-19.68 9.55-19.68 21.33s8.81 21.34 19.68 21.34c10.86 0 19.67-9.56 19.67-21.34"/>
                 <path d="m3618.9 1300.6c0-11.78-8.81-21.33-19.67-21.33s-19.67 9.55-19.67 21.33c0 11.79 8.81 21.33 19.67 21.33s19.67-9.54 19.67-21.33"/>
                </g>
               </g>
               <g fill="#f9b8b6">
                <path d="m4100.4 1557.6 19.4 12.79c23.21 15.3 54.72 8.83 70.02-14.38s8.83-54.72-14.38-70.02l-19.4-12.79c-23.21-15.3-54.72-8.83-70.02 14.38s-8.83 54.72 14.38 70.02"/>
                <path d="m4157.1 1507 86 56.69c6.28 4.14 14.81 2.38 18.95-3.89 4.14-6.28 2.39-14.81-3.89-18.95l-86-56.69c-6.28-4.14-14.81-2.39-18.95 3.89s-2.39 14.81 3.89 18.95"/>
                <path d="m4162.9 1555.6 69.05 45.51c6.28 4.14 14.81 2.39 18.95-3.89s2.39-14.8-3.89-18.94l-69.05-45.52c-6.28-4.14-14.81-2.39-18.95 3.89s-2.39 14.81 3.89 18.95"/>
                <path d="m4129.5 1573.5 81.73 53.87c6.28 4.14 14.81 2.39 18.95-3.89s2.39-14.81-3.9-18.94l-81.72-53.88c-6.28-4.14-14.81-2.39-18.95 3.89s-2.39 14.8 3.89 18.95"/>
                <path d="m4090.9 1523.9 42.56 88.15c3.27 6.78 11.49 9.64 18.26 6.37 6.78-3.27 9.65-11.49 6.38-18.26l-42.56-88.15c-3.28-6.78-11.49-9.64-18.27-6.38-6.77 3.28-9.64 11.49-6.37 18.27"/>
               </g>
               <path stroke-linejoin="round" d="m3628.9 1613.3s112.58-150.09 262.32-172.33c115.94-17.22 232.92 71.26 232.92 71.26" stroke="#f9b8b6" stroke-linecap="round" stroke-miterlimit="10" stroke-width="100" fill="none"/>
               <g>
                <path d="m3631.8 1502.9-34.21 27.15c-36.01 28.59-42.09 81.45-13.5 117.47 28.59 36.01 81.44 42.09 117.46 13.5l34.21-27.15c36.02-28.59 42.1-81.45 13.51-117.47-28.59-36.01-81.45-42.09-117.47-13.5" fill="#282963"/>
                <path d="m3805.6 1803c0-43.97-35.59-79.56-79.56-79.56-41.62 0-75.86 32.14-79.18 73.15 5.91 4.56 11.94 8.75 18.22 12.44 21.92 13.06 46.43 21.55 72.79 24.14 6.15 0.62 12.31 0.74 18.22 0.37 14.29-0.37 28.08-3.2 41.38-8.01 1.72-0.61 3.57-1.23 5.29-1.97 1.85-6.52 2.84-13.42 2.84-20.56" fill="#fff"/>
                <path d="m3800.8 1930.9 16.82 10.79c148.38 95.1 191.58 292.48 96.47 440.87-95.1 148.38-292.49 191.57-440.87 96.47l-16.83-10.79c-148.38-95.1-191.57-292.49-96.47-440.87 95.11-148.38 292.49-191.57 440.88-96.47" fill="#914b4c"/>
                <path d="m3956 2330.7 32.24-83.13c1.96-5.07 1.22-10.99 2.95-15.95 11.66-35.87 15.23-74.43 12.8-110.32-7.01-109.81-77.12-213.21-186.05-255.45l-8.99-3.48c-149.43-57.95-323.49 18.31-381.44 167.74l-32.24 83.13c-57.95 149.43 24.6 309.12 174.04 367.07l8.98 3.49c149.43 57.95 319.76-3.67 377.71-153.1" fill="#f9b8b6"/>
                <path d="m3910.9 2112.6c13.32-34.33-4.72-92.47-48.21-109.34-43.52-16.88-96.04 13.9-109.35 48.24l157.56 61.1" fill="#fff"/>
               </g>
               <g fill="#f68884">
                <path d="m3795.5 2121.4c-4.92 0-9.56 2.98-11.44 7.84-2.46 6.32 0.68 13.43 7 15.88l34.33 13.31c1.46 0.57 2.96 0.84 4.44 0.84 4.91 0 9.56-2.98 11.44-7.84 2.45-6.32-0.68-13.43-7.01-15.88l-34.32-13.32c-1.46-0.56-2.96-0.83-4.44-0.83"/>
                <path d="m3631 1983.4c-21.94 0-42.64 13.28-51.05 34.96-10.93 28.18 3.06 59.9 31.25 70.83 6.5 2.52 13.19 3.71 19.78 3.71 21.93 0 42.64-13.28 51.04-34.96 10.94-28.18-3.05-59.9-31.24-70.83-6.5-2.52-13.2-3.71-19.78-3.71"/>
                <path d="m3993 2121.5c-21.96 0-42.6 13.27-51 34.93-10.96 28.25 3.1 59.82 31.36 70.77 5.06 1.96 10.21 3.22 15.35 3.52 11.66-35.88 15.93-72.55 13.5-108.44-3.08-0.53-6.16-0.78-9.21-0.78"/>
               </g>
               <g>
                <path d="m3731.9 1742.3 0.35 0.04c-29.14-2.89-53.56 20.42-56.6 51.02l-12.6 127.13 104.64 10.37 12.61-127.12c3.03-30.61-19.27-58.55-48.4-61.44" fill="#f9b8b6"/>
                <path d="m3661.2 2321.2-128.34-73.77c-61.37-35.28-90.02-108.45-68.9-176.03l-11.1-136.78s-74.87 50.14-115.89 173.52c-41.01 123.39 10.91 387.55 322.75 393.81l1.48-180.75" fill="#914b4c"/>
                <path d="m3505 2047.9c13.09-33.74-3.66-71.7-37.4-84.78-33.74-13.09-71.69 3.66-84.78 37.39-13.08 33.74 3.66 71.7 37.4 84.78 33.74 13.09 71.7-3.65 84.78-37.39" fill="#f9b8b6"/>
               </g>
               <path stroke-linejoin="round" d="m3724.4 2174.2s-25.93 22.01-53.1 9.11c-27.16-12.9-26.89-40.77-26.89-40.77" stroke="#6d2c17" stroke-linecap="round" stroke-miterlimit="10" stroke-width="39.776" fill="none"/>
               <path stroke-linejoin="round" d="m3917.9 2250.8s-25.93 22.01-53.1 9.11-26.9-40.77-26.9-40.77" stroke="#6d2c17" stroke-linecap="round" stroke-miterlimit="10" stroke-width="39.776" fill="none"/>
               <g fill="#914b4c">
                <path d="m3579.6 2289.2 26.42-72.19 387.57 154.34s-88.85 200.99-318.44 159.88c0 0-154.05-23.21-95.55-242.03"/>
                <path d="m3076.2 2166.8s221.74 56.79 264.5 103.44c42.75 46.63 39.6 119.09-7.04 161.85-46.63 42.75-119.1 39.6-161.85-7.04-42.75-46.63-95.61-258.25-95.61-258.25"/>
                <path d="m3471.9 2416.1s211.73 20.21 260.85 60.09c49.11 39.88 56.59 112.03 16.71 161.15-39.88 49.11-112.02 56.6-161.14 16.71-49.11-39.88-116.42-237.95-116.42-237.95"/>
               </g>
               <g>
                <path d="m3338.6 2399.1 32.85-153.54c6.71-31.36-25.5-56.26-53.52-41.37l-46.74 24.84c-29.09 15.46-26.03 58.69 4.91 69.39l150.89 52.19c31.17 10.77 33.97 54.44 4.46 69.62l-39.78 20.46c-28 14.4-59.73-10.47-53.07-41.59" fill="#f7d121"/>
                <path d="m3344.3 2281.1c18.4-7.09 38.88 2.29 45.74 20.95s-2.49 39.53-20.89 46.62-38.88-2.29-45.75-20.95c-6.86-18.66 2.5-39.53 20.9-46.62" fill="#fff"/>
                <path d="m3777 2623.6-115.29-106.58c-23.55-21.77-61.4-6.77-62.88 24.93l-2.48 52.87c-1.55 32.9 37.19 52.33 62.18 31.18l121.86-103.15c25.17-21.31 64.16-1.44 62.16 31.67l-2.69 44.65c-1.9 31.43-39.49 46.04-62.86 24.43" fill="#f7d121"/>
                <path d="m3678.5 2558.6c3.29-19.44 21.81-32.27 41.36-28.65 19.54 3.61 32.72 22.31 29.43 41.75s-21.8 32.27-41.35 28.66c-19.55-3.62-32.73-22.31-29.44-41.76" fill="#fff"/>
                <path d="m3856.4 2310.4c-2.82 0-5.49 1.29-7.24 3.48l16.48 6.56c0.35-4.16-2.17-8.19-6.32-9.57-0.97-0.32-1.95-0.47-2.92-0.47" fill="#b47d7d"/>
                <path d="m3849.1 2313.8c-0.67 0.83-1.2 1.79-1.55 2.86-19.94 59.93-49.46 97.1-74.13 119.55-24.43 22.2-44.17 29.89-44.98 30.19-1.97 0.73-3.55 2.05-4.6 3.7 3.36 1.95 6.33 3.96 8.87 6.02 2.28 1.86 4.48 3.79 6.59 5.78 7.83-3.61 25.12-12.75 45.31-30.83 27.07-24.22 59.27-64.58 80.52-128.57 0.24-0.71 0.38-1.42 0.45-2.14l-16.48-6.56" fill="#70383b"/>
                <path d="m3723.9 2470.1c-1.51 2.36-1.93 5.37-0.89 8.2 1.38 3.75 4.92 6.07 8.69 6.07 1.07 0 2.15-0.19 3.21-0.58 0.21-0.07 1.78-0.66 4.45-1.89-2.11-1.99-4.31-3.92-6.59-5.78-2.54-2.06-5.51-4.07-8.87-6.02" fill="#70383b"/>
                <path d="m3764.1 2275.8c-2.06 0-4.05 0.69-5.65 1.92l14.79 5.9c-0.52-3.26-2.77-6.14-6.1-7.3-1.01-0.35-2.03-0.52-3.04-0.52" fill="#b47d7d"/>
                <path d="m3758.4 2277.7c-1.39 1.07-2.49 2.53-3.11 4.3-33.43 96.03-97.15 142.15-100.29 144.35l-0.1 0.07c-4.22 2.91-5.28 8.68-2.37 12.89 1.79 2.61 4.69 4.01 7.64 4.01 1.81 0 3.64-0.53 5.25-1.63 0.91-0.67 70.87-49.03 107.37-153.59 0.52-1.5 0.64-3.04 0.4-4.5l-14.79-5.9" fill="#70383b"/>
                <path d="m3670.4 2239c-1.88 0-3.7 0.58-5.22 1.62l14.28 5.68c-0.68-3.14-2.99-5.84-6.28-6.88-0.93-0.28-1.86-0.42-2.78-0.42" fill="#b47d7d"/>
                <path d="m3566.3 2378.5c-1.57 2.63-1.8 5.97-0.34 8.9 0.15 0.3 0.31 0.58 0.48 0.85-0.11-3.18-0.16-6.42-0.14-9.75" fill="#70383b"/>
                <path d="m3665.2 2240.6c-1.66 1.13-2.97 2.81-3.61 4.88-30.73 97.84-89.95 128.7-91.42 129.53-1.64 0.82-2.94 2.06-3.81 3.53-0.02 3.33 0.03 6.57 0.14 9.75 1.74 2.72 4.73 4.28 7.82 4.28 1.39 0 2.81-0.32 4.14-0.98 0.74-0.38 17.59-8.92 38.47-30.72 20.87-21.78 45.73-56.86 62.34-109.85 0.5-1.59 0.55-3.22 0.21-4.74l-14.28-5.68" fill="#70383b"/>
                <path d="m3949.3 2349.8c-0.53 0-1.05 0.04-1.56 0.13-0.43 0.91-0.86 1.8-1.3 2.7l11.98 4.78c-0.6-3.27-2.93-6.1-6.31-7.18-0.94-0.29-1.88-0.43-2.81-0.43" fill="#b8aaab"/>
                <path d="m3947.8 2349.9c-1.42 0.25-2.76 0.82-3.92 1.66l2.62 1.04c0.44-0.9 0.87-1.79 1.3-2.7" fill="#b47d7d"/>
                <path d="m3943.8 2351.6c-1.53 1.13-2.73 2.73-3.35 4.68-13.78 43.41-39.26 75.34-61.97 96.75-22.69 21.4-42.54 32.18-44.42 33.16l-0.14 0.08v-0.01c-4.55 2.34-6.34 7.93-4 12.48 1.64 3.2 4.88 5.03 8.24 5.03 1.43 0 2.88-0.33 4.23-1.03 0.52-0.27 21.54-11.11 46.46-34.04 24.89-22.92 53.76-58.05 69.27-106.82 0.47-1.49 0.55-3.02 0.28-4.46l-11.98-4.78-2.62-1.04" fill="#70383b"/>
                <path d="m3786 1694.5c1.85-7.88-2.09-15.55-8.79-17.12-6.71-1.58-13.65 3.53-15.5 11.42-1.85 7.88 2.08 15.55 8.79 17.12 6.71 1.58 13.65-3.53 15.5-11.42" fill="#fef6e4"/>
                <path d="m3801.3 1633.6c1.85-7.88-2.09-15.55-8.8-17.13-6.7-1.57-13.64 3.54-15.49 11.42-1.85 7.89 2.08 15.56 8.79 17.13 6.71 1.58 13.65-3.54 15.5-11.42" fill="#fef6e4"/>
                <path d="m4468.7 1675.9-42.66-14.81-84.8 244.32 42.66 14.8 84.8-244.31" fill="#403293"/>
                <path d="m4383.8 1920.5-41.77-14.49 5.31 27.91 3 15.38 11.89-10.22 21.57-18.58" fill="#f9b159"/>
                <path d="m4362.2 1939-14.89-5.16 3 15.38 11.89-10.22" fill="#403293"/>
                <path d="m4336.1 1724.3 23.19 95.1c1.78 7.31 9.22 11.83 16.53 10.05 7.3-1.78 11.82-9.22 10.04-16.53l-23.18-95.1c-1.78-7.31-9.22-11.83-16.53-10.05s-11.83 9.22-10.05 16.53" fill="#f57f82"/>
                <path d="m4868.9 1659.4-611.72-167.42 4.06-14.85 611.72 167.42-4.06 14.85" fill="#fff"/>
                <path d="m2350.2 1570.7-63.59-7.32-41.96 364.18 63.58 7.33 41.97-364.19" fill="#eb2f38"/>
                <path d="m2308.1 1935.3-62.26-7.17 15.95 36.98 8.9 20.36 13.3-17.8 24.11-32.37" fill="#f9b159"/>
                <path d="m2284 1967.6-22.2-2.56 8.9 20.36 13.3-17.8" fill="#eb2f38"/>
                <path d="m2351.8 1565.8-60.5-20.9-119.71 346.49 60.5 20.9 119.71-346.49" fill="#f46f9a"/>
                <path d="m2232 1912.7-59.23-20.46 7.57 39.55 4.29 21.8 16.83-14.5 30.54-26.39" fill="#f9b159"/>
                <path d="m2201.4 1939.1-21.12-7.3 4.29 21.8 16.83-14.5" fill="#f46f9a"/>
                <path d="m2379.3 1585.2h-145.35l-29.07 192.25h203.49l-29.07-192.25" fill="#f7d121"/>
                <path d="m2249.8 483.71c-27.16 0-49.17 22.019-49.17 49.18v1020.5c0 27.17 22.01 49.18 49.17 49.18s49.18-22.01 49.18-49.18v-1020.5c0-27.161-22.02-49.18-49.18-49.18" fill="#484d69"/>
                <path d="m1501.4 1371.3c-9.61 35.19 11.12 71.51 46.31 81.11l951.88 259.95c35.18 9.61 71.5-11.12 81.11-46.31 9.61-35.18-11.13-71.49-46.31-81.1l-951.88-259.95c-35.19-9.61-71.5 11.12-81.11 46.3" fill="#d1633e"/>
                <path d="m1635.7 518.52c0 27.16 22.01 49.179 49.18 49.179h856.52c27.16 0 49.18-22.019 49.18-49.179 0-27.161-22.02-49.18-49.18-49.18h-856.52c-27.17 0-49.18 22.019-49.18 49.18" fill="#484d69"/>
               </g>
               <g fill="#2f324b">
                <path d="m932.92 462.73c-14.719 0-26.762 12.051-26.762 26.77v454.94c0 14.719 12.043 26.77 26.762 26.77s26.762-12.051 26.762-26.77v-454.94c0-14.719-12.043-26.77-26.762-26.77"/>
                <path d="m1410.2 462.73c-14.72 0-26.76 12.051-26.76 26.77v454.94c0 14.719 12.04 26.77 26.76 26.77s26.76-12.051 26.76-26.77v-454.94c0-14.719-12.04-26.77-26.76-26.77"/>
                <path d="m932.92 685.75c0 14.719 12.043 26.762 26.762 26.762h454.95c14.72 0 26.76-12.043 26.76-26.762s-12.04-26.762-26.76-26.762h-454.92c-14.719 0-26.762 12.043-26.762 26.762"/>
               </g>
               <path d="m761.94 1319.1c0-12.85-1.539-47.27-3.511-86.08-4.457-87.65 55.086-165.69 140.82-184.44l41.101-9" stroke="#2f324b" stroke-miterlimit="10" stroke-width="97.637" fill="none"/>
               <g>
                <path d="m1526.1 1030.7c0-25.33-10.37-48.411-27.08-65.118-16.6-16.72-39.7-27.08-65-27.08h-523.37c-50.711 0-92.207 41.488-92.207 92.2 0 25.33 10.363 48.35 27.082 65.07s39.738 27.08 65.125 27.08h523.34c50.71 0 92.16-41.5 92.16-92.15" fill="#eb2f38"/>
                <path d="m761.94 1295.3c-49.062 0-89.203 40.14-89.203 89.2v294.38c0 49.06 40.141 89.21 89.203 89.21 49.063 0 89.207-40.15 89.207-89.21v-294.38c0-49.06-40.144-89.2-89.207-89.2" fill="#eb2f38"/>
                <path d="m1368.3 1648.2c14.92 39.22-6.46 90.15-45.68 105.07l-70.12 33.38c-39.21 14.91-111.73 5.79-126.65-33.43l-13.37-35.5c-14.92-39.21 45.74-80.75 84.95-95.67l67.66-25.74c39.21-14.92 88.29 12.68 103.21 51.89" fill="#31334b"/>
                <path d="m1011.5 1502.9-34.212 27.15c-36.02 28.59-42.098 81.45-13.508 117.47 28.586 36.01 81.45 42.09 117.46 13.5l34.21-27.15c36.02-28.59 42.1-81.45 13.51-117.47-28.59-36.01-81.45-42.09-117.46-13.5" fill="#282963"/>
                <path d="m2242.2 1682.2-611.72-167.42 12.27-37.61 611.71 167.42-12.26 37.61" fill="#327051"/>
                <path d="m2236.8 1696.8-611.72-167.42 12.27-37.61 611.72 167.42-12.27 37.61" fill="#fef7e6"/>
                <path d="m1526.1 1030.7c0-25.33-10.37-48.411-27.08-65.118-16.67-16.723-39.75-27.082-65.08-27.082h-364.32l-73.013 184.35h437.33c50.71 0 92.16-41.5 92.16-92.15" fill="#9e2932"/>
                <path d="m5464.7 1913h2439.2v1965.2h-2439.2z" fill="#31334b"/>
                <path d="m7877.8 1939.1h-67.54v638.9c2.37-0.21 4.78-0.32 7.21-0.32h0.05c24.26 0.02 45.94 11.07 60.28 28.42v-667m0 1674.2c-21.71 6.51-44.31 10.98-67.54 13.2v142.41h-2303.8v67.53h2341.6c15.56-1.83 27.92-14.22 29.7-29.8v-193.34" fill="#2a2636"/>
                <path d="m5467.6 1915.9h2433.4v1959.4h-2433.4v-1959.4m2436.3-5.65h-2439.2c-1.56 0-2.82 1.27-2.82 2.83v1965.1c0 1.55 1.26 2.82 2.82 2.82h2439.1c1.56 0 2.82-1.27 2.82-2.82v-1965c0-1.56-1.26-2.83-2.82-2.83" fill="#ef2e36"/>
                <path d="m5506.5 1939.1h2371.3v1897.3h-2371.3v-1897.3m2405.2-67.78h-2439.1c-18.72 0-33.9 15.17-33.9 33.89v1965.1c0 18.72 15.18 33.89 33.9 33.89h2439.1c18.72 0 33.89-15.17 33.89-33.89v-1965.1c0-18.72-15.17-33.89-33.89-33.89" fill="#ea3a46"/>
                <path d="m7891.9 1860.2h-2402.7c-30.55 0-55.32 24.76-55.32 55.31v0.85c0 30.55 24.77 55.31 55.32 55.31h2402.7c30.55 0 55.32-24.76 55.32-55.31v-0.85c0-30.55-24.77-55.31-55.32-55.31" fill="#933c5c"/>
                <path d="m7947.2 1932.8v8.61c0 16.75-13.58 30.32-30.32 30.32h-2452.6c-16.75 0-30.33-13.57-30.33-30.32v-8.61h2513.3" fill="#f04156"/>
                <path d="m7797.1 1559.6v-178.22c0-104.13-79.37-189.8-180.89-199.78h-558.9l-120.5-567.29h-316.66c-0.44 4.23 198.31 863.19 198.31 863.19 16.29 51.57 62.43 82.46 117.32 82.46l33.33-0.33h828.01" fill="#1f2542"/>
               </g>
               <g fill="#2f324b">
                <path d="m8092.2 468.89c14.72 0 26.77 12.05 26.77 26.757v509.77c0 14.72-12.05 26.76-26.77 26.76s-26.76-12.04-26.76-26.76v-509.75c0-14.707 12.04-26.757 26.76-26.757"/>
                <path d="m7614.9 468.89c14.72 0 26.76 12.05 26.76 26.757v509.77c0 14.72-12.04 26.76-26.76 26.76s-26.77-12.04-26.77-26.76v-509.75c0-14.707 12.05-26.757 26.77-26.757"/>
                <path d="m8092.2 746.72c0 14.73-12.04 26.769-26.76 26.769h-443.98c-14.72 0-26.76-12.039-26.76-26.769 0-14.707 12.04-26.758 26.76-26.758h443.98c14.72 0 26.76 12.051 26.76 26.758"/>
               </g>
               <path d="m8301.5 1380.1c0-12.84 1.54-47.27 3.52-86.07 3.33-65.51-156.29-187.83-140.83-184.45l-41.1-8.99" stroke="#2f324b" stroke-miterlimit="10" stroke-width="97.637" fill="none"/>
               <g>
                <path d="m7591.2 1010.4h523.33c50.7 0 92.18 41.48 92.18 92.18s-41.48 92.18-92.18 92.18h-523.33c-50.7 0-92.18-41.48-92.18-92.18s41.48-92.18 92.18-92.18" fill="#eb2f38"/>
                <path d="m8352.4 1739.9v-294.37c0-38.49-24.72-71.54-59.04-83.99-9.43-3.4-19.57-5.26-30.15-5.26-49.06 0-89.19 40.19-89.19 89.25v294.37c0 24.5 10.03 46.81 26.21 62.99 16.17 16.17 38.48 26.2 62.98 26.2 10.58 0 20.72-1.86 30.15-5.26 34.32-12.45 59.04-45.45 59.04-83.93" fill="#a72932"/>
                <path d="m8352.4 1739.9v-294.37c0-38.49-24.72-71.54-59.04-83.99-34.32 12.45-59.04 45.5-59.04 83.99v294.37c0 24.5 10.03 46.81 26.2 62.99 9.21 9.2 20.4 16.39 32.84 20.94 34.32-12.45 59.04-45.45 59.04-83.93" fill="#eb2f38"/>
               </g>
               <g fill="#f9b8b6">
                <path d="m6727 2263.7-35.82 9.82c-42.85 11.76-87.52-13.67-99.28-56.51-11.76-42.85 13.67-87.52 56.52-99.28l35.82-9.83c42.85-11.76 87.52 13.67 99.28 56.52 11.76 42.84-13.68 87.52-56.52 99.28"/>
                <path d="m6665.8 2158.8-158.74 43.56c-11.6 3.19-23.69-3.7-26.87-15.29s3.7-23.68 15.3-26.86l158.74-43.57c11.6-3.18 23.68 3.7 26.87 15.29 3.18 11.6-3.7 23.69-15.3 26.87"/>
                <path d="m6633 2229.7-127.46 34.98c-11.6 3.18-23.69-3.7-26.87-15.3-3.18-11.59 3.7-23.68 15.3-26.86l127.46-34.98c11.59-3.19 23.68 3.7 26.86 15.29s-3.7 23.68-15.29 26.87"/>
                <path d="m6674.9 2273.6-150.87 41.41c-11.59 3.18-23.68-3.7-26.86-15.29-3.19-11.59 3.7-23.68 15.29-26.87l150.87-41.4c11.59-3.18 23.68 3.7 26.86 15.29 3.18 11.6-3.7 23.69-15.29 26.86"/>
                <path d="m6776.4 2222.8-108.32 112.88c-8.32 8.68-22.23 8.96-30.9 0.64-8.68-8.32-8.96-22.23-0.64-30.9l108.32-112.88c8.32-8.68 22.23-8.96 30.91-0.64 8.67 8.32 8.96 22.23 0.63 30.9"/>
               </g>
               <path stroke-linejoin="round" d="m7555.7 2402.6s-169.9-178.88-406.11-231.22c-182.9-40.53-411.02 9.09-411.02 9.09" stroke="#f9b8b6" stroke-linecap="round" stroke-miterlimit="10" stroke-width="150" fill="none"/>
               <g>
                <path d="m7464.5 2158.8-153.48 209.66 327.53 246.7c51.03 43.5 127.66 37.4 171.16-13.63s-92.72-251.22-143.75-294.72l-201.46-148.01" fill="#b28446"/>
                <path d="m8186.8 2190.4v-801.5c0-105.14-86.56-191.64-197.35-201.73-7.07-0.66-14.3-0.99-21.65-0.99h-236.43c-7.34 0-14.58 0.33-21.65 0.99-110.79 10.09-197.35 96.59-197.35 201.73v970.23c0 112.59 44.35 178.16 110.51 239.49 15.96 14.86 33.44 28.24 52.14 40.02l1.64 1.04c1.65 0.99 3.29 2.03 4.93 3.02 2.8 1.59 5.59 3.29 8.39 4.82l0.11 0.06 0.06 0.05v0.17c3.39 1.92 6.85 3.84 10.36 5.64l0.22 0.11 1.15 0.55 1.31 0.71c5.27 2.8 10.69 5.43 16.18 7.9 39.9 18.25 116.7 30.04 163.13 33.76 1.15-0.05 2.3-0.16 3.46-0.32 2.52-0.17 5.04-0.44 7.51-0.72 2.79-0.27 5.59-0.6 8.33-0.98 2.19-0.27 4.39-0.61 6.52-0.93 2.3-0.28 4.55-0.66 6.86-1.04 3.23-0.56 6.41-1.1 9.59-1.76 2.96-0.55 5.86-1.15 8.77-1.75 2.8-0.61 5.54-1.21 8.28-1.92 2.35-0.55 4.71-1.1 7.01-1.76 3.95-0.93 7.84-2.02 11.68-3.18 1.92-0.54 3.78-1.09 5.7-1.69 6.85-2.09 13.65-4.39 20.34-6.91 1.92-0.66 3.84-1.37 5.7-2.2 4.72-1.8 9.48-3.72 14.09-5.81 2.14-0.87 4.27-1.8 6.36-2.79 5.48-2.47 10.91-5.1 16.17-7.9l1.31-0.71 1.16-0.55 0.21-0.11c3.51-1.8 6.97-3.72 10.37-5.64v-0.17l0.05-0.05 0.11-0.06c2.8-1.53 5.59-3.23 8.39-4.82 21.16-12.72 40.89-27.52 58.7-44.08 66.17-61.33 110.52-126.9 110.52-239.49l-32.89-168.73" fill="#c49b59"/>
                <path d="m7709.1 1691.3 72.99 826.17 24.52 6.99 25.47-6.99 72.05-826.16-97.52-97.52-97.51 97.51" fill="#29315b"/>
                <path d="m8123.7 1568.9c19.52 0 54.19 2.65 63.15 11.62v-191.59c0-104.42-79.05-190.46-180.55-201.51-1.4-0.16-2.81-0.22-4.21-0.22h-528.48c-16.54 0-30.86-11.47-34.49-27.6l-104-517.7c-3.63-16.128-17.95-27.589-34.49-27.589h-301.88v-2.137c-0.82 4.988-0.61 9.918 0.76 14.859l198.83 857.34c0.25 1.03 0.54 2.06 0.87 3.07 16.87 51.16 63.1 81.74 117.97 81.74h33.66l772.94-0.32" fill="#29315b"/>
                <path d="m6686.3 2173.2-40.51-15.62c-8.37-3.22-17.79 0.87-21.13 9.2l-82.91 206.49c-3.41 8.49 0.79 18.14 9.33 21.43l40.51 15.61c8.38 3.23 17.79-0.87 21.13-9.2l82.91-206.48c3.41-8.5-0.79-18.14-9.33-21.43" fill="#fff"/>
               </g>
               <g fill="#f9b8b6">
                <path d="m7923.8 1495.2-22.59-29.49c-27.03-35.27-20.28-86.23 14.99-113.25 35.26-27.02 86.23-20.28 113.25 14.99l22.59 29.48c27.02 35.27 20.28 86.23-14.99 113.25-35.26 27.03-86.23 20.28-113.25-14.98"/>
                <path d="m7998 1398.9-100.13-130.67c-7.31-9.54-5.48-23.33 4.06-30.65 9.54-7.31 23.33-5.48 30.65 4.06l100.12 130.67c7.31 9.54 5.48 23.33-4.06 30.64s-23.33 5.49-30.64-4.05"/>
                <path d="m7919.9 1395.3-80.39-104.92c-7.31-9.54-5.49-23.33 4.06-30.64 9.54-7.32 23.33-5.49 30.64 4.05l80.39 104.92c7.31 9.54 5.49 23.33-4.06 30.65-9.54 7.31-23.33 5.48-30.64-4.06"/>
                <path d="m7895 1450.6-95.15-124.19c-7.31-9.54-5.48-23.33 4.06-30.64s23.33-5.49 30.64 4.06l95.16 124.18c7.31 9.54 5.48 23.33-4.06 30.64s-23.33 5.49-30.65-4.05"/>
                <path d="m7978.6 1506.4-145.35-57.86c-11.17-4.44-16.67-17.22-12.23-28.39 4.45-11.17 17.23-16.67 28.4-12.23l145.35 57.86c11.17 4.45 16.67 17.23 12.23 28.39-4.45 11.17-17.23 16.67-28.4 12.23"/>
               </g>
               <path stroke-linejoin="round" d="m8087.6 2404s75.07-214.26 67.39-456.08c-8.49-267.47-149.75-473.35-149.75-473.35" stroke="#f9b8b6" stroke-linecap="round" stroke-miterlimit="10" stroke-width="150" fill="none"/>
               <g>
                <path d="m8275.8 2214.4-237.62-49.99-48.8 232.02c-13.8 65.62 28.21 130.01 93.83 143.81s130-28.21 143.8-93.83l48.79-232.01" fill="#b28446"/>
                <path d="m7845.2 2446.6h-75.81c-4.43 0-8.34 2.92-9.59 7.18l-35.8 121.82c0 0.95 0.98 1.72 2.2 1.72h158.02c1.21 0 2.2-0.77 2.2-1.72l-31.55-121.52c-1.14-4.4-5.12-7.48-9.67-7.48" fill="#29315b"/>
                <path d="m8006.4 2665.5-90.07-173-104.32 73.73-141.87-61.07s-0.05 72.34 6.58 134.52c1.65 0.99 3.29 2.03 4.93 3.02 2.8 1.59 5.59 3.29 8.39 4.82l0.11 0.06 0.06 0.05v0.17c3.39 1.92 6.85 3.84 10.36 5.64l0.22 0.11 1.15 0.55 1.31 0.71c5.27 2.8 10.69 5.43 16.18 7.9 39.9 18.25 116.7 30.04 163.13 33.76 1.15-0.05 2.3-0.16 3.46-0.32 2.52-0.17 5.04-0.44 7.51-0.72 2.79-0.27 5.59-0.6 8.33-0.98 2.19-0.27 4.39-0.61 6.52-0.93 2.3-0.28 4.55-0.66 6.86-1.04 3.23-0.56 6.41-1.1 9.59-1.76 2.96-0.55 5.86-1.15 8.77-1.75 2.8-0.61 5.54-1.21 8.28-1.92 2.35-0.55 4.71-1.1 7.01-1.76 3.95-0.93 7.84-2.02 11.68-3.18 1.92-0.54 3.78-1.09 5.7-1.69 6.85-2.09 13.65-4.39 20.34-6.91 1.92-0.66 3.84-1.37 5.7-2.2 4.72-1.8 9.48-3.72 14.09-5.81" fill="#fff"/>
                <path d="m7739.7 2939.4-0.44-283.37c-0.06-43.3 35.04-78.42 78.33-78.39 43.16 0.03 78.14 34.99 78.21 78.15l0.44 283.38c0.06 43.29-35.04 78.42-78.33 78.38-43.16-0.03-78.14-34.99-78.21-78.15" fill="#f68a8c"/>
                <path d="m7974.2 3208.2c-0.18-9.17 1.39-18.17 4.52-26.44 3.49-10 9.28-20.71 16.68-28.49 13.47-13.81 32.05-24.19 52.95-24.58l79.34-1.5 2.95 152.74-79.34 1.5c-32.12 0.6-60.18-18.93-71.56-46.98-3.45-8.15-5.36-16.9-5.54-26.25" fill="#f9bebd"/>
                <path d="m7430.3 3099.8c-3.28-168.88 117.8-312.81 280.08-344.6 4.5-1.08 9-1.8 13.5-2.4 15.68-2.64 31.73-3.96 48.02-4.32 15.92-0.35 31.48 0.49 46.92 2.28 161.19 18.35 289.81 146.69 306.34 307.65 1.09 9.36 1.58 18.72 1.82 28.31l2.8 142.85 0.6 33.58 0.25 13.32c0.85 41.02-8.51 80.48-21.64 117.06-0.73 2.28-1.46 4.44-2.31 6.6-4.5 12.11-9.6 23.99-15.44 35.38l-0.12 0.24c-26.38 52.05-65.89 96.8-114.15 130.02-55.31 38.02-122.05 60.93-193.89 62.25-96.04 1.8-185.02-35.26-249.57-96.55-34.4-32.87-58.35-72.57-76.95-116.95-7.17-16.91-12.16-34.42-15.68-52.53-4.5-23.27-6.45-47.5-6.93-72.33l-3.65-189.86" fill="#f9bebd"/>
                <path d="m7582.1 3007.4c-0.9-46.28 41.12-82.37 93.77-83.36 52.67-0.99 96.05 33.48 96.95 79.77l-190.72 3.59" fill="#fff"/>
                <path d="m7809.2 3171.4c16.02-0.3 29.26 12.44 29.57 28.46l0.73 37.41c0.31 16.04-12.45 29.29-28.48 29.59s-29.27-12.44-29.58-28.46l-0.72-37.41c-0.31-16.04 12.44-29.29 28.48-29.59" fill="#6d311a"/>
                <path d="m7541 3171.3c13.46-0.25 24.58 10.45 24.84 23.91l0.9 46.7c0.26 13.47-10.45 24.6-23.92 24.85-13.46 0.26-24.58-10.45-24.84-23.9l-0.9-46.7c-0.26-13.48 10.45-24.6 23.92-24.86" fill="#6d311a"/>
                <path d="m7671.9 3080.5 0.04 2.15c28.46-0.54 52.03 14.02 52.77 52.2l-103.47 1.95c-0.74-38.18 22.21-55.76 50.66-56.3" fill="#f57b79"/>
                <path d="m7996.5 3350.6-23.81 0.45-515.19 9.72c-5.59 0.12-11.18 0.48-16.65 1.2 3.52 18.11 8.51 35.62 15.68 52.53 18.6 44.38 42.55 84.08 76.95 116.95 63.05 59.87 149.41 96.61 242.89 96.61 2.22 0 4.45-0.02 6.68-0.06 71.84-1.32 138.58-24.23 193.89-62.25 8.05-5.54 15.85-11.4 23.39-17.56l-3.83-197.59" fill="#f79fa6"/>
                <path d="m7488.1 3387.6 635.48-11.97 0.03 1.44c3.64 188.23-147.38 345.12-335.6 348.66l-295.87 5.58c-93.79 1.77-172.01-73.53-173.83-167.32-1.84-95.22 74.56-174.6 169.79-176.39" fill="#a34650"/>
                <path d="m8002.1 3638.9-7.98-412.8c-1.64-84.84 57.48-154.74 134.28-156.19l-1.8 0.04 8.08 417.6c1.44 74.3-47.11 136.87-111.38 149.22-6.76 1.28-1.85 1.77-21.2 2.13" fill="#a34650"/>
                <path d="m8091.9 3058.7 27.23-0.59c2.07 0 4.01 0 5.96 0.23 45.59 2.29 82.54 41.15 83.51 86.6 0.49 23.63-9 44.02-24.55 59.97-13.98 14.4-33.07 22.8-54.34 24.59-2.43 0.36-4.74 0.48-7.18 0.48l-27.35 0.48-3.28-171.76" fill="#f9bebd"/>
                <path d="m8119.2 3058.1-27.23 0.59 3.28 171.76 27.35-0.48c2.44 0 4.75-0.12 7.18-0.48 21.27-1.79 40.36-10.19 54.34-24.59 15.19-15.58 24.59-35.39 24.57-58.31 0-0.55-0.01-1.11-0.02-1.66-0.97-45.45-37.92-84.31-83.51-86.6-1.95-0.23-3.89-0.23-5.96-0.23" fill="#f79fa6"/>
                <path d="m6480.4 468.99h432.63v148.92h-278.36c-85.2 0-154.27-66.5-154.27-150.57v1.648" fill="#773339"/>
               </g>
               <path stroke-linejoin="round" d="m6636.9 575.53-42.16 39.149" stroke="#2f324b" stroke-linecap="round" stroke-miterlimit="10" stroke-width="26.961" fill="none"/>
               <path stroke-linejoin="round" d="m6597.2 558.4-39.6 41.6" stroke="#2f324b" stroke-linecap="round" stroke-miterlimit="10" stroke-width="26.961" fill="none"/>
               <path d="m6864.2 468.99h432.63v148.92h-278.36c-85.2 0-154.27-66.5-154.27-150.57v1.648" fill="#a34650"/>
               <path stroke-linejoin="round" d="m7020.6 575.53-42.16 39.149" stroke="#2f324b" stroke-linecap="round" stroke-miterlimit="10" stroke-width="26.961" fill="none"/>
               <path stroke-linejoin="round" d="m6981 558.4-39.7 41.6" stroke="#2f324b" stroke-linecap="round" stroke-miterlimit="10" stroke-width="26.961" fill="none"/>
               <g>
                <path d="m1738.2 832.15-96.51-112.53s-63.18 305.04-141.77 372.45c-61.08 52.39-316.46 83.73-316.46 83.73l96.52 112.53s250.93-27.53 310.53-78.64c80.07-68.68 147.69-377.54 147.69-377.54" fill="#f9bebd"/>
                <path d="m1591 826.75c4.04-15.852 26.68-111.35 26.68-111.35l170.4 43.461-28.3 110.94-168.78-43.051" fill="#fef7e6"/>
                <path d="m1867.5 728.49-237.73-60.636-28.29 110.94 130.76 33.352c61.95 15.8 118.35-17.34 134.15-79.282l1.11-4.371" fill="#31334b"/>
                <path d="m1532.7 1248c0-9.38-50.97-184.25-50.97-184.25l-326.59 43.97-193.24 164.34 454.5-5.77 116.3-18.29" fill="#773a3d"/>
                <path d="m1395.7 680.83-130.86-69.66s52.23 307.1 3.59 398.5c-37.81 71.03-264.25 193.22-264.25 193.22l130.87 69.65s223.68-117.01 260.57-186.31c49.57-93.121 0.08-405.4 0.08-405.4" fill="#f9bebd"/>
                <path d="m1256.6 729.42c-2-16.24-15.7-113.42-15.7-113.42l174.53-21.578 14.04 113.63-172.87 21.371" fill="#fef7e6"/>
                <path d="m1478.3 537.21-243.49 30.078 14.04 113.63 133.94-16.551c63.44-7.84 103.9-59.242 96.06-122.69l-0.55-4.469" fill="#31334b"/>
                <path d="m1377.2 1151.4-118.9-169.93-219.6 113.73c-36.68 16.44-73.177 50.96-84.935 92.77-8.867 31.53 55.315 121.48 61.415 155.51l-53.091-69.06 219.38-2.27 150.59 28.2-23.52-80.36-31.37-5.88 99.97-62.72" fill="#915052"/>
                <path d="m949.88 1188.6 467.11 76.73-57.67 313.77c-17.64 130.37-123.92 253.19-254.29 235.55-130.34-17.6-221.73-137.6-204.09-267.9l48.977-358.07" fill="#31334b"/>
               </g>
               <g fill="#fef7e6">
                <path d="m927.67 1722.2 240.44-164.5 112.05 215.23c-26.46 14.18-51.82 23.96-75.92 30.31-102.45 27.28-182.13-8.07-229.14-40.48-30.73-20.87-47.437-40.56-47.437-40.56"/>
                <path d="m1168.4 1570s-3.94-29.24 11.64-49.84c15.58-20.61 44.79-24.77 44.79-24.77s3.94 29.23-11.64 49.84c-15.58 20.6-44.79 24.77-44.79 24.77"/>
                <path d="m1165.1 1572.7s-27.89-9.6-39.31-32.77c-11.41-23.18-2.02-51.15-2.02-51.15s27.9 9.61 39.31 32.78c11.41 23.18 2.02 51.14 2.02 51.14"/>
               </g>
               <g>
                <path d="m975.1 1762.8 172.1-113.6s69.68 115.65 73.17 151.59c-117.6 43.12-192.08 3.91-245.26-38" fill="#31334b"/>
                <path d="m1117.3 1723.6 0.36 0.05c-29.86-4.04-55.66 17.78-59.7 47.64l-16.77 124.01 107.23 14.5 16.78-124.01c4.03-29.85-18.04-58.15-47.9-62.19" fill="#f9bebd"/>
                <path d="m1129.5 1888.7 41.96 21.37c153.26 78.07 214.22 265.62 136.14 418.89l-12.13 23.82c-78.08 153.27-267.74 219.95-421 141.88l-45.29-24.99c-153.33-78.1-208.84-267.8-130.76-421.1l12.137-23.83c78.07-153.2 265.61-214.2 418.91-136.1" fill="#242b53"/>
                <path d="m1366.5 2067.2c-18.24-110.57-99.57-208.27-214.13-240.12l-9.5-2.63c-157.16-43.6-325.82 51.1-369.54 208.26l-24.235 87.46c-43.726 157.16 55.969 310.57 213.13 354.3l9.371 2.62c157.29 43.73 323.57-35.85 367.3-193.01l24.23-87.45c1.13-4.13 0.63-8.75 0.88-13 0-1.13 0.25-2.25 0.5-3.37 3.37-15.49 5.37-31.24 5.99-46.97 1.13-22.49-0.5-44.86-3.99-66.09" fill="#f9bebd"/>
                <path d="m1271.2 2067.7c10.04-36.11-14.07-93.19-59.82-105.91-45.77-12.72-95.88 23.73-105.91 59.84l165.73 46.07" fill="#fff"/>
                <path d="m1156.4 2088.1c-5.47 0-10.5 3.63-12.03 9.15-1.85 6.66 2.04 13.54 8.69 15.39l36.11 10.04c1.12 0.31 2.25 0.46 3.35 0.46 5.47 0 10.49-3.63 12.03-9.16 1.85-6.64-2.04-13.53-8.69-15.38l-36.11-10.04c-1.12-0.31-2.24-0.46-3.35-0.46" fill="#f7918f"/>
                <path d="m853.62 2043c9.863-35.48-10.906-72.25-46.394-82.12-35.489-9.86-72.25 10.91-82.118 46.4-9.863 35.49 10.911 72.25 46.395 82.12 35.488 9.86 72.254-10.91 82.117-46.4" fill="#f9bebd"/>
               </g>
               <path stroke-linejoin="round" d="m1088.6 2148.9s-24.05 24.9-52.87 14.56c-28.81-10.35-31.33-38.59-31.33-38.59" stroke="#6d311a" stroke-linecap="round" stroke-miterlimit="10" stroke-width="40.486" fill="none"/>
               <path stroke-linejoin="round" d="m1292.2 2207s-24.05 24.9-52.86 14.56c-28.82-10.34-31.34-38.59-31.34-38.59" stroke="#6d311a" stroke-linecap="round" stroke-miterlimit="10" stroke-width="40.486" fill="none"/>
               <g fill="#242b53">
                <path d="m1378.8 2435.3c0-79.35-64.33-143.67-143.68-143.67-79.34 0-143.67 64.32-143.67 143.67s64.33 143.67 143.67 143.67c79.35 0 143.68-64.32 143.68-143.67"/>
                <path d="m997.8 2310.4c0-79.35-64.325-143.67-143.67-143.67-79.348 0-143.67 64.32-143.67 143.67s64.324 143.67 143.67 143.67c79.343 0 143.67-64.32 143.67-143.67"/>
                <path d="m1057.9 2591c68.58-8.89 116.97-71.69 108.08-140.27-8.88-68.58-71.68-116.96-140.26-108.08-68.575 8.89-116.97 71.69-108.08 140.27 8.886 68.57 71.683 116.96 140.26 108.08"/>
                <path d="m1166.5 2336.8c0-62.91-50.99-113.9-113.9-113.9-62.908 0-113.9 50.99-113.9 113.9s50.996 113.9 113.9 113.9c62.91 0 113.9-50.99 113.9-113.9"/>
                <path d="m901.19 2135.5c0-43.24-35.05-78.29-78.289-78.29-43.238 0-78.289 35.05-78.289 78.29s35.051 78.29 78.289 78.29c43.239 0 78.289-35.05 78.289-78.29"/>
                <path d="m729.2 2091.7 374.8 368.6s-156.17 112.43-281.1-24.99c-124.93-137.4-143.67-274.9-93.7-343.6"/>
               </g>
               <path d="m1000.1 2022.2c-10.636 0-20.557 6.86-23.893 17.51-4.11 13.12 3.261 27.2 16.375 31.31l77.488 24.28c2.46 0.77 4.96 1.13 7.42 1.13 10.64 0 20.56-6.86 23.9-17.51 4.1-13.11-3.27-27.2-16.38-31.31l-77.49-24.28c-2.46-0.77-4.96-1.13-7.42-1.13" fill="#f79d9b"/>
               <path d="m1308.4 2115.1c-10.61 0-20.46 6.86-23.8 17.51-0.75 2.5-1.13 5-1.13 7.5 0 10.62 6.87 20.49 17.49 23.86l62.97 19.74c0-1.13 0.25-2.25 0.5-3.37 3.37-15.49 5.37-31.24 5.99-46.97l-54.59-17.12c-2.47-0.78-4.97-1.15-7.43-1.15" fill="#f79d9b"/>
               <g fill="#f9b8b6">
                <path d="m1425.2 1546.6 19.41 12.79c23.21 15.31 54.72 8.83 70.02-14.37 15.3-23.21 8.82-54.72-14.38-70.02l-19.41-12.8c-23.21-15.3-54.72-8.83-70.02 14.38-15.3 23.22-8.83 54.72 14.38 70.02"/>
                <path d="m1482 1496 86 56.68c6.27 4.15 14.8 2.39 18.94-3.89s2.39-14.8-3.89-18.94l-86-56.69c-6.28-4.14-14.8-2.39-18.94 3.89-4.15 6.28-2.39 14.8 3.89 18.95"/>
                <path d="m1487.7 1544.6 69.05 45.52c6.28 4.14 14.8 2.39 18.94-3.89s2.39-14.81-3.89-18.94l-69.05-45.53c-6.28-4.14-14.8-2.38-18.94 3.89-4.15 6.28-2.39 14.81 3.89 18.95"/>
                <path d="m1454.4 1562.6 81.72 53.88c6.28 4.14 14.81 2.39 18.95-3.9 4.14-6.28 2.39-14.8-3.89-18.94l-81.73-53.88c-6.28-4.14-14.81-2.39-18.95 3.89-4.13 6.28-2.38 14.81 3.9 18.95"/>
                <path d="m1415.8 1512.9 42.56 88.16c3.27 6.77 11.48 9.64 18.26 6.37 6.77-3.27 9.64-11.49 6.37-18.27l-42.56-88.15c-3.27-6.77-11.49-9.64-18.26-6.37-6.78 3.27-9.64 11.49-6.37 18.26"/>
               </g>
               <path stroke-linejoin="round" d="m953.75 1602.3s112.57-150.1 262.31-172.34c115.95-17.22 232.92 71.27 232.92 71.27" stroke="#f9b8b6" stroke-linecap="round" stroke-miterlimit="10" stroke-width="100" fill="none"/>
               <path d="m1082.3 1503.8-32.9-56.65c-13.7-14.62-46.55 7.69-77.655 38.37l-47.816 56.32c-31.102 30.68-31.442 80.76-0.762 111.86 30.676 31.1 47.629 37.01 78.733 6.33l86.78-58.5c31.1-30.68 19.2-54.79-6.38-97.73" fill="#31334b"/>
              </g>
             </g>
            </g>
           </g>
          </g>
         </g>
        </g>
       </g>
      </g>
     </g>
    </g>
   </g>
  </g>
 </g>
</svg>
