<svg xmlns="http://www.w3.org/2000/svg" width="1763" height="621"><defs><clipPath id="a"><path d="M2682.87 3288.93l5.29 238.06 39.75 8.89-5.04-226.95 730.22 207.59-.65-8.82-1.3-.37-2.6 1.93-765.67-220.33"/></clipPath></defs><path d="M1431.618 920.996l2.087-388.68-312.776 55.1 213.937 333.58h96.75" fill="#a1896f" fill-rule="evenodd"/><path d="M1143.726 495.736h-30.663l-18.868-31.52" fill="#dda525" fill-rule="evenodd"/><path d="M1127.524 315.42L347.458 513.15v143.096l162.11 173.21L1436.503 531.7v-39.008l-308.98-177.27" fill="#837166" fill-rule="evenodd"/><path d="M1127.64 276.7L347.46 476.466v131.32l163.688 173.73 925.472-288.532L1127.64 276.7" fill="#b49f83" fill-rule="evenodd"/><path d="M347.458 920.996h166.077V613.66H347.458v307.336z" fill="#b49f83" fill-rule="evenodd"/><path d="M530.958 920.996v-145.36l-20.756 5.645v139.716h20.756M1415.512 920.996h20.755V505.63h-20.755v415.366z" fill="#837166" fill-rule="evenodd"/><path d="M347.458 607.696v52.216l162.86 170.88.826-49.04-163.686-174.056" fill="#685c55" fill-rule="evenodd"/><g clip-path="url(#a)" transform="matrix(.14152 0 0 -.14113 347.458 921)"><path d="M2682.87 3288.93h770.22v246.95h-770.22v-246.95z" fill="#968571"/></g><path d="M733.794 408.91l-1.005 45.113 108.907-30.874 3.087-41.567-110.99 27.327" fill="#55595b" fill-rule="evenodd"/><path d="M780.028 496.484c-10.205 0-21.378-4.356-27.708-11.44l-25.19-28.198 108.722-30.822 34.506 25.675c9.907 7.373 8.337 16.337-3.493 19.92l-78.084 23.648c-2.725.825-5.695 1.216-8.752 1.216" fill="#968571"/><path d="M727.13 456.846l108.354-31.094.368.272-108.723 30.822" fill="#7d7060"/><path d="M841.145 422.93l34.874 25.947c9.906 7.373 8.335 16.338-3.494 19.92l-78.085 23.65c-11.828 3.58-28.234-1.02-36.46-10.225l-25.19-28.2" fill="#6f7375"/><path d="M566.735 420.32l-34.488-306.475c-.628-5.58.88-10.95 3.865-15.286-1.02 3.018-1.41 6.29-1.034 9.64l35.027 311.257-3.37.863" fill="#7cb1af"/><path d="M588.2 453.88c-10.084 0-18.51-7.292-19.704-17.914l-1.76-15.646 3.37-.863 1.22 10.864c1.196 10.622 9.62 17.914 19.702 17.914 1.548 0 3.136-.172 4.74-.53l58.947-13.147c.24 1.574.516 3.192.8 4.834l-62.577 13.96c-1.604.357-3.192.53-4.74.53m69.997-15.087c-.247-1.616-.494-3.233-.732-4.85l70.526-15.732-.113 5.04-69.682 15.543m185.412-41.357l.38-5.1 151.017-33.684c6.84-1.526 12.854-6.134 16.7-12.082-3.155 8.566-10.648 15.745-19.53 17.727l-148.567 33.14" fill="#968571"/><path d="M727.877 423.25l.112-5.04 5.624-1.253-.11 5.038-5.627 1.254" fill="#7d7060"/><path d="M733.503 421.995l.11-5.038 110.373-24.62-.38 5.1-110.103 24.558" fill="#494b4d"/><path d="M535.078 108.2c-1.38-12.252 7.533-23.497 19.805-24.99l427.824-52.017c12.272-1.492 22.68 7.366 23.132 19.688l10.28 280.478c.45 12.32-9.05 24.603-21.116 27.294L595.77 447.704c-12.066 2.69-23.064-5.13-24.444-17.383L535.078 108.2" fill="#858989" fill-rule="evenodd"/><path d="M569.43 123.25l395.082-51.965L979.64 326.53l-376.712 75.06-33.498-278.34" fill="#fff" fill-rule="evenodd"/><path d="M757.345 75.477c.176-3.71 3.332-6.577 7.052-6.402 3.72.174 6.595 3.324 6.42 7.034-.175 3.71-3.333 6.574-7.054 6.4-3.72-.176-6.593-3.323-6.418-7.033" fill="#141515"/><path d="M654.6 433.78c1.637 11.28 5.465 24.744-.14 35.498-3.013 5.78-8.222 10.29-13.19 14.358-4.587 3.755-9.42 7.272-14.19 10.793-18.873 13.928-41.844 31.933-41.914 57.68-.017 5.81 1.51 11.47 3.772 16.783.71 1.67 3.147.23 2.442-1.424-12.063-28.335 11.88-51.63 32.69-67.307 9.542-7.19 19.974-13.836 28.01-22.735 7.49-8.297 8.72-17.764 7.507-28.51-.6-5.315-1.49-10.596-2.26-15.887-.26-1.796-2.986-1.03-2.727.75" fill="#f1f5f6"/><path d="M615.012 657.952c-13.375 0-25.704-8.724-29.65-22.17l-10.204-34.783c-3.927-13.378 1.666-27.286 12.82-34.505.302.808.62 1.606.96 2.398.223.526.618.744 1.03.744.903 0 1.896-1.033 1.412-2.168-.344-.81-.656-1.61-.944-2.41 1.468-.766 3.013-1.424 4.634-1.96l3.5 11.35c-.87.733-1.294 1.817-.997 2.837l4.34 14.782c.323 1.11 1.41 1.825 2.676 1.883l2.194 7.114c-.145.316-.182.683-.08 1.04l.846 2.87c.19.653.79 1.073 1.438 1.073.14 0 .28-.02.42-.06.797-.232 1.252-1.065 1.02-1.853l-.84-2.865c-.11-.372-.348-.67-.653-.856l-2.17-7.033c1.147-.716 1.756-1.973 1.41-3.146l-4.333-14.773c-.34-1.164-1.514-1.893-2.85-1.893-.11 0-.222.007-.335.017l-3.43-11.115c2.54-.645 5.094-.954 7.61-.954 13.373 0 25.702 8.724 29.645 22.17l10.205 34.78c4.797 16.34-4.6 33.458-20.983 38.237-2.897.845-5.82 1.247-8.692 1.247" fill="#968571"/><path d="M589.97 569.637c-.414 0-.81-.218-1.032-.744-.34-.792-.658-1.59-.96-2.398.79-.513 1.612-.992 2.458-1.435.288.8.6 1.6.944 2.41.484 1.134-.51 2.167-1.41 2.167" fill="#c8cccc"/><path d="M595.293 563.028c.28-.09.565-.178.85-.26l-.85.26" fill="#968571"/><path d="M606.784 601.067l-2.195-7.114c.056.003.113.004.17.004.346 0 .705-.05 1.063-.152.343-.102.658-.246.94-.422l2.172 7.033c-.232-.144-.503-.223-.782-.223-.142 0-.285.02-.426.063-.435.124-.767.43-.943.81m-8.213-26.617l-3.5-11.35-.002-.003.225-.07.85-.26 1.073-.33.01.035 3.43 11.115c-.24.023-.483.068-.727.138-.522.154-.983.405-1.36.724" fill="#968571"/><path d="M608.988 606.05c-.648 0-1.248-.42-1.438-1.074l-.845-2.87c-.103-.356-.066-.723.08-1.04.175-.38.507-.686.942-.81.14-.043.284-.063.426-.063.28 0 .55.08.782.223.305.187.544.484.653.856l.84 2.865c.232.788-.223 1.62-1.02 1.852-.14.04-.28.06-.42.06M604.76 593.957c-.057 0-.114 0-.17-.004-1.266-.058-2.354-.772-2.678-1.884l-4.34-14.783c-.296-1.02.127-2.104 1-2.838.375-.32.836-.57 1.357-.725.243-.07.486-.115.727-.138.113-.01.225-.016.336-.016 1.335 0 2.508.73 2.85 1.894l4.332 14.773c.346 1.173-.263 2.43-1.41 3.146-.284.176-.6.32-.942.422-.358.103-.717.152-1.064.152" fill="#968571"/><path d="M639.026 615.645c4.797 16.34-4.6 33.46-20.983 38.237-16.382 4.78-33.548-4.59-38.342-20.923l-10.203-34.783c-4.794-16.333 4.6-33.457 20.985-38.23 16.38-4.784 33.55 4.582 38.34 20.92l10.204 34.778" fill="#6f7375"/><path d="M589.407 560.275l11.898 38.558 2.148-.66-11.897-38.558" fill="#3f4043"/><path d="M604.768 601.314c.232.79-.224 1.622-1.018 1.853-.792.23-1.63-.22-1.86-1.013l-.846-2.868c-.227-.79.227-1.626 1.022-1.853.794-.236 1.626.22 1.86 1.016l.842 2.864" fill="#ed333d"/><path d="M602.515 587.414c.43 1.464-.623 3.056-2.352 3.568-1.734.5-3.484-.272-3.912-1.736l-4.338-14.78c-.426-1.463.63-3.055 2.357-3.563 1.73-.503 3.48.272 3.912 1.738l4.333 14.774" fill="#3f4043"/><path d="M786.16 658.855l-84.734-85.735v-10.76l282.046-81.956 97.19 78.283L786.16 658.855" fill="#968571"/><path d="M788.99 653.21l294.502-100.168-97.19-78.283-282.045 81.954v10.76l84.733 85.735" fill="#55595b" fill-rule="evenodd"/><path d="M791.018 642.2l295.304-96.92-97.19-78.283-285.024 89.466 86.91 85.737" fill="#6f7375" fill-rule="evenodd"/><path d="M752.602 567.132l25.5-7.725-9.546-7.695-24.47 7.843 8.516 7.577M781.14 558.138l14.932-4.714-10.616-7.407-13.86 4.362 9.543 7.758M798.426 552.548l14.933-4.715-10.616-7.408-13.86 4.364 9.542 7.758M816.18 547.19l14.935-4.716-10.615-7.407-13.86 4.363 9.54 7.76M833.237 541.596l14.932-4.712-10.616-7.41-13.86 4.363 9.543 7.76M850.526 535.774l14.933-4.715-10.618-7.408-13.86 4.362 9.544 7.76M867.813 530.182l14.933-4.715-10.615-7.408-13.86 4.363 9.543 7.76M885.57 524.822l14.932-4.713-10.616-7.41-13.86 4.363 9.544 7.76M902.624 519.232l14.933-4.715-10.616-7.408-13.86 4.363 9.544 7.76M919.913 513.174l14.93-4.714-10.615-7.408-13.858 4.363 9.543 7.76M937.2 507.584l14.933-4.715-10.615-7.41-13.86 4.363 9.54 7.76M954.955 502.224l14.933-4.717-10.615-7.407-13.86 4.365 9.542 7.76M972.01 496.63l14.935-4.713-10.616-7.407-13.862 4.362 9.543 7.76M765.37 579.246l25.502-7.724-9.545-7.695-24.47 7.843 8.514 7.576M793.91 570.254l14.932-4.714-10.615-7.408-13.86 4.362 9.542 7.76M811.197 564.664l14.933-4.715-10.616-7.41-13.858 4.364 9.54 7.76M828.953 559.305l14.93-4.715-10.612-7.41-13.86 4.366 9.543 7.76M846.007 553.712L860.94 549l-10.615-7.41-13.86 4.363 9.542 7.76M863.295 547.89l14.934-4.716-10.616-7.41-13.86 4.363 9.54 7.762M880.584 542.296l14.933-4.713-10.615-7.408-13.86 4.362 9.542 7.76M898.34 536.938l14.933-4.714-10.615-7.407-13.86 4.362 9.542 7.758M915.394 531.346l14.934-4.715-10.616-7.408-13.86 4.367 9.542 7.756M932.683 525.29l14.933-4.714L937 513.168l-13.86 4.362 9.543 7.76M949.97 519.698l14.934-4.717-10.614-7.406-13.86 4.365 9.54 7.758M967.727 514.338l14.932-4.715-10.615-7.408-13.86 4.365 9.542 7.758M984.78 508.747l14.934-4.714-10.615-7.408-13.86 4.362 9.54 7.76M777.52 591.984l25.5-7.728-9.545-7.696-24.47 7.847 8.515 7.577M806.057 582.99l14.934-4.715-10.615-7.406-13.86 4.36 9.542 7.76M823.346 577.4l14.933-4.715-10.616-7.408-13.86 4.363 9.542 7.76M841.102 572.04l14.932-4.713-10.616-7.41-13.858 4.363 9.542 7.76M858.156 566.45l14.933-4.716-10.616-7.408-13.86 4.364 9.542 7.76M875.444 560.624l14.934-4.715-10.615-7.41-13.86 4.364 9.54 7.76M892.733 555.032l14.933-4.714-10.615-7.408-13.86 4.363 9.543 7.76M910.488 549.673l14.933-4.714-10.614-7.408-13.86 4.362 9.542 7.76M927.542 544.083l14.934-4.716-10.616-7.41-13.86 4.366 9.542 7.76M944.83 538.025l14.934-4.714-10.614-7.408-13.86 4.362 9.54 7.76M962.12 532.432l14.934-4.712-10.616-7.408-13.86 4.36 9.542 7.76M979.875 527.075l14.934-4.714-10.617-7.407-13.86 4.362 9.542 7.76M996.93 521.485l14.932-4.715-10.614-7.408-13.86 4.363 9.54 7.76M792.784 604.41l25.5-7.728-9.545-7.694-24.472 7.845 8.516 7.576M821.32 595.416l14.932-4.715-10.613-7.405-13.862 4.362 9.543 7.76M838.61 589.825l14.933-4.714-10.617-7.408-13.86 4.362 9.544 7.76M856.365 584.468l14.933-4.715-10.616-7.41-13.858 4.364 9.54 7.76M873.42 578.875l14.933-4.715-10.616-7.406-13.86 4.362 9.542 7.76M890.708 573.05l14.933-4.714-10.614-7.408-13.86 4.362 9.542 7.76M907.997 567.46l14.932-4.714-10.617-7.408-13.86 4.362 9.544 7.76M925.752 562.1l14.933-4.714-10.615-7.407-13.86 4.362 9.542 7.76M942.806 556.506l14.933-4.712-10.616-7.41-13.86 4.365 9.542 7.756M960.095 550.452l14.933-4.715-10.615-7.41-13.86 4.363 9.542 7.762M977.383 544.86l14.934-4.716-10.615-7.407-13.86 4.363 9.54 7.76M995.14 539.5l14.932-4.714-10.614-7.408-13.862 4.364 9.544 7.76M1012.193 533.91l14.932-4.716-10.616-7.41-13.86 4.365 9.543 7.76M806.024 617.613l25.5-7.726-9.546-7.695-24.472 7.845 8.518 7.576M834.56 608.62l14.933-4.714-10.616-7.41-13.86 4.365 9.543 7.76M851.848 603.03l14.934-4.716-10.617-7.408-13.86 4.364 9.543 7.76M869.604 597.67l14.934-4.715-10.617-7.408-13.857 4.364 9.54 7.76M887.047 592.08l84.02-27.227-9.036-7.457-84.525 26.922 9.542 7.76M973.335 563.653l14.93-4.712-10.613-7.407-13.86 4.362 9.543 7.758M990.622 558.064l14.933-4.715-10.616-7.41-13.86 4.363 9.542 7.76M1008.378 552.706l14.933-4.715-10.615-7.408-13.86 4.362 9.543 7.762M1025.432 547.113l14.936-4.715-10.617-7.408-13.86 4.364 9.542 7.76" fill="#55595b" fill-rule="evenodd"/><path d="M651.485 307.122l-11.6-75.03 3.305-.507 11.225 72.615 191.204-29.393.373 2.414-194.508 29.902" fill="#d4d4d2"/><path d="M639.766 232.11l-2.093-13.533 3.303-.508 1.72 11.118.12-.017.374 2.415-3.304.508-.12.018" fill="#d4d4d2"/><path d="M654.415 304.2l194.507-29.9-11.83-76.53-194.508 29.9 11.83 76.53" fill="#dcdcd9"/><path d="M835.533 185.69l-194.93 29.964 2.093 13.534.12-.017 194.51-29.9.3-.047-2.093-13.534" fill="#92d3ce"/><path d="M836.697 193.21l-16.442 2.53-1.162-7.523 16.44-2.528 1.164 7.52" fill="#ed333d" fill-rule="evenodd"/><path d="M826.693 193.245l-1.083.166 1.99-2.71-2.55-1.89 1.124-.173 1.948 1.495 1.394-2.01 1.07-.164-1.86 2.57 2.675 1.994-1.113.17-2.063-1.61-1.53 2.163" fill="#eaeae9"/><path d="M670.13 285.635c-1.41 0-2.083-1.055-1.51-2.525l.334-.855 5.904-.908.33 2.137 40.898-6.287c.055.83-.563 1.496-1.732 1.675l-18.706 2.876-6.32.972-18.705 2.875c-.173.027-.34.04-.494.04" fill="#b6b9b6"/><path d="M680.253 239.06c.637-1.636 2.06-1.854 3.158-.487l11.852 14.718c1.1 1.37 2.904 3.606 4.005 4.973l11.85 14.715c1.1 1.368.58 2.706-1.158 2.972l-18.707 2.877-6.32.97-18.706 2.877c-1.738.266-2.64-.853-2.002-2.487l6.857-17.59c.637-1.636 1.68-4.31 2.316-5.946l6.855-17.59" fill="#e3c929" fill-rule="evenodd"/><path d="M681.48 249.67c.286-.09.567-.165.843-.23.276-.066.562-.12.852-.167.314-.048.628-.084.947-.11.317-.026.637-.04.956-.045l2.406 16.897c-.5.168-1.02.294-1.56.377-.604.093-1.138.13-1.6.11l-2.843-16.83m3.593 24.13c-.094-.307-.174-.61-.242-.907-.07-.3-.127-.604-.176-.92-.048-.31-.086-.63-.115-.958-.028-.326-.043-.65-.05-.973.31-.09.613-.173.913-.24.298-.07.604-.13.92-.177.312-.048.633-.085.962-.112.33-.03.652-.045.973-.05.094.308.176.616.247.925.07.31.13.62.18.934.047.312.084.628.11.943.027.318.04.635.045.956-.31.09-.617.175-.926.245-.312.07-.624.128-.936.176-.315.05-.63.087-.947.113-.316.027-.636.04-.957.044M721.975 231.954l69.268-10.648-.096-.626-69.27 10.648.098.626M723.042 238.848l101.357-15.58-.097-.627-101.36 15.582.1.626M723.987 244.976l101.36-15.582-.098-.626-101.36 15.582.097.626M724.937 251.104l101.355-15.582-.096-.625L724.84 250.48l.097.624M725.883 257.233L827.24 241.65l-.097-.625-101.356 15.58.096.628M726.832 263.36l101.355-15.58-.096-.626-101.356 15.58.098.625" fill="#28292a"/><path d="M758.138 276.332l-28.047 4.13-1.55-10.478 28.047-4.13 1.55 10.478M791.348 271.46l-28.05 4.132-1.55-10.48 28.047-4.13 1.553 10.48" fill="#abb2b0" fill-rule="evenodd"/><path d="M846.277 257.182l-.373-2.413 23.42-3.6.373 2.412-23.42 3.6m-182.133-45.146l-.553-3.582 3.304-.508.553 3.582-3.303.508" fill="#d4d4d2"/><path d="M716.086 277.197c-.028-.405-.215-.85-.574-1.296l-.78-.967 14.217-2.186.357 2.417-13.22 2.033m41.24-6.34l-.358-2.417 5.153-.792.358 2.416-5.153.792m33.174-5.1l-.355-2.417 55.76-8.57.372 2.412-55.776 8.575m-118.79-4.774l-5.473-35.413 3.303-.507 4.59 29.707-.732 1.88-1.687 4.333" fill="#b6b9b6"/><path d="M666.237 225.57l-2.093-13.534 3.303-.508 2.093 13.535-3.303.507" fill="#7cb1af"/><path d="M675.19 283.484l-.332-2.137 10.075-1.55 6.32-.97 18.706-2.877c.494-.076.89-.238 1.18-.465l3.592-.552.78.968c.36.448.546.892.574 1.297l-40.897 6.287" fill="#999b9b"/><path d="M674.858 281.347l-3.147-20.364 1.688-4.332.733-1.88 3.99 25.79 33.02-5.075c-.29.227-.686.39-1.18.465l-18.707 2.877-6.32.97-10.075 1.55" fill="#beaa26"/><path d="M729.307 275.164l-.358-2.417 28.02-4.307.357 2.416-28.02 4.308M762.48 270.064l-.357-2.416 28.022-4.31.356 2.42-28.02 4.306" fill="#909595"/><path d="M663.47 208.472l-2.093-13.534 3.303-.508 1.72 11.12.12-.017.374 2.413-3.303.508-.12.018" fill="#d4d4d2"/><path d="M678.12 280.56l194.506-29.9-11.83-76.53-194.508 29.903 11.83 76.528" fill="#dcdcd9"/><path d="M859.238 162.05l-194.93 29.966 2.092 13.534.12-.017 194.51-29.902.3-.046-2.092-13.534" fill="#92d3ce"/><path d="M860.4 169.572l-16.44 2.528-1.162-7.522 16.44-2.528 1.163 7.522" fill="#ed333d" fill-rule="evenodd"/><path d="M850.397 169.606l-1.083.167 1.992-2.71-2.552-1.892 1.124-.17 1.948 1.493 1.394-2.01 1.07-.163-1.86 2.568 2.675 1.994-1.114.172-2.062-1.61-1.53 2.162" fill="#eaeae9"/><path d="M693.833 261.996c-1.408 0-2.082-1.054-1.51-2.525l.335-.854 2.314-.356.543 3.514-1.188.182c-.173.027-.34.04-.494.04" fill="#b6b9b6"/><path d="M703.957 215.42c.637-1.634 2.06-1.853 3.158-.485l11.852 14.718 4.004 4.972 11.85 14.715c1.1 1.367.58 2.705-1.157 2.972l-18.706 2.876-6.32.97-18.706 2.877c-1.737.267-2.638-.852-2-2.487l6.857-17.59 2.315-5.945 6.855-17.593" fill="#e3c929" fill-rule="evenodd"/><path d="M705.185 226.033c.285-.09.566-.167.842-.233.276-.065.562-.12.852-.165.313-.048.627-.085.946-.112.317-.025.637-.04.957-.043l2.405 16.897c-.5.168-1.02.295-1.56.376-.603.094-1.138.132-1.6.11l-2.843-16.83m3.592 24.13c-.094-.307-.174-.61-.242-.907-.07-.3-.127-.604-.177-.918-.048-.31-.086-.63-.115-.96-.027-.326-.042-.65-.048-.97.31-.094.612-.176.912-.242.298-.07.604-.13.92-.178.312-.048.633-.085.962-.112.33-.03.65-.045.972-.05.094.31.176.616.247.925.07.31.13.622.178.936.048.312.085.628.11.942.028.318.04.636.046.956-.308.092-.617.175-.925.245-.314.07-.626.128-.938.176-.314.05-.63.086-.947.113-.317.026-.637.038-.958.042M745.68 208.316l69.267-10.648-.096-.627-69.267 10.65.096.626M746.746 215.21l101.357-15.582-.096-.625-101.36 15.58.1.627M747.69 221.337l101.36-15.58-.097-.628-101.358 15.58.096.627M748.64 227.465l101.356-15.582-.096-.625-101.357 15.582.098.625M749.587 233.594l101.358-15.58-.098-.628-101.356 15.582.097.626M750.536 239.72l101.355-15.58-.095-.625-101.357 15.58.098.626" fill="#28292a"/><path d="M781.842 252.693l-28.047 4.13-1.55-10.478 28.046-4.13 1.552 10.478M815.052 247.823l-28.05 4.13-1.55-10.478 28.047-4.13 1.552 10.478" fill="#abb2b0" fill-rule="evenodd"/><path d="M684.26 188.95l-.15-.96 3.303-.507.15.958-3.304.51" fill="#d4d4d2"/><path d="M695.708 263.02l-.193-1.246 17.517-2.692 6.32-.973 18.706-2.877c1.067-.164 1.676-.73 1.73-1.46l13.254-2.038.358 2.416-57.692 8.87m-2.925-18.925l-6.432-41.61 3.304-.51 5.55 35.908-.417 1.074-2.004 5.138" fill="#b6b9b6"/><path d="M686.35 202.484l-2.09-13.535 3.302-.51 2.092 13.536-3.303.508" fill="#7cb1af"/><path d="M695.515 261.774l-.543-3.514 3.304-.508.363 2.346 41.15-6.326c-.056.73-.665 1.297-1.732 1.46l-18.706 2.877-6.32.972-17.517 2.692" fill="#999b9b"/><path d="M694.972 258.26l-2.19-14.165 2.005-5.138.417-1.074 3.072 19.87-3.304.507" fill="#beaa26"/><path d="M781.42 249.844l-.358-2.417 5.154-.79.358 2.415-5.154.792" fill="#b6b9b6"/><path d="M870.386 236.167l-.373-2.413 19.83-3.05.374 2.415-19.83 3.047" fill="#d4d4d2"/><path d="M814.595 244.743l-.358-2.416 55.776-8.573.373 2.413-55.79 8.576" fill="#b6b9b6"/><path d="M753.4 254.15l-.358-2.415 28.02-4.308.358 2.417-28.02 4.307M786.574 249.052l-.358-2.416 28.02-4.31.36 2.417-28.022 4.31" fill="#909595"/><path d="M683.99 188.01l-2.093-13.535 194.93-29.967 1.487 9.62-191.506 29.44.605 3.915-3.303.508-.12.02" fill="#d4d4d2"/><path d="M698.64 260.098l194.506-29.9-11.83-76.53-194.508 29.9 11.83 76.53" fill="#dcdcd9"/><path d="M879.757 141.587l-194.93 29.967 2.093 13.532.12-.017 194.51-29.902.3-.047-2.093-13.533" fill="#92d3ce"/><path d="M880.92 149.11l-16.44 2.527-1.163-7.522 16.44-2.528 1.164 7.522" fill="#ed333d" fill-rule="evenodd"/><path d="M870.917 149.143l-1.083.167 1.99-2.712-2.552-1.89 1.126-.173 1.948 1.495 1.394-2.01 1.07-.164-1.86 2.57 2.675 1.993-1.114.17-2.062-1.61-1.53 2.163" fill="#eaeae9"/><path d="M714.353 241.533c-1.408 0-2.082-1.053-1.51-2.525l6.86-17.59 2.314-5.946 6.854-17.594c.357-.912.957-1.384 1.61-1.384.516 0 1.066.295 1.552.9l11.85 14.717c1.1 1.368 2.903 3.605 4.004 4.973l11.85 14.715c1.1 1.37.58 2.705-1.158 2.972l-18.706 2.876-6.32.972-18.705 2.875c-.173.027-.34.04-.494.04" fill="#b6b9b6"/><path d="M724.477 194.957c.637-1.634 2.06-1.853 3.16-.486l11.85 14.718c1.1 1.37 2.903 3.606 4.004 4.973l11.85 14.716c1.1 1.37.58 2.706-1.157 2.973l-18.706 2.875-6.32.97-18.706 2.877c-1.737.267-2.638-.853-2-2.487l6.856-17.59 2.316-5.945 6.855-17.593" fill="#e3c929" fill-rule="evenodd"/><path d="M725.705 205.57c.285-.09.566-.167.84-.233.278-.065.564-.12.854-.166.313-.047.627-.083.946-.11.317-.025.637-.04.956-.044l2.406 16.897c-.5.168-1.02.295-1.56.377-.604.095-1.138.13-1.6.11l-2.843-16.83zm3.592 24.13c-.094-.307-.174-.61-.242-.907-.07-.3-.128-.604-.177-.92-.048-.31-.086-.63-.115-.958-.027-.326-.042-.65-.048-.97.31-.094.612-.176.912-.242.298-.07.604-.13.92-.178.312-.048.633-.085.962-.112.328-.03.65-.045.972-.05.094.308.176.616.247.925.07.31.13.62.178.934.048.312.085.628.11.943.028.318.04.637.046.956-.31.094-.617.176-.926.246-.312.07-.624.13-.936.177-.315.05-.63.086-.947.112-.317.026-.637.04-.958.044M766.2 187.852l69.267-10.647-.096-.627-69.268 10.648M767.266 194.746l101.357-15.58-.096-.626-101.36 15.58M768.21 200.874l101.36-15.582-.097-.626-101.358 15.582M769.16 207.002l101.356-15.582-.096-.625-101.357 15.582M770.107 213.13l101.358-15.58-.098-.627-101.356 15.58M771.056 219.257l101.355-15.58-.095-.625-101.357 15.58" fill="#28292a"/><path d="M802.362 232.23l-28.047 4.13-1.55-10.478 28.044-4.13 1.552 10.478M835.57 227.36l-28.047 4.13-1.55-10.48 28.046-4.13 1.55 10.48" fill="#abb2b0" fill-rule="evenodd"/><path d="M1304.64 340.348c-4.723 24.515-14.52 50.696-32.256 77.482 13.856 16.23 22.25 27.918 21.29 31.497-6.6 24.578-179.52 99.688-214.91 108.938-56.85 14.86-44.4 67.145-44.4 67.145 11.405 55.748 80.1 27.782 80.1 27.782s286.753-132.9 292.796-182.922c2.693-22.297-45.42-75.415-102.62-129.922" fill="#31747a"/><path d="M1291.66 209.898c-14.43-48.557-72.913-51.593-72.913-51.593-6.076-30.35-28.673-42.952-46.247-45.954-115.443-19.727-167.582 28.33-210.47 29.262-69.874 1.518-80.788-17.187-80.788-17.187-10.438 30.023 4.45 54.843 4.45 54.843-22.868-.968-28.945-17.518-28.945-17.518 9.245 44.607 30.338 73.783 55.215 92.816 1.85 1.59 5.316 4.38 10.406 7.69 20.425 13.29 66.844 34.87 138.4 19.975 0 0 .578 81.16 9.113 101.164 2.478 5.805 7.64 9.22 14.195 11.01l.01-.215c.784-18.506 14.848-32.94 31.413-32.237 16.56.7 29.354 16.272 28.57 34.776l-.477 11.168c-.783 18.507-14.85 32.94-31.412 32.24-4.293-.183-8.33-1.372-11.943-3.342l-6.048 28.036 44.645 31.742 55.61-1.318 3.036-.072c33.87-25.714 57.992-51.807 74.906-77.354 17.735-26.786 27.533-52.967 32.256-77.482 10.974-56.963-5.393-104.915-12.98-130.45" fill="#373025"/><path d="M944.934 311.2l-1.637 13.486c-.6 4.966-5.12 8.504-10.09 7.9-4.972-.604-8.51-5.115-7.907-10.08l1.638-13.484c.603-4.966 5.12-8.5 10.088-7.9 4.972.6 8.514 5.114 7.908 10.08zm149.253 153.632l6.048-28.036c3.614 1.97 7.65 3.16 11.943 3.34 16.563.7 30.63-13.73 31.413-32.238l.477-11.17c.785-18.503-12.01-34.074-28.57-34.775-16.564-.702-30.628 13.73-31.413 32.236l-.01.215c-6.554-1.79-11.716-5.206-14.193-11.01-8.534-20.004-9.11-101.164-9.11-101.164-71.558 14.896-117.977-6.683-138.402-19.973-2.857 18.623-11.352 73.72-11.983 74.35 0 0-.576 3.168-1.443 8.113l-16.026 11.613c-12.723 10.054-17.96 11.643-15.95 18.97.147.532 2.105 3.695 2.532 4.045 8.994 7.413 12.61 7.6 22.35 9.805-.528 4.02-.925 7.546-1.116 10.193-.62 8.635-.735 20.25.218 32.74-.206-4.788-.15-7.562-.15-7.562l6.724-1.235c19.734-2.548 34.76.572 38.923 20.08 1.762 13.634-12.8 26.76-32.536 29.308l-5.197.913c3.774 11.23 9.063 21.205 16.355 28.165 20.137 19.216 53.082 27.904 91.648 27.578v23.51l124.56-7.586v-15.174h53.167v-34.827l-55.61 1.318-44.646-31.742" fill="#f9d0a8"/><path d="M946.447 443.37c-4.163-19.508-19.19-22.628-38.923-20.08l-6.723 1.234s-.056 2.774.15 7.56c.212 4.97.704 12.104 1.84 20.61 1.518 11.378 5.743 20.93 5.743 20.93l.18-.033 5.198-.912c19.737-2.548 34.3-15.674 32.537-29.307" fill="#cc616c"/><path d="M937.026 301.122c-4.968-.6-9.485 2.934-10.088 7.9l-1.638 13.485c-.602 4.964 2.935 9.475 7.907 10.08 4.97.603 9.49-2.935 10.09-7.9l1.637-13.486c.606-4.964-2.936-9.477-7.908-10.078" fill="#040606"/><path d="M1199 520.978c-8.094-5.387-154.186 14.453-183.804 27.315-37.02 16.078-48.41 91.19-48.41 91.19s-3.235 84.834-3.235 93.94v187.573h98.214V921h205.605c.214-24.125 1.86-353.246-68.37-400.022" fill="#388389" fill-rule="evenodd"/><path d="M940.502 238.62c-9.497 12.756-27.546 15.404-40.314 5.916-12.766-9.49-15.417-27.52-5.918-40.273l23.97-32.19c9.5-12.756 27.55-15.404 40.315-5.916 12.77 9.49 15.42 27.52 5.92 40.275l-23.973 32.19" fill="#f9d0a8" fill-rule="evenodd"/><path d="M964.4 218.137c1.332 3.604.185 7.347-2.56 8.36l-15.295 5.65c-2.746 1.013-6.053-1.086-7.386-4.69-1.333-3.602-.19-7.347 2.558-8.36l15.292-5.647c2.748-1.015 6.053 1.085 7.39 4.687" fill="#f9d0a8" fill-rule="evenodd"/><path d="M1087.443 632.336c9.868-28.164-5.638-67.59-69.21-82.523-38.896-9.14-225.095-53.683-226.887-78.76C789.066 439.185 944 234.34 944 234.34l-45.567-36.417s-226.567 236.882-202.78 304.992c22.785 65.256 276.206 156.175 298.76 160.4 25.558 4.788 71.715 29.86 93.03-30.98" fill="#388389" fill-rule="evenodd"/><path d="M1391.638 864.37V720.59c0-95.547-51.174-193.314-160.298-193.314l-1.73.142c-132.27 10.075-178.57 97.625-178.57 193.173v123.514c0 30.207-1.786 55.885 1.655 76.892h9.07V921h329.378c1.33-14.886.495-33.474.495-56.63" fill="#c13e47" fill-rule="evenodd"/><path d="M1376.016 921c13.44-22.16 8.813-54.885 8.813-98.513V729.4c0-90.137-40.847-182.87-131.172-182.87h-6.09c-109.49 9.508-144.673 92.733-144.673 182.87v34.865c0 80.843-2.775 128.623 8.336 156.735h264.786" fill="#28292a" fill-rule="evenodd"/><path d="M1298.908 920.766v-71.15c0-24.494-19.927-44.36-44.502-44.36-24.57 0-44.49 19.866-44.49 44.36v71.15h88.992" fill="#3f4043" fill-rule="evenodd"/><path d="M1311.263 920.996v-71.29c0-24.546-19.92-44.45-44.488-44.45-24.58 0-44.506 19.904-44.506 44.45v71.29h88.993" fill="#55595b" fill-rule="evenodd"/></svg>
