<svg xmlns="http://www.w3.org/2000/svg" width="300" height="257"><defs><clipPath id="a"><path d="M2682.87 3288.93l5.29 238.06 39.75 8.89-5.04-226.95 730.22 207.59-.65-8.82-1.3-.37-2.6 1.93-765.67-220.33"/></clipPath></defs><path d="M293.732 248.01l.554-105.38-83.04 14.94 56.8 90.44h25.686" fill="#a1896f" fill-rule="evenodd"/><path d="M217.297 132.713h-8.14l-5.01-8.546" fill="#dda525" fill-rule="evenodd"/><path d="M212.996 83.825L5.89 137.435v38.796l43.04 46.962 246.1-80.728v-10.576l-82.034-48.063" fill="#837166" fill-rule="evenodd"/><path d="M213.027 73.328L5.89 127.488v35.604l43.458 47.102 245.712-78.228-82.033-58.638" fill="#b49f83" fill-rule="evenodd"/><path d="M5.89 248.01H49.98v-83.325H5.89v83.325z" fill="#b49f83" fill-rule="evenodd"/><path d="M54.608 248.01V208.6l-5.51 1.53v37.88h5.51M289.456 248.01h5.51V135.395h-5.51V248.01z" fill="#837166" fill-rule="evenodd"/><path d="M5.89 163.068v14.157l43.24 46.33.218-13.297-43.46-47.19" fill="#685c55" fill-rule="evenodd"/><g clip-path="url(#a)" transform="matrix(.03757 0 0 -.03826 5.89 248.01)"><path d="M2682.87 3288.93h770.22v246.95h-770.22v-246.95z" fill="#968571"/></g><path d="M108.46 109.172l-.266 12.232 28.915-8.37.82-11.27-29.47 7.408" fill="#55595b" fill-rule="evenodd"/><path d="M120.736 132.916c-2.71 0-5.676-1.18-7.356-3.102l-6.69-7.645 28.867-8.357 9.16 6.96c2.632 2 2.215 4.43-.926 5.4l-20.73 6.413c-.724.224-1.513.33-2.324.33" fill="#968571"/><path d="M106.69 122.17l28.77-8.43.097.073-28.866 8.356" fill="#7d7060"/><path d="M136.962 112.973l9.26 7.035c2.63 2 2.213 4.43-.928 5.4l-20.73 6.413c-3.142.972-7.498-.275-9.682-2.77l-6.688-7.646" fill="#6f7375"/><path d="M64.107 112.266L54.95 29.174c-.166-1.513.234-2.97 1.027-4.144-.27.818-.375 1.705-.275 2.613l9.3 84.39-.895.233" fill="#7cb1af"/><path d="M69.806 121.365c-2.677 0-4.914-1.977-5.232-4.857l-.467-4.242.895-.234.324 2.946c.317 2.88 2.554 4.856 5.23 4.856.412 0 .833-.046 1.26-.144l15.65-3.564c.063.427.137.865.212 1.31l-16.614 3.785c-.426.098-.848.145-1.258.145m18.583-4.09c-.066-.44-.132-.877-.195-1.316l18.725-4.266-.03 1.366-18.5 4.214m49.226-11.212l.1-1.383 40.096-9.134c1.815-.413 3.413-1.662 4.433-3.275-.837 2.323-2.827 4.27-5.185 4.807l-39.444 8.985" fill="#968571"/><path d="M106.89 113.06l.03-1.366 1.493-.34-.03 1.366-1.493.34" fill="#7d7060"/><path d="M108.384 112.72l.03-1.366 29.303-6.675-.1 1.382-29.233 6.658" fill="#494b4d"/><path d="M55.702 27.643c-.366-3.32 2-6.37 5.258-6.775L174.547 6.765c3.258-.404 6.022 1.997 6.14 5.338l2.73 76.043c.12 3.34-2.402 6.67-5.605 7.4L71.815 119.69c-3.203.73-6.123-1.39-6.49-4.712l-9.623-87.335" fill="#858989" fill-rule="evenodd"/><path d="M64.822 31.724l104.894-14.09 4.017 69.203-100.017 20.35-8.894-75.463" fill="#fff" fill-rule="evenodd"/><path d="M114.714 18.77c.046-1.005.884-1.782 1.872-1.734.988.047 1.75.9 1.704 1.907-.046 1.006-.885 1.782-1.872 1.735-.988-.047-1.75-.9-1.704-1.907" fill="#141515"/><path d="M87.435 115.915c.435 3.06 1.45 6.71-.037 9.625-.8 1.567-2.183 2.79-3.502 3.892-1.218 1.02-2.5 1.972-3.768 2.927-5.01 3.775-11.11 8.657-11.128 15.637-.004 1.576.4 3.11 1.002 4.55.188.453.835.063.648-.386-3.202-7.68 3.154-13.996 8.68-18.247 2.533-1.95 5.302-3.75 7.436-6.164 1.99-2.25 2.315-4.817 1.993-7.73-.16-1.442-.397-2.873-.6-4.308-.07-.487-.794-.28-.725.203" fill="#f1f5f6"/><path d="M76.924 176.693c-3.55 0-6.824-2.365-7.872-6.01l-2.71-9.43c-1.04-3.628.443-7.4 3.405-9.356.08.22.165.436.255.65.06.143.164.202.274.202.24 0 .503-.28.374-.59-.09-.218-.174-.435-.25-.652.39-.208.8-.386 1.23-.53l.93 3.076c-.232.2-.345.493-.266.77l1.152 4.007c.086.302.375.496.71.512l.584 1.93c-.04.084-.048.184-.02.28l.223.778c.05.178.21.292.382.292.037 0 .075-.006.112-.017.21-.063.332-.288.27-.502l-.223-.777c-.03-.1-.092-.18-.173-.232l-.575-1.907c.304-.194.466-.535.374-.853l-1.15-4.005c-.092-.317-.403-.514-.757-.514-.03 0-.06 0-.09.004l-.91-3.013c.674-.175 1.352-.26 2.02-.26 3.55 0 6.824 2.366 7.87 6.012l2.71 9.428c1.274 4.43-1.22 9.072-5.57 10.367-.77.23-1.546.338-2.31.338" fill="#968571"/><path d="M70.276 152.75c-.11 0-.215-.06-.274-.203-.09-.214-.175-.43-.255-.65.21-.14.428-.27.653-.39.076.218.16.435.25.654.13.31-.135.59-.374.59" fill="#c8cccc"/><path d="M71.69 150.957c.073-.024.15-.048.225-.07l-.226.07" fill="#968571"/><path d="M74.74 161.27l-.583-1.928h.045c.092 0 .188-.013.283-.04.09-.028.175-.067.25-.115l.576 1.907c-.06-.04-.133-.06-.207-.06-.037 0-.075.005-.113.016-.115.034-.203.117-.25.22m-2.18-7.216l-.93-3.077.06-.02.225-.07.285-.09.002.01.91 3.013c-.063.006-.127.018-.192.038-.138.04-.26.11-.36.196" fill="#968571"/><path d="M75.325 162.622c-.172 0-.33-.114-.382-.292l-.224-.778c-.028-.096-.02-.196.02-.28.047-.105.135-.188.25-.222.038-.01.076-.016.113-.016.074 0 .146.02.208.06.082.05.145.13.174.232l.223.777c.062.214-.06.44-.27.502-.037.01-.075.017-.112.017M74.202 159.343h-.045c-.336-.017-.625-.21-.71-.512l-1.153-4.007c-.08-.276.034-.57.265-.77.1-.086.222-.154.36-.195.065-.02.13-.032.193-.038.03-.003.06-.004.09-.004.354 0 .665.197.756.513l1.15 4.004c.09.318-.07.66-.375.853-.075.048-.16.087-.25.115-.095.027-.19.04-.283.04" fill="#968571"/><path d="M83.3 165.223c1.274 4.43-1.22 9.07-5.57 10.367-4.35 1.296-8.908-1.244-10.18-5.673l-2.71-9.43c-1.273-4.428 1.22-9.07 5.572-10.365 4.348-1.297 8.907 1.242 10.18 5.672l2.708 9.43" fill="#6f7375"/><path d="M70.126 150.21l3.16 10.455.57-.18-3.16-10.453" fill="#3f4043"/><path d="M74.205 161.337c.06.214-.06.44-.27.503-.21.063-.433-.06-.495-.275l-.224-.777c-.06-.214.06-.44.27-.503.212-.064.433.06.495.276l.225.777" fill="#ed333d"/><path d="M73.606 157.57c.115.396-.165.827-.624.966-.46.136-.925-.074-1.04-.47l-1.15-4.008c-.114-.396.167-.828.625-.966.46-.136.925.074 1.04.472l1.15 4.005" fill="#3f4043"/><path d="M122.364 176.938l-22.497-23.245v-2.917l74.883-22.22 25.804 21.224-78.19 27.158" fill="#968571"/><path d="M123.115 175.407l78.19-27.157-25.803-21.224-74.883 22.22v2.917l22.495 23.244" fill="#55595b" fill-rule="evenodd"/><path d="M123.654 172.422l78.403-26.277-25.804-21.224-75.674 24.257 23.074 23.245" fill="#6f7375" fill-rule="evenodd"/><path d="M113.454 152.07l6.77-2.095-2.534-2.086-6.497 2.126 2.26 2.054M121.03 149.63l3.965-1.276-2.818-2.01-3.68 1.184 2.534 2.103M125.62 148.116l3.965-1.278-2.818-2.01-3.68 1.184 2.534 2.104M130.335 146.663l3.965-1.278-2.82-2.01-3.68 1.184 2.535 2.103M134.863 145.147l3.964-1.278-2.818-2.01-3.68 1.183 2.533 2.104M139.453 143.568l3.965-1.278-2.82-2.008-3.68 1.182 2.535 2.104M144.043 142.052l3.964-1.278-2.818-2.01-3.68 1.184 2.533 2.104M148.757 140.6l3.965-1.28-2.82-2.007-3.678 1.182 2.533 2.104M153.285 139.083l3.965-1.278-2.82-2.008-3.68 1.183 2.535 2.103M157.875 137.44l3.964-1.277-2.82-2.01-3.678 1.184 2.533 2.104M162.465 135.925l3.965-1.278-2.82-2.01-3.678 1.184 2.533 2.105M167.18 134.472l3.964-1.28-2.82-2.007-3.678 1.183 2.533 2.104M171.707 132.956l3.965-1.278-2.82-2.01-3.678 1.184 2.533 2.104M116.844 155.354l6.77-2.094-2.533-2.086-6.496 2.126 2.26 2.054M124.42 152.916l3.966-1.278-2.818-2.008-3.68 1.183 2.533 2.103M129.01 151.4l3.966-1.278-2.818-2.008-3.68 1.183 2.533 2.104M133.725 149.948l3.965-1.278-2.818-2.01-3.68 1.184 2.533 2.104M138.253 148.432l3.965-1.278-2.818-2.01-3.68 1.184 2.533 2.104M142.843 146.853l3.965-1.278-2.818-2.01-3.68 1.183 2.533 2.105M147.433 145.337l3.965-1.278-2.818-2.01-3.68 1.183 2.533 2.104M152.148 143.884l3.964-1.278-2.818-2.01-3.68 1.184 2.534 2.104M156.675 142.368l3.966-1.28-2.818-2.007-3.68 1.184 2.533 2.104M161.266 140.726l3.964-1.278-2.818-2.01-3.68 1.184 2.534 2.104M165.856 139.21l3.964-1.28-2.818-2.008-3.68 1.184 2.534 2.104M170.57 137.756l3.964-1.278-2.818-2.008-3.68 1.183 2.534 2.103M175.098 136.24l3.964-1.278-2.818-2.008-3.68 1.183 2.534 2.103M120.07 158.808l6.77-2.095-2.534-2.087-6.497 2.128 2.26 2.054M127.647 156.37l3.965-1.28-2.82-2.007-3.68 1.183 2.535 2.103M132.237 154.854l3.964-1.278-2.817-2.01-3.68 1.184 2.534 2.104M136.95 153.4l3.965-1.277-2.818-2.01-3.68 1.184 2.534 2.104M141.48 151.885l3.964-1.28-2.82-2.007-3.68 1.183 2.535 2.105M146.07 150.306l3.964-1.28-2.82-2.007-3.678 1.182 2.533 2.104M150.66 148.79l3.964-1.28-2.82-2.007-3.68 1.183 2.535 2.103M155.373 147.336l3.964-1.277-2.818-2.01-3.68 1.183 2.533 2.103M159.9 145.82l3.966-1.278-2.82-2.01-3.678 1.185 2.533 2.104M164.49 144.178l3.966-1.278-2.818-2.008-3.68 1.182 2.533 2.104M169.08 142.662l3.966-1.278-2.818-2.008-3.68 1.182 2.533 2.104M173.795 141.21l3.965-1.278-2.82-2.01-3.678 1.184 2.533 2.104M178.323 139.694l3.965-1.278-2.818-2.01-3.68 1.184 2.533 2.104M124.123 162.177l6.77-2.095-2.534-2.086-6.498 2.127 2.26 2.054M131.7 159.738l3.963-1.278-2.818-2.008-3.68 1.183 2.534 2.103M136.29 158.223l3.964-1.278-2.82-2.01-3.68 1.183 2.535 2.105M141.003 156.77l3.965-1.278-2.818-2.01-3.68 1.184 2.533 2.104M145.53 155.254l3.966-1.28-2.82-2.007L143 153.15l2.533 2.104M150.12 153.674l3.966-1.278-2.818-2.008-3.68 1.183 2.533 2.104M154.712 152.16l3.964-1.28-2.818-2.008-3.68 1.183 2.534 2.104M159.425 150.706l3.965-1.278-2.818-2.008-3.68 1.182 2.533 2.104M163.953 149.19l3.965-1.278-2.818-2.01-3.68 1.184 2.533 2.103M168.544 147.548l3.964-1.28-2.818-2.007-3.68 1.183 2.534 2.105M173.133 146.03l3.965-1.277-2.818-2.008-3.68 1.183 2.533 2.103M177.848 144.58l3.964-1.28-2.818-2.008-3.68 1.183 2.534 2.104M182.375 143.063l3.965-1.28-2.82-2.008-3.678 1.184 2.533 2.103M127.638 165.756l6.77-2.094-2.535-2.087-6.497 2.127 2.262 2.054M135.214 163.318l3.965-1.278-2.82-2.008-3.68 1.183 2.534 2.103M139.804 161.802l3.965-1.278-2.82-2.008-3.68 1.183 2.534 2.102M144.518 160.35l3.965-1.28-2.82-2.007-3.678 1.183 2.533 2.104M149.15 158.834l22.307-7.382-2.4-2.022-22.44 7.3 2.532 2.104M172.06 151.127l3.963-1.278-2.818-2.01-3.68 1.183 2.534 2.104M176.648 149.612l3.965-1.28-2.818-2.008-3.68 1.183 2.533 2.105M181.362 148.16l3.965-1.28-2.818-2.008-3.68 1.182 2.532 2.105M185.89 146.642l3.966-1.278-2.82-2.008-3.68 1.183 2.534 2.102" fill="#55595b" fill-rule="evenodd"/><path d="M86.608 81.576l-3.08-20.343.878-.137 2.98 19.687 50.764-7.97.1.656-51.642 8.106" fill="#d4d4d2"/><path d="M83.497 61.238l-.556-3.67.878-.137.456 3.016.032-.005.1.656-.877.137-.033.005" fill="#d4d4d2"/><path d="M87.386 80.783l51.64-8.106-3.14-20.75-51.64 8.108 3.14 20.748" fill="#dcdcd9"/><path d="M135.473 48.652L83.72 56.777l.554 3.67.032-.006 51.642-8.106.08-.012-.555-3.67" fill="#92d3ce"/><path d="M135.78 50.692l-4.364.685-.308-2.04 4.365-.685.308 2.04" fill="#ed333d" fill-rule="evenodd"/><path d="M133.125 50.7l-.287.046.53-.735-.68-.512.3-.046.517.405.37-.545.284-.044-.495.696.71.54-.295.047-.548-.435-.407.586" fill="#eaeae9"/><path d="M91.558 75.75c-.374 0-.553-.286-.4-.685l.088-.232 1.567-.246.088.58 10.86-1.705c.014.225-.15.406-.46.454l-4.967.78c-.46.073-1.216.19-1.678.264l-4.966.78c-.047.006-.09.01-.132.01" fill="#b6b9b6"/><path d="M94.246 63.122c.17-.443.546-.502.838-.132l3.147 3.99 1.064 1.35 3.146 3.988c.292.37.154.734-.307.806l-4.967.78-1.678.263-4.966.78c-.46.072-.7-.23-.532-.674l1.82-4.77.616-1.61 1.82-4.77" fill="#e3c929" fill-rule="evenodd"/><path d="M94.572 66c.075-.025.15-.046.223-.064.074-.017.15-.032.227-.044.083-.013.166-.023.25-.03.085-.008.17-.01.255-.013l.64 4.58c-.134.046-.273.08-.415.103-.16.025-.303.035-.425.03L94.572 66m.953 6.542c-.024-.083-.046-.165-.064-.246-.018-.08-.033-.164-.046-.25-.013-.083-.023-.17-.03-.26-.007-.088-.01-.176-.013-.263.083-.025.163-.047.243-.065.08-.02.16-.035.244-.048.083-.013.17-.023.256-.03.087-.01.173-.013.258-.014.026.084.048.167.067.25.018.085.035.17.047.254.013.085.023.17.03.256.007.086.01.172.012.26-.082.024-.164.046-.246.065-.083.02-.166.036-.25.05-.082.012-.166.022-.25.03-.084.007-.17.01-.255.012M105.323 61.196l18.39-2.887-.025-.17-18.39 2.886.025.17M105.606 63.065l26.91-4.224-.025-.17-26.91 4.225.026.17M105.857 64.726l26.91-4.224-.025-.17-26.91 4.225.025.17M106.11 66.388l26.91-4.225-.026-.17-26.91 4.225.025.17M106.36 68.05l26.91-4.225-.025-.17-26.91 4.225.026.17M106.612 69.71l26.91-4.224-.025-.17-26.91 4.225.025.17" fill="#28292a"/><path d="M114.924 73.228l-7.446 1.12-.412-2.84 7.446-1.12.412 2.84M123.74 71.907l-7.446 1.12-.41-2.84 7.445-1.12.41 2.84" fill="#abb2b0" fill-rule="evenodd"/><path d="M138.325 68.036l-.1-.655 6.22-.975.098.655-6.218.976M89.97 55.796l-.148-.97.877-.14.146.972-.877.138" fill="#d4d4d2"/><path d="M103.76 73.462c-.008-.11-.058-.23-.153-.35l-.207-.264 3.774-.592.096.655-3.51.552m10.95-1.72l-.096-.654 1.368-.215.095.655-1.368.215m8.807-1.382l-.095-.655 14.804-2.324.1.656-14.81 2.325M91.98 69.067l-1.453-9.6.877-.138 1.218 8.054-.194.51-.448 1.174" fill="#b6b9b6"/><path d="M90.525 59.465l-.556-3.67.876-.137.556 3.67-.877.137" fill="#7cb1af"/><path d="M92.9 75.167l-.087-.58 2.675-.42 1.678-.263 4.967-.78c.13-.02.236-.064.313-.126l.954-.15.207.263c.095.122.145.242.152.352L92.9 75.167" fill="#999b9b"/><path d="M92.813 74.587l-.835-5.52.448-1.175.194-.51 1.06 6.992 8.766-1.376c-.077.062-.182.106-.313.126l-4.967.78-1.678.263-2.675.42" fill="#beaa26"/><path d="M107.27 72.91l-.096-.654 7.44-1.168.095.655-7.44 1.168M116.077 71.528l-.095-.655 7.44-1.168.095.656-7.44 1.168" fill="#909595"/><path d="M89.79 54.83l-.556-3.67.877-.138.458 3.015.032-.005.1.655-.878.138-.032.004" fill="#d4d4d2"/><path d="M93.68 74.374l51.64-8.106-3.14-20.75-51.642 8.108 3.14 20.748" fill="#dcdcd9"/><path d="M141.766 42.243l-51.754 8.125.556 3.67.032-.006 51.642-8.107.08-.012-.556-3.67" fill="#92d3ce"/><path d="M142.075 44.283l-4.365.685-.31-2.04 4.366-.685.31 2.04" fill="#ed333d" fill-rule="evenodd"/><path d="M139.42 44.292l-.29.045.53-.735-.677-.513.298-.047.518.405.37-.545.284-.044-.494.695.71.54-.295.047-.548-.436-.406.586" fill="#eaeae9"/><path d="M97.85 69.34c-.373 0-.55-.285-.4-.684l.09-.23.614-.098.144.953-.316.05c-.046.007-.09.01-.13.01" fill="#b6b9b6"/><path d="M100.54 56.713c.168-.443.546-.502.838-.13l3.146 3.99 1.063 1.347 3.146 3.99c.293.37.154.733-.307.805l-4.966.78-1.678.263-4.967.78c-.46.072-.7-.23-.53-.674l1.82-4.77.614-1.61 1.82-4.77" fill="#e3c929" fill-rule="evenodd"/><path d="M100.865 59.59c.076-.024.15-.045.224-.063.072-.017.148-.032.225-.044.083-.013.167-.023.25-.03.086-.008.17-.01.255-.013l.64 4.582c-.134.045-.272.08-.415.102-.16.025-.302.035-.425.03l-.755-4.564m.954 6.543c-.026-.083-.047-.165-.065-.246-.02-.08-.034-.164-.047-.25-.013-.083-.023-.17-.03-.26-.008-.088-.012-.176-.014-.263.083-.025.163-.047.242-.065.08-.02.16-.036.245-.05.084-.012.17-.022.256-.03.088-.007.173-.012.26-.013.023.084.045.167.064.25.02.085.035.17.048.254.012.086.022.17.03.257.006.086.01.172.01.26-.08.024-.163.046-.245.065-.083.02-.165.035-.248.048-.084.014-.168.023-.252.03-.084.008-.17.01-.254.013M111.616 54.787l18.39-2.887-.025-.17-18.39 2.887.026.17M111.9 56.656l26.91-4.224-.026-.17-26.91 4.224.026.17M112.15 58.317l26.91-4.224-.024-.17-26.91 4.225.025.17M112.403 59.98l26.91-4.226-.026-.17-26.91 4.225.026.17M112.654 61.64l26.91-4.224-.026-.17-26.91 4.225.026.17M112.906 63.302l26.91-4.225-.026-.17-26.91 4.225.026.17" fill="#28292a"/><path d="M121.218 66.82l-7.447 1.12-.41-2.842 7.446-1.12.412 2.84M130.035 65.498l-7.447 1.12-.412-2.84 7.447-1.12.412 2.84" fill="#abb2b0" fill-rule="evenodd"/><path d="M95.31 49.536l-.04-.26.877-.137.04.26-.878.136" fill="#d4d4d2"/><path d="M98.35 69.62l-.052-.34 4.65-.73 1.68-.263 4.965-.78c.283-.044.445-.198.46-.396l3.518-.55.096.654L98.35 69.62m-.778-5.132l-1.707-11.282.877-.138 1.473 9.735-.11.292-.533 1.393" fill="#b6b9b6"/><path d="M95.865 53.206l-.556-3.67.876-.137.556 3.668-.877.138" fill="#7cb1af"/><path d="M98.298 69.28l-.144-.952.877-.138.097.636 10.925-1.715c-.014.2-.176.353-.46.397l-4.965.78c-.462.073-1.217.19-1.678.264l-4.652.73" fill="#999b9b"/><path d="M98.154 68.328l-.582-3.84.532-1.393.11-.292.817 5.387-.876.138" fill="#beaa26"/><path d="M121.106 66.046l-.095-.655 1.37-.214.094.655-1.368.216" fill="#b6b9b6"/><path d="M144.726 62.338l-.1-.654 5.266-.827.1.655-5.266.826" fill="#d4d4d2"/><path d="M129.913 64.663l-.095-.655 14.81-2.324.098.654-14.813 2.325" fill="#b6b9b6"/><path d="M113.666 67.214l-.095-.655 7.44-1.17.096.656-7.44 1.168M122.474 65.83l-.095-.654 7.438-1.168.095.655-7.44 1.168" fill="#909595"/><path d="M95.238 49.28l-.556-3.668 51.754-8.125.395 2.61-50.844 7.98.16 1.062-.876.136-.032.005" fill="#d4d4d2"/><path d="M99.127 68.826l51.642-8.106-3.142-20.75-51.642 8.108 3.14 20.748" fill="#dcdcd9"/><path d="M147.214 36.695L95.46 44.82l.556 3.67.032-.006 51.642-8.107.08-.012-.556-3.67" fill="#92d3ce"/><path d="M147.523 38.735l-4.365.685-.31-2.04 4.366-.685.31 2.04" fill="#ed333d" fill-rule="evenodd"/><path d="M144.867 38.744l-.288.045.528-.736-.678-.513.3-.045.516.405.37-.545.284-.044-.493.697.71.54-.296.047-.547-.436-.406.586" fill="#eaeae9"/><path d="M103.3 63.793c-.375 0-.553-.286-.4-.685l1.82-4.77.614-1.61 1.82-4.77c.094-.248.254-.376.427-.376.138 0 .284.08.413.244l3.146 3.99c.29.37.77.977 1.062 1.348l3.146 3.99c.293.37.154.733-.307.805l-4.965.78-1.678.263-4.967.78c-.045.006-.09.01-.13.01" fill="#b6b9b6"/><path d="M105.987 51.165c.17-.443.547-.502.84-.132l3.145 3.99 1.063 1.35 3.146 3.988c.294.373.155.735-.306.807l-4.966.78-1.678.263-4.967.78c-.46.072-.7-.23-.53-.674l1.82-4.77.614-1.61 1.82-4.77" fill="#e3c929" fill-rule="evenodd"/><path d="M106.313 54.042c.076-.024.15-.045.223-.063.074-.018.15-.033.227-.045.083-.013.167-.023.25-.03.086-.008.17-.01.255-.013l.64 4.582c-.134.045-.272.08-.415.102-.16.025-.302.035-.425.03l-.755-4.564zm.954 6.543c-.025-.083-.046-.165-.064-.246-.02-.082-.034-.165-.047-.25-.013-.084-.023-.17-.03-.26-.008-.09-.012-.177-.014-.264.082-.025.163-.047.242-.065.08-.018.16-.034.245-.047.082-.013.167-.023.254-.03.088-.01.173-.013.26-.014.023.083.045.166.064.25.02.084.035.168.048.253.012.085.022.17.03.256.006.085.01.17.01.258-.08.025-.163.047-.245.066-.082.02-.164.035-.247.048-.084.013-.168.023-.252.03-.083.008-.168.01-.253.013M117.064 49.24l18.39-2.888-.025-.17-18.39 2.887M117.348 51.108l26.91-4.224-.026-.17-26.91 4.224M117.6 52.77l26.91-4.225-.026-.17-26.91 4.225M117.85 54.43l26.91-4.224-.025-.17-26.91 4.225M118.102 56.093l26.91-4.225-.026-.17-26.91 4.225M118.354 57.754l26.91-4.225-.026-.17-26.91 4.224" fill="#28292a"/><path d="M126.666 61.27l-7.447 1.12-.413-2.84 7.446-1.12.413 2.84M135.482 59.95l-7.446 1.12-.412-2.84 7.447-1.12.412 2.84" fill="#abb2b0" fill-rule="evenodd"/><path d="M260.02 90.584c-1.254 6.646-3.856 13.745-8.564 21.007 3.68 4.402 5.907 7.57 5.652 8.54-1.752 6.664-47.662 27.028-57.058 29.536-15.093 4.03-11.788 18.204-11.788 18.204 3.028 15.115 21.266 7.533 21.266 7.533s76.133-36.033 77.737-49.594c.715-6.047-12.06-20.448-27.245-35.226" fill="#31747a"/><path d="M256.573 55.216c-3.83-13.165-19.358-13.988-19.358-13.988-1.613-8.228-7.612-11.645-12.278-12.46-30.65-5.348-44.493 7.682-55.88 7.934-18.55.412-21.45-4.66-21.45-4.66-2.77 8.14 1.183 14.87 1.183 14.87-6.072-.263-7.685-4.75-7.685-4.75 2.454 12.094 8.054 20.004 14.66 25.164.49.43 1.41 1.188 2.762 2.086 5.423 3.603 17.747 9.454 36.745 5.415 0 0 .154 22.004 2.42 27.428.657 1.573 2.028 2.5 3.768 2.985l.002-.06c.21-5.016 3.943-8.93 8.34-8.74 4.397.192 7.794 4.413 7.586 9.43l-.126 3.028c-.21 5.018-3.943 8.93-8.34 8.74-1.14-.05-2.212-.37-3.172-.905l-1.605 7.6 11.853 8.607 14.764-.357.806-.02c8.993-6.97 15.397-14.046 19.888-20.972 4.708-7.26 7.31-14.36 8.564-21.006 2.913-15.444-1.432-28.445-3.447-35.368" fill="#373025"/><path d="M164.518 82.68l-.434 3.657c-.16 1.347-1.36 2.306-2.68 2.143-1.32-.164-2.26-1.387-2.098-2.733l.434-3.656c.16-1.346 1.36-2.304 2.68-2.14 1.32.162 2.26 1.385 2.098 2.73zm39.627 41.654l1.605-7.6c.96.533 2.032.855 3.17.905 4.4.19 8.133-3.724 8.342-8.742l.126-3.028c.208-5.017-3.19-9.238-7.585-9.43-4.398-.19-8.132 3.724-8.34 8.74l-.003.06c-1.74-.486-3.11-1.412-3.768-2.985-2.266-5.424-2.42-27.428-2.42-27.428-18.998 4.04-31.322-1.812-36.745-5.415-.76 5.05-3.014 19.987-3.182 20.158 0 0-.153.858-.382 2.2l-4.256 3.148c-3.377 2.726-4.768 3.156-4.234 5.143.04.145.56 1.003.672 1.098 2.388 2.01 3.348 2.06 5.934 2.658-.14 1.09-.247 2.046-.297 2.763-.165 2.34-.195 5.49.057 8.876-.054-1.298-.04-2.05-.04-2.05l1.786-.335c5.24-.69 9.23.156 10.334 5.446.468 3.696-3.398 7.255-8.638 7.945l-1.38.25c1.002 3.043 2.406 5.748 4.342 7.635 5.346 5.21 14.093 7.565 24.332 7.477v6.374l33.07-2.057v-4.115h14.116v-9.442l-14.764.357-11.853-8.606" fill="#f9d0a8"/><path d="M164.92 118.516c-1.105-5.29-5.095-6.136-10.334-5.445l-1.785.336s-.014.752.04 2.05c.057 1.347.188 3.28.49 5.587.402 3.085 1.524 5.675 1.524 5.675l.048-.01 1.38-.247c5.24-.69 9.106-4.248 8.638-7.944" fill="#cc616c"/><path d="M162.42 79.95c-1.32-.164-2.52.794-2.68 2.14l-.434 3.657c-.16 1.346.78 2.57 2.1 2.733 1.318.163 2.518-.796 2.678-2.143l.434-3.656c.16-1.345-.78-2.568-2.1-2.73" fill="#040606"/><path d="M231.972 139.557c-2.148-1.46-40.936 3.918-48.8 7.405-9.828 4.36-12.852 24.724-12.852 24.724s-.86 23-.86 25.47v50.854h80.664c.057-6.54.495-95.77-18.152-108.453" fill="#388389" fill-rule="evenodd"/><path d="M163.342 63.003c-2.522 3.46-7.314 4.176-10.704 1.604-3.39-2.573-4.093-7.46-1.57-10.92l6.363-8.727c2.523-3.458 7.316-4.175 10.705-1.603 3.39 2.573 4.094 7.46 1.572 10.92l-6.365 8.726" fill="#f9d0a8" fill-rule="evenodd"/><path d="M169.686 57.45c.354.977.05 1.992-.68 2.267l-4.06 1.53c-.73.276-1.607-.293-1.96-1.27-.355-.977-.05-1.992.678-2.267l4.06-1.53c.73-.276 1.607.293 1.962 1.27" fill="#f9d0a8" fill-rule="evenodd"/><path d="M202.354 169.748c2.62-7.636-1.497-18.325-18.375-22.374-10.328-2.478-59.763-14.554-60.24-21.353-.604-8.64 40.53-64.177 40.53-64.177l-12.098-9.874s-60.153 64.223-53.838 82.69c6.05 17.692 73.333 42.342 79.32 43.487 6.786 1.3 19.04 8.096 24.7-8.4" fill="#388389" fill-rule="evenodd"/><path d="M283.117 232.658v-38.982c0-25.905-13.586-52.412-42.558-52.412l-.46.04c-35.118 2.73-47.41 26.467-47.41 52.372v33.487c0 8.19-.475 15.152.44 20.847H282.985c.353-4.035.13-9.074.13-15.352" fill="#c13e47" fill-rule="evenodd"/><path d="M278.97 248.01c3.568-6.007 2.34-14.88 2.34-26.708v-25.238c0-24.438-10.845-49.58-34.826-49.58h-1.616c-29.07 2.578-38.41 25.142-38.41 49.58v9.453c0 21.918-.738 34.873 2.212 42.494h70.3" fill="#28292a" fill-rule="evenodd"/><path d="M258.498 247.948v-19.29c0-6.64-5.29-12.027-11.815-12.027-6.524 0-11.813 5.387-11.813 12.027v19.29h23.628" fill="#3f4043" fill-rule="evenodd"/><path d="M261.778 248.01v-19.328c0-6.655-5.29-12.05-11.81-12.05-6.527 0-11.818 5.395-11.818 12.05v19.328h23.628" fill="#55595b" fill-rule="evenodd"/></svg>