<?xml version="1.0" encoding="UTF-8" standalone="no"?>
<!-- Created with Inkscape (http://www.inkscape.org/) -->
<svg id="svg2" xmlns:rdf="http://www.w3.org/1999/02/22-rdf-syntax-ns#" xmlns="http://www.w3.org/2000/svg" xml:space="preserve" height="380" viewBox="0 0 513 380" width="513" version="1.1" xmlns:cc="http://creativecommons.org/ns#" xmlns:dc="http://purl.org/dc/elements/1.1/"><metadata id="metadata8"><rdf:RDF><cc:Work rdf:about=""><dc:format>image/svg+xml</dc:format><dc:type rdf:resource="http://purl.org/dc/dcmitype/StillImage"/><dc:title/></cc:Work></rdf:RDF></metadata><g id="g10" transform="matrix(1.25,0,0,-1.25,0,380)"><g id="g4618" transform="matrix(.43622 0 0 .43236 14.976 -18.527)"><g fill="#162125"><path id="path18" d="m251.36 454.7c-0.112 0.098-0.23 0.161-0.349 0.198-0.243 0.186-0.568 0.233-0.9-0.016-13.254-9.919-31.645-12.546-46.576-4.712-13.754 7.216-23.191 22.267-22.248 37.962 1.045 17.394 13.202 31.613 29.939 35.955 16.52 4.286 34.454 1.232 46.172-11.808 12.908-14.365 13.164-36.12 1.614-51.343-0.436-0.204-0.739-0.701-0.423-1.237 2.77-4.686 6.639-8.222 11.417-10.541-6.741-1.034-13.413 0.899-18.646 5.542zm21.832-4.971c-5.38 1.963-9.637 5.458-12.655 10.27 10.116 13.586 11.847 32.392 2.936 47.107-9.385 15.497-26.606 22.153-44.194 20.244-17.964-1.95-33.294-12.496-38.309-30.363-4.563-16.257 1.769-33.509 14.854-43.922 15.915-12.665 38.642-11.826 54.758-0.051 6.336-5.352 14.557-7.213 22.61-5.021 0.907 0.247 0.8 1.444 0 1.736"/><path id="path20" d="m579.09 372.72c-1.108 0.156-1.59-1.489-0.542-1.713-1.083-4.794-0.631-9.493 1.36-13.879-7.689 2.818-13.262 9.501-14.647 17.69-0.157 0.928-1.32 0.77-1.65 0.071-0.092 0.203-0.273 0.364-0.577 0.412-16.466 2.632-23.361 20.878-18.699 35.493 4.827 15.133 18.671 26.793 33.569 31.397 14.661 4.53 30.954 2.202 42.156-8.783 10.831-10.622 14.902-26.859 7.428-40.55-9.44-17.288-30.036-22.731-48.398-20.138zm46.403 57.209c-21.821 29.1-68.389 15.596-81.546-15.045-6.888-16.043-0.591-38.25 18.609-41.318 0.488-0.079 0.844 0.204 1.014 0.56 1.674-9.391 8.664-16.936 17.883-19.384 0.761-0.202 1.407 0.638 1.016 1.322-2.623 4.584-3.353 9.561-2.14 14.7 16.832-1.944 34.75 2.33 45.51 16.323 9.955 12.945 9.335 29.933-0.346 42.842"/><path id="path22" d="m602.61 224.84c2.18 3.719 4.45 7.377 6.822 10.977 0.636-0.335 1.607 0.126 1.303 0.974-1.735 4.831-9.257 6.581-13.756 7.348-6.014 1.026-12.268 0.471-17.951-1.78-5.504-2.179-10.394-5.873-14.041-10.533-2.43-3.105-5.819-7.783-5.17-12.019-6.874 2.332-13.884 3.86-21.106 4.631-0.194 0.021-0.343-0.027-0.472-0.098 3.915 15.451 15.145 28.694 30.151 34.412 16.085 6.128 34.695 2.823 48.11-7.77 0.325-0.256 0.697-0.25 1-0.11 0.245-0.337 0.681-0.536 1.151-0.28 3.524 1.928 6.624 4.317 9.985 6.47 2.427 1.554 2.153 0.539 2.554-2.07 0.452-2.939 0.878-5.883 1.316-8.825 1.536-10.295 3.072-20.59 4.607-30.885l-34.503 9.558zm36.459-10.554c-1.316 8.825-2.633 17.65-3.949 26.476-0.634 4.249-1.268 8.498-1.902 12.748-0.363 2.436-0.287 5.037-1.991 6.93-0.346 0.384-0.916 0.298-1.273 0-3.795-3.162-7.805-5.875-12.13-8.246-0.021 0.019-0.027 0.042-0.051 0.061-13.93 10.999-33.107 14.557-49.861 8.232-15.761-5.949-27.608-19.901-31.548-36.177-0.231-0.956 0.979-1.436 1.519-0.871 0.07-0.386 0.338-0.748 0.828-0.801 7.224-0.771 14.233-2.354 21.099-4.722 0.323-0.111 0.581-0.028 0.772 0.139 0.637-0.301 1.572 0.162 1.271 0.995-1.607 4.438 3.518 10.73 6.291 13.71 2.91 3.128 6.444 5.693 10.349 7.435 4.697 2.096 9.904 2.939 15.027 2.565 3.874-0.283 12.207-1.526 14.878-5.341-0.075-0.059-0.149-0.118-0.21-0.21-2.704-4.08-5.28-8.231-7.735-12.466-0.292-0.503-0.024-1.167 0.537-1.322l36.972-10.242c0.722-0.201 1.204 0.454 1.107 1.107"/><path id="path24" d="m608.97 155.22c-17.653-6.695-35.322-1.568-50.653 8.212-0.457 0.291-0.889 0.101-1.13-0.241-0.173-0.022-0.347-0.087-0.502-0.251l-7.727-8.157c-4.748 14.627-9.264 29.326-13.547 44.096 11.831-4.28 23.661-8.56 35.492-12.84-1.785-2.993-3.571-5.986-5.356-8.98-0.456-0.765 0.35-1.467 1.02-1.309 14.987-18.683 45.372-0.939 49.019 18.622 4.022-0.274 7.896-1.491 11.894-1.995 3.836-0.483 7.675-0.544 11.531-0.33-3.021-16.543-14.107-30.784-30.041-36.827zm30.406 38.939c-0.015-0.1-0.038-0.199-0.052-0.299-4.449-0.265-8.874-0.17-13.285 0.524-3.67 0.579-7.207 1.646-10.934 1.826-0.437 0.021-0.707-0.223-0.814-0.536-0.189-0.097-0.335-0.281-0.385-0.567-3.207-18.401-31.965-35.97-46.195-17.935 1.766 2.962 3.533 5.924 5.299 8.886 0.317 0.532-0.003 1.129-0.537 1.323-12.729 4.604-25.457 9.208-38.185 13.813-0.655 0.237-1.287-0.485-1.107-1.107 4.572-15.837 9.411-31.592 14.518-47.265 0.202-0.621 1.018-0.91 1.504-0.397 2.892 3.053 5.784 6.106 8.676 9.158 16.107-10.142 34.779-15.057 53.058-7.509 16.429 6.785 27.739 22.113 30.174 39.607 0.158 1.133-1.576 1.623-1.735 0.478"/><path id="path26" d="m114.44 456.28c-11.747 21.706-23.494 43.413-35.241 65.119 7.184 3.521 14.239 7.276 21.175 11.261 3.302-8.215 6.604-16.431 9.905-24.646 0.289-0.718 1.192-0.901 1.645-0.215 17.511 26.477 44.59 44.913 74.596 54.432-34.13-27.07-59.447-64.226-72.08-105.95zm76.209 109.08c-31.736-9.018-60.6-27.78-79.299-55.211-3.234 8.046-6.468 16.092-9.701 24.138-0.321 0.797-1.382 0.734-1.7079 0.197-7.1125-4.101-14.351-7.955-21.724-11.566-0.3281-0.161-0.4457-0.426-0.4429-0.697-0.4075-0.219-0.6829-0.708-0.3989-1.233 12.175-22.496 24.349-44.992 36.524-67.488 0.377-0.696 1.434-0.507 1.645 0.215 12.733 43.678 39.497 82.563 75.797 110 0.761 0.575 0.366 1.946-0.693 1.645"/><path id="path28" d="m696.25 333.51c-0.31-0.066-0.49-0.248-0.578-0.467-0.385-0.072-0.746-0.34-0.798-0.829-1.896-17.753 1.017-35.701-1.581-53.381-23.292 0.524-46.584 1.047-69.876 1.57-0.072 0.049-0.143 0.097-0.215 0.146-0.041 0.027-0.08 0.029-0.12 0.049-0.431 1.798 0.17 6.24 0.179 7.386 0.014 1.941 0.028 3.882 0.042 5.823 0.033 4.528 0.066 9.057 0.099 13.585 0.066 9.057 0.132 18.114 0.198 27.172 0.004 0.509-0.416 0.868-0.9 0.9-2.917 0.188-5.833 0.377-8.75 0.565 7.35 6.556 14.7 13.112 22.049 19.668 3.958 3.53 7.916 7.061 11.874 10.591 1.98 1.765 3.959 3.53 5.938 5.296 2.826 2.521 3.552 3.606 6.664 0.716 14.191-13.176 28.898-25.782 44.039-37.854-2.776-0.034-5.525-0.348-8.264-0.936zm12.587-0.224c-0.211 0.167-0.42 0.337-0.631 0.504-0.105 0.288-0.347 0.517-0.715 0.571-16.99 13.474-33.411 27.633-49.228 42.467-0.369 0.347-0.9 0.333-1.273 0l-46.011-41.041c-0.786-0.701 0.19-1.794 1.022-1.42 0.021-0.002 0.036-0.014 0.059-0.016 1.685-0.108 7.49 0.446 8.866-0.573 1.749-1.295 0.824-6.125 0.81-7.948-0.044-6.146-0.089-12.292-0.134-18.438-0.042-5.822-0.085-11.644-0.127-17.467-0.018-2.426-1.197-8.123 0.173-10.616 0.054-0.229 0.184-0.432 0.396-0.556 0.022-0.024 0.039-0.054 0.062-0.076 0.353-0.339 0.801-0.315 1.146-0.07 23.745-0.533 47.49-1.067 71.234-1.601 0.912-0.02 1.095 1.079 0.572 1.566 2.548 17.634-0.237 35.499 1.576 53.202 0.033 0.003 0.06-0.007 0.095 0.001 3.346 0.718 6.696 0.972 10.103 0.823 0.245-0.194 0.488-0.391 0.733-0.584 0.899-0.711 2.181 0.555 1.272 1.272"/><path id="path30" d="m388.2 493.65c0.104 0.947-1.414 1.3-1.761 0.279-1.334-3.927-1.257-7.897 0.125-11.67-5.8 2.788-9.836 8.199-10.924 14.632-0.147 0.872-1.191 0.79-1.591 0.198-6.157 0.536-11.592 3.232-15.794 7.777-0.056 0.06-0.117 0.087-0.176 0.127 0.935 1.407 1.748 2.934 2.385 4.614 2.854 7.529 0.919 14.903-3.578 20.63 0.093 0.063 0.182 0.142 0.255 0.252 11.926 17.592 42.599 19.33 57.252 4.168 7.852-8.124 9.256-21.473 3.119-31.025-6.183-9.625-18.633-13.383-29.312-9.982zm-56.946 1.904c-0.64 0.059-0.909-0.468-0.839-0.967-0.457 0.01-0.908-0.276-0.881-0.864 0.381-8.493-8.584-10.343-15.437-10.788 2.15 2.607 3.541 5.589 4.151 9.025 0.18 1.013-1.18 1.499-1.616 0.777-6.497 1.211-13.764 0.728-19.556 4.193-6.124 3.664-9.274 11.115-8.882 18.077 0.92 16.318 18.008 24.799 32.365 25.781 14.295 0.978 34.38-2.852 38.843-18.915 4.768-17.155-13.455-27.662-28.148-26.319zm86.548 37.899c-14.323 18.749-48.867 17.257-62.064-1.85-2.675 2.974-6.057 5.423-9.793 7.099-12.262 5.502-28.82 5.691-41.129 0.267-10.615-4.678-19.547-15.287-18.327-27.435 0.596-5.933 3.473-11.718 8.35-15.268 6.143-4.472 14.206-3.916 21.363-5.274-0.821-3.246-2.4-5.999-4.861-8.422-0.544-0.535-0.149-1.562 0.636-1.536 7.95 0.258 19.827 2.219 19.357 12.689-0.001 0.01-0.006 0.017-0.007 0.027 9.7-0.866 19.814 2.258 25.716 9.783 4.534-4.874 10.473-7.707 17.093-8.254 1.627-7.245 6.849-13.066 13.883-15.574 0.791-0.282 1.347 0.677 1.017 1.322-1.786 3.495-2.203 7.179-1.306 10.885 10.536-3.356 22.619-0.16 29.679 8.523 7.518 9.245 7.607 23.575 0.393 33.018"/><path id="path32" d="m341.6 505.88c-12.743-0.078-25.486-0.155-38.229-0.233-1.158-0.007-1.161-1.807 0-1.8 12.743 0.078 25.486 0.155 38.229 0.233 1.158 0.007 1.161 1.807 0 1.8"/><path id="path34" d="m341.6 518.31c-12.926 0.513-25.844 0.347-38.751-0.5-1.15-0.076-1.159-1.876 0-1.8 12.907 0.847 25.825 1.013 38.751 0.5 1.158-0.046 1.156 1.754 0 1.8"/><path id="path36" d="m344.1 528.61c-14.062 0.889-28.137 1.102-42.219 0.637-1.156-0.038-1.161-1.838 0-1.8 14.082 0.465 28.157 0.252 42.219-0.637 1.157-0.074 1.152 1.727 0 1.8"/><path id="path38" d="m407.64 510.58c-12.896-0.939-25.805-1.136-38.724-0.59-1.158 0.049-1.156-1.751 0-1.8 12.919-0.546 25.828-0.349 38.724 0.59 1.148 0.084 1.157 1.885 0 1.8"/><path id="path40" d="m407.14 519.33c-12.74 0.458-25.481 0.915-38.221 1.372-1.158 0.042-1.156-1.758 0-1.8 12.74-0.457 25.481-0.915 38.221-1.372 1.159-0.041 1.157 1.759 0 1.8"/><path id="path42" d="m407.54 530.62c-0.889 1.021-2.184 0.736-3.456 0.759-4.182 0.078-8.374 0.004-12.553-0.113-8.048-0.226-16.077-0.768-24.088-1.558-1.142-0.113-1.154-1.914 0-1.8 6.408 0.632 12.828 1.114 19.262 1.388 2.895 0.124 5.791 0.208 8.688 0.255 1.46 0.024 8.12 0.754 10.283 0.103 0.011-0.029 0.008-0.055 0.022-0.084 0.037-0.075 0.074-0.151 0.11-0.226 0.214-0.438 0.836-0.553 1.232-0.323 0.106 0.062 0.212 0.124 0.318 0.185 0.529 0.308 0.557 0.982 0.182 1.414"/><path id="path44" d="m656.24 510.3c-7.063-0.488-8.348 9.192-2.263 11.505 0.165-0.084 0.351-0.135 0.573-0.098 3 0.499 6.304-1.45 6.888-4.557 0.588-3.126-1.987-6.629-5.198-6.85zm6.982 6.979c-0.646 4.009-4.427 6.478-8.27 6.258-0.195 0.194-0.469 0.307-0.817 0.212-3.886-1.062-6.782-4.98-5.959-9.086 0.788-3.939 5.048-6.835 9.003-6.044 3.827 0.765 6.665 4.801 6.043 8.66"/><path id="path46" d="m680.02 510.06c-0.159-0.141-0.283-0.332-0.315-0.588-0.639-5.075-7.444-5.594-9.052-0.858-0.04 0.12-0.103 0.213-0.172 0.297 0.579 10.386-3.353 25.475-16.454 23.693-0.088 0.22-0.256 0.413-0.522 0.524-3.63 1.514-3.539 6.532 0.115 7.955 0.023 0.009 0.035 0.027 0.057 0.037 18.085 4.933 28.238-15.773 26.343-31.06zm-27.496 32.618c-0.27-0.083-0.444-0.251-0.539-0.45-3.98-2.478-3.85-8.209 0.392-10.508-0.024-0.539 0.424-1.148 1.123-1.011 12.836 2.505 15.81-12.953 15.154-22.285-0.029-0.418 0.191-0.679 0.483-0.794 2.335-5.555 9.753-5.128 11.857-0.029 0.267 0.062 0.496 0.246 0.56 0.613 2.967 16.875-8.6 40.696-29.03 34.464"/><path id="path48" d="m691.58 507.74c-0.022 0.166-0.084 0.289-0.162 0.389 0.41 11.213-0.935 23.332-8.405 32.236-7.251 8.643-19.057 11.965-29.869 9.309-0.075-0.019-0.125-0.058-0.186-0.088-4.407 2.302-4.595 8.109-0.231 10.604 14.128 0.039 28.531-1.01 38.486-12.341 9.726-11.07 11.799-26.15 11.226-40.369-0.009-0.218 0.061-0.381 0.159-0.516-1.602-6.21-10.155-5.629-11.018 0.776zm12.659-0.257c0.593 14.725-1.688 30.203-11.753 41.639-10.389 11.804-25.447 12.931-40.212 12.868-0.36-0.002-0.594-0.184-0.73-0.424-5.218-3.239-5.016-10.756 0.593-13.586 0.322-0.163 0.624-0.11 0.867 0.036 0.172-0.091 0.376-0.137 0.618-0.078 11.187 2.748 23.236-1.404 29.774-11.058 5.794-8.559 6.628-19.353 6.201-29.389-0.014-0.329 0.129-0.554 0.331-0.695 1.49-7.857 12.733-8.029 14.482-0.061 0.067 0.305-0.017 0.557-0.171 0.748"/><path id="path50" d="m77.943 378.5h-0.5512c-0.0375 0-0.0742 0.668-0.1445 0.749-7.6766 8.833-13.399 21.9-15.545 33.362-2.2636 12.089 1.9731 28.358 16.182 30.335 15.596 2.17 22.032-15.802 18.033-28.117-2.1-6.468-5.9375-13-9.0941-18.996-2.961-5.62-5.92-11.33-8.88-17.33zm21.204 44.614c0.1187 11.621-8.9184 23.547-21.513 21.787-12.743-1.78-18.867-14.981-18.359-26.637 0.3027-6.952 2.543-13.597 5.2551-19.945 3.0215-7.072 6.368-14.006 11.444-19.847 0.0891-0.102 0.186-0.265 0.2848-0.313 0.1098-0.313 0.3797-0.659 0.8117-0.659h1.9863c0.8145 0 1.0442 0.978 0.7133 1.506 4.0817 7.753 8.1656 15.552 12.244 23.306 3.4406 6.542 7.055 13.211 7.1332 20.802"/><path id="path52" d="m85.463 419.83c-1.8266-1.473-3.6055-1.415-5.8512-1.321-0.1601 0.007-0.2929-0.027-0.4086-0.082-4.1144-0.305-7.9972 2.681-7.9422 7.058 0.0551 4.362 3.7688 7.891 8.0817 7.924 4.0297 0.032 7.4183-2.72 8.2812-6.638 0.5817-2.642-0.0726-5.258-2.1609-6.941zm4.1168 5.726c-0.3082 5.436-4.7574 9.71-10.237 9.653-5.1399-0.053-9.5512-4.058-9.8738-9.25-0.3465-5.577 4.632-9.953 10.073-9.309 0.0676 0.008 0.118 0.039 0.1777 0.058 5.7489-0.205 10.225 2.427 9.8602 8.848"/><path id="path54" d="m160.02 313.95c-2.383 0.063-4.572 1.673-4.564 4.205 0.008 2.477 1.936 4.878 4.453 5.093 0.175 0.015 0.314 0.079 0.436 0.16 0.1-0.085 0.221-0.155 0.385-0.189 5.373-1.092 5.201-9.426-0.71-9.269zm-29.593 14.777c-8.152-0.479-9.974 10.469-2.9 13.586 0.257 0.113 0.394 0.291 0.444 0.488 7.129 2.634 11.845-13.522 2.456-14.074zm27.676 27.98c0.385-0.212 0.888-0.177 1.148 0.328 1.409 2.748 5.01 2.677 6.633 0.118 1.39-2.191 0.515-5.276-1.674-6.596-1.412-0.851-3.214-0.714-4.618 0.095-0.031 0.122-0.07 0.256-0.115 0.41-0.135 0.455-0.673 0.788-1.134 0.633-0.135 0.162-0.273 0.323-0.383 0.505-0.893 1.481-0.698 3.177 0.143 4.507zm3.105-31.752c-0.263 0.053-0.486-0.006-0.667-0.122-0.143 0.149-0.352 0.239-0.632 0.215-2.548-0.217-4.684-1.897-5.671-4.159-5.81 3.423-11.619 6.846-17.429 10.269 0.963 2.178 0.859 4.842 0.032 7.248 7.346 2.748 14.273 6.297 20.775 10.665 0.112-0.762 1.21-1.225 1.629-0.373 0.014 0.029 0.025 0.051 0.038 0.079 2.078-0.92 4.603-0.781 6.473 0.674 3.007 2.341 3.526 6.961 0.807 9.728-1.845 1.878-4.595 2.176-6.677 1.03-0.174 0.031-0.359 0.029-0.554-0.062-3.343-1.548-4.876-5.92-2.784-9.09 0.083-0.126 0.176-0.242 0.267-0.361-6.473-4.363-13.335-7.912-20.672-10.639-2.087 4.06-6.305 6.686-10.669 3.42-0.157-0.118-0.245-0.265-0.304-0.419-3.301-2.253-5.064-6.597-3.534-10.485 1.753-4.452 7.308-6.974 11.72-4.907 1.058 0.496 1.88 1.17 2.514 1.955l17.526-10.326c0.118-0.069 0.233-0.104 0.345-0.119-0.041-0.262-0.073-0.528-0.084-0.798-0.137-3.427 2.639-5.941 5.924-6.203 3.276-0.261 6.438 1.728 6.89 5.12 0.458 3.425-1.841 6.964-5.263 7.66"/><path id="path56" d="m534.7 435.96c-2.453-8.045-12.985-15.353-19.746-6.919-0.54 0.674-1.378 0.134-1.475-0.555-0.269 0.074-0.568 0.048-0.835-0.175-5.146-4.289-12.481-4.173-17.042 0.937-3.402 3.811-3.745 9.339-3.491 14.206 0.304 5.817 2.575 9.778 8.459 10.927 4.382 0.856 11.221 1.096 13.988-3.102 0.13-0.198 0.304-0.301 0.486-0.357 0.535-0.4 1.494-0.184 1.45 0.669-0.103 2.026 2.393 3.171 3.646 1.402 0.182-0.257 0.431-0.366 0.683-0.384 2.534-5.607-1.191-12.858-1.261-18.664-0.03-2.46 0.831-4.586 3.065-4.938 0.18-0.484 0.69-0.827 1.229-0.449 10.478 7.358 12.326 22.614 2.289 31.343-10.236 8.902-28.018 6.252-38.099-1.694-9.265-7.303-8.69-25.433-2.49-34.425 7.606-11.029 22.527-13.058 33.256-5.415 0.007 0.004 0.009 0.011 0.016 0.016 1.051-0.549 1.608-1.922 1.098-3.032-0.052-0.028-0.106-0.041-0.156-0.082-13.113-10.607-32.315-3.738-39.37 10.479-6.622 13.343-3.172 29.737 9.135 38.417 12.292 8.67 31.811 8.684 41.237-4.419 4.678-6.502 6.27-16.105 3.928-23.786zm-19.692 35.481c-12.975 2.649-27.294-3.141-34.696-14.134-7.564-11.234-6.382-26.967 1.735-37.591 9.103-11.914 27.011-15.406 38.988-5.726 0.164 0.066 0.317 0.178 0.422 0.388 1.147 2.287-0.06 5.188-2.541 5.907-0.423 0.122-0.752-0.052-0.939-0.332-0.025-0.015-0.049-0.015-0.073-0.032-9.527-6.786-22.551-5.622-29.963 3.723-6.132 7.733-7.607 24.726 0.045 32.158 7.814 7.589 23.466 10.304 33.115 5.327 12.021-6.2 12.973-22.251 2.738-30.346-4.324-0.361-0.82 13.811-0.605 16.018 0.271 2.778 0.178 4.99-1.193 7.421-0.235 0.416-0.634 0.495-0.987 0.386-1.93 1.715-4.971 1.069-6.004-1.127-3.362 3.41-9.063 3.447-13.611 2.84-6.576-0.878-10.467-4.767-11.049-11.402-0.595-6.786 0.198-14.489 6.048-18.845 5.451-4.058 12.431-3.243 17.479 0.964 0.09 0.076 0.145 0.159 0.193 0.243 3.464-3.833 9.044-4.555 13.766-2.507 5.848 2.534 8.671 8.91 9.384 14.903 1.789 15.033-7.245 28.701-22.252 31.764"/><path id="path58" d="m498.03 438.13c-0.742 3.801-0.218 7.954 3.498 10.163 3.856 2.292 8.97 0.852 11.97-1.695v-11.903c0-0.141-0.337-0.249-0.319-0.37-2.196-1.358-5.083-1.696-7.637-1.81-4.054-0.181-6.726 1.592-7.512 5.615zm17.468 8.565c0 1.077-0.945 1.554-1.48 1.471-3.533 2.606-8.15 4.09-12.41 2.263-4.206-1.804-6.008-5.703-5.619-10.098 0.356-4.023 1.311-8.24 5.714-9.345 3.868-0.971 9.467-0.192 12.659 2.187 0.349 0.261 0.789 0.648 0.711 0.99 0.037 0.161 0.425 0.329 0.425 0.532v12"/><path id="path60" d="m564.92 322.14c-4.029-4.229-10.485-5.677-15.579-2.437-5.524 3.512-6.128 10.943-1.446 15.37 0.328 0.31 0.331 0.688 0.17 0.992 3.53 4.671 9.689 6.516 15.087 3.424 6.738-3.859 6.759-12.11 1.768-17.349zm-65.58 43.619c-0.494 0.742-1.801 0.343-1.622-0.584-1.04-0.28-2.155-0.429-3.348-0.41-0.541 0.009-0.819-0.381-0.855-0.799-14.57-0.499-20.698 19.312-6.888 26.227 7.22 3.616 16.349-0.67 18.943-8.104 2.254-6.46-0.397-13.735-6.23-16.33zm2.854-45.243c-1.444-6.029-7.337-9.825-13.413-8.717-5.952 1.086-9.456 6.527-9.273 12.269 0.074 0.097 0.133 0.217 0.158 0.372 1.039 6.212 6.649 11.382 13.26 10.068 6.383-1.268 10.813-7.547 9.268-13.992zm26.416-32.092c6.995-0.194 12.367-6.14 12.27-13.029-0.096-6.855-5.853-12.552-12.693-12.802-7.916-0.288-14.083 6.798-11.857 14.543 0.112 0.389-0.033 0.692-0.274 0.885 1.156 5.94 6.116 10.583 12.554 10.403zm-81.595 1.331c5.776-2.726 8.111-9.372 6.041-15.338-2.054-5.915-8.906-9.811-15.007-8.082-7.066 2.002-8.57 8.435-8.326 14.784 0.344 0.086 0.614 0.351 0.561 0.819-0.259 2.304 2.58 4.896 4.259 6.047 0.907 0.622 1.842 1.268 2.837 1.744 3.091 1.477 6.567 1.473 9.635 0.026zm-9.656 36.395c-3.647-8.056-14.726-12.075-21.396-4.905-4.658 5.007-6.654 13.974-2.927 19.902 4.963 5.508 12.827 8.372 19.659 4.324 6.67-3.952 7.651-12.722 4.664-19.321zm127.96 14.071c-4.568 3.346-10.123 3.235-14.504 0.645-0.061 0.076-0.125 0.151-0.221 0.211-14.885 9.421-29.26 19.591-43.086 30.507-0.101 0.08-0.208 0.127-0.315 0.161 0.933 2.386 1.274 5.071 0.858 7.821-1.302 8.619-9.581 15.012-18.305 13.507-7.952-1.372-14.012-9.6-12.87-17.609 0.201-1.407 0.616-2.73 1.182-3.966-0.32 0.314-0.86 0.449-1.305 0.092-12.386-9.941-25.311-19.147-38.744-27.617-0.22-0.138-0.333-0.327-0.383-0.526-0.782 1.023-1.696 1.961-2.788 2.759-7.418 5.421-16.868 2.805-22.751-3.449-0.134-0.065-0.262-0.155-0.364-0.303-4.763-6.925-2.174-18.229 4.096-23.557 7.052-5.991 17.557-2.991 22.142 4.458 3.441 5.591 3.902 13.364 0.46 18.94 0.159-0.009 0.324 0.015 0.497 0.124 13.563 8.552 26.603 17.862 39.108 27.898 0.223 0.179 0.311 0.391 0.306 0.598 0.705-1.375 1.622-2.619 2.693-3.715-10.826-25.436-22.82-50.347-35.955-74.67-0.03-0.055-0.031-0.108-0.049-0.162-5.539 1.19-16.006-2.777-16.55-9.198-0.248-0.136-0.446-0.369-0.473-0.724-0.607-8.179 1.761-16.691 11.096-18.176 7.827-1.246 15.252 4.788 16.371 12.46 0.955 6.541-2.6 12.886-8.717 15.125 13.025 24.134 24.924 48.847 35.675 74.076 2.728-2.213 6.172-3.557 9.73-3.745-0.96-8.564-1.201-17.12-0.727-25.723-6.366 0.246-11.837-4.454-13.295-10.628-0.173-0.143-0.304-0.346-0.336-0.618-0.822-6.977 3.575-14.005 10.734-15.26 7.497-1.314 14.633 3.898 15.639 11.421 0.936 7.008-3.85 13.486-10.763 14.866-0.057 0.011-0.113 0.014-0.17 0.025-0.488 8.67-0.249 17.291 0.718 25.921 0.152 0.01 0.304 0.004 0.456 0.018 0.494 0.044 0.763 0.406 0.832 0.794 1.053 0.047 2.061 0.211 3.018 0.476 8.195-24.93 17.712-49.39 28.527-73.301 0.009-0.019 0.023-0.027 0.033-0.045-7.395-0.691-12.816-7.206-12.818-14.765-0.001-0.171 0.047-0.309 0.114-0.43-0.545-6.781 4.224-12.822 11.306-13.957 8.214-1.318 16.329 4.758 17.178 13.044 0.839 8.186-5.067 15.463-13.303 16.14-0.349 0.029-0.689 0.025-1.031 0.028 0.16 0.248 0.227 0.56 0.075 0.894-10.77 23.812-20.233 48.174-28.389 73.002 2.817 1.219 5.067 3.377 6.507 6.05 13.748-10.842 28.021-20.967 42.807-30.345-1.295-1.016-2.453-2.259-3.385-3.726-0.14-0.219-0.158-0.432-0.114-0.623-4.155-4.842-3.728-12.248 1.435-16.413 6.234-5.03 15.113-3.067 19.922 2.902 4.598 5.708 4.358 13.775-1.804 18.288"/><path id="path62" d="m184.93 614.28c-9.393-3.137-20.877 0.819-24.029 10.819-3.384 10.732 1.907 25.326 13.787 27.198 0.176-0.099 0.389-0.147 0.64-0.084 10.803 2.716 20.74-4.775 22.84-15.343 1.981-9.97-3.639-19.385-13.238-22.59zm15.199 21.741c-1.677 11.698-12.137 20.308-23.839 18.23-0.044 0.004-0.078 0.021-0.127 0.018-13.372-0.875-19.787-15.176-17.59-27.222 2.15-11.787 14.435-17.854 25.546-14.888 10.722 2.862 17.593 12.813 16.01 23.862"/><path id="path64" d="m191.67 629.93c-0.103 1.144-1.904 1.155-1.801 0 1.095-12.245-19.603-10.711-21.46-0.219-0.202 1.138-1.936 0.656-1.736-0.479 2.241-12.655 26.258-13.424 24.997 0.698"/><path id="path66" d="m177.28 642.71c0.217 1.132-1.517 1.616-1.736 0.478-0.681-3.548-0.945-7.105-0.762-10.715 0.059-1.153 1.86-1.16 1.8 0-0.175 3.448 0.046 6.844 0.698 10.237"/><path id="path68" d="m184.73 643.91c0.092 1.155-1.709 1.149-1.8 0-0.315-3.978-0.375-7.951-0.18-11.937 0.056-1.153 1.857-1.16 1.8 0-0.195 3.986-0.136 7.959 0.18 11.937"/><path id="path70" d="m134.8 567.98c-9.776-0.419-17.036 5.351-16.728 15.414 0.277 9.045 5.38 18.609 15.464 18.404 0.144-0.163 0.342-0.286 0.608-0.311 4.175-0.407 8.627-0.837 11.95-3.66 3.502-2.974 4.559-7.525 4.617-11.941 0.128-9.809-5.682-17.468-15.911-17.906zm13.573 30.275c-3.536 3.723-8.685 4.475-13.561 4.965-0.144 0.198-0.363 0.344-0.673 0.362-11.367 0.659-17.627-9.989-17.867-20.188-0.259-11.035 7.62-17.64 18.528-17.214 11.218 0.437 17.862 8.898 17.711 19.706-0.061 4.358-1.041 9.107-4.138 12.369"/><path id="path72" d="m144.18 576.57c-6.006 4.762-14.347 5.022-20.507 0.366-0.913-0.689-0.017-2.253 0.908-1.554 5.465 4.13 12.905 4.214 18.326-0.085 0.898-0.712 2.18 0.553 1.273 1.273"/><path id="path74" d="m130.5 592.5v-8c0-2 1-2 1 0v8c0 1-1 1-1 0"/><path id="path76" d="m138.34 592.7c0.207 1.132-1.528 1.618-1.736 0.478-0.548-3.008-0.559-5.983-0.035-8.996 0.199-1.139 1.934-0.656 1.736 0.478-0.466 2.68-0.453 5.364 0.035 8.04"/><path id="path78" d="m106.02 319.28c-6.1862-10.327-18.953-15.099-30.3-11.026-12.293 4.413-20.348 17.644-13.983 30.027 6.0762 11.819 20.431 19.195 32.839 13.2 0.0996-0.088 0.2195-0.161 0.3734-0.203 0.0266-0.008 0.0512-0.017 0.0777-0.024 0.309-0.158 0.6184-0.317 0.9242-0.492 0.2688-0.154 0.5192-0.145 0.7286-0.049 12.563-4.652 16.039-20.253 9.3401-31.433zm4.495 68.352c0.602 1.134 1.301 2.208 2.098 3.221 1.299 2.031 3.336 2.565 6.103 1.62 0.071-0.074 0.13-0.16 0.189-0.246 0.035-0.161 0.1-0.296 0.204-0.391 1.719-4.346-8.061-18.556-9.522-21.215-3.485-6.342-6.97-12.683-10.455-19.025-1.0996 0.535-2.2633 0.99-3.4949 1.346-0.5117 0.256-1.0309 0.474-1.5508 0.686 3.2145 6.696 6.4289 13.391 9.6439 20.087 1.639 3.415 3.254 6.843 4.918 10.245 0.604 1.234 1.186 2.478 1.867 3.672zm-0.242-63.038c2.928 10.162-0.867 20.959-9.558 26.148 5.071 9.227 10.141 18.454 15.212 27.681 1.968 3.581 7.907 10.71 4.684 14.721-0.249 1.791-1.661 2.906-3.602 2.796-3.5-0.198-6.094-4.103-7.702-6.78-6.588-10.962-11.401-23.383-16.928-34.923-19.688 6.182-43.47-16.775-31.512-36.33 12.084-19.762 43.018-15.485 49.406 6.687"/><path id="path80" d="m97.414 318.63c-5.934-7.486-16.78-6.397-24.035-1.519-3.2656 2.197-6.8762 5.649-7.9559 9.618-1.2566 4.619 2.661 10.879 5.5297 14.384 6.2117 7.59 14.925 6.163 23.32 3.845 0.1426-0.039 0.2711-0.043 0.3871-0.022 10.302-4.789 8.9665-18.468 2.7536-26.306zm-2.7715 28.275c-0.2539 0.101-0.491 0.081-0.6946-0.004-10.52 2.799-19.806 2.77-26.291-7.342-2.8058-4.375-5.6222-9.516-3.4324-14.691 1.8973-4.483 5.9473-8.203 10.15-10.492 9.0188-4.913 20.181-3.913 25.857 5.217 5.625 9.048 5.802 22.811-5.5884 27.312"/><path id="path82" d="m238.14 278.29c-4.66-7.232-13.075-11.118-21.374-12.174-0.371-0.047-0.609-0.278-0.739-0.553-0.188-0.097-0.333-0.28-0.378-0.569-0.866-5.587-0.951-11.095-0.265-16.666-6.874 4.411-11.918 10.886-14.496 18.715-0.137 0.416-0.472 0.604-0.816 0.619-0.143 0.204-0.36 0.361-0.662 0.397-16.264 1.962-24.507 19.877-21.641 34.678 2.795 14.436 14.363 25.846 29.352 26.473 16.88 0.706 28.258-10.944 32.767-26.369 2.361-8.08 3.002-17.179-1.748-24.551zm-10.788 47.072c-10.203 7.043-24.599 7.614-35.293 1.329-10.977-6.451-17.274-19.487-16.662-32.061 0.657-13.493 9.93-26.576 23.855-28.347 2.949-8.731 8.805-15.893 16.818-20.48 0.739-0.423 1.438 0.272 1.322 1.016-0.916 5.877-0.923 11.706-0.022 17.583 12.678 1.819 24.427 9.969 25.969 23.486 1.505 13.187-4.911 29.827-15.987 37.474"/><path id="path84" d="m214.86 305.08c-0.893-7.119-1.937-14.581-3.089-21.581h-7.996c-1.513 7-2.812 13.12-3.803 19.619-0.543 3.557-1.986 8.566-1.516 12.184 0.623 4.787 5.956 3.833 9.696 3.99 1.571 0.066 3.231 0.334 4.793 0.194 1.21 0.144 2.353-0.123 3.426-0.838l-0.197-2.035c0.364-3.487-0.88-8.065-1.314-11.533zm2.664 15.812c-1.772 1.702-8.278 0.321-10.33 0.228-2.407-0.109-7.997 0.698-9.967-0.919-1.859-1.527-0.5-5.562-0.272-7.599 1.138-10.183 2.962-20.547 5.364-30.506 0.191-0.795 1.102-0.597 1.532-0.597h8.021c0.464 0 1.318-0.154 1.448 0.633 1.615 9.831 3.008 19.837 4.133 29.737 0.254 2.233 2.001 7.168 0.071 9.023"/><path id="path86" d="m203.33 273.39c0.001 1.336 0.184 2.622 0.577 3.934 2.366-0.125 4.706-0.032 7.054 0.248l0.804-4.365c-2.806 0.401-5.607 0.472-8.435 0.183zm10.411-1.004c-0.394 2.135-0.787 4.271-1.181 6.406-0.096 0.521-0.661 0.692-1.107 0.629-2.677-0.377-5.352-0.454-8.048-0.278-0.546 0.036-0.824-0.349-0.854-0.771-0.152-0.103-0.285-0.245-0.353-0.467-0.558-1.817-0.77-3.594-0.646-5.493 0.029-0.437 0.392-0.965 0.9-0.9 3.415 0.437 6.79 0.378 10.182-0.233 0.704-0.127 1.237 0.4 1.107 1.107"/><path id="path88" d="m643.18 602.97c-5.179 4.534-10.77 8.412-16.837 11.654 2.23 0.9 4.431 1.515 6.87 1.932 0.013 0.002 0.02 0.01 0.033 0.013 0.531-0.129 1.131 0.133 1.047 0.815-1.922 15.674-20.518 19.07-33.444 16.57-6.946-1.342-13.668-4.94-17.662-10.931-4.634-6.95-4.082-15.504-3.396-23.444 0.019-0.216 0.11-0.378 0.226-0.513-2.736-0.412-5.471-0.824-8.207-1.236-5.455 18.15 3.956 37.195 22.582 42.328 17.205 4.741 43.107 0.478 47.428-19.786-0.419-0.475-0.306-1.324 0.338-1.462 0.294-0.621 1.187-0.485 1.524 0.085 2.346 0.216 4.692 0.432 7.037 0.648-1.948-5.825-4.455-11.361-7.539-16.673zm8.828 18.591c-2.813-0.259-5.626-0.517-8.439-0.776-4.441 21.321-31.559 26.095-49.655 21.109-19.7-5.429-29.785-25.813-23.687-45.067 0.115-0.364 0.386-0.543 0.68-0.596 0.194-0.172 0.451-0.277 0.765-0.23 3.148 0.474 6.297 0.949 9.445 1.423 0.839 0.126 0.795 1.092 0.264 1.53 0.145 0.143 0.234 0.349 0.21 0.625-0.571 6.608-1.233 13.773 1.683 19.965 2.775 5.893 8.447 9.887 14.536 11.802 11.796 3.709 32.006 1.684 34.547-13.132-3.004-0.547-5.775-1.438-8.55-2.728-0.605-0.281-0.572-1.263 0-1.554 6.902-3.511 13.205-7.816 18.971-12.992 0.431-0.387 1.104-0.337 1.414 0.182 3.647 6.115 6.523 12.518 8.684 19.3 0.165 0.521-0.293 1.192-0.868 1.139"/><path id="path90" d="m620.46 561.83c-14.919-3.918-32.558-0.392-39.652 14.664-0.207 0.438-0.597 0.521-0.947 0.406-0.189 0.146-0.439 0.216-0.743 0.123l-8.022-2.46c1.163 2.712 2.326 5.424 3.489 8.137 0.822 1.915 2.362 8.304 4.589 8.777 1.308 0.277 6.32-3.98 7.508-4.768 2.422-1.607 4.8-3.277 7.16-4.972-2.088-0.589-4.177-1.178-6.265-1.766-0.421-0.119-0.614-0.442-0.632-0.779-0.364-0.236-0.586-0.693-0.311-1.18 6.178-10.914 19.579-11.532 30.56-8.935 11.481 2.715 22.674 10.563 22.66 23.366 2.668 0.672 5.335 1.345 8.002 2.017 3.417-16.995-12.696-28.77-27.396-32.63zm28.91 34.159c-0.194 0.786-1.09 0.779-1.523 0.325l-8.7-2.193c-0.222-0.056-0.365-0.178-0.47-0.32-0.346-0.091-0.633-0.36-0.621-0.827 0.311-12.316-10.499-19.597-21.341-22.161-9.968-2.358-22.291-2.073-28.191 7.554 2.534 0.714 5.068 1.428 7.602 2.143 0.8 0.225 0.818 1.205 0.215 1.645-5.758 4.192-11.681 8.12-17.783 11.793-0.378 0.228-1.041 0.122-1.231-0.322-2.864-6.679-5.728-13.357-8.592-20.035-0.286-0.667 0.191-1.576 1.017-1.323 3.226 0.99 6.452 1.979 9.678 2.968 15.161-31.031 78.724-14.993 69.94 20.753"/><path id="path92" d="m501.41 491.21c-6.853-0.249-13.706-0.497-20.559-0.745-13.24-0.48-26.48-0.96-39.72-1.44 0.04 0.106 0.062 0.227 0.054 0.367-1.069 18.574 18.319 28.683 34.874 28.007 15.039-0.614 27.136-12.348 32.753-25.61-2.481 0.223-5.556-0.512-7.402-0.579zm-46.115 39.71c-1.673 8.481 4.708 16.733 13.253 17.386 8.387 0.641 15.469-5.608 16.167-13.929 0.683-8.135-5.719-15.774-14.164-14.813-0.221 0.025-0.386-0.036-0.521-0.128-6.882-0.014-13.341 4.419-14.735 11.484zm56.721-40.578c-0.326 0.434-0.759 0.743-1.254 0.972 0.045 0.15 0.055 0.318-0.026 0.515-5.61 13.624-17.64 25.694-32.698 27.219 5.449 2.676 8.941 8.896 8.477 15.329-0.674 9.333-8.617 16.341-17.967 15.729-9.224-0.604-16.064-8.925-15.211-18.088 0.646-6.952 5.861-12.152 12.214-13.815-14.2-3.048-27.08-12.932-26.166-28.811 0.011-0.188 0.079-0.334 0.167-0.461-0.956-0.226-0.909-1.796 0.182-1.757l35.243 1.278c5.548 0.201 11.096 0.402 16.643 0.603l8.811 0.319c2.048 0.075 8.285-0.683 9.917 0.903-0.833-0.809 0.441-2.081 1.273-1.273 0.085 0.083 0.17 0.165 0.255 0.248 0.258 0.251 0.374 0.78 0.14 1.09"/><path id="path94" d="m524.96 554.44c-0.179-0.035-0.306-0.116-0.408-0.213-0.449 0.181-1.062 0.065-1.287-0.518-2.751-7.108-8.631-12.287-15.812-14.299 3.504 3.951 5.177 9.111 4.598 14.515-0.046 0.434-0.337 0.702-0.672 0.807-0.197 0.246-0.498 0.415-0.884 0.359-14.552-2.149-30.615 5.581-32.304 21.465-1.707 16.042 13.162 23.458 26.862 24.683 13.275 1.186 29.964-0.411 36.665-13.78 7.005-13.978-1.737-30.097-16.758-33.019zm0.214 47.437c-11.443 2.805-26.084 2.355-36.665-3.26-10.517-5.58-14.84-17.455-10.613-28.575 4.987-13.117 19.294-18.453 32.405-16.763 0.422-5.781-1.84-11.058-6.364-14.761-0.783-0.641 0.105-1.617 0.876-1.505 9.087 1.32 16.57 7.343 20.008 15.796 0.173-0.097 0.376-0.151 0.618-0.104 11.215 2.181 20.223 11.711 20.595 23.347 0.412 12.871-8.751 22.858-20.86 25.825"/><path id="path96" d="m529.16 570.36c-12.746 0.203-25.49 0.106-38.232-0.291-1.155-0.036-1.16-1.836 0-1.8 12.742 0.397 25.486 0.494 38.232 0.291 1.158-0.018 1.159 1.782 0 1.8"/><path id="path98" d="m529.15 582.52c-12.74 0.458-25.48 0.915-38.22 1.373-1.159 0.042-1.157-1.758 0-1.8 12.74-0.458 25.48-0.915 38.22-1.373 1.158-0.041 1.157 1.758 0 1.8"/><path id="path100" d="m330.62 396.93c0.229-1.237 0.251-2.509 0.051-3.768-0.039 0.529-0.132 1.073-0.281 1.63 0.138 0.715 0.216 1.43 0.23 2.138zm-2.058-1.336c-0.101-0.153-0.128-0.351-0.085-0.574-0.298-1.573-0.923-3.125-1.9-4.531-4.155-5.979-11.436-6.799-18.099-5.862-0.095 0.014-0.183 0.009-0.266-0.006-0.068 0.068-0.136 0.136-0.204 0.203 0 0.005 0.002 0.008 0.002 0.013-0.453 27.465-0.906 54.931-1.36 82.397 0.06-0.017 0.109-0.046 0.176-0.052 13.306-1.23 25.203-11.307 27.808-24.588 2.612-13.311-4.759-27.047-16.58-33.203-0.369-0.192-0.482-0.516-0.435-0.828-0.458-0.543-0.261-1.564 0.619-1.477 1.788 0.177 3.371-0.067 4.732-0.622 0.115-0.102 0.255-0.159 0.406-0.184 0.323-0.152 0.638-0.316 0.935-0.503 0.053-0.192 0.17-0.374 0.393-0.504 0.44-0.255 0.852-0.544 1.252-0.848 2.122-2.23 3.062-5.546 2.606-8.831zm1.951 60.786c-0.388 0.383-0.787 0.761-1.211 1.128-0.101 0.088-0.208 0.142-0.317 0.179-0.779 0.877-1.588 1.726-2.455 2.517 1.433-1.16 2.76-2.446 3.983-3.824zm7.573-24.362c0.024 0.47 0.064 0.934 0.073 1.41 0.003 0.158-0.046 0.291-0.113 0.41 0.158 3.611-0.075 7.191-0.899 10.588 0.088-0.306 0.196-0.603 0.275-0.914 0.969-3.803 1.142-7.695 0.664-11.494zm-9.271-16.277c0.019-0.13 0.06-0.256 0.136-0.367-0.211-0.249-0.425-0.495-0.637-0.742-0.27-0.102-0.536-0.207-0.796-0.316 0.445 0.464 0.88 0.936 1.297 1.425zm-1.787-9.871c-0.544 0.529-1.145 0.997-1.789 1.407 11.398 8.12 17.427 22.948 13.919 36.714-3.761 14.759-17.851 25.164-32.847 25.601-0.633 0.019-0.908-0.509-0.849-0.998-0.344-0.091-0.628-0.367-0.62-0.832l1.368-82.925c0.004-0.201 0.064-0.363 0.155-0.494-0.023-0.227 0.046-0.468 0.258-0.679 1.159-1.158 2.318-2.316 3.477-3.475 0.348-0.348 0.771-0.307 1.087-0.096 7.837-1.039 16.805 2.003 20.337 9.62 2.688 5.797 0.362 12.475-4.496 16.157"/><path id="path102" d="m314.69 391.5c0.026 0.092 0.049 0.187 0.042 0.301-0.217 3.307-0.434 6.614-0.652 9.921-0.026 0.402-0.267 0.655-0.561 0.777 3.467 0.148 6.929-1.678 7.527-5.417 0.584-3.658-2.792-6.967-6.356-5.582zm-2.767 12.627c-0.508-0.085-0.68-0.476-0.629-0.867-0.105-0.138-0.18-0.306-0.172-0.531 0.142-4.144 0.284-8.289 0.426-12.433 0.011-0.329 0.171-0.754 0.382-0.895 0.076-0.37 0.346-0.896 0.836-0.896h1.986c0.433 0 0.705 0.455 0.814 0.771 3.778-0.428 7.376 2.617 7.375 6.762-0.002 5.881-5.773 8.967-11.018 8.089"/><path id="path104" d="m317.15 416.82c-1.042 13.649-1.59 27.32-1.633 41.009 0 0.026-0.012 0.043-0.014 0.068 15.639-9.032 16.4-30.987 1.647-41.077zm-2.11-1.317c-0.079 2.956-0.135 5.911-0.205 8.867 0.173-2.75 0.35-5.499 0.563-8.247 0.01-0.132 0.048-0.245 0.098-0.347-0.154-0.089-0.299-0.186-0.456-0.273zm-0.229 44.822c-0.444 0.218-0.855 0.049-1.11-0.246-0.536 0.249-1.316 0.002-1.307-0.766 0.172-14.893 0.461-29.784 0.867-44.673 0.022-0.819 0.924-1.048 1.441-0.707 0.256-0.23 0.627-0.329 1.017-0.118 18.819 10.172 18.331 37.094-0.908 46.51"/><path id="path106" d="m365.5 388.96v-3.978c-6-0.271-12.431-0.982-18.176 0.301-0.049 0.062-0.154 0.124-0.203 0.187-0.054 27.543-0.206 55.087-0.26 82.631 1.44-0.152 2.867-0.305 4.307-0.457 0.235-25.284 0.464-50.567 0.699-75.851 0.004-0.471 0.304-0.969 0.659-1.057-0.001-0.501 0.244-1.232 0.746-1.232h12.224c-0.129 0 0.004-0.141 0.004-0.544zm-11.721 76.672c-0.299 0.038-0.604-0.052-0.804-0.275-0.005 0.525-0.01 1.051-0.015 1.576 0.273-0.434 0.546-0.867 0.819-1.301zm1.406-21.514c-0.087-3.604-0.174-7.208-0.243-10.813-0.044 3.59-0.087 7.179-0.131 10.769 0.126-0.006 0.252 0.005 0.374 0.044zm-0.119 19.469c-0.259-0.108-0.452-0.337-0.483-0.682-0.006 0.493-0.011 0.985-0.017 1.478 0.166-0.265 0.333-0.53 0.5-0.796zm-1.51-60.626c-0.043 4.589-0.086 9.177-0.128 13.765 0.06-0.125 0.153-0.218 0.258-0.294l-0.13-13.471zm0.512-10.498c0.088-0.248 0.275-0.414 0.504-0.489 0.001-0.004 0.001-0.01 0.003-0.014h-0.917l-0.007 0.789c0.11-0.137 0.25-0.237 0.417-0.286zm15.664-3.154c-0.04 0.566-0.498 0.852-0.941 0.862-0.588 0.588-1.176 0.948-1.765 1.536-0.386 0.386-0.866-0.203-1.187-0.203h-9.599c0.038 0 0.067 0.433 0.067 0.56 0.009 23.673 0.416 47.456 1.218 71.115 0.017 0.492-0.302 0.819-0.674 0.893l-3.169 5.065c-0.364 0.578-1.05 0.505-1.428 0.14-0.075 0.029-0.154 0.06-0.244 0.069l-5.996 0.638c-0.726 0.077-0.988-0.608-0.799-1.157-0.127-0.141-0.218-0.32-0.218-0.563 0.055-27.973 0.093-55.945 0.148-83.918 0.001-0.702 0.648-0.965 1.167-0.815 0.793-1.014 1.586-2.027 2.379-3.041 0.09-0.34 0.357-0.609 0.821-0.567 6.129 0.547 12.227 0.505 18.348-0.126 0.532-0.055 0.805 0.302 0.844 0.711 0.39 0.069 0.761 0.336 0.822 0.827 0.331 2.655 0.4 5.305 0.206 7.974"/><path id="path108" d="m392.99 385.78c-16.159-0.343-16.313 28.012-16.328 38.676-0.011 7.486 0.676 14.972 2.092 22.323 1.355 7.034 3.349 18.335 12.216 18.567 0.002-0.001 0.004-0.003 0.006-0.003 0.193-0.284 0.523-0.485 0.943-0.424 10.165 1.481 12.656-13.122 13.985-20.28 1.326-7.141 1.697-14.433 1.401-21.683-0.31-7.587-1.298-15.193-2.928-22.611-1.315-5.986-3.913-14.406-11.387-14.565zm14.256 14.158c0.087 0.319 0.184 0.637 0.267 0.956 0.155-0.028 0.309-0.01 0.453 0.038-0.058-0.345-0.121-0.688-0.183-1.032-0.174 0.062-0.36 0.075-0.537 0.038zm-9.94 66.874c-0.426 0.296-0.83 0.143-1.072-0.17-1.45 0.508-2.959 0.672-4.509 0.492-13.266 0.638-14.933-19.227-16.04-28.525-1.006-8.448-1.095-17.016-0.255-25.483 0.662-6.676 1.426-13.953 4.476-20.02 0.065-0.129 0.142-0.248 0.21-0.374-0.113-0.179-0.143-0.411-0.03-0.683 2.709-6.531 8.887-10.042 15.206-9.411 3.403-0.294 6.697 0.588 9.381 3.675 5.373 6.18 5.321 16.632 6.216 24.335 2.085 17.941 3.348 44.404-13.583 56.164"/><path id="path110" d="m400.31 411.26c-0.657-4.095-1.675-12.42-4.897-15.31-0.483-1.131-1.296-1.589-2.424-1.405-0.392 0.601-0.722 1.218-1.024 1.843-0.552 1.512-1.076 3.029-1.557 4.556-0.503 2.232-0.748 4.548-1.023 6.896-0.555 4.741-1.066 9.49-1.402 14.252-0.296 4.215-2.151 35.143 7.708 30.374 0.449-0.218 0.865-0.042 1.119 0.259 4.531-6.477 4.108-17.534 4.357-24.591 0.199-5.629 0.038-11.305-0.857-16.874zm-12.852 42.285c-0.08 0.032-0.162 0.054-0.246 0.065 0.341 0.582 0.725 1.115 1.172 1.572-0.343-0.482-0.648-1.038-0.926-1.637zm-1.048-2.683c-0.411-0.861-0.753-1.753-1.014-2.681 0.209 1.149 0.487 2.264 0.852 3.3 0.072-0.062 0.149-0.119 0.235-0.163-0.036-0.15-0.048-0.304-0.073-0.456zm8.143 4.326c0.251-0.208 0.493-0.425 0.725-0.652-0.43 0.135-0.833 0.209-1.224 0.256 0.212 0.076 0.384 0.216 0.499 0.396zm6.86-10.076c-0.933 5.589-3.133 10.861-8.587 13.259-0.213 0.094-0.415 0.089-0.601 0.043-0.197 0.203-0.471 0.338-0.815 0.288-5.64-0.816-6.936-6.13-7.646-11.01-1.133-7.788-2.07-15.672-2.292-23.544-0.221-7.823 0.331-15.759 2.501-23.31 1.091-3.793 2.348-9.737 7.391-9.451 4.724 0.269 6.717 5.134 8.076 8.969 2.531 7.144 3.482 14.784 3.591 22.332 0.107 7.439-0.393 15.079-1.618 22.424"/><path id="path112" d="m454.7 395.05c0.074 0.419 0.136 0.846 0.169 1.291 0.02 0.261-0.06 0.456-0.19 0.597 0.195 0.678 0.389 1.355 0.549 2.057 0.088 0.383-0.106 0.726-0.389 0.938 0.279 1.018 0.545 2.041 0.789 3.074 0.084 0.355-0.029 0.644-0.229 0.842 0.041 0.362 0.067 0.727 0.098 1.09 0.091 0.129 0.162 0.277 0.177 0.469 0.06 0.768 0.12 1.537 0.179 2.306-0.027-0.926-0.061-1.853-0.107-2.784-0.155-3.199-0.281-6.652-1.046-9.88zm-5.255-8.919c1.564 1.613 2.961 3.272 3.952 5.154-0.179-0.376-0.349-0.757-0.559-1.119-0.994-1.712-2.139-3.037-3.393-4.035zm-8.985-2.413c0.499 0.158 0.999 0.316 1.498 0.474 0.164-0.07 0.35-0.093 0.553-0.01 0.079 0.031 0.157 0.063 0.235 0.095 0.171-0.31 0.518-0.543 0.895-0.538-1.04-0.125-2.104-0.129-3.181-0.021zm-2.245 1.075c-0.179-0.173-0.258-0.405-0.257-0.64-0.638 0.154-1.275 0.332-1.909 0.547 0.719-0.022 1.443 0.02 2.166 0.093zm-10.943 52.299c0.062-0.271 0.218-0.439 0.416-0.526-0.218-2.232-0.382-4.471-0.507-6.712 0.012 1.843 0.034 3.686 0.081 5.526 0.013 0.515 0.014 1.091 0.01 1.712zm1.464-27.043c-0.127 1.117-0.197 2.258-0.242 3.404 0.073 0.034 0.146 0.068 0.205 0.123-0.012-1.178-0.008-2.356 0.037-3.527zm0.556 17.926c-0.067-3.235-0.324-6.747-0.481-10.333-0.063 3.458 0.093 6.898 0.481 10.333zm-5.636-34.427c-3.695 5.661-3.251 14.212-3.656 20.735-0.786 12.636-1.24 25.711 0.079 38.326 0.869 8.296 6.256 15.57 15.666 13.174 1.129-0.287 2.212-0.706 3.235-1.225 0.036-0.313 0.226-0.601 0.627-0.702 0.382-0.096 0.754-0.214 1.121-0.338 2.43-1.662 4.345-3.978 5.365-6.673-0.011-0.119 0-0.247 0.056-0.389 0.131-0.329 0.251-0.662 0.373-0.994 0.304-1.204 0.438-2.467 0.361-3.771-0.015 0.001-0.027-0.064-0.04-0.106-1.303 0.267-2.633 0.349-3.987 0.246-0.272-0.021-0.476-0.331-0.62-0.331h-0.532c-0.246 2-1.38 4.526-3.055 6.15-0.834 1.775-2.68 3.01-4.654 2.992-0.187 0.267-0.492 0.441-0.883 0.316-8.765-2.797-7.359-16.616-7.594-23.682-0.379-11.436-1.356-24.689 1.921-35.808 1.411-4.789 7.515-14.412 13.296-8.948 6.977 6.592 7.891 18.734 5.387 27.366-0.125 0.434-0.467 0.623-0.818 0.629-0.128 0.072-0.275 0.123-0.466 0.109-2.544-0.192-5.087-0.383-7.631-0.575-0.043 0.035-0.093 0.046-0.139 0.069-0.248 1.779-0.496 3.559-0.744 5.339 4.788 0.349 9.574 0.429 14.371 0.236 0.024-0.041 0.031-0.083 0.062-0.123 0.09-0.116 0.18-0.233 0.27-0.349 1.439-11.72 4.758-31.641-8.745-37.497-6.832-2.963-14.57-0.389-18.626 5.824zm26.908 55.415c-0.158 0.061-0.336 0.09-0.547 0.028-0.105-0.031-0.21-0.051-0.314-0.076 0.001 0.022 0.011 0.036 0.011 0.058 0 0.089-0.001 0.178-0.001 0.267 0.221 0.139 0.384 0.369 0.376 0.714-0.007 0.318-0.025 0.633-0.053 0.945 0.125 1.159 0.07 2.319-0.27 3.458-0.299 1.003-0.763 2.391-1.773 2.862-0.214 0.626-0.471 1.234-0.768 1.822 2.28-2.756 3.527-6.333 3.339-10.078zm-18.249 6.04c0.023 0.184-0.004 0.345-0.066 0.485 0.374 0.338 0.778 0.628 1.224 0.85 0.061 0.014 0.125 0.031 0.191 0.052 0.019-0.044 0.033-0.093 0.057-0.13-0.526-0.34-0.995-0.764-1.406-1.257zm-0.992-57.714c-0.724 1.084-1.302 2.231-1.686 3.257 0.142-0.256 0.275-0.517 0.431-0.764 0.113-0.18 0.262-0.278 0.42-0.342 0.249-0.73 0.519-1.451 0.835-2.151zm7.168 21.058c0.185 0.014 0.369 0.027 0.554 0.041 0.072-0.258 0.25-0.484 0.592-0.573 0.035-0.009 0.072 0.115 0.108 0.106 0.058-0.134 0.148-0.223 0.266-0.282 0-0.127 0.025-0.251 0.079-0.371 0-0.004 0.002-0.007 0.002-0.011-0.587 0.27-1.135 0.631-1.601 1.09zm6.395-34.043c0.268-0.154 0.613-0.193 0.915-0.037 0.415 0.214 0.807 0.44 1.187 0.673 0.084-0.07 0.178-0.13 0.286-0.168-1.119-0.534-2.297-0.86-3.509-1.018 0.086 0.013 0.173 0.029 0.257 0.072 0.309 0.156 0.594 0.314 0.864 0.478zm5.686 7.992c-0.142-0.324-0.276-0.653-0.404-0.988-0.39-0.242-0.732-0.508-1.049-0.788 0.541 0.642 1.029 1.321 1.469 2.033-0.017-0.088-0.029-0.175-0.016-0.257zm5.84 30.557c-0.193 0.798-1.11 0.781-1.538 0.309-0.912 1.181-1.825 2.361-2.737 3.542-0.058 0.391-0.334 0.749-0.843 0.772-5.31 0.239-10.603 0.146-15.901-0.279-0.486-0.039-0.755-0.387-0.83-0.766-0.079-0.16-0.13-0.338-0.1-0.549l0.9-6.468c0.025-0.176 0.095-0.302 0.182-0.404 0.005-0.398 0.247-0.758 0.706-0.801 1.892-2.938 5.733-4.008 8.952-2.595 0.006 0.002 0.008 0.007 0.013 0.009 1.078-6.867-0.225-13.959-4.224-19.827-1.725-2.532-3.601-3.005-5.343-2.386-0.013 0.178-0.062 0.357-0.199 0.523-6.35 7.724-4.633 19.253-4.459 28.548 0.094 5.031 0.188 10.062 0.282 15.092 0.075 4.05-1.39 18.647 6.243 17.716 0.036-0.004 0.064 0.003 0.097 0.003 0.292-0.251 0.725-0.293 1.054-0.138 0.722-1.087 1.197-2.343 1.279-3.699 0.026-0.423 0.286-0.445 0.601-0.558 0.07-0.225 0.226-0.302 0.456-0.332-0.04-0.243 0.011-0.505 0.224-0.738 2.356-2.576 5.923-3.556 9.269-2.572 0.073 0.021 0.122 0.063 0.181 0.096 0.442-0.461 1.512-0.255 1.615 0.614 0.873 7.351-3.539 14.357-10.288 16.997-3.212 2.234-7.218 3.41-11.215 2.977-12.758-1.382-12.697-15.122-13.014-25.026-0.263-8.218-0.193-16.462 0.206-24.674 0.344-7.061 0.127-15.164 2.415-21.954 0.48-1.422 1.154-2.729 1.954-3.931-0.222-0.318-0.269-0.749 0.088-1.102 7.353-7.266 19.99-14.046 29.193-5.555 3.829 3.531 5.022 8.873 5.552 13.845 0.821 7.705 1.054 15.742-0.771 23.311"/><path id="path114" d="m437.83 567.12c-3.838-2.952-10.235-2.362-14.807-2.606-5.26-0.281-10.521-0.548-15.783-0.798-10.524-0.501-21.051-0.942-31.58-1.321-4.607-0.166-9.214-0.321-13.821-0.463-5.038-0.156-10.674-0.986-15.654-0.004-7.512 1.48-8.174 8.181-8.77 14.536-0.553 5.889-1.074 11.785-1.345 17.694-0.27 5.891-0.304 11.803 0.143 17.687 0.496 6.512 1.354 16.052 9.031 17.771 0.114-0.053 0.246-0.086 0.403-0.081 20.749 0.716 41.496 1.431 62.244 2.147 4.94 0.17 9.88 0.351 14.82 0.511 4.472 0.145 9.603 0.551 13.715-1.581 5.756-2.984 5.053-10.147 5.172-15.697 0.117-5.469 0.157-10.94 0.12-16.411-0.031-4.505-0.114-9.01-0.25-13.513-0.16-5.308 0.978-14.32-3.638-17.871zm-63.24 70.478c0.401 2.289 1.998 5.649 4.416 6.632 2.414 0.98 7.39 0.013 10.016 0.017 2.853 0.005 6.32 0.565 9.106 0.016 5.24-1.032 4.702-6.813 4.86-10.95-3.964-0.137-7.928-0.274-11.893-0.41-5.599-0.193-11.198-0.387-16.798-0.58 0.057 1.718 0.005 3.632 0.293 5.275zm46.581-2.771c-2.624 2.8 4.148 3.608 5.462 3.669 2.016 0.092 6.35-1.12 4.332-4-0.145-0.206-0.17-0.407-0.136-0.591-3.095 0.361-6.274 0.306-9.439 0.15 0.053 0.253 0.009 0.529-0.219 0.772zm22.206-18.946c-0.202 8.758-1.293 16.015-10.821 17.77 0.977 1.452 0.765 3.205-0.265 4.596-1.478 1.997-4.09 2.192-6.373 1.998-2.095-0.178-4.748-0.366-6.151-2.166-0.984-1.264-1.059-2.872-0.185-4.12-1.606-0.09-3.203-0.184-4.775-0.238-3.338-0.115-6.676-0.231-10.015-0.346-0.045 3.388 0.781 9.649-1.912 11.795-1.272 1.013-3.259 0.874-4.752 0.893-3.337 0.044-6.679-0.011-10.016-0.017-3.488-0.006-10.079 1.387-13.122-0.962-3.223-2.488-2.412-9.142-2.495-12.823-8.528-0.294-17.056-0.588-25.584-0.882-0.142 0.169-0.359 0.274-0.665 0.236-9.768-1.214-11.218-11.701-11.833-19.77-0.976-12.815-0.011-25.982 1.524-38.722 0.978-8.113 4.516-12.952 13.061-13.297 13.383-0.539 27.1 0.752 40.48 1.302 13.149 0.541 26.335 0.982 39.463 1.908 8.518 0.602 13.378 3.347 13.956 12.307 0.869 13.459 0.791 27.061 0.48 40.538"/><path id="path116" d="m392.75 636.66c-0.924-0.392-2.553-0.2-3.529-0.277-2.289-0.179-4.579-0.359-6.868-0.539 0.098 0.665 0.04 1.228-0.17 1.929-0.128 0.428-0.672 1.108-0.595 1.525 0.163 0.894 1.84 1.039 2.732 1.181 3.406 0.539 7.034 0.433 10.497 0.252-0.08-1.676-0.081-3.226-2.067-4.071zm3.022 5.821c-2.674 0.148-5.346 0.185-8.022 0.053-1.852-0.091-4.747 0.097-6.506-0.652-3.173-1.352-0.177-3.625-0.682-5.907-0.032-0.141-0.032-0.272-0.007-0.392-0.682-0.445-0.549-1.723 0.433-1.646 2.352 0.185 4.705 0.37 7.057 0.554 1.991 0.156 4.514-0.021 6.428 0.54 2.586 0.758 1.994 4.404 2.199 6.55 0.048 0.503-0.452 0.875-0.9 0.9"/><path id="path118" d="m390.18 572.26c-0.089 0.03-0.179 0.059-0.29 0.059-0.132 0-0.262 0.008-0.393 0.01-1.263 0.159-2.532 0.414-3.797 0.776-0.391 0.112-0.697-0.036-0.89-0.28-11.61 2.327-20.582 12.43-20.001 24.939 0.733 15.785 14.769 22.406 28.974 21.007 13.513-1.331 24.264-12.767 22.161-26.749-1.933-12.848-13.508-20.952-25.764-19.762zm21.403 39.815c-7.942 8.866-21.574 10.636-32.58 7.176-11.258-3.54-17.318-14.568-15.758-26.09 1.782-13.163 13.082-22.361 26.093-22.629 9.794-1.216 19.79 2.98 25.029 11.751 5.664 9.481 4.586 21.565-2.784 29.792"/><path id="path120" d="m394.42 580.23c-0.609 0.08-0.881-0.392-0.841-0.874-9.04-1.468-18.109 3.166-21.231 12.199-3.63 10.498 2.169 19.495 12.566 22.018 10.474 2.541 20.939-2.765 24.401-13.268 3.346-10.152-3.543-21.557-14.895-20.075zm17.233 18.302c-2.359 11.77-13.982 19.38-25.561 17.142-5.487-1.061-10.926-3.169-13.971-8.132-2.737-4.462-3.258-10.084-1.927-15.09 3.027-11.39 14.677-17.341 25.816-14.424 0.191 0.05 0.32 0.151 0.423 0.268 10.314-0.052 17.244 10.139 15.22 20.236"/><path id="path122" d="m392.77 592.49c-2.041-1.249-5.101-0.412-6.304 1.632-1.044 1.773-0.584 3.867 0.596 5.407 0.058 0.033 0.119 0.051 0.175 0.1 1.91 1.677 5.14 1.592 6.749-0.483 1.551-2 0.957-5.326-1.216-6.656zm2.581 7.855c-1.595 1.984-4.184 2.607-6.512 2.039-0.251 0.284-0.647 0.426-1.068 0.169-3.071-1.87-4.81-6.037-2.859-9.34 1.802-3.05 6.298-4.1 9.185-1.992 2.786 2.033 3.424 6.425 1.254 9.124"/><path id="path124" d="m432.94 627.09c-0.029 0.45-0.389 0.948-0.9 0.9-4.723-0.443-9.363-1.269-13.945-2.503-0.418-0.113-0.614-0.47-0.661-0.868-0.261-2.258-0.145-4.336 0.315-6.551 0.235-1.133 1.97-0.653 1.735 0.479-0.377 1.817-0.455 3.548-0.307 5.353 3.959 1.035 7.96 1.768 12.029 2.193 0.174-2.632 0.348-5.263 0.522-7.895-3.832-0.509-7.663-0.638-11.527-0.397-1.157 0.072-1.152-1.728 0-1.8 4.269-0.266 8.487-0.07 12.718 0.545 0.364 0.053 0.684 0.512 0.661 0.868-0.213 3.225-0.427 6.45-0.64 9.676"/><path id="path126" d="m569.87 639.76c-0.457 0.446-1.052 0.204-1.315-0.251-0.092-0.005-0.183-0.015-0.276-0.015-1.159 0.012-1.16-1.788 0-1.8 0.317-0.003 0.628 0.026 0.936 0.068 6.842-8.732-7.452-12.449-13.564-12.771-6.001-0.315-12.003 0.605-17.94 1.345-11.985 1.494-24.022 2.234-36.099 2.254-0.403 0-0.656-0.222-0.779-0.506 0.015 0.354 0.024 0.676 0.016 0.94-0.055 1.97-0.111 3.939-0.166 5.909-0.129 4.596-0.259 9.192-0.388 13.789l-0.619 21.992c0.281-0.173 0.649-0.229 0.918-0.029 0.125 0.092 0.245 0.159 0.369 0.203 0.103-0.311 0.371-0.542 0.808-0.494 6.599 0.722 12.978 1.864 17.328 7.329 4.05 5.088 5.179 11.734 5.064 18.072-0.075 4.109-1.856 9.345-1.144 13.332 1.059 5.932 7.35 4.704 10.695 1.935 1.854-1.536 3.356-3.593 4.574-5.644 4.191-7.054 4.868-15.52 4.151-23.531-0.241-0.318-0.207-0.675-0.016-0.954 0.22-0.697 1.353-0.672 1.674 0.054 3.545 2.995 11.493 3.642 15.712 2.594 5.348-1.329 11.328-8.256 4.993-12.84-0.333-0.241-0.425-0.595-0.371-0.92-0.139-0.021-0.275-0.028-0.416-0.058-1.133-0.237-0.654-1.972 0.478-1.735 4.905 1.026 7.764-5.464 7.493-9.237-0.234-3.255-2.279-5.823-5.466-6.663-1.01-0.267-0.716-1.693 0.175-1.754 0.102-0.049 0.216-0.087 0.349-0.096 2.695-0.19 5.467-1.9 6.132-4.67 0.607-2.529-0.994-5.046-3.306-5.848zm-96.472-20.335c-4.012 0.252-8.139 1.106-9.493 5.644-0.639 2.141-0.582 4.801-0.814 7.013-0.511 4.888-0.935 9.785-1.277 14.688-0.341 4.903-0.6 9.811-0.77 14.723-0.178 5.13-1.809 13.917 4.647 15.67 4.105 1.114 8.922 0.826 13.161 1.092 3.652 0.23 17.216 2.919 18.302-2.722 0.073-0.381 0.321-0.567 0.604-0.621 0.292-10.371 0.584-20.743 0.876-31.115 0.147-5.253 0.295-10.505 0.443-15.758 0.066-2.346-0.611-5.826 1.192-7.666-8.918-1.134-17.892-1.512-26.871-0.948zm101.67 25.764c-0.329 3.111-2.669 5.356-5.462 6.346 3.1 1.977 4.716 5.681 4.115 9.536-0.602 3.863-3.371 8.064-7.261 8.732 4.051 3.662 3.253 9.899-1.146 13.222-5.046 3.812-15.212 3.869-20.961 0.351 0.474 7.169-0.28 14.491-3.479 21.013-2.551 5.202-8.39 12.867-15.166 10.721-7.57-2.397-3.559-12.819-3.365-18.411 0.199-5.742-0.515-11.781-3.786-16.669-3.763-5.625-9.79-7.019-16.069-7.753-0.102 0.169-0.262 0.309-0.512 0.372-0.792 0.197-1.627 0.083-2.291-0.409-0.02-0.015-0.032-0.035-0.051-0.051-0.039 1.37-0.077 2.739-0.116 4.109-0.017 0.597-0.503 0.88-0.966 0.862-1.309 3.386-5.015 3.705-8.532 3.597-6.804-0.208-13.693-0.72-20.477-1.287-3.874-0.324-8.312-0.935-9.907-5.051-1.977-5.1-0.439-12.525-0.192-17.836 0.349-7.528 0.899-15.046 1.646-22.545 0.405-4.062-0.04-11.003 3.202-14.176 3.331-3.26 10.435-2.379 14.678-2.474 7.448-0.166 14.87 0.318 22.251 1.302 0.789 0.105 1.022 1.004 0.71 1.492 0.312 0.318 0.4 0.805-0.052 1.157-1.306 1.017-1.185 3.891-1.081 6.018 0.109-0.315 0.38-0.567 0.813-0.567 9.142-0.015 18.272-0.411 27.373-1.281 8.539-0.817 17.124-2.588 25.727-2.343 5.314 0.151 12.851 0.799 16.254 5.583 2.134 3 1.845 6.615 0.034 9.521 2.592 1.16 4.386 3.932 4.069 6.919"/><path id="path128" d="m479.11 665.82c-2.823-0.151-3.22 3.105-1.661 4.599 0.184-0.13 0.425-0.181 0.715-0.077 1.46 0.524 3.154-0.598 3.361-2.146 0.193-1.434-1.138-2.308-2.415-2.376zm4.151 2.854c-0.355 1.728-1.806 3.153-3.483 3.523-0.024 0.424-0.299 0.799-0.845 0.728-2.448-0.314-4.351-2.476-4.263-4.99 0.087-2.496 2.316-4.108 4.711-3.896 2.347 0.207 4.389 2.161 3.88 4.635"/><path id="path130" d="m208.83 378.5c-0.67 2.314-1.168 4.647-1.507 7.062-0.016 0.106-0.056 0.184-0.095 0.263 0.611 0.681 1.239 1.346 1.844 2.032 0.262 0.296 0.274 0.637 0.161 0.928 0.376 0.422 0.355 1.274-0.356 1.553-27.996 10.99-56.391 20.916-85.125 29.791 30.518-5.983 60.696-13.545 90.421-22.698 0.119-0.14 0.283-0.237 0.46-0.301-1.205-6.456-3.123-12.649-5.803-18.63zm-6.676 1.844c1.2 1.272 2.401 2.544 3.581 3.837 0.361-2.28 0.866-4.496 1.526-6.699-1.548 0.915-3.096 1.83-4.644 2.745-0.16 0.095-0.315 0.12-0.463 0.117zm41.489 42.424c-0.193-0.159-0.387-0.319-0.581-0.479-0.046 0.004-0.081 0.022-0.131 0.019-20.716-1.125-41.629 0.306-62.35 0.888-20.948 0.588-41.896 1.177-62.844 1.765-1.159 0.033-1.158-1.767 0-1.8 20.948-0.588 41.896-1.177 62.844-1.765 20.004-0.562 40.186-1.908 60.198-0.988-8.623-7.107-17.245-14.213-25.868-21.319-31.841 9.814-64.197 17.827-96.94 24.001-0.399 0.076-0.712-0.091-0.904-0.348-0.539 0.154-0.987-0.366-0.994-0.92-0.279-0.453-0.195-1.155 0.474-1.358 0.384-0.116 0.767-0.237 1.15-0.354 22.815-17.051 44.881-35.067 66.152-54.011 0.862-0.768 2.139 0.501 1.272 1.273-20.101 17.903-40.922 34.968-62.398 51.191 28.65-8.834 56.961-18.716 84.878-29.652-7.469-8.447-15.383-16.454-23.748-24.016-0.861-0.778 0.415-2.048 1.273-1.272 5.597 5.059 10.975 10.335 16.166 15.797-0.007-0.28 0.103-0.561 0.417-0.747 2.174-1.285 4.349-2.571 6.524-3.856 0.751-0.444 1.448 0.323 1.326 0.982 3.303 6.919 5.637 14.129 6.971 21.686 0.037 0.21-0.008 0.389-0.082 0.549 9.489 7.82 18.979 15.641 28.468 23.462 0.895 0.737-0.385 2.004-1.273 1.272"/><path id="path132" d="m333.16 315.94c-3.234-5.548-10.5-12.146-17.559-9.597-9.5 3.431-3.023 14.978 1.612 19.449 5.341 5.152 12.212 8.392 19.453 9.795 1.235-6.312 0.369-12.998-3.506-19.647zm-78.794 22.327c-11.249-3.367-9.723 11.055-5.997 16.784 3.287 5.053 8.314 8.759 13.729 11.385 4.663-10.441 4.849-24.402-7.732-28.169zm129.08-22.622c-6.851 12.973-20.54 21.318-35.036 22.428-3.484 0.267-7.128 0.1-10.745-0.482-0.56 2.499-1.379 4.925-2.447 7.189-6.531 13.852-20.293 23.461-34.93 27.051-12.117 2.972-25.608 2.212-37.121-2.904-0.136 0.246-0.267 0.495-0.409 0.736-9.068 15.469-28.15 20.964-44.374 13.969-1.061-0.458-0.145-2.009 0.908-1.555 12.961 5.588 28.074 2.82 37.717-7.654 1.598-1.735 3.076-3.916 4.316-6.346-1.626-0.805-3.21-1.696-4.736-2.686-5.793-3.757-11.309-9.409-12.732-16.401-1.085-5.333 0.365-12.253 6.712-12.901 6.429-0.656 12.088 4.594 14.575 10.072 3.064 6.75 2.012 14.586-1.138 21.143 0.611 0.264 1.224 0.521 1.839 0.76 10.528 4.094 22.274 4.757 33.253 2.197 15.583-3.632 33.022-16.919 37.176-32.915-9.54-1.831-18.722-6.653-24.062-14.638-2.991-4.471-5.029-11.378-0.801-15.789 4.132-4.311 11.071-3.043 15.614-0.131 9.75 6.248 12.859 18.165 10.988 29.047 3.439 0.555 6.945 0.701 10.397 0.438 13.139-1.002 25.552-8.282 32.407-19.623 7.564-12.517 6.487-28.941-4.001-39.476-0.818-0.822 0.454-2.095 1.273-1.273 10.453 10.499 12.199 26.786 5.357 39.744"/><path id="path134" d="m699.47 416.25c-0.373-0.07-0.673-0.498-0.661-0.868 0.141-4.233 0.675-8.33 1.595-12.45-0.04-0.128-0.059-0.259-0.039-0.388-0.055-0.029-0.111-0.052-0.163-0.1-1.232-1.144-2.624-2.005-4.1-2.585 0.019 0.11 0.025 0.226-0.002 0.353-2.172 10.538-3.992 23.204-2.81 34.952 0.142 0.017 0.283 0.031 0.426 0.05 3.57 0.471 6.631 2.033 7.728 5.626 0.339 1.11-1.398 1.585-1.736 0.479-0.956-3.133-3.457-4.021-6.207-4.33 0.697 5.407 2.067 10.584 4.384 15.221 0.516 1.033-1.036 1.946-1.554 0.909-2.492-4.989-3.943-10.517-4.656-16.268-1.388-0.066-2.768-0.078-3.984-0.236-2.386-0.31-4.521-1.085-6.442-2.564-1.203-0.927-2.187-2.03-2.985-3.239-0.557 0.948-1.11 1.898-1.692 2.834-0.611 0.982-2.169 0.079-1.555-0.908 0.767-1.233 1.508-2.479 2.23-3.734-0.94-2.059-1.37-4.35-1.237-6.701 0.065-1.151 1.865-1.159 1.799 0-0.091 1.627 0.103 3.193 0.569 4.663 4.865-8.821 8.657-18.133 11.328-27.889-1.919 0.251-3.808 0.924-5.527 2.046-0.019 0.012-0.037 0.011-0.056 0.022-0.002 0.015 0.004 0.027 0.001 0.042-0.732 4.396-0.052 12.76-5.447 14.237-3.103 0.849-6.212 0.4-9.239 1.913-3.472 1.736-6.327 4.647-8.207 8.02-8.484 15.217 4.451 33.207 18.965 38.39 13.685 4.888 29.331-0.314 35.943-13.665 6.81-13.752-1.492-30.994-16.669-33.832zm-20.188 12.815c0.566 1.016 1.284 1.968 2.193 2.823 3.007 2.827 6.346 2.839 9.997 3.108-1.141-11.848 0.672-24.494 2.893-35.263 0.031-0.151 0.092-0.27 0.169-0.366-0.959-0.241-1.939-0.383-2.926-0.4-2.836 10.559-6.956 20.616-12.326 30.098zm22.192-27.894c0.091 0.084 0.153 0.174 0.195 0.266 3.635-2.722-1.172-7.095-4.04-8.003-1.599-0.506-3.299-0.597-4.964-0.592-1.383 0.003-2.775 0.089-4.15 0.243-1.326 0.148-9.326 2.46-4.639 5.23 0.276 0.163 0.396 0.4 0.419 0.645 2.007-1.092 4.186-1.67 6.372-1.769 0.128-0.032 0.259-0.039 0.391-0.016 3.756-0.07 7.505 1.292 10.416 3.996zm2.18-5.438c0.129 0.215 0.221 0.436 0.322 0.655 2.371-4.766-4.782-7.896-8.65-8.622-2.806-0.526-13.11-0.782-11.024 4.322 2.87-1.265 6.984-1.139 9.554-1.026 3.721 0.163 7.759 1.271 9.798 4.671zm-14.736-9.742c2.056-0.34 4.148-0.357 5.564-0.17 2.251 0.297 5.288 1.309 7.723 2.872-2.543-5.063-9.02-6.426-13.287-2.702zm20.415 75.145c-20.478 16.107-55.579-1.963-52.293-28.645 0.746-6.053 4.08-11.73 9.081-15.249 2.401-1.69 5.163-2.838 8.075-3.248 3.134-0.442 5.402-1.183 6.724-4.47 1.031-2.565 1.013-6.079 1.469-8.815 0.057-0.343 0.258-0.524 0.5-0.599 0.019-0.081 0.058-0.158 0.1-0.234-0.007-0.004-0.014-0.003-0.021-0.007-2.275-1.345-2.528-4.244-0.827-6.252 0.184-0.217 0.392-0.411 0.613-0.594-1.451-3.202 0.341-5.132 3.04-6.2 0.008-0.012 0.007-0.024 0.015-0.036 5.322-7.56 16.684-5.595 18.904 3.474 0.046 0.187 0.022 0.348-0.028 0.495 1.837 2.057 2.43 4.648 0.184 7.594-0.092 0.122-0.201 0.207-0.317 0.268 0.096 1.813-0.689 3.535-2.381 4.609-0.565 2.484-1.019 4.979-1.286 7.516-0.258 2.458-0.503 3.338 1.721 4.361 2.593 1.193 5.047 1.992 7.394 3.758 4.18 3.146 7.376 7.612 9.091 12.55 3.81 10.969-0.861 22.727-9.758 29.724"/><path id="path136" d="m656.13 411.25l-7.917-7.446c-0.845-0.796 0.429-2.067 1.273-1.273l7.917 7.446c0.845 0.796-0.429 2.067-1.273 1.273"/><path id="path138" d="m644.83 443.05c-2.629 0.731-5.259 1.461-7.888 2.191-1.118 0.31-1.595-1.426-0.479-1.736 2.63-0.73 5.259-1.46 7.889-2.19 1.117-0.311 1.594 1.425 0.478 1.735"/><path id="path140" d="m675.86 475.44c-2.649 2.822-4.751 6.038-6.233 9.615-0.437 1.056-2.179 0.593-1.736-0.478 1.606-3.876 3.823-7.35 6.697-10.409 0.794-0.846 2.065 0.428 1.272 1.272"/><path id="path142" d="m717.76 479.39c-1.845-3.104-3.909-6.049-6.213-8.831-0.734-0.886 0.533-2.166 1.273-1.273 2.401 2.899 4.571 5.96 6.495 9.196 0.593 0.998-0.963 1.904-1.555 0.908"/></g><path id="path144" d="m741.79 441.3c-1.923-1.697-4.269-2.618-6.831-2.703-1.155-0.039-1.16-1.839 0-1.8 3.05 0.101 5.816 1.212 8.103 3.23 0.87 0.768-0.407 2.037-1.272 1.273" fill="#040606"/><g fill="#162125"><path id="path146" d="m728.67 410.06c-1.718 1.974-3.892 3.39-6.372 4.218-1.101 0.368-1.573-1.37-0.478-1.736 2.193-0.732 4.062-2.014 5.577-3.755 0.762-0.876 2.03 0.402 1.273 1.273"/><path id="path148" d="m530.87 107.59c-14.583-15.259-27.982 8.953-31.78 20.731-0.714 2.218-1.527 5.022-2.234 8.116 11.616 4.383 23.231 8.766 34.847 13.15 0.387 0.146 0.568 0.466 0.598 0.795 3.968-12.667 8.567-32.33-1.431-42.792zm-27.77 60.014c0.574 0.28 0.544 0.869 0.238 1.264 0.501 0.307 1.02 0.581 1.548 0.836 0.866-2.214 1.732-4.429 2.598-6.643-0.419-1.654-0.365-3.387 0.228-5.052 0.478-1.339 1.798-3.664 3.434-4.31 1.103-2.819 2.206-5.639 3.309-8.458 0.031-0.081 0.082-0.136 0.127-0.199l-18.11-6.834c-2.272 10.993-2.837 24.783 6.628 29.396zm17.249 1.881c6.379-3.567 9.343-10.987 11.468-17.576 0.082-0.255 0.165-0.518 0.248-0.78-0.19 0.216-0.476 0.331-0.84 0.193l-15.03-5.67c-0.007 0.023-0.002 0.042-0.011 0.066-0.948 2.422-1.895 4.844-2.842 7.266 0.273 0.141 0.473 0.414 0.474 0.778 0 0.32-0.02 0.634-0.04 0.948 0.506 1.201 0.199 3.015-0.058 4.043-0.588 2.346-1.987 4.312-3.887 5.744-0.018 0.655-0.777 1.113-1.311 0.814-0.664 1.698-1.329 3.397-1.993 5.095 4.452 1.632 9.504 1.488 13.815-0.922zm16.169-28.584c-1.398 7.1-3.335 14.487-6.797 20.896-4.585 8.488-13.642 12.947-22.082 10.872 0.382 0.147 0.655 0.505 0.462 1.004-3.262 8.479-12.497 23.868-23.65 17.676-7.278-4.041-12.977-11.541-22.098-11.369-9.89 0.187-13.621 10.404-13.663 18.799-0.006 1.158-1.806 1.16-1.8 0 0.055-10.825 6.157-22.455 18.661-20.314 7.356 1.26 12.414 6.566 18.428 10.451 10.613 6.856 19.16-7.334 22.387-15.721 0.184-0.48 0.634-0.638 1.038-0.584-2.984-0.777-5.885-2.37-8.477-4.905-0.305-0.298-0.323-0.658-0.186-0.954-7.152-6.892-5.38-20.759-3.776-29.429v-0.001c-0.144-0.363-0.049-0.792 0.201-1.05 2.377-12.101 8.121-29.288 20.604-34.064 11.476-4.3911 20.55 6.277 22.14 16.709 1.101 7.226 0.008 14.869-1.392 21.984"/><path id="path150" d="m286.45 569.48c-1.747 0.293-3.519 0.483-5.306 0.599 0.38 1.99 0.711 3.984 1.009 5.98 2.162 0.038 4.323 0.076 6.484 0.114 1.157 0.02 1.161 1.82 0 1.8-2.08-0.036-4.161-0.073-6.241-0.109 0.285 2.08 0.526 4.166 0.722 6.257l8.498-0.016c1.159-0.002 1.16 1.798 0 1.8-2.775 0.005-5.549 0.011-8.324 0.015 0.154 1.888 0.273 3.781 0.355 5.68 3.6-0.081 7.199-0.162 10.799-0.242-1.969-7.555-4.618-14.831-7.996-21.878zm-15.879 8.176c0.026 2.165 0.115 4.327 0.265 6.487 3.494-0.006 6.987-0.013 10.48-0.019-0.198-2.103-0.441-4.2-0.731-6.292l-10.014-0.176zm8.814-7.487c-2.865 0.109-5.763 0.045-8.657-0.079-0.102 1.926-0.155 3.847-0.162 5.766 3.259 0.057 6.517 0.114 9.776 0.172-0.283-1.875-0.6-3.746-0.959-5.613-0.017-0.089-0.003-0.166 0.002-0.246zm-10.323 15.777c-3.811 0.007-7.558 0.014-11.558 0.021v6.068c0 0.055 0.105 0.095 0.097 0.145 4.039-0.09 8.078-0.181 12.117-0.271-0.27-1.988-0.487-3.975-0.656-5.963zm-0.41-8.321c-3.674-0.064-7.148-0.129-11.148-0.193v6.735c4-0.007 7.589-0.014 11.352-0.021-0.151-2.171-0.175-4.344-0.204-6.521zm-10.306-8.138c-0.211-0.006-0.549-0.012-0.76-0.018 0.017 0.072-0.082 0.137-0.082 0.221v5.942c4 0.064 7.468 0.128 11.139 0.193 0.005-1.935 0.122-3.873 0.226-5.816-3.568-0.18-7.056-0.421-10.523-0.522zm13.276 22.382c3.409-0.076 6.819-0.153 10.228-0.229-0.082-1.911-0.205-3.816-0.361-5.716-3.505 0.006-7.01 0.013-10.515 0.019 0.167 1.952 0.382 3.902 0.653 5.853 0.003 0.026-0.006 0.047-0.005 0.073zm-24.89-22.717c-0.355 2.089-0.759 4.18-1.039 6.274 3.303 0.058 6.811 0.116 9.811 0.174v-5.91c0-0.103 0.256-0.186 0.282-0.271-3.062-0.089-6.011-0.178-9.054-0.267zm-1.972 15.038c3.582-0.007 7.744-0.013 10.744-0.02v-6.77c-3-0.06-6.666-0.119-10.066-0.179-0.286 2.319-0.482 4.642-0.678 6.969zm-8.951-15.359c-0.689 2.118-1.317 4.246-1.884 6.386 3.354 0.059 6.715 0.118 10.06 0.177 0.279-2.101 0.595-4.199 0.946-6.295-3.039-0.089-6.079-0.179-9.122-0.268zm-8.594-0.251-1.717 6.489c2.199 0.039 4.384 0.077 6.579 0.116 0.559-2.148 1.179-4.284 1.861-6.408-2.238-0.066-4.475-0.131-6.723-0.197zm-3.946 15.649c2.29-0.004 4.558-0.008 6.83-0.012 0.433-2.43 0.934-4.843 1.517-7.24-2.211-0.038-4.423-0.077-6.624-0.115-0.598 2.455-1.125 4.911-1.723 7.367zm-1.994 8.768c2.54-0.057 5.069-0.114 7.599-0.171 0.241-2.286 0.548-4.555 0.915-6.809-2.27 0.004-4.537 0.008-6.819 0.013-0.565 2.322-1.13 4.644-1.695 6.967zm21.253-0.478c0.084-2.18 0.208-4.355 0.37-6.526-3.766 0.007-7.529 0.014-11.297 0.021-0.371 2.241-0.681 4.497-0.922 6.772 3.953-0.089 7.901-0.178 11.849-0.267zm1.244-15.33c-3.427-0.06-6.87-0.12-10.315-0.18-0.591 2.385-1.101 4.786-1.541 7.204 3.711-0.006 7.415-0.013 11.132-0.02 0.197-2.339 0.438-4.674 0.724-7.004zm11.996 15.03c-0.012-0.062-0.264-0.114-0.264-0.184v-6.065c-3 0.007-7.247 0.013-10.893 0.02-0.161 2.158-0.285 4.321-0.369 6.488 3.836-0.086 7.668-0.172 11.526-0.259zm-19.59-36.01c0.115-0.309 0.379-0.562 0.8-0.58 2.472-0.11 4.666-1.573 5.677-3.841 0.644-1.446 0.912-3.63-0.645-4.665-0.938-0.623-2.503-0.495-3.571-0.46-2.764 0.091-5.475 1.11-5.527 4.326-0.037 2.274 1.474 4.018 3.266 5.22zm44.07-1.48c2.235 0.131 4.652-0.919 5.353-3.222 0.666-2.188-0.401-4.752-2.718-5.326-2.515-0.623-4.586 1.245-4.775 3.731-0.144 1.885 0.723 3.65 2.14 4.817zm-78.697 46.439c-0.1-0.118-0.158-0.244-0.191-0.37-0.879-0.411-1.829-0.753-2.762-0.636-1.495 0.188-2.712 1.584-1.464 2.911 0.814 0.865 2.258 1.278 3.388 0.891 1.091-0.373 1.88-1.781 1.029-2.796zm94.236-8.426c-0.141 0.222-0.369 0.389-0.708 0.396l-50.892 1.141c-0.257 0.776-1.447 0.793-1.686 0.037l-21.393 0.479c-0.101 0.003-0.182-0.024-0.266-0.048-0.529 2.177-1.059 4.353-1.588 6.528-0.072 0.296-0.246 0.475-0.457 0.567-0.141 0.221-0.363 0.393-0.687 0.425-4.788 0.472-9.579 0.674-14.39 0.607-0.049 0-0.083-0.021-0.127-0.027-0.145 0.798-0.545 1.557-1.222 2.128-1.768 1.493-4.521 1.055-6.199-0.349-1.762-1.475-1.848-3.911 0.003-5.351 2.225-1.733 4.958-0.612 7.178 0.506 0.597 0.3 0.537 0.935 0.19 1.327 0.059-0.011 0.109-0.035 0.177-0.034 4.636 0.065 9.254-0.127 13.868-0.563 2.329-9.574 4.658-19.148 6.988-28.722 0.925-3.805 1.165-9.415 3.155-12.706 0.793-1.311 1.091-1.656 2.645-2.114 0.978-0.288 2.089-0.44 3.259-0.516-1.851-1.8-2.999-4.221-2.345-6.934 0.961-3.991 4.847-4.794 8.45-4.664 3.686 0.133 5.935 2.563 5.04 6.328-0.572 2.402-2.234 4.296-4.349 5.346 1.076 0.042 2.105 0.072 3.033 0.051l13.737-0.321c7.165-0.168 14.331-0.335 21.496-0.503-1.886-1.802-2.868-4.501-2.198-7.12 0.792-3.102 3.712-4.988 6.862-4.191 3.063 0.775 4.738 4.007 4.105 7.02-0.392 1.868-1.6 3.298-3.157 4.16 0.776-0.018 1.552-0.036 2.328-0.055 1.159-0.027 1.158 1.773 0 1.8-16.354 0.383-32.707 0.765-49.061 1.147-0.209 0.005-0.458 0.001-0.724-0.007-0.071 0.006-0.142 0.005-0.217-0.008-1.579-0.058-3.826-0.232-4.946 0.153-2.948 1.014-2.899 3.425-3.496 5.876-0.183 0.753-0.366 1.505-0.548 2.257l6.988 0.203c0.371-0.339 0.962-0.281 1.291 0.038l20.462 0.596c9.812 0.286 20.448 1.78 30.136 0.024 0.292-0.053 0.54 0.027 0.729 0.173 0.239 0.024 0.465 0.151 0.607 0.445 3.632 7.524 6.48 15.316 8.533 23.416 0.137 0.539-0.194 0.923-0.604 1.059"/><path id="path152" d="m463.62 117.04c-1.115 0.322-1.591-1.415-0.479-1.736 4.331-1.251-3.841-5.036-4.294-5.168-1.854-0.538-3.879-0.627-5.79-0.807-3.304-0.312-6.633-0.533-9.95-0.629-3.81-0.11-7.654-0.04-11.428 0.55-1.755 0.274-3.507 0.643-5.208 1.159-0.801 0.243-6.859 2.795-4.61 3.737 1.053 0.441 0.591 2.184-0.478 1.736-3.577-1.498-1.625-4.661 1.024-5.926 6.511-3.109 14.543-3.287 21.608-3.029 5.962 0.218 14.514-0.297 19.649 3.309 2.658 1.866 3.831 5.684-0.044 6.804"/><path id="path154" d="m469.83 98.533c1.595 3.7948 1.954 8.0358 1.588 12.208 2.95 0.256 7.263 0.262 8.765-2.845 0.983-2.034 0.106-4.405-1.597-5.748-1.87-1.473-4.285-1.518-6.494-0.936-1.121 0.296-1.599-1.4401-0.478-1.7358 4.925-1.2981 11.389 1.2948 10.744 7.3038-0.571 5.32-6.744 6.133-11.007 5.755-0.048-0.004-0.081-0.027-0.125-0.037-0.072 0.525-0.146 1.049-0.238 1.568 5.918 3.831 14.123-0.492 13.845-7.721-0.283-7.3829-9.14-12.771-15.003-7.8118zm4.736-6.7641c4.224-5.0039 1.194-7.641-2.104-9.266-3.365-1.659-7.32-2.5222-10.949-3.3961-7.67-1.8468-15.552-2.7601-23.44-2.75-6.944 0.009-14.618 0.2711-21.223 2.616-3.957 1.4051-7.26 3.7961-7.349 8.2571-0.098 4.9398 3.916 8.3058 7.905 10.571 5.252-8.2172 16.336-13.081 26.497-12.835 8.183 0.1988 17.645 2.352 23.123 8.9149 0.445 0.532 0.838 1.0882 1.206 1.655 0.096-0.1769 0.24-0.3347 0.466-0.4269 1.835-0.7461 4.507-1.7281 5.868-3.3399zm-57.847 21.228c0.027 0.072 0.063 0.137 0.073 0.222 0.007 0.054 0.022 0.104 0.03 0.158 0.074 0.277 0.139 0.553 0.226 0.834 0.026 0.083 0.019 0.155 0.023 0.231 2.552 8.028 19.38 6.704 25.869 6.843 7.884 0.169 19.256 0.782 25.686-4.543-0.002-0.083-0.011-0.162 0.011-0.254 1.346-5.441 1.807-11.561-0.276-16.845-0.665 0.005-1.267-0.8739-0.694-1.5282-0.362-0.7128-0.77-1.4089-1.243-2.0789-4.881-6.9117-14.554-9.0757-22.521-9.2699-14.393-0.3488-31.219 10.074-27.184 26.231zm53.885 2.963c-0.075 0.337-0.149 0.674-0.231 1.006-0.006 0.026-0.022 0.04-0.03 0.064 0.091 0.272 0.051 0.578-0.242 0.83-8.105 6.974-23.067 5.549-32.935 4.99-7.316-0.414-20.224 0.418-22.047-8.874-1.524-5.506-0.807-10.447 1.378-14.626-6.313-3.6969-12.853-11.712-6.367-18.427 6.708-6.9449 21.037-6.489 29.781-6.3531 6.203 0.0973 12.41 0.7781 18.491 2.0071 5.231 1.057 11.455 2.1421 16.086 4.9519 2.643 1.6043 4.38 4.1582 3.705 7.343-0.607 2.8672-2.656 4.7301-5.049 6.1051 6.032-1.1231 12.635 3.75 13.408 10.445 0.999 8.643-8.559 14.793-15.948 10.538"/><path id="path156" d="m428.15 129.33c-5.729-0.669-3.226 8.478-4.44 11.738-0.792 2.128-2.306 3.524-4.573 3.766-1.15 0.122-1.142-1.679 0-1.801 6.815-0.726-0.573-16.623 9.013-15.503 1.137 0.133 1.15 1.935 0 1.8"/><path id="path158" d="m444.13 142.11c-0.211 3.142-2.359 5.752-4.531 7.84-0.835 0.803-2.11-0.469-1.273-1.273 2.661-2.558 5.285-6.015 3.222-9.776-0.901-1.641-2.532-2.727-3.141-4.561-0.677-2.038-0.197-4.224 1.795-5.224 1.033-0.518 1.945 1.034 0.909 1.554-3.55 1.782 1.066 5.722 1.991 7.322 0.761 1.317 1.13 2.588 1.028 4.118"/><path id="path160" d="m462.94 149.15c-0.31 1.114-2.047 0.641-1.736-0.478 0.469-1.685 1.459-2.66 2.713-3.819 2.133-1.971 2.361-4.927-0.667-7.116-1.132-0.819-2.55-1.187-3.68-2.035-2.512-1.884-3.657-4.874-1.543-7.478 0.73-0.899 1.996 0.381 1.272 1.273-3.124 3.848 4.588 6.203 6.38 7.693 1.098 0.913 2.138 2.146 2.344 3.617 0.565 4.032-4.145 4.969-5.083 8.343"/><path id="path162" d="m590.62 502.93c-12.25-2.845-24.638-4.844-37.16-5.996-1.127 5.208-2.036 10.449-2.607 15.75-0.18 1.674-0.593 3.764-0.486 5.448 0.223 3.522 1.483 3.082 4.809 3.52l29.595 3.9c0.476 0.063 0.909 0.362 0.9 0.901-0.079 4.702-0.158 9.405-0.238 14.108 12.901-7.455 25.803-14.91 38.704-22.365-10.875-9.228-21.373-18.873-31.498-28.918 0.188 4.378-0.12 8.681-0.912 13.023-0.089 0.492-0.667 0.731-1.107 0.629zm35.515 16.191c-13.725 7.931-27.449 15.861-41.174 23.792-0.583 0.337-1.366-0.089-1.354-0.777 0.063-3.744 0.727-8.069 0.198-11.763-0.439-3.065-0.346-2.694-2.98-3.541-2.088-0.67-4.723-0.622-6.905-0.91-8.221-1.083-16.442-2.166-24.663-3.25-0.463-0.061-0.928-0.363-0.9-0.9 0.443-8.607 1.575-17.087 3.407-25.509 0.003-0.014 0.012-0.021 0.015-0.034-0.197-0.547 0.063-1.246 0.796-1.181 8.137 0.722 16.234 1.76 24.276 3.196 2.229 0.398 4.452 0.823 6.669 1.278 1.327 0.272 4.61 1.669 5.689 1.233 2.902-1.171 1.703-11.195 1.493-13.753-0.065-0.8 1.016-1.157 1.536-0.637 10.918 10.925 22.281 21.375 34.079 31.342 0.448 0.379 0.287 1.143-0.182 1.414"/><path id="path164" d="m502.46 235.02c-0.716-0.089-1.431-0.179-2.147-0.269-1.59-0.169-3.193-0.272-4.787-0.401-3.808-0.308-7.793-0.707-10.966 1.946-0.127 0.106-0.262 0.161-0.398 0.192-0.443 2.448 1.806 4.665 4.428 4.001 0.57-0.144 0.971 0.232 1.084 0.675 0.022-0.342 0.051-0.682 0.059-1.028 0-0.042 0.019-0.071 0.024-0.109-0.082-0.266-0.037-0.56 0.254-0.801 2.472-2.052 6.074-1.899 8.367 0.147 0.523-0.251 1.318-0.003 1.346 0.764 0.008 0.194 0.03 0.384 0.041 0.577 1.993 0.419 4.054-0.346 5.234-2.036 0.038-0.054 0.087-0.082 0.13-0.124 0.38-2.175-0.502-3.359-2.669-3.534zm-7.376-17.755c-1.117 4.975-2.233 9.95-3.35 14.925 1.823-0.09 3.691 0.024 5.505 0.229-0.719-5.051-1.437-10.103-2.155-15.154zm-6.903 35.13c3.989-0.817 8.087-0.855 12.145 0.062 0.274 0.062 0.634 0.138 1.035 0.228-1.865-3.407-2.984-7.096-3.335-10.991-0.017-0.023-0.039-0.033-0.054-0.058-1.328-2.142-4.404-2.761-6.451-1.291-0.129 4.291-1.246 8.355-3.34 12.05zm-3.869 2.939c0.019 0.065 0.049 0.121 0.055 0.195 0.168 2.1 8.504 2.076 9.804 2.131 1.375 0.06 9.761 0.9 8.686-2.518-0.005-0.007-0.012-0.009-0.017-0.016-0.077-0.112-0.142-0.23-0.218-0.343-1.306-1.105-7.897-1.246-8.694-1.241-3.345 0.023-6.502 0.676-9.616 1.792zm21.43-14.03c-0.324 0.193-0.632 0.146-0.874-0.008-1.411 1.026-3.149 1.49-4.933 1.266 0.494 3.883 1.815 7.503 3.938 10.844 1.859 0.691 3.473 1.816 2.659 3.737-1.589 3.751-11.247 2.43-13.987 2.228-2.938-0.218-9.661 0.13-9.979-3.837-0.01-0.122 0.012-0.224 0.04-0.32-0.218-0.453-0.12-1.111 0.492-1.345 0.856-0.327 1.722-0.605 2.594-0.858 2.276-3.453 3.6-7.212 3.949-11.275-0.087 0.225-0.265 0.416-0.574 0.494-4.573 1.158-8.193-3.443-6.134-7.637 0.28-0.571 0.868-0.543 1.263-0.239 1.676-1.112 3.643-1.712 5.723-1.991-0.014-0.103-0.02-0.211 0.007-0.33 1.495-6.658 2.989-13.317 4.484-19.976 0.184-0.821 1.608-0.894 1.736 0 0.976 6.868 1.952 13.736 2.929 20.604 1.138 0.166 2.237 0.354 3.266 0.536 3.724 0.659 8.107 5.312 3.401 8.107"/><path id="path166" d="m264.64 695.66c0.068 0.205 0.128 0.41 0.191 0.616 0.143-0.044 0.294-0.047 0.443-0.026-0.001-0.163-0.002-0.326-0.003-0.485-0.209-0.055-0.42-0.072-0.631-0.105zm0.527-3.412c-0.232-3.574-0.978-7.004-2.038-10.403-0.079 0.066-0.164 0.128-0.275 0.169-1.157 0.427-1.641 1.781-1.251 2.891 0.12 0.341 0.022 0.611-0.165 0.802 0.017 0.794-1.173 1.328-1.673 0.478-0.234-0.398-0.515-0.719-0.823-0.98-0.309 0.046-0.627-0.069-0.809-0.445-0.011-0.024-0.023-0.048-0.035-0.073-2.311-1.007-5.374 0.704-4.831 3.799 0.193 1.102-1.432 1.58-1.706 0.555-0.12-0.076-0.23-0.18-0.305-0.353-0.015-0.034-0.03-0.068-0.045-0.102-1.656-1.246-3.965-0.257-4.139 1.882 2.483 2.206 5.011 4.356 7.625 6.407 0.324 0.255 0.891 0.756 1.588 1.367 1.68-3.224 5.339-5.059 8.95-4.335-0.022-0.767-0.049-1.364-0.068-1.659zm-12.27-8.911c0.036 0.22 0.073 0.44 0.109 0.661 0.221-0.229 0.471-0.431 0.737-0.617-0.13-0.076-0.249-0.171-0.359-0.277-0.1 0.019-0.196 0.024-0.284 0.013-0.056 0.082-0.122 0.157-0.203 0.22zm-3.546-32.69c-1.876-4.269-4.656-13.436-8.822-19.71-1.804 0.744-3.615 1.471-5.43 2.187 8.122 16.756 16.244 33.512 24.366 50.268 0.082 0.053 0.167 0.1 0.246 0.157 0.218-1.449 1.23-2.741 2.664-3.27-4.341-9.878-8.683-19.755-13.024-29.632zm-22.571-24.747c-3.977 2.399-4.783 6.195-4.313 10.125 5.709-2.085 11.374-4.28 16.996-6.589-3.336-4.352-7.491-6.668-12.683-3.536zm5.072 9.115c-0.054-0.188-0.107-0.378-0.158-0.567-0.614 0.239-1.228 0.48-1.843 0.715l0.729 1.671c-0.066-0.307-0.14-0.61-0.199-0.922-0.165-0.881 0.775-1.456 1.471-0.897zm6.66 19.996c0.476 1.092 0.952 2.184 1.429 3.276 0.073-0.14 0.179-0.251 0.301-0.341-0.594-0.969-1.171-1.947-1.73-2.935zm2.509-4.927c2.268 4.37 4.452 8.781 6.559 13.231 0.035-0.034 0.073-0.065 0.113-0.094-3.124-6.445-6.248-12.89-9.372-19.335-0.089 0.043-0.183 0.071-0.28 0.084 0.993 2.038 1.987 4.076 2.98 6.114zm-16.165-5.605c2.078 5.338 4.317 10.613 6.679 15.83 4.34 9.586 9.167 18.937 14.37 28.081 0.902-1.497 2.618-2.291 4.317-2.07-7.33-16.801-14.662-33.601-21.992-50.402-0.02-0.046-0.017-0.089-0.03-0.134-1.809 0.685-3.615 1.381-5.433 2.044 0.482 2.322 1.301 4.626 2.089 6.651zm34.699 56.526c-0.236-0.347-0.446-0.716-0.631-1.104-0.503-0.053-0.987-0.571-0.845-1.182-0.142 0.239-0.286 0.476-0.396 0.738 0.596 0.51 1.233 1.042 1.872 1.548zm5.902 4.273c-2.097 1.535-5.45-2.221-7.007-3.345-0.696-0.503-1.378-1.022-2.065-1.537-0.229-0.062-0.426-0.204-0.539-0.401-3.573-2.702-7.026-5.554-10.372-8.537-0.249-0.221-0.308-0.481-0.264-0.725-0.053-0.055-0.111-0.1-0.155-0.176-7.021-12.228-13.321-24.847-18.787-37.848-3.438-8.177-10.875-22.07-0.396-28.363 3.446-2.07 7.826-2.011 11.274 0.005 4.856 2.839 6.591 9.079 8.715 13.91 6.135 13.959 12.27 27.917 18.405 41.875 0.159 0.101 0.298 0.245 0.371 0.47 1.586 4.857 2.481 9.851 2.415 14.974-0.025 1.944 0.231 8.362-1.595 9.698"/><path id="path168" d="m156.31 224.17c-1.372-0.495-4.47-0.17-5.933-0.216-2.637-0.084-5.275-0.15-7.913-0.2-4.617-0.087-9.235-0.121-13.853-0.103-4.618 0.017-9.235 0.087-13.851 0.209-5.461 0.144-13.365-1.271-14.133 6.094-1.021 9.784-0.515 19.945 0.304 29.718 0.042 0.499-0.275 0.767-0.651 0.834 0.378 7.108 11.534 5.976 16.726 6.127 4.967 0.146 9.936 0.231 14.906 0.259s9.939-0.003 14.908-0.093c2.665-0.048 6.424 0.439 8.947-0.417 5.723-1.941 4.579-7.863 3.759-12.074-0.12-0.613 0.334-1.024 0.811-1.102-0.12-4.383-0.244-8.766-0.378-13.148-0.128-4.173 1.417-14.059-3.649-15.888zm-24.555 74.42c11.851-2.908 11.127-20.505 12.193-29.937 0.001-0.006 0.004-0.01 0.005-0.017-3.974 0.052-7.98 0.078-11.924 0.056-3.99-0.022-8.183 0.11-12.372 0.108 0.03 0.099 0.049 0.206 0.037 0.333-0.728 7.834-1.808 32.86 12.061 29.457zm-19.872-3.317c2.52 7.645 10.574 13.184 18.674 12.918 19.673-0.647 20.94-24.791 20.94-39.537v-0.004c-2-0.02-3.063-0.071-4.171-0.051-0.433 0.008-1.011 0.009-1.446 0.016-0.001 0.014-0.063 0.023-0.064 0.038-1.167 10.324-0.766 30.405-15.057 31.948-14.646 1.58-13.65-22.83-12.848-31.468 0.013-0.131 0.044-0.244 0.095-0.345-2.227-0.024-4.451-0.091-6.63-0.258 0.075 0.129 0.095 0.28 0.078 0.477-0.72 8.217-2.203 18.283 0.429 26.266zm49.729-59.941c0.2 6.302 0.383 12.604 0.555 18.907 0.013 0.493-0.307 0.763-0.68 0.837 0.775 4.556 0.975 10.104-3.738 12.499-1.549 0.787-3.495 1.022-5.466 1.072 0 0.003 0.002 0.005 0.002 0.007 0.854 15.846-1.404 40.703-22.234 41.337-7.289 0.222-14.347-3.869-18.049-10.122-5.181-8.753-3.22-21.268-2.379-30.862 0.022-0.26 0.14-0.454 0.295-0.596-1.344-0.131-2.678-0.288-3.985-0.511-5.137-0.876-8.2208-4.555-7.252-9.852 0.0422-0.231 0.157-0.38 0.2961-0.486-0.4387-5.891-0.6594-11.791-0.568-17.701 0.0637-4.087-0.7922-10.63 1.3871-14.361 1.7078-2.924 4.9748-3.08 8.0408-3.218 6.587-0.296 13.191-0.39 19.784-0.426 6.267-0.034 12.535 0.026 18.8 0.185 3.271 0.083 6.634 0.005 9.889 0.329 1.217 0.122 2.603 0.175 3.587 1.045 2.735 2.418 1.617 8.827 1.715 11.917"/><path id="path170" d="m127.16 231.92c-0.108 0.829 0.629 2.292 0.789 3.108 0.153 0.777 0.275 1.564 0.368 2.351 0.254 2.137 0.251 4.258 0.083 6.403-0.029 0.366-0.239 0.603-0.499 0.737 0.172 0.378 0.132 0.859-0.316 1.146-5.451 3.493-1.297 10.538 4.002 11.028 2.415 0.224 4.978-0.49 6.826-2.093 2.737-2.374 3.416-7.308-0.68-8.824-0.47-0.174-0.633-0.602-0.591-0.997-0.161-0.19-0.24-0.446-0.131-0.764 1.462-4.273 2.301-8.621 2.525-13.119-1.956-0.095-3.912-0.19-5.869-0.285-1.919-0.093-6.162-1.342-6.507 1.309zm14.883 20.656c-1.434 3.784-5.696 5.966-9.587 5.955-3.56-0.009-7.293-1.824-8.616-5.288-1.283-3.357-0.222-7.145 2.804-9.108-0.035-0.103-0.055-0.218-0.044-0.353 0.26-3.317 0.078-6.603-0.743-9.839-0.357-1.403-1.305-3.336-0.188-4.643 1.05-1.228 3.212-0.722 4.592-0.655 3.406 0.166 6.812 0.332 10.218 0.497 0.474 0.023 0.917 0.394 0.9 0.9-0.157 4.894-1.003 9.617-2.569 14.254 3.048 1.474 4.475 5.005 3.233 8.28"/><path id="path172" d="m317.56 624.55c-2.558-3.452-7.553-3.17-11.346-3.485-5.868-0.488-11.736-0.975-17.604-1.462-0.131-0.011-0.242-0.05-0.343-0.099 0.007 0.239 0.009 0.479 0.018 0.719 0.04 1.158-1.76 1.157-1.8 0-0.131-3.774-0.187-7.547-0.188-11.323-5.997 1.905-10.868 5.961-13.864 11.552 0.483 0.535 0.294 1.583-0.597 1.497-1.166-0.112-2.462-0.361-3.611-0.043-2.16 0.598-3.668 3.589-4.128 5.778-0.545 2.595-0.262 5.723-0.357 8.39-0.11 3.108-0.197 6.217-0.26 9.326-0.051 2.524-0.853 6.658 0.683 8.668 1.785 2.334 6.351 1.894 9.307 2.165 2.874 0.263 5.753 0.476 8.634 0.645 6.083 0.357 12.177 0.507 18.27 0.446 5.67-0.057 15.471 1.257 17.23-5.977 1.337-5.497 0.69-12.077 0.882-17.711 0.087-2.568 0.693-6.9-0.926-9.086zm2.796 7.128c-0.088 5.213-0.295 10.454-0.56 15.661-0.125 2.445-0.194 5.126-1.501 7.287-3.154 5.214-10.85 4.383-15.997 4.472-9.619 0.165-19.248-0.19-28.828-1.065-4.6-0.42-11.267 0.564-11.895-5.17-0.459-4.199 0.12-8.85 0.244-13.059 0.137-4.645-0.208-9.758 0.618-14.335 0.831-4.613 4.197-5.612 8.315-5.398-0.009-0.152 0.009-0.31 0.098-0.476 3.39-6.362 9.137-10.908 16.101-12.763 0.562-0.15 1.141 0.279 1.139 0.868-0.012 3.386 0.043 6.769 0.135 10.153 0.11-0.043 0.237-0.063 0.385-0.05l14.825 1.231c3.489 0.29 7.356 0.147 10.768 1.067 5.564 1.501 6.237 6.572 6.153 11.577"/><path id="path174" d="m307.9 632.51c-11.775-0.509-23.55-1.017-35.325-1.526-1.154-0.05-1.16-1.85 0-1.8 11.775 0.509 23.55 1.017 35.325 1.526 1.154 0.05 1.161 1.85 0 1.8"/><path id="path176" d="m305.89 641.83c-11.07-1.375-22.175-1.819-33.32-1.333-1.158 0.05-1.156-1.75 0-1.8 11.146-0.486 22.25-0.042 33.32 1.333 1.135 0.141 1.149 1.943 0 1.8"/><path id="path178" d="m307.87 652.7c-12.189-1.268-24.4-2.279-36.632-3.032-1.151-0.071-1.159-1.872 0-1.8 12.232 0.753 24.443 1.764 36.632 3.032 1.141 0.118 1.153 1.92 0 1.8"/><path id="path180" d="m324.37 246.96c-0.269-2.241-1.262-5.552-3.322-6.893-1.073-0.698-3.628-0.943-4.816-1.204-7.098-1.556-14.306-2.247-21.563-2.295-0.006 0.093-0.012 0.186-0.017 0.279-0.071 1.151-1.871 1.159-1.8 0 0.229-3.745 0.458-7.613 0.688-11.358-5.827 1.794-10.559 5.011-13.436 11.011h0.001c1.142 0 0.657 2.022-0.478 1.859-3.614-0.518-7.225-0.99-10.841-1.493-1.386-0.203-2.775-0.356-4.167-0.521-1.241 1.301-2.482 2.618-3.723 3.92-0.446 1.191-0.049 3.9-0.054 5.104-0.028 6.414-0.055 12.832-0.083 19.245-0.018 4.284-1.048 9.941 3.63 12.203 3.085 1.492 7.991 1.086 11.393 1.321 6.697 0.461 13.403 0.79 20.113 0.99 6.579 0.195 13.582 0.866 20.137 0.207 6.742-0.678 7.318-5.627 7.725-10.837 0.279-3.582 0.47-7.17 0.572-10.761 0.1-3.501 0.459-7.293 0.041-10.777zm1.187 21.538c-0.319 4.065 0.263 10.43-4.394 12.241-2.863 1.113-6.921 0.417-9.926 0.417-4.156 0-8.312-0.05-12.466-0.149-8.309-0.2-16.613-0.602-24.903-1.204-4.39-0.318-11.75 0.26-14.13-4.49-0.912-1.82-0.799-3.902-0.8-5.884-0.002-4.49 0.039-8.98 0.058-13.469 0.02-4.49 0.001-8.981 0.058-13.47 0.026-2.013-0.115-4.663 1.328-6.307 1.513-1.723 3.555-1.661 5.686-1.447 4.067 0.409 8.133 1.113 12.184 1.731 0.016-0.05 0.015-0.098 0.041-0.149 3.233-6.426 9.006-11.03 15.981-12.779 0.536-0.135 1.176 0.267 1.139 0.867-0.211 3.455-0.423 6.91-0.634 10.364 7.377 0.055 14.718 0.781 21.931 2.358 4.32 0.944 8.594 1.612 9.335 6.557 1.184 7.899 0.134 16.877-0.488 24.813"/><path id="path182" d="m277.9 255.84c-0.386 0.687-0.925 1.293-1.43 1.891-0.466 0.548-0.955 1.074-1.467 1.578-2.679 1.974-2.581 4.425 0.295 7.353 1.126-0.266 1.607 1.469 0.478 1.736-3.26 0.771-5.75-1.841-5.24-5.128 0.407-2.631 2.568-4.381 4.19-6.273 3.684-4.3 3.046-10.271-2.397-12.727-1.055-0.475-0.141-2.027 0.908-1.554 3.26 1.471 5.499 4.461 5.76 8.096 0.126 1.757-0.235 3.492-1.097 5.028"/><path id="path184" d="m294.86 268.35c-0.097 0.815-1.205 1.314-1.677 0.454l-3.4-6.203c-1.393 1.698-2.878 3.263-4.554 4.736-0.545 0.479-1.582 0.193-1.537-0.637 0.402-7.306 1.003-14.592 1.805-21.866 0.125-1.139 1.927-1.151 1.8 0-0.722 6.545-1.272 13.1-1.669 19.671 1.259-1.232 2.421-2.525 3.524-3.963 0.387-0.505 1.197-0.652 1.555 0 0.899 1.641 1.798 3.281 2.698 4.922 0.846-7.098 1.693-14.196 2.54-21.294 0.136-1.136 1.937-1.149 1.8 0-0.962 8.06-1.923 16.12-2.885 24.18"/><path id="path186" d="m312.13 248.36c-0.269 1.977-1.394 3.585-2.609 5.109-3.561 4.465-7.383 10.703 0.18 14.134 1.053 0.478 0.139 2.03-0.909 1.555-3.347-1.519-5.629-4.673-5.435-8.454 0.103-2.013 0.981-3.61 2.132-5.242 0.693-0.981 1.582-1.808 2.331-2.743 1.369-1.709 5.862-8.12-0.497-8.629-1.147-0.092-1.157-1.893 0-1.8 3.248 0.26 5.257 2.773 4.807 6.07"/><path id="path188" d="m413.88 196.16c-0.288-0.033-0.503-0.175-0.646-0.364-16.126 0.769-32.174-0.81-48.248-1.912-7.979-0.547-15.978-0.966-23.979-0.846-3.533 0.053-7.939-0.325-11.069 1.584-3.067 1.869-3.847 5.676-2.286 8.771 1.69 3.35 5.43 4.526 8.897 4.694 0.54 0.027 0.818 0.436 0.854 0.857 0.481 0.082 0.885 0.476 0.664 1.06-5.162 13.641-4.113 30.614 9.212 39.178 12.325 7.922 28.294 1.204 31.044-13.23 0.092-0.482 0.456-0.659 0.829-0.634 0.124-0.64 0.927-1.13 1.488-0.511 5.162 5.698 13.876 8.036 20.948 4.394 6.751-3.476 10.166-11.123 9.072-18.45-0.421-0.341-0.487-1.005-0.171-1.361 0.14-0.857 1.489-1.129 1.725-0.163 5.523 0.107 11.023-3.387 12.33-9.029 1.577-6.814-4.079-13.276-10.664-14.038zm12.663 12.949c-0.707 7.041-7.279 11.958-14.035 11.927 0.917 7.863-2.765 15.979-10.011 19.72-7.489 3.866-16.723 1.784-22.502-4.037-2.878 14.124-18.063 21.759-31.103 15.422-15.991-7.772-18.288-27.101-12.68-42.283-5.926-0.422-12.073-4.37-11.084-11.103 1.157-7.873 10.881-7.471 16.838-7.526 24.023-0.221 47.872 3.981 71.915 2.739 0.432-0.022 0.703 0.216 0.811 0.525 6.866 1.199 12.582 7.322 11.851 14.616"/><path id="path190" d="m378.2 205.09c-1.813-0.632-2.994 0.735-4.444 1.631-4.669 2.883-9.579 5.297-14.639 7.393 1.969 0.511 3.924 0.657 6.11 0.45 0.837-0.079 1.054 0.843 0.677 1.398 0.46 0.099 0.851 0.497 0.675 1.078-1.18 3.901-2.36 7.801-3.54 11.702 6.132 0.515 12.264 1.029 18.397 1.544-1.338-4.031-2.239-8.124-2.773-12.338-0.026 0.002-0.052 0.004-0.077 0.006-1.155 0.089-1.15-1.711 0-1.8 0.075-0.006 0.151-0.012 0.227-0.018 0.249-0.17 0.598-0.195 0.906-0.069 2.825-0.219 5.65-0.437 8.475-0.655-2.072-2.14-4.144-4.28-6.216-6.42-0.693-0.717-2.849-3.579-3.778-3.902zm11.97 11.969c-3.24 0.25-6.481 0.501-9.722 0.751 0.573 4.535 1.614 8.927 3.146 13.245 0.185 0.523-0.309 1.186-0.868 1.139-6.957-0.584-13.913-1.167-20.87-1.751-0.561-0.047-1.049-0.539-0.868-1.139l3.856-12.743c0.021-0.071 0.063-0.118 0.095-0.177-3.1 0.257-5.686-0.122-8.642-1.302-0.844-0.338-0.856-1.402 0-1.736 7.367-2.878 14.282-6.536 20.826-10.97 0.323-0.219 0.827-0.132 1.091 0.14 4.197 4.336 8.395 8.671 12.593 13.007 0.571 0.59 0.126 1.477-0.637 1.536"/><path id="path192" d="m382.07 103.96c-0.733 11.141-1.465 22.283-2.198 33.425-0.345 5.243-0.689 10.486-1.034 15.729-0.311 4.73 0.169 10.318-1.167 14.893-2.332 7.983-15.284 5.188-21.337 4.981-12.123-0.414-24.188-1.65-36.163-3.564-1.141-0.183-0.657-1.918 0.478-1.736 8.922 1.426 17.893 2.476 26.909 3.065 4.222 0.276 8.45 0.455 12.679 0.541 2.277 0.046 4.556 0.072 6.834 0.058 3.613-0.024 8.012-1.36 9.028-5.132 1.072-3.982 0.67-9.01 0.939-13.106 0.28-4.26 0.56-8.52 0.84-12.78 0.582-8.848 1.164-17.695 1.746-26.543 0.542-8.247 1.555-16.604 1.616-24.868 0.049-6.645-5.355-7.709-10.647-8.552-5.012-0.7988-10.054-1.3969-15.113-1.7988-4.176-0.3332-8.362-0.534-12.55-0.6-4.063-0.0633-10.658-1.0563-13.961 1.4308-3.622 2.727-2.843 9.004-3.048 13.195-0.227 4.6511-0.455 9.302-0.682 13.952-0.974 19.933-1.949 39.865-2.923 59.797-0.057 1.153-1.857 1.16-1.8 0 1.104-22.59 2.208-45.18 3.313-67.769 0.238-4.8621 0.085-9.9339 0.836-14.747 0.384-2.4571 1.207-5.0282 3.439-6.416 2.995-1.8633 7.633-1.25 10.96-1.2653 5.477-0.0238 10.956 0.1871 16.416 0.6223 4.577 0.3637 9.14 0.8898 13.681 1.568 3.504 0.5238 8.705 0.516 11.526 3.025 1.971 1.7527 2.333 4.4168 2.357 6.9097 0.05 5.202-0.633 10.495-0.974 15.685"/><path id="path194" d="m352.99 167.75c-3.628-1.077-7.308-1.769-11.082-2.058-1.148-0.088-1.158-1.889 0-1.8 3.933 0.301 7.777 0.999 11.56 2.122 1.108 0.329 0.637 2.067-0.478 1.736"/><path id="path196" d="m356.42 85.786c-0.991-0.975-2.636-1.232-3.818-0.4179-1.127 0.7761-1.11 2.7371 0.199 3.1281 0.33-0.1461 0.712-0.1012 0.966 0.2359 0.169 0.1141 0.286 0.275 0.34 0.4649 0.63 0.6801 1.783 0.6742 2.553 0.116 1.224-0.8867 0.667-2.6359-0.24-3.527zm1.567 4.7661c-1.501 1.3128-4.012 1.2882-5.284-0.2321-2.229-0.4097-3.517-3.15-2.319-5.1797 1.374-2.3293 4.755-2.623 6.796-1.0691 1.953 1.4871 2.875 4.6738 0.807 6.4809"/><path id="path198" d="m375.75 104.89c-2.438 18.592-4.13 37.262-5.075 55.989-0.058 1.153-1.858 1.16-1.8 0 0.94-18.633 2.621-37.208 5.04-55.707-13.702-1.632-27.206-4.327-40.477-8.103l-3.204 49.45c-0.178 2.756-1.855 9.035 0.25 10.928 0.931 0.838 5.331 0.574 6.66 0.717 2.22 0.239 4.44 0.478 6.66 0.717 8.246 0.888 16.491 1.776 24.737 2.664 1.14 0.123 1.152 1.924 0 1.8l-39.96-4.303c-0.459-0.049-0.934-0.372-0.9-0.9 1.339-20.663 2.678-41.327 4.016-61.991 0.01-0.1481 0.05-0.275 0.109-0.386 0.086-0.473 0.488-0.889 1.084-0.716 13.674 3.9508 27.597 6.7679 41.737 8.4129 0.449 0.052 0.716 0.366 0.812 0.717 0.213 0.135 0.357 0.363 0.311 0.711"/><path id="path200" d="m463.22 694.12c-2.814 0.814-5.235 2.774-7.462 4.577-0.892 0.723-2.173-0.543-1.272-1.273 0.286-0.232 0.582-0.467 0.885-0.703 0.881-3.018 0.102-6.75-2.814-8.407-2.538-1.443-6.047-0.295-7.378 2.191-0.031 0.625-0.159 1.021-0.425 1.671-0.199 0.487-0.674 0.325-1.088 0.325h-0.006c-0.04 0-0.08 0.238-0.119 0.226-0.398-0.048-0.738-0.195-0.679-0.715 0.071-0.635 0.239-1.173 0.472-1.739 0.016-1.257-0.497-2.466-1.516-3.325-2.246-1.895-5.396-1.077-7.555 0.468-2.902 2.077-4.32 5.52-5.643 8.711-0.158 0.38-0.485 0.561-0.819 0.59-0.015 0.375-0.028 0.753-0.044 1.128 0.391-0.256 0.971-0.268 1.31 0.228 2.968 4.348 6.049 8.625 10.952 10.931 4.997 2.35 10.757 2.547 16.055 1.215 4.555-1.146 10.653-3.718 13.945-7.28 5.136-5.555-1.82-10.26-6.799-8.819zm-37.422-16.475c-0.2-0.884-0.438-1.735-0.733-2.54-8.599 9.943-16.859 20.163-24.754 30.676 2.023 1.926 4.067 3.83 6.155 5.686 2.931 2.606 5.923 5.141 8.977 7.602 1.592 1.282 3.673 2.357 4.845 3.993 5.239-2.186 4.98-8.393 5.192-13.876l0.66-17.078c0.184-4.749 0.715-9.777-0.342-14.463zm-7.264-8.376c-2.499-0.499-5.735 0.04-8.283 0.067-11.234 0.12-22.468 0.24-33.703 0.359-6.278 0.067-12.556 0.134-18.834 0.201-3.051 0.032-6.166-0.121-9.208 0.122-1.716 0.137-2.904 0.795-3.734 1.762l25.159 33.353c0.042 0.056 0.052 0.111 0.078 0.166 1.912-1.047 3.812-2.115 5.693-3.216 3.87-2.264 9.749-8.16 14.606-5.876 2.912 1.369 5.307 5.031 7.557 7.235 0.378 0.37 0.767 0.729 1.147 1.097 7.641-10.162 15.618-20.055 23.911-29.69-0.666-0.242-1.004-1.22-0.204-1.585l1.171-0.534c-1.122-1.688-2.777-2.945-5.356-3.461zm-75.688 11.507l-0.237 37.426c0 0.08-0.027 0.14-0.043 0.209 0.565-0.404 1.191-0.734 1.736-1.008 3.266-1.647 6.822-2.808 10.161-4.323 4.747-2.156 9.413-4.487 14.005-6.957-0.03-0.03-0.065-0.046-0.092-0.081l-24.594-32.606c-0.904 2.178-0.922 5.008-0.936 7.34zm3.149 41.517c1.426 0.543 4.287 0.4 5.809 0.529 10.977 0.934 21.987 1.476 33.002 1.638 10.739 0.157 21.846 0.492 32.539-0.668 0.273-0.03 0.513-0.085 0.768-0.128-5.22-4.481-20.045-17.503-21.521-18.949-1.567-1.537-3.246-4.012-5.094-5.143-5.072-3.104-8.026-0.061-11.725 2.181-4.722 2.862-9.544 5.561-14.458 8.078-4.368 2.238-8.806 4.34-13.308 6.297-1.754 0.764-3.575 1.418-5.304 2.233-3.383 1.595-4.426 2.515-0.708 3.932zm122.78-16.16c-6.403 4.518-14.19 7.435-22.108 6.545-8.82-0.992-14.189-6.486-18.969-13.431-0.142 3.314-0.29 6.627-0.418 9.939-0.167 4.329 0.295 10.124-2.913 13.581-0.93 1.002-2.052 1.662-3.277 2.104 0.016 0.078 0.037 0.153 0.049 0.234 0.064 0.426-0.049 0.771-0.413 1.017-0.93 0.627-1.733 0.432-2.459-0.419-0.038-0.045-0.068-0.101-0.1-0.155-2.065 0.274-4.222 0.236-6.149 0.32-7.769 0.337-15.547 0.481-23.323 0.432-7.129-0.044-14.256-0.251-21.375-0.619-7.403-0.382-16.023-0.031-23.259-1.781-2.081-0.503-3.776-1.28-2.987-3.689 0.143-0.438 0.412-0.817 0.741-1.158-0.485 0.053-1.01-0.222-1.006-0.851 0.049-7.677 0.097-15.354 0.146-23.031 0.007-1.081-0.016-2.19-0.048-3.308-0.265-0.008-0.527-0.119-0.708-0.405-3.093-4.884-10.474-1.702-9.039 3.915 0.102 0.4-0.058 0.712-0.312 0.905 0.508 0.846-0.636 1.924-1.367 1.113-2.101-2.33-3.414-5.279-5.574-7.54-1.234-1.292-2.761-2.416-4.576-2.616-2.285-0.253-5.59 2.437-3.373 4.858 0.781 0.853-0.489 2.13-1.273 1.273-0.623-0.68-0.965-1.457-1.083-2.252-0.153-0.032-0.305-0.095-0.443-0.237-0.738-0.76-1.462-1.598-2.293-2.26-1.143-0.683-2.286-1.367-3.429-2.05-1.957 0.944-3.914 1.889-5.871 2.833-1.542 2.592 1.154 7.387 2.26 9.771 2.02 4.357 4.52 8.727 8.238 11.86 10.531 8.874 20.255 1.234 27.236-7.469 0.725-0.904 1.991 0.377 1.273 1.273-4.358 5.432-9.567 11.562-17.034 12.105-7.596 0.552-13.984-4.672-17.924-10.693-2.97-4.539-8.338-13.107-5.227-18.677 3.332-5.965 9.82-2.007 13.417 1.415 0.571-1.718 2.071-3.188 3.992-3.544 5.52-1.023 8.552 4.66 11.425 8.712-0.04-2.708 1.384-5.364 3.985-6.491 2.672-1.157 5.682-0.283 7.617 1.718-0.199-5.127-0.473-10.437 0.336-15.247 0.192-1.14 0.529-2.071 0.996-2.852-0.146-0.193-0.291-0.387-0.437-0.58-0.698-0.925 0.864-1.823 1.554-0.908 0.024 0.031 0.047 0.062 0.071 0.093 0.961-0.795 2.224-1.301 3.869-1.553 7.187-1.097 15.143-0.287 22.396-0.364 15.2-0.162 30.399-0.378 45.599-0.486 4.239-0.03 7.414 0.118 9.953 3.834 0.152 0.221 0.29 0.448 0.427 0.676 0.835-0.191 1.523 0.734 0.881 1.471-0.025 0.028-0.048 0.057-0.073 0.085 1.817 4.064 1.849 8.859 1.746 13.204-0.052 2.161-0.124 4.322-0.204 6.482 1.988-4.311 4.793-8.623 9.908-9.134 3.004-0.299 5.876 1.482 6.926 4.038 1.818-1.887 4.643-2.794 7.329-1.98 3.853 1.169 5.66 5.252 5.376 9.03 4.325-2.931 9.66-5.073 14.075-1.121 4.876 4.364 1.506 9.044-2.777 12.065"/><path id="path202" d="m258.93 161.2c1.566 7.901 9.723 13.289 17.317 9.213 6.625-3.555 10.039-13.949 5.805-20.473-3.097-4.772-9.147-6.245-14.593-6.199-5.458 3.928-9.92 10.438-8.529 17.459zm28.839-47.039c-0.305 6.751-2.317 13.5-6.329 18.988-2.83 3.873-6.486 6.939-10.581 8.993 5.97 0.707 11.884 3.44 13.977 9.4 2.773 7.893-1.419 18.058-9.265 21.165-7.843 3.105-15.788-1.991-18.061-9.736-2.037-6.942 1.18-13.667 6.145-18.396-4.901 0.938-10.068 0.535-15.002-1.535-9.962-4.178-22.682-16.495-20.081-28.331 0.248-1.131 1.984-0.652 1.736 0.479-2.653 12.071 12.438 24.966 22.982 27.511 3.802 0.918 7.59 0.831 11.162-0.049 0.115-0.312 0.377-0.574 0.794-0.609 0.501-0.041 1.013-0.067 1.531-0.082 0.066-0.023 0.132-0.05 0.199-0.074 0.078-0.053 0.153-0.112 0.231-0.165 0.193-0.13 0.378-0.153 0.552-0.131 6.64-2.648 12.22-8.067 15.24-14.767 2.5-5.546 3.37-11.68 2.875-17.731-0.142-1.734-0.163-4.41-1.425-5.868-1.401-1.62-2.658-0.614-4.61-0.132-3.224 0.797-6.448 1.593-9.673 2.389-12.897 3.185-25.794 6.371-38.692 9.556-1.124 0.278-1.604-1.458-0.478-1.736 9.673-2.389 19.346-4.778 29.019-7.167 4.514-1.115 9.028-2.229 13.542-3.344 2.933-0.725 7.75-3.036 10.807-2.559 4.308 0.673 3.539 10.954 3.405 13.931"/><path id="path204" d="m296.89 202.61c-0.773 3.515-4.031 5.714-7.527 5.819-4.071 0.123-7.248-2.476-9.511-5.591-1.429 2.751-3.385 5.493-6.69 5.816-2.86 0.278-5.6-1.491-7.01-3.905-4.597-7.872 4.16-14.959 9.878-18.761 0.967-0.644 1.87 0.915 0.909 1.554-4.189 2.785-9.266 6.138-9.943 11.585-0.496 3.985 2.122 8.414 6.782 7.595 2.657-0.467 4.246-4.145 5.258-6.286 0.441-0.933 1.712-0.308 1.637 0.576 0.105 0.066 0.203 0.156 0.285 0.278 2.114 3.136 5.357 5.939 9.407 5.16 5.866-1.13 5.693-7.665 2.537-11.414-3.64-4.325-9.83-6.841-15.107-8.338-1.112-0.315-0.639-2.053 0.479-1.736 7.322 2.078 20.781 7.805 18.616 17.648"/><path id="path206" d="m220.21 176.75c-0.479 1.053-2.03 0.139-1.555-0.909 1.505-3.315 2.721-6.714 3.543-10.264 0.813-3.513 2.63-11.318-4.471-8.49-2.776 1.105-5.601 3.86-8.075 5.566-2.936 2.023-5.872 4.047-8.809 6.071-0.016 0.011-0.032 0.011-0.048 0.021 0.086 0.696-0.848 1.383-1.536 0.766-3.108-2.787-6.455-5.242-10.143-7.204-3.08-1.64-7.32-4.134-10.861-4.212-6.993-0.152-1.428 10.18-0.149 13.087 1.707 3.881 3.726 7.591 5.938 11.206 0.272 0.445 0.099 0.862-0.219 1.109 0.273 0.394 0.277 0.948-0.276 1.214-3.33 1.599-6.609 3.284-9.811 5.127-1.599 0.92-3.18 1.873-4.741 2.858-2.157 1.361-5.845 2.565-5.329 5.474-0.42 1.647 0.24 2.353 1.98 2.118 0.923 0.197 1.849 0.379 2.778 0.546 2.129 0.394 4.263 0.72 6.41 0.993 4.34 0.554 8.68 0.835 13.054 0.934 0.214 0.005 0.376 0.083 0.511 0.188 0.457-0.35 1.241-0.299 1.435 0.423 0.822 3.057 1.749 6.075 2.868 9.037 0.717 1.9 1.5 3.774 2.349 5.618 1.418 3.081 1.363 4.119 4.948 4.771 2.194 1.289 3.642 0.755 4.344-1.602 0.407-0.73 0.795-1.47 1.163-2.22 0.966-1.923 1.828-3.891 2.587-5.905 1.283-3.403 2.214-6.882 2.94-10.442 0.027-0.128 0.077-0.229 0.136-0.317-0.267-0.561-0.031-1.343 0.744-1.262 4.143 0.434 25.923 3.443 23.848-4.57-0.296-1.142-2.637-3.511-3.355-4.456-1.453-1.913-2.917-3.818-4.392-5.714-2.544-3.271-5.126-6.513-7.728-9.738-0.027 0.059-0.052 0.119-0.078 0.178zm11.494 11.411c1.896 2.467 7.583 7.57 6.773 11.078-0.762 3.302-6.297 3.709-8.809 4.053-5.609 0.77-11.292 0.231-16.896-0.353-0.002 0.057 0.012 0.108-0.001 0.168-1.132 5.552-2.856 10.929-5.334 16.031-1.369 2.82-3.504 7.526-7.287 7.596s-5.423-5.133-6.651-7.798c-2.151-4.668-3.852-9.503-5.216-14.454-0.112 0.052-0.241 0.082-0.393 0.079-6.067-0.137-12.098-0.652-18.083-1.662-2.346-0.396-8.526-0.312-9.326-3.57-0.679-2.764 2.66-4.927 4.513-6.175 5.561-3.749 11.427-7 17.466-9.907-3.348-5.479-6.182-11.217-8.345-17.267-0.942-2.636-3.718-8.251 0.337-9.863 3.164-1.257 8.454 1.407 11.27 2.594 5.128 2.161 9.739 5.149 13.93 8.767 0.065-0.113 0.154-0.22 0.283-0.308 5.138-3.542 10.277-7.084 15.416-10.626 2.186-1.506 5.171-4.144 7.782-1.921 1.835 1.562 1.865 4.59 1.653 6.749-0.451 4.594-1.903 9.118-3.703 13.38 0.037 0.034 0.077 0.049 0.112 0.092 3.555 4.399 7.064 8.833 10.509 13.317"/></g></g></g></svg>
