<?xml version="1.0" encoding="UTF-8" standalone="no"?>
<!-- Created with Inkscape (http://www.inkscape.org/) -->
<svg id="svg2" xmlns:rdf="http://www.w3.org/1999/02/22-rdf-syntax-ns#" xmlns="http://www.w3.org/2000/svg" xml:space="preserve" height="500" viewBox="0 0 500 500" width="500" version="1.1" xmlns:cc="http://creativecommons.org/ns#" xmlns:dc="http://purl.org/dc/elements/1.1/"><metadata id="metadata8"><rdf:RDF><cc:Work rdf:about=""><dc:format>image/svg+xml</dc:format><dc:type rdf:resource="http://purl.org/dc/dcmitype/StillImage"/><dc:title/></cc:Work></rdf:RDF></metadata><g id="g10" transform="matrix(1.25,0,0,-1.25,0,500)"><path id="path36" d="m113.09 49.607c0-10.641 48.488-19.269 108.3-19.269 59.814 0 108.3 8.6277 108.3 19.269s-48.488 19.269-108.3 19.269c-59.816 0-108.3-8.6276-108.3-19.269" fill="#799885"/><path id="path38" d="m137.13 87.736 1.6925-19.32-10.665 4.2065s-12.545-16.514-3.779-19.811c8.7695-3.2967 5.7424 11.689 5.7424 11.689s11.616-7.0636 18.249-6.6394c6.6328 0.42423 3.9517 15.799 3.9517 15.799s79.154-3.2814 140.56 25.287c0 0 5.3548-23.529 5.2744-32.335 0 0 25.027 2.5862 24.135 15.052-0.8909 12.465-16.905-3.45-16.905-3.45s1.276 23.959-1.5038 30.123c-2.7804 6.1651-16.431-1.8732-16.431-1.8732l-150.32-18.724" fill="#40271d"/><path id="path40" d="m164.04 322.5s88.688 30.941 115.62-95.402c-14.865-10.083-74.221-31.329-170.56-34.864l-1.15-0.14056c-5.7812 51.486 2.427 107.41 56.091 130.41" fill="#fcd8b7"/><path id="path42" d="m119.54 303.07s3.4876 67.044 58.912 55.715c48.512-9.9177 80.204-14.133 96.926 25.07 0 0 11.157-111.43-129.97-101.59 0 0-4.7533-24.236-7.221-35.325 0 0-8.3854 8.3291-12.408-3.0427-3.2494-9.1888 9.7954-8.7907 9.7954-8.7907s-5.1488-27.84-27.696-42.335c0 0-47.221 131.13 11.666 110.3" fill="#40271d"/><path id="path44" d="m279.66 227.1c-12.2-7.79-80.25-30.17-171.71-35 13.32-70.92 29.18-104.36 29.18-104.36 89.738-1.6662 149.16 18.794 149.16 18.794 5.3533 68.022-6.5907 120.36-6.6353 120.57" fill="#415049"/><path id="path46" d="m99.428 105.75s-42.801 60.879 15.864 68.247l-3.2306 17.483s-83.012-14.543-26.712-93.934l3.3259-5.5165 12.209 11.805-1.4567 1.9162" fill="#415049"/><path id="path48" d="m100.89 103.83-12.213-11.803 4.047-6.714c0.65564-0.98645 2.7278-3.7414 4.6674-2.5249 0.92614 0.57756 0.95344 1.6918 0.7023 2.7498 0.85864-0.70023 1.889-1.1296 2.8846-0.50089 0.83928 0.52645 0.93755 1.4822 0.76582 2.4431 0.80404-0.57756 1.7351-0.87912 2.6384-0.31178 0.92763 0.57756 0.95443 1.6938 0.70378 2.7488 0.85715-0.69614 1.8875-1.126 2.8846-0.50089 2.0761 1.2998-0.63529 5.864-1.1108 6.5678l-5.9747 7.8472" fill="#fbd8b5"/><path id="path50" d="m354.33 217.02c-11.932 20.123-78.641 6.2622-78.641 6.2622l6.3207-16.564c38.815 8.3128 52.383 8.873 58.13 2.8183 8.9338-16.079-7.4945-18.844-7.4945-18.844l-1.1564-0.024 3.1715-16.516 0.68493 0.115c28.946 4.7299 27.958 26.269 18.984 42.753" fill="#415049"/><path id="path54" d="m139.14 260.76s84.733 10.651 115.76 32.296c0 0 26.687-31.95-8.0067-43.633-31.785-10.704-34.308 7.3084-40.283 4.9139-5.9747-2.3941 1.2527-17.969-30.105-25.184-31.358-7.2149-38.318 19.156-38.318 19.156l0.95542 12.452" fill="#40271d"/><path id="path56" d="m218.09 260.54s30.197-11.51 29.801 19.698l-29.801-19.698" fill="#f0f0ef"/><path id="path58" d="m192.45 254.4s-17.578-27.785-35.328-2.4881l35.328 2.4881" fill="#f0f0ef"/><path id="path60" d="m324.01 190.51c-0.83134-0.0624-5.9792-0.77485-5.6491-3.2548 0.15932-1.1909 1.1326-1.7434 2.1977-1.9908-0.95245-0.46511-1.7758-1.1883-1.6274-2.297 0.14393-1.0779 0.95442-1.633 1.8994-1.9116-0.83233-0.46767-1.4924-1.149-1.3579-2.1518 0.15486-1.1909 1.1311-1.7434 2.1957-1.9913-0.95343-0.4641-1.7744-1.1899-1.6279-2.2949 0.30871-2.3179 3.6921-2.2346 4.8471-2.137l9.779 1.6662-3.1715 16.516-7.485-0.15333" fill="#fbd8b5"/><path id="path62" d="m190.83 229.14s40.338-13.262 40.357 5.2752c-15.66-6.712-40.357-5.2752-40.357-5.2752" fill="#40271d"/></g></svg>
