<svg xmlns="http://www.w3.org/2000/svg" width="143.176" height="251.728" viewBox="0 0 143.17615 251.72835"><path d="M50.38 6.518s-.672 5.186-.196 6.464c.477 1.278 1.477 1.7 1.477 1.7s2.956.52 4.39-.153c1.436-.674 2.8-5.568 2.546-7.03-.255-1.46-8.216-.982-8.216-.982" fill="#f2c297"/><path d="M60.058 8.493c.857-.98 1.304-3.942 1.297-5.534-.008-1.594-.593-2.95-1.97-2.903-1.376.047-1.89 1.91-2.02 2.848 0 0-.17-2.885-2.11-2.905-1.938-.02-1.962 2.63-1.962 2.63s-.638-1.987-2.087-1.417c-1.45.57-1.99 2.81-1.527 4.417.46 1.61 2.64 3.992 3.548 2.403 0 0 2.1 2.16 3.33-.132 0 0 1.736 2.61 3.5.593" fill="#fcd7b4"/><path d="M57.957 15.398s2.238-1.11 3.06-2.604c.82-1.494 1.3-5.574.84-6.053-.463-.48-6.32-1.074-7.822-.936-1.504.138-.996 3.063 2.446 2.945 0 0-4.19 3.878-2.22 5.32 1.968 1.44 3.697 1.328 3.697 1.328" fill="#fcd7b4"/><path d="M60.568 6.382s-5.74-1.21-7.333-.908c-1.594.303-.877 3.45 2.51 3.45 0 0-2.67 2.544-1.89 4.42 0 0 .327-2.603 3.52-4.782 0 0-4.14.182-4.14-1.816 0-1.582 3.162-.848 7.333-.364" fill="#d18d61"/><path d="M64.153 73.227s-10.11-8.217-12.898-23.512c-2.788-15.294 6.702-34.317 6.702-34.317s-3.993-2.494-7.863-.942c0 0-8.705 18.298-4.475 35.554 4.228 17.256 14.886 28.556 16.373 28.92 1.488.366 5.69-2.078 2.16-5.703" fill="#394042"/><path d="M40.267 45.242c-.867-2.302-.524-4.573-.496-6.952.007-.48-.83-.468-.894-.01-.323 2.363-.69 5.09.558 7.274.268.468 1.027.205.833-.312M37.39 43.96c-.332-1.548-.714-3.027-.28-4.6.122-.444-.67-.69-.83-.252-.576 1.587-.517 3.494.217 5.036.2.417 1 .32.893-.183" fill="#7dc8c9"/><path d="M99.592 98.865s-5.122-.12-6.014.552c-.893.672-.323 2.33-.323 2.33s-2.64 3.293-1.96 3.798c.677.506 2.46.826 2.46.826s-.495 2.806.595 3.148c1.09.343 3.877-.808 3.877-.808s.69 1.61 2.182 1.555c1.49-.054 4.137-6.796 4.697-7.522.56-.726-5.515-3.878-5.515-3.878" fill="#fcd7b4"/><path d="M77.02 73.615s10.32-1.117 16.213-1.896c5.894-.78 18.223-.754 20.216 8.75 1.992 9.505-8.343 22.273-8.343 22.273s-5.676-1.066-5.964-3.93c0 0 9.34-8.875 7.366-16.883-1.973-8.01-20.44-4.12-25.162-3.014-4.72 1.106-6.678-3.443-4.327-5.3" fill="#394042"/><path d="M115.72 75.9c-.42-1.735-1.664-3.816-3.527-4.48-.55-.194-.916.496-.4.767 1.758.923 2.086 2.654 3.12 4.1.312.435.914.055.808-.386" fill="#aee4ea"/><path d="M114.99 70.23c-.568-.186-.96.515-.413.792 1.325.675 1.66 2.018 2.36 3.148.233.377.907.134.846-.283-.21-1.436-1.26-3.156-2.793-3.658" fill="none"/><path d="M62.795 36.775S57.688 47.242 59.71 52.43c0 0 7.37-13.078 6.98-15.19-.393-2.11-3.895-.465-3.895-.465" fill="#614f26"/><path d="M65.83 35.758s-11.984 26.01-10.93 29.39c1.054 3.38 16.66 7.23 19.91 4.647 3.25-2.58 11.505-19.276 12.413-21.43.908-2.156 3-9.545-.64-12.95-3.638-3.408-19.19-3.118-20.754.343" fill="#fcd7b4"/><path d="M83.476 57.818s-4.512-8.038 3.492-14.72c0 0-5.46 1.47-6.485.073-1.024-1.395 2.972-3.887 2.972-3.887s-9.388 1.847-11.012.38c-1.623-1.47 1.6-2.922 1.6-2.922s-11.175 3.897-14.48 1.38c-3.305-2.518-2.605-4.273 4.174-3.745 0 0-5.542-5.05-1.997-10.85s8.487-5.207 10.17-4.157c1.68 1.05 1.01 4.79.125 5.674 0 0 7.116-4.1 11.266-2.188 4.152 1.912-.25 6.195-1.732 7.008 0 0 13.784.52 12.234 8.397 0 0 1.864-2.466 2.985-1.766 1.12.7-.28 3.107-1.62 3.994 0 0 3.037 2.26 1.49 4.62-1.545 2.362-3.627-1.283-3.627-1.283s.082 10.464-5.057 12.897c-5.14 2.434-4.497 1.096-4.497 1.096" fill="#614f26"/><path d="M69.843 45.787s-1 3.912-1.815 4.027c-.815.115-2.533-2.32-3.932-.47-1.398 1.848 1.367 2.497 2.25 2.71 0 0-5.025.41-3.232-3.04 1.246-2.398 3.677-.163 4.24-.112.565.05 2.49-3.115 2.49-3.115" fill="#c38052"/><path d="M75.904 47.53c-.268.768-.87 1.274-1.347 1.13-.476-.143-.645-.88-.377-1.65.268-.768.87-1.275 1.348-1.13.475.142.644.88.376 1.65M67.507 45.664c-.268.768-.872 1.275-1.348 1.132-.477-.144-.645-.883-.377-1.65.268-.77.87-1.276 1.347-1.133.476.144.645.883.377 1.65" fill="#140e0c"/><path d="M73.683 43.347s1.94-2.456 5.488-.05c0 0-3.528-.352-5.487.05M70.238 42.935s-1.248-3.333-4.056-1.618c0 0 2.358.14 4.056 1.618" fill="#392d17"/><path d="M64.495 65.517c.764.492 1.655.837 2.706.962 3.644.433 7.026-3.59 9.278-7.17-2.88-.258-10.353-.27-11.983 6.207" fill="#d67a7e"/><path d="M60.077 54.167s-.17 8.4 4.418 11.35c1.63-6.477 9.103-6.465 11.983-6.207 1.733-2.755 2.8-5.25 2.8-5.25-1.91-.51-19.2.107-19.2.107" fill="#692926"/><path d="M81.36 57.706s2.825-3.057 5.422-1.897c2.597 1.16 2.786 5.284-.272 6.474-3.058 1.19-7.87.755-5.15-4.578" fill="#fcd7b4"/><path d="M54.007 113.07S36.645 125.63 30.63 135.945c-6.015 10.314-11.882 29.56-11.606 30.865.275 1.307 6.732 2.505 9.435 1.13 0 0 2.764-23.222 10.017-31.054 7.253-7.832 19.86-14.386 31.22-15.784 11.36-1.398 27.82 6.727 32.747 10.712 4.93 3.986 16.584 18.75 15.13 37.462 0 0 6.34 2.033 11.167-3.118 0 0-5.994-22.182-17.94-36.95-7.604-9.4-31.875-16.762-31.875-16.762l-24.918.623" fill="#394042"/><path d="M125.676 166.85s6.014-.55 7.565-1.85c1.55-1.3 3.566-5.94 4.297-6.277.732-.337 5.13 2.524 5.64 5.45 0 0-10.218 7.795-14.24 8.798l-4.043-.483-.29 2.087s-5.036 1.732-7 1.072c0 0-.646-6.868 1.13-8.14 1.774-1.274 6.942-.655 6.942-.655M20.1 167.674s-7.787-1.88-9.244-2.902c-1.456-1.023-3.58-3.824-3.58-3.824s-5.842 2.6-7.276 4.704c0 0 14.13 7.576 19.33 7.562l2.455-1.616s1.075 2.135 1.98 2.195c.905.06 5.15-.916 5.15-.916s-.398-5.354-1.347-6.74l-7.47 1.537" fill="#372914"/><path d="M118.554 133.147c-1.166-2.316-3.086-4.928-5.6-6.118-.457-.218-.94.434-.5.71 2.39 1.507 3.66 3.652 5.212 5.832.31.436 1.134.064.888-.425M119.527 130.088c-.91-1.406-2.02-2.803-3.415-3.823-.453-.332-1.022.277-.585.632 1.308 1.062 2.16 2.434 3.18 3.718.384.485 1.15-.017.82-.527M27.957 133.268c-1.405 1.59-2.134 3.596-2.852 5.512-.186.498.59.87.812.364.815-1.878 1.706-3.663 2.792-5.42.258-.418-.43-.82-.753-.456M24.566 133.885c-.78 1.384-1.44 2.935-1.73 4.474-.088.457.743.593.862.146.393-1.47 1.392-2.768 1.716-4.244.098-.448-.578-.856-.848-.377" fill="#aee4ea"/><path d="M63.423 73.243s14.39-.4 17.66 1.265c3.272 1.665-2.69 17.503-.638 26.98 2.053 9.476 3.658 11.896 3.658 11.896s-13.352 4.555-17.76 3.39l-1.137-2.152s-.822.946-2.298 2.378c0 0-6.76-.49-10.654-2.868 0 0 5.232-27.29 11.17-40.89" fill="#394042"/><path d="M66.424 69.604s.868 5.268 1.313 6.453c.445 1.185 1.51 2.55 3.576 1.383 2.065-1.167 2.02-8.104 2.08-9.017.06-.912-5.672.064-6.97 1.18" fill="#fcd7b4"/><path d="M69.494 73.544s.064 1.99-.415 2.992c0 0-.596-2.408-1.004-2.645l-3.04 2.162s-1.047 12.465 1.47 20.123c0 0 7.693-14.782 9.806-21.814l-6.818-.816" fill="#dfdfdd"/><path d="M67.933 77.66s2.13-.534 2.846.342c0 0 .853 3.58.7 4.198 0 0-4.13.212-4.905-.234 0 0 .804-3.605 1.358-4.305" fill="#111"/><path d="M65.13 89.01s2.306-6.476 2.606-6.814l2.455.046s.293 3.785.53 5.447l-4.215 8.485s-1.228-5.395-1.375-7.165" fill="#111"/><path d="M76.37 73.943s2.838 3.665 4 5.714c0 0-4.254 2.13-5.638 2.224 0 0 3.61 3.617 4.586 5.36 0 0-9.304 7.233-12.813 8.935 0 0 9.087-18.788 9.865-22.232M65.035 76.052s-2.67 2.792-3.74 3.37c0 0 1.4 1.428 2.645 2.327 0 0-3.595 2.865-4.62 3.662 0 0 4.667 8.056 7.185 10.763 0 0-2.33-10.258-1.47-20.123" fill="#585f61"/><path d="M66.568 98.128s-.347 9.19-1.087 14.51c0 0-.106-10.09 1.088-14.51M64.792 101.947c-.093.672-.49 1.18-.885 1.132-.396-.05-.64-.632-.548-1.305.093-.672.49-1.18.885-1.13.396.046.64.63.547 1.302M64.342 108.36c-.043.6-.39 1.065-.777 1.042-.387-.024-.665-.53-.622-1.128.043-.6.39-1.066.777-1.042.386.024.665.53.622 1.128" fill="#242728"/><path d="M69.494 73.544s3.865-2.068 4.743-2.36c0 0 2.574 1.753 2.777 2.484 0 0-3.884 3.848-4.354 4.217 0 0-2.485-3.764-3.166-4.34M65.278 71.554s2.075 2.06 2.798 2.337c0 0-1.577 3.68-1.71 4.09 0 0-2.453-1.85-2.943-2.546 0 0 .903-3.51 1.855-3.88" fill="#fff"/><path d="M52.254 114.132s7.325 2.603 10.654 2.868l2.222-2.868s.974 2.705 1.874 2.767c0 0 8.115-.723 14.767-2.768 0 0-13.42 3.768-15.747 3.768l-1.204-2.27s-1.563 2.45-1.882 2.633c-.318.182-10.684-4.13-10.684-4.13" fill="#242728"/><path d="M42.364 237.02s-.747-2.847-3.726-2.78c-2.978.068-2.883 4.324-2.883 4.324s-3.036.485-2.26 3.124c.775 2.64 3.77 1.513 3.77 1.513s.708 2.42 2.62 1.8c1.915-.62 1.813-3.178 1.813-3.178s3.072 2.136 4.014-1.36c.942-3.493-3.348-3.44-3.348-3.44" fill="#7dc8c9"/><path d="M110.856 240.18s-5.236-1.69-2.67-5.413c2.567-3.725 5.703 1.655 6.03 2.587.328.933.222-3.24 3.612-2.983 3.39.26 2.467 3.618 2.467 3.618s7.77-1.69 9.156 3.145c1.386 4.834-3.027 5.367-3.027 5.367s-1.623 5.11-5.978 5.226c-4.356.115-5.236-3.412-5.236-3.412s-3.157 2.99-6.292-.754 1.938-7.38 1.938-7.38" fill="#7cc7c8"/><path d="M67.745 216.2s-5.467 4.354-8.898 6.988c0 0 5.46.26 7.27.183 0 0-1.992 9.78-2.247 11.616 0 0 5.98-2.72 7.077-3.768 0 0 4.57 14.298 5.574 16.972 0 0 7.714-15.97 7.992-17.214 0 0 7.16 4.786 8.38 5.13 0 0-3.997-13.103-4.843-13.866 0 0 5.62 1.386 6.57 1.4 0 0-7.732-7.506-8.537-7.798-.805-.293-18.338.357-18.338.357" fill="#f9db28"/><path d="M71.455 218.412l-2.528 4.51 5.338-.834 3.59 8.876 3.194-8.555 4.6.354-3.97-4.896-10.225.544" fill="#fbf29b"/><path d="M95.506 225.433s2.415.47 2.87 1.194c.456.723.56 1.94.56 1.94s-3.317-1.7-3.43-3.134M97.992 230.523s2.55 1.382 2.996 1.888c.446.506.654 1.98.654 1.98s-2.587-.33-2.866-1.192c-.278-.863-.784-2.675-.784-2.675M58.405 226.376s-1.45.034-2.424.452c-.972.418-1.558 3-1.558 3s3.44-1.062 3.675-1.23c.235-.168.308-2.222.308-2.222" fill="#f8e73b"/><path d="M68.904 119.198c-10.85.142-35.358 8.808-34.882 34.522.477 25.713 21.545 36.17 25.526 47.125 0 0 21.678 1.548 28.29-.54 0 0 2.258-6.28 7.277-12.488 5.02-6.208 17.262-18.428 15.832-38.275-1.136-15.772-18.834-30.645-42.043-30.344" fill="#e7c628"/><path d="M68.136 121.327c-9.928.13-31.367 9.454-30.93 32.983.435 23.528 19.713 33.097 23.356 43.12 0 0 19.836 1.417 25.885-.495 0 0 2.067-5.744 6.66-11.425 4.593-5.68 15.795-16.862 14.487-35.023-1.04-14.432-18.22-29.436-39.458-29.16" fill="#f4f021"/><path d="M70.227 125.384c-14.935-.558-29.93 14.843-29.48 22.25.448 7.41 20.725 4.754 26.063 1.02 5.337-3.732 19.63 3.972 29.175 3.36 9.542-.613 3.906-25.522-25.758-26.63" fill="#fff"/><path d="M87.7 167.56c-3.786-1.275-7.3 2.476-9.64 5.035-.537-2.112-1.867-3.907-4.534-3.832-2.71.076-4.96 2.204-6.175 4.38-2.055-3.724-5.046-6.61-10.004-5.302-3.697.977-5.737 3.566-4.773 7.092.955 3.49 3.89 6.52 6.414 9.133 2.048 2.12 3.824 4.278 5.066 6.898 1.34 2.828 1.86 5.904 2.206 8.953.063.566.996.538.958-.04-.288-4.31-1.344-8.448-3.753-12.17-2.03-3.14-5.102-5.586-7.366-8.578-1.772-2.34-4.12-6.07-1.64-8.668 1.702-1.783 5.224-2.49 7.54-1.63 2.433.905 3.836 3.54 4.86 5.618.164.333.787.536.978.084.847-2 2.362-3.742 4.562-4.536 2.957-1.067 4.49 1.36 4.8 3.746.05.403.602.668.928.318 2.51-2.696 7.896-8.743 11.527-3.906 2.666 3.55-1.006 8.376-3.472 10.945-2.456 2.557-5.406 4.652-7.13 7.753-.945 1.7-1.314 3.608-1.49 5.497-.207 2.197-.582 4.262.632 6.278.344.572 1.202.034.91-.532-1.296-2.497-.574-6.176.155-8.767.598-2.128 1.964-3.924 3.536-5.525 2.88-2.932 6.646-5.61 8.065-9.508 1.198-3.29.84-7.394-3.16-8.738" fill="#3d3d29"/><path d="M63.28 214.093s2.366 6.57 13.043 6.57c10.676.003 11.876-7.122 11.876-7.122l-24.92.553" fill="#323335"/><path d="M63.84 210.82s-3.907 1.497-2.847 3c1.06 1.5 8.067 2.046 15.078 1.805 7.01-.24 13.552-.538 14.12-2.533.568-1.994-7.698-3.366-11.384-3.47-3.686-.102-14.966 1.198-14.966 1.198" fill="#434547"/><path d="M66.138 207.07s-7.316.3-6.923 2.804c.392 2.502 3.673 1.717 12.58 1.507 8.91-.21 18.06.985 18.9-2.058.837-3.042-5.627-2.933-8.89-3.03-3.264-.095-15.667.777-15.667.777" fill="#434547"/><path d="M62.387 203.77c-2.19.477-3.894 1.4-3.498 3.118.395 1.717 2.465.983 7.154.857 4.688-.126 17.888-.024 20.873-.204 2.985-.18 4.236-.815 4.293-1.987.057-1.17-2.933-2.48-9.96-2.11-7.03.37-18.863.328-18.863.328" fill="#434547"/><path d="M73.663 200.21c-7.34-.21-15.446-.67-15.446 2.374 0 3.045 10.2 1.91 16.326 1.956 6.124.045 15.223.744 15.774-3.22.417-2.994-8.02-.86-16.654-1.11" fill="#434547"/><path d="M73.8 200.646c-5.608-.16-12.394-.49-12.5 1.835-.075 1.606 8.74.49 13.42.527 4.68.035 12.727.498 12.826-1.785.1-2.306-7.148-.386-13.746-.576M74.466 204.245c-5.16-.2-11.404-.553-11.47 1.35-.045 1.315 8.045.51 12.35.595 4.305.086 11.71.563 11.77-1.306.06-1.888-6.58-.404-12.65-.64M73.658 207.66c-5.16-.2-10.746-.206-10.798.935-.06 1.313 7.065.36 11.37.444 4.304.085 12.022.47 12.076-.74.053-1.154-6.578-.403-12.648-.64M73.934 210.654c-4.72-.148-9.833-.098-9.894 1.042-.07 1.312 6.463.287 10.402.33 3.94.04 11 .346 11.063-.862.06-1.154-6.017-.336-11.57-.51" fill="#8a8d8d"/><path d="M33.246 176.056s7.182 12.54 13.053 17.43c0 0-11.404-6.398-13.054-17.43M21.487 178.072s9.934 18.616 24.337 25.9c0 0-20.277-6.283-24.337-25.9M98.12 193.545s8.705-9.43 11.412-18.105c0 0-1.13 11.347-11.412 18.105M97.617 204.65s15.54-6.717 20.926-25.257c0 0-8.814 18.745-20.926 25.258" fill="#f9db28"/><path d="M95.084 210.773c-.385 1.404-.52 2.803-1.417 4.038-.326.45.314 1.004.706.565 1.084-1.216 1.495-2.904 1.626-4.446.046-.552-.766-.703-.916-.157M98.052 212.697c-.095-.49-.836-.556-.956-.04-.093.394-.11.803-.19 1.202-.106.53-.306 1.016-.51 1.518-.213.517.525.848.83.372.54-.847 1.018-2.055.826-3.053M57.426 215.624c-.904-1.65-1.59-3.203-1.777-5.065-.06-.575-.904-.465-.93.075-.097 1.935.755 3.79 1.83 5.408.294.44 1.133.05.876-.42M54.567 216.94c-.883-1.14-1.388-2.382-1.45-3.79-.025-.568-.94-.48-.94.077.003 1.555.537 3.015 1.595 4.223.388.443 1.163-.034.795-.51" fill="#aee4ea"/></svg>