<?xml version="1.0" encoding="UTF-8" standalone="no"?>
<svg id="svg2" xmlns:rdf="http://www.w3.org/1999/02/22-rdf-syntax-ns#" xmlns="http://www.w3.org/2000/svg" xml:space="preserve" height="360" viewBox="0 0 500 500" width="400" version="1.1" xmlns:cc="http://creativecommons.org/ns#" xmlns:dc="http://purl.org/dc/elements/1.1/"><metadata id="metadata8"><rdf:RDF><cc:Work rdf:about=""><dc:format>image/svg+xml</dc:format><dc:type rdf:resource="http://purl.org/dc/dcmitype/StillImage"/><dc:title/></cc:Work></rdf:RDF></metadata><defs id="defs6"><clipPath id="clipPath190" clipPathUnits="userSpaceOnUse"><path id="path192" clip-rule="evenodd" d="m4363.5 4650.2c-24.79 37.14-64.19 145.13-5.44 171.21 50.34 22.34 190.39 18.25 238.85-1.6 0 0 13.52-1.99 21.33-15.7 1.23-2.16 2.33-4.6 3.19-7.37 6.44-20.41 0.01-65.53-5.61-87.57-2.03-7.99-4.91-17.59-8.48-27.36-6.25-17.17-14.6-34.86-24.14-45.23-46.33-50.41-187.49-34.61-219.7 13.62"/></clipPath><clipPath id="clipPath200" clipPathUnits="userSpaceOnUse"><path id="path202" clip-rule="evenodd" d="m4182.5 4833.2c54.75-33.67 1.33-135.45-28.19-168.96-38.35-43.52-180.37-40.39-219.56 15.74-7.24 10.37-12.75 26.42-16.63 42.5-2.92 12.06-4.92 24.12-6.04 33.8-2.16 18.56-2.79 52.61 2.09 74.92 1.05 4.85 2.38 9.15 4 12.61 9.1 19.37 27.38 19.61 27.38 19.61 50.68 13.21 190.03-1.37 236.95-30.22"/></clipPath><clipPath id="clipPath210" clipPathUnits="userSpaceOnUse"><path id="path212" clip-rule="evenodd" d="m3876.8 1817.8h-1168.2c-16.02 0-29.12-13.1-29.12-29.13v-357.85c141.26-92.98 363.37-152.93 613.21-152.93s471.94 59.95 613.21 152.92v357.86c0 16.03-13.11 29.13-29.13 29.13"/></clipPath></defs><g id="g10" transform="matrix(1.25,0,0,-1.25,0,500)"><g id="g12" transform="scale(.1)"><g id="g3669" transform="matrix(.60141 0 0 .67779 -434.24 -432.97)"><path id="path16" d="m3973.3 857.06c-839.84 0-1524.8 35.492-1524.8 78.98 0 43.512 684.97 78.991 1524.8 78.991s1524.8-35.479 1524.8-78.991c0-43.488-684.97-78.98-1524.8-78.98" fill="#5798b6"/><g fill="#e9e7e6" fill-rule="evenodd"><path id="path18" d="m4173.9 6232c-108.31 0-190.83-91.99-190.83-198.45 0-32.32 4.22-65.92 21.43-93.96 12.14-19.78 28.78-33.5 43.97-50.51 24.8-27.79 34.04-55.34 34.04-92.64 0-13.75 10.3-26.75 24.6-26.75h133.58c14.29 0 24.6 13 24.6 26.75 0 37.3 9.24 64.85 34.05 92.64 15.18 17.01 31.82 30.72 43.96 50.51 17.22 28.04 21.44 61.64 21.44 93.96 0 106.46-82.52 198.45-190.84 198.45zm0 14.51c113.42 0 205.35-95.34 205.35-212.96 0-154.94-99.44-123.27-99.44-237.11 0-22.7-17.6-41.26-39.12-41.26h-133.58c-21.51 0-39.11 18.56-39.11 41.26 0 113.84-99.45 82.17-99.45 237.11 0 117.62 91.94 212.96 205.35 212.96"/><path id="path20" d="m4100.5 5746.1h145.68c9.61 0 17.46-7.86 17.46-17.47s-7.85-17.47-17.46-17.47h-145.68c-9.61 0-17.46 7.86-17.46 17.47s7.85 17.47 17.46 17.47"/><path id="path22" d="m4100.5 5702.6h145.68c9.61 0 17.46-7.86 17.46-17.47s-7.85-17.47-17.46-17.47h-145.68c-9.61 0-17.46 7.86-17.46 17.47s7.85 17.47 17.46 17.47"/><path id="path24" d="m4100.5 5659h145.68c9.61 0 17.46-7.85 17.46-17.47 0-9.61-7.85-17.46-17.46-17.46h-145.68c-9.61 0-17.46 7.85-17.46 17.46 0 9.62 7.85 17.47 17.46 17.47"/><path id="path26" d="m4205.7 5598.3 28.52 17.33h-123.36l28.52-17.33h66.32"/></g><path id="path28" d="m4107.1 5769.7h133.58c14.29 0 24.6 13 24.6 26.75 0 37.3 9.24 64.85 34.05 92.64 15.18 17.01 31.82 30.72 43.96 50.51 17.22 28.04 21.44 61.64 21.44 93.96 0 106.46-82.52 198.45-190.84 198.45-108.31 0-190.83-91.99-190.83-198.45 0-32.32 4.22-65.92 21.43-93.96 12.14-19.78 28.78-33.5 43.97-50.51 24.8-27.79 34.04-55.34 34.04-92.64 0-13.75 10.31-26.75 24.6-26.75" fill-rule="evenodd" fill="#ddaa1f"/><g fill="#e9e7e6" fill-rule="evenodd"><path id="path30" d="m4176.1 6198.1c87.31-59.61 91.92-157.43 91.92-157.43s73.95 1.21 69.51 1.44c-4.45 0.23 6.42 52.58-38.51 108.52-44.93 55.95-122.92 47.47-122.92 47.47"/><path id="path32" d="m4173.9 6482.9c3.5 0 6.35-2.85 6.35-6.35v-183.94c0-3.5-2.85-6.36-6.35-6.36s-6.36 2.86-6.36 6.36v183.94c0 3.5 2.86 6.35 6.36 6.35"/><path id="path34" d="m4397.2 6423.1c3.02-1.75 4.08-5.65 2.33-8.69l-91.97-159.29c-1.76-3.03-5.66-4.08-8.69-2.33s-4.08 5.66-2.33 8.68l91.98 159.3c1.74 3.04 5.65 4.08 8.68 2.33"/><path id="path36" d="m4560.7 6259.6c1.75-3.03 0.71-6.94-2.33-8.69l-159.29-91.96c-3.04-1.76-6.93-0.71-8.69 2.32-1.75 3.03-0.7 6.93 2.33 8.69l159.29 91.96c3.04 1.76 6.94 0.71 8.69-2.32"/><path id="path38" d="m4620.6 6036.2c0-3.51-2.85-6.36-6.36-6.36h-183.94c-3.5 0-6.35 2.85-6.35 6.36 0 3.5 2.85 6.36 6.35 6.36h183.94c3.51 0 6.36-2.86 6.36-6.36"/><path id="path40" d="m4560.7 5812.9c-1.75-3.03-5.65-4.08-8.69-2.32l-159.29 91.96c-3.03 1.75-4.08 5.65-2.33 8.69 1.76 3.02 5.65 4.07 8.69 2.32l159.29-91.97c3.04-1.75 4.08-5.65 2.33-8.68"/><path id="path42" d="m3950.5 6423.1c3.03 1.75 6.93 0.7 8.69-2.33l91.96-159.3c1.75-3.03 0.71-6.93-2.32-8.68s-6.94-0.71-8.69 2.33l-91.97 159.29c-1.74 3.04-0.7 6.94 2.33 8.69"/><path id="path44" d="m3787 6259.6c1.75 3.04 5.65 4.08 8.68 2.33l159.3-91.96c3.03-1.76 4.07-5.66 2.32-8.69-1.74-3.03-5.64-4.08-8.68-2.33l-159.29 91.97c-3.04 1.75-4.08 5.66-2.33 8.68"/><path id="path46" d="m3727.2 6036.2c0 3.5 2.85 6.35 6.36 6.35h183.94c3.5 0 6.36-2.85 6.36-6.35 0-3.51-2.86-6.36-6.36-6.36h-183.94c-3.51 0-6.36 2.85-6.36 6.36"/><path id="path48" d="m3787 5812.9c-1.75 3.03-0.71 6.93 2.33 8.68l159.29 91.97c3.04 1.75 6.94 0.7 8.68-2.32 1.75-3.04 0.71-6.94-2.32-8.69l-159.3-91.97c-3.03-1.75-6.93-0.7-8.68 2.33"/></g><g><g fill-rule="evenodd"><path id="path92" d="m4665.6 1307.8s-37.86-103.74-89.77-137.18c-11.01-62.15 24.05-140.19-15.25-183.49-22-9.34-62.34-65.25-20.83-63.359l90.29 1.859 84.41 205.64-9.71 35.21 25.35-8.55 24.69 84.13s-43.91 73.49-89.18 65.74" fill="#1a161a"/><path id="path94" d="m3770.8 2952.6s30.89-939.49 50.66-978.59c19.77-39.11 733.26-831.92 733.26-831.92 124.25 74.43 76.41 53.58 138.8 168.13-105.99 166.86-370.25 525.63-634.62 780.19-7.23 44.11 41.98 647.94 41.98 647.94l9.49 229.37-127.16 35.33-212.41-50.45" fill="#1d161c"/><path id="path96" d="m4677 1278.1c4.48 9.39 9.86 20.03 16.49 32.2-105.99 166.86-389.15 547.48-673.34 807.77-7.24 44.11 80.69 620.36 80.69 620.36l0.82 19.78c-0.1-0.01-18.72-1.39-40.37 8.96-21.7 10.37-34.9 19.8-34.9 19.8l42.86-49.19-81.52-631.92s362.29-447.17 511.34-611.32c104.92-115.55 156.55-185.27 177.93-216.44" fill="#1b151a"/><path id="path98" d="m4123.4 1087-35.39-85.36c-29.36-35.541-24.99-30.861-22.98-77.978l236.41-0.18s1.85 55.988-20.2 73.078c-23.02 9.32-52.38 92.4-52.38 92.4l-105.46-1.96" fill="#1a161a"/><path id="path100" d="m4289.1 1015-206.18 14.94 17.94 1708.4-31.6-0.65 20.09 235.86 25.08-13.65 75.95 36.34 274.26-119.26c-29.1-600-110.9-1263.1-175.6-1861.8" fill="#1d161c"/><path id="path102" d="m4274.2 2917.4c-8.11-9.74-178.68-104.19-233.68-86l-186.62 61.67c-61.57 20.34-115.52 69.28-115.52 69.28s235.61 68.65 245.35 67.01c9.73-1.62 290.47-111.96 290.47-111.96" fill="#d1cccd"/><path id="path104" d="m4484.9 4111.5c16.94-24.61 286.45-107.39 287.69-107.77-6.01 1.84-115.72-266.83-127.79-292.82-95.07-204.63-142.11-415.16-112.24-642.96 3.68-28.1 8.79-55.56 14.47-83.35l-227.97-80.27-79.53-88.45-501.16 146.53c38.02 149.54 72.14 306.53 78.81 461.4 9.22 213.92-85.72 408.64-158.35 605.14l341.55 118.21 452.19-21.63 32.33-14.03" fill="#d1cccd"/><path id="path106" d="m4505.1 2996.7c-15.67-4.77-179.58-84.28-186.07-92.4-6.48-8.11-58.41-68.16-45.43-81.14 12.98-12.97 124.95-133.07 136.31-118.46s141.18 159.03 141.18 159.03l-45.99 132.97" fill="#e5ada3"/><path id="path108" d="m4273.6 2823.2c-2.36 2.36-2.54 6.3-1.27 11.19l39.5 38.51s-22.71-41.82-20.32-57.01c2.4-15.2 109.95-74.43 119.8-73.23 7.22 0.87 85.66 95.87 130 149.39l9.78-28.28s-129.82-144.42-141.18-159.03-123.33 105.49-136.31 118.46" fill="#d19d92"/><path id="path110" d="m4552.7 3896.6 219.9 107.13c33.62-87.44 67.24-174.87 100.88-262.31 27.29-70.99 54.6-141.98 81.9-212.96 24.5-63.72 78.71-145.54 77.88-212.67-0.92-74.08-59.33-116.01-105.43-165.41-48.01-51.45-96.02-102.91-144.04-154.35-62.67-67.16-125.33-134.31-188-201.47l-188.75 179.23 373.53 390.61-227.87 532.2" fill="#d1cccd"/><path id="path112" d="m4603.1 4797.2c26.12 11.19 165.51 82.77 180.12 43.82 14.6-38.95-37.33-210.97-51.93-230.43-14.6-19.48-111.96-45.44-116.84-34.09-4.87 11.37-11.35 220.7-11.35 220.7" fill="#d7998f"/><path id="path114" d="m4656.7 4802.9c10.55 3.25 60.04 20.28 70.6 1.63 10.54-18.67-1.64-64.1-1.64-73.84s-18.66-80.33-31.64-92.5-64.1-28.4-67.34-18.66c-3.25 9.74 30.02 183.37 30.02 183.37" fill="#d57866"/><path id="path116" d="m3921.9 4827.7c-26.11 11.19-165.52 82.76-180.12 43.81-14.61-38.95 37.33-210.96 51.93-230.43s111.96-45.44 116.84-34.08c4.86 11.36 11.35 220.7 11.35 220.7" fill="#d7998f"/><path id="path118" d="m3868.4 4833.4c-10.55 3.25-60.04 20.28-70.59 1.62-10.54-18.66 1.62-64.1 1.62-73.83 0-9.74 18.66-80.33 31.65-92.51 12.98-12.16 64.1-28.39 67.34-18.65 3.25 9.73-30.02 183.37-30.02 183.37" fill="#d57866"/><path id="path120" d="m4028.7 4085.4c-1.5 3.76-54.1 59.6-53.35 61.73 0.75 2.14-0.32 66.42-0.32 66.42l471.39-13.48-9.68-101.9-408.04-12.77" fill="#869197"/><path id="path122" d="m4404.2 4416.2c-9.75-61.67-34.12-242.05-14.66-258.28 19.47-16.23 128.2-60.05 128.2-60.05s-246.49-172.01-295.34-178.5c-48.86-6.5-298.59 194.73-298.59 194.73s126.58 48.69 146.04 77.89c19.49 29.21 38.95 272.63 38.95 272.63l295.4-48.42" fill="#cd9187"/><path id="path124" d="m3894 5100.7c-3.3-160.4 2.53-323.66-9.95-483.54-13.02-166.87 143.15-291.66 270.74-370.31 28.73-17.71 72.85-10.86 106.97-13.44 50.81-3.83 71.66 16.02 110.85 42.15 23.26 15.5 46.37 31.25 68.81 47.95 44.59 33.2 86.85 70.22 120.68 114.6 33.81 44.36 58.03 91.45 62.94 146.58 3.82 42.79 11.6 85.56 17.37 128.15l24.5 358.62-772.91 29.24" fill="#e5ada3"/><path id="path126" d="m3894 5100.7c-3.3-160.4 2.53-323.66-9.95-483.54-13.02-166.87 143.15-291.66 270.74-370.31 28.73-17.71 72.85-10.86 106.97-13.44 50.81-3.83 71.66 16.02 110.85 42.15 23.26 15.5 46.37 31.25 68.81 47.95 44.59 33.2 86.85 70.22 120.68 114.6 33.81 44.36 58.03 91.45 62.94 146.58 3.82 42.79 11.6 85.56 17.37 128.15l24.5 358.62-772.91 29.24" fill="#d3a39a"/><path id="path128" d="m3901.4 5148.7c-3.3-165 2.52-332.94-9.95-497.4-13.03-171.66 143.14-300.01 270.74-380.93 28.72-18.21 72.84-11.16 106.97-13.81 50.8-3.95 71.66 16.48 110.84 43.35 23.26 15.95 46.38 32.15 68.81 49.33 44.6 34.15 86.85 72.22 120.68 117.88 33.82 45.63 58.03 94.07 62.94 150.78 3.82 44.01 11.6 88.02 17.38 131.82l24.51 368.9-772.92 30.08" fill="#e5ada3"/><path id="path130" d="m3918.3 5201.3c-60.05-6.49-137.93-3.24-147.68-61.66-9.73-58.42 114.92-424.31 115.84-404.81 0.92 19.51 31.84 466.47 31.84 466.47" fill="#8d3637"/><path id="path132" d="m3890 4789.3c4.22 62.61 11.43 167.57 17.51 255.91l-2.82 7.08s-25.13 24.82-45.98 49.89c-20.86 25.08-37.91 53.48-37.91 53.48s18.67-74.65 30.03-108.73c11.36-34.07 25.16-53.55 17.85-47.06-7.3 6.5-56.8 57.62-56.8 57.62s22.71-103.46 36.1-127.8c13.38-24.34 22.72-41.78 21.09-39.75-1.62 2.02-31.24 22.71-31.24 22.71s28.6-77.09 52.17-123.35" fill="#873132"/><path id="path134" d="m4640.7 4688.1-22.97 315.18s-335.9-86.01-353.76-74.65c-17.85 11.36-225.58 48.67-331.06 105.47s-116.85 170.4-110.36 251.53c6.49 81.15 89.26 157.42 89.26 157.42s6.48-64.92 100.6-97.37c94.12-32.46 340.79 16.23 454.38-3.25 113.6-19.47 193.11-129.81 193.11-129.81s79.51 0 111.97-87.63c34.16-92.26-89.31-329.67-131.17-436.89" fill="#8d3637"/><path id="path136" d="m4640.7 4688.1-19.2 263.55c26.06 23.66 52.3 54.5 63.46 89.54 25.62 80.41 12.17 124.96 12.17 129.82 0 4.87 26.78-61.66 18.66-133.88-8.11-72.21-33.26-117.65-38.93-129.01-5.69-11.36 39.74 50.31 42.18 56.8 2.43 6.49-3.25-20.29-20.28-81.14-17.04-60.85-58.06-195.68-58.06-195.68" fill="#873132"/><path id="path138" d="m3911.8 5443.1s6.48-64.92 100.6-97.37c94.12-32.46 340.79 16.23 454.38-3.25 39.53-6.77 74.92-24.55 104.27-44.86 3.53-6.69 7.05-14.07 10.55-22.25 31.64-73.84 18.66-141.18 17.85-135.5-0.82 5.67-69.78 84.38-147.67 120.89s-167.15 41.38-159.85 41.38 84.38-64.09 80.33-60.04c-4.06 4.05-111.18 41.37-153.77 51.52-42.6 10.14-75.06-0.01-68.58-0.82 6.5-0.81 97.37-84.38 97.37-84.38s-123.34 59.22-172.83 86c-27.27 14.75-161.28 85.74-162.65 148.68" fill="#873132"/><path id="path140" d="m4640.7 4688.1-22.97 315.18s-335.9-86.01-353.76-74.65c-17.85 11.36-274.8 75.18-331.06 105.47s-21.98 13.85-28.21 18.13l-29.79 104.64s79.45-58.52 87.67-58.83c8.22-0.32-110.71 96.85-110.39 169.18 0.31 72.33 31.48 145.49 40.56 137.94 9.1-7.55-1.62-77.9 45.44-144.43 47.06-66.54 120.09-68.16 128.21-73.03 8.1-4.86-73.04 126.58-76.28 137.94-3.25 11.36 86-89.25 181.75-126.58 95.76-37.32 147.68-22.71 147.68-22.71s-51.92 81.13-61.66 87.62 149.3-34.07 207.72-95.74c58.41-61.66 55.17-123.33 55.17-123.33s27.58 1.62 77.89 48.68 48.68 105.48 48.68 105.48 8.12-14.6 16.23-66.53c16.19-103.55-31.19-330.96-22.88-444.43" fill="#853033"/><path id="path142" d="m4428.2 4957.3c-65.04-14.92-127.83-28.04-153.18-29.49-6 0.4-9.94 0.78-11.06 0.89-5.82 3.7-31.81 10.16-67.87 19.16l-0.06 0.01-0.15 0.04-0.28 0.08-0.22 0.05c-7.71 1.99-77.37 19.93-99.31 25.98l-0.1 0.03c-23.16 6.43-137.59 102.93-149.76 113.47-12.18 10.55 26.78-14.6 81.14-34.08 54.36-19.47 107.91-21.1 107.91-21.1s-21.09 9.75-63.28 42.2c-42.21 32.45-147.67 150.92-160.66 168.76-12.98 17.85 103.86-94.11 193.11-126.57 89.26-32.46 121.71-38.95 121.71-38.95s-100.61 92.5-120.09 97.37c-19.47 4.87 73.03-9.74 160.66-40.57s120.09-69.78 120.09-69.78l-17.86 110.35s98.2-177.29 59.26-217.85" fill="#8b3236"/><path id="path144" d="m4621.5 4796.8c6.43-20.41 0-65.53-5.61-87.56-5.63-22.04-17.66-56.31-32.63-72.61-46.33-50.4-187.49-34.6-219.69 13.63-24.8 37.14-64.2 145.14-5.45 171.22 50.34 22.33 190.39 18.24 238.85-1.61 0 0 18.1-2.67 24.53-23.07zm-675.91 66.62c50.68 13.23 190.03-1.36 236.95-30.21 54.75-33.66 1.33-135.45-28.19-168.96-38.35-43.51-180.36-40.38-219.56 15.74-12.67 18.15-20.04 53.71-22.67 76.3s-2.99 68.16 6.09 87.53c9.1 19.37 27.38 19.6 27.38 19.6zm371.61-34.34c-6.13-1.91-15.92-2.35-46.73 0.4-30.9 1.38-40.55 3.12-46.37 5.83-3.14 4.1-12.29 16.98-27.18 23.49-69.94 30.61-268.82 33.16-322.4 23.51-6.9-1.24-7.61-0.95-8.65-5.51s-3.1-31.7-1.19-35.97 12.22-6.66 20.53-20.86c14.89-25.44 7.82-113.74 44.48-158.25 37.96-46.09 192.75-58.03 238.51-3.09 30.24 36.3 46.78 77.81 64.37 117.65 9.59 8.61 17.39 8.82 24.49 9.33 4.41 0.3 8.22 0.18 10.48 0.05 2.26-0.17 6.05-0.56 10.38-1.45 6.96-1.45 14.68-2.69 23.03-12.5 12.13-41.83 23-85.18 48.13-125.17 38.04-60.55 193.04-69.32 236.8-28.7 42.26 39.24 47.01 127.69 65.16 150.93 10.12 12.95 20.66 13.96 23.12 17.93 2.45 3.98 4.03 31.16 3.61 35.82-0.42 4.65-1.17 4.46-7.84 6.61-51.82 16.7-249.27 40.65-322.66 19.62-15.63-4.47-26.41-16.01-30.07-19.67" fill="#583b47"/><path id="path146" d="m4363.5 4650.2c-24.8 37.14-64.2 145.13-5.45 171.21 50.34 22.34 190.39 18.25 238.85-1.6 0 0 13.52-1.99 21.33-15.7 1.23-2.16 2.33-4.6 3.2-7.37 6.43-20.41 0-65.53-5.62-87.57-2.03-7.99-4.91-17.59-8.48-27.36-6.25-17.17-14.6-34.86-24.14-45.23-46.33-50.41-187.49-34.61-219.69 13.62" fill="#a8d0d4"/><path id="path148" d="m4182.5 4833.2c54.75-33.67 1.33-135.45-28.19-168.96-38.35-43.52-180.36-40.39-219.56 15.74-7.25 10.37-12.75 26.42-16.63 42.5-2.91 12.06-4.92 24.12-6.04 33.8-2.16 18.55-2.79 52.61 2.09 74.92 1.05 4.86 2.38 9.15 4 12.61 9.1 19.37 27.38 19.61 27.38 19.61 50.68 13.21 190.03-1.37 236.95-30.22" fill="#a8d0d4"/><path id="path150" d="m4045.5 4044.4c12.99 3.25 93.43 15.02 93.43 15.02l73.02-139.18-164.83 43.02-1.62 81.14" fill="#9ea0a4"/><path id="path152" d="m4374 4001.7c-15.27 13.48-91.46 44.22-91.46 44.22l-60.05-126.58 163.83 37.43-12.32 44.93" fill="#9ea0a4"/><path id="path154" d="m4446.4 4200.1-163.91-154.17 134.69-188.23c7.53-10.52 100.6 240.15 100.6 240.15l-71.38 102.25" fill="#b9b6ba"/><path id="path156" d="m3975 4213.6 163.91-154.16-134.7-188.24c-7.52-10.52-100.6 240.16-100.6 240.16l71.39 102.24" fill="#b9b6ba"/><path id="path158" d="m3248.5 4428.2c0 2.12-5.54 69.92-3.12 144.64 1.94 59.34 13.47 123.46 4.21 159.51-10.29 40.02-54.04 45.97-70.91-21.53-13.5-54.05-20.26-261.23-20.26-261.23s-26.21 17.7-44.22 22.21c-18.01 4.5-49.24-23.66-49.24-23.66s-34.22 0.91-49.72-8.95c-15.49-9.86-24.6-27.88-24.6-27.88s-25.89-1.12-31.52-18.02c-5.63-16.88 3.37-90.07 13.51-103.59 10.13-13.5 27.12-34.89 27.12-34.89 2.14-42.64 68.34-72.86 68.34-72.86l26.68-118.63s194.24-32.59 187.48-19.08c-6.75 13.51-21.39 147.5-12.38 166.64 9.01 19.15 41.66 78.82 41.66 102.47 0 23.64-3.38 96.84-15.76 100.21-12.39 3.38-47.27 14.64-47.27 14.64" fill="#e5ada3"/><path id="path160" d="m3223.5 4754.2c-13.02 16.12-32.07 7.66-44.81-43.29-13.51-54.05-20.26-261.23-20.26-261.23s-0.91 0.67-2.51 1.8c0.06-0.12 9.14-17.63 14.2-28.3 5.06-10.69-22.52-68.69-24.77-75.44-2.25-6.76 7.36-42.29 11.85-51.13 4.48-8.83-24.4-37.19-47.36-11.6-8.89 9.9-22.16 40.72-28.61 65.32-10.22 38.96-11.32 73.98-11.32 73.98s-2.79-33.02 1.7-57.8c2.18-11.97 11.15-41.45 19.96-57.98 10.93-20.5 9.84-23.62 9.26-27.1-1.12-6.75-16.68-16.19-30.76-17.32-14.07-1.13-20.92 16.59-30.54 27.89-9.64 11.3-39.98 93.46-41.1 98.53-1.13 5.06 1.12-2.81 3.37-15.77 2.26-12.95 28.16-81.63 30.97-87.26 1.43-2.88 13.8-18.13 15.75-29.59 1.85-10.9-13.46-20.88-17.3-23.91-7.88-6.18-31.46 20.9-31.46 20.9 2.14-42.64 51.3-69.62 51.3-69.62l31.56-117s20.32-23.2 40.06-24.99l17.04 20.29c3.15 3.74-12.05 73.91-12.05 73.91 12.9 20.3 68.91-2.35 112.01 21.19 3.21 1.77-100.68-13.08-80.23 80.41 3.94 18.02 31.53 35.48 36.03 36.6 4.5 1.13 26.47 10.7 32.66 18.58 6.2 7.88 13.52 60.81 13.52 60.81s-21.94-34.25-22.5-39.32-19.73-28.8-22.54-29.92c-2.82-1.13-20.27 2.8-25.34 5.62-5.06 2.81-18.01 41.66-18.01 41.66s21.4 86.14 31.54 90.08c10.13 3.95 63.7 5.09 63.7 5.09s-58.08 8.42-64.83 18c-6.75 9.57-8.88 145.79-3.94 194.23 4.95 48.44 6.36 117.85 43.76 113.68" fill="#d19d92"/><path id="path162" d="m3229.8 4154.1c-9.74-1.62-100.33-13.25-142.52 19.21-42.18 32.46-70.67 54.84-87.11 77.22-0.4-12.07 20.61-66.86 56.41-85.81 10.16-53.5 23.43-101.8 20.13-108.63-5.89-12.13 163.52 24.32 163.93 36.89 0.4 12.58-10.84 61.12-10.84 61.12" fill="#e5ada3"/><path id="path164" d="m3820.4 3704.5c-143.79-98.42-286.12-198.99-431.29-295.35-254.59-168.99-338.45 644.07-351.03 644.47l278.94 49.45 29.89-460.5 311.9 386.32 161.59-324.39" fill="#d1cccd"/><path id="path166" d="m4252.5 3982.6 9.64-72.11 19.87-911.62-141.19-154.16-128.19 180.12 145.12 888.75 94.75 69.02" fill="#322b36"/><path id="path168" d="m4138.8 4042.8c15.41 0 150.92 2.44 152.54-8.11 1.62-10.54 15.42-69.78 9.73-74.64-5.67-4.87-25.74-47.62-38.94-49.5-13.21-1.89-94.47 0.48-104.39 3.09-9.9 2.61-31.12 48.84-31.12 54.52s12.18 74.64 12.18 74.64" fill="#322b36"/><path id="path170" d="m4240.7 4762.9c0-9.74-40.57-169.58-40.57-169.58-43.38-24.33-42.17-11.65-75.06-40.58 7.53 29.07 62.07 60.86 62.07 60.86l53.56 149.3" fill="#d09589"/><path id="path172" d="m4302.3 4514.6c-5.68-3.24-44.63-17.04-68.97-21.1-24.35-4.06-43.01 1.63-50.31 4.06s-55.99 32.45-49.49 32.45c6.49 0 75.24-4.43 75.24-4.43-25.88 1.59 102.78-5.69 93.53-10.98" fill="#d09589"/></g><path id="path174" d="m4235.3 4405.6c8.1 0 15.9 0.36 23.31 1.1 60.39 6 138.05 45.3 138.83 45.69 5.14-1.43 0.28 8.05-2.27 4.46-0.78-0.39-77.6-39.27-137.06-45.18-57.63-5.75-139.61 11.89-194.91 41.9-2.65 5.78-8.95-5.42-2.38-4.39 48.97-26.59 118.63-43.58 174.48-43.58" fill="#745054"/><g fill-rule="evenodd"><path id="path176" d="m4012.6 3024.8 145.12 888.75c-4.9 1.29-12.58 13.29-19.09 25.77-4.96 9.51-9.24 19.29-11.07 24.81-0.62 1.86-0.96 3.22-0.96 3.94 0 5.68 12.18 74.64 12.18 74.64 1.66 0 4.72 0.03 8.84 0.07 2.2 0.02 4.7 0.04 7.47 0.07-1.01-2.65-2.03-5.51-3.05-8.49-5.98-17.49-11.59-39.55-9.51-51.45 1.99-11.36 9.68-27.33 17.41-38.73 5.11-7.55 10.25-13.11 13.77-14.02l0.44-0.11c1.07-0.28 2.72-0.63 4.79-1.06 4.18-0.86 10.13-2.01 16.79-3.27 4.69-0.89 9.73-1.82 14.76-2.74 4.3-0.79 8.58-1.57 12.62-2.32 1.02-0.18 2.03-0.37 3.01-0.54l0.32-0.06c11.54-2.09 20.34-3.66 20.34-3.66s-16.89-2.65-34.19-6.2c-16.93-3.45-34.23-7.75-36.56-11.26-4.72-7.07-145.28-845-136.28-869.36 1.66-4.51 6.19-13.7 12.44-25.68 3.65-7.01 7.91-14.96 12.53-23.48 6.72-12.41 14.23-26.05 21.84-39.73 7.14-12.84 14.38-25.74 21.14-37.72 13.95-24.77 25.86-45.65 30.74-54.18 1.52-2.66 2.35-4.11 2.35-4.11l-2.8 3.94-30.76 43.21-22.18 31.17-45.92 64.52-20.88 29.33-5.65 7.95" fill="#2b2530"/><path id="path178" d="m3824.5 1808.2-1066.6 1.9c-15.68 0.03-27.76-12.85-28.5-28.51l-36.79-784.5c-0.74-15.668 12.82-28.508 28.5-28.508h1143c15.67 0 29.29 12.84 28.5 28.508l-39.63 782.62c-0.79 15.65-12.82 28.47-28.5 28.49" fill="#7d3337"/><path id="path180" d="m3822.7 1777.9 39.44-778.86h-1139l36.68 780.74 1062.9-1.88" fill="#8d3637"/><path id="path182" d="m3146.4 1874.8c-1.53 0-2.77-1.24-2.77-2.76v-68.98c0-1.53 1.24-2.78 2.77-2.78h292.58c1.52 0 2.76 1.25 2.76 2.78v68.98c0 1.52-1.24 2.76-2.76 2.76h-292.58zm292.58 51.9c18.65 0 33.9-15.25 33.9-33.9v-89.75c0-18.65-15.25-33.9-33.9-33.9h-292.58c-18.65 0-33.9 15.25-33.9 33.9v89.75c0 18.65 15.25 33.9 33.9 33.9h292.58" fill="#322b36"/><path id="path184" d="m3876.8 1817.8h-1168.2c-16.02 0-29.12-13.1-29.12-29.13v-357.85c141.26-92.98 363.37-152.93 613.21-152.93s471.94 59.95 613.21 152.92v357.86c0 16.03-13.11 29.13-29.13 29.13" fill="#682426"/></g></g><g id="g186"><g id="g188" clip-path="url(#clipPath190)"><path id="path194" d="m4523.9 4523.1 55.18 21.59-156.58 400.27-55.2-21.6 156.6-400.26" fill-rule="evenodd" fill="#c4dad7"/></g></g><g id="g196"><g id="g198" clip-path="url(#clipPath200)"><path id="path204" d="m4120.8 4549.5 53.89 24.66-178.81 390.83-53.89-24.65 178.81-390.84" fill-rule="evenodd" fill="#c4dad7"/></g></g><g id="g206"><g id="g208" clip-path="url(#clipPath210)"><path id="path214" d="m3880.9 1826.7c0 2.53-1.97 4.83-4.13 4.83h-1168.2c-2.16 0-4.13-2.3-4.13-4.83v-371.21c143.53-97.01 357.72-152.61 588.21-152.61 230.48 0 444.66 55.6 588.2 152.61v371.21zm-1184.2-377.99-2.18 1.49v376.5c0 8.04 6.47 14.83 14.13 14.83h1168.2c7.66 0 14.13-6.79 14.13-14.83v-376.51l-2.17-1.48c-145.18-99.03-362.42-155.83-596.03-155.83-233.62 0-450.87 56.8-596.03 155.83" fill="#602224"/></g></g><path id="path216" d="m3360.6 1343h-105.73c-6.71 0-12.19-5.49-12.19-12.2v-113.1c0-6.7 5.48-12.18 12.19-12.18h105.73c6.71 0 12.2 5.48 12.2 12.18v113.1c0 6.71-5.49 12.2-12.2 12.2" fill-rule="evenodd" fill="#ddd9d8"/><path id="path218" d="m3347.9 1319.4h-80.27c-3.92 0-7.12-3.2-7.12-7.12v-75.96c0-3.93 3.2-7.13 7.12-7.13h80.27c3.92 0 7.12 3.2 7.12 7.13v75.96c0 3.92-3.2 7.12-7.12 7.12" fill-rule="evenodd" fill="#7c7d88"/><g fill="#c4c0c2" fill-rule="evenodd"><path id="path220" d="m4140.8 2844.7-0.01 0.01h0.01v-0.01"/><path id="path222" d="m3066.2 4058.6c10.77-16.42 21.4-42.24 25.23-82.24 8.79-91.83 108.2-439.54 178.01-512.85 69.81-73.3 111.69-10.46 202.44 66.32 77.98 65.99 305.68 163.72 298.9 274.21-2.49 40.53 67.59-113.65 80.92-225.34s-20.31-408.38-31.33-467.71c-11.03-59.34 0.55-90.76 45.92-81.62 45.38 9.15 31.42-78.94 89.9-130.74v-39.41c-171.89 38.6-217.87 103.11-217.87 103.11 38.02 149.54 72.14 306.53 78.81 461.4 3.79 88.08-10.12 172.89-32.82 255.93-131.55-90.47-262.22-182.24-395.23-270.53-254.59-168.99-338.45 644.07-351.03 644.48 0 0 10.86 1.92 28.15 4.99"/><path id="path224" d="m4407 2973.8 373.53 390.61-199.09 464.99c13.76 0.06 57.16-38.24 57.16-38.24 15.32-30.63 132.77-333.65 165.96-377.46 33.18-43.81 65.44-50.8 65.44-50.8s-37.36-0.67-80.76-44.07c-36.67-36.67-259.14-313.8-333.52-391.29l-48.72 46.26"/><path id="path226" d="m4464.6 3150.3c8 97.03 20.67 78.74 30.98 248.86 10.7 176.83 72.05 430.18 85.81 430.24s57.16-38.24 57.16-38.24c3.09-6.17 10.36-23.51 20.21-47.45-6.91-16.39-11.96-28.29-14.05-32.79-95.07-204.63-142.11-415.16-112.25-642.96 2-15.19 4.45-30.2 7.14-45.17-18.36-21.62-35.5-41.54-50.5-58.54l-84.77-29.85c-20.12 18.65-43.11 40.1-41.52 44.86 2.55 7.65 93.79 74.01 101.79 171.04"/></g><path id="path316" d="m3964.7 550.78c5.02 0 8.71-0.402 12.97-1.109l1.19 7.617s-11.72 3.613-27.11 2.352l-1.21 4.148c4.78 1 8.38 5.262 8.38 10.34 0 5.82-4.75 10.543-10.59 10.543-5.82 0-10.55-4.723-10.55-10.543 0-5.078 3.6-9.34 8.38-10.34l1.33-4.629c-16.35-2.25-29.36-8.621-29.36-8.621l2.31-7.047c9.88 3.289 18.46 5.289 26.25 6.129 7.6 0.809 13.34 1.16 18.01 1.16" fill="#47414e"/></g></g></g></svg>
