<?xml version="1.0" encoding="UTF-8" standalone="no"?>
<!-- Created with Inkscape (http://www.inkscape.org/) -->

<svg
   xmlns:dc="http://purl.org/dc/elements/1.1/"
   xmlns:cc="http://creativecommons.org/ns#"
   xmlns:rdf="http://www.w3.org/1999/02/22-rdf-syntax-ns#"
   xmlns:svg="http://www.w3.org/2000/svg"
   xmlns="http://www.w3.org/2000/svg"
   xmlns:sodipodi="http://sodipodi.sourceforge.net/DTD/sodipodi-0.dtd"
   xmlns:inkscape="http://www.inkscape.org/namespaces/inkscape"
   id="svg4205"
   xml:space="preserve"
   height="244"
   viewBox="0 0 286 244"
   width="286"
   version="1.1"
   inkscape:version="0.91 r13725"
   sodipodi:docname="customer-personna-main.svg"><sodipodi:namedview
     pagecolor="#ffffff"
     bordercolor="#666666"
     borderopacity="1"
     objecttolerance="10"
     gridtolerance="10"
     guidetolerance="10"
     inkscape:pageopacity="0"
     inkscape:pageshadow="2"
     inkscape:window-width="1301"
     inkscape:window-height="744"
     id="namedview392"
     showgrid="false"
     inkscape:zoom="0.96721311"
     inkscape:cx="72.250518"
     inkscape:cy="122"
     inkscape:window-x="65"
     inkscape:window-y="24"
     inkscape:window-maximized="1"
     inkscape:current-layer="svg4205" /><metadata
     id="metadata4211"><rdf:RDF><cc:Work
         rdf:about=""><dc:format>image/svg+xml</dc:format><dc:type
           rdf:resource="http://purl.org/dc/dcmitype/StillImage" /><dc:title></dc:title></cc:Work></rdf:RDF></metadata><defs
     id="defs4209"><clipPath
       id="clipPath280"
       clipPathUnits="userSpaceOnUse"><path
         id="path282"
         d="m664.98 526.93h-7.304c-2.113 5.129-4.723 10.109-7.828 14.851h7.562c2.996-4.757 5.52-9.734 7.57-14.851m-9.031 0h-9.504v14.851h1.485c3.183-4.738 5.855-9.711 8.019-14.851m10.574 0.551c-1.968 4.918-4.359 9.703-7.183 14.3h7.183v-14.3" /></clipPath><clipPath
       id="a"><path
         inkscape:connector-curvature="0"
         id="path10"
         d="m 3150.8,3673.7 c 0,-291.05 -235.94,-526.98 -526.99,-526.98 -291.04,0 -526.98,235.93 -526.98,526.98 0,291.06 235.94,526.99 526.98,526.99 291.05,0 526.99,-235.93 526.99,-526.99 z" /></clipPath><clipPath
       id="b"><path
         inkscape:connector-curvature="0"
         id="path7"
         d="m 6980.9,3082.4 c 0,-1041.1 -843.99,-1885.1 -1885.1,-1885.1 -1041.11,0 -1885.1,843.97 -1885.1,1885.1 0,1041.13 843.99,1885.1 1885.1,1885.1 1041.11,0 1885.1,-843.98 1885.1,-1885.1 z" /></clipPath></defs><g
     transform="matrix(0.55046025,0,0,0.68719247,1.3693138,41.8018)"
     id="g4283"><path
       style="fill:#df3623"
       inkscape:connector-curvature="0"
       d="m 263.43,79.732 c 0,3.4845 -3.2347,6.3096 -7.2245,6.3096 l -17.114,0 c -3.9898,0 -7.2245,-2.8258 -7.2245,-6.3096 l 5.1334,-26.105 c 0,-3.4845 3.2348,-6.3081 7.2245,-6.3081 l 7.3134,0 c 3.9898,0 7.2245,2.8237 7.2245,6.3081 l 4.6671,26.105"
       id="path12" /><path
       style="fill:#df3623"
       inkscape:connector-curvature="0"
       d="m 242.66,86.042 9.8005,0 0,-34.107 -9.8005,0 0,34.107 z"
       id="path14" /><path
       style="fill:#f0e7ab"
       inkscape:connector-curvature="0"
       d="m 272.12,34.783 c 0,12.157 -11.285,22.012 -25.204,22.012 -13.919,0 -25.203,-9.8547 -25.203,-22.011 0,-12.1563 11.284,-22.011 25.204,-22.011 13.918,0 25.203,9.8547 25.203,22.011"
       id="path16" /><path
       style="fill:#171311"
       inkscape:connector-curvature="0"
       d="m 239.39,35.345 c 0,1.2659 -1.1769,2.292 -2.6263,2.292 -1.4494,0 -2.6248,-1.0276 -2.6248,-2.2928 0,-1.2666 1.1754,-2.2935 2.6248,-2.2935 1.4508,0 2.6263,1.0276 2.6263,2.2935 m 20.07,7.38e-4 c 0,1.2659 -1.1769,2.292 -2.6263,2.292 -1.4508,0 -2.6255,-1.0276 -2.6255,-2.2928 0,-1.2666 1.1755,-2.2935 2.6255,-2.2935 1.4508,0 2.6256,1.0276 2.6256,2.2935"
       id="path18" /><path
       style="fill:#f5774e"
       inkscape:connector-curvature="0"
       d="m 250.24,39.931 c 0,1.2659 -1.6714,2.2928 -3.7336,2.2928 -2.0615,0 -3.7329,-1.0276 -3.7329,-2.2928 0,-1.2666 1.6714,-2.2935 3.7336,-2.2935 2.063,0 3.7344,1.0261 3.7344,2.2928"
       id="path20" /><path
       style="fill:#f0452e"
       inkscape:connector-curvature="0"
       d="m 247.12,49.136 c -2.5404,0 -5.5257,-0.74499 -8.7745,-2.9721 -0.40563,-0.2783 -0.47596,-0.79066 -0.15766,-1.1446 0.31829,-0.35394 0.90528,-0.41602 1.3102,-0.13772 8.4089,5.7629 14.475,0.31826 14.73,0.08349 0.35308,-0.32611 0.94304,-0.34252 1.3176,-0.03425 0.3753,0.30684 0.39528,0.82063 0.0445,1.1489 -0.0503,0.04566 -3.3636,3.0563 -8.4696,3.0563"
       id="path22" /><path
       style="fill:#f0982c"
       inkscape:connector-curvature="0"
       d="m 272.35,34.783 c -10.6,-1.5628 -14.274,-7.6083 -15.986,-11.412 -3.7329,4.4842 -13.801,4.993 -18.494,4.993 -14.049,0 -16.394,18.689 -16.394,6.4202 0,-12.2688 11.389,-22.214 25.438,-22.214 14.048,0 25.437,9.9453 25.437,22.214"
       id="path24" /><path
       style="fill:#743118"
       inkscape:connector-curvature="0"
       d="m 217.12,64.002 c -0.23539,7.8837 -50.754,7.0959 -50.754,0 l 0,-27.699 50.833,0.92267 c 0,0 0.15545,18.892 -0.0799,26.776"
       id="path26" /><path
       style="fill:#e1d89e"
       inkscape:connector-curvature="0"
       d="m 196.38,49.926 -7.3134,0 c -1.6373,0 -3.143,0.48167 -4.3547,1.2845 l 7.7412,23.616 9.044,-23.045 c -1.308,-1.146 -3.1163,-1.8553 -5.1171,-1.8553"
       id="path28" /><path
       style="fill:#df3623"
       inkscape:connector-curvature="0"
       d="m 203.61,48.49 c 0,6.0063 -0.80535,4.4314 -2.1074,3.2911 l -8.3926,17.873 -8.3926,-18.443 c -1.7395,1.151 -2.8691,2.97 -2.8691,5.0237 l -5.1342,26.106 c 0,3.4845 3.2348,6.3081 7.2245,6.3081 l 17.114,0 c 3.9898,0 7.2245,-2.8237 7.2245,-14.053 L 203.61,48.4909"
       id="path30" /><path
       style="fill:#c23122"
       inkscape:connector-curvature="0"
       d="m 204.2,53.779 -3.6752,20.48 -7.417,-4.6069 7.075,-17.452 4.0172,1.577"
       id="path32" /><path
       style="fill:#c23122"
       inkscape:connector-curvature="0"
       d="m 182.01,53.779 3.6759,20.48 7.4155,-4.6069 -7.2393,-17.215 -3.8521,1.3394"
       id="path34" /><path
       style="fill:#f0e7ab"
       inkscape:connector-curvature="0"
       d="m 216.97,37.392 c 0,12.157 -11.283,22.011 -25.203,22.011 -13.919,0 -25.204,-9.8547 -25.204,-22.011 0,-12.157 11.285,-22.011 25.204,-22.011 13.92,0 25.203,9.8547 25.203,22.011"
       id="path36" /><path
       style="fill:#171311"
       inkscape:connector-curvature="0"
       d="m 184.24,37.952 c 0,1.2666 -1.1755,2.2935 -2.6256,2.2935 -1.4508,0 -2.6255,-1.0276 -2.6255,-2.2935 0,-1.2659 1.1755,-2.2928 2.6255,-2.2928 1.4508,0 2.6256,1.0276 2.6256,2.2928 m 20.069,0 c 0,1.2666 -1.1755,2.2935 -2.6255,2.2935 -1.4508,0 -2.6256,-1.0276 -2.6256,-2.2935 0,-1.2659 1.1755,-2.2928 2.6256,-2.2928 1.4508,0 2.6248,1.0276 2.6248,2.2928"
       id="path38" /><path
       style="fill:#f5774e"
       inkscape:connector-curvature="0"
       d="m 195.09,42.537 c 0,1.2666 -1.6714,2.2928 -3.7337,2.2928 -2.0615,0 -3.7336,-1.0276 -3.7336,-2.2935 0,-1.2659 1.6729,-2.292 3.7336,-2.292 2.0622,0 3.7337,1.0261 3.7337,2.292"
       id="path40" /><path
       style="fill:#f0452e"
       inkscape:connector-curvature="0"
       d="m 191.97,51.743 c -2.5404,0 -5.5257,-0.74427 -8.7745,-2.9714 -0.40564,-0.2783 -0.4767,-0.79066 -0.15841,-1.1439 0.3183,-0.35537 0.90529,-0.41745 1.3102,-0.13986 8.4089,5.7637 14.475,0.31826 14.73,0.08349 0.35306,-0.3254 0.94302,-0.34252 1.3176,-0.03425 0.37529,0.30827 0.39528,0.82206 0.0429,1.1503 -0.0489,0.04566 -3.3606,3.0556 -8.4681,3.0556"
       id="path42" /><path
       style="fill:#743118"
       inkscape:connector-curvature="0"
       d="m 217.2,37.392 c -10.598,-1.5628 -25.304,-9.0362 -27.016,-12.84 -3.7336,4.4849 -4.2096,5.9692 -9.7294,6.9882 -13.746,2.5382 -14.128,18.122 -14.128,5.8529 0,-12.2691 11.388,-22.214 25.437,-22.214 14.049,0 25.437,9.9446 25.437,22.214"
       id="path44" /><path
       style="fill:#202320"
       inkscape:connector-curvature="0"
       d="m 152.82,60.094 c -0.23466,7.8852 -50.753,7.0966 -50.753,0 l 0,-22.806 50.833,0.92338 c 0,0 0.15545,14.001 -0.0799,21.886"
       id="path46" /><path
       style="fill:#e1d89e"
       inkscape:connector-curvature="0"
       d="m 132.08,50.911 -7.3133,0 c -1.6381,0 -3.143,0.48167 -4.3547,1.2845 l 7.7404,23.616 9.044,-23.045 c -1.3072,-1.146 -3.1163,-1.8553 -5.1164,-1.8553"
       id="path48" /><path
       style="fill:#3898a8"
       inkscape:connector-curvature="0"
       d="m 139.31,49.475 c 0,6.0063 -0.80536,4.4314 -2.1081,3.2911 l -8.3926,17.873 -8.3911,-18.443 c -1.7395,1.151 -2.8698,2.9707 -2.8698,5.0237 l -5.1334,26.106 c 0,3.4845 3.2348,6.3096 7.2245,6.3096 l 17.115,0 c 3.9898,0 7.2245,-2.8258 7.2245,-14.055 l -4.6678,-26.105"
       id="path50" /><path
       style="fill:#318696"
       inkscape:connector-curvature="0"
       d="m 139.9,54.763 -3.6759,20.484 -7.417,-4.6076 7.075,-17.452 4.0172,1.5756"
       id="path52" /><path
       style="fill:#318696"
       inkscape:connector-curvature="0"
       d="m 117.71,54.763 3.6752,20.484 7.417,-4.6076 -7.2393,-17.214 -3.8528,1.338"
       id="path54" /><path
       style="fill:#f0e7ab"
       inkscape:connector-curvature="0"
       d="m 152.67,38.376 c 0,12.157 -11.285,22.011 -25.204,22.011 -13.919,0 -25.203,-9.8547 -25.203,-22.011 0,-12.157 11.284,-22.011 25.204,-22.011 13.918,0 25.203,9.8532 25.203,22.011"
       id="path56" /><path
       style="fill:#171311"
       inkscape:connector-curvature="0"
       d="m 119.94,38.937 c 0,1.2666 -1.177,2.2928 -2.6256,2.2928 -1.4508,0 -2.6256,-1.0261 -2.6256,-2.2928 0,-1.2659 1.1755,-2.2928 2.6256,-2.2928 1.4493,0 2.6248,1.0276 2.6248,2.2928 m 20.069,0 c 0,1.2666 -1.1754,2.2928 -2.6248,2.2928 -1.4508,0 -2.6255,-1.0261 -2.6255,-2.2928 0,-1.2659 1.1747,-2.2928 2.6248,-2.2928 1.4494,0 2.6248,1.0276 2.6248,2.2928"
       id="path58" /><path
       style="fill:#f5774e"
       inkscape:connector-curvature="0"
       d="m 130.79,43.522 c 0,1.2666 -1.6729,2.2935 -3.7344,2.2935 -2.0622,0 -3.7337,-1.0276 -3.7337,-2.2935 0,-1.2652 1.6729,-2.2928 3.7344,-2.2928 2.0622,0 3.7337,1.0276 3.7337,2.2928"
       id="path60" /><path
       style="fill:#f0452e"
       inkscape:connector-curvature="0"
       d="m 127.67,52.728 c -2.5412,0 -5.5257,-0.7457 -8.7753,-2.9721 -0.40563,-0.2783 -0.47596,-0.79066 -0.15768,-1.1439 0.31831,-0.35537 0.90456,-0.41745 1.3102,-0.13915 8.4088,5.7629 14.475,0.31755 14.73,0.08206 0.35308,-0.3254 0.94304,-0.3411 1.3176,-0.03425 0.37529,0.30827 0.39454,0.82206 0.0429,1.1503 -0.0488,0.04566 -3.3606,3.0563 -8.4681,3.0563"
       id="path62" /><path
       style="fill:#202320"
       inkscape:connector-curvature="0"
       d="m 152.9,38.376 c -10.598,-1.5628 -25.304,-9.0355 -27.015,-12.84 -3.7344,4.4849 -4.2118,5.9692 -9.7301,6.9882 -13.746,2.5375 -14.129,18.122 -14.129,5.8529 0,-12.2691 11.388,-22.215 25.437,-22.215 14.049,0 25.437,9.9474 25.437,22.215"
       id="path64" /><path
       style="fill:#df3623"
       inkscape:connector-curvature="0"
       d="m 177.91,119.89 c 0,3.4852 -3.2347,6.3096 -7.2245,6.3096 l -17.115,0 c -3.9898,0 -7.2245,-2.8258 -7.2245,-6.3103 l 5.1341,-26.105 c 0,-3.4852 3.2347,-6.3095 7.2245,-6.3095 l 7.3133,0 c 3.9898,0 7.2245,2.8244 7.2245,6.3095 l 4.6671,26.105"
       id="path66" /><path
       style="fill:#f0982c"
       inkscape:connector-curvature="0"
       d="m 157.42,126.2 9.8005,0 0,-34.107 -9.8005,0 0,34.107 z"
       id="path68" /><path
       style="fill:#f0e7ab"
       inkscape:connector-curvature="0"
       d="m 186.6,74.943 c 0,12.157 -11.285,22.011 -25.204,22.011 -13.92,0 -25.204,-9.8547 -25.204,-22.011 0,-12.157 11.285,-22.011 25.204,-22.011 13.919,0 25.204,9.8547 25.204,22.011"
       id="path70" /><path
       style="fill:#171311"
       inkscape:connector-curvature="0"
       d="m 153.87,75.504 c 0,1.2659 -1.1755,2.2928 -2.6256,2.2928 -1.4494,0 -2.6248,-1.0276 -2.6248,-2.2928 0,-1.2666 1.1747,-2.2935 2.6241,-2.2935 1.4508,0 2.6256,1.0276 2.6256,2.2935 m 20.071,0 c 0,1.2659 -1.177,2.2928 -2.6263,2.2928 -1.4493,0 -2.6248,-1.0276 -2.6248,-2.2928 0,-1.2666 1.1755,-2.2935 2.6248,-2.2935 1.4508,0 2.6263,1.0276 2.6263,2.2935"
       id="path72" /><path
       style="fill:#f5774e"
       inkscape:connector-curvature="0"
       d="m 164.72,80.089 c 0,1.2659 -1.6714,2.2928 -3.7337,2.2928 -2.0622,0 -3.7337,-1.0276 -3.7337,-2.2928 0,-1.2666 1.6714,-2.2928 3.7337,-2.2928 2.0622,0 3.7337,1.0261 3.7337,2.2928"
       id="path74" /><path
       style="fill:#f0452e"
       inkscape:connector-curvature="0"
       d="m 161.6,89.295 c -2.5412,0 -5.5257,-0.74499 -8.7752,-2.9721 -0.40564,-0.2783 -0.47597,-0.79066 -0.15767,-1.1439 0.31829,-0.35466 0.90454,-0.41602 1.3102,-0.13772 8.4089,5.7615 14.475,0.31612 14.73,0.08135 0.35308,-0.32611 0.94302,-0.34252 1.3176,-0.03425 0.3753,0.30685 0.39455,0.82206 0.0445,1.1489 -0.0503,0.04638 -3.3636,3.057 -8.4696,3.057"
       id="path76" /><path
       style="fill:#f0982c"
       inkscape:connector-curvature="0"
       d="m 186.83,74.943 c -2.402,-0.35466 -3.408,-6.7163 -8.927,-10.126 -5.5183,-3.411 -4.2163,3.8712 -15.781,3.8712 -11.564,0 -11.292,-7.3371 -16.542,-3.9747 -5.2511,3.3631 -6.562,9.8589 -9.6228,10.229 0,-12.269 11.388,-22.214 25.437,-22.214 14.048,0 25.437,9.9446 25.437,22.214"
       id="path78" /><path
       style="fill:#171311"
       inkscape:connector-curvature="0"
       d="m 151.3,70.86 c -2.9401,0 -5.3325,2.0887 -5.3325,4.6562 0,2.5689 2.3931,4.6576 5.3333,4.6576 2.9387,0 5.3318,-2.0894 5.3318,-4.6569 0,-2.5668 -2.3924,-4.6555 -5.3318,-4.6555 z m 0,10.129 c -3.4553,0 -6.2659,-2.4547 -6.2659,-5.4732 0,-3.0163 2.8106,-5.4711 6.2659,-5.4711 3.4546,0 6.2652,2.4547 6.2652,5.4718 0,3.0185 -2.8113,5.4732 -6.2659,5.4732 m 20.011,-10.142 c -2.9401,0 -5.3318,2.0887 -5.3318,4.6569 0,2.5675 2.3909,4.6562 5.3318,4.6562 2.9401,0 5.3318,-2.0894 5.3318,-4.6569 0,-2.5689 -2.3909,-4.6569 -5.331,-4.6569 z m 0,10.129 c -3.4546,0 -6.2652,-2.4547 -6.2652,-5.4718 0,-3.0185 2.8106,-5.4732 6.2652,-5.4732 3.4553,0 6.2652,2.4547 6.2652,5.4732 0,3.017 -2.8098,5.4718 -6.2652,5.4718"
       id="path80" /><path
       style="fill:#171311"
       inkscape:connector-curvature="0"
       d="m 157.25,75.95 8.7531,0 0,-1.0076 -8.7538,0 0,1.0076 z m 19.835,0.06922 9.7442,0 0,-1.0062 -9.7442,0 0,1.0062 z M 135.956,75.95 l 9.7427,0 0,-1.0076 -9.7427,0 0,1.0076 z"
       id="path82" /><path
       style="fill:#62c58e"
       inkscape:connector-curvature="0"
       d="m 240.88,117.28 c 0,3.4852 -3.2348,6.3096 -7.2245,6.3096 l -17.115,0 c -3.9898,0 -7.2245,-2.8244 -7.2245,-6.3096 l 5.1341,-26.105 c 0,-3.4845 3.2348,-6.3095 7.2245,-6.3095 l 7.3133,0 c 3.9898,0 7.2245,2.8258 7.2245,6.3095 l 4.6678,26.105"
       id="path84" /><path
       style="fill:#52a87d"
       inkscape:connector-curvature="0"
       d="m 221.78,123.59 7.1179,0 0,-34.104 -7.1179,0 0,34.104 z"
       id="path86" /><path
       style="fill:#f0e7ab"
       inkscape:connector-curvature="0"
       d="m 249.58,72.337 c 0,12.157 -11.285,22.011 -25.204,22.011 -13.919,0 -25.203,-9.8532 -25.203,-22.01 0,-12.1568 11.284,-22.011 25.204,-22.011 13.918,0 25.203,9.8547 25.203,22.011"
       id="path88" /><path
       style="fill:#171311"
       inkscape:connector-curvature="0"
       d="m 216.85,72.896 c 0,1.2673 -1.177,2.2935 -2.6256,2.2935 -1.4508,0 -2.6255,-1.0261 -2.6255,-2.2928 0,-1.2652 1.1755,-2.292 2.6255,-2.292 1.4494,0 2.6248,1.0276 2.6248,2.2928 m 20.07,-0.0014 c 0,1.2673 -1.1769,2.2935 -2.6263,2.2935 -1.4494,0 -2.6248,-1.0261 -2.6248,-2.2928 0,-1.2652 1.1747,-2.292 2.6241,-2.292 1.4508,0 2.6263,1.0276 2.6263,2.2928"
       id="path90" /><path
       style="fill:#f5774e"
       inkscape:connector-curvature="0"
       d="m 227.7,77.482 c 0,1.2666 -1.6729,2.2928 -3.7344,2.2928 -2.0622,0 -3.7336,-1.0261 -3.7336,-2.2928 0,-1.2659 1.6729,-2.2928 3.7344,-2.2928 2.0622,0 3.7344,1.0276 3.7344,2.2928"
       id="path92" /><path
       style="fill:#f0452e"
       inkscape:connector-curvature="0"
       d="m 224.58,86.688 c -2.5412,0 -5.5257,-0.7457 -8.7753,-2.9721 -0.40564,-0.2783 -0.47596,-0.79066 -0.15767,-1.1446 0.3183,-0.35466 0.90529,-0.41674 1.3102,-0.13844 8.4088,5.7622 14.475,0.31683 14.73,0.08207 0.35308,-0.3254 0.94304,-0.3411 1.3176,-0.03352 0.37529,0.30828 0.39528,0.82206 0.0445,1.1503 -0.0503,0.04565 -3.3628,3.0563 -8.4696,3.0563"
       id="path94" /><g
       style="fill:#202320"
       clip-path="url(#a)"
       transform="matrix(0.047818,0,0,-0.041766,98.885,225.78)"
       id="g96"><path
         inkscape:connector-curvature="0"
         d="m 2278.1,3869 c 0,-156.17 -98.61,-294.02 -172.04,-294.02 -73.44,0 -93.9,137.85 -93.9,294.02 0,156.16 59.53,282.76 132.97,282.76 73.43,0 132.97,-126.6 132.97,-282.76 m 966.13,-19.52 c 0,-156.16 -33.7,-295.65 -107.14,-295.65 -73.43,0 -158.79,139.49 -158.79,295.65 0,156.17 59.53,282.76 132.97,282.76 73.43,0 132.96,-126.59 132.96,-282.76"
         id="path98" /></g><path
       style="fill:#202320"
       inkscape:connector-curvature="0"
       d="m 247.9,64.44 c -3.6345,-8.2541 -12.795,-14.115 -23.526,-14.115 -8.7745,0 -16.499,3.9176 -21.013,9.8582 1.6655,0.5566 0.13323,3.7392 1.8535,4.2387 12.8,3.7071 30.175,2.9578 42.685,0.01855"
       id="path100" /><path
       style="fill:#743118"
       inkscape:connector-curvature="0"
       d="m 169.22,107.13 c 0,0 -1.3205,21.62 5.0949,30.417 6.4162,8.7986 31.738,4.6883 39.206,0.51022 7.4688,-4.1788 6.5731,-30.928 6.5731,-30.928 l -50.873,0"
       id="path102" /><path
       style="fill:#3898a8"
       inkscape:connector-curvature="0"
       d="m 211.16,152.07 c 0,3.4844 -3.2348,6.3081 -7.2245,6.3081 l -17.114,0 c -3.9912,0 -7.2245,-2.8237 -7.2245,-6.3081 l 5.1334,-26.105 c 0,-3.4844 3.2347,-6.3081 7.2245,-6.3081 l 7.3133,0 c 3.9898,0 7.2245,2.8237 7.2245,6.3081 l 4.667,26.105"
       id="path104" /><path
       style="fill:#f0e7ab"
       inkscape:connector-curvature="0"
       d="m 219.86,107.13 c 0,12.156 -11.284,22.011 -25.204,22.011 -13.918,0 -25.202,-9.8547 -25.202,-22.011 0,-12.157 11.283,-22.011 25.202,-22.011 13.92,0 25.204,9.8547 25.204,22.011"
       id="path106" /><path
       style="fill:#171311"
       inkscape:connector-curvature="0"
       d="m 187.13,107.69 c 0,1.2659 -1.1754,2.2928 -2.6255,2.2928 -1.4508,0 -2.6255,-1.0276 -2.6255,-2.2928 0,-1.2666 1.1754,-2.2935 2.6255,-2.2935 1.4508,0 2.6255,1.0261 2.6255,2.2928 m 20.069,6.6e-4 c 0,1.2659 -1.1755,2.2928 -2.6255,2.2928 -1.4493,0 -2.6256,-1.0276 -2.6256,-2.2928 0,-1.2666 1.1755,-2.2935 2.6248,-2.2935 1.4508,0 2.6256,1.0262 2.6256,2.2928"
       id="path108" /><path
       style="fill:#f5774e"
       inkscape:connector-curvature="0"
       d="m 197.98,112.27 c 0,1.2652 -1.6729,2.292 -3.7344,2.292 -2.0615,0 -3.7337,-1.0276 -3.7337,-2.2928 0,-1.2666 1.6729,-2.2935 3.7344,-2.2935 2.0622,0 3.7344,1.0276 3.7344,2.2928"
       id="path110" /><path
       style="fill:#f0452e"
       inkscape:connector-curvature="0"
       d="m 194.86,121.48 c -2.5404,0 -5.5257,-0.7457 -8.7745,-2.9728 -0.4049,-0.2783 -0.47596,-0.79066 -0.15692,-1.1439 0.31829,-0.35393 0.90454,-0.4153 1.3102,-0.13771 8.4074,5.7622 14.475,0.31754 14.73,0.0828 0.35234,-0.32539 0.94229,-0.34251 1.3176,-0.0357 0.37454,0.30898 0.39452,0.82348 0.0429,1.151 -0.0488,0.0456 -3.3606,3.0563 -8.4681,3.0563"
       id="path112" /><path
       style="fill:#743118"
       inkscape:connector-curvature="0"
       d="m 169.22,107.13 c 2.7277,-0.40246 10.992,-7.2743 11.692,-10.127 3.6759,1.7219 5.8344,3.057 11.435,4.4835 0.0814,-4.6883 0.13324,-4.4813 1.5811,-7.7453 3.0867,7.133 19.422,12.573 26.167,13.388 0,-12.27 -11.389,-22.215 -25.438,-22.215 -14.049,0 -25.437,9.9453 -25.437,22.215"
       id="path114" /><path
       style="fill:#202320"
       inkscape:connector-curvature="0"
       d="m 227.87,151.19 c 0,7.0074 -6.5036,12.688 -14.527,12.688 -8.0225,0 -14.527,-5.6802 -14.527,-12.688 0,-7.006 6.5043,-12.688 14.527,-12.688 8.024,0 14.527,5.6816 14.527,12.688 m 31.108,0 c 0,7.0074 -6.5035,12.688 -14.526,12.688 -8.024,0 -14.528,-5.6802 -14.528,-12.688 0,-7.006 6.5043,-12.688 14.528,-12.688 8.0224,0 14.527,5.6816 14.527,12.688"
       id="path116" /><path
       style="fill:#e8edc4"
       inkscape:connector-curvature="0"
       d="m 233.6,154.83 -7.3134,0 c -1.6388,0 -3.1437,0.48166 -4.3554,1.2845 l 7.7404,23.616 9.044,-23.045 c -1.308,-1.1467 -3.1163,-1.8553 -5.1171,-1.8553"
       id="path118" /><path
       style="fill:#f0982c"
       inkscape:connector-curvature="0"
       d="m 240.82,161.14 c 0,-1.739 -0.80684,-3.3125 -2.1081,-4.4528 l -9.044,23.044 -7.7404,-23.617 c -1.741,1.1524 -2.8698,2.9714 -2.8698,5.0258 l -5.1342,26.105 c 0,3.4845 3.2348,6.3081 7.2245,6.3081 l 17.114,0 c 3.9898,0 7.226,-2.8237 7.226,-6.3081 l -4.6685,-26.105"
       id="path120" /><path
       style="fill:#f0e7ab"
       inkscape:connector-curvature="0"
       d="m 254.18,142.29 c 0,12.157 -11.284,22.011 -25.204,22.011 -13.918,0 -25.203,-9.8547 -25.203,-22.011 0,-12.157 11.285,-22.011 25.204,-22.011 13.919,0 25.203,9.8547 25.203,22.011"
       id="path122" /><path
       style="fill:#171311"
       inkscape:connector-curvature="0"
       d="m 221.45,142.85 c 0,1.2659 -1.1755,2.2928 -2.6256,2.2928 -1.4508,0 -2.6263,-1.0276 -2.6263,-2.2935 0,-1.2659 1.1769,-2.2928 2.6256,-2.2928 1.4493,0 2.6248,1.0276 2.6248,2.2928 m 20.07,6.7e-4 c 0,1.2659 -1.1747,2.2928 -2.6248,2.2928 -1.4508,0 -2.6248,-1.0276 -2.6248,-2.2935 0,-1.2659 1.1747,-2.2928 2.6248,-2.2928 1.4508,0 2.6248,1.0276 2.6248,2.2928"
       id="path124" /><path
       style="fill:#f5774e"
       inkscape:connector-curvature="0"
       d="m 232.31,147.44 c 0,1.2666 -1.6714,2.2928 -3.7337,2.2928 -2.0608,0 -3.7329,-1.0261 -3.7329,-2.2928 0,-1.2666 1.6729,-2.2928 3.7336,-2.2928 2.063,0 3.7344,1.0254 3.7344,2.292"
       id="path126" /><path
       style="fill:#f0452e"
       inkscape:connector-curvature="0"
       d="m 229.19,156.64 c -2.5412,0 -5.5265,-0.74498 -8.7753,-2.9721 -0.40565,-0.2783 -0.47671,-0.78994 -0.15842,-1.1439 0.31829,-0.35465 0.9053,-0.41602 1.3102,-0.13844 8.4089,5.763 14.475,0.31826 14.73,0.0828 0.35307,-0.32539 0.94303,-0.34253 1.3176,-0.0342 0.37529,0.30684 0.39528,0.82205 0.0429,1.1489 -0.0475,0.0464 -3.3606,3.057 -8.4666,3.057"
       id="path128" /><path
       style="fill:#202320"
       inkscape:connector-curvature="0"
       d="m 254.42,142.29 c -10.6,-1.5628 -14.274,-7.609 -15.986,-11.413 -3.7329,4.4842 -13.801,4.9937 -18.493,4.9937 -14.049,0 -16.394,18.689 -16.394,6.4194 0,-12.269 11.387,-22.215 25.436,-22.215 14.049,0 25.437,9.946 25.437,22.215"
       id="path130" /><path
       style="fill:#171311"
       inkscape:connector-curvature="0"
       d="m 218.89,138.14 c -2.9409,0 -5.3325,2.0908 -5.3325,4.6576 0,2.5675 2.3909,4.6562 5.3325,4.6562 2.9387,0 5.331,-2.0887 5.331,-4.6562 0,-2.5675 -2.3909,-4.6569 -5.331,-4.6569 z m 0,10.129 c -3.4553,0 -6.2659,-2.4547 -6.2659,-5.4711 0,-3.0185 2.8106,-5.4732 6.2659,-5.4732 3.4546,0 6.2652,2.4548 6.2652,5.4732 0,3.0171 -2.8106,5.4711 -6.2652,5.4711 m 20.01,-10.141 c -2.9387,0 -5.331,2.0887 -5.331,4.6569 0,2.5668 2.3924,4.6562 5.3318,4.6562 2.9416,0 5.3333,-2.0894 5.3333,-4.6569 0,-2.5689 -2.3909,-4.6576 -5.3325,-4.6576 z m 0,10.129 c -3.4538,0 -6.2644,-2.4548 -6.2644,-5.4718 0,-3.0185 2.8106,-5.4732 6.2652,-5.4732 3.4568,0 6.2659,2.4547 6.2659,5.4732 0,3.0163 -2.8099,5.4711 -6.2652,5.4711"
       id="path132" /><path
       style="fill:#171311"
       inkscape:connector-curvature="0"
       d="m 224.84,143.23 8.753,0 0,-1.0062 -8.753,0 0,1.0062 z m 19.836,0.0692 9.7435,0 0,-1.0062 -9.7435,0 0,1.0062 z m -41.129,-0.0692 9.7412,0 0,-1.0062 -9.7412,0 0,1.0062 z"
       id="path134" /><path
       style="fill:#e8edc4"
       inkscape:connector-curvature="0"
       d="m 120.61,149.64 18.226,0 0,-22.725 -18.226,0 0,22.725 z"
       id="path136" /><path
       style="fill:#62c58e"
       inkscape:connector-curvature="0"
       d="m 145.43,154.58 c 0,3.4852 -3.2348,6.3096 -7.2245,6.3096 l -17.115,0 c -3.9898,0 -7.2245,-2.8244 -7.2245,-6.3096 l 5.1349,-26.105 c 0,-3.4845 10.647,15.994 10.647,15.994 0,0 11.116,-19.479 11.116,-15.994 l 4.6671,26.105"
       id="path138" /><path
       style="fill:#52a87d"
       inkscape:connector-curvature="0"
       d="m 140.74,128.6 -3.6752,20.483 -7.417,-4.6069 9.1668,-16.691 1.9246,0.81492"
       id="path140" /><path
       style="fill:#52a87d"
       inkscape:connector-curvature="0"
       d="m 118.56,128.6 3.6752,20.483 7.4155,-4.6069 -9.1639,-16.691 -1.9261,0.81492"
       id="path142" /><path
       style="fill:#f0e7ab"
       inkscape:connector-curvature="0"
       d="m 154.12,109.63 c 0,12.157 -11.284,22.011 -25.203,22.011 -13.92,0 -25.204,-9.8547 -25.204,-22.011 0,-12.157 11.285,-22.012 25.204,-22.012 13.919,0 25.203,9.8547 25.203,22.012"
       id="path144" /><path
       style="fill:#171311"
       inkscape:connector-curvature="0"
       d="m 121.39,110.19 c 0,1.2659 -1.1755,2.2928 -2.6256,2.2928 -1.4508,0 -2.6256,-1.0276 -2.6256,-2.2928 0,-1.2666 1.1755,-2.2928 2.6256,-2.2928 1.4508,0 2.6256,1.0261 2.6256,2.2928 m 20.069,0 c 0,1.2659 -1.177,2.2928 -2.6256,2.2928 -1.4508,0 -2.6255,-1.0276 -2.6255,-2.2928 0,-1.2666 1.1747,-2.2928 2.6248,-2.2928 1.4493,0 2.6255,1.0261 2.6255,2.2928"
       id="path146" /><path
       style="fill:#f5774e"
       inkscape:connector-curvature="0"
       d="m 132.25,114.78 c 0,1.2659 -1.6729,2.2928 -3.7337,2.2928 -2.0622,0 -3.7336,-1.0276 -3.7336,-2.2928 0,-1.2659 1.6714,-2.2928 3.7336,-2.2928 2.0615,0 3.7337,1.0276 3.7337,2.2928"
       id="path148" /><path
       style="fill:#f0452e"
       inkscape:connector-curvature="0"
       d="m 129.13,124.8 c -2.5412,0 -5.5265,-0.7457 -8.7753,-2.9721 -0.40491,-0.27688 -0.47597,-0.78995 -0.15768,-1.1432 0.31829,-0.35465 0.90528,-0.41602 1.3102,-0.13844 8.4089,5.7622 14.476,0.31755 14.73,0.0828 0.35307,-0.32612 0.94303,-0.34253 1.3176,-0.0357 0.3753,0.30898 0.39528,0.82276 0.0445,1.151 -0.0496,0.0456 -3.3621,3.0563 -8.4681,3.0563"
       id="path150" /><path
       style="fill:#743118"
       inkscape:connector-curvature="0"
       d="m 154.36,109.63 c -2.7262,-0.40246 -10.991,-7.2743 -11.691,-10.127 -3.6752,1.7226 -5.8329,3.057 -11.435,4.4835 -0.0814,-4.6883 -0.13324,-4.4813 -1.5818,-7.7446 -3.0845,7.133 -19.42,12.573 -26.164,13.388 0,-12.269 11.388,-22.215 25.438,-22.215 14.048,0 25.436,9.946 25.436,22.215"
       id="path152" /><path
       style="fill:#e8edc4"
       inkscape:connector-curvature="0"
       d="m 155.29,183.46 18.226,0 0,-22.724 -18.226,0 0,22.724 z"
       id="path154" /><path
       style="fill:#df3623"
       inkscape:connector-curvature="0"
       d="m 180.11,188.4 c 0,3.4844 -3.2348,6.3081 -7.2245,6.3081 l -17.117,0 c -3.9898,0 -7.2245,-2.8237 -7.2245,-6.3081 l 5.1349,-26.105 c 0,-3.4852 10.647,15.994 10.647,15.994 0,0 11.114,-19.48 11.114,-15.994 l 4.6678,26.105"
       id="path156" /><path
       style="fill:#c23122"
       inkscape:connector-curvature="0"
       d="m 175.42,162.42 -3.6752,20.483 -7.417,-4.6076 9.1668,-16.691 1.9246,0.81563"
       id="path158" /><path
       style="fill:#c23122"
       inkscape:connector-curvature="0"
       d="m 153.24,162.42 3.6752,20.483 7.4155,-4.6076 -9.1661,-16.691 -1.9246,0.81563"
       id="path160" /><path
       style="fill:#f0e7ab"
       inkscape:connector-curvature="0"
       d="m 188.8,143.45 c 0,12.157 -11.285,22.011 -25.204,22.011 -13.919,0 -25.203,-9.8547 -25.203,-22.011 0,-12.157 11.284,-22.011 25.204,-22.011 13.918,0 25.203,9.8547 25.203,22.012"
       id="path162" /><path
       style="fill:#171311"
       inkscape:connector-curvature="0"
       d="m 156.08,144.01 c 0,1.2659 -1.1769,2.2928 -2.6255,2.2928 -1.4508,0 -2.6256,-1.0276 -2.6256,-2.2928 0,-1.2659 1.1755,-2.2928 2.6256,-2.2928 1.4493,0 2.6255,1.0261 2.6255,2.292 m 20.069,6.7e-4 c 0,1.2659 -1.1755,2.2928 -2.6248,2.2928 -1.4508,0 -2.6256,-1.0276 -2.6256,-2.2928 0,-1.2659 1.177,-2.2928 2.6263,-2.2928 1.4494,0 2.6248,1.0261 2.6248,2.292"
       id="path164" /><path
       style="fill:#f5774e"
       inkscape:connector-curvature="0"
       d="m 166.93,148.6 c 0,1.2652 -1.6714,2.292 -3.7329,2.292 -2.0622,0 -3.7336,-1.0276 -3.7336,-2.2928 0,-1.2673 1.6714,-2.2942 3.7336,-2.2942 2.0615,0 3.7337,1.0276 3.7337,2.2935"
       id="path166" /><path
       style="fill:#f0452e"
       inkscape:connector-curvature="0"
       d="m 163.81,158.62 c -2.5412,0 -5.5264,-0.7457 -8.7753,-2.9721 -0.4049,-0.2783 -0.47596,-0.79065 -0.15766,-1.1446 0.3168,-0.35466 0.90305,-0.41603 1.3102,-0.13844 8.4074,5.7622 14.475,0.31684 14.729,0.0821 0.35384,-0.3261 0.94378,-0.34252 1.3191,-0.0342 0.3738,0.30827 0.39379,0.82205 0.0429,1.1489 -0.0496,0.0471 -3.362,3.0577 -8.4681,3.0577"
       id="path168" /><path
       style="fill:#202320"
       inkscape:connector-curvature="0"
       d="m 188.8,143.45 c -2.7277,-0.40246 -10.758,-7.2743 -11.459,-10.127 -3.6759,1.7226 -5.8351,3.0577 -11.435,4.4842 -0.0814,-4.6883 -0.13472,-4.4813 -1.5818,-7.7453 -3.0852,7.133 -19.188,12.572 -25.932,13.387 0,-12.269 11.155,-22.214 25.204,-22.214 14.047,0 25.203,9.9453 25.203,22.214"
       id="path170" /><path
       style="fill:#202320"
       inkscape:connector-curvature="0"
       d="m 143.21,130.53 c -3.0216,3.6293 -4.8084,8.0942 -4.8084,12.926 0,5.5303 2.3391,10.578 6.1956,14.443 0.14065,0 4.4591,-2.4191 5.6656,-4.253 -9.7857,-3.4181 -7.9744,-11.923 -7.0528,-23.116 m 44.426,6.2774 c -1.5915,6.6485 -2.117,15.107 -10.868,17.756 4.5057,2.8101 5.8647,3.3182 5.8647,3.3182 3.8447,-3.8641 6.1771,-8.9056 6.1771,-14.426 0,-2.3192 -0.41305,-4.5513 -1.1733,-6.6485"
       id="path172" /><path
       style="fill:#f0982c"
       inkscape:connector-curvature="0"
       d="m 149.68,202.06 c -0.23465,7.8837 -50.753,7.0952 -50.753,0 l 0,-35.444 50.833,0.92268 c 0,0 0.15545,26.637 -0.0799,34.521"
       id="path174" /><path
       style="fill:#e8edc4"
       inkscape:connector-curvature="0"
       d="m 128.94,180.24 -7.3133,0 c -1.6381,0 -3.143,0.48167 -4.3554,1.2845 l 7.7412,23.616 9.044,-23.045 c -1.308,-1.146 -3.1163,-1.8553 -5.1164,-1.8553"
       id="path176" /><path
       style="fill:#3898a8"
       inkscape:connector-curvature="0"
       d="m 136.17,186.55 c 0,-1.739 -0.80536,-3.3125 -2.1081,-4.4542 l -9.044,23.045 -7.7412,-23.617 c -1.7395,1.1517 -2.8691,2.9714 -2.8691,5.0258 l -5.1341,26.105 c 0,3.4845 3.2348,6.3096 7.2245,6.3096 l 17.115,0 c 3.9898,0 7.2245,-2.8258 7.2245,-6.3103 l -4.6678,-26.105"
       id="path178" /><path
       style="fill:#f0e7ab"
       inkscape:connector-curvature="0"
       d="m 149.53,167.7 c 0,12.157 -11.284,22.011 -25.204,22.011 -13.918,0 -25.202,-9.8547 -25.202,-22.011 0,-12.157 11.284,-22.011 25.203,-22.011 13.92,0 25.204,9.8547 25.204,22.011"
       id="path180" /><path
       style="fill:#171311"
       inkscape:connector-curvature="0"
       d="m 116.8,168.26 c 0,1.2659 -1.1755,2.2928 -2.6256,2.2928 -1.4493,0 -2.6248,-1.0276 -2.6248,-2.2928 0,-1.2666 1.1755,-2.2935 2.6248,-2.2935 1.4508,0 2.6256,1.0276 2.6256,2.2935 m 20.069,0 c 0,1.2659 -1.1755,2.2928 -2.6256,2.2928 -1.4508,0 -2.6248,-1.0276 -2.6248,-2.2928 0,-1.2666 1.1747,-2.2935 2.6248,-2.2935 1.4508,0 2.6256,1.0276 2.6256,2.2935"
       id="path182" /><path
       style="fill:#f5774e"
       inkscape:connector-curvature="0"
       d="m 127.65,172.85 c 0,1.2659 -1.6729,2.2928 -3.7336,2.2928 -2.0622,0 -3.7337,-1.0276 -3.7337,-2.2928 0,-1.2666 1.6707,-2.2928 3.7329,-2.2928 2.0615,0 3.7336,1.0261 3.7336,2.2928"
       id="path184" /><path
       style="fill:#f0452e"
       inkscape:connector-curvature="0"
       d="m 124.53,182.05 c -2.5412,0 -5.5265,-0.74499 -8.7753,-2.9714 -0.40563,-0.2783 -0.4767,-0.79066 -0.15766,-1.1446 0.3183,-0.35465 0.90454,-0.41602 1.3102,-0.13843 8.4089,5.7629 14.475,0.31754 14.73,0.0828 0.35235,-0.32612 0.94304,-0.34252 1.3176,-0.0357 0.37456,0.30898 0.39454,0.82347 0.0429,1.151 -0.0489,0.0456 -3.3606,3.0563 -8.4681,3.0563"
       id="path186" /><path
       style="fill:#f0982c"
       inkscape:connector-curvature="0"
       d="m 149.76,167.7 c -10.6,-1.5628 -14.275,-7.609 -15.987,-11.413 -3.7337,4.4835 -13.801,4.993 -18.494,4.993 -14.049,0 -16.394,18.69 -16.394,6.4209 0,-12.2691 11.389,-22.214 25.437,-22.214 14.049,0 25.438,9.9446 25.438,22.214"
       id="path188" /><g
       clip-path="url(#b)"
       transform="matrix(0.047818,0,0,-0.056747,98.885,221.66)"
       id="g190"><path
         style="fill:#743118"
         inkscape:connector-curvature="0"
         d="m 3647.7,2180.7 c 0,0 -192.14,-1520.3 1465.3,-1520.3 1657.5,0 1426.8,1520.3 1426.8,1520.3 l -2892.2,0"
         id="path192" /><path
         style="fill:#e8edc4"
         inkscape:connector-curvature="0"
         d="m 4621.5,263.85 1036.2,0 0,1088.7 -1036.2,0 0,-1088.7 z"
         id="path194" /><path
         style="fill:#3898a8"
         inkscape:connector-curvature="0"
         d="m 6032.4,27.218 c 0,-166.95 -183.9,-302.28 -410.7,-302.28 l -973,0 c -226.83,0 -410.7,135.33 -410.7,302.28 l 291.8,1250.7 c 0,166.95 605.36,-766.31 605.36,-766.31 0,0 631.85,933.26 631.85,766.31 l 265.4,-1250.7"
         id="path196" /><path
         style="fill:#318696"
         inkscape:connector-curvature="0"
         d="m 5765.8,1272 -208.97,-981.31 -421.57,220.74 521.08,799.64 109.46,-39.067 m -1261.1,0 208.95,-981.31 421.6,220.74 -521.11,799.64 -109.44,-39.067"
         id="path198" /><path
         style="fill:#f0e7ab"
         inkscape:connector-curvature="0"
         d="m 6526.6,2180.7 c 0,-582.44 -641.5,-1054.6 -1432.8,-1054.6 -791.33,0 -1432.8,472.14 -1432.8,1054.6 0,582.45 641.49,1054.6 1432.8,1054.6 791.31,0 1432.8,-472.12 1432.8,-1054.6"
         id="path200" /><path
         style="fill:#171311"
         inkscape:connector-curvature="0"
         d="m 4665.9,2153.9 c 0,-60.676 -66.83,-109.84 -149.24,-109.84 -82.43,0 -149.27,49.165 -149.27,109.84 0,60.662 66.84,109.86 149.27,109.86 82.41,0 149.24,-49.202 149.24,-109.86 m 1141,0 c 0,-60.676 -66.83,-109.84 -149.24,-109.84 -82.43,0 -149.26,49.165 -149.26,109.84 0,60.662 66.83,109.86 149.26,109.86 82.41,0 149.24,-49.202 149.24,-109.86"
         id="path202" /><path
         style="fill:#f5774e"
         inkscape:connector-curvature="0"
         d="m 5282.8,1934.2 c 0,-60.676 -95.04,-109.84 -212.27,-109.84 -117.23,0 -212.27,49.165 -212.27,109.84 0,60.654 95.04,109.86 212.27,109.86 117.23,0 212.27,-49.202 212.27,-109.86"
         id="path204" /><path
         style="fill:#f0452e"
         inkscape:connector-curvature="0"
         d="m 5105.5,1454.1 c -144.46,0 -314.16,35.689 -498.88,142.39 -23.05,13.314 -27.07,37.86 -8.96,54.796 18.07,16.972 51.43,19.953 74.51,6.6388 477.99,-276.11 822.9,-15.206 837.36,-3.9598 20.09,15.603 53.65,16.347 74.96,1.634 21.31,-14.75 22.43,-39.362 2.44,-55.083 -2.78,-2.2007 -191.11,-146.41 -481.43,-146.41"
         id="path206" /><path
         style="fill:#743118"
         inkscape:connector-curvature="0"
         d="m 6539.9,2180.7 c -155.06,19.261 -624.88,348.47 -664.67,485.17 -208.97,-82.492 -331.69,-146.47 -650.08,-214.82 -4.63,224.59 -7.63,214.67 -89.9,371.07 -175.43,-341.76 -1104.1,-602.36 -1487.5,-641.42 0,587.81 647.43,1064.3 1446.1,1064.3 798.66,0 1446.1,-476.52 1446.1,-1064.3"
         id="path208" /></g><path
       style="fill:#171311"
       inkscape:connector-curvature="0"
       d="m 398.93,141.84 c -27.035,27.761 -74.891,31.137 -106.68,7.5262 -31.788,-23.611 -35.655,-65.405 -8.6198,-93.166 27.036,-27.762 74.892,-31.139 106.68,-7.5284 31.787,23.611 35.654,65.405 8.6191,93.168 z M 409.07,29.41 C 387.78,13.597 360.71,5.971 332.85,7.935 c -27.86,1.9669 -53.17,13.289 -71.28,31.883 -18.106,18.593 -26.839,42.23 -24.588,66.561 2.2517,24.329 15.216,46.436 36.506,62.25 21.29,15.813 48.356,23.44 76.213,21.474 22.618,-1.5963 43.558,-9.3594 60.326,-22.174 l 76.482,56.807 c 2.1037,1.5628 5.26,1.3394 7.0484,-0.49737 l 13.687,-14.053 c 1.7876,-1.8375 1.5322,-4.5927 -0.56997,-6.1561 l -76.483,-56.809 c 11.792,-16.511 17.204,-35.808 15.377,-55.56 -2.2525,-24.33 -15.216,-46.438 -36.506,-62.251"
       id="path210" /><path
       style="fill:#202320"
       inkscape:connector-curvature="0"
       d="m 70.188,53.939 c -0.23466,7.8852 -50.753,7.0966 -50.753,0 l 0,-22.806 50.833,0.92338 c 0,0 0.15545,14.001 -0.0799,21.886"
       id="path46-2" /><path
       style="fill:#e1d89e"
       inkscape:connector-curvature="0"
       d="m 49.45,44.755 -7.3133,0 c -1.6381,0 -3.143,0.48168 -4.3547,1.2845 l 7.7404,23.616 9.044,-23.045 C 53.2592,45.4645 51.4501,44.7552 49.45,44.7552"
       id="path48-9" /><path
       style="fill:#3898a8"
       inkscape:connector-curvature="0"
       d="m 56.675,43.319 c 0,6.0063 -0.80536,4.4314 -2.1081,3.2911 l -8.3926,17.873 -8.3911,-18.443 c -1.7395,1.151 -2.8698,2.9707 -2.8698,5.0237 l -5.133,26.105 c 0,3.4845 3.2348,6.3096 7.2245,6.3096 l 17.115,0 c 3.9898,0 7.2245,-2.8258 7.2245,-14.055 l -4.6678,-26.105"
       id="path50-1" /><path
       style="fill:#318696"
       inkscape:connector-curvature="0"
       d="m 57.266,48.607 -3.6759,20.484 -7.417,-4.6076 7.075,-17.452 4.0172,1.5756"
       id="path52-2" /><path
       style="fill:#318696"
       inkscape:connector-curvature="0"
       d="m 35.083,48.607 3.6752,20.484 7.417,-4.6076 -7.2393,-17.214 -3.8528,1.338"
       id="path54-7" /><path
       style="fill:#f0e7ab"
       inkscape:connector-curvature="0"
       d="m 70.036,32.221 c 0,12.157 -11.285,22.011 -25.204,22.011 -13.919,0 -25.203,-9.8547 -25.203,-22.011 0,-12.157 11.284,-22.011 25.204,-22.011 13.918,0 25.203,9.8532 25.203,22.011"
       id="path56-0" /><path
       style="fill:#171311"
       inkscape:connector-curvature="0"
       d="m 37.306,32.781 c 0,1.2666 -1.177,2.2928 -2.6255,2.2928 -1.4508,0 -2.6256,-1.0261 -2.6256,-2.2928 0,-1.2659 1.1755,-2.2928 2.6256,-2.2928 1.4493,0 2.6248,1.0276 2.6248,2.2928 m 20.069,0 c 0,1.2666 -1.1754,2.2928 -2.6248,2.2928 -1.4508,0 -2.6255,-1.0261 -2.6255,-2.2928 0,-1.2659 1.1747,-2.2928 2.6248,-2.2928 1.4494,0 2.6248,1.0276 2.6248,2.2928"
       id="path58-9" /><path
       style="fill:#f5774e"
       inkscape:connector-curvature="0"
       d="m 48.158,37.367 c 0,1.2666 -1.6729,2.2935 -3.7344,2.2935 -2.0622,0 -3.7337,-1.0276 -3.7337,-2.2935 0,-1.2652 1.6729,-2.2928 3.7344,-2.2928 2.0622,0 3.7337,1.0276 3.7337,2.2928"
       id="path60-3" /><path
       style="fill:#f0452e"
       inkscape:connector-curvature="0"
       d="m 45.038,46.573 c -2.5412,0 -5.5257,-0.7457 -8.7753,-2.9721 -0.40563,-0.2783 -0.47596,-0.79066 -0.15767,-1.1439 0.3183,-0.35536 0.90455,-0.41745 1.3102,-0.13915 8.4088,5.763 14.475,0.31755 14.73,0.0821 0.35308,-0.32539 0.94304,-0.34109 1.3176,-0.0343 0.37529,0.30827 0.39454,0.82206 0.0429,1.1503 -0.0488,0.0457 -3.3606,3.0563 -8.4681,3.0563"
       id="path62-6" /><path
       style="fill:#202320"
       inkscape:connector-curvature="0"
       d="M 70.268,32.221 C 59.67,30.6582 44.964,23.1855 43.253,19.381 c -3.7344,4.4849 -4.2118,5.9692 -9.7301,6.9882 -13.746,2.5375 -14.129,18.122 -14.129,5.8528 0,-12.2692 11.388,-22.215 25.437,-22.215 14.049,0 25.437,9.9474 25.437,22.215"
       id="path64-0" /><path
       style="fill:#df3623"
       inkscape:connector-curvature="0"
       d="m 95.276,113.74 c 0,3.4852 -3.2347,6.3096 -7.2245,6.3096 l -17.115,0 c -3.9898,0 -7.2245,-2.8258 -7.2245,-6.3103 l 5.1341,-26.105 c 0,-3.4852 3.2347,-6.3095 7.2245,-6.3095 l 7.3133,0 c 3.9898,0 7.2245,2.8244 7.2245,6.3095 l 4.6671,26.105"
       id="path66-6" /><path
       style="fill:#f0982c"
       inkscape:connector-curvature="0"
       d="m 74.789,120.05 9.8005,0 0,-34.107 -9.8005,0 0,34.107 z"
       id="path68-2" /><path
       style="fill:#f0e7ab"
       inkscape:connector-curvature="0"
       d="m 103.97,68.787 c 0,12.157 -11.285,22.011 -25.204,22.011 -13.92,0 -25.204,-9.8547 -25.204,-22.011 0,-12.157 11.285,-22.011 25.204,-22.011 13.919,0 25.204,9.8547 25.204,22.011"
       id="path70-6" /><path
       style="fill:#171311"
       inkscape:connector-curvature="0"
       d="m 71.239,69.348 c 0,1.2659 -1.1755,2.2928 -2.6256,2.2928 -1.4494,0 -2.6248,-1.0276 -2.6248,-2.2928 0,-1.2666 1.1747,-2.2935 2.6241,-2.2935 1.4508,0 2.6256,1.0276 2.6256,2.2935 m 20.071,0 c 0,1.2659 -1.177,2.2928 -2.6263,2.2928 -1.4493,0 -2.6248,-1.0276 -2.6248,-2.2928 0,-1.2666 1.1755,-2.2935 2.6248,-2.2935 1.4508,0 2.6263,1.0276 2.6263,2.2935"
       id="path72-1" /><path
       style="fill:#f5774e"
       inkscape:connector-curvature="0"
       d="m 82.091,73.934 c 0,1.2659 -1.6714,2.2928 -3.7337,2.2928 -2.0622,0 -3.7337,-1.0276 -3.7337,-2.2928 0,-1.2666 1.6714,-2.2928 3.7337,-2.2928 2.0622,0 3.7337,1.0261 3.7337,2.2928"
       id="path74-8" /><path
       style="fill:#f0452e"
       inkscape:connector-curvature="0"
       d="m 78.972,83.139 c -2.5412,0 -5.5257,-0.74499 -8.7752,-2.9721 -0.40564,-0.27831 -0.47597,-0.79066 -0.15767,-1.1439 0.31829,-0.35466 0.90454,-0.41602 1.3102,-0.13773 8.4089,5.7615 14.475,0.31613 14.73,0.0813 0.35308,-0.32611 0.94302,-0.34252 1.3176,-0.0342 0.3753,0.30685 0.39455,0.82206 0.0445,1.1489 -0.0503,0.0464 -3.3636,3.057 -8.4696,3.057"
       id="path76-7" /><path
       style="fill:#f0982c"
       inkscape:connector-curvature="0"
       d="m 104.2,68.787 c -2.402,-0.35466 -3.408,-6.7163 -8.927,-10.126 -5.5183,-3.411 -4.2163,3.8712 -15.781,3.8712 -11.564,0 -11.292,-7.3371 -16.542,-3.9747 -5.2511,3.3631 -6.562,9.8589 -9.6228,10.229 0,-12.269 11.388,-22.214 25.437,-22.214 14.048,0 25.437,9.9446 25.437,22.214"
       id="path78-9" /><path
       style="fill:#171311"
       inkscape:connector-curvature="0"
       d="m 68.673,64.704 c -2.9401,0 -5.3325,2.0887 -5.3325,4.6562 0,2.5689 2.3931,4.6576 5.3333,4.6576 2.9387,0 5.3318,-2.0894 5.3318,-4.6569 0,-2.5668 -2.3924,-4.6555 -5.3318,-4.6555 z m 0,10.129 c -3.4553,0 -6.2659,-2.4548 -6.2659,-5.4732 0,-3.0163 2.8106,-5.4711 6.2659,-5.4711 3.4546,0 6.2652,2.4548 6.2652,5.4718 0,3.0185 -2.8113,5.4732 -6.2659,5.4732 m 20.011,-10.142 c -2.9401,0 -5.3318,2.0887 -5.3318,4.6569 0,2.5675 2.3909,4.6562 5.3318,4.6562 2.9401,0 5.3318,-2.0894 5.3318,-4.6569 0,-2.5689 -2.3909,-4.6569 -5.331,-4.6569 z m 0,10.129 c -3.4546,0 -6.2652,-2.4548 -6.2652,-5.4718 0,-3.0185 2.8106,-5.4732 6.2652,-5.4732 3.4553,0 6.2652,2.4548 6.2652,5.4732 0,3.017 -2.8098,5.4718 -6.2652,5.4718"
       id="path80-2" /><path
       style="fill:#171311"
       inkscape:connector-curvature="0"
       d="m 74.624,69.795 8.7531,0 0,-1.0076 -8.7538,0 0,1.0076 z m 19.835,0.0692 9.7442,0 0,-1.0062 -9.7442,0 0,1.0062 z M 53.33,69.795 l 9.7427,0 0,-1.0076 -9.7427,0 0,1.0076 z"
       id="path82-0" /><path
       style="fill:#e8edc4"
       inkscape:connector-curvature="0"
       d="m 37.983,143.49 18.226,0 0,-22.725 -18.226,0 0,22.725 z"
       id="path136-9" /><path
       style="fill:#62c58e"
       inkscape:connector-curvature="0"
       d="m 62.801,148.43 c 0,3.4852 -3.2348,6.3096 -7.2245,6.3096 l -17.115,0 c -3.9898,0 -7.2245,-2.8244 -7.2245,-6.3096 l 5.1349,-26.105 c 0,-3.4845 10.647,15.994 10.647,15.994 0,0 11.116,-19.479 11.116,-15.994 l 4.6671,26.105"
       id="path138-2" /><path
       style="fill:#52a87d"
       inkscape:connector-curvature="0"
       d="m 58.11,122.44 -3.6752,20.483 -7.417,-4.6069 9.1668,-16.691 1.9246,0.81492"
       id="path140-2" /><path
       style="fill:#52a87d"
       inkscape:connector-curvature="0"
       d="m 35.928,122.44 3.6752,20.483 7.4155,-4.6069 -9.1639,-16.691 -1.9261,0.81492"
       id="path142-8" /><path
       style="fill:#f0e7ab"
       inkscape:connector-curvature="0"
       d="m 71.494,103.48 c 0,12.157 -11.284,22.011 -25.203,22.011 -13.92,0 -25.204,-9.8547 -25.204,-22.011 0,-12.157 11.285,-22.012 25.204,-22.012 13.919,0 25.203,9.8547 25.203,22.012"
       id="path144-9" /><path
       style="fill:#171311"
       inkscape:connector-curvature="0"
       d="m 38.764,104.04 c 0,1.2659 -1.1755,2.2928 -2.6256,2.2928 -1.4508,0 -2.6255,-1.0276 -2.6255,-2.2928 0,-1.2666 1.1755,-2.2928 2.6255,-2.2928 1.4508,0 2.6256,1.0261 2.6256,2.2928 m 20.069,0 c 0,1.2659 -1.177,2.2928 -2.6256,2.2928 -1.4508,0 -2.6255,-1.0276 -2.6255,-2.2928 0,-1.2666 1.1747,-2.2928 2.6248,-2.2928 1.4493,0 2.6255,1.0261 2.6255,2.2928"
       id="path146-7" /><path
       style="fill:#f5774e"
       inkscape:connector-curvature="0"
       d="m 49.616,108.62 c 0,1.2659 -1.6729,2.2928 -3.7337,2.2928 -2.0622,0 -3.7336,-1.0276 -3.7336,-2.2928 0,-1.2659 1.6714,-2.2928 3.7336,-2.2928 2.0615,0 3.7337,1.0276 3.7337,2.2928"
       id="path148-3" /><path
       style="fill:#f0452e"
       inkscape:connector-curvature="0"
       d="m 46.497,118.64 c -2.5412,0 -5.5265,-0.7457 -8.7753,-2.9721 -0.40491,-0.27688 -0.47597,-0.78995 -0.15768,-1.1432 0.31829,-0.35465 0.90528,-0.41602 1.3102,-0.13844 8.4089,5.7622 14.476,0.31755 14.73,0.0828 0.35307,-0.32612 0.94303,-0.34253 1.3176,-0.0357 0.3753,0.30898 0.39528,0.82276 0.0445,1.151 -0.0496,0.0456 -3.3621,3.0563 -8.4681,3.0563"
       id="path150-6" /><path
       style="fill:#e8edc4"
       inkscape:connector-curvature="0"
       d="m 72.663,177.31 18.226,0 0,-22.724 -18.226,0 0,22.724 z"
       id="path154-2" /><path
       style="fill:#df3623"
       inkscape:connector-curvature="0"
       d="m 97.481,182.25 c 0,3.4844 -3.2348,6.3081 -7.2245,6.3081 l -17.117,0 c -3.9898,0 -7.2245,-2.8237 -7.2245,-6.3081 l 5.1349,-26.105 c 0,-3.4852 10.647,15.994 10.647,15.994 0,0 11.114,-19.48 11.114,-15.994 l 4.6678,26.105"
       id="path156-9" /><path
       style="fill:#c23122"
       inkscape:connector-curvature="0"
       d="m 92.791,156.26 -3.6752,20.483 -7.417,-4.6076 9.1669,-16.691 1.9246,0.81563"
       id="path158-3" /><path
       style="fill:#c23122"
       inkscape:connector-curvature="0"
       d="m 70.609,156.26 3.6752,20.483 7.4155,-4.6076 -9.1661,-16.691 -1.9246,0.81563"
       id="path160-1" /><path
       style="fill:#f0e7ab"
       inkscape:connector-curvature="0"
       d="m 106.17,137.3 c 0,12.157 -11.285,22.011 -25.204,22.011 -13.919,0 -25.203,-9.8547 -25.203,-22.011 0,-12.157 11.284,-22.011 25.204,-22.011 13.918,0 25.203,9.8547 25.203,22.012"
       id="path162-9" /><path
       style="fill:#171311"
       inkscape:connector-curvature="0"
       d="m 73.445,137.86 c 0,1.2659 -1.1769,2.2928 -2.6255,2.2928 -1.4508,0 -2.6256,-1.0276 -2.6256,-2.2928 0,-1.2659 1.1755,-2.2928 2.6256,-2.2928 1.4493,0 2.6255,1.0261 2.6255,2.292 m 20.069,6.7e-4 c 0,1.2659 -1.1755,2.2928 -2.6248,2.2928 -1.4508,0 -2.6256,-1.0276 -2.6256,-2.2928 0,-1.2659 1.177,-2.2928 2.6263,-2.2928 1.4494,0 2.6248,1.0261 2.6248,2.292"
       id="path164-4" /><path
       style="fill:#f5774e"
       inkscape:connector-curvature="0"
       d="m 84.295,142.45 c 0,1.2652 -1.6714,2.292 -3.7329,2.292 -2.0622,0 -3.7336,-1.0276 -3.7336,-2.2928 0,-1.2673 1.6714,-2.2942 3.7336,-2.2942 2.0615,0 3.7337,1.0276 3.7337,2.2935"
       id="path166-7" /><path
       style="fill:#f0452e"
       inkscape:connector-curvature="0"
       d="m 81.177,152.47 c -2.5412,0 -5.5264,-0.7457 -8.7753,-2.9721 -0.4049,-0.2783 -0.47596,-0.79065 -0.15766,-1.1446 0.3168,-0.35466 0.90305,-0.41603 1.3102,-0.13844 8.4074,5.7622 14.475,0.31684 14.729,0.0821 0.35384,-0.3261 0.94378,-0.34252 1.3191,-0.0342 0.3738,0.30827 0.39379,0.82205 0.0429,1.1489 -0.0496,0.0471 -3.362,3.0577 -8.4681,3.0577"
       id="path168-8" /><path
       style="fill:#202320"
       inkscape:connector-curvature="0"
       d="m 106.17,137.3 c -2.7277,-0.40246 -10.758,-7.2743 -11.459,-10.127 -3.6759,1.7226 -5.8351,3.0577 -11.435,4.4842 -0.0814,-4.6883 -0.13472,-4.4813 -1.5818,-7.7453 -3.0852,7.133 -19.188,12.572 -25.932,13.387 0,-12.269 11.155,-22.214 25.204,-22.214 14.047,0 25.203,9.9453 25.203,22.214"
       id="path170-4" /><path
       style="fill:#202320"
       inkscape:connector-curvature="0"
       d="m 60.576,124.37 c -3.0216,3.6293 -4.8084,8.0942 -4.8084,12.926 0,5.5303 2.3391,10.578 6.1956,14.443 0.14065,0 4.4591,-2.4191 5.6656,-4.253 -9.7857,-3.4181 -7.9744,-11.923 -7.0528,-23.116 m 44.426,6.2774 c -1.5915,6.6485 -2.117,15.107 -10.868,17.756 4.5057,2.8101 5.8647,3.3182 5.8647,3.3182 3.8447,-3.8641 6.1771,-8.9056 6.1771,-14.426 0,-2.3192 -0.41305,-4.5513 -1.1733,-6.6485"
       id="path172-5" /><path
       style="fill:#743118"
       inkscape:connector-curvature="0"
       d="m 67.048,195.9 c -0.23465,7.8837 -50.753,7.0952 -50.753,0 l 0,-35.444 50.833,0.92268 c 0,0 0.15545,26.637 -0.0799,34.521"
       id="path174-0" /><path
       style="fill:#e8edc4"
       inkscape:connector-curvature="0"
       d="m 46.31,174.08 -7.3133,0 c -1.6381,0 -3.143,0.48167 -4.3554,1.2845 l 7.7412,23.616 9.044,-23.045 c -1.308,-1.146 -3.1163,-1.8553 -5.1164,-1.8553"
       id="path176-3" /><path
       style="fill:#3898a8"
       inkscape:connector-curvature="0"
       d="m 53.535,180.39 c 0,-1.739 -0.80536,-3.3125 -2.1081,-4.4542 l -9.044,23.045 -7.7412,-23.617 c -1.7395,1.1517 -2.8691,2.9714 -2.8691,5.0258 l -5.1341,26.105 c 0,3.4845 3.2348,6.3096 7.2245,6.3096 l 17.115,0 c 3.9898,0 7.2245,-2.8258 7.2245,-6.3103 l -4.6678,-26.105"
       id="path178-6" /><path
       style="fill:#f0e7ab"
       inkscape:connector-curvature="0"
       d="m 66.895,161.55 c 0,12.157 -11.284,22.011 -25.204,22.011 -13.918,0 -25.202,-9.8547 -25.202,-22.011 0,-12.157 11.284,-22.011 25.203,-22.011 13.92,0 25.204,9.8547 25.204,22.011"
       id="path180-1" /><path
       style="fill:#171311"
       inkscape:connector-curvature="0"
       d="m 34.166,162.11 c 0,1.2659 -1.1755,2.2928 -2.6256,2.2928 -1.4493,0 -2.6248,-1.0276 -2.6248,-2.2928 0,-1.2666 1.1755,-2.2935 2.6248,-2.2935 1.4508,0 2.6256,1.0276 2.6256,2.2935 m 20.069,0 c 0,1.2659 -1.1755,2.2928 -2.6256,2.2928 -1.4508,0 -2.6248,-1.0276 -2.6248,-2.2928 0,-1.2666 1.1747,-2.2935 2.6248,-2.2935 1.4508,0 2.6256,1.0276 2.6256,2.2935"
       id="path182-0" /><path
       style="fill:#f5774e"
       inkscape:connector-curvature="0"
       d="m 45.017,166.69 c 0,1.2659 -1.6729,2.2928 -3.7336,2.2928 -2.0622,0 -3.7337,-1.0276 -3.7337,-2.2928 0,-1.2666 1.6707,-2.2928 3.7329,-2.2928 2.0615,0 3.7336,1.0261 3.7336,2.2928"
       id="path184-6" /><path
       style="fill:#f0452e"
       inkscape:connector-curvature="0"
       d="m 41.898,175.9 c -2.5412,0 -5.5265,-0.74499 -8.7753,-2.9714 -0.40563,-0.2783 -0.4767,-0.79066 -0.15766,-1.1446 0.3183,-0.35465 0.90454,-0.41602 1.3102,-0.13843 8.4089,5.7629 14.475,0.31754 14.73,0.0828 0.35235,-0.32612 0.94304,-0.34252 1.3176,-0.0357 0.37456,0.30898 0.39454,0.82347 0.0429,1.151 -0.0489,0.0456 -3.3606,3.0563 -8.4681,3.0563"
       id="path186-3" /><path
       style="fill:#743118"
       inkscape:connector-curvature="0"
       d="m 67.13,161.55 c -10.6,-1.5628 -14.275,-7.609 -15.987,-11.413 -3.7337,4.4835 -13.801,4.993 -18.494,4.993 -14.049,0 -16.394,18.69 -16.394,6.4209 0,-12.2691 11.389,-22.214 25.437,-22.214 14.049,0 25.438,9.9446 25.438,22.214"
       id="path188-2" /><path
       style="fill:#743118"
       inkscape:connector-curvature="0"
       d="m 71.066,102.13 c -10.6,-1.56 -14.275,-7.606 -15.986,-11.41 -3.7329,4.4842 -13.801,4.993 -18.494,4.993 -14.049,0 -16.394,18.689 -16.394,6.4202 0,-12.2688 11.389,-22.214 25.438,-22.214 14.048,0 25.437,9.9453 25.437,22.214"
       id="path24-0" /></g></svg>