<?xml version="1.0" encoding="UTF-8" standalone="no"?>
<!-- Created with Inkscape (http://www.inkscape.org/) -->
<svg id="svg2" xmlns:rdf="http://www.w3.org/1999/02/22-rdf-syntax-ns#" xmlns="http://www.w3.org/2000/svg" xml:space="preserve" width="1173" height="321" viewBox="0 0 1763 923"  version="1.1" xmlns:cc="http://creativecommons.org/ns#" xmlns:dc="http://purl.org/dc/elements/1.1/"><metadata id="metadata8"><rdf:RDF><cc:Work rdf:about=""><dc:format>image/svg+xml</dc:format><dc:type rdf:resource="http://purl.org/dc/dcmitype/StillImage"/><dc:title/></cc:Work></rdf:RDF></metadata><g id="g10" transform="matrix(1.25,0,0,-1.25,0,923)"><g id="g4554" transform="matrix(1.0779 0 0 .96038 266.78 -31.243)"><g fill="#fff"><path id="path52" d="m489.59 27.444c0-0.3199-0.096-0.6679-0.291-1.0339-0.191-0.3704-0.488-0.718-0.885-1.05-0.395-0.3321-0.892-0.6032-1.496-0.8039-0.6-0.2024-1.28-0.3063-2.03-0.3063-1.606 0-2.858 0.4691-3.758 1.4012-0.895 0.9347-1.345 2.189-1.345 3.7597 0 1.0672 0.204 2.0063 0.619 2.8243 0.407 0.814 1.004 1.4468 1.781 1.8929 0.779 0.4489 1.716 0.6699 2.794 0.6699 0.674 0 1.288-0.0968 1.853-0.2949 0.56-0.1949 1.032-0.4511 1.424-0.7582 0.387-0.3148 0.686-0.6437 0.89-0.9929 0.207-0.3508 0.308-0.6801 0.308-0.9868 0-0.307-0.114-0.5711-0.343-0.7871-0.235-0.2152-0.516-0.3242-0.839-0.3242-0.219 0-0.398 0.0563-0.541 0.166-0.144 0.1121-0.305 0.2903-0.479 0.5422-0.317 0.4781-0.646 0.8418-0.996 1.0789-0.342 0.243-0.78 0.3621-1.313 0.3621-0.762 0-1.384-0.298-1.854-0.8972-0.467-0.5957-0.703-1.42-0.703-2.4539 0-0.4891 0.063-0.9399 0.183-1.3481 0.117-0.407 0.291-0.7559 0.52-1.0437 0.231-0.2872 0.504-0.5051 0.826-0.6543 0.325-0.1539 0.681-0.2258 1.064-0.2258 0.522 0 0.967 0.1199 1.337 0.3609 0.376 0.241 0.702 0.607 0.986 1.102 0.158 0.291 0.327 0.5179 0.509 0.684 0.183 0.1628 0.409 0.2492 0.676 0.2492 0.316 0 0.58-0.1231 0.786-0.3633 0.211-0.2399 0.317-0.4988 0.317-0.7688"/><path id="path54" d="m498.18 29.504c0 1.059-0.234 1.8813-0.698 2.4691-0.463 0.5961-1.09 0.8879-1.874 0.8879-0.508 0-0.955-0.132-1.343-0.3937-0.386-0.2613-0.68-0.6492-0.889-1.1641-0.209-0.514-0.316-1.1133-0.316-1.7992 0-0.6777 0.103-1.2668 0.31-1.773 0.208-0.511 0.502-0.8977 0.885-1.1661 0.386-0.2668 0.835-0.4039 1.353-0.4039 0.784 0 1.411 0.2961 1.874 0.8911 0.464 0.591 0.698 1.4109 0.698 2.4519m2.604 0c0-0.7687-0.122-1.484-0.356-2.1379-0.247-0.6531-0.592-1.2129-1.049-1.6789-0.456-0.4691-1.003-0.8281-1.632-1.0801-0.64-0.2468-1.35-0.375-2.139-0.375-0.785 0-1.493 0.1282-2.121 0.3828-0.623 0.2493-1.171 0.6141-1.626 1.0821-0.461 0.4761-0.809 1.034-1.052 1.6773-0.229 0.643-0.35 1.3539-0.35 2.1297 0 0.7871 0.124 1.5063 0.358 2.159 0.242 0.6543 0.589 1.2121 1.039 1.6723 0.451 0.4617 0.993 0.8179 1.631 1.0707 0.643 0.2492 1.349 0.3742 2.121 0.3742 0.784 0 1.498-0.125 2.139-0.3821 0.637-0.2511 1.182-0.614 1.643-1.0789 0.458-0.475 0.803-1.03 1.04-1.6722 0.234-0.6508 0.354-1.3598 0.354-2.143"/><path id="path56" d="m510.67 29.314v-3.4461c0-0.5469-0.12-0.9508-0.369-1.2278-0.25-0.2722-0.571-0.4082-0.977-0.4082-0.393 0-0.714 0.136-0.952 0.4082-0.247 0.277-0.372 0.6809-0.372 1.2278v4.1312c0 0.6528-0.02 1.1617-0.063 1.5238-0.046 0.3532-0.168 0.6551-0.362 0.8829-0.197 0.2351-0.509 0.3511-0.931 0.3511-0.851 0-1.407-0.2898-1.677-0.8808-0.267-0.5762-0.406-1.4133-0.406-2.5063v-3.5019c0-0.5379-0.122-0.9469-0.361-1.2239-0.249-0.273-0.568-0.4121-0.965-0.4121-0.396 0-0.717 0.1391-0.967 0.4121-0.252 0.277-0.376 0.686-0.376 1.2239v7.4191c0 0.4891 0.111 0.8598 0.335 1.1109 0.229 0.2571 0.526 0.3821 0.89 0.3821 0.356 0 0.651-0.1231 0.891-0.3559 0.237-0.2383 0.355-0.5664 0.355-0.9844v-0.2449c0.453 0.5352 0.934 0.9313 1.444 1.1801 0.517 0.2602 1.082 0.3859 1.713 0.3859 0.651 0 1.211-0.1308 1.678-0.389 0.469-0.261 0.853-0.6559 1.16-1.177 0.439 0.5281 0.909 0.9231 1.41 1.1801 0.5 0.257 1.053 0.3859 1.662 0.3859 0.706 0 1.321-0.1418 1.834-0.4187 0.51-0.2781 0.893-0.6793 1.148-1.1953 0.22-0.4727 0.33-1.2098 0.33-2.2168v-5.0621c0-0.5469-0.122-0.9508-0.368-1.2278-0.246-0.2722-0.575-0.4082-0.979-0.4082-0.395 0-0.714 0.1391-0.965 0.4121-0.25 0.277-0.376 0.686-0.376 1.2239v4.3609c0 0.559-0.023 1.0031-0.069 1.3383-0.047 0.3367-0.177 0.6199-0.383 0.8469-0.212 0.2269-0.53 0.3429-0.953 0.3429-0.342 0-0.666-0.1058-0.974-0.307-0.306-0.1988-0.547-0.477-0.72-0.8129-0.186-0.4383-0.285-1.2129-0.285-2.323"/></g><path id="path78" d="m616.34 223.02-0.015-5.519c-0.12-42.106-27.791-84.148-83.069-116.27-111.28-64.67-292.3-64.67-404.31-0.002-56.362 32.541-84.511 75.255-84.39 117.9l0.016 5.519c-0.121-42.649 28.028-85.363 84.39-117.9 112.01-64.668 293.02-64.668 404.31 0.002 55.278 32.124 82.95 74.166 83.069 116.27" fill="#60caed"/><path id="path80" d="m533.52 342.7c112.01-64.669 112.6-169.52 1.326-234.18-111.28-64.67-292.3-64.67-404.31-0.002-112.01 64.669-112.59 169.52-1.309 234.18 111.27 64.665 292.28 64.67 404.29 0.002" fill="#77d0f5"/><g id="g4315" transform="translate(-72.867 74.609)"><path id="path82" d="m592.82 233.41-58.73-34.14-131.89 76.15 58.74 34.13 131.88-76.14" fill="#d1d2d0"/><path id="path84" d="m592.82 233.41-0.033-11.482-58.734-34.132 0.032 11.481 58.735 34.133" fill="#bbbdba"/><path id="path86" d="m534.09 199.27-0.032-11.481-131.89 76.145 0.033 11.482 131.89-76.146" fill="#e8e8e6"/><path id="path88" d="m459.81 309.03-0.115-40.562 50.084-28.916 24.469 14.22 0.035 12.261-24.389 14.08-50.084 28.917" fill="#2f3031"/><path id="path90" d="m509.78 239.55 24.469 14.22 0.035 12.261-24.389 14.08-0.115-40.561" fill="#171717"/><path id="path92" d="m654.86 199.34c0.597 0.029 1.177 0.099 1.738 0.209h0.001-0.001c-0.561-0.11-1.141-0.18-1.738-0.209" fill="#040606"/><path id="path94" d="m665.96 224.16-362.03 209.02-0.028-9.92c-0.005-1.669 0.135-3.382 0.407-5.108 0.698-4.345 2.218-8.819 4.348-13.034 1.281-2.538 2.784-4.988 4.465-7.259 1.117-1.513 2.3-2.949 3.562-4.289 2.512-2.675 5.281-4.95 8.185-6.627l134.94-77.904 50.084-28.917 24.389-14.08 110.55-63.824c2.903-1.677 5.665-2.595 8.195-2.832 0.627-0.055 1.241-0.068 1.837-0.04 0.597 0.029 1.177 0.099 1.738 0.209h0.001c1.189 0.236 2.289 0.67 3.292 1.272l-0.121-0.084 24.468 14.22c0.458 0.266 0.895 0.569 1.309 0.906 2.158 1.739 3.698 4.447 4.407 7.979 0.293 1.401 0.442 2.947 0.446 4.616l0.029 9.92-0.001 0.001-24.468-14.22" fill="#e8e8e6"/><path id="path96" d="m690.43 238.38-24.468-14.22-0.715 0.413c0.368-1.638 0.599-3.326 0.676-5.046 0.355-7.922-3.631-15.182-9.615-20.012 0.095 0.016 0.198 0.016 0.292 0.035h0.001c1.189 0.236 2.289 0.67 3.292 1.272l-0.121-0.084 24.468 14.22c0.458 0.266 0.895 0.569 1.309 0.906 2.158 1.739 3.698 4.447 4.407 7.98 0.293 1.4 0.442 2.946 0.446 4.615l0.029 9.92-0.001 0.001" fill="#d1d2d0"/><g fill="#040606"><path id="path98" d="m316.9 656.44 0.001 0.002-0.001-0.002-0.609-214.82 0.609 214.82"/><path id="path100" d="m320.09 662.33h-0.002l-0.239-0.112-0.049-0.023c0.097 0.045 0.19 0.098 0.29 0.135"/><path id="path102" d="m320.76 662.52h-0.003l-0.256-0.072-0.056-0.017c0.105 0.03 0.206 0.067 0.315 0.089"/><path id="path104" d="m319.47 662.04-0.002-0.001-0.035-0.024-0.004-0.003 0.041 0.028"/><path id="path106" d="m318.4 661.17-0.001-0.001-0.021-0.027-0.002-0.003 0.024 0.031"/><path id="path108" d="m317.09 658.35-0.001-0.001-0.002-0.015v-0.003l0.003 0.019"/><path id="path110" d="m321.48 662.62h-0.003c-0.091-0.005-0.177-0.023-0.267-0.033l-0.065-0.008c0.112 0.013 0.22 0.035 0.335 0.041"/><path id="path112" d="m317.6 659.93-0.001-0.001-0.01-0.025-0.001-0.004 0.012 0.03"/><path id="path114" d="m319.48 662.05 0.007 0.004-0.007-0.004"/><path id="path116" d="m323.89 662.24-0.001 0.001-0.265 0.074-0.065 0.018c0.111-0.032 0.219-0.055 0.331-0.093"/><path id="path118" d="m324.76 661.89-0.001 0.001-0.221 0.088-0.069 0.028c0.097-0.041 0.192-0.072 0.291-0.117"/><path id="path120" d="m323.05 662.48h-0.001c-0.102 0.022-0.198 0.029-0.298 0.046l-0.055 0.009c0.118-0.019 0.233-0.029 0.354-0.055"/><path id="path122" d="m322.25 662.6h-0.002c-0.097 0.008-0.188 0.003-0.283 0.006l-0.062 0.002c0.116-0.004 0.228 0.002 0.347-0.008"/></g><path id="path124" d="m312.27 677.78c0.279 0.104 0.578 0.169 0.869 0.25 0.253 0.071 0.496 0.161 0.757 0.213 0.305 0.062 0.629 0.082 0.945 0.119 0.266 0.031 0.522 0.083 0.796 0.096 0.334 0.017 0.685-0.01 1.03-0.02 0.273-0.008 0.537 0.006 0.815-0.019 0.365-0.033 0.746-0.11 1.121-0.172 0.274-0.045 0.54-0.067 0.819-0.128 0.395-0.086 0.803-0.22 1.207-0.338 0.273-0.08 0.539-0.135 0.817-0.23 0.473-0.161 0.959-0.373 1.444-0.578 0.218-0.093 0.43-0.16 0.65-0.261 0.71-0.327 1.43-0.7 2.158-1.12l319.95-184.73c11.614-6.706 21.005-22.97 20.967-36.33l-0.653-230.38 24.468 14.22 0.654 230.38c0.037 13.359-9.353 29.624-20.967 36.33l-319.96 184.73c-5.843 3.373-11.139 3.686-14.964 1.464l-24.469-14.22 0.036 0.017c0.256 0.147 0.533 0.256 0.802 0.381 0.233 0.108 0.456 0.235 0.698 0.326" fill="#171717"/><path id="path126" d="m319.42 662.01c-0.378-0.223-0.722-0.503-1.024-0.843l-0.024-0.031c-0.302-0.346-0.565-0.746-0.78-1.204l-0.012-0.03c-0.215-0.464-0.384-0.981-0.499-1.552l-0.003-0.019c-0.115-0.577-0.177-1.207-0.179-1.888l-0.001-0.002-0.609-214.82 337.4-194.8 0.609 214.82c0.015 5.527-3.884 12.281-8.694 15.058l-319.97 184.72c-0.302 0.174-0.6 0.328-0.894 0.464v-0.001c-0.098 0.045-0.193 0.076-0.29 0.117l0.069-0.028c-0.218 0.094-0.436 0.187-0.648 0.26l0.001-0.001c-0.112 0.038-0.22 0.061-0.331 0.093l0.065-0.018c-0.192 0.058-0.386 0.119-0.573 0.16h0.001c-0.121 0.026-0.236 0.036-0.354 0.055l0.055-0.009c-0.17 0.029-0.342 0.063-0.507 0.078h0.002c-0.119 0.01-0.231 0.004-0.347 0.008l0.062-0.002c-0.162 0.007-0.326 0.017-0.483 0.01h0.003c-0.115-0.006-0.223-0.028-0.335-0.041l0.065 0.008c-0.153-0.016-0.308-0.028-0.455-0.057h0.003c-0.109-0.022-0.21-0.059-0.315-0.089l0.056 0.017c-0.141-0.038-0.284-0.071-0.418-0.121h0.002c-0.1-0.037-0.193-0.09-0.29-0.135l0.049 0.023c-0.122-0.054-0.248-0.103-0.363-0.169l-0.007-0.004-0.013-0.009 0.001 0.001-0.04-0.028" fill="#82d6f6"/><path id="path128" d="m317.08 658.35c0.116 0.573 0.286 1.092 0.501 1.557l0.01 0.025c0.216 0.459 0.48 0.862 0.783 1.208l0.021 0.027c0.303 0.342 0.649 0.623 1.029 0.847l0.035 0.024 0.013 0.009 0.007 0.004c0.115 0.066 0.241 0.115 0.363 0.169l0.239 0.112c0.134 0.05 0.277 0.083 0.418 0.121l0.256 0.072c0.147 0.029 0.302 0.041 0.455 0.057 0.09 0.01 0.176 0.028 0.267 0.033 0.157 0.007 0.321-0.003 0.483-0.01 0.095-0.003 0.186 0.002 0.283-0.006 0.165-0.015 0.337-0.049 0.507-0.078 0.1-0.017 0.196-0.024 0.298-0.046 0.187-0.041 0.381-0.102 0.573-0.16l0.265-0.074c0.212-0.073 0.43-0.166 0.648-0.26l0.221-0.088c0.294-0.136 0.592-0.29 0.894-0.464l319.95-184.75c4.81-2.777 8.709-9.531 8.694-15.058l-0.609-214.82-337.4 194.8 0.609 214.82c0.002 0.682 0.065 1.314 0.18 1.893l0.002 0.015zm348.88-434.19 0.653 230.38c0.038 13.36-9.353 29.624-20.967 36.33l-319.95 184.72c-0.728 0.42-1.448 0.793-2.158 1.12-0.22 0.101-0.432 0.168-0.65 0.261-0.485 0.205-0.971 0.417-1.444 0.578-0.278 0.095-0.544 0.15-0.817 0.23-0.404 0.118-0.812 0.252-1.207 0.338-0.279 0.061-0.545 0.083-0.819 0.128-0.375 0.062-0.756 0.139-1.121 0.172-0.278 0.025-0.542 0.011-0.815 0.019-0.345 0.01-0.696 0.037-1.03 0.02-0.273-0.013-0.53-0.065-0.796-0.096-0.316-0.037-0.64-0.057-0.945-0.119-0.261-0.052-0.504-0.142-0.757-0.213-0.291-0.081-0.59-0.146-0.869-0.25-0.242-0.091-0.465-0.218-0.698-0.326-0.269-0.125-0.546-0.234-0.802-0.381-3.798-2.187-6.157-6.862-6.176-13.521l-0.653-230.38v-0.001l362.03-209.02" fill="#2f3031"/><path id="path130" d="m358.52 424.2-42.012 24.415-32.982-19.042 42.013-24.415 32.981 19.042" fill="#ecf9f9"/><path id="path132" d="m325.54 405.16-42.013 24.415 0.047-16.478 42.012-24.415-0.046 16.478" fill="#fff"/><path id="path134" d="m325.58 388.68-42.012 24.415-21.404-12.357 42.012-24.415 21.404 12.357" fill="#ecf9f9"/><path id="path136" d="m304.18 376.32-42.012 24.415 0.047-16.47 42.012-24.415-0.047 16.47" fill="#fff"/><path id="path138" d="m282.81 347.49-42.013 24.415 0.047-16.469 42.012-24.415-0.046 16.469" fill="#fff"/><path id="path140" d="m304.22 359.85-42.012 24.415-21.412-12.362 42.013-24.415 21.411 12.362" fill="#f4f9f8"/><path id="path142" d="m261.46 318.66-42.012 24.414 0.047-16.469 42.012-24.415-0.047 16.47" fill="#fff"/><path id="path144" d="m282.86 331.02-42.012 24.415-21.404-12.358 42.012-24.414 21.404 12.357" fill="#f4f9f8"/><path id="path146" d="m240.1 289.84-42.012 24.414 0.047-16.469 42.012-24.415-0.047 16.47" fill="#fff"/><path id="path148" d="m261.5 302.2-42.012 24.415-21.404-12.358 42.012-24.414 21.404 12.357" fill="#f4f9f8"/><path id="path150" d="m240.15 273.37-42.012 24.415-21.404-12.358 42.012-24.414 21.404 12.357" fill="#ecf9f9"/><path id="path152" d="m218.74 261.01-42.012 24.414 0.047-16.478 42.011-24.414-0.046 16.478" fill="#fff"/><path id="path154" d="m358.52 424.2-32.982-19.042 0.047-16.478-21.404-12.357 0.047-16.47-21.411-12.362 0.046-16.469-21.404-12.357 0.047-16.47-21.404-12.357 0.047-16.47-21.404-12.357 0.047-16.478-21.412-12.362 0.049-17.213 5.931 3.436-0.01 10.341 21.411 12.362-0.046 16.478 21.404 12.357-0.047 16.47 21.404 12.358-0.047 16.469 21.405 12.357-0.047 16.47 21.411 12.362-0.046 16.469 21.403 12.358-0.046 16.478 27.011 15.594v6.883" fill="#e4f2f4"/><path id="path156" d="m218.79 244.53-42.011 24.414-21.412-12.362 42.012-24.414 21.411 12.362" fill="#ecf9f9"/><path id="path158" d="m155.36 256.58 0.049-17.213 42.012-24.414-0.049 17.213-42.012 24.414" fill="#fff"/><path id="path160" d="m659.54 518.93 0.022-7.767-21.701-12.529c-16.943-9.783-30.683-33.59-30.628-53.059l0.355-125.26-6.766-3.907-0.355 125.26c-0.068 23.764 16.699 52.797 37.372 64.733l21.701 12.529" fill="#bc193b"/><path id="path162" d="m600.72 553.11-21.7-12.529c-20.67-11.93-37.44-40.97-37.37-64.73l0.355-125.26 58.817-34.18-0.355 125.26c-0.068 23.764 16.699 52.797 37.372 64.733l21.701 12.529-58.817 34.18" fill="#ea1444"/><g fill="#f9bb16"><path id="path164" d="m546.72 417.06 0.575 0.334 16.746-6.871-0.575-0.334-16.746 6.871"/><path id="path166" d="m583.01 382.52 0.575 0.334 2.803-20.805-0.575-0.334-2.803 20.805"/><path id="path168" d="m571 423.31 0.575 0.334 7.434-21.755-0.574-0.334-7.435 21.755"/></g><path id="path170" d="m571 423.31 7.435-21.755 16.73-12.456-12.15-6.572 2.803-20.805-14.942 17.685-15-0.398 2.917 17.503-12.073 20.556 16.746-6.871 7.534 13.113" fill="#fbd137"/><path id="path172" d="m578.43 401.55 0.574 0.334 16.73-12.456-0.574-0.334-16.73 12.456" fill="#f9bb16"/><g fill="#bcc6ae"><path id="path174" d="m424.08 441.79v0.001l-0.007-2.432h0.001l0.006 2.431"/><path id="path176" d="m424.11 452.97-0.007-2.431 0.007 2.431"/><path id="path178" d="m424.14 464.14-0.007-2.422 0.007 2.422"/><path id="path180" d="m424.18 475.32-0.007-2.431h0.001l0.006 2.431"/><path id="path182" d="m424.21 486.5-0.007-2.431 0.007 2.431"/><path id="path184" d="m424.24 497.68-0.007-2.432 0.007 2.432"/><path id="path186" d="m424.27 508.85-0.007-2.432h0.001l0.006 2.432"/><path id="path188" d="m424.3 520.02-0.007-2.423 0.007 2.423"/></g><path id="path190" d="m424.07 439.36h0.001-0.001z" fill="#cfdabe"/><path id="path192" d="m501.04 397.36-76.962 44.433 76.962-44.433" fill="#4e74ac"/><path id="path194" d="m424.11 450.54z" fill="#cfdabe"/><path id="path196" d="m501.07 408.54-76.961 44.433 76.961-44.433" fill="#4e74ac"/><path id="path198" d="m424.14 461.72z" fill="#cfdabe"/><path id="path200" d="m501.11 419.71-76.961 44.433 76.961-44.433" fill="#4e74ac"/><path id="path202" d="m424.14 464.14-0.007-2.422 76.961-44.434 0.007 2.423-76.961 44.433" fill="#37547c"/><path id="path204" d="m424.33 528.77z" fill="#cfdabe"/><path id="path206" d="m424.41 558.9-0.085-30.131 0.085 30.131" fill="#bcc6ae"/><path id="path208" d="m424.17 472.89h-0.001 0.001" fill="#cfdabe"/><path id="path210" d="m501.14 430.89-76.962 44.433 76.962-44.433" fill="#4e74ac"/><path id="path212" d="m424.2 484.07z" fill="#cfdabe"/><path id="path214" d="m456.74 467.72-32.528 18.78 32.528-18.78" fill="#4e74ac"/><path id="path216" d="m424.21 486.5-0.007-2.431 76.962-44.434 0.006 2.431-44.433 25.654-32.528 18.78" fill="#37547c"/><path id="path218" d="m424.23 495.24 44.434-25.653-44.434 25.653" fill="#cfdabe"/><path id="path220" d="m501.2 453.24-32.528 18.78 32.528-18.78" fill="#4e74ac"/><path id="path222" d="m424.23 495.24 44.434-25.653 32.527-18.78 0.007 2.431-32.528 18.78-44.433 25.654-0.007-2.432" fill="#37547c"/><path id="path224" d="m424.33 528.77 26.214-15.135 0.086 30.131-26.215 15.135-0.085-30.131" fill="#37547c"/><path id="path226" d="m424.26 506.42h-0.001 0.001" fill="#cfdabe"/><path id="path228" d="m456.8 490.07-32.528 18.78 32.528-18.78" fill="#4e74ac"/><path id="path230" d="m424.3 517.6z" fill="#cfdabe"/><path id="path232" d="m501.26 473.16v0.001l-44.433 25.653 44.433-25.654" fill="#cfdabe"/><path id="path234" d="m424.3 520.02-0.007-2.423 32.528-18.78 44.433-25.653 0.007 2.422-76.961 44.434" fill="#37547c"/><path id="path236" d="m501.26 475.59-76.961 44.434 76.961-44.434" fill="#4e74ac"/><path id="path238" d="m424.08 439.36h-0.001l0.007 2.432v-0.001l76.962-44.433-0.007-2.432-76.961 44.434zm0.038 13.609 76.961-44.433-0.007-2.432-76.961 44.434 0.007 2.431zm0.032 11.169 76.961-44.433-0.007-2.423-76.961 44.434 0.007 2.422zm0.031 11.178 76.962-44.433-0.007-2.432-76.961 44.434h-0.001l0.007 2.431zm0.032 11.178 32.528-18.78 44.433-25.654-0.006-2.431-76.962 44.434 0.007 2.431zm0.032 11.178 44.433-25.654 32.528-18.78-0.007-2.431-32.527 18.78-44.434 25.653 0.007 2.432zm0.031 11.178 32.528-18.78 44.434-25.654-0.007-2.431-76.961 44.433h-0.001l0.007 2.432zm0.032 11.169 76.961-44.434-0.007-2.422v-0.001l-44.433 25.654-32.528 18.78 0.007 2.423zm0.11 38.877 26.215-15.135-0.086-30.131-26.214 15.135 0.085 30.131zm-12.305 24.136-0.435-153.54 101.67-58.698 0.435 153.54-101.67 58.699" fill="#fff"/><g fill="#37547c"><path id="path240" d="m501.04 397.36-76.962 44.433-0.006-2.431 76.961-44.434 0.007 2.432"/><path id="path242" d="m424.11 452.97-0.007-2.431 76.961-44.434 0.007 2.432-76.961 44.433"/><path id="path244" d="m424.18 475.32-0.006-2.431 76.961-44.434 0.007 2.432-76.962 44.433"/><path id="path246" d="m424.27 508.85-0.006-2.432 76.961-44.433 0.007 2.431-44.434 25.654-32.528 18.78"/></g><path id="path248" d="m513.78 524.34-0.435-153.54 4.201 2.442 0.436 153.54-4.202-2.442" fill="#eaf4f8"/><path id="path250" d="m517.98 526.78-101.67 58.698-4.201-2.441 101.67-58.699 4.202 2.442" fill="#f7fbfd"/><path id="path252" d="m313.19 623.32-45.342 26.178-4.201-2.442 49.529-28.595 0.014 4.859" fill="#f9c017"/><path id="path254" d="m313.19 625.84-0.007-2.523-0.014-4.859-49.529 28.595-0.064-22.644 49.529-28.595-0.021-7.374 14.115 1.216 14.124 1.211-14.071 17.489-14.062 17.484" fill="#fbd237"/><path id="path256" d="m331.46 610.8-14.063 17.484-4.201-2.441 14.062-17.484 14.071-17.489 4.201 2.441-14.07 17.489" fill="#f9c017"/><g fill="#7aabe0"><path id="path354" d="m422.7 412.48c-0.046-0.119-0.087-0.241-0.139-0.352 0.052 0.111 0.093 0.233 0.139 0.352"/><path id="path356" d="m423.12 414.97c-0.001-0.28-0.014-0.55-0.039-0.809 0.025 0.259 0.038 0.529 0.039 0.809"/><path id="path358" d="m422.43 411.89c-0.056-0.102-0.108-0.209-0.17-0.304 0.062 0.095 0.114 0.202 0.17 0.304"/><path id="path360" d="m423.05 413.93c-0.022-0.173-0.042-0.348-0.075-0.511 0.033 0.163 0.053 0.338 0.075 0.511"/><path id="path362" d="m395.26 451.9 0.265-0.066-0.265 0.066"/><path id="path364" d="m422.9 413.16c-0.035-0.141-0.066-0.286-0.109-0.418 0.043 0.132 0.075 0.277 0.109 0.418"/><path id="path366" d="m396.3 451.62c0.117-0.038 0.235-0.079 0.354-0.122-0.119 0.043-0.237 0.084-0.354 0.122"/><path id="path368" d="m394.07 452.06 0.199-0.01-0.199 0.01"/><path id="path370" d="m391.27 451.68 0.123 0.039-0.123-0.039"/><path id="path372" d="m393.01 452.06c0.1 0.008 0.2 0.016 0.302 0.019-0.102-0.003-0.202-0.011-0.302-0.019"/><path id="path374" d="m392.1 451.93c0.092 0.021 0.187 0.035 0.281 0.052-0.094-0.017-0.189-0.031-0.281-0.052"/><path id="path376" d="m397.42 451.19c0.112-0.049 0.222-0.094 0.335-0.147-0.113 0.053-0.223 0.098-0.335 0.147"/><path id="path378" d="m422.1 411.38-0.198-0.258 0.198 0.258"/><path id="path380" d="m381.98 449.4c-0.11-0.022-0.213-0.06-0.321-0.09 0.108 0.03 0.211 0.068 0.321 0.09"/><path id="path382" d="m383.5 449.48c-0.118 0.011-0.23 0.005-0.346 0.008 0.116-0.003 0.228 0.003 0.346-0.008"/><path id="path384" d="m382.38 449.46c0.113 0.013 0.222 0.035 0.338 0.041-0.116-0.006-0.225-0.028-0.338-0.041"/><path id="path386" d="m381.28 449.21c-0.104-0.039-0.2-0.093-0.3-0.14 0.1 0.047 0.196 0.101 0.3 0.14"/><path id="path388" d="m421.72 410.94-0.223-0.213 0.223 0.213"/><path id="path390" d="m386.08 448.75c-0.108 0.05-0.213 0.084-0.32 0.128 0.107-0.044 0.212-0.078 0.32-0.128"/><path id="path392" d="m384.33 449.35c-0.118 0.026-0.23 0.035-0.346 0.054 0.116-0.019 0.228-0.028 0.346-0.054"/><path id="path394" d="m385.19 449.11c-0.119 0.04-0.233 0.064-0.349 0.098 0.116-0.034 0.23-0.058 0.349-0.098"/></g><path id="path396" d="m381.28 449.21c0.119 0.045 0.247 0.072 0.371 0.107 0.108 0.03 0.211 0.068 0.321 0.09 0.13 0.027 0.268 0.035 0.403 0.051 0.113 0.013 0.222 0.035 0.338 0.041 0.143 0.007 0.293-0.004 0.44-0.009 0.116-0.003 0.228 0.003 0.346-0.008 0.156-0.014 0.319-0.047 0.48-0.074 0.116-0.019 0.228-0.028 0.346-0.054 0.168-0.036 0.341-0.093 0.513-0.143 0.116-0.034 0.23-0.058 0.349-0.098 0.187-0.064 0.38-0.149 0.572-0.23 0.107-0.044 0.212-0.078 0.32-0.128 0.302-0.139 0.609-0.298 0.919-0.477 0.224-0.129 0.448-0.28 0.672-0.431 0.332 0.876 0.781 1.619 1.32 2.234-2.254 1.133-4.287 1.19-5.785 0.319l-2.579-1.498 0.016 0.007c0.108 0.062 0.225 0.108 0.338 0.161 0.1 0.047 0.196 0.101 0.3 0.14" fill="#bde1f5"/><path id="path398" d="m421.21 426.66c-0.846 5.145-4.428 10.702-8.726 13.184-0.449 0.259-0.888 0.464-1.318 0.637-2.125 4.781-5.683 9.157-9.719 11.488-3.289 1.899-6.269 2.074-8.422 0.823l-2.579-1.498 0.061 0.029c0.246 0.139 0.5 0.262 0.766 0.364l0.123 0.039c0.23 0.082 0.467 0.151 0.711 0.205 0.092 0.021 0.187 0.035 0.281 0.052 0.205 0.036 0.414 0.062 0.627 0.079 0.1 0.008 0.2 0.016 0.302 0.019 0.247 0.009 0.498 0.003 0.755-0.014l0.199-0.01c0.323-0.029 0.655-0.081 0.992-0.152l0.265-0.066c0.256-0.061 0.515-0.133 0.779-0.218 0.117-0.038 0.235-0.079 0.354-0.122 0.252-0.091 0.507-0.194 0.764-0.306 0.112-0.049 0.222-0.094 0.335-0.147 0.366-0.172 0.734-0.359 1.109-0.576 4.036-2.33 7.594-6.707 9.719-11.488 0.43-0.172 0.869-0.378 1.317-0.637 4.298-2.481 7.881-8.039 8.727-13.184 2.636-2.71 4.501-6.733 4.491-10.185-0.001-0.28-0.014-0.55-0.039-0.809l-0.034-0.234c-0.022-0.173-0.042-0.348-0.075-0.511-0.018-0.091-0.045-0.172-0.067-0.26-0.034-0.141-0.066-0.286-0.109-0.418-0.029-0.091-0.067-0.171-0.1-0.258-0.046-0.119-0.087-0.241-0.139-0.352l-0.129-0.235c-0.056-0.102-0.108-0.209-0.17-0.304l-0.157-0.209-0.198-0.258-0.184-0.179-0.223-0.213-0.211-0.146-0.234-0.164 2.578 1.499c1.274 0.74 2.063 2.314 2.07 4.55 0.009 3.451-1.855 7.475-4.492 10.185" fill="#bde1f5"/><path id="path400" d="m421.72 410.94 0.184 0.179 0.198 0.258 0.157 0.209c0.062 0.095 0.114 0.202 0.17 0.304l0.129 0.235c0.052 0.111 0.093 0.233 0.139 0.352 0.033 0.087 0.071 0.167 0.1 0.258 0.043 0.132 0.074 0.277 0.109 0.418 0.022 0.088 0.049 0.169 0.067 0.26 0.033 0.163 0.053 0.338 0.075 0.511l0.034 0.234c0.025 0.259 0.038 0.529 0.039 0.809 0.01 3.452-1.855 7.475-4.491 10.185-0.846 5.145-4.429 10.703-8.727 13.184-0.448 0.259-0.887 0.465-1.317 0.637-2.125 4.781-5.683 9.158-9.719 11.488-0.375 0.217-0.743 0.404-1.109 0.576-0.113 0.053-0.223 0.098-0.335 0.147-0.257 0.112-0.512 0.215-0.764 0.306-0.119 0.043-0.237 0.084-0.354 0.122-0.264 0.085-0.523 0.157-0.779 0.218l-0.265 0.066c-0.337 0.071-0.669 0.123-0.992 0.152l-0.199 0.01c-0.257 0.017-0.508 0.023-0.755 0.014-0.102-0.003-0.202-0.011-0.302-0.019-0.213-0.017-0.422-0.043-0.627-0.079-0.094-0.017-0.189-0.031-0.281-0.052-0.244-0.054-0.481-0.123-0.711-0.205l-0.123-0.039c-0.266-0.102-0.52-0.225-0.766-0.364-0.562-0.318-1.067-0.734-1.509-1.239-0.539-0.615-0.988-1.358-1.32-2.234-0.224 0.151-0.448 0.302-0.672 0.431-0.31 0.179-0.617 0.338-0.919 0.477-0.108 0.05-0.213 0.084-0.32 0.128-0.192 0.081-0.385 0.166-0.572 0.23-0.119 0.04-0.233 0.064-0.349 0.098-0.172 0.05-0.345 0.107-0.513 0.143-0.118 0.026-0.23 0.035-0.346 0.054-0.161 0.027-0.324 0.06-0.48 0.074-0.118 0.011-0.23 0.005-0.346 0.008-0.147 0.005-0.297 0.016-0.44 0.009-0.116-0.006-0.225-0.028-0.338-0.041-0.135-0.016-0.273-0.024-0.403-0.051-0.11-0.022-0.213-0.06-0.321-0.09-0.124-0.035-0.252-0.062-0.371-0.107-0.104-0.039-0.2-0.093-0.3-0.14-0.113-0.053-0.23-0.099-0.338-0.161-1.617-0.93-2.621-2.92-2.629-5.751-0.016-5.684 3.979-12.604 8.926-15.46l29.066-16.782c2.095-1.209 3.974-1.241 5.275-0.329l0.211 0.146 0.223 0.213" fill="#fff"/><path id="path402" d="m495.79 628.21 4.201 2.442c-0.841 3.162-1.683 6.319-2.526 9.478l-5.734 3.31c1.35-5.072 2.708-10.149 4.059-15.23" fill="#f9c017"/><path id="path404" d="m480.18 661.77-0.005-1.81 30.447-17.578 0.005 1.81-30.447 17.578" fill="#fff"/><path id="path406" d="m510.64 649.38-30.446 17.578-0.005-1.819 30.446-17.579 0.005 1.82" fill="#fff"/><path id="path408" d="m510.8 669.87-22.272 12.858c-3.93 2.269-7.493 2.479-10.067 0.983l-4.201-2.441 0.026 0.012c0.171 0.098 0.357 0.171 0.536 0.255 0.158 0.073 0.309 0.159 0.473 0.22 0.19 0.071 0.393 0.115 0.591 0.17 0.167 0.047 0.329 0.107 0.502 0.142 0.207 0.042 0.426 0.056 0.641 0.081 0.177 0.02 0.349 0.055 0.531 0.064 0.219 0.011 0.449-0.007 0.675-0.013 0.189-0.006 0.373 0.004 0.567-0.014 0.237-0.021 0.485-0.072 0.728-0.111 0.193-0.032 0.38-0.048 0.576-0.09 0.266-0.058 0.541-0.148 0.814-0.228 0.183-0.053 0.361-0.09 0.547-0.153 0.307-0.105 0.623-0.244 0.937-0.376 0.158-0.066 0.312-0.116 0.472-0.189 0.477-0.22 0.961-0.47 1.451-0.753l22.271-12.859c7.81-4.508 14.13-15.455 14.104-24.429-0.001-0.559-0.028-1.098-0.077-1.615-0.017-0.171-0.051-0.325-0.072-0.491-0.043-0.337-0.082-0.678-0.146-0.995-0.04-0.198-0.099-0.375-0.146-0.565-0.066-0.265-0.125-0.539-0.205-0.788-0.061-0.188-0.14-0.355-0.209-0.534-0.088-0.23-0.168-0.468-0.269-0.683-0.08-0.171-0.178-0.321-0.266-0.482-0.109-0.2-0.21-0.408-0.331-0.593-0.098-0.152-0.213-0.281-0.319-0.422-0.129-0.172-0.25-0.353-0.389-0.509-0.116-0.13-0.247-0.238-0.37-0.358-0.147-0.143-0.287-0.295-0.444-0.424-0.133-0.109-0.281-0.195-0.421-0.293-0.154-0.107-0.301-0.228-0.463-0.322l4.201 2.441c2.539 1.476 4.115 4.614 4.128 9.075 0.025 8.974-6.295 19.92-14.104 24.429" fill="#f9c017"/><path id="path410" d="m480.17 659.96 0.005 1.81 30.447-17.578-0.005-1.81-30.447 17.578zm30.461-12.401-30.446 17.579 0.005 1.819 30.446-17.578-0.005-1.82zm0.015 5.187-30.447 17.578 0.006 1.82 30.446-17.579-0.005-1.819zm7.252-17.781c0.123 0.12 0.254 0.228 0.37 0.358 0.139 0.156 0.26 0.337 0.389 0.509 0.106 0.141 0.221 0.27 0.319 0.422 0.121 0.185 0.222 0.393 0.331 0.593 0.088 0.161 0.186 0.311 0.266 0.482 0.101 0.215 0.181 0.453 0.269 0.683 0.069 0.179 0.148 0.346 0.209 0.534 0.08 0.249 0.139 0.523 0.205 0.788 0.047 0.19 0.106 0.367 0.146 0.565 0.064 0.317 0.103 0.658 0.146 0.995 0.021 0.166 0.055 0.32 0.072 0.491 0.049 0.517 0.076 1.056 0.077 1.615 0.026 8.974-6.294 19.921-14.104 24.429l-22.271 12.859c-0.49 0.283-0.974 0.533-1.451 0.753-0.16 0.073-0.314 0.123-0.472 0.189-0.314 0.132-0.63 0.271-0.937 0.376-0.186 0.063-0.364 0.1-0.547 0.153-0.273 0.08-0.548 0.17-0.814 0.228-0.196 0.042-0.383 0.058-0.576 0.09-0.243 0.039-0.491 0.09-0.728 0.111-0.194 0.018-0.378 0.008-0.567 0.014-0.226 0.006-0.456 0.024-0.675 0.013-0.182-0.009-0.354-0.044-0.531-0.064-0.215-0.025-0.434-0.039-0.641-0.081-0.173-0.035-0.335-0.095-0.502-0.142-0.198-0.055-0.401-0.099-0.591-0.17-0.164-0.062-0.315-0.147-0.473-0.22-0.179-0.084-0.365-0.157-0.536-0.255-2.555-1.471-4.143-4.613-4.155-9.085-0.023-7.845 4.8-17.191 11.235-22.431 3.843-7.826 8.808-15.274 14.425-21.557-1.351 5.081-2.709 10.158-4.059 15.23l5.734-3.31 9.04-5.219c4.179-2.413 7.932-2.48 10.532-0.663 0.14 0.098 0.288 0.184 0.421 0.293 0.157 0.129 0.297 0.281 0.444 0.424" fill="#fbd137"/><path id="path412" d="m480.21 672.15-0.006-1.82 30.447-17.578 0.005 1.819-30.446 17.579" fill="#fff"/><g fill="#3c5d8b"><path id="path414" d="m371.23 516.1-0.072 0.021 0.073-0.022-0.001 0.001"/><path id="path416" d="m371.15 516.12-0.005 0.002 0.005-0.002"/><path id="path418" d="m371.46 516.05h-0.001l-0.08 0.004h-0.001l0.082-0.004"/><path id="path420" d="m367.38 528.98-0.025-8.858c-0.002-0.682 0.07-1.334 0.216-1.949-0.146 0.615-0.218 1.267-0.216 1.949l0.025 8.858"/><path id="path422" d="m371.6 516.05h-0.011 0.011"/><path id="path424" d="m368.11 516.71c-0.226 0.462-0.412 0.946-0.535 1.464 0.123-0.518 0.309-1.002 0.535-1.464"/><path id="path426" d="m367.67 530.84-0.056-0.139 0.056 0.139"/><path id="path428" d="m367.99 531.38h-0.001l-0.083-0.102v-0.001l0.084 0.103"/><path id="path430" d="m368.68 531.81h-0.001l-0.137-0.04 0.138 0.04"/><path id="path432" d="m368.43 531.72h-0.001l-0.12-0.064 0.121 0.064"/><path id="path434" d="m367.56 530.49v-0.001l-0.042-0.153 0.042 0.154"/><path id="path436" d="m368.95 531.86-0.153-0.014v-0.001l0.153 0.015"/><path id="path438" d="m367.41 529.63-0.001-0.001-0.014-0.147 0.015 0.148"/><path id="path440" d="m367.82 531.13h-0.001l-0.07-0.122 0.071 0.122"/><path id="path442" d="m368.19 531.57v-0.001l-0.098-0.08 0.098 0.081"/><path id="path444" d="m367.47 530.1v-0.001l-0.029-0.162 0.029 0.163"/><path id="path446" d="m370.82 513.83c-0.573 0.33-1.076 0.718-1.508 1.157-0.501 0.508-0.896 1.09-1.205 1.723-0.226 0.462-0.412 0.946-0.535 1.464-0.146 0.615-0.218 1.267-0.216 1.949l0.025 8.858c0.001 0.174 0.006 0.34 0.016 0.499l0.014 0.147c0.009 0.104 0.018 0.209 0.031 0.306l0.029 0.162 0.039 0.223 0.006 0.022 0.042 0.153 0.06 0.207 0.056 0.139 0.058 0.146 0.016 0.027 0.07 0.122 0.089 0.143 0.083 0.102 0.074 0.089 0.029 0.025 0.098 0.08 0.117 0.087 0.12 0.064 0.11 0.05 0.137 0.04 0.12 0.029 0.153 0.014 0.099 0.01c0.499 0.005 1.107-0.193 1.822-0.606 0.42-0.243 0.79-0.527 1.135-0.829 0.234-0.204 0.449-0.42 0.648-0.65 1.108-1.279 1.686-2.926 1.681-4.814l-0.005-1.656-2.204 1.272 0.005 1.827c0.003 0.913-0.258 1.553-0.702 1.997-0.148 0.147-0.316 0.273-0.501 0.38-0.186 0.108-0.354 0.176-0.502 0.199-0.445 0.069-0.708-0.268-0.711-1.181l-0.026-9.2c-0.003-0.913 0.258-1.539 0.702-1.976 0.148-0.146 0.316-0.27 0.501-0.377 0.091-0.053 0.178-0.096 0.26-0.13l0.005-0.002 0.072-0.021 0.157-0.047 0.08-0.004 0.124-0.002h0.011c0.318 0.052 0.502 0.403 0.504 1.164l0.007 2.436 2.204-1.273-0.006-2.265c-0.008-2.728-1.199-3.601-3.488-2.279zm11.285-10.088c0.069 0.077 0.121 0.179 0.178 0.272l0.121 0.188c0.055 0.116 0.089 0.256 0.127 0.391l0.064 0.199c0.044 0.217 0.067 0.455 0.068 0.712l0.055 19.343c0.006 2.064-1.447 4.579-3.238 5.613l-16.833 9.719c-0.225 0.13-0.445 0.23-0.658 0.303l-0.196 0.043c-0.141 0.037-0.284 0.079-0.417 0.091l-0.218-0.01c-0.114-0.002-0.231 0.004-0.336-0.018l-0.204-0.075c-0.095-0.033-0.194-0.056-0.28-0.106-0.587-0.338-0.952-1.06-0.955-2.088l-0.055-19.343c-0.006-2.064 1.447-4.573 3.243-5.61l16.833-9.719c1.027-0.593 1.934-0.557 2.532-0.044l0.169 0.139"/></g><path id="path448" d="m374.31 516.11 0.006 2.265-2.204 1.273-0.007-2.436c-0.002-0.761-0.186-1.112-0.504-1.164h-0.011l-0.124 0.002h0.001l-0.082 0.004h0.001l-0.157 0.047 0.001-0.001-0.073 0.022-0.005 0.002c-0.082 0.034-0.169 0.077-0.26 0.13-0.185 0.107-0.353 0.231-0.501 0.377-0.444 0.437-0.705 1.063-0.702 1.976l0.026 9.2c0.003 0.913 0.266 1.25 0.711 1.181 0.148-0.023 0.316-0.091 0.502-0.199 0.185-0.107 0.353-0.233 0.501-0.38 0.444-0.444 0.705-1.084 0.702-1.997l-0.005-1.827 2.204-1.272 0.005 1.656c0.005 1.888-0.573 3.535-1.681 4.814-0.199 0.23-0.414 0.446-0.648 0.65-0.345 0.302-0.715 0.586-1.135 0.829-0.715 0.413-1.323 0.611-1.822 0.606l-0.099-0.01-0.153-0.015v0.001l-0.12-0.029h0.001l-0.138-0.04-0.11-0.05h0.001l-0.121-0.064-0.117-0.086-0.098-0.081-0.029-0.025-0.073-0.089-0.084-0.103-0.088-0.142-0.071-0.122-0.016-0.027-0.058-0.146-0.056-0.139-0.06-0.206-0.042-0.154-0.006-0.022-0.039-0.222-0.029-0.163c-0.013-0.097-0.022-0.201-0.03-0.305l-0.015-0.148c-0.01-0.159-0.015-0.325-0.016-0.499l-0.025-8.858c-0.002-0.682 0.07-1.334 0.216-1.949 0.123-0.518 0.309-1.002 0.535-1.464 0.309-0.633 0.704-1.215 1.205-1.723 0.432-0.439 0.935-0.827 1.508-1.157 2.289-1.322 3.48-0.449 3.488 2.279" fill="#fff"/><path id="path450" d="m382.4 532.16-16.834 9.718c-0.903 0.522-1.723 0.57-2.314 0.227l-2.925-1.7 0.006 0.002c0.086 0.05 0.185 0.073 0.28 0.106l0.204 0.075c0.105 0.022 0.222 0.016 0.336 0.018l0.218 0.01c0.133-0.012 0.276-0.054 0.417-0.091l0.196-0.043c0.213-0.073 0.433-0.173 0.658-0.303l16.833-9.719c1.791-1.034 3.244-3.549 3.238-5.613l-0.055-19.343c-0.001-0.257-0.024-0.495-0.068-0.712l-0.064-0.199c-0.038-0.135-0.072-0.275-0.127-0.391l-0.121-0.188c-0.057-0.093-0.109-0.195-0.178-0.272l-0.169-0.139-0.22-0.182 2.924 1.7c0.583 0.338 0.944 1.058 0.947 2.082l0.055 19.343c0.006 2.064-1.446 4.58-3.237 5.614" fill="#224f91"/><g fill="#fff"><path id="path452" d="m371.74 548.4 0.065-0.02-0.065 0.02"/><path id="path454" d="m371.89 548.37h0.001l0.123-0.003-0.124 0.003"/><path id="path456" d="m369.98 554.59-0.015-5.236 0.015 5.236"/><path id="path458" d="m370 561.54-0.013-4.506 0.013 4.506"/><path id="path460" d="m369.96 549.36 0.015 5.236 1.038-0.6c0.398-0.229 0.709-0.477 0.942-0.781 0.155-0.203 0.276-0.43 0.364-0.693 0.045-0.132 0.081-0.273 0.11-0.424 0.058-0.302 0.084-0.645 0.083-1.041l-0.004-1.485c-0.001-0.475-0.062-0.796-0.178-0.987-0.078-0.128-0.181-0.198-0.307-0.218l-0.015 0.001-0.123 0.003-0.081 0.006-0.065 0.02c-0.132 0.036-0.278 0.096-0.444 0.192l-1.335 0.771zm0.022 7.671 0.013 4.506 1.123-0.649c0.62-0.358 0.977-0.866 1.115-1.611 0.046-0.248 0.068-0.523 0.067-0.828l-0.003-0.949c0-0.171-0.009-0.322-0.026-0.455-0.099-0.799-0.482-0.948-1.068-0.697-0.098 0.042-0.201 0.094-0.31 0.157l-0.911 0.526zm4.857-8.878 0.004 1.388c0.005 1.802-0.479 3.35-1.727 4.632v0.049c1.04-0.04 1.509 0.787 1.514 2.54l0.002 0.609c0.007 2.624-1.027 4.521-3.444 5.916l-3.518 2.031-0.048-17.047 3.666-2.117c2.332-1.346 3.544-0.631 3.551 1.999"/></g><g fill="#fbd137"><path id="path462" d="m371.29 546.15-3.666 2.117 0.048 17.047 3.518-2.031c2.417-1.395 3.451-3.292 3.444-5.916l-0.002-0.609c-0.005-1.753-0.474-2.58-1.514-2.54v-0.049c1.248-1.282 1.732-2.83 1.727-4.632l-0.004-1.388c-0.007-2.63-1.219-3.345-3.551-1.999zm11.089-9.204 0.115 0.178c0.056 0.119 0.092 0.262 0.13 0.4l0.061 0.191c0.044 0.218 0.068 0.456 0.068 0.713l0.055 19.343c0.006 2.064-1.447 4.573-3.237 5.607l-16.834 9.719c-0.225 0.13-0.445 0.23-0.658 0.303l-0.201 0.044c-0.139 0.037-0.281 0.079-0.412 0.09l-0.226-0.01c-0.111-0.002-0.226 0.004-0.329-0.016l-0.207-0.076c-0.094-0.033-0.192-0.056-0.276-0.105-0.587-0.336-0.952-1.056-0.955-2.084l-0.054-19.343c-0.006-2.064 1.446-4.58 3.242-5.617l16.834-9.718c1.027-0.593 1.935-0.555 2.533-0.04l0.166 0.138c0.072 0.08 0.126 0.185 0.185 0.283"/><path id="path464" d="m371.74 548.4 0.065-0.02 0.081-0.006h-0.001l0.124-0.003 0.015-0.001c0.126 0.02 0.229 0.09 0.307 0.218 0.116 0.191 0.177 0.512 0.178 0.987l0.004 1.485c0.001 0.396-0.025 0.739-0.083 1.041-0.029 0.151-0.065 0.292-0.11 0.424-0.088 0.263-0.209 0.49-0.364 0.693-0.233 0.304-0.544 0.552-0.942 0.781l-1.038 0.6-0.015-5.236 1.335-0.771c0.166-0.096 0.312-0.156 0.444-0.192"/><path id="path466" d="m370.9 556.5c0.109-0.063 0.212-0.115 0.31-0.157 0.586-0.251 0.969-0.102 1.068 0.697 0.017 0.133 0.026 0.284 0.026 0.455l0.003 0.949c0.001 0.305-0.021 0.58-0.067 0.828-0.138 0.745-0.495 1.253-1.115 1.611l-1.123 0.649-0.013-4.506 0.911-0.526"/></g><path id="path468" d="m382.5 565.08-16.833 9.719c-0.905 0.523-1.726 0.572-2.317 0.228l-2.925-1.699 0.008 0.002c0.084 0.049 0.182 0.072 0.276 0.105l0.207 0.076c0.103 0.02 0.218 0.014 0.329 0.016l0.226 0.01c0.131-0.011 0.273-0.053 0.412-0.09l0.201-0.044c0.213-0.073 0.433-0.173 0.658-0.303l16.834-9.719c1.79-1.034 3.243-3.543 3.237-5.607l-0.055-19.343c0-0.258-0.024-0.495-0.068-0.713l-0.061-0.191c-0.038-0.138-0.074-0.281-0.13-0.4l-0.115-0.178c-0.059-0.098-0.113-0.203-0.185-0.283l-0.166-0.138-0.225-0.185 2.925 1.7c0.584 0.339 0.947 1.061 0.95 2.087l0.054 19.343c0.006 2.064-1.446 4.573-3.237 5.607" fill="#f8bc17"/><path id="path470" d="m370.78 584.55-0.822 0.475 1.127 7.985-1.127-7.985 0.822-0.475" fill="#fff"/><path id="path472" d="m369.96 585.02 0.822-0.475 1.425-0.822-1.078 9.257-0.042 0.025-1.127-7.985" fill="#ea1444"/><path id="path474" d="m372.91 577.9-0.394 3.326-2.861 1.652-0.412-2.861-2.14 1.236 2.422 15.677 3.412-1.97 2.325-18.418-2.352 1.358zm9.379-8.317c0.07 0.079 0.123 0.181 0.18 0.276l0.12 0.184c0.053 0.114 0.086 0.251 0.124 0.382l0.067 0.208c0.043 0.218 0.067 0.456 0.068 0.713l0.054 19.342c0.006 2.064-1.446 4.58-3.237 5.614l-16.833 9.718c-0.226 0.131-0.446 0.231-0.658 0.303l-0.201 0.045c-0.139 0.036-0.281 0.078-0.412 0.089l-0.222-0.01c-0.112-0.002-0.228 0.004-0.333-0.017l-0.207-0.077c-0.094-0.032-0.191-0.055-0.276-0.104-0.587-0.338-0.952-1.06-0.955-2.089l-0.055-19.342c-0.006-2.064 1.446-4.574 3.243-5.611l16.833-9.718c1.027-0.593 1.935-0.557 2.533-0.044l0.167 0.138" fill="#ea1444"/><path id="path476" d="m371.09 593.01 0.042-0.025 1.078-9.257-1.425 0.822-0.822 0.475 1.127 7.985zm1.852 1.955-3.412 1.97-2.422-15.677 2.14-1.236 0.412 2.861 2.861-1.652 0.394-3.326 2.352-1.358-2.325 18.418" fill="#fff"/><path id="path478" d="m382.59 598-16.833 9.719c-0.904 0.522-1.723 0.57-2.315 0.226l-2.924-1.699 0.006 0.002c0.085 0.049 0.182 0.072 0.276 0.104l0.207 0.077c0.105 0.021 0.221 0.015 0.333 0.017l0.222 0.01c0.131-0.011 0.273-0.053 0.412-0.089l0.201-0.045c0.212-0.072 0.432-0.172 0.658-0.303l16.833-9.718c1.791-1.034 3.243-3.55 3.237-5.614l-0.054-19.342c-0.001-0.257-0.025-0.495-0.068-0.713l-0.067-0.208c-0.038-0.132-0.071-0.268-0.124-0.382l-0.12-0.184c-0.057-0.095-0.11-0.197-0.18-0.276l-0.167-0.138-0.222-0.182 2.925 1.699c0.582 0.339 0.944 1.059 0.947 2.083l0.055 19.343c0.006 2.064-1.447 4.579-3.238 5.613" fill="#cb183e"/><g fill="#f2f2f0"><path id="path480" d="m565.98 407.44-0.058-20.615-2.819 1.628 0.044 15.726-2.178 1.258 0.006 2.297c2.179-1.258 2.669-0.332 3.109 0.801l1.896-1.095"/><path id="path482" d="m571.14 396c1.602-0.925 2.419-2.503 2.413-4.425l-0.001-0.375-1.55 0.895 0.001 0.493c0.003 0.862-0.298 1.36-0.823 1.663-0.519 0.3-0.821 0.149-0.823-0.712-0.003-0.876 0.322-1.713 1.395-3.416 1.374-2.187 1.807-3.433 1.803-4.809-0.006-1.922-0.848-2.542-2.463-1.609-1.614 0.932-2.45 2.521-2.445 4.442l0.002 0.737 1.557-0.899-0.002-0.854c-0.003-0.862 0.323-1.36 0.848-1.663 0.526-0.303 0.853-0.183 0.856 0.679 0.002 0.876-0.323 1.712-1.396 3.416-1.374 2.187-1.806 3.432-1.802 4.809 0.005 1.922 0.835 2.549 2.43 1.628"/><path id="path484" d="m579.12 391.25-0.005-1.716-1.717 0.992-0.029-10.308-1.647 0.951 0.029 10.307-1.717 0.992 0.005 1.715 5.081-2.933"/></g><path id="path486" d="m346.06 312.1 4.201 2.441c-0.84 3.162-1.683 6.32-2.526 9.479l-5.734 3.31c1.351-5.072 2.709-10.149 4.059-15.23" fill="#bc193b"/><path id="path488" d="m330.45 345.66-0.006-1.811 30.447-17.578 0.005 1.811-30.446 17.578" fill="#fff"/><path id="path490" d="m360.91 333.27-30.447 17.578-0.005-1.819 30.447-17.578 0.005 1.819" fill="#fff"/><path id="path492" d="m361.07 353.76-22.272 12.859c-3.929 2.269-7.493 2.478-10.066 0.983l-4.202-2.442 0.026 0.012c0.171 0.099 0.357 0.172 0.537 0.255 0.157 0.073 0.308 0.159 0.472 0.22 0.19 0.071 0.393 0.116 0.591 0.171 0.168 0.047 0.329 0.106 0.503 0.141 0.206 0.042 0.426 0.056 0.64 0.081 0.178 0.021 0.349 0.055 0.531 0.064 0.219 0.011 0.449-0.007 0.675-0.013 0.189-0.005 0.373 0.004 0.567-0.013 0.238-0.021 0.485-0.072 0.729-0.112 0.192-0.031 0.379-0.047 0.576-0.09 0.266-0.058 0.541-0.147 0.813-0.227 0.183-0.054 0.361-0.091 0.547-0.154 0.307-0.105 0.623-0.243 0.938-0.375 0.158-0.067 0.312-0.116 0.471-0.19 0.478-0.219 0.961-0.47 1.451-0.752l22.272-12.859c7.809-4.509 14.129-15.455 14.104-24.429-0.002-0.56-0.028-1.098-0.078-1.616-0.016-0.17-0.05-0.324-0.072-0.491-0.043-0.336-0.082-0.677-0.146-0.994-0.04-0.198-0.099-0.376-0.146-0.566-0.066-0.265-0.124-0.538-0.205-0.788-0.061-0.187-0.14-0.354-0.209-0.533-0.088-0.23-0.168-0.469-0.269-0.683-0.08-0.172-0.178-0.321-0.266-0.483-0.109-0.199-0.21-0.408-0.33-0.593-0.099-0.151-0.214-0.281-0.32-0.422-0.128-0.171-0.25-0.352-0.389-0.509-0.116-0.13-0.247-0.237-0.37-0.357-0.147-0.143-0.287-0.296-0.444-0.424-0.133-0.109-0.28-0.195-0.421-0.293-0.154-0.108-0.301-0.228-0.463-0.323l4.201 2.442c2.54 1.476 4.115 4.613 4.128 9.074 0.025 8.974-6.294 19.921-14.104 24.429" fill="#bc193b"/><path id="path494" d="m330.44 343.85 0.006 1.811 30.446-17.578-0.005-1.811-30.447 17.578zm30.462-12.4-30.447 17.578 0.005 1.819 30.447-17.578-0.005-1.819zm0.014 5.186-30.446 17.579 0.005 1.819 30.446-17.578-0.005-1.82zm7.252-17.78c0.123 0.12 0.254 0.227 0.37 0.357 0.139 0.157 0.261 0.338 0.389 0.509 0.106 0.141 0.221 0.271 0.32 0.422 0.12 0.185 0.221 0.394 0.33 0.593 0.088 0.162 0.186 0.311 0.266 0.483 0.101 0.214 0.181 0.453 0.269 0.683 0.069 0.179 0.148 0.346 0.209 0.533 0.08 0.25 0.139 0.523 0.205 0.788 0.047 0.19 0.106 0.368 0.146 0.566 0.064 0.317 0.103 0.658 0.146 0.994 0.022 0.167 0.056 0.321 0.072 0.491 0.05 0.518 0.076 1.056 0.078 1.616 0.025 8.974-6.295 19.92-14.104 24.429l-22.272 12.859c-0.49 0.282-0.973 0.533-1.451 0.752-0.159 0.074-0.313 0.123-0.471 0.19-0.315 0.132-0.631 0.27-0.938 0.375-0.186 0.063-0.364 0.1-0.547 0.154-0.272 0.08-0.547 0.169-0.813 0.227-0.197 0.043-0.384 0.059-0.576 0.09-0.244 0.04-0.491 0.091-0.729 0.112-0.194 0.017-0.378 0.008-0.567 0.013-0.226 0.006-0.456 0.024-0.675 0.013-0.182-0.009-0.353-0.043-0.531-0.064-0.214-0.025-0.434-0.039-0.64-0.081-0.174-0.035-0.335-0.094-0.503-0.141-0.198-0.055-0.401-0.1-0.591-0.171-0.164-0.061-0.315-0.147-0.472-0.22-0.18-0.083-0.366-0.156-0.537-0.255-2.555-1.47-4.142-4.612-4.155-9.084-0.022-7.846 4.8-17.192 11.235-22.432 3.843-7.825 8.809-15.274 14.425-21.556-1.35 5.081-2.708 10.158-4.059 15.23l5.734-3.31 9.041-5.22c4.178-2.413 7.931-2.479 10.531-0.662 0.141 0.098 0.288 0.184 0.421 0.293 0.157 0.128 0.297 0.281 0.444 0.424" fill="#ec1344"/><path id="path496" d="m330.48 356.03-0.005-1.819 30.446-17.579 0.005 1.82-30.446 17.578" fill="#fff"/><path id="path498" d="m404.72 99.106-0.273 0.1582-0.767-0.4461-9.873 5.699-0.003-1.04 9.873-5.7 4.912 2.855 0.002 0.724-3.871-2.2501" fill="#181816"/><path id="path500" d="m408.59 101.67-3.871-2.249-0.001-0.3171 3.871 2.2501 0.001 0.316" fill="#1d4470"/><path id="path502" d="m408.81 178.34-3.858 2.228-0.23-81.027 3.871 2.2488 0.217 76.55" fill="#1d4470"/><g fill="#404343"><path id="path504" d="m404.44 99.264-0.817 0.4718c-0.315 2.9231-2.344 6.2051-4.818 7.6331-2.491 1.439-4.556 0.527-4.939-2-0.041-0.269-0.065-0.553-0.066-0.852l9.873-5.699 0.767 0.4461"/><path id="path506" d="m408.59 101.79-3.871-2.2488v-0.1192l3.871 2.249v0.119"/><path id="path508" d="m425.74 93.229v0.0293l-0.025-0.0141 0.025-0.0152"/><path id="path510" d="m419.37 89.656c0.001 0.3382-0.033 0.689-0.078 1.0339-0.402 2.8672-2.392 6.0133-4.79 7.3981-2.428 1.4019-4.452 0.5793-4.909-1.7981-0.065-0.3207-0.1-0.6726-0.101-1.057l9.878-5.7027v0.1258"/></g><path id="path512" d="m420.31 90.104-1.015 0.5859c0.045-0.3449 0.079-0.6957 0.078-1.0339v-0.1258l-9.878 5.7027-0.003-1.0398 9.878-5.7032 6.365 3.6993 0.003 1.0398-0.025 0.0152-5.403-3.1402" fill="#181816"/><path id="path514" d="m352.87 273.68 0.046 0.014-0.1-0.037 0.054 0.023zm1.921-0.282 0.056-0.041-0.122 0.078 0.066-0.037zm0.703-0.504c-0.6 2.112-3.097 5.624-3.839 6.63-2.543 3.446-5.208 6.962-8.035 9.962-0.114 0.121-0.22 0.207-0.317 0.264l-0.227 0.075-0.05 0.003-0.182-0.043c-0.202-0.116-0.316-0.426-0.329-0.776 0-0.146 0.011-0.299 0.039-0.441 0.148-0.743 0.77-1.553 1.224-2.174 0.898-1.221 2.701-2.866 3.055-4.398 0.502-2.168-0.373-3.355 0.654-5.833 0.866-2.093 2.506-4.016 4.133-4.988 0.092-0.053 0.19-0.11 0.294-0.163-0.037 0.232 3.35 2.08 3.58 1.882" fill="#fac090"/><path id="path516" d="m343.07 289.82 0.227-0.075c0.097-0.057 0.203-0.143 0.317-0.264 2.827-3 5.492-6.516 8.035-9.962 0.742-1.006 3.239-4.518 3.839-6.63l6.366 3.699c-0.601 2.112-3.097 5.624-3.84 6.63-2.543 3.447-5.207 6.963-8.035 9.962-0.113 0.121-0.219 0.208-0.317 0.264-0.184 0.106-0.338 0.106-0.46 0.035l-6.366-3.699h0.002l0.182 0.043 0.05-0.003" fill="#f9b075"/><path id="path518" d="m352.87 273.68-0.054-0.023 0.1 0.037-0.046-0.014" fill="#a0d852"/><path id="path520" d="m354.79 273.4-0.066 0.037 0.122-0.078-0.056 0.041" fill="#a0d852"/><path id="path522" d="m414.5 98.088c2.398-1.3848 4.388-4.5309 4.79-7.3981l1.015-0.5859 0.115 40.731 0.116 40.731 0.011 3.83 0.011 3.83-11.937 6.892-0.404 0.233-2.687 1.551-0.398 0.23-11.908 6.875-0.022-7.66-0.231-81.462 0.894-0.516c0.383 2.527 2.448 3.439 4.939 2 2.474-1.428 4.503-4.71 4.818-7.6331l0.817-0.4718 0.273-0.1582 0.001 0.3171v0.1192l0.23 81.027 3.858-2.228-0.217-76.55v-0.119l-0.001-0.316-0.002-0.724-0.011-3.7531 1.021-0.5891c0.457 2.3774 2.481 3.2 4.909 1.7981" fill="#265b95"/><path id="path524" d="m426.75 169.42c-0.132 0.021-0.278 0.081-0.429 0.167-0.779 0.45-1.664 1.631-1.131 1.974 0.128 0.084 0.26 0.167 0.397 0.246l-0.002-0.001 0.006 0.004h0.001l1.307 0.76 0.007 2.693 0.022 7.66-3.183-1.849-3.182-1.85-0.011-3.83-0.011-3.83-0.116-40.731-0.115-40.731 5.403 3.1402 0.025 0.0141 0.937 0.5449 0.196 69.106c-0.687 2.224-0.861 4.887-0.121 6.513" fill="#1d4470"/><path id="path526" d="m420.31 90.104" fill="#1d4470"/><path id="path528" d="m431.52 159.98c-0.12-0.148-0.24-0.271-0.361-0.382l-0.11-0.093-0.257-0.19-0.065-0.048 6.366 3.7c0.263 0.153 0.528 0.387 0.793 0.712 0.933 1.141 1.694 4.903 0.975 8.032l-6.365-3.699c0.719-3.13-0.043-6.891-0.976-8.032" fill="#f9b075"/><path id="path530" d="m425.74 209.76c-1.232 5.437-3.1 10.981-5.044 15.973l-0.131-46.509 3.182 1.85 3.183 1.849 0.056 19.581c-0.306 2.444-0.71 4.886-1.246 7.256" fill="#95d233"/><path id="path532" d="m408.81 250.66-0.183-64.545 11.937-6.892 0.131 46.509c1.944-4.992 3.812-10.536 5.044-15.973 0.536-2.37 0.94-4.812 1.246-7.256 1.814-14.531 0.004-29.152-0.016-29.328-0.026-0.184-0.026-0.379-0.017-0.576l0.009-0.216c0.601 0.158 1.254 0.186 1.941-0.012l0.172-0.054c0.111-0.037 0.218-0.077 0.323-0.12l0.155-0.071 0.131-0.06 0.121-0.062 0.117-0.066 0.065-0.039c1.079-0.647 1.788-1.696 2.223-2.915 0.089-0.249 0.167-0.506 0.234-0.768l0.051-0.208c0.145 0.248 0.255 0.542 0.303 0.907 0.106 0.874 2.666 21.498-1.425 39.556-1.819 8.033-4.88 16.41-8.265 24.497-2.334 5.575-4.926 12.287-9.14 16.725l-0.02-0.012 0.018 0.014-0.167-0.009c-1.754 0.68-3.377 0.874-4.988 0.974" fill="#a0d852"/><path id="path534" d="m431.16 159.6c0.121 0.111 0.241 0.234 0.361 0.382 0.933 1.141 1.695 4.902 0.976 8.032l-0.051 0.208c-0.067 0.262-0.145 0.519-0.234 0.768-0.435 1.219-1.144 2.268-2.223 2.915l-0.065 0.039-0.117 0.066-0.121 0.062-0.131 0.06-0.155 0.071c-0.105 0.043-0.212 0.083-0.323 0.12l-0.172 0.054c-0.687 0.198-1.34 0.17-1.941 0.012l-0.009 0.216-0.052-0.03-1.307-0.76h-0.001l-0.006-0.004 0.002 0.001c-0.137-0.079-0.269-0.162-0.397-0.246-0.533-0.343 0.352-1.524 1.131-1.974 0.151-0.086 0.297-0.146 0.429-0.167-0.74-1.626-0.566-4.289 0.121-6.513 0.518-1.672 1.326-3.097 2.261-3.636 0.523-0.302 1.085-0.32 1.657 0.041l0.257 0.19 0.11 0.093" fill="#fac090"/><path id="path536" d="m356.97 271.03c0.087-0.163 7.576-13.848 16.436-18.964 1.633-0.943 3.314-1.595 5.003-1.817 4.457-0.589 8.324 0.491 11.703 2.389 1.083 0.607 2.097 1.426 3.129 2.228-2.562-0.918-5.369-1.327-8.467-0.917-1.688 0.221-3.369 0.874-5.002 1.817-8.861 5.115-16.35 18.801-16.437 18.963-0.414 0.757-0.932 1.394-1.479 1.863l-6.366-3.699c0.548-0.469 1.066-1.107 1.48-1.863" fill="#95d233"/><path id="path538" d="m396.46 256.97 0.156 0.074c0.198 0.088 0.4 0.168 0.605 0.24l0.138 0.043c0.162 0.053 0.325 0.101 0.492 0.143l0.224 0.05c0.145 0.031 0.291 0.058 0.44 0.08l0.244 0.032c0.156 0.018 0.315 0.028 0.476 0.034l0.223 0.009c0.235 0.001 0.474-0.007 0.719-0.032h0.006c-0.115 0.226-0.034 0.491 0.157 0.46l-0.107-0.018 3.029 1.76c-0.203 0.247-0.4 0.498-0.599 0.747-0.228-0.111-0.454-0.228-0.674-0.356l-6.366-3.7 0.198 0.108 0.203 0.112c0.143 0.075 0.289 0.146 0.436 0.214" fill="#95d233"/><path id="path540" d="m405.32 252.68c-1.606 1.757-3.225 3.434-4.977 4.778l-0.155 0.189h-0.006c-0.245 0.025-0.484 0.033-0.719 0.032l-0.223-0.009c-0.161-0.006-0.32-0.016-0.476-0.034l-0.244-0.032c-0.149-0.022-0.295-0.049-0.44-0.08l-0.224-0.05c-0.167-0.042-0.33-0.09-0.492-0.143l-0.138-0.043c-0.205-0.072-0.407-0.152-0.605-0.24l-0.156-0.074c-0.147-0.068-0.293-0.139-0.436-0.214l-0.203-0.112c-0.906-0.502-1.752-1.135-2.585-1.781-1.032-0.802-2.046-1.621-3.129-2.228-3.379-1.898-7.246-2.978-11.703-2.389-1.689 0.222-3.37 0.874-5.003 1.817-8.86 5.116-16.349 18.801-16.436 18.964-0.414 0.756-0.932 1.394-1.48 1.863-0.23 0.198-3.617-1.65-3.58-1.882 0.096-0.633 0.319-1.326 0.693-2.013 0.132-0.249 3.315-6.096 8.219-12.192 4.236-5.267 8.488-9.148 12.582-11.512 2.439-1.408 4.828-2.277 7.115-2.575 5.092-0.67 9.451 0.444 12.851 2.025l-0.141-49.736 11.908-6.875 0.183 64.546" fill="#a0d852"/><path id="path542" d="m405.73 257.38 0.003 0.96c-0.503 0.309-1.012 0.666-1.525 1.059l-0.201-0.117 0.008 0.012c-0.067-0.045-0.155-0.05-0.257 0.009l-0.188 0.166c-0.105 0.124-0.202 0.254-0.305 0.379l-3.029-1.76 0.107 0.018c1.524-0.223 3.077-0.601 4.675-1.139l0.712 0.413" fill="#f0ecaf"/><path id="path544" d="m408.42 256.74 0.053 0.032-0.053 0.023v-0.055" fill="#fcfabb"/><path id="path546" d="m404.21 259.4-0.084 0.062-0.109-0.167-0.008-0.012 0.201 0.117" fill="#f68c46"/><path id="path548" d="m408.42 254.42c0.087 0.109 0.174 0.211 0.272 0.314l0.088 0.035-0.056-0.01 1.467 0.852-0.047 0.013c-0.181 0.104-0.323 0.347-0.362 0.578-0.437 0.163-0.869 0.358-1.302 0.58l-0.053-0.032-0.007-2.33" fill="#f9b075"/><path id="path550" d="m405.73 257.38-0.004-1.413c0.086-0.209 0.161-0.411 0.229-0.617l2.226-1.285c0.07 0.126 0.151 0.239 0.232 0.351l0.007 2.33v0.055c-0.273 0.136-0.545 0.283-0.814 0.439l-0.165 0.096c-0.165 0.097-0.328 0.198-0.492 0.301-0.201 0.107-0.403 0.218-0.606 0.335-0.202 0.117-0.406 0.239-0.61 0.368l-0.003-0.96" fill="#fac090"/><path id="path552" d="m403.91 265.97c0.104-0.099 0.202-0.196 0.311-0.292 0.213-0.196 0.438-0.385 0.674-0.575-0.236 0.189-0.461 0.379-0.674 0.575-0.109 0.096-0.207 0.193-0.311 0.292" fill="#f68c46"/><path id="path554" d="m413.97 249.7-0.002 0.002-0.018-0.014 0.02 0.012" fill="#fcfabb"/><path id="path556" d="m416.47 256.85c-0.108 0.062-0.22 0.182-0.297 0.312-1.713-0.982-3.636-1.514-5.797-1.596l-1.443-0.839c1.793-1.442 3.343-2.855 4.869-4.393 0.179-0.183 0.264-0.524 0.166-0.64l6.366 3.699c0.098 0.116 0.012 0.457-0.166 0.64-0.985 0.993-1.988 1.932-3.051 2.862-0.157-0.034-0.314-0.067-0.478-0.089l-0.169 0.044" fill="#f0ecaf"/><path id="path558" d="m413.8 250.34c-1.526 1.538-3.076 2.951-4.869 4.393l1.443 0.839-0.042-0.004-0.144 0.04-1.467-0.852 0.056 0.01-0.088-0.035c-0.098-0.103-0.185-0.205-0.272-0.314-0.081-0.112-0.162-0.225-0.232-0.351l-2.226 1.285c-0.068 0.206-0.143 0.408-0.229 0.617l0.004 1.413-0.712-0.413c-1.598 0.538-3.151 0.916-4.675 1.139-0.191 0.031-0.272-0.234-0.157-0.46l0.155-0.189c1.752-1.344 3.371-3.021 4.977-4.778l-0.183-64.546 0.398-0.23 2.687-1.551 0.404-0.233 0.183 64.545c1.611-0.1 3.234-0.294 4.988-0.974l0.167 0.009c0.098 0.116 0.013 0.457-0.166 0.64" fill="#fcfabb"/><path id="path560" d="m437.74 212.17c-1.82 8.033-4.88 16.41-8.265 24.497-2.335 5.576-4.927 12.289-9.142 16.727l-6.366-3.699 0.002-0.002c4.214-4.438 6.806-11.15 9.14-16.725 3.385-8.087 6.446-16.464 8.265-24.497 4.091-18.058 1.531-38.682 1.425-39.556-0.048-0.365-0.158-0.659-0.303-0.907l6.365 3.699c0.146 0.248 0.256 0.543 0.303 0.907 0.107 0.874 2.666 21.498-1.424 39.556" fill="#95d233"/><path id="path562" d="m390.9 291.06 0.163 0.03c0.095 0.008 0.192 0.001 0.289-0.004l0.145-0.004c0.146-0.019 0.293-0.051 0.439-0.099l0.002 0.823-1.627-0.946 0.18 0.078 0.16 0.069 0.249 0.053" fill="#fac090"/><g fill="#f68c46"><path id="path564" d="m407.06 263.63c0.311-0.18 0.599-0.326 0.882-0.456l0.225-0.104-0.225 0.104c-0.282 0.13-0.571 0.276-0.882 0.456"/><path id="path566" d="m408.83 262.8 0.126-0.047c0.231-0.08 0.439-0.134 0.641-0.177-0.202 0.043-0.41 0.097-0.64 0.177l-0.127 0.047"/><path id="path568" d="m412.57 263.31-0.015-0.016 0.006 0.004 0.003 0.003 0.008 0.01-0.002-0.001"/></g><g fill="#f79aa4"><path id="path570" d="m413.18 264.49 0.031 0.132-0.032-0.134 0.001 0.002"/><path id="path572" d="m412.93 263.85 0.01 0.018 0.098 0.207 0.002 0.005-0.11-0.23"/><path id="path574" d="m412.68 263.45 0.01 0.012 0.178 0.264 0.004 0.007c-0.054-0.094-0.122-0.189-0.192-0.283"/><path id="path576" d="m413.09 264.2 0.002 0.005 0.061 0.182 0.001 0.004-0.064-0.191"/><path id="path578" d="m412.57 263.31 0.002 0.003-0.004-0.004 0.002 0.001"/></g><g fill="#f68c46"><path id="path580" d="m412.51 263.25-0.208-0.209 0.012 0.009 0.202 0.204 0.044 0.043-0.006-0.003-0.044-0.044"/><path id="path582" d="m411.82 262.73 0.03 0.014c0.103 0.053 0.192 0.116 0.281 0.179l0.039 0.028c-0.108-0.08-0.22-0.157-0.35-0.221"/><path id="path584" d="m411.3 262.55-0.074-0.025-0.027-0.008-0.052-0.01 0.058 0.006 0.075 0.026c0.17 0.041 0.328 0.093 0.471 0.158l0.024 0.011c-0.142-0.066-0.305-0.115-0.475-0.158"/><path id="path586" d="m405.88 274.16 0.025-0.013c-0.285 0.164-0.54 0.333-0.793 0.519 0.255-0.187 0.511-0.358 0.768-0.506"/></g><path id="path588" d="m407.88 289.38 0.059-0.073v0.002l-0.059 0.071" fill="#121212"/><g fill="#f68c46"><path id="path590" d="m398.7 301.95h-0.001 0.001l0.079-0.12-0.078 0.119-0.001 0.001"/><path id="path592" d="m396.82 302.82 0.081 0.019h0.001-0.001l-0.081-0.019"/><path id="path594" d="m396.34 302.6h-0.001 0.001l0.127 0.079 0.088 0.051-0.088-0.05-0.127-0.08"/></g><path id="path596" d="m418.01 279.51-0.044 0.044 0.076-0.09 0.002 0.002-0.034 0.044" fill="#121212"/><path id="path598" d="m398.72 301.92-0.019 0.029-0.01-0.005 0.001-0.001 0.078-0.119 0.049-0.072c0.043-0.066 0.1-0.153 0.166-0.252 0.056-0.085 0.121-0.183 0.193-0.291l0.084-0.125c0.098-0.147 0.209-0.314 0.331-0.494l0.035-0.053c-0.516 0.773-0.834 1.268-0.908 1.383" fill="#fac090"/><path id="path600" d="m397.13 312.2 0.057 0.021c0.391 0.147 0.791 0.263 1.204 0.348l0.323 0.188c0.006 0.153 0.004 0.312-0.009 0.478l-2.696-1.567 0.05 0.024c0.352 0.198 0.708 0.369 1.071 0.508" fill="#f58033"/><path id="path602" d="m395.96 311.64 0.029 0.015 0.022 0.014-0.051-0.029" fill="#f58033"/><path id="path604" d="m417.78 279.74-0.172 0.152 0.172-0.152" fill="#fac090"/><path id="path606" d="m428.22 268.07c0 0.113 0.012 0.219 0.012 0.331l-0.016 0.126c-0.038-0.175-0.07-0.356-0.113-0.525l0.117 0.068" fill="#f68c46"/><path id="path608" d="m422.27 266.81-0.008-0.059 0.076 0.044-0.068 0.015" fill="#f68c46"/><path id="path610" d="m424.19 274.46 0.06-0.189-0.055 0.192-0.005-0.003" fill="#f9b075"/><path id="path612" d="m424.22 274.01c-0.063-0.101-0.185-0.129-0.335-0.043l-0.188 0.159-0.026 0.027-1.305-0.759c1.17-1.001 2.423-3.078 2.418-4.701-0.004-1.632-1.273-2.247-2.444-1.897l-0.076-0.044c-0.084-0.845-0.221-1.641-0.415-2.378l6.249 3.631c0.043 0.169 0.075 0.35 0.113 0.525 0.068 0.311 0.128 0.63 0.177 0.959l1.747 1.016c0.517 0.3 0.881 0.884 0.884 1.756 0.004 1.492-1.054 3.357-2.134 4.428l-4.73-2.749 0.065 0.07" fill="#f9b075"/><path id="path614" d="m398.91 315.03 0.139-0.05c0.098-0.057 0.196-0.154 0.269-0.283 0.121-0.209 0.248-0.408 0.374-0.594 0.074 0.418 0.061 0.905-0.028 1.43l-0.896-0.521 0.022 0.004 0.082 0.014h0.038" fill="#f58033"/><path id="path616" d="m424.17 274.54 0.027-0.089 0.005 0.003-0.032 0.086" fill="#fac090"/><path id="path618" d="m423.18 274.67c-0.265 0.286-0.541 0.558-0.812 0.821l-0.006-2.101 1.305 0.759c-0.159 0.174-0.323 0.35-0.487 0.521" fill="#fac090"/><path id="path620" d="m393.8 300.92c0.294 2.013-0.283 5.958 1.54 5.456 0.129-0.036 0.249-0.079 0.36-0.129l0.094-0.046 0.036-0.018 0.062-0.034 0.138-0.087c0.72-0.494 1.115-1.425 1.945-2.898 0.159-0.281 0.327-0.574 0.523-0.896 0.058-0.095 0.123-0.196 0.207-0.313l0.019-0.029c0.074-0.115 0.392-0.61 0.908-1.383l-0.035 0.053 0.043-0.064c0.13-0.194 0.277-0.413 0.432-0.642l0.109-0.16c0.157-0.233 0.324-0.477 0.504-0.738l0.069-0.101c0.167-0.243 0.345-0.499 0.53-0.764l0.125-0.178c0.2-0.287 0.411-0.586 0.631-0.894l0.156-0.22c0.226-0.317 0.459-0.642 0.703-0.978l0.059-0.081c0.239-0.329 0.488-0.669 0.743-1.013l0.18-0.245c0.263-0.354 0.533-0.715 0.811-1.082l0.176-0.232c0.267-0.352 0.54-0.708 0.819-1.068l0.102-0.133c0.3-0.386 0.608-0.778 0.921-1.172l0.209-0.262c0.315-0.395 0.635-0.791 0.961-1.189l0.059-0.071 0.098-0.119c0.304-0.37 0.613-0.74 0.926-1.111l0.162-0.193c0.337-0.397 0.679-0.793 1.024-1.188l0.23-0.262c0.353-0.4 0.709-0.798 1.068-1.193l0.108-0.116c0.34-0.371 0.683-0.738 1.028-1.101l0.202-0.213c0.362-0.377 0.726-0.749 1.092-1.114l0.227-0.224c0.38-0.376 0.761-0.747 1.144-1.106l1.8-1.039v-0.001l0.255-0.164 0.099-0.087 0.21-0.185 0.172-0.152 0.115-0.101 0.065-0.077 0.001-0.001 0.044-0.044 0.034-0.044 0.036-0.046 0.141-0.167 0.061-0.097c0.176-0.24 0.341-0.491 0.477-0.757 0.201-0.15 0.403-0.3 0.605-0.443l0.002-0.002c0.384-0.269 0.766-0.551 1.144-0.848l0.244-0.201 0.133-0.101 0.154-0.136c0.449-0.373 0.894-0.76 1.331-1.178 0.271-0.263 0.547-0.535 0.812-0.821 0.164-0.171 0.328-0.347 0.487-0.521l0.026-0.027 0.188-0.159c0.15-0.086 0.272-0.058 0.335 0.043l0.008 0.01 0.031 0.191-0.006 0.056-0.06 0.189-0.027 0.089c-0.276 0.551-0.494 1.088-0.677 1.632 0.23-0.239 0.46-0.465 0.793-0.751 0.118-0.067 0.222-0.057 0.296 0l0.055 0.064 0.025 0.041 0.021 0.152-0.007 0.044-0.048 0.167-0.022 0.048-0.163 0.237c-0.839 0.939-1.246 2.158-1.291 3.332l0.009 3.523c0.009 2.367-0.387 4.858-1.093 7.348-1.667 5.874-5.119 11.742-9.441 16.033-1.605 1.591-3.322 2.977-5.118 4.049-0.125 0.072-0.254 0.148-0.382 0.223l-0.142 0.082-0.048 0.027-0.187 0.101c-0.339 0.198-0.676 0.416-1.01 0.653-0.369 0.259-0.736 0.542-1.096 0.856-0.204 0.179-0.405 0.367-0.608 0.55-1.434 1.296-2.826 2.692-4.186 4.227l-0.014 0.014-0.078 0.064c-0.049 0.032-0.131 0.071-0.264 0.125l-0.037-0.006c-0.142-0.007-0.239-0.115-0.171-0.367 0.063-0.215 0.126-0.431 0.189-0.64 0.091-0.289 0.151-0.567 0.196-0.837 0.089-0.525 0.102-1.012 0.028-1.43-0.126 0.186-0.253 0.385-0.374 0.594-0.073 0.129-0.171 0.226-0.269 0.283l-0.139 0.05h-0.038l-0.082-0.014-0.112-0.141c-0.117-0.5-0.017-1.096 0.024-1.643 0.013-0.166 0.015-0.325 0.009-0.478l-0.323-0.188c-0.413-0.085-0.813-0.201-1.204-0.348l-0.057-0.021c-0.363-0.139-0.719-0.31-1.071-0.508l-0.05-0.024-0.022-0.014c-3.554-2.075-5.149-7.015-4.521-13.133l0.473-4.563h0.001c0.487 2.32 1.236 3.757 1.687 5.962 0.065 0.315 0.123 0.646 0.174 0.997" fill="#f68c46"/><path id="path622" d="m396.22 302.48 0.11 0.114h0.001l0.127 0.08 0.088 0.05 0.051 0.029 0.219 0.059 0.081 0.019h0.001l0.074 0.005 0.073-0.001h0.003l0.143-0.013 0.035-0.002c0.111-0.017 0.226-0.048 0.342-0.092 0.116-0.043 0.234-0.099 0.353-0.168l0.128-0.079 0.034-0.023 0.128-0.089v-0.001h0.001l0.001-0.001 0.087-0.068 0.014-0.011 0.008-0.006 0.034-0.028 0.077-0.066 0.039-0.034 0.077-0.071 0.033-0.032 0.108-0.109h0.001l0.01 0.005c-0.084 0.117-0.149 0.218-0.207 0.313-0.196 0.322-0.364 0.615-0.523 0.896-0.83 1.473-1.225 2.404-1.945 2.898l-0.138 0.087-0.062 0.034-0.036 0.018-0.094 0.046c-0.111 0.05-0.231 0.093-0.36 0.129-1.823 0.502-1.246-3.443-1.54-5.456-0.051-0.351-0.109-0.682-0.174-0.997-0.451-2.205-1.2-3.642-1.687-5.962l-0.001-0.003 0.005-0.043 4.183 8.436 0.098 0.137" fill="#d4733b"/><path id="path624" d="m397.23 302.82-0.035 0.002 0.012-0.001c0.123-0.018 0.242-0.049 0.361-0.093h0.001c0.119-0.043 0.237-0.099 0.356-0.168-0.119 0.069-0.237 0.125-0.353 0.168-0.116 0.044-0.231 0.075-0.342 0.092" fill="#f68c46"/><path id="path626" d="m398.22 302.37 0.001-0.001h-0.001v0.001" fill="#f68c46"/><path id="path628" d="m398.77 287.74 0.008 0.039 0.018 0.056 0.069 0.212 0.001 0.001c0.053 0.113 0.128 0.201 0.21 0.276l0.009 0.008 0.107 0.087 0.067 0.039 0.101 0.029-0.025-0.009 0.027 0.01 0.253 0.037-0.026-0.001 0.027 0.001h-0.001 0.003c0.213 0 0.45-0.061 0.705-0.208 0.271-0.156 0.525-0.383 0.748-0.652 0.253-0.307 0.463-0.668 0.608-1.04l0.039-0.106c0.035-0.1 0.065-0.201 0.09-0.302l0.018-0.08c0.041-0.184 0.063-0.365 0.062-0.54-0.001-0.433-0.138-0.746-0.358-0.931l-0.104-0.085-0.131-0.05-0.102-0.038h-0.001l-0.152-0.008-0.115-0.005-0.208 0.046-0.087 0.019h-0.001c-0.102 0.035-0.208 0.083-0.317 0.146-0.146 0.084-0.285 0.195-0.419 0.314l-0.196 0.183c-0.094 0.1-0.184 0.208-0.267 0.322-0.168 0.226-0.312 0.476-0.424 0.734l-0.001 0.001-0.046 0.125-0.098 0.267c-0.079 0.263-0.122 0.527-0.122 0.778 0.001 0.117 0.013 0.224 0.031 0.325zm13.034-7.868c0 0.133 0.012 0.256 0.035 0.369l0.026 0.083 0.072 0.222 0.054 0.083 0.102 0.156 0.001 0.002 0.037 0.031 0.05 0.04 0.117 0.095 0.002 0.002 0.144 0.054-0.005-0.002 0.109 0.04 0.163 0.009h-0.001l0.125 0.006h0.001c0.202-0.018 0.425-0.092 0.658-0.226 0.116-0.067 0.229-0.146 0.338-0.235 0.763-0.623 1.337-1.739 1.334-2.67-0.001-0.402-0.108-0.714-0.29-0.919l-0.087-0.071 0.004 0.003-0.121-0.098-0.14-0.053-0.109-0.041h-0.002l-0.161-0.008-0.123-0.006-0.223 0.049-0.092 0.02c-0.11 0.037-0.223 0.089-0.339 0.156-0.35 0.202-0.674 0.511-0.942 0.875-0.448 0.606-0.739 1.364-0.737 2.034zm-19.472 2.579c0.012 0.109 0.032 0.187 0.061 0.192l0.039 0.012c0.043 0.01 0.122 0.022 0.234 0.031 0.111 0.009 0.255 0.015 0.429 0.013 0.348-0.004 0.815-0.04 1.38-0.149 0.424-0.081 0.904-0.204 1.429-0.385 0.351-0.121 0.722-0.267 1.111-0.445s0.796-0.386 1.219-0.631c0.144-0.083 0.291-0.178 0.439-0.283 0.444-0.315 0.902-0.721 1.374-1.18 0.157-0.153 0.315-0.311 0.475-0.474 0.319-0.327 0.644-0.671 0.973-1.022 0.164-0.175 0.33-0.352 0.497-0.53 1.009-1.074 2.056-2.158 3.118-2.939 0.253-0.186 0.508-0.355 0.793-0.519 0.098-0.056 0.177-0.099 0.252-0.138 0.154-0.079 0.308-0.149 0.462-0.211 1.662-0.66 3.353-1.021 4.962-1.41 0.804-0.194 1.588-0.396 2.337-0.645 0.75-0.25 1.464-0.547 2.13-0.933 2.846-1.649 5.167-4.27 5.701-5.614 0.076-0.193 0.116-0.358 0.116-0.492 0-0.112-0.012-0.218-0.013-0.331 0.194 0.737 0.331 1.533 0.415 2.378l0.008 0.059 0.068-0.015c1.171-0.35 2.44 0.265 2.444 1.897 0.005 1.623-1.248 3.7-2.418 4.701l0.006 2.101c-0.437 0.418-0.882 0.805-1.331 1.178-0.096 0.079-0.191 0.159-0.287 0.237l-0.244 0.201c-0.378 0.297-0.76 0.579-1.144 0.848l-0.002 0.002c-0.202 0.143-0.404 0.293-0.605 0.443-0.136 0.266-0.301 0.517-0.477 0.757l-0.061 0.097-0.141 0.167-0.038 0.044-0.076 0.09-0.001 0.001-0.065 0.077-0.115 0.101-0.172 0.152-0.21 0.185-0.099 0.087-0.255 0.164v0.001l-1.8 1.039c-0.383 0.359-0.764 0.73-1.144 1.106l-0.227 0.224c-0.366 0.365-0.73 0.737-1.092 1.114l-0.202 0.213c-0.345 0.363-0.688 0.73-1.028 1.101l-0.108 0.116c-0.359 0.395-0.715 0.793-1.068 1.193l-0.23 0.262c-0.345 0.395-0.687 0.791-1.024 1.188l-0.162 0.193c-0.313 0.371-0.622 0.741-0.926 1.111l-0.098 0.117-0.059 0.073c-0.326 0.398-0.646 0.794-0.961 1.189l-0.209 0.262c-0.313 0.394-0.621 0.786-0.921 1.172l-0.102 0.133c-0.279 0.36-0.552 0.716-0.819 1.068l-0.176 0.232c-0.278 0.367-0.548 0.728-0.811 1.082l-0.18 0.245c-0.255 0.344-0.504 0.684-0.743 1.013l-0.059 0.081c-0.244 0.336-0.477 0.661-0.703 0.978l-0.156 0.22c-0.22 0.308-0.431 0.607-0.631 0.894l-0.125 0.178c-0.185 0.265-0.363 0.521-0.53 0.764l-0.069 0.101c-0.18 0.261-0.347 0.505-0.504 0.738l-0.109 0.16c-0.155 0.229-0.302 0.448-0.432 0.642l-0.043 0.064c-0.122 0.18-0.233 0.347-0.331 0.494l-0.084 0.125c-0.072 0.108-0.137 0.206-0.193 0.291-0.066 0.099-0.123 0.186-0.166 0.252l-0.049 0.072-0.079 0.12h-0.001l-0.108 0.109-0.033 0.032-0.077 0.071-0.039 0.034-0.077 0.066-0.034 0.028-0.008 0.006-0.014 0.011-0.087 0.068-0.001 0.001-0.001 0.001-0.128 0.089-0.034 0.023-0.128 0.079c-0.119 0.069-0.237 0.125-0.356 0.168h-0.001c-0.119 0.044-0.238 0.075-0.361 0.093l-0.012 0.001-0.143 0.013h-0.003l-0.073 0.001-0.074-0.005h-0.001l-0.081-0.019-0.219-0.059-0.051-0.029-0.088-0.051-0.127-0.079h-0.001l-0.11-0.114-0.098-0.137-4.183-8.436v-0.001l-0.006-2.105-0.002-0.823c-0.146 0.048-0.293 0.08-0.439 0.099l-0.145 0.004c-0.097 0.005-0.194 0.012-0.289 0.004l-0.163-0.03-0.249-0.053-0.16-0.069c-0.608-0.265-1.059-0.868-1.061-1.833-0.005-1.697 1.352-3.881 2.562-4.825 0.067-0.81 0.173-1.63 0.325-2.456-0.002 0.093-0.004 0.173-0.004 0.252 0 0.131 0.005 0.272 0.018 0.381" fill="#fac090"/><path id="path630" d="m402.99 266.93-0.009 0.011c-0.146 0.169-0.287 0.334-0.417 0.5-0.115 0.146-0.218 0.286-0.322 0.425l0.003 0.001c-1.723 2.388-1.959 4.307-1.972 4.408l12.969-7.488-0.018-0.11-0.009-0.037v0.001l-0.004-0.018-0.031-0.132-0.001-0.002-0.029-0.1-0.061-0.182-0.052-0.133-0.098-0.207-0.075-0.144-0.178-0.264-0.06-0.086 0.05 0.074-0.107-0.131 0.057 0.056-0.056-0.057-0.011-0.012-0.003-0.003v-0.001l-0.044-0.043-0.202-0.204-0.177-0.127c-0.089-0.063-0.178-0.126-0.281-0.179l-0.03-0.014-0.019-0.009-0.054-0.026c-0.143-0.065-0.301-0.117-0.471-0.158l-0.075-0.026-0.058-0.006c-0.092-0.02-0.185-0.033-0.283-0.042-0.081-0.007-0.168-0.01-0.26-0.01-0.127 0.001-0.26 0.004-0.399 0.018-0.109 0.01-0.231 0.027-0.352 0.044-0.081 0.014-0.161 0.027-0.254 0.054-0.202 0.043-0.41 0.097-0.641 0.177l-0.126 0.047c-0.208 0.073-0.433 0.163-0.664 0.27l-0.225 0.104c-0.283 0.13-0.571 0.276-0.882 0.456-0.352 0.203-0.675 0.409-0.986 0.616-0.098 0.063-0.19 0.129-0.283 0.196-0.219 0.153-0.421 0.296-0.622 0.452-0.093 0.073-0.184 0.14-0.277 0.213-0.236 0.19-0.461 0.379-0.674 0.575-0.109 0.096-0.207 0.193-0.311 0.292-0.127 0.12-0.253 0.246-0.374 0.369-0.116 0.12-0.231 0.239-0.34 0.362l-0.202 0.23zm0.58-7.463 0.188-0.166c0.102-0.059 0.19-0.054 0.257-0.009l0.109 0.167 0.084-0.062c0.513-0.393 1.022-0.75 1.525-1.059 0.204-0.129 0.408-0.251 0.61-0.368 0.203-0.117 0.405-0.228 0.606-0.335 0.164-0.103 0.327-0.204 0.492-0.301l0.165-0.096c0.269-0.156 0.541-0.303 0.814-0.439l0.053-0.023c0.433-0.222 0.865-0.417 1.302-0.58 0.039-0.231 0.181-0.474 0.362-0.578l0.047-0.013 0.144-0.04 0.042 0.004c2.161 0.082 4.084 0.614 5.797 1.596 0.077-0.13 0.189-0.25 0.297-0.312l0.169-0.044c0.164 0.022 0.321 0.055 0.478 0.089 0.591 0.129 1.129 0.341 1.613 0.631 0.217 0.13 0.423 0.273 0.618 0.433l0.109 0.097c0.168 0.146 0.327 0.303 0.478 0.471l0.103 0.113c0.167 0.196 0.322 0.406 0.466 0.63l0.091 0.15c0.124 0.204 0.24 0.419 0.347 0.643l0.058 0.12c0.116 0.257 0.219 0.528 0.311 0.809l0.061 0.198c0.082 0.267 0.154 0.542 0.215 0.828l0.021 0.09c0.064 0.312 0.112 0.638 0.151 0.971l0.025 0.239c0.034 0.341 0.06 0.689 0.069 1.051 0.001 0.113 0.013 0.219 0.013 0.331 0 0.134-0.04 0.299-0.116 0.492-0.534 1.344-2.855 3.965-5.701 5.614-0.666 0.386-1.38 0.683-2.13 0.933-0.749 0.249-1.533 0.451-2.337 0.645-1.609 0.389-3.3 0.75-4.962 1.41-0.154 0.062-0.308 0.132-0.462 0.211-0.075 0.039-0.154 0.082-0.252 0.138l-0.025 0.013c-0.257 0.148-0.513 0.319-0.768 0.506-1.062 0.781-2.109 1.865-3.118 2.939-0.167 0.178-0.333 0.355-0.497 0.53-0.329 0.351-0.654 0.695-0.973 1.022-0.16 0.163-0.318 0.321-0.475 0.474-0.472 0.459-0.93 0.865-1.374 1.18-0.148 0.105-0.295 0.2-0.439 0.283-0.423 0.245-0.83 0.453-1.219 0.631s-0.76 0.324-1.111 0.445c-0.525 0.181-1.005 0.304-1.429 0.385-0.565 0.109-1.032 0.145-1.38 0.149-0.174 0.002-0.318-0.004-0.429-0.013-0.112-0.009-0.191-0.021-0.234-0.031l-0.039-0.012c-0.029-0.005-0.049-0.083-0.061-0.192-0.013-0.109-0.018-0.25-0.018-0.381 0-0.079 0.002-0.159 0.004-0.252l0.003-0.083c0.431-4.629 1.602-9.407 4.969-13.76l0.171-0.153c0.109-0.063 0.22-0.072 0.302-0.034 1.463-2.546 3.1-4.934 4.906-7.199 0.199-0.249 0.396-0.5 0.599-0.747 0.103-0.125 0.2-0.255 0.305-0.379" fill="#f68c46"/><path id="path632" d="m403.91 265.97c0.104-0.099 0.202-0.196 0.311-0.292 0.213-0.196 0.438-0.386 0.674-0.575 0.093-0.073 0.184-0.14 0.277-0.213 0.201-0.156 0.403-0.299 0.622-0.452 0.093-0.067 0.185-0.133 0.283-0.196 0.311-0.207 0.634-0.413 0.986-0.616 0.311-0.18 0.6-0.326 0.882-0.456l0.225-0.104c0.231-0.107 0.456-0.197 0.664-0.27l0.127-0.047c0.23-0.08 0.438-0.134 0.64-0.177 0.093-0.027 0.173-0.04 0.254-0.054 0.121-0.017 0.243-0.034 0.352-0.044 0.139-0.014 0.272-0.017 0.399-0.018 0.092 0 0.179 0.003 0.26 0.01 0.098 0.009 0.191 0.022 0.283 0.042l0.052 0.01c-0.748 0.89-2.58 2.671-3.341 3.203-0.451 0.313-0.875 0.582-1.271 0.814l-0.079 0.046-0.187 0.106c-0.322 0.18-0.625 0.335-0.908 0.467-1.983 0.925-3.022 0.761-3.163 0.71l-0.003 0.004-0.003-0.001c0.104-0.139 0.207-0.279 0.322-0.425 0.13-0.166 0.271-0.331 0.417-0.5l0.009-0.011 0.202-0.23c0.109-0.123 0.224-0.242 0.34-0.362 0.121-0.123 0.247-0.249 0.374-0.369" fill="#f79aa4"/><g fill="#fac090"><path id="path634" d="m405.41 267.15c0.283-0.132 0.586-0.287 0.908-0.467l0.187-0.106 0.079-0.046c0.396-0.232 0.82-0.501 1.271-0.814 0.761-0.532 2.593-2.313 3.341-3.203l0.027 0.008 0.074 0.025c0.17 0.043 0.333 0.092 0.475 0.158l0.03 0.015 0.019 0.009c0.13 0.064 0.242 0.141 0.35 0.221l-0.039-0.028 0.177 0.127-0.012-0.009 0.208 0.209 0.044 0.044 0.015 0.016 0.004 0.004 0.107 0.131c0.07 0.094 0.138 0.189 0.192 0.283l-0.004-0.007 0.075 0.144-0.01-0.018 0.11 0.23-0.002-0.005 0.052 0.133-0.002-0.005 0.064 0.191-0.001-0.004 0.029 0.1 0.032 0.134 0.004 0.018v-0.001l0.009 0.037 0.018 0.11-12.969 7.488c0.013-0.101 0.249-2.02 1.972-4.408l0.003-0.004c0.141 0.051 1.18 0.215 3.163-0.71"/><path id="path636" d="m412.56 263.3 0.011 0.012 0.056 0.057-0.057-0.056-0.002-0.003-0.008-0.01"/><path id="path638" d="m413.18 264.49 0.001 0.002-0.001-0.002"/><path id="path640" d="m412.63 263.37 0.06 0.086-0.01-0.012-0.05-0.074"/></g><path id="path642" d="m421.85 264.37c-0.009-0.362-0.035-0.71-0.069-1.051l-0.025-0.239c-0.039-0.333-0.087-0.659-0.151-0.971l-0.021-0.09c-0.061-0.286-0.133-0.561-0.215-0.828l-0.061-0.198c-0.092-0.281-0.195-0.552-0.311-0.809l-0.058-0.12c-0.107-0.224-0.223-0.439-0.347-0.643l-0.091-0.15c-0.144-0.224-0.299-0.434-0.466-0.63l-0.103-0.113c-0.151-0.168-0.31-0.325-0.478-0.471l-0.109-0.097c-0.195-0.16-0.401-0.303-0.618-0.433l-0.054-0.038 6.366 3.7c2.005 1.165 3.097 3.63 3.177 6.88l-0.117-0.068-6.249-3.631" fill="#f58033"/><path id="path644" d="m413.48 276.97c0.116-0.067 0.229-0.119 0.339-0.156l0.092-0.02 0.223-0.049 0.123 0.006 0.161 0.008h0.002l0.109 0.041 0.14 0.053 0.121 0.098-0.004-0.003 0.087 0.071c0.182 0.205 0.289 0.517 0.29 0.919 0.003 0.931-0.571 2.047-1.334 2.67-0.109 0.089-0.222 0.168-0.338 0.235-0.233 0.134-0.456 0.208-0.658 0.226l-0.126-0.006h0.001l-0.163-0.009-0.109-0.04 0.005 0.002-0.144-0.054-0.002-0.002-0.117-0.095-0.05-0.04-0.037-0.031-0.001-0.002-0.102-0.156-0.054-0.083-0.072-0.222-0.026-0.083c-0.023-0.113-0.035-0.236-0.035-0.369-0.002-0.67 0.289-1.428 0.737-2.034 0.268-0.364 0.592-0.673 0.942-0.875" fill="#121212"/><path id="path646" d="m399.75 317.26 0.078-0.064 0.014-0.014c1.36-1.535 2.752-2.931 4.186-4.227 0.203-0.183 0.405-0.371 0.61-0.551 0.36-0.312 0.725-0.595 1.094-0.855 0.334-0.237 0.671-0.455 1.01-0.653l0.187-0.101 0.048-0.025 0.142-0.084c0.128-0.075 0.257-0.151 0.382-0.223 1.796-1.072 3.513-2.458 5.118-4.049 4.324-4.29 7.776-10.157 9.441-16.033 0.706-2.49 1.102-4.981 1.093-7.348l-0.009-3.523c0.045-1.174 0.452-2.393 1.291-3.332l0.163-0.237 0.022-0.048 0.048-0.167 0.007-0.044-0.021-0.152-0.025-0.041-0.055-0.064c-0.074-0.057-0.178-0.067-0.296 0-0.333 0.286-0.563 0.512-0.793 0.751 0.183-0.544 0.401-1.081 0.677-1.632l0.032-0.086 0.055-0.192 0.006-0.056-0.031-0.191-0.008-0.01-0.065-0.07 4.73 2.749 1.635 0.95c0.128 0.074 0.162 0.304 0.011 0.606-0.084 0.168-0.153 0.333-0.227 0.499l0.62 0.361c0.163 0.099 0.199 0.424-0.117 0.768-0.84 0.939-1.247 2.167-1.292 3.341l0.009 3.523c0.027 10.016-6.972 22.245-15.652 27.43-0.171 0.099-0.352 0.198-0.524 0.298l-0.235 0.135c-0.713 0.407-1.417 0.903-2.104 1.508-1.653 1.437-3.242 3.026-4.796 4.778-0.036 0.037-0.079 0.071-0.193 0.125l0.023 0.013-0.195 0.06-0.049 0.02-0.069-0.04-0.012-0.002-4.952-2.878-1.335-0.774h0.002l-0.081-0.047 0.101 0.017 0.037 0.006c0.133-0.054 0.215-0.093 0.264-0.125" fill="#f58033"/><path id="path648" d="m398.96 286.38 0.046-0.125 0.001-0.001c0.112-0.258 0.256-0.508 0.424-0.734 0.083-0.114 0.173-0.222 0.267-0.322l0.196-0.183c0.134-0.119 0.273-0.23 0.419-0.314 0.109-0.063 0.215-0.111 0.317-0.146h0.001l0.087-0.019 0.208-0.046 0.115 0.005 0.151 0.008h0.002l0.102 0.038 0.131 0.05 0.104 0.085c0.22 0.185 0.357 0.498 0.358 0.931 0.001 0.175-0.021 0.356-0.062 0.54l-0.018 0.08c-0.025 0.101-0.055 0.202-0.09 0.302l-0.039 0.106c-0.145 0.372-0.355 0.733-0.608 1.04-0.223 0.269-0.477 0.496-0.748 0.652-0.255 0.147-0.492 0.208-0.705 0.208h-0.003l-0.253-0.037-0.027-0.01 0.025 0.009-0.101-0.029-0.067-0.039-0.107-0.087-0.009-0.008c-0.082-0.075-0.157-0.163-0.21-0.276l-0.001-0.001-0.069-0.212-0.018-0.056-0.008-0.039c-0.018-0.101-0.03-0.208-0.031-0.325 0-0.251 0.043-0.515 0.122-0.778l0.098-0.267" fill="#121212"/><path id="path650" d="m399.59 288.53 0.026 0.001h0.001l-0.027-0.001" fill="#121212"/></g></g></g></svg>
