<?xml version="1.0" encoding="UTF-8" standalone="no"?>
<!-- Created with Inkscape (http://www.inkscape.org/) -->
<svg id="svg5251" xmlns:rdf="http://www.w3.org/1999/02/22-rdf-syntax-ns#" xmlns="http://www.w3.org/2000/svg" height="500" width="500" version="1.1" xmlns:cc="http://creativecommons.org/ns#" xmlns:dc="http://purl.org/dc/elements/1.1/" viewBox="0 0 1771.6535 1771.6535">
 <defs id="defs5253">
  <clipPath id="clipPath38" clipPathUnits="userSpaceOnUse">
   <path id="path40" d="m5851.3 3081.3c-655.64 0-1187.2 103.57-1187.2 231.33s531.51 231.33 1187.2 231.33c655.65 0 1187.2-103.57 1187.2-231.33s-531.5-231.33-1187.2-231.33"/>
  </clipPath>
  <radialGradient id="radialGradient42" gradientUnits="userSpaceOnUse" cy="0" cx="0" gradientTransform="matrix(7319.5 -66.811 66.811 7319.5 6014.9 6e3)" r="1">
   <stop id="stop44" stop-color="#c5c4c2" offset="0"/>
   <stop id="stop46" stop-color="#c5c4c2" offset=".34694"/>
   <stop id="stop48" stop-color="#c5c4c2" offset=".47194"/>
   <stop id="stop50" stop-color="#adabaa" offset="1"/>
  </radialGradient>
  <clipPath id="clipPath60" clipPathUnits="userSpaceOnUse">
   <path id="path62" d="m7999.6 5951.6s-15.82 79.62-103.24 43.57c-155.1-63.96-179.41-194.72-179.41-194.72s-434-243.13-515.35-265.84l1.31-188.08s434.43 225.58 584.96 361.43c149.43-48.96 228.61 76.24 254.56 124.5 25.97 48.26-42.83 119.14-42.83 119.14z"/>
  </clipPath>
  <linearGradient id="linearGradient64" gradientUnits="userSpaceOnUse" gradientTransform="matrix(698.5 -200.91 200.91 698.5 7267.6 5764)">
   <stop id="stop66" stop-color="#f9ab67" offset="0"/>
   <stop id="stop68" stop-color="#f9ab67" offset=".010204"/>
   <stop id="stop70" stop-color="#fbcb8a" offset="1"/>
  </linearGradient>
  <clipPath id="clipPath82" clipPathUnits="userSpaceOnUse">
   <path id="path84" d="m4760.3 5756.8c148.67-28.99 302.78-52.19 461.3-69.07 200.53-21.34 408.15-32.57 620.8-32.57 15 0 29.98 0.05 44.94 0.17 166.84 1.24 330.45 9.39 489.87 23.91 188.88 17.2 371.86 43.36 547.29 77.56-19.03 121.81-38.06 243.62-57.1 365.43-21.71 138.98-43.43 277.96-65.14 416.93-24.63 157.61-49.25 315.22-73.88 472.84-1.64 10.49-3.28 20.99-4.92 31.48-25.43 162.78-93.91 309.52-192.74 429.36-85.8 104.04-194.48 187.81-317.74 244.19-104.04 47.58-218.44 75.66-338.23 79.95-159.21 5.71-318.76-31.6-458.67-107.85-100.37-54.7-189.38-128.23-262-216.29-98.83-119.84-167.3-266.58-192.73-429.36-1.64-10.49-3.28-20.99-4.92-31.48-24.63-157.62-49.25-315.23-73.88-472.84-21.72-138.97-43.44-277.95-65.15-416.93-19.03-121.81-38.06-243.62-57.1-365.43z"/>
  </clipPath>
  <clipPath id="clipPath88" clipPathUnits="userSpaceOnUse">
   <path id="path90" d="m4760.3 5756.8c148.67-28.99 302.78-52.19 461.3-69.07 200.53-21.34 408.15-32.57 620.8-32.57 15 0 29.98 0.05 44.94 0.17 166.84 1.24 330.45 9.39 489.87 23.91 188.88 17.2 371.86 43.36 547.29 77.56-19.03 121.81-38.06 243.62-57.1 365.43-21.71 138.98-43.43 277.96-65.14 416.93-24.63 157.61-49.25 315.22-73.88 472.84-1.64 10.49-3.28 20.99-4.92 31.48-25.43 162.78-93.91 309.52-192.74 429.36-85.8 104.04-194.48 187.81-317.74 244.19-104.04 47.58-218.44 75.66-338.23 79.95-159.21 5.71-318.76-31.6-458.67-107.85-100.37-54.7-189.38-128.23-262-216.29-98.83-119.84-167.3-266.58-192.73-429.36-1.64-10.49-3.28-20.99-4.92-31.48-24.63-157.62-49.25-315.23-73.88-472.84-21.72-138.97-43.44-277.95-65.15-416.93-19.03-121.81-38.06-243.62-57.1-365.43"/>
  </clipPath>
  <clipPath id="clipPath368" clipPathUnits="userSpaceOnUse">
   <path id="path370" d="m7059.4 5220.8 199.93 122.07-66.96 226.82-185.31-13.95-38.55 246.71c-248.16-48.38-510.9-81.19-783.81-96.27l0.01-0.04-302.16-539.71-357.06 538.4c-282.02 14.41-553.37 47.74-809.24 97.62l-37.63-240.84-283.66-195.38 170.38-143.65 61.61 8.32-45.42-290.64c-7.24-46.37-11.83-92.46-14.03-138.16 350.61-144.98 793.43-231.53 1274.9-231.53 481.45 0 924.27 86.55 1274.9 231.53-2.2 45.7-6.79 91.79-14.04 138.16l-43.83 280.54z"/>
  </clipPath>
  <radialGradient id="radialGradient372" gradientUnits="userSpaceOnUse" cy="0" cx="0" gradientTransform="matrix(1102.4 0 0 1102.4 5827.2 5186.5)" r="1">
   <stop id="stop374" stop-color="#f4f4f4" offset="0"/>
   <stop id="stop376" stop-color="#d6d5d5" offset="1"/>
  </radialGradient>
  <clipPath id="clipPath398" clipPathUnits="userSpaceOnUse">
   <path id="path400" d="m6184.8 5706.2-153.57-274.3c636.74 9.35 975.92 123.9 975.92 123.9l-38.55 246.71c-248.16-48.38-510.9-81.19-783.81-96.27l0.01-0.04z"/>
  </clipPath>
  <radialGradient id="radialGradient402" gradientUnits="userSpaceOnUse" cy="0" cx="0" gradientTransform="matrix(906.69 -28.815 28.815 906.69 6519.1 5617.2)" r="1">
   <stop id="stop404" stop-color="#d0d0d0" offset="0"/>
   <stop id="stop406" stop-color="#9b999a" offset="1"/>
  </radialGradient>
  <clipPath id="clipPath414" clipPathUnits="userSpaceOnUse">
   <path id="path416" d="m5525.5 5704.8c-282.02 14.41-553.37 47.74-809.24 97.62l-38.55-246.71c387.71-72.42 730.48-107.34 1025.8-119.4l-178.06 268.49z"/>
  </clipPath>
  <radialGradient id="radialGradient418" gradientUnits="userSpaceOnUse" cy="0" cx="0" gradientTransform="matrix(946.03 -30.065 30.065 946.03 5190.7 5619.4)" r="1">
   <stop id="stop420" stop-color="#d0d0d0" offset="0"/>
   <stop id="stop422" stop-color="#9b999a" offset="1"/>
  </radialGradient>
  <clipPath id="clipPath430" clipPathUnits="userSpaceOnUse">
   <path id="path432" d="m5524.7 5706.2-157.58-305.39 508.32-100.78-350.74 406.17z"/>
  </clipPath>
  <radialGradient id="radialGradient434" gradientUnits="userSpaceOnUse" cy="0" cx="0" gradientTransform="matrix(-344.79 143.94 -143.94 -344.79 5403.9 5518.3)" r="1">
   <stop id="stop436" stop-color="#b1b0b0" offset="0"/>
   <stop id="stop438" stop-color="#b1b0b0" offset=".045918"/>
   <stop id="stop440" stop-color="#706d6e" offset=".96939"/>
   <stop id="stop442" stop-color="#706d6e" offset="1"/>
  </radialGradient>
  <clipPath id="clipPath458" clipPathUnits="userSpaceOnUse">
   <path id="path460" d="m6184.8 5706.2 133.02-305.39-442.37-100.78 309.35 406.17z"/>
  </clipPath>
  <radialGradient id="radialGradient462" gradientUnits="userSpaceOnUse" cy="0" cx="0" gradientTransform="matrix(358.89 0 0 358.89 6297.4 5543.2)" r="1">
   <stop id="stop464" stop-color="#b1b0b0" offset="0"/>
   <stop id="stop466" stop-color="#b1b0b0" offset=".045918"/>
   <stop id="stop468" stop-color="#706d6e" offset=".96939"/>
   <stop id="stop470" stop-color="#706d6e" offset="1"/>
  </radialGradient>
  <clipPath id="clipPath478" clipPathUnits="userSpaceOnUse">
   <path id="path480" d="m5793.2 5422.4-117.73-651.81 212.02-199.74 226.88 205.14-160.86 646.41h-160.31z"/>
  </clipPath>
  <radialGradient id="radialGradient482" gradientUnits="userSpaceOnUse" cy="0" cx="0" gradientTransform="matrix(82.864 407.94 -407.94 82.864 5892.6 5063.9)" r="1">
   <stop id="stop484" stop-color="#b72929" offset="0"/>
   <stop id="stop486" stop-color="#b72929" offset=".051020"/>
   <stop id="stop488" stop-color="#8d2025" offset=".80612"/>
   <stop id="stop490" stop-color="#8d2025" offset="1"/>
  </radialGradient>
  <clipPath id="clipPath500" clipPathUnits="userSpaceOnUse">
   <path id="path502" d="m5762.8 5505c61.63 8.59 136.08 12.18 212.26-0.02 65.31-10.46 89.59-92.5 41.03-137.42-38.8-35.89-87.96-67.53-140.67-67.53-49.25 0-102.2 27.63-147.78 60.55-58.61 42.31-36.43 134.44 35.16 144.42z"/>
  </clipPath>
  <radialGradient id="radialGradient504" gradientUnits="userSpaceOnUse" cy="0" cx="0" gradientTransform="matrix(261.68 162.93 -162.93 261.68 5882.6 5412)" r="1">
   <stop id="stop506" stop-color="#9c2227" offset="0"/>
   <stop id="stop508" stop-color="#9c2227" offset=".14796"/>
   <stop id="stop510" stop-color="#56171a" offset=".98980"/>
   <stop id="stop512" stop-color="#56171a" offset="1"/>
  </radialGradient>
  <clipPath id="clipPath546" clipPathUnits="userSpaceOnUse">
   <path id="path548" d="m4461.8 4878.6s-73.91 120.87 103.63 343.98l-126.66 106.33s-196.16-326.09-126.15-526.39l-0.03-0.02 113.91-326.37c4.71-14.06 21.34-20 33.89-12.11l187.19 117.71c11.02 6.93 14.05 21.64 6.66 32.36l-61.94 89.86c-10.38 15.07 0.24 35.63 18.53 35.88 14.8 0.2 25.52 14.19 21.87 28.53l-1.06 4.13c-1.52 5.97-5.39 11.08-10.72 14.16l-159.12 91.95z"/>
  </clipPath>
  <linearGradient id="linearGradient550" gradientUnits="userSpaceOnUse" gradientTransform="matrix(66.701 -489.46 -489.46 -66.701 4426.7 5114.5)">
   <stop id="stop552" stop-color="#f9ab67" offset="0"/>
   <stop id="stop554" stop-color="#f9ab67" offset=".010204"/>
   <stop id="stop556" stop-color="#fbcb8a" offset="1"/>
  </linearGradient>
  <clipPath id="clipPath580" clipPathUnits="userSpaceOnUse">
   <path id="path582" d="m7896.3 5995.2c-15.04-6.2-28.82-13.04-41.49-20.32-12.91-28.13-21.1-73.61 19.17-124.74 12.38-15.71 22.32-32.19 30.81-48.5 22.92-44.05 84.29-49.06 113.13-8.65 10.75 15.07 18.85 29.08 24.45 39.5 25.97 48.27-42.83 119.14-42.83 119.14s-15.82 79.63-103.24 43.57z"/>
  </clipPath>
  <linearGradient id="linearGradient584" gradientUnits="userSpaceOnUse" gradientTransform="matrix(204 0 0 204 7844.3 5885)">
   <stop id="stop586" stop-color="#f9ab67" offset="0"/>
   <stop id="stop588" stop-color="#f9ab67" offset=".010204"/>
   <stop id="stop590" stop-color="#fbcb8a" offset="1"/>
  </linearGradient>
  <clipPath id="clipPath600" clipPathUnits="userSpaceOnUse">
   <path id="path602" d="m7755.1 5884s56 92.01 99.72 90.93c43.72-1.07-41.74-181.86-41.74-181.86"/>
  </clipPath>
  <linearGradient id="linearGradient604" gradientUnits="userSpaceOnUse" gradientTransform="matrix(-68.006 100.08 -100.08 -68.006 7846.5 5869.9)">
   <stop id="stop606" stop-color="#f9ab67" offset="0"/>
   <stop id="stop608" stop-color="#f9ab67" offset=".010204"/>
   <stop id="stop610" stop-color="#fbcb8a" offset="1"/>
  </linearGradient>
  <clipPath id="clipPath618" clipPathUnits="userSpaceOnUse">
   <path id="path620" d="m6074.1 5916.5-1.66 0.66c-58.11 20.8-128.34 38-207.28 42.04-84.08 4.3-178.05-6.34-277.82-43.48-13.15-4.9-23.48-16.69-21-29.31 0.78-3.98 2.83-8.05 6.48-12.01 4.6-5.01 11.47-8.08 20.06-7.12 62.2 6.97 139.4 13.43 221.92 15.23 80.02 1.74 165.06-0.89 246.3-11.69 5.95-0.8 11.09 0.32 15.25 2.69 3.7 2.1 6.64 5.17 8.68 8.76 6.49 11.36 4.08 27.8-10.93 34.23z"/>
  </clipPath>
  <clipPath id="clipPath624" clipPathUnits="userSpaceOnUse">
   <path id="path626" d="m6074.1 5916.5-1.66 0.66c-58.11 20.8-128.34 38-207.28 42.04-84.08 4.3-178.05-6.34-277.82-43.48-13.15-4.9-23.48-16.69-21-29.31 0.78-3.98 2.83-8.05 6.48-12.01 4.6-5.01 11.47-8.08 20.06-7.12 62.2 6.97 139.4 13.43 221.92 15.23 80.02 1.74 165.06-0.89 246.3-11.69 5.95-0.8 11.09 0.32 15.25 2.69 3.7 2.1 6.64 5.17 8.68 8.76 6.49 11.36 4.08 27.8-10.93 34.23"/>
  </clipPath>
  <clipPath id="clipPath680" clipPathUnits="userSpaceOnUse">
   <path id="path682" d="m5445.1 6157.2s403.51 288.68 767.8 27.51c258.41-185.26 146.27-261.1-28.14-231.76-174.02 29.29-412.73 35.93-603.47 0-176.84-33.31-432.64-10.73-136.19 204.25z"/>
  </clipPath>
  <radialGradient id="radialGradient684" gradientUnits="userSpaceOnUse" cy="0" cx="0" gradientTransform="matrix(393.69 0 0 393.69 5837.3 6117.3)" r="1">
   <stop id="stop686" stop-color="#9c2227" offset="0"/>
   <stop id="stop688" stop-color="#9c2227" offset=".14796"/>
   <stop id="stop690" stop-color="#56171a" offset=".98980"/>
   <stop id="stop692" stop-color="#56171a" offset="1"/>
  </radialGradient>
 </defs>
 <metadata id="metadata5256">
  <rdf:RDF>
   <cc:Work rdf:about="">
    <dc:format>image/svg+xml</dc:format>
    <dc:type rdf:resource="http://purl.org/dc/dcmitype/StillImage"/>
    <dc:title/>
   </cc:Work>
  </rdf:RDF>
 </metadata>
 <g id="layer1" transform="translate(0 719.29)">
  <g id="g4297" transform="matrix(3.2636 0 0 -3.0487 -1064.3 1905.6)">
   <g id="g34" transform="scale(.1)">
    <g id="g36" clip-path="url(#clipPath38)">
     <path id="path52" d="m5851.3 3081.3c-655.64 0-1187.2 103.57-1187.2 231.33s531.51 231.33 1187.2 231.33c655.65 0 1187.2-103.57 1187.2-231.33s-531.5-231.33-1187.2-231.33" fill="url(#radialGradient42)"/>
    </g>
   </g>
   <path id="path54" d="m588.3 360.65s0.114-18.028 0.599-24.946l20.598-3.033 5.027 2.14s47.648-13.836 64.329-10.489c16.36 3.283 1.015 24.598-35.482 27.943-1.174 0.108-2.352 0.151-3.531 0.185-3.723 0.108-13.868 0.987-14.56 7.356l-36.98 0.844" fill="#181619"/>
   <g id="g56" transform="scale(.1)">
    <g id="g58" clip-path="url(#clipPath60)">
     <path id="path72" d="m7999.6 5951.6s-15.82 79.62-103.24 43.57c-155.1-63.96-179.41-194.72-179.41-194.72s-434-243.13-515.35-265.84l1.31-188.08s434.43 225.58 584.96 361.43c149.43-48.96 228.61 76.24 254.56 124.5 25.97 48.26-42.83 119.14-42.83 119.14" fill="url(#linearGradient64)"/>
    </g>
   </g>
   <path id="path74" d="m721.6 553.96 6.965-14.881-8.281-4.418-0.131 18.808 1.447 0.491" fill="#e09660"/>
   <path id="path76" d="m580.35 360.16s-0.113-18.028-0.595-24.946l-20.461-3.033-4.995 2.14s-47.332-13.836-63.903-10.489c-16.252 3.283-1.008 24.598 35.248 27.943 1.166 0.108 2.336 0.151 3.506 0.186 3.7 0.107 13.777 0.987 14.465 7.355l36.735 0.844" fill="#181619"/>
   <g id="g78" transform="scale(.1)">
    <g id="g80" clip-path="url(#clipPath82)">
     <g id="g86" clip-path="url(#clipPath88)">
      <g id="g92" transform="matrix(10 0 0 -10 -93508 82455)">
       <g fill="#f89a55">
        <path id="path94" d="m9826.8 7669.8c0.9512-6.0903 1.9033-12.181 2.8545-18.271 3.6621 0.4038 7.5957 0.5712 11.678 0.6123-1.1963 6.787-2.3887 13.548-3.2812 19.724-3.7832-0.6513-7.5342-1.3398-11.251-2.0644z"/>
        <path id="path96" d="m9838 7671.9c0.8925-6.1752 2.0849-12.936 3.2812-19.724 4.083 0.041 8.3144-0.044 12.572-0.1475-1.83 7.7168-3.6464 15.352-4.4091 21.714-3.8457-0.5767-7.6611-1.1909-11.444-1.8428z"/>
        <path id="path98" d="m9829.6 7651.6c3.6621 0.4038 7.5957 0.5712 11.678 0.6123 0.5986-3.3931 1.1982-6.793 1.7617-10.129-4.3125 0.376-8.3886 0.5644-12.012 0.3809-0.4755 3.0454-0.9511 6.0908-1.4277 9.1362z"/>
        <path id="path100" d="m9831.1 7642.4c3.6231 0.1835 7.6992 0 12.012-0.3809 0.5635-3.3359 1.0908-6.6084 1.5459-9.747-4.3974 0.6611-8.5244 1.0756-12.13 0.9921-0.4756 3.0454-0.9522 6.0908-1.4278 9.1358z"/>
       </g>
       <path id="path102" d="m9841.3 7652.2c4.083 0.041 8.3144-0.044 12.572-0.1475 0.9151-3.8584 1.834-7.7373 2.626-11.488-4.5732 0.5669-9.124 1.1304-13.436 1.5059-0.5635 3.3364-1.1631 6.7363-1.7617 10.129z" fill="#f9a762"/>
       <path id="path104" d="m9843.1 7642c4.3125-0.3755 8.8633-0.939 13.436-1.5059 0.792-3.7499 1.457-7.3715 1.8662-10.716-4.6894 0.9052-9.3584 1.8134-13.757 2.4746-0.4551 3.1386-0.9824 6.4111-1.5459 9.747z" fill="#f9ad69"/>
       <path id="path106" d="m9849.5 7673.7c3.8466 0.5767 7.7236 1.1157 11.63 1.6157 0.3164-3.2744 1.0811-7.0234 2.0733-11.027-3.9737-0.3096-7.9512-0.6079-11.898-0.938-0.7784 3.6689-1.4229 7.168-1.8047 10.349z" fill="#f89a55"/>
       <path id="path108" d="m9851.3 7663.4c3.9472 0.3301 7.9247 0.6284 11.898 0.938 0.9912-4.0034 2.2099-8.2617 3.4345-12.554-4.1865 0.028-8.4707 0.1485-12.728 0.2515-0.915 3.8584-1.8261 7.6963-2.6044 11.365z" fill="#f9a762"/>
       <path id="path110" d="m9861.1 7675.4c3.9063 0.5 7.8418 0.9614 11.805 1.3833 0.2871-3.3164 1.0859-7.208 2.1455-11.407-3.9336-0.3735-7.9043-0.6933-11.877-1.0029-0.9922 4.0034-1.7569 7.7524-2.0733 11.027z" fill="#f89a55"/>
       <path id="path112" d="m9863.2 7664.3c3.9726 0.3096 7.9433 0.6294 11.877 1.0029 1.0595-4.1997 2.3789-8.707 3.705-13.255-3.8701-0.2661-7.9609-0.3301-12.147-0.3023-1.2246 4.2925-2.4433 8.5508-3.4345 12.554z" fill="#f9ad69"/>
       <path id="path114" d="m9853.9 7652c4.2578-0.103 8.542-0.2236 12.728-0.2515 1.2246-4.2924 2.4551-8.6196 3.4707-12.761-4.4043 0.3882-9.0009 0.958-13.573 1.5244-0.792 3.7505-1.7109 7.6294-2.626 11.488z" fill="#fab46f"/>
       <path id="path116" d="m9856.5 7640.5c4.5723-0.5664 9.1689-1.1362 13.573-1.5244 1.0147-4.1411 1.8145-8.0961 2.1787-11.646-4.4834 0.6479-9.1953 1.5498-13.886 2.4546-0.4092 3.3442-1.0742 6.9658-1.8662 10.716z" fill="#fabd79"/>
       <path id="path118" d="m9866.6 7651.8c4.1865-0.028 8.2773 0.036 12.147 0.3023 1.3252-4.5479 2.6582-9.1367 3.7461-13.499-3.8066-0.1592-8.0185 0.048-12.423 0.436-1.0156 4.1411-2.2461 8.4683-3.4707 12.761z" fill="#fabd79"/>
       <path id="path120" d="m9870.1 7639c4.4043-0.3882 8.6162-0.5952 12.423-0.436 1.0869-4.3628 1.9278-8.4985 2.2705-12.142-3.7763-0.1098-8.0312 0.2842-12.515 0.9317-0.3642 3.5498-1.164 7.5048-2.1787 11.646z" fill="#fbc785"/>
       <path id="path122" d="m9872.9 7676.7c10.026 1.0674 20.23 1.8818 30.585 2.4292 0.125-3.4463 0.4561-6.8237 0.8936-10.178-9.7265-1.269-19.354-2.7139-29.333-3.6587-1.0596 4.1992-1.8584 8.0908-2.1455 11.407z" fill="#f89a55"/>
       <path id="path124" d="m9875.1 7665.3c9.9794 0.9448 19.606 2.3897 29.333 3.6587 0.4365-3.3535 0.9775-6.6841 1.5224-10.036-8.6308-3.1133-17.275-6.2026-27.15-6.8779-1.3261 4.5478-2.6455 9.0551-3.705 13.255z" fill="#f9b06c"/>
       <path id="path126" d="m9878.8 7652.1c9.875 0.6753 18.52 3.7646 27.15 6.8779 0.545-3.3521 1.0918-6.7261 1.5401-10.168-7.5225-5.0136-15.173-9.8036-24.944-10.209-1.0879 4.3623-2.4209 8.9511-3.7461 13.499z" fill="#fbc17d"/>
       <path id="path128" d="m9882.5 7638.6c9.7715 0.4058 17.422 5.1958 24.944 10.209 0.4492-3.4414 0.7978-6.9501 0.9463-10.572-6.8574-5.9053-13.896-11.496-23.62-11.779-0.3427 3.6431-1.1836 7.7788-2.2705 12.142z" fill="#fbca89"/>
       <path id="path130" d="m9903.5 7679.2c10.356 0.5479 20.862 0.8281 31.495 0.8281-0.038-3.5766-0.2989-6.2221-0.6709-8.4038-10.379-0.2402-20.205-1.333-29.931-2.602-0.4375 3.354-0.7686 6.7314-0.8936 10.178z" fill="#f89a55"/>
       <path id="path132" d="m9904.4 7669c9.7255 1.269 19.552 2.3618 29.931 2.602-0.3731-2.1811-0.8575-3.8984-1.3428-5.6191-9.8183-0.769-18.434-3.9057-27.065-7.0185-0.5449 3.3515-1.0859 6.6821-1.5224 10.036z" fill="#f9ad68"/>
       <path id="path134" d="m9905.9 7659c8.6309 3.1128 17.247 6.2495 27.065 7.0185-0.4863-1.7202-0.9727-3.4438-1.3496-5.6372-9.2588-1.2983-16.652-6.5351-24.176-11.549-0.4483 3.4414-0.9951 6.8154-1.5401 10.168z" fill="#fabb77"/>
       <path id="path136" d="m9907.5 7648.8c7.5234 5.0137 14.917 10.25 24.176 11.549-0.377-2.1938-0.6445-4.8574-0.6914-8.4584-9.0039-1.5386-15.681-7.7573-22.538-13.662-0.1485 3.6216-0.4971 7.1303-0.9463 10.572z" fill="#fbc583"/>
       <path id="path138" d="m9935 7680c1.5 0 2.998-0.01 4.4941-0.017 0-7.3955-1.1123-10.631-2.2266-13.868-1.4502-0.0005-2.8808-0.027-4.2812-0.1387 0.9707 3.4409 1.9375 6.8696 2.0137 14.023z" fill="#f89a55"/>
       <path id="path140" d="m9933 7666c1.4004 0.1114 2.831 0.1382 4.2812 0.1387-1.1152-3.2373-2.2363-6.4751-2.2675-13.876-1.4053-0.012-2.7539-0.1362-4.0547-0.3588 0.094 7.2021 1.0693 10.655 2.041 14.096z" fill="#fab470"/>
       <path id="path142" d="m9939.5 7680c8.3418-0.062 16.602-0.2968 24.771-0.6977-0.1055-3.5552-0.041-6.9473 0.1084-10.265-8.5957 1.2749-17.285 2.4047-25.577 2.4697 0.417 2.1377 0.6944 4.7954 0.6973 8.4931z" fill="#f89a55"/>
       <path id="path144" d="m9938.8 7671.5c8.292-0.065 16.981-1.1948 25.577-2.4697 0.1504-3.3174 0.3857-6.561 0.623-9.8193-9.7255 3.4711-19.549 6.8437-27.729 6.9145 0.5567 1.6182 1.1123 3.2363 1.5293 5.3745z" fill="#f9a963"/>
       <path id="path146" d="m9937.3 7666.1c8.1807-0.071 18.004-3.4434 27.729-6.9145 0.2373-3.2583 0.4766-6.5313 0.6338-9.9077-10.866 5.7104-21.833 11.369-29.903 11.446 0.4238 2.1392 0.9824 3.7578 1.54 5.3765z" fill="#fab470"/>
       <path id="path148" d="m9935.7 7660.7c8.0703-0.077 19.037-5.7353 29.903-11.446 0.1563-3.377 0.2305-6.8574 0.1387-10.53-11.324 6.7144-22.75 13.398-30.769 13.477 0.016 3.7002 0.3037 6.3599 0.7275 8.499z" fill="#fabe7b"/>
       <path id="path150" d="m9964.3 7679.3c8.1689-0.4009 16.244-0.9678 24.215-1.6939-0.209-3.4126 0.1943-7.4882 0.9052-11.91-7.914 0.6445-16.416 2.064-25.012 3.3384-0.1494 3.3178-0.2139 6.7099-0.1084 10.265z" fill="#f89a55"/>
       <path id="path152" d="m9964.4 7669c8.5957-1.2744 17.098-2.6939 25.012-3.3384 0.712-4.4214 1.7315-9.1884 2.7559-13.985-7.79 0.4643-17.418 4.0337-27.144 7.5044-0.2373 3.2583-0.4726 6.5019-0.623 9.8193z" fill="#f9ab67"/>
       <path id="path154" d="m9965 7659.2c9.7266-3.4707 19.354-7.0401 27.144-7.5044 1.0254-4.7964 2.0547-9.622 2.7861-14.161-7.666 0.2847-18.432 6.0468-29.297 11.757-0.1572 3.3764-0.3965 6.6494-0.6338 9.9077z" fill="#fab875"/>
       <path id="path156" d="m9965.6 7649.3c10.865-5.7105 21.631-11.473 29.297-11.757 0.7324-4.5381 1.1651-8.7886 0.9971-12.435-7.6103 0.2026-18.832 6.9477-30.155 13.662 0.092 3.6729 0.018 7.1533-0.1387 10.53z" fill="#fbc17f"/>
       <path id="path158" d="m9988.5 7677.6c4.7226-0.4301 9.4072-0.916 14.053-1.4565-0.251-3.3555 0-7.2617 0.517-11.456-4.4385 0.3056-8.9766 0.6221-13.665 1.0034-0.7109 4.4214-1.1142 8.497-0.9052 11.91z" fill="#f89a55"/>
       <path id="path160" d="m9989.4 7665.7c4.6885-0.3813 9.2266-0.6978 13.665-1.0034 0.512-4.1943 1.279-8.6767 2.051-13.184-4.074-0.093-8.345-0.073-12.96 0.2017-1.0244 4.7969-2.0439 9.5639-2.7559 13.985z" fill="#f9ae6a"/>
       <path id="path162" d="m10003 7676.1c4.646-0.5405 9.252-1.1357 13.816-1.7837-0.342-3.229-0.364-6.8266-0.223-10.615-4.296 0.3413-8.637 0.6367-13.076 0.9424-0.512 4.1948-0.768 8.101-0.517 11.456z" fill="#f89a55"/>
       <path id="path164" d="m10003 7664.7c4.439-0.3057 8.78-0.6011 13.076-0.9424 0.14-3.7886 0.442-7.769 0.747-11.764-3.823-0.1778-7.698-0.3843-11.772-0.4776-0.772 4.5069-1.539 8.9893-2.051 13.184z" fill="#f9ab67"/>
       <path id="path166" d="m9992.1 7651.7c4.6152-0.2749 8.8862-0.2949 12.96-0.2017 0.772-4.5073 1.548-9.0385 2.077-13.332-3.705-0.5083-7.7091-0.7954-12.251-0.6269-0.7314 4.5386-1.7607 9.3642-2.7861 14.161z" fill="#fabd79"/>
       <path id="path168" d="m9994.9 7637.5c4.542-0.1685 8.5461 0.1186 12.251 0.6269 0.528-4.2929 0.81-8.3471 0.594-11.899-3.49-0.793-7.339-1.2827-11.848-1.1626 0.168 3.6464-0.2647 7.8969-0.9971 12.435z" fill="#fbc583"/>
       <path id="path170" d="m10005 7651.5c4.074 0.093 7.949 0.2998 11.772 0.4776 0.305-3.9946 0.612-8.0039 0.763-11.851-3.348-0.7192-6.753-1.4497-10.458-1.9585-0.529 4.2935-1.305 8.8247-2.077 13.332z" fill="#fab975"/>
       <path id="path172" d="m10007 7638.2c3.705 0.5088 7.11 1.2393 10.458 1.9585 0.15-3.8471 0.144-7.5322-0.178-10.878-3.067-1.0918-6.196-2.1875-9.686-2.9799 0.216 3.5522-0.07 7.6064-0.594 11.899z" fill="#fbc27f"/>
       <path id="path174" d="m10016 7674.3c9.129-1.2964 18.089-2.8052 26.86-4.5151-0.951-6.0903-1.903-12.181-2.854-18.271-8.398 1.0058-15.835 0.7636-23.482 0.4077-0.609 7.9897-1.209 15.921-0.524 22.379z" fill="#f89a55"/>
       <path id="path176" d="m10017 7652c3.823 0.1782 7.595 0.3276 11.459 0.3066-0.177-3.4453-0.353-6.8955-0.593-10.269-3.468-0.4624-6.756-1.1699-10.103-1.8887-0.151 3.8472-0.458 7.8565-0.763 11.851z" fill="#f9b16c"/>
       <path id="path178" d="m10018 7640.1c3.347 0.7188 6.635 1.4263 10.103 1.8887-0.239-3.374-0.541-6.6709-0.968-9.81-3.242-0.7774-6.247-1.8648-9.313-2.9566 0.322 3.3457 0.328 7.0308 0.178 10.878z" fill="#fab975"/>
       <path id="path180" d="m10028 7652.3c3.865-0.02 7.824-0.2114 12.023-0.7143-0.477-3.0454-0.953-6.0908-1.428-9.1362-4.07 0.2612-7.719 0.044-11.188-0.4185 0.24 3.3735 0.416 6.8237 0.593 10.269z" fill="#f9a661"/>
       <path id="path182" d="m10028 7642c3.469 0.4624 7.118 0.6797 11.188 0.4185-0.476-3.045-0.952-6.0904-1.428-9.1358-4.011 0.1509-7.487-0.3154-10.728-1.0927 0.427 3.1391 0.729 6.436 0.968 9.81z" fill="#f9ab67"/>
       <path id="path184" d="m9832.5 7633.3c1.0859-6.9487 2.1709-13.898 3.2568-20.847 3.539-0.3071 7.1699-0.9961 10.855-1.8613-0.4687 7.2627-0.9433 14.554-1.9824 21.716-4.3974 0.6611-8.5244 1.0756-12.13 0.9921z" fill="#f89a55"/>
       <path id="path186" d="m9844.6 7632.3c1.0391-7.1616 1.5137-14.453 1.9824-21.716 3.6865-0.8647 7.4258-1.9067 11.182-2.9194 0.7725 7.2187 1.5274 14.53 0.5928 22.161-4.6894 0.9052-9.3584 1.8134-13.757 2.4746z" fill="#f9b06c"/>
       <path id="path188" d="m9835.7 7612.4c1.0859-6.9487 2.1719-13.897 3.2578-20.847 3.4707-0.6977 6.5937-1.5918 9.5468-2.5561-1.0156 7.0458-1.4794 14.279-1.9492 21.541-3.6855 0.8652-7.3164 1.5542-10.855 1.8613z" fill="#f89a55"/>
       <path id="path190" d="m9846.6 7610.6c0.4698-7.2622 0.9336-14.496 1.9492-21.541 2.9541-0.9649 5.7393-2.0005 8.5332-2.9829-0.8623 7.2597-0.072 14.386 0.6992 21.605-3.7558 1.0127-7.4951 2.0547-11.182 2.9194z" fill="#f9ad69"/>
       <path id="path192" d="m9858.4 7629.8c0.9346-7.6304 0.1797-14.942-0.5928-22.161 3.7559-1.0132 7.5274-1.9981 11.276-2.7495 2.0302 7.1 4.0312 14.356 3.2021 22.456-4.4834 0.6479-9.1953 1.5498-13.886 2.4546z" fill="#fbc17d"/>
       <path id="path194" d="m9872.3 7627.4c0.8291-8.0991-1.1719-15.356-3.2021-22.456 3.748-0.751 7.4736-1.2691 11.137-1.3487 2.6992 7.1875 5.3622 14.56 4.58 22.872-3.7763-0.1098-8.0312 0.2842-12.515 0.9317z" fill="#fbca89"/>
       <path id="path196" d="m9857.8 7607.7c-0.7714-7.2192-1.5615-14.345-0.6992-21.605 2.7949-0.982 5.5996-1.9107 8.5937-2.6612-0.7099 7.4732 1.3506 14.417 3.3819 21.517-3.749 0.7514-7.5205 1.7363-11.276 2.7495z" fill="#fabc78"/>
       <path id="path198" d="m9869.1 7604.9c-2.0313-7.0996-4.0918-14.043-3.3819-21.517 2.9932-0.7505 6.1758-1.3232 9.7256-1.5927-0.6396 7.5707 2.0947 14.573 4.793 21.761-3.6631 0.08-7.3887 0.5977-11.137 1.3487z" fill="#fbc583"/>
       <path id="path200" d="m9884.8 7626.4c10.427 0.3037 17.765 6.7095 25.104 13.062 0.373-8.3774-0.4209-18.6-1.2334-28.73-9.2041-3.7602-18.414-7.4184-28.45-7.2036 2.6992 7.1875 5.3622 14.56 4.58 22.872z" fill="#fcce8d"/>
       <path id="path202" d="m9880.2 7603.6c10.036-0.2148 19.246 3.4434 28.45 7.2036-0.8125-10.13-1.6446-20.167-1.3448-28.175-11.12-0.8896-22.253-1.522-31.898-0.7895-0.6396 7.5707 2.0947 14.573 4.793 21.761z" fill="#fbca89"/>
       <path id="path204" d="m9909.9 7639.5c7.3388 6.352 14.679 12.65 25.109 12.739-0.036-8.4428 1.0166-21.048 2.0683-33.654-10.011-0.1928-19.208-4.0551-28.411-7.8154 0.8125 10.13 1.6064 20.353 1.2334 28.73z" fill="#fbc988"/>
       <path id="path206" d="m9908.6 7610.8c9.2031 3.7603 18.4 7.6226 28.411 7.8154 1.0508-12.606 2.1006-25.212 2.0586-33.656-9.5898-0.2974-20.695-1.4448-31.814-2.3345-0.2998 8.0073 0.5323 18.045 1.3448 28.175z" fill="#fccd8c"/>
       <path id="path208" d="m9935 7652.2c8.0195-0.079 19.445-6.7626 30.769-13.477-0.21-8.3818 0.031-18.272 0.2568-28.097-10.514 3.8892-21.135 7.8296-28.958 7.9199-1.0517 12.606-2.1045 25.211-2.0683 33.654z" fill="#fbc583"/>
       <path id="path210" d="m9937.1 7618.6c7.8232-0.09 18.444-4.0307 28.958-7.9199 0.2266-9.8241 0.4375-19.582 0.168-27.7-9.6631 0.8648-19.44 1.8638-27.067 1.9644 0.042 8.4438-1.0078 21.05-2.0586 33.656z" fill="#fccd8c"/>
       <path id="path212" d="m9965.8 7638.8c-0.4209-16.764 0.9648-39.561 0.4248-55.797 9.6631-0.8642 19.212-1.5952 26.383-1.1596 0.9961 15.582 2.5782 26.654 3.3477 43.294-7.6103 0.2026-18.832 6.9477-30.155 13.662z" fill="#fbc785"/>
       <path id="path214" d="m9995.9 7625.1c-0.7695-16.641-2.3516-27.712-3.3477-43.294 4.2481 0.2583 7.8847 0.8222 11.171 1.5678 1.18 15.319 3.037 26.677 4.025 42.889-3.49-0.793-7.339-1.2827-11.848-1.1626z" fill="#fbc887"/>
       <path id="path216" d="m10008 7626.3c-0.988-16.212-2.845-27.57-4.025-42.889 3.287 0.7456 6.224 1.6724 9.074 2.6553 1.584 14.74 3.166 27.944 4.637 43.214-3.067-1.0918-6.196-2.1875-9.686-2.9799z" fill="#fbc583"/>
       <path id="path218" d="m10017 7629.2c-1.471-15.27-3.053-28.474-4.637-43.214 2.851 0.9829 5.615 2.022 8.554 2.9922 1.988 14.161 3.443 28.852 5.396 43.178-3.242-0.7774-6.247-1.8648-9.313-2.9566z" fill="#fabd79"/>
       <path id="path220" d="m10027 7632.2c-1.953-14.326-3.408-29.018-5.396-43.178 2.94 0.9697 6.056 1.8711 9.609 2.5776 2.172 13.898 4.344 27.795 6.515 41.693-4.011 0.1509-7.487-0.3154-10.728-1.0927z" fill="#f9ae6a"/>
       <path id="path222" d="m9839 7591.6c1.2314-7.8803 2.4629-15.761 3.6933-23.642 3.2666-1.0918 5.9678-2.2237 8.3946-3.336-0.6934 8.2193-1.3868 16.438-2.5411 24.421-2.9531 0.9643-6.0761 1.8584-9.5468 2.5561z" fill="#f89a55"/>
       <path id="path224" d="m9848.6 7589c1.1543-7.9829 1.8477-16.202 2.5411-24.421 2.4267-1.1127 4.58-2.206 6.7509-3.2216 0.1143 8.226 0.2256 16.452-0.7588 24.66-2.7939 0.9824-5.5791 2.018-8.5332 2.9829z" fill="#f9aa65"/>
       <path id="path226" d="m9842.7 7568c1.2315-7.8804 2.4629-15.761 3.6944-23.642 3.0615-1.4858 5.3388-2.8554 7.2373-4.1157-1.1514 7.9829-1.8438 16.202-2.5371 24.421-2.4268 1.1123-5.128 2.2442-8.3946 3.336z" fill="#f89a55"/>
       <path id="path228" d="m9851.1 7564.6c0.6933-8.2192 1.3857-16.438 2.5371-24.421 1.8984-1.2607 3.4169-2.4116 4.9609-3.4604-0.9766 8.208-0.8604 16.434-0.7471 24.66-2.1709 1.0156-4.3242 2.1089-6.7509 3.2216z" fill="#f9ad69"/>
       <path id="path230" d="m9857.1 7586.1c0.9844-8.208 0.8731-16.434 0.7588-24.66 2.1709-1.0156 4.3594-1.9531 6.8555-2.7539 0.8984 8.1601 1.7929 16.32 0.9794 24.753-2.9941 0.7505-5.7988 1.6792-8.5937 2.6612z" fill="#fab672"/>
       <path id="path232" d="m9865.7 7583.4c0.8135-8.433-0.081-16.593-0.9794-24.753 2.497-0.8008 5.3017-1.4649 8.707-1.9331 1.3691 8.2793 2.7353 16.558 1.998 25.093-3.5498 0.2695-6.7324 0.8422-9.7256 1.5927z" fill="#fac07d"/>
       <path id="path234" d="m9857.8 7561.4c-0.1133-8.2261-0.2295-16.452 0.7471-24.66 1.5429-1.0488 3.1113-1.9956 5.1093-2.8467-0.8007 8.4331 0.1016 16.593 0.9991 24.753-2.4961 0.8008-4.6846 1.7383-6.8555 2.7539z" fill="#fabc78"/>
       <path id="path236" d="m9864.7 7558.6c-0.8975-8.1597-1.7998-16.32-0.9991-24.753 1.9971-0.851 4.4239-1.6064 7.6836-2.2734-0.7197 8.5356 0.6533 16.814 2.0225 25.093-3.4053 0.4682-6.21 1.1323-8.707 1.9331z" fill="#fbc583"/>
       <path id="path238" d="m9875.4 7581.8c1.4736-17.071-5.4609-33.116-4.0205-50.186 8.8564-1.812 21.107-2.9702 33.428-3.6123-0.6308 18.108 3.1797 36.48 2.4912 54.588-11.12-0.8896-22.253-1.522-31.898-0.7895z" fill="#fbc685"/>
       <path id="path240" d="m9907.3 7582.6c11.119 0.8897 22.225 2.0371 31.814 2.3345-0.048-9.5727-0.1182-19.146-0.1982-28.719-9.3623-0.2744-21.115-0.7851-32.84-0.9092 0.7871 9.1201 1.5674 18.24 1.2236 27.294z" fill="#fccd8c"/>
       <path id="path242" d="m9906.1 7555.3c11.725 0.1241 23.478 0.6348 32.84 0.9092-0.081-9.5732-0.1719-19.146-0.2608-28.72-9.1347-0.2525-21.525-0.126-33.847 0.5161-0.3154 9.0542 0.4795 18.174 1.2676 27.294z" fill="#fccd8c"/>
       <path id="path244" d="m9939.1 7584.9c7.6269-0.1006 17.404-1.0996 27.067-1.9644-0.3027-9.1489 1.0029-18.144 2.3047-27.156-10.997 0.1191-22.129 0.4511-29.57 0.4013 0.08 9.5732 0.1504 19.146 0.1982 28.719z" fill="#fcce8d"/>
       <path id="path246" d="m9938.9 7556.2c7.4413 0.05 18.573-0.2822 29.57-0.4013 1.3008-9.0127 2.5976-18.043 2.2773-27.263-12.348-0.5737-24.852-0.8554-32.108-1.0556 0.089 9.5732 0.1797 19.146 0.2608 28.72z" fill="#fccd8c"/>
       <path id="path248" d="m9966.2 7583c-0.6055-18.298 5.2226-35.979 4.582-54.419 12.349 0.5743 24.54 1.44 31.173 2.8081 1.103 17.732-10.488 33-9.3727 50.451-7.1708-0.4356-16.72 0.2954-26.383 1.1596z" fill="#fccd8c"/>
       <path id="path250" d="m9992.6 7581.8c-0.5576-8.7256 2.0616-16.905 4.6817-25.12 4.09 0.4947 7.181 1.1812 9.725 1.999-1.95 8.0625-3.899 16.096-3.236 24.689-3.286-0.7456-6.9226-1.3095-11.171-1.5678z" fill="#fbc786"/>
       <path id="path252" d="m10004 7583.4c-0.663-8.5932 1.286-16.626 3.236-24.689 2.544 0.8174 4.542 1.7666 6.443 2.7867-0.75 8.1362-1.499 16.254-0.605 24.558-2.85-0.9829-5.787-1.9097-9.074-2.6553z" fill="#fac07d"/>
       <path id="path254" d="m9997.2 7556.7c2.6201-8.2148 5.242-16.465 4.691-25.331 3.931 0.7315 6.477 1.5528 8.278 2.4624 0.657 8.7124-1.294 16.805-3.244 24.868-2.544-0.8178-5.635-1.5043-9.725-1.999z" fill="#fbca89"/>
       <path id="path256" d="m10007 7558.7c1.95-8.0629 3.901-16.155 3.244-24.868 1.8 0.9102 2.856 1.9077 3.807 2.9908 0.892 8.3735 0.141 16.527-0.608 24.664-1.901-1.0201-3.899-1.9693-6.443-2.7867z" fill="#fbc583"/>
       <path id="path258" d="m10013 7586c-0.894-8.3032-0.145-16.421 0.605-24.558 1.9 1.02 3.706 2.1103 5.866 3.2119 0.479 8.165 0.957 16.325 2.083 24.338-2.939-0.9702-5.703-2.0093-8.554-2.9922z" fill="#fab571"/>
       <path id="path260" d="m10021 7589c-1.126-8.0127-1.604-16.173-2.083-24.338 2.161 1.101 4.677 2.2124 7.999 3.2739 1.231 7.8808 2.462 15.761 3.693 23.642-3.553-0.7065-6.669-1.6079-9.609-2.5776z" fill="#f9a964"/>
       <path id="path262" d="m10013 7561.5c0.749-8.1363 1.5-16.29 0.608-24.664 0.951 1.0834 1.797 2.2524 3.177 3.5043 1.125 8.0347 1.604 16.206 2.081 24.371-2.16-1.1016-3.966-2.1919-5.866-3.2119z" fill="#fabb77"/>
       <path id="path264" d="m10019 7564.7c-0.477-8.1655-0.956-16.336-2.081-24.371 1.381 1.252 3.296 2.5874 6.386 4.0034 1.231 7.8804 2.463 15.761 3.694 23.642-3.322-1.0615-5.838-2.1729-7.999-3.2739z" fill="#f9ad68"/>
       <path id="path266" d="m9846.4 7544.3c0.164-1.0498 0.3281-2.0991 0.4922-3.1484 2.958-1.4956 5.1865-2.8769 7.0654-4.1494-0.1504 1.0508-0.168 2.1191-0.3203 3.1821-1.8985 1.2603-4.1758 2.6299-7.2373 4.1157z" fill="#f89a55"/>
       <path id="path268" d="m9853.6 7540.2c0.1523-1.063 0.1699-2.1313 0.3203-3.1821 1.8789-1.2729 3.4082-2.437 4.9658-3.4985-0.1211 1.0542-0.1983 2.1274-0.3252 3.2202-1.544 1.0488-3.0625 2.1997-4.9609 3.4604z" fill="#f9b06c"/>
       <path id="path270" d="m9858.6 7536.7c0.1269-1.0928 0.2041-2.166 0.3252-3.2202 1.5576-1.062 3.1445-2.021 5.1377-2.8843-0.092 1.0581-0.252 2.1358-0.3536 3.2578-1.998 0.8511-3.5664 1.7979-5.1093 2.8467z" fill="#fbc17d"/>
       <path id="path272" d="m9863.7 7533.9c0.1016-1.122 0.2618-2.1997 0.3536-3.2578 1.9941-0.8628 4.3945-1.6289 7.582-2.3051-0.079 1.0595-0.1612 2.1538-0.252 3.2895-3.2597 0.667-5.6865 1.4224-7.6836 2.2734z" fill="#fbca89"/>
       <path id="path274" d="m9846.9 7541.2c1.2714-8.1391 3.6191-15.877 6.8847-23.078 2.3867-1.8487 4.2139-3.2246 5.79-4.313-2.7832 7.4467-4.4433 15.122-5.6093 23.242-1.8789 1.2725-4.1074 2.6538-7.0654 4.1494z" fill="#f89a55"/>
       <path id="path276" d="m9854 7537c1.8789-1.2729 3.4082-2.437 4.9658-3.4985 0.4668-4.0386 1.0029-7.7832 1.7705-11.437-1.4248 0.8931-2.8125 1.8887-4.5381 3.0625-0.9082 3.8642-1.6152 7.813-2.1982 11.873z" fill="#f9b06c"/>
       <path id="path278" d="m9856.1 7525.1c1.7256-1.1738 3.1133-2.1694 4.5381-3.0625 0.7676-3.6538 1.7656-7.2168 3.1572-10.892-1.3828 0.6972-2.708 1.498-4.2842 2.5864-1.3916 3.7231-2.5019 7.5039-3.4111 11.369z" fill="#f9ac68"/>
       <path id="path280" d="m9853.8 7518.1c4.7725-3.6973 7.3086-5.5049 10.074-6.8994 2.7842-7.3506 7.1425-15.151 14.374-25.024-4.3877 3.6231-8.4287 7.6631-12.06 12.066-4.9414 5.9922-9.124 12.656-12.389 19.857z" fill="#f89a55"/>
       <path id="path282" d="m9858.9 7533.5c1.5576-1.062 3.1445-2.021 5.1377-2.8843 0.3515-4.0166 0.7382-7.5561 1.3964-10.998-1.8759 0.7632-3.3388 1.5532-4.7636 2.4458-0.7676 3.6538-1.3037 7.3984-1.7705 11.437z" fill="#fbc17d"/>
       <path id="path284" d="m9860.7 7522.1c1.4248-0.8926 2.8877-1.6826 4.7636-2.4458 0.6592-3.4419 1.5889-6.7861 3.0254-10.412-1.8076 0.6752-3.248 1.269-4.6318 1.9658-1.3916 3.6757-2.3896 7.2387-3.1572 10.892z" fill="#fabc78"/>
       <path id="path286" d="m9864.1 7530.6c1.9941-0.8628 4.3945-1.6289 7.582-2.3051 0.2978-4.0069 0.5527-7.524 1.0634-10.976-3.081 0.7837-5.372 1.5195-7.249 2.2822-0.6582 3.4424-1.0449 6.9819-1.3964 10.998z" fill="#fbca89"/>
       <path id="path288" d="m9865.5 7519.6c1.877-0.7627 4.168-1.4985 7.249-2.2822 0.5108-3.4521 1.2784-6.8379 2.6045-10.583-2.8486 1.022-5.0215 1.7778-6.8281 2.4527-1.4365 3.6264-2.3662 6.9706-3.0254 10.412z" fill="#fbc583"/>
       <path id="path290" d="m9863.8 7511.2c1.3838-0.6968 2.8242-1.2906 4.6318-1.9658 1.4356-3.626 3.3789-7.5337 6.0625-12.103-1.9219 0.8642-3.5869 1.6318-5.1748 2.5029-2.3418 4.103-4.1269 7.8906-5.5195 11.566z" fill="#f9b26d"/>
       <path id="path292" d="m9869.4 7499.6c1.5879-0.8711 3.2529-1.6387 5.1748-2.5029 2.6846-4.5689 6.1103-9.7988 10.514-16.07-2.3593 1.5962-4.6406 3.3037-6.8339 5.1147-3.6153 4.9365-6.5127 9.355-8.8545 13.458z" fill="#f9a761"/>
       <path id="path294" d="m9868.5 7509.2c1.8066-0.6749 3.9795-1.4307 6.8281-2.4527 1.3252-3.7451 3.209-7.8486 5.9512-12.735-2.6153 1.2593-4.794 2.2207-6.7168 3.085-2.6836 4.5693-4.6269 8.477-6.0625 12.103z" fill="#fabb78"/>
       <path id="path296" d="m9874.5 7497.1c1.9228-0.8643 4.1015-1.8257 6.7168-3.085 2.7422-4.8867 6.3427-10.557 11.104-17.434-2.5098 1.3676-4.9473 2.8525-7.3067 4.4487-4.4033 6.271-7.829 11.501-10.514 16.07z" fill="#f9ac68"/>
       <path id="path298" d="m9871.4 7531.6c8.8564-1.812 21.107-2.9702 33.428-3.6123 0.1592-4.8599 0.2159-9.4726 0.3692-14.048-12.144 1.3701-24.192 3.3354-32.758 5.4599-0.4483 3.7256-0.6739 7.6211-1.0391 12.201z" fill="#fcce8d"/>
       <path id="path300" d="m9872.4 7519.4c8.5654-2.1245 20.613-4.0898 32.758-5.4599 0.1533-4.5757 0.4043-9.1137 0.9521-13.824-11.778 2.2607-23.4 5.2915-31.326 8.104-1.2618 3.8989-1.9346 7.4546-2.3838 11.18z" fill="#fbca89"/>
       <path id="path302" d="m9874.8 7508.2c7.9257-2.8125 19.548-5.8433 31.326-8.104 0.5469-4.7099 1.3906-9.5918 2.7295-14.855-10.534 2.6352-20.854 6.2158-28.14 9.7153-2.8037 5.1015-4.6533 9.3447-5.915 13.244z" fill="#fbc17d"/>
       <path id="path304" d="m9880.7 7495c7.2861-3.4995 17.606-7.0801 28.14-9.7153 1.3399-5.2632 3.1748-10.908 5.7051-17.143-7.7275 1.8144-15.214 4.6538-22.209 8.4658-5.0752 7.332-8.833 13.291-11.637 18.392z" fill="#f9b06c"/>
       <path id="path306" d="m9904.8 7528c12.321-0.6421 24.712-0.7686 33.847-0.5161-0.048-5.1396-0.096-10.279-0.1406-15.419-8.9511-0.2578-21.192 0.5166-33.337 1.8867-0.1533 4.5757-0.21 9.1884-0.3692 14.048z" fill="#fbcb8a"/>
       <path id="path308" d="m9905.2 7514c12.144-1.3701 24.386-2.1445 33.337-1.8867-0.045-5.1396-0.088-10.279-0.126-15.419-8.5478-0.2691-20.481 1.2217-32.259 3.4819-0.5478 4.71-0.7988 9.248-0.9521 13.824z" fill="#fbc684"/>
       <path id="path310" d="m9906.1 7500.1c11.777-2.2602 23.711-3.751 32.259-3.4819-0.039-5.1396-0.073-10.279-0.1015-15.418-8.1445-0.2803-18.893 1.4101-29.428 4.0449-1.3389 5.2636-2.1826 10.146-2.7295 14.855z" fill="#fabc79"/>
       <path id="path312" d="m9908.9 7485.3c10.535-2.6348 21.283-4.3252 29.428-4.0449-0.029-5.1392-0.052-10.278-0.065-15.418-7.9609-0.2856-15.93 0.5044-23.657 2.3194-2.5303 6.2353-4.3652 11.88-5.7051 17.143z" fill="#f9ae69"/>
       <path id="path314" d="m9938.7 7527.5c7.2568 0.2002 19.761 0.4819 32.108 1.0556-0.1738-4.9907-0.6191-10.258-1.333-15.602-11.848-0.5004-23.856-0.6704-30.916-0.8725 0.045 5.1396 0.093 10.279 0.1406 15.419z" fill="#fbc786"/>
       <path id="path316" d="m9938.5 7512.1c7.0595 0.2021 19.068 0.3721 30.916 0.8725-0.7148-5.3442-1.6992-10.765-2.9521-16.061-10.646-0.2193-21.467-0.023-28.09-0.23 0.038 5.1396 0.081 10.279 0.126 15.419z" fill="#fbc17e"/>
       <path id="path318" d="m9938.4 7496.7c6.623 0.2075 17.444 0.011 28.09 0.23-1.2539-5.2964-2.7774-10.469-4.5703-15.318-8.6211-0.31-17.434-0.1176-23.621-0.3305 0.028 5.1396 0.062 10.279 0.1015 15.418z" fill="#fab774"/>
       <path id="path320" d="m9938.3 7481.2c6.1874 0.2129 15 0.02 23.621 0.3305-1.792-4.8486-3.8535-9.3735-6.1836-13.374-5.6582-1.3505-11.514-2.1596-17.503-2.3745 0.014 5.1392 0.036 10.278 0.065 15.418z" fill="#f9ab67"/>
       <path id="path322" d="m9970.8 7528.5c12.349 0.5743 24.54 1.44 31.173 2.8081-0.3-4.8417-1.158-10.144-2.5651-15.552-6.4101-1.5263-18.095-2.3574-29.941-2.8579 0.7139 5.3438 1.1592 10.611 1.333 15.602z" fill="#fbcb8a"/>
       <path id="path324" d="m9969.4 7512.9c11.847 0.5005 23.531 1.3316 29.941 2.8579-1.4072-5.4081-3.3632-10.923-5.8632-16.19-5.918-1.8736-16.386-2.5098-27.03-2.7295 1.2529 5.2968 2.2373 10.717 2.9521 16.061z" fill="#fbc684"/>
       <path id="path326" d="m9966.5 7496.9c10.644 0.2197 21.112 0.8559 27.03 2.7295-2.5-5.2666-5.543-10.286-9.1221-14.704-5.4257-2.2212-13.856-3.0332-22.478-3.3433 1.7929 4.8487 3.3164 10.022 4.5703 15.318z" fill="#fabc79"/>
       <path id="path328" d="m9961.9 7481.6c8.622 0.3101 17.053 1.1221 22.478 3.3433-3.58-4.418-7.6962-8.2344-12.342-11.096-5.2012-2.3794-10.662-4.2705-16.32-5.6211 2.3301 4 4.3916 8.5249 6.1836 13.374z" fill="#f9ae69"/>
       <path id="path330" d="m10002 7531.4c-0.08-1.2011-0.183-2.4301-0.327-3.6826 3.813 0.7588 6.32 1.6128 8.122 2.5591 0.146 1.2207 0.394 2.4087 0.483 3.5859-1.801-0.9096-4.347-1.7309-8.278-2.4624z" fill="#fcce8d"/>
       <path id="path332" d="m10010 7533.8c-0.09-1.1772-0.337-2.3652-0.483-3.5859 1.802 0.9468 2.899 1.9858 3.89 3.1143 0.153 1.1508 0.281 2.3374 0.4 3.4624-0.951-1.0831-2.007-2.0806-3.807-2.9908z" fill="#fbca89"/>
       <path id="path334" d="m10014 7536.8c-0.119-1.125-0.247-2.3116-0.4-3.4624 0.991 1.1284 1.876 2.3466 3.255 3.6513 0.161 1.0811 0.173 2.2422 0.322 3.3154-1.38-1.2519-2.226-2.4209-3.177-3.5043z" fill="#fbc17d"/>
       <path id="path336" d="m10017 7540.3c-0.149-1.0732-0.161-2.2343-0.322-3.3154 1.379 1.3047 3.251 2.6958 6.216 4.1704 0.164 1.0493 0.328 2.0986 0.492 3.1484-3.09-1.416-5.005-2.7514-6.386-4.0034z" fill="#f9b06c"/>
       <path id="path338" d="m10002 7527.7c3.813 0.7588 6.32 1.6128 8.122 2.5591-0.555-4.6313-1.613-9.4941-3.141-14.354-1.857-1.1924-4.364-2.2412-8.0618-3.1011 1.5118 5.0981 2.5408 10.161 3.0808 14.896z" fill="#fcce8d"/>
       <path id="path340" d="m9998.5 7512.8c3.6978 0.8599 6.2048 1.9087 8.0618 3.1011-1.528-4.8599-3.526-9.7173-5.962-14.337-2.0657-1.4809-4.6291-2.79-8.0754-3.874 2.4707 4.8774 4.4648 10.012 5.9756 15.11z" fill="#fbc988"/>
       <path id="path342" d="m10010 7530.2c1.802 0.9468 2.899 1.9858 3.89 3.1143-0.588-4.4024-1.547-8.9629-2.867-13.505-1.1-1.4345-2.307-2.7705-4.164-3.9633 1.528 4.8603 2.586 9.7231 3.141 14.354z" fill="#fbca89"/>
       <path id="path344" d="m10007 7515.9c1.857 1.1928 3.064 2.5288 4.164 3.9633-1.32-4.5419-3.002-9.0654-5.036-13.394-1.457-1.7724-3.025-3.4258-5.09-4.9072 2.436 4.6201 4.434 9.4775 5.962 14.337z" fill="#fbc583"/>
       <path id="path346" d="m9992.6 7497.7c3.4463 1.084 6.0097 2.3931 8.0754 3.874-2.4367-4.6196-5.3117-9.0024-8.593-12.913-2.414-1.7012-5.1259-3.2246-8.3222-4.5327 3.4199 4.0727 6.3681 8.6943 8.8398 13.572z" fill="#fabf7c"/>
       <path id="path348" d="m9983.7 7484.1c3.1963 1.3081 5.9082 2.8315 8.3222 4.5327-3.2822-3.9112-6.9697-7.3501-11.033-10.082-2.8868-1.7407-5.877-3.3218-8.958-4.731 4.3574 2.6841 8.249 6.208 11.669 10.281z" fill="#f9af6b"/>
       <path id="path350" d="m10001 7501.5c2.065 1.4814 3.633 3.1348 5.09 4.9072-2.036-4.3286-4.424-8.4614-7.1566-12.222-1.999-2.0186-4.1133-3.897-6.5264-5.5981 3.2813 3.9106 6.1563 8.2934 8.593 12.913z" fill="#fabb78"/>
       <path id="path352" d="m9992 7488.6c2.4131 1.7011 4.5274 3.5795 6.5264 5.5981-2.7334-3.7607-5.8115-7.1494-9.2256-9.9897-2.665-2.0498-5.4472-3.9502-8.3339-5.6909 4.0634 2.7324 7.7509 6.1713 11.033 10.082z" fill="#f9ac68"/>
       <path id="path354" d="m10014 7533.3c0.991 1.1284 1.876 2.3466 3.255 3.6513-0.621-4.1738-1.485-8.4096-2.603-12.6-1.427-1.5879-2.419-3.1216-3.519-4.5567 1.32 4.5425 2.279 9.103 2.867 13.505z" fill="#fbc17d"/>
       <path id="path356" d="m10011 7519.8c1.1 1.4351 2.092 2.9688 3.519 4.5567-1.119-4.1909-2.493-8.336-4.135-12.328-1.62-1.958-2.964-3.8496-4.42-5.6221 2.034 4.3281 3.716 8.8516 5.036 13.394z" fill="#fabc78"/>
       <path id="path358" d="m10017 7537c-1.242-8.3471-3.454-16.944-6.738-24.928 1.62 1.958 3.514 3.9824 6.069 6.0205 3.265 7.2011 5.613 14.939 6.885 23.078-2.965-1.4746-4.837-2.8657-6.216-4.1704z" fill="#f9b06c"/>
       <path id="path360" d="m10006 7506.4c2.912 3.5449 5.379 7.5669 10.489 11.643-3.265-7.2012-7.447-13.865-12.389-19.857-4.2898-5.2021-9.1521-9.8974-14.482-13.997 6.8281 5.6801 12.311 13.555 16.382 22.212z" fill="#f9b26d"/>
      </g>
     </g>
    </g>
   </g>
   <path id="path362" d="m690.99 585.02-72.52-14.395-5.277-4.402 2.005 0.1 4.558 1.347 72.126 11.638-0.892 5.712" fill="#f89b56"/>
   <g id="g364" transform="scale(.1)">
    <g id="g366" clip-path="url(#clipPath368)">
     <path id="path378" d="m7059.4 5220.8 199.93 122.07-66.96 226.82-185.31-13.95-38.55 246.71c-248.16-48.38-510.9-81.19-783.81-96.27l0.01-0.04-302.16-539.71-357.06 538.4c-282.02 14.41-553.37 47.74-809.24 97.62l-37.63-240.84-283.66-195.38 170.38-143.65 61.61 8.32-45.42-290.64c-7.24-46.37-11.83-92.46-14.03-138.16 350.61-144.98 793.43-231.53 1274.9-231.53 481.45 0 924.27 86.55 1274.9 231.53-2.2 45.7-6.79 91.79-14.04 138.16l-43.83 280.54" fill="url(#radialGradient372)"/>
    </g>
   </g>
   <g>
    <path id="path380" d="m615.2 566.32-13.575-17.823-29.873-0.215-15.577 18.038h59.025" fill="#fff"/>
    <path id="path382" d="m655.24 744.07s-13.422-36.175-100.01-38.406l5.446 4.948s-30.845-4.873-62.779-1.786c0 0 3.326 20.047 7.343 22.725s146.67 23.656 146.67 23.656l3.327-11.137" fill="#f8a25d"/>
    <path id="path384" d="m491.18 672.64s4.782 35.021 2.502 46.843h6.191l-8.693-46.843" fill="#341b19"/>
    <path id="path386" d="m583.79 814.57c-102.2 6.249-107.76-91.945-107.76-91.945 35.279-8.897 64.293-10.873 87.853-9.057-5.265-4.872-8.654-7.903-8.654-7.903 83.464 6.695 95.358 44.492 95.358 44.492 22.474-26.639 24.681-64.511 24.681-64.511 12.027 55.411-5.053 123.64-91.481 128.92" fill="#652d1f"/>
    <path id="path388" d="m477.49 585.02 78.686-14.399 1.95-4.528-10.707-0.57-72.972 11.678 3.043 7.819" fill="#f89b56"/>
    <path id="path390" d="m552.11 663.71c0-8.381-3.097-15.175-6.918-15.175s-6.918 6.794-6.918 15.175c0 8.382 3.097 15.176 6.918 15.176s6.918-6.794 6.918-15.176" fill="#333031"/>
    <path id="path392" d="m621.29 663.71c0-8.381-3.097-15.175-6.918-15.175s-6.918 6.794-6.918 15.175c0 8.382 3.097 15.176 6.918 15.176s6.918-6.794 6.918-15.176" fill="#333031"/>
   </g>
   <g id="g394" transform="scale(.1)">
    <g id="g396" clip-path="url(#clipPath398)">
     <path id="path408" d="m6184.8 5706.2-153.57-274.3c636.74 9.35 975.92 123.9 975.92 123.9l-38.55 246.71c-248.16-48.38-510.9-81.19-783.81-96.27l0.01-0.04" fill="url(#radialGradient402)"/>
    </g>
   </g>
   <g id="g410" transform="scale(.1)">
    <g id="g412" clip-path="url(#clipPath414)">
     <path id="path424" d="m5525.5 5704.8c-282.02 14.41-553.37 47.74-809.24 97.62l-38.55-246.71c387.71-72.42 730.48-107.34 1025.8-119.4l-178.06 268.49" fill="url(#radialGradient418)"/>
    </g>
   </g>
   <g id="g426" transform="scale(.1)">
    <g id="g428" clip-path="url(#clipPath430)">
     <path id="path444" d="m5524.7 5706.2-157.58-305.39 508.32-100.78-350.74 406.17" fill="url(#radialGradient434)"/>
    </g>
   </g>
   <g>
    <path id="path446" d="m534.45 688.62s9.147 5.915 18.71 3.218c9.564-2.698 15.041-10.864 11.589-12.878-3.453-2.013-8.431 12.127-30.299 9.66" fill="#652d1f"/>
    <path id="path448" d="m630.59 689.98s-9.512 5.309-18.88 1.997c-9.368-3.313-14.305-11.817-10.729-13.603 3.577-1.785 7.627 12.648 29.609 11.606" fill="#652d1f"/>
    <path id="path450" d="m597.5 550.49 15.693 15.724 2.005 0.1-13.575-17.823-4.123 1.999" fill="#e0dfe0"/>
    <path id="path452" d="m574.03 549.85-15.899 16.24-1.95 0.23 15.577-18.038 2.272 1.568" fill="#e0dfe0"/>
   </g>
   <g id="g454" transform="scale(.1)">
    <g id="g456" clip-path="url(#clipPath458)">
     <path id="path472" d="m6184.8 5706.2 133.02-305.39-442.37-100.78 309.35 406.17" fill="url(#radialGradient462)"/>
    </g>
   </g>
   <g id="g474" transform="scale(.1)">
    <g id="g476" clip-path="url(#clipPath478)">
     <path id="path492" d="m5793.2 5422.4-117.73-651.81 212.02-199.74 226.88 205.14-160.86 646.41h-160.31" fill="url(#radialGradient482)"/>
    </g>
   </g>
   <path id="path494" d="m577.64 532.97-0.44-2.432c3.382-1.893 6.946-3.218 10.339-3.218 3.786 0 7.382 1.644 10.55 3.894l-0.57 2.288c-3.028-2.045-6.418-3.504-9.98-3.504-3.246 0-6.649 1.211-9.899 2.972" fill="#771d22"/>
   <g id="g496" transform="scale(.1)">
    <g id="g498" clip-path="url(#clipPath500)">
     <path id="path514" d="m5762.8 5505c61.63 8.59 136.08 12.18 212.26-0.02 65.31-10.46 89.59-92.5 41.03-137.42-38.8-35.89-87.96-67.53-140.67-67.53-49.25 0-102.2 27.63-147.78 60.55-58.61 42.31-36.43 134.44 35.16 144.42" fill="url(#radialGradient504)"/>
    </g>
   </g>
   <g>
    <path id="path516" d="m711.73 480.21c-35.062-14.498-79.344-23.153-127.49-23.153-48.145 0-92.427 8.655-127.49 23.153-0.542-11.276 0.419-22.307 2.71-32.89 4.846-22.389 17.828-42.025 35.661-56.402 20.028-16.147 48.786-31.608 48.786-31.608h36.314l4.017 29.904 4.017-29.904h36.866s28.207 15.461 48.235 31.608c17.833 14.377 30.815 34.013 35.661 56.402 2.29 10.583 3.251 21.614 2.71 32.89" fill="#1f1c21"/>
    <path id="path518" d="m710.43 454.96c1.725 9.386 1.781 15.351 1.305 25.253-35.062-14.498-79.344-23.153-127.49-23.153-48.145 0-92.427 8.655-127.49 23.153-0.476-9.902-0.433-15.78 1.291-25.167 0.069-0.025 122.95-53.331 252.38-0.086" fill="#1a171b"/>
    <path id="path520" d="m710.43 454.96c-129.43-53.245-252.31 0.061-252.38 0.086-1.106 6.021-1.518 10.601-1.547 15.722-0.038-5.682 0.346-10.521 1.547-17.061 0.069-0.025 122.95-53.331 252.38-0.086 1.207 6.567 1.595 11.462 1.557 17.2-0.029-5.178-0.445-9.81-1.557-15.861" fill="#181518"/>
    <path id="path522" d="m696.86 580.25s-2.38 1.535-5.484 2.358l0.515-3.302 4.969 0.944" fill="#333031"/>
    <path id="path524" d="m471.63 580.25s3.107 2.67 5.639 3.344l-0.67-4.288-4.969 0.944" fill="#333031"/>
   </g>
   <g fill="#232025">
    <path id="path526" d="m477.79 473.8s-1.507-13.351-1.756-27.479l4.661-1.57s0.661 20.018 2.004 27.313l-4.909 1.736"/>
    <path id="path528" d="m530.84 461.54s-1.495-12.761-1.744-26.89l4.705-0.573s0.606 19.526 1.949 26.821l-4.91 0.642"/>
    <path id="path530" d="m692.36 474.18s1.506-13.351 1.755-27.479l-4.661-1.57s-0.66 20.251-2.004 27.546l4.91 1.503"/>
    <path id="path532" d="m639.3 461.92s1.495-12.76 1.744-26.889l-4.704-0.574s-0.606 19.526-1.95 26.821l4.91 0.642"/>
   </g>
   <g fill="#231f20">
    <path id="path534" d="m535.76 460.89 0.325-0.869h-0.544l0.219 0.869"/>
    <path id="path536" d="m634.39 461.27-0.559-1.067 0.723 0.095-0.164 0.972"/>
    <path id="path538" d="m482.7 472.07 0.545-1.164-0.706 0.21 0.161 0.954"/>
    <path id="path540" d="m687.45 472.68-0.518-1.274 0.695 0.211-0.177 1.063"/>
   </g>
   <g id="g542" transform="scale(.1)">
    <g id="g544" clip-path="url(#clipPath546)">
     <path id="path558" d="m4461.8 4878.6s-73.91 120.87 103.63 343.98l-126.66 106.33s-196.16-326.09-126.15-526.39l-0.03-0.02 113.91-326.37c4.71-14.06 21.34-20 33.89-12.11l187.19 117.71c11.02 6.93 14.05 21.64 6.66 32.36l-61.94 89.86c-10.38 15.07 0.24 35.63 18.53 35.88 14.8 0.2 25.52 14.19 21.87 28.53l-1.06 4.13c-1.52 5.97-5.39 11.08-10.72 14.16l-159.12 91.95" fill="url(#linearGradient550)"/>
    </g>
   </g>
   <g>
    <path id="path560" d="m619.7 570.69 12.075-26.308h-2.127l-11.176 26.239 1.228 0.069" fill="#7a8186"/>
    <path id="path562" d="m550.77 570.58-13.487-24.742 2.291-0.206 12.893 24.986-1.697-0.038" fill="#7a8186"/>
    <path id="path564" d="m674.14 750.25c-8.289-14.32-24.292 10.763-24.292 10.763-16.068-40.616-82.311-49.989-82.311-49.989l6.484 11.604c-27.62-4.909-94.648 18.743-94.661 18.748-2.894-11.001-3.333-18.748-3.333-18.748 35.279-8.897 64.293-10.873 87.853-9.057-5.265-4.872-8.654-7.903-8.654-7.903 83.464 6.695 95.358 44.492 95.358 44.492 22.474-26.639 24.681-64.511 24.681-64.511 4.573 21.069 4.931 43.99-1.125 64.601" fill="#51241c"/>
   </g>
   <g fill="#cccbd0">
    <path id="path566" d="m631.78 544.38h-2.127l2.127-4.304-32.521-7.409-1.752-0.399 13.928-54.671-22.688-20.514 26.458 20.06-15.616 54.373 35.081 7.084-2.89 5.78"/>
    <path id="path568" d="m700.71 555.58s-39.475-9.903-68.933-11.195l1.071-2.142s49.091 4.567 67.862 13.337"/>
    <path id="path570" d="m536.71 540.08 2.865 5.553-2.291 0.206c-22.11 1.55-69.508 9.74-69.508 9.74 18.102-4.809 68.432-11.94 68.432-11.94l-2.176-4.452 43.171-8.645 0.166 1.477-40.659 8.061"/>
   </g>
   <path id="path572" d="m441.6 528.79 14.056-7.9 0.886 1.368-12.578 10.633-2.364-4.101" fill="#e09660"/>
   <path id="path574" d="m603.12 370.47c-7.717 2.678-15.674 21.871-14.374 27.227 1.301 5.355 15.424-1.786 15.424-1.786l-12.338 10.266 19.876-1.785s-19.708 9.178-24.92 17.407l-5.793-8.034s-11.033-9.373-20.853-11.605c0 0 13.923 3.57 17.227 3.57 3.305 0-3.341-7.587-3.341-7.587h6.967s0.446-26.334-10.427-29.458c-10.869-3.123-66.097 17.036-84.68 30.606 2.907-2.954 5.99-5.752 9.239-8.371 20.028-16.147 48.786-31.608 48.786-31.608h36.314l4.017 29.904 4.017-29.904h36.866s28.207 15.461 48.235 31.608c4.235 3.415 8.187 7.136 11.832 11.111-1.113-0.948-46.677-39.496-82.074-31.561" fill="#1d1a1e"/>
   <g id="g576" transform="scale(.1)">
    <g id="g578" clip-path="url(#clipPath580)">
     <path id="path592" d="m7896.3 5995.2c-15.04-6.2-28.82-13.04-41.49-20.32-12.91-28.13-21.1-73.61 19.17-124.74 12.38-15.71 22.32-32.19 30.81-48.5 22.92-44.05 84.29-49.06 113.13-8.65 10.75 15.07 18.85 29.08 24.45 39.5 25.97 48.27-42.83 119.14-42.83 119.14s-15.82 79.63-103.24 43.57" fill="url(#linearGradient584)"/>
    </g>
   </g>
   <path id="path594" d="m785.83 587.41s4.472 10.075-0.346 10.075l-0.292-8.683 0.638-1.392" fill="#f89b56"/>
   <g id="g596" transform="scale(.1)">
    <g id="g598" clip-path="url(#clipPath600)">
     <path id="path612" d="m7755.1 5884s56 92.01 99.72 90.93c43.72-1.07-41.74-181.86-41.74-181.86" fill="url(#linearGradient604)"/>
    </g>
   </g>
   <g id="g614" transform="scale(.1)">
    <g id="g616" clip-path="url(#clipPath618)">
     <g id="g622" clip-path="url(#clipPath624)">
      <g id="g628" transform="matrix(10 0 0 -10 -93508 82455)">
       <path id="path630" d="m9958.2 7653.9c-0.054-0.024-0.1094-0.045-0.166-0.065 1.5068 0.6801 1.7412 2.3711 1.1045 3.5503 0.053-0.019 0.1045-0.04 0.1543-0.061 0.6494-1.1362 0.4082-2.7807-1.0928-3.4238z" fill="#fab571"/>
       <path id="path632" d="m9958 7653.8c-2.1621-0.7735-4.4912-1.4976-6.9697-2.1226 0.3945 0.4131 0.3291 1.1875 0.026 2.0596 2.3946 0.4277 6.043 1.6884 8.2989 1.6508-0.167-0.6552-0.6026-1.2475-1.3555-1.5878z" fill="#fab571"/>
       <path id="path634" d="m9959.4 7655.4c-2.2559 0.038-5.9043-1.2231-8.2989-1.6508-0.3027 0.8725-0.8408 1.8427-1.3906 2.6479 2.3105 0.23 7.0879 1.8145 9.4385 0.9654 0.3183-0.5899 0.4189-1.3072 0.251-1.9625z" fill="#fab470"/>
       <path id="path636" d="m9951 7651.7c-2.0938-0.5274-4.293-0.9844-6.5899-1.3413 0.2031 0.4214-0.2461 1.3139-0.9053 2.3345 2.5733 0.2885 5.0967 0.6655 7.5215 1.0664 0.3028-0.8721 0.3682-1.6465-0.026-2.0596z" fill="#fab571"/>
       <path id="path638" d="m9951.1 7653.7c-2.4248-0.4009-4.9482-0.7779-7.5215-1.0664-0.6582 1.0205-1.5254 2.1694-2.1601 3.1035 2.7695 0.1299 5.5351 0.3369 8.291 0.6108 0.5498-0.8052 1.0879-1.7754 1.3906-2.6479z" fill="#f9aa66"/>
       <path id="path640" d="m9944.4 7650.3c-2.2969-0.357-4.6895-0.6133-7.169-0.7403 0.011 0.4302-0.6816 1.4053-1.5566 2.5391 2.624 0.047 5.2481 0.2471 7.8203 0.5357 0.6592-1.0206 1.1084-1.9131 0.9053-2.3345z" fill="#fab571"/>
       <path id="path642" d="m9943.5 7652.7c-2.5722-0.2886-5.1963-0.4888-7.8203-0.5357-0.875 1.1333-1.9326 2.4253-2.6514 3.4883 2.7696-0.033 5.542 0.021 8.3116 0.1509 0.6347-0.9341 1.5019-2.083 2.1601-3.1035z" fill="#f8a45f"/>
       <path id="path644" d="m9937.3 7649.6c-4.2041-0.2148-8.6543-0.056-13.302 0.6202-0.3243 0.3374-1.1875 1.6782-2.045 3.1465 5.2959-0.7051 10.545-1.3213 13.79-1.2276 0.875-1.1338 1.5674-2.1089 1.5566-2.5391z" fill="#fab571"/>
       <path id="path646" d="m9935.7 7652.1c-3.2451-0.094-8.4942 0.5225-13.79 1.2276-0.8584 1.4682-1.709 3.0639-2.0068 3.9111 5.3779-0.6411 10.859-1.6231 13.146-1.6504 0.7188-1.063 1.7764-2.355 2.6514-3.4883z" fill="#f8a15c"/>
       <path id="path648" d="m9924 7650.2c-4.6475 0.6762-9.4913 1.8711-14.48 3.728-0.6582 0.2446-1.2451 0.6616-1.6367 1.1758 3.4317-0.2593 8.7744-1.0528 14.071-1.7573 0.8575-1.4683 1.7207-2.8091 2.045-3.1465z" fill="#fab571"/>
       <path id="path650" d="m9921.9 7653.4c-5.2969 0.7045-10.64 1.498-14.071 1.7573-0.3916 0.5137-0.5879 1.124-0.4638 1.7554 1.875 1.3383 7.1504 1.039 12.528 0.3984 0.2978-0.8472 1.1484-2.4429 2.0068-3.9111z" fill="#f9a863"/>
       <path id="path652" d="m9959.3 7657.3c-0.3701 0.1587-0.8086 0.2486-1.2959 0.2871-0.2969 0.356-0.669 0.6587-1.0967 0.8579 0.5947 0.079 1.1084-0.033 1.5244-0.269 0.3701-0.21 0.6641-0.5176 0.8682-0.876z" fill="#fab571"/>
       <path id="path654" d="m9958 7657.6c-2.5235 0.1983-6.3164-0.9941-8.2969-1.1914-0.1914 0.2476-0.3828 0.4785-0.5693 0.6851 2.3847 0.1948 5.7373 0.9111 8.3672 0.9941 0.1836-0.1455 0.3505-0.31 0.499-0.4878z" fill="#f9b26d"/>
       <path id="path656" d="m9957.5 7658.1c-2.6299-0.083-5.9825-0.7993-8.3672-0.9941-0.1856 0.206-0.3663 0.3877-0.5332 0.5366 2.788 0.1929 5.5673 0.4639 8.3027 0.8276 0.2139-0.1 0.4141-0.2251 0.5977-0.3701z" fill="#fab46f"/>
       <path id="path658" d="m9949.7 7656.4c-2.7559-0.2739-5.5215-0.4809-8.291-0.6108-0.209 0.291-0.4219 0.5742-0.6065 0.8271 2.7842 0.083 5.5772 0.2364 8.3282 0.4688 0.1865-0.2066 0.3779-0.4375 0.5693-0.6851z" fill="#f8a560"/>
       <path id="path660" d="m9949.1 7657.1c-2.751-0.2324-5.544-0.3853-8.3282-0.4688-0.1836 0.253-0.3408 0.4766-0.4375 0.6485 2.7315 0.052 5.4864 0.1665 8.2325 0.3569 0.1669-0.1489 0.3476-0.3306 0.5332-0.5366z" fill="#f9aa66"/>
       <path id="path662" d="m9941.4 7655.8c-2.7696-0.1304-5.542-0.1836-8.3116-0.1509-0.2275 0.3354-0.4199 0.6479-0.5635 0.9258 2.712-0.045 5.4854-0.031 8.2686 0.052 0.1846-0.2529 0.3975-0.5361 0.6065-0.8271z" fill="#f89d59"/>
       <path id="path664" d="m9940.8 7656.6c-2.7832-0.083-5.5566-0.098-8.2686-0.052-0.1435 0.2773-0.2363 0.5205-0.2636 0.7158 2.6533-0.058 5.3623-0.067 8.0947-0.015 0.097-0.1719 0.2539-0.3955 0.4375-0.6485z" fill="#f8a45f"/>
       <path id="path666" d="m9933.1 7655.6c-2.0722 0.025-6.7695 0.834-11.636 1.4624-0.044 0.2808-0.3711 0.3657-0.6553 0.4312 4.293-0.4263 8.6279-0.9107 11.728-0.9678 0.1436-0.2779 0.336-0.5904 0.5635-0.9258z" fill="#f89b56"/>
       <path id="path668" d="m9932.5 7656.5c-3.0996 0.057-7.4345 0.5415-11.728 0.9678-0.2852 0.066-0.5254 0.1123-0.3945 0.3159 3.7392-0.271 7.7324-0.4776 11.858-0.5679 0.027-0.1953 0.1201-0.4385 0.2636-0.7158z" fill="#f8a15c"/>
       <path id="path670" d="m9921.4 7657.1c-4.8672 0.6284-9.9024 1.0762-12.65 0.377 0.1407 0.226 0.3125 0.4511 0.5215 0.6733 2.9297 0.1753 7.1807-0.1929 11.474-0.6191 0.2842-0.065 0.6113-0.1504 0.6553-0.4312z" fill="#f8a05b"/>
       <path id="path672" d="m9920.8 7657.5c-4.293 0.4262-8.544 0.7944-11.474 0.6191 0.21 0.2217 0.4561 0.4404 0.7452 0.6519 3.1103-0.3487 6.5947-0.6841 10.334-0.9551-0.1309-0.2036 0.1093-0.25 0.3945-0.3159z" fill="#f9a761"/>
       <path id="path674" d="m9908.8 7657.5c-0.5673-0.1441-1.0371-0.337-1.3876-0.5874 0.078 0.3979 0.2832 0.8046 0.6484 1.2006 0.46 0.5005 1.1465 0.8081 2.0059 0.712-0.5772-0.4234-0.9864-0.8736-1.2667-1.3252z" fill="#f9b06c"/>
      </g>
     </g>
    </g>
   </g>
   <g id="g676" transform="scale(.1)">
    <g id="g678" clip-path="url(#clipPath680)">
     <path id="path694" d="m5445.1 6157.2s403.51 288.68 767.8 27.51c258.41-185.26 146.27-261.1-28.14-231.76-174.02 29.29-412.73 35.93-603.47 0-176.84-33.31-432.64-10.73-136.19 204.25" fill="url(#radialGradient684)"/>
    </g>
   </g>
   <g>
    <path id="path696" d="m544.51 615.72c-3.502-2.54-6.224-4.807-8.289-6.832 17.029 2.89 52.292 7.607 90.658 5.265-1.634 1.369-3.476 2.803-5.589 4.318-36.429 26.117-76.78-2.751-76.78-2.751" fill="#fff"/>
    <path id="path698" d="m633.36 607.74c-39.502 4.851-80.466-1.078-101.9-5.181-3.745-9.131 13.613-9.72 26.671-7.261 19.074 3.593 42.944 2.929 60.347 0 13.564-2.282 23.353 1.801 14.884 12.442" fill="#fff"/>
    <path id="path700" d="m554.68 621.48c13.615 2.648 32.398 4.867 54.517 3.723-21.41 8.765-42.496 2-54.517-3.723" fill="#ddd"/>
    <path id="path702" d="m628.7 594.88c-33.193 10.84-68.779 4.325-87.415-0.665 5.119-0.449 11.355 0.043 16.838 1.075 19.074 3.593 42.944 2.929 60.347 0 3.817-0.642 7.334-0.78 10.23-0.41" fill="#ddd"/>
    <path id="path704" d="m544.9 615.18c-12.634-9.161-14.058-13.934-13.028-16.326 2.023-4.697 14.976-4.997 26.131-2.897 17.372 3.271 41.15 3.271 60.582 0.002 8.861-1.489 15.519-0.205 16.968 3.273 1.669 4.011-3.673 10.826-14.654 18.699-35.571 25.503-75.507-2.401-75.999-2.751zm0.378-21.822c-7.119 0-13.1 1.402-14.636 4.967-1.78 4.131 2.754 10.168 13.473 17.94l0.004 0.003c0.408 0.293 41.164 28.845 77.559 2.751 14.998-10.752 16.496-16.974 15.112-20.301-1.722-4.14-8.782-5.702-18.427-4.079-19.291 3.248-42.886 3.246-60.111 0.002-4.273-0.805-8.819-1.283-12.974-1.283" fill="#f78d33"/>
   </g>
   <g fill="#bc7d71">
    <path id="path706" d="m728.82 687.99 6.687 2.633c-0.542 2.036-1.131 4.357-1.767 6.963l-6.688-2.632 1.768-6.964zm17.338-12.061c-1.199-0.473-2.202-0.727-3.01-0.763-0.808-0.037-1.496 0.092-2.067 0.387-0.57 0.295-1.049 0.743-1.439 1.348-0.389 0.603-0.752 1.336-1.092 2.198l-1.374 4.976-6.688-2.632 2.415-9.434c0.183-0.794-0.082-1.33-0.794-1.61-1.199-0.472-2.202-0.727-3.01-0.763-0.807-0.037-1.496 0.092-2.067 0.387-0.57 0.295-1.05 0.744-1.438 1.349-0.39 0.602-0.753 1.335-1.093 2.198l-1.375 4.975-5.563-2.19c-0.413-0.162-0.699-0.037-0.862 0.375-0.28 0.712-0.481 1.444-0.604 2.197-0.124 0.751-0.116 1.447 0.022 2.085s0.426 1.227 0.863 1.768c0.436 0.538 1.066 0.971 1.891 1.295l2.585 1.018c-0.542 2.036-1.131 4.357-1.767 6.963l-5.396-2.123c-0.412-0.163-0.697-0.039-0.86 0.374-0.648 1.648-0.862 3.122-0.637 4.423 0.223 1.299 1.159 2.272 2.808 2.922l2.361 0.929c-0.373 1.497-0.766 3.041-1.175 4.633-0.41 1.59-0.832 3.209-1.263 4.857-0.315 1.13-0.042 1.865 0.82 2.205 2.172 0.855 3.796 1.017 4.87 0.488s1.897-1.524 2.472-2.985c0.03-0.075 0.189-0.673 0.479-1.791 0.288-1.12 0.675-2.622 1.158-4.51l6.687 2.632c-0.373 1.497-0.765 3.042-1.174 4.634-0.41 1.59-0.831 3.209-1.264 4.857-0.314 1.129-0.041 1.865 0.821 2.204 2.172 0.855 3.796 1.018 4.87 0.489 1.073-0.529 1.898-1.524 2.473-2.985 0.03-0.076 0.189-0.673 0.477-1.791 0.289-1.12 0.676-2.623 1.159-4.51l5.844 2.3c0.225 0.089 0.457 0.104 0.696 0.048 0.239-0.059 0.41-0.218 0.513-0.48l0.495-1.753c0.33-1.167 0.331-2.216 0.005-3.145s-1.333-1.725-3.019-2.389l-2.809-1.105 1.767-6.964 5.62 2.212c0.224 0.088 0.456 0.104 0.695 0.047 0.238-0.059 0.41-0.219 0.513-0.48l0.495-1.752c0.33-1.168 0.331-2.217 0.006-3.146-0.327-0.93-1.333-1.725-3.02-2.389l-2.641-1.039 2.416-9.434c0.182-0.794-0.083-1.331-0.795-1.61"/>
    <path id="path708" d="m773.76 710.68c-1.124-0.443-1.842-1.147-2.154-2.113-0.312-0.967-0.431-1.955-0.358-2.965s0.244-1.939 0.512-2.784c0.268-0.847 0.439-1.364 0.513-1.551 0.56-1.423 1.167-2.362 1.823-2.818 0.655-0.457 1.414-0.516 2.276-0.176 0.823 0.324 1.426 0.854 1.808 1.588 0.382 0.735 0.605 1.568 0.671 2.503 0.064 0.934-0.013 1.898-0.231 2.894-0.22 0.996-0.491 1.906-0.815 2.73-0.487 1.237-1.04 2.09-1.657 2.561-0.618 0.471-1.414 0.514-2.388 0.131zm6.729-28.31c-3.035-1.194-5.852-1.784-8.454-1.77-2.602 0.015-4.964 0.545-7.085 1.592-2.122 1.048-4 2.58-5.637 4.596-1.638 2.017-3.002 4.41-4.094 7.183-1.238 3.147-1.927 6.272-2.067 9.376-0.141 3.103 0.356 6.046 1.489 8.829s2.937 5.319 5.409 7.613c2.472 2.292 5.675 4.213 9.609 5.761 3.597 1.416 6.768 2.123 9.516 2.123 2.747 0 5.13-0.501 7.146-1.502 2.017-1.002 3.711-2.392 5.081-4.167 1.369-1.775 2.475-3.731 3.315-5.866 0.796-2.024 1.303-3.998 1.52-5.925s0.094-3.727-0.372-5.403-1.312-3.178-2.542-4.505c-1.23-1.328-2.913-2.412-5.049-3.252-0.862-0.34-1.702-0.596-2.521-0.766-0.819-0.171-1.581-0.244-2.283-0.218-0.704 0.027-1.307 0.188-1.814 0.487-0.507 0.298-0.872 0.728-1.093 1.29-0.357-1.179-0.88-2.272-1.565-3.277-0.686-1.006-1.816-1.818-3.389-2.437-1.986-0.782-3.828-0.718-5.528 0.193-1.7 0.909-3.191 2.995-4.474 6.254-1.607 4.083-1.966 7.577-1.074 10.481 0.89 2.903 2.871 4.96 5.944 6.169 1.423 0.56 2.571 0.72 3.446 0.479 0.873-0.24 1.687-0.883 2.445-1.925-0.089 0.225-0.172 0.517-0.248 0.877-0.076 0.359-0.137 0.702-0.18 1.032-0.042 0.329-0.048 0.618-0.017 0.869 0.032 0.25 0.122 0.405 0.272 0.464l1.743 0.686c1.16 0.456 2.114 0.562 2.861 0.314 0.746-0.247 1.288-0.801 1.628-1.663 0.177-0.449 0.385-1.2 0.627-2.252 0.24-1.052 0.505-2.192 0.793-3.418 0.289-1.229 0.589-2.43 0.9-3.606s0.608-2.119 0.888-2.831c0.059-0.149 0.144-0.343 0.26-0.579 0.114-0.236 0.275-0.453 0.484-0.653s0.458-0.338 0.749-0.418c0.291-0.082 0.643-0.041 1.055 0.122 0.637 0.251 1.106 0.706 1.41 1.366 0.302 0.66 0.457 1.447 0.467 2.359 0.008 0.911-0.112 1.903-0.36 2.973-0.249 1.071-0.586 2.149-1.013 3.236-0.694 1.761-1.549 3.273-2.566 4.54-1.017 1.264-2.216 2.22-3.596 2.868-1.379 0.646-2.967 0.941-4.761 0.883-1.794-0.056-3.835-0.536-6.12-1.435-2.959-1.165-5.289-2.611-6.988-4.341-1.699-1.729-2.884-3.612-3.553-5.649s-0.894-4.16-0.674-6.366c0.219-2.207 0.75-4.377 1.591-6.513 1.725-4.383 4.056-7.176 6.996-8.376 2.939-1.203 6.244-1.08 9.915 0.365 1.162 0.457 2.093 0.921 2.795 1.392 0.701 0.47 1.273 0.912 1.717 1.325 0.444 0.411 0.81 0.773 1.1 1.082 0.289 0.308 0.622 0.536 0.996 0.683 0.3 0.119 0.558 0.123 0.775 0.013 0.215-0.109 0.419-0.408 0.611-0.895 0.088-0.225 0.224-0.679 0.407-1.364s0.22-1.439 0.111-2.261c-0.055-0.411-0.177-0.869-0.366-1.377-0.19-0.507-0.538-1.023-1.046-1.548-0.507-0.524-1.202-1.067-2.084-1.631-0.881-0.563-2.034-1.125-3.458-1.686"/>
    <path id="path710" d="m806.31 715.7c-0.937-0.369-1.75-0.559-2.437-0.57-0.688-0.011-1.293 0.151-1.814 0.487-0.521 0.335-0.984 0.823-1.388 1.465-0.404 0.641-0.783 1.413-1.136 2.311-0.133 0.338-0.269 0.706-0.404 1.107-0.136 0.401-0.294 0.912-0.474 1.534-0.18 0.621-0.418 1.393-0.716 2.314s-0.667 2.106-1.107 3.556c-0.44 1.448-0.978 3.195-1.609 5.24-0.632 2.044-1.4 4.489-2.303 7.335-0.288 0.839-0.385 1.363-0.295 1.573 0.069 0.156 0.346 0.331 0.833 0.522l3.316 1.305c2.06 0.811 3.69 0.986 4.887 0.529 1.197-0.461 2.011-1.233 2.438-2.319 0.266-0.674 0.549-1.59 0.854-2.747 0.303-1.157 0.608-2.454 0.914-3.89 0.307-1.438 0.61-2.952 0.912-4.542 0.302-1.591 0.596-3.162 0.882-4.716 0.287-1.552 0.557-3.036 0.811-4.45 0.254-1.416 0.472-2.628 0.653-3.637 0.102-0.48 0.098-0.828-0.011-1.044-0.11-0.216-0.371-0.405-0.783-0.567l-2.023-0.796zm0.313-4.421c1.572 0.619 2.847 0.677 3.824 0.176 0.977-0.503 1.738-1.448 2.284-2.833 0.236-0.6 0.418-1.285 0.549-2.055 0.13-0.772 0.12-1.543-0.03-2.316-0.15-0.774-0.505-1.52-1.067-2.238-0.56-0.717-1.422-1.306-2.583-1.763-1.685-0.664-3.002-0.673-3.947-0.029-0.946 0.644-1.677 1.622-2.194 2.934-0.295 0.749-0.489 1.516-0.581 2.302-0.093 0.785-0.045 1.54 0.147 2.265 0.191 0.724 0.575 1.394 1.155 2.012 0.579 0.617 1.393 1.132 2.443 1.545"/>
    <path id="path712" d="m812.01 733.2c-0.797 2.024-1.172 3.909-1.124 5.659 0.046 1.748 0.398 3.358 1.052 4.827 0.656 1.469 1.544 2.783 2.669 3.939 1.123 1.156 2.377 2.179 3.756 3.069-0.16 0.629-0.361 1.274-0.599 1.938-0.239 0.662-0.416 1.274-0.528 1.836-0.114 0.561-0.143 1.047-0.088 1.459 0.054 0.411 0.269 0.69 0.643 0.838 1.874 0.737 3.319 0.775 4.336 0.115s1.857-1.832 2.52-3.517c2.785 0.618 5.108 0.462 6.968-0.471 1.86-0.934 3.211-2.468 4.051-4.603 0.826-2.099 0.875-3.929 0.149-5.491-0.727-1.563-2.176-2.772-4.348-3.627-0.675-0.265-1.131-0.369-1.37-0.311-0.24 0.057-0.44 0.292-0.602 0.704-0.147 0.374-0.368 0.85-0.66 1.428-0.291 0.577-0.661 1.102-1.107 1.576-0.446 0.473-0.99 0.811-1.632 1.012-0.642 0.203-1.393 0.133-2.255-0.206-1.2-0.472-2.123-1.257-2.772-2.356-0.649-1.1-0.744-2.231-0.287-3.391 0.398-1.012 1.105-1.685 2.124-2.02 1.019-0.334 2.216-0.545 3.592-0.63 1.375-0.087 2.856-0.142 4.445-0.165 1.588-0.024 3.144-0.266 4.667-0.727s2.937-1.224 4.243-2.289 2.373-2.646 3.199-4.744c1.18-2.998 1.328-5.903 0.444-8.717-0.883-2.813-2.951-5.143-6.206-6.985l1.253-4.504c0.102-0.48 0.117-0.82 0.046-1.021-0.074-0.201-0.353-0.398-0.839-0.59-0.938-0.369-1.754-0.549-2.448-0.542-0.696 0.008-1.304 0.179-1.825 0.515-0.522 0.336-0.985 0.825-1.389 1.465-0.404 0.642-0.782 1.413-1.136 2.311-1.513-0.335-2.942-0.498-4.286-0.486-1.347 0.011-2.539 0.125-3.576 0.345-1.039 0.218-1.906 0.525-2.603 0.922s-1.148 0.856-1.355 1.382c-0.974 2.473-1.532 4.307-1.679 5.504s0.153 1.943 0.904 2.239c0.524 0.206 1.164 0.198 1.923-0.023 0.757-0.22 1.621-0.465 2.592-0.731 0.97-0.268 2.04-0.431 3.21-0.49 1.169-0.058 2.41 0.17 3.721 0.686 0.524 0.207 1.021 0.456 1.491 0.75 0.469 0.292 0.856 0.629 1.16 1.008 0.305 0.379 0.505 0.804 0.602 1.275 0.096 0.469 0.041 0.967-0.165 1.492-0.369 0.936-1.021 1.546-1.953 1.828-0.934 0.282-2.035 0.443-3.306 0.483-1.271 0.041-2.634 0.067-4.087 0.079-1.455 0.012-2.898 0.245-4.331 0.697s-2.779 1.232-4.035 2.338c-1.258 1.105-2.314 2.746-3.169 4.918"/>
    <path id="path714" d="m712.29 667.01c-1.426 2.364-6.775 0.689-6.914-2.068-0.439-8.716-3.32-19.98 0.49-21.42 2.922-1.105 30.729 9.076 27.773 16.546-2.11 5.334-14.406-4.043-20.348-8.471-1.496-1.115-3.627-0.134-3.743 1.729-0.198 3.15 4.694 10.448 2.742 13.684"/>
   </g>
  </g>
 </g>
</svg>
