<?xml version="1.0" encoding="UTF-8" standalone="no"?>
<svg
   xmlns:dc="http://purl.org/dc/elements/1.1/"
   xmlns:cc="http://creativecommons.org/ns#"
   xmlns:rdf="http://www.w3.org/1999/02/22-rdf-syntax-ns#"
   xmlns:svg="http://www.w3.org/2000/svg"
   xmlns="http://www.w3.org/2000/svg"
   xmlns:sodipodi="http://sodipodi.sourceforge.net/DTD/sodipodi-0.dtd"
   xmlns:inkscape="http://www.inkscape.org/namespaces/inkscape"
   height="243.735"
   viewBox="0 0 286.2908 183.73456"
   width="286.291"
   id="svg2"
   version="1.1"
   inkscape:version="0.91 r13725"
   sodipodi:docname="meta_tags.svg">
  <metadata
     id="metadata222">
    <rdf:RDF>
      <cc:Work
         rdf:about="">
        <dc:format>image/svg+xml</dc:format>
        <dc:type
           rdf:resource="http://purl.org/dc/dcmitype/StillImage" />
        <dc:title />
      </cc:Work>
    </rdf:RDF>
  </metadata>
  <sodipodi:namedview
     pagecolor="#ffffff"
     bordercolor="#666666"
     borderopacity="1"
     objecttolerance="10"
     gridtolerance="10"
     guidetolerance="10"
     inkscape:pageopacity="0"
     inkscape:pageshadow="2"
     inkscape:window-width="1301"
     inkscape:window-height="744"
     id="namedview220"
     showgrid="false"
     inkscape:zoom="0.96826471"
     inkscape:cx="25.685326"
     inkscape:cy="121.8675"
     inkscape:window-x="65"
     inkscape:window-y="24"
     inkscape:window-maximized="1"
     inkscape:current-layer="svg2" />
  <defs
     id="defs4">
    <clipPath
       id="a">
      <path
         d="M5900 2420h290v2790h-290V2420z"
         id="path7" />
    </clipPath>
    <clipPath
       id="b">
      <path
         d="M1775.1 2438.9l-774.7 865.7 1463.8 1310.1-689.1-2175.8z"
         id="path10" />
    </clipPath>
    <clipPath
       id="clipPath922"
       clipPathUnits="userSpaceOnUse">
      <path
         inkscape:connector-curvature="0"
         id="path924"
         d="m 8038.2,8609.7 -1659.8,0 c -14.48,47.97 -63.67,77.78 -118.25,77.78 l -610.79,0 0,277.78 2388.9,0 0,-355.56" />
    </clipPath>
  </defs>
  <g
     id="g10"
     transform="matrix(1.4070031,0,0,-1.4168159,2.8149879,230.80451)">
    <g
       id="g5865"
       transform="matrix(0.82618,0,0,0.83243,-103.28,-139.98)">
      <g
         id="g9">
        <path
           style="fill:#a7a9ac"
           inkscape:connector-curvature="0"
           id="path856"
           d="m 331.11,331.56 4.6839,0 0,20.371 -4.6839,0 0,-20.371 z" />
        <path
           style="fill:#a7a9ac"
           inkscape:connector-curvature="0"
           id="path858"
           d="m 311.91,331.56 4.6834,0 0,20.371 -4.6834,0 0,-20.371 z" />
        <path
           style="fill:#bcbec0"
           inkscape:connector-curvature="0"
           id="path860"
           d="m 316.59,351.94 14.519,-20.568" />
        <path
           style="fill:#231f20"
           inkscape:connector-curvature="0"
           id="path862"
           d="m 330.54,330.81 -14.519,20.568 1.1533,1.1248 14.519,-20.568 -1.1537,-1.1248" />
        <path
           style="fill:#bcbec0"
           inkscape:connector-curvature="0"
           id="path864"
           d="m 316.59,331.37 14.519,20.568" />
        <path
           style="fill:#231f20"
           inkscape:connector-curvature="0"
           id="path866"
           d="m 317.17,330.81 -1.1533,1.1248 14.519,20.568 1.1537,-1.1248 -14.519,-20.568" />
        <path
           style="fill:#bcbec0"
           inkscape:connector-curvature="0"
           id="path868"
           d="m 170,291.37 13.114,0 0,25.877 -13.114,0 0,-25.877 z" />
        <path
           style="fill:#d1d3d4"
           inkscape:connector-curvature="0"
           id="path870"
           d="m 165.78,317.24 21.076,0 0,7.7081 -21.076,0 0,-7.7081 z" />
      </g>
      <g
         style="fill:#231f20"
         id="g19">
        <path
           inkscape:connector-curvature="0"
           id="path872"
           d="m 166.53,318.13 19.577,0 0,5.9461 -19.577,0 0,-5.9461 z m 20.326,-1.762 -21.076,0 c -0.41393,0 -0.74946,0.39443 -0.74946,0.88102 l 0,7.7082 c 0,0.48659 0.33553,0.88102 0.74946,0.88102 l 21.076,0 c 0.41393,0 0.74946,-0.39443 0.74946,-0.88102 l 0,-7.7082 c 0,-0.48659 -0.33553,-0.88102 -0.74946,-0.88102" />
        <path
           inkscape:connector-curvature="0"
           id="path874"
           d="m 170,308.66 5.6205,0 0,1.7616 -5.6205,0 0,-1.7616 z" />
        <path
           inkscape:connector-curvature="0"
           id="path876"
           d="m 170,301.5 5.6205,0 0,1.762 -5.6205,0 0,-1.762 z" />
      </g>
      <g
         id="g24">
        <path
           style="fill:#ffffff"
           inkscape:connector-curvature="0"
           id="path878"
           d="m 179.83,349.18 1.4766,0 c 0.91427,0 1.8016,1.1456 1.8016,2.2169 l 0,11.663 c 0,1.0748 -0.88729,2.0861 -1.8016,2.0861 l -9.9187,0 c -0.91301,0 -1.3935,-1.0113 -1.3935,-2.0861 l 0,-11.663 c 0,-1.0713 0.48053,-2.2169 1.3935,-2.2169 l 0.94841,0 0,-24.225 7.4937,0 0,24.225" />
        <path
           style="fill:#231f20"
           inkscape:connector-curvature="0"
           id="path880"
           d="m 173.09,325.83 5.9948,0 0,23.344 c 0,0.4866 0.33552,0.88053 0.74945,0.88053 l 1.4766,0 c 0.48179,0 1.0521,0.72443 1.0521,1.3364 l 0,11.663 c 0,0.58569 -0.5408,1.2051 -1.0521,1.2051 l -9.9187,0 c -0.50919,0 -0.64408,-0.78836 -0.64408,-1.2051 l 0,-11.663 c 0,-0.53862 0.20486,-1.3364 0.64408,-1.3364 l 0.94841,0 c 0.41393,0 0.74946,-0.39393 0.74946,-0.88053 l 0,-23.344 z m 6.7443,-1.762 -7.4937,0 c -0.41393,0 -0.74946,0.39443 -0.74946,0.88102 l 0,23.344 -0.19895,0 c -1.3918,0 -2.143,1.596 -2.143,3.0979 l 0,11.663 c 0,1.7189 0.90121,2.9671 2.143,2.9671 l 9.9187,0 c 1.3354,0 2.551,-1.4147 2.551,-2.9671 l 0,-11.663 c 0,-1.5926 -1.2397,-3.0979 -2.551,-3.0979 l -0.72754,0 0,-23.344 c 0,-0.48659 -0.33511,-0.88102 -0.74904,-0.88102" />
        <path
           style="fill:#d1d3d4"
           inkscape:connector-curvature="0"
           id="path882"
           d="m 202.87,334.31 4.1342,0 c 0,8.8087 7.503,14.817 7.503,14.817 l -11.637,15.939 -11.639,-15.969 c 0,0 7.5034,-5.9778 7.5034,-14.787 l 4.1351,0" />
        <path
           style="fill:#231f20"
           inkscape:connector-curvature="0"
           id="path884"
           d="m 202.03,350.83 1.499,0 0,14.315 -1.499,0 0,-14.315 z" />
        <path
           style="fill:#939598"
           inkscape:connector-curvature="0"
           id="path886"
           d="m 205.56,347.33 c 0,-1.707 -1.1773,-3.091 -2.6298,-3.091 -1.4521,0 -2.6294,1.384 -2.6294,3.091 0,1.707 1.1773,3.091 2.6294,3.091 1.4526,0 2.6298,-1.384 2.6298,-3.091" />
        <path
           style="fill:#231f20"
           inkscape:connector-curvature="0"
           id="path888"
           d="m 202.93,349.54 c -1.0365,0 -1.88,-0.99151 -1.88,-2.2105 0,-1.2185 0.84345,-2.21 1.88,-2.21 1.0369,0 1.8804,0.99151 1.8804,2.21 0,1.219 -0.84345,2.2105 -1.8804,2.2105 z m 0,-6.1825 c -1.8631,0 -3.3784,1.7819 -3.3784,3.972 0,2.1902 1.5154,3.972 3.3784,3.972 1.8631,0 3.3789,-1.7819 3.3789,-3.972 0,-2.1902 -1.5158,-3.972 -3.3789,-3.972" />
        <path
           style="fill:#f1f2f2"
           inkscape:connector-curvature="0"
           id="path890"
           d="m 193.89,271 17.329,0 0,7.1572 -17.329,0 0,-7.1572 z" />
        <path
           style="fill:#231f20"
           inkscape:connector-curvature="0"
           id="path892"
           d="m 194.63,271.88 15.83,0 0,5.3951 -15.83,0 0,-5.3951 m 16.58,-1.762 -17.329,0 c -0.41393,0 -0.74946,0.39442 -0.74946,0.88101 l 0,7.1572 c 0,0.48659 0.33553,0.88102 0.74946,0.88102 l 17.329,0 c 0.41393,0 0.74945,-0.39443 0.74945,-0.88102 l 0,-7.1572 c 0,-0.48659 -0.33552,-0.88101 -0.74945,-0.88101" />
        <path
           style="fill:#ffd248"
           inkscape:connector-curvature="0"
           id="path894"
           d="m 211.21,328.81 -1.4049,0 0,5.5061 -14.519,0 0,-5.5061 -1.4049,0 0,-50.652 17.329,0 0,50.652" />
        <path
           style="fill:#231f20"
           inkscape:connector-curvature="0"
           id="path896"
           d="m 194.63,279.04 15.83,0 0,48.891 -0.65546,0 c -0.41393,0 -0.74946,0.39393 -0.74946,0.88052 l 0,4.6251 -13.02,0 0,-4.6251 c 0,-0.48659 -0.33553,-0.88052 -0.74946,-0.88052 l -0.65546,0 0,-48.891 m 16.58,-1.762 -17.329,0 c -0.41393,0 -0.74946,0.39442 -0.74946,0.88102 l 0,50.652 c 0,0.48709 0.33553,0.88102 0.74946,0.88102 l 0.65547,0 0,4.6251 c 0,0.48659 0.33552,0.88102 0.74945,0.88102 l 14.519,0 c 0.41393,0 0.74945,-0.39443 0.74945,-0.88102 l 0,-4.6251 0.65547,0 c 0.41393,0 0.74945,-0.39393 0.74945,-0.88102 l 0,-50.652 c 0,-0.4866 -0.33552,-0.88102 -0.74945,-0.88102" />
        <path
           style="fill:#231f20"
           inkscape:connector-curvature="0"
           id="path898"
           d="m 195.29,327.93 7.0255,0 0,1.7616 -7.0255,0 0,-1.7616 z" />
        <path
           style="fill:#d1d3d4"
           inkscape:connector-curvature="0"
           id="path900"
           d="m 270.69,210.99 28.57,0 0,22.573 -28.57,0 0,-22.573 z" />
        <path
           style="fill:#58595b"
           inkscape:connector-curvature="0"
           id="path902"
           d="m 351.25,329.05 c 0,4.6598 -3.2364,8.5619 -7.3744,8.5619 l -118.05,0 c -4.138,0 -7.5844,-3.9022 -7.5844,-8.5619 l 0,-70.169 133.01,0 0,70.169" />
        <path
           style="fill:#ffffff"
           inkscape:connector-curvature="0"
           id="path904"
           d="m 218.24,258.88 0,-17.932 c 0,-4.6608 3.4463,-7.395 7.5844,-7.395 l 118.05,0 c 4.138,0 7.3744,2.7342 7.3744,7.395 l 0,17.932 -133.01,0" />
        <path
           style="fill:#231f20"
           inkscape:connector-curvature="0"
           id="path906"
           d="m 218.99,258 0,-17.05 c 0,-3.1371 2.1388,-6.514 6.8349,-6.514 l 118.05,0 c 4.5768,0 6.6254,3.2719 6.6254,6.514 l 0,17.05 -131.51,0 m 124.89,-25.326 -118.05,0 c -4.9069,0 -8.3338,3.4032 -8.3338,8.276 l 0,17.932 c 0,0.4861 0.33553,0.88053 0.74946,0.88053 l 133.01,0 c 0.41393,0 0.74904,-0.39443 0.74904,-0.88053 l 0,-17.932 c 0,-4.8729 -3.3405,-8.276 -8.1235,-8.276" />
        <path
           style="fill:#bcbec0"
           inkscape:connector-curvature="0"
           id="path908"
           d="m 289.48,246.21 c 0,-3.0058 -2.0739,-5.4447 -4.6329,-5.4447 -2.559,0 -4.6312,2.4389 -4.6312,5.4447 0,3.0087 2.0722,5.4462 4.6312,5.4462 2.559,0 4.6329,-2.4374 4.6329,-5.4462" />
        <path
           style="fill:#ffffff"
           inkscape:connector-curvature="0"
           id="path910"
           d="m 265.07,204.93 39.341,0 0,6.0566 -39.341,0 0,-6.0566 z" />
        <path
           style="fill:#231f20"
           inkscape:connector-curvature="0"
           id="path912"
           d="m 265.82,205.81 37.843,0 0,4.2946 -37.843,0 0,-4.2946 z m 38.592,-1.7615 -39.341,0 c -0.41393,0 -0.74946,0.39393 -0.74946,0.88052 l 0,6.0566 c 0,0.4866 0.33553,0.88102 0.74946,0.88102 l 39.341,0 c 0.41393,0 0.74903,-0.39442 0.74903,-0.88102 l 0,-6.0566 c 0,-0.48659 -0.3351,-0.88052 -0.74903,-0.88052" />
        <path
           style="fill:#ffd248"
           inkscape:connector-curvature="0"
           id="path914"
           d="m 226.67,258.88 116.15,0 0,69.371 -116.15,0 0,-69.371 z" />
        <path
           style="fill:#231f20"
           inkscape:connector-curvature="0"
           id="path916"
           d="m 227.42,259.77 114.65,0 0,67.61 -114.65,0 0,-67.61 m 115.4,-1.762 -116.15,0 c -0.41393,0 -0.74945,0.39444 -0.74945,0.88152 l 0,69.371 c 0,0.48659 0.33552,0.88101 0.74945,0.88101 l 116.15,0 c 0.41393,0 0.74946,-0.39442 0.74946,-0.88101 l 0,-69.371 c 0,-0.48708 -0.33553,-0.88152 -0.74946,-0.88152" />
      </g>
      <g
         id="g918"
         transform="matrix(0.042152,0,0,0.049551,-3.4963,-125.34)">
        <g
           id="g920"
           clip-path="url(#clipPath922)">
          <path
             style="fill:#ffe9a4"
             inkscape:connector-curvature="0"
             id="path926"
             d="m 5649.3,8609.7 2388.9,0 0,355.56 -2388.9,0 0,-355.56 z" />
        </g>
      </g>
      <g
         style="fill:#ffe9a4"
         id="g49">
        <path
           inkscape:connector-curvature="0"
           id="path928"
           d="m 265.54,281.46 35.595,0 0,15.416 -35.595,0 0,-15.416 z" />
        <path
           inkscape:connector-curvature="0"
           id="path930"
           d="m 308.16,281.46 26.696,0 0,15.416 -26.696,0 0,-15.416 z" />
        <path
           inkscape:connector-curvature="0"
           id="path932"
           d="m 265.54,269.35 69.316,0 0,7.1576 -69.316,0 0,-7.1576 z" />
      </g>
      <g
         id="g54">
        <path
           style="fill:#ffffff"
           inkscape:connector-curvature="0"
           id="path934"
           d="m 234.63,293.57 98.822,0 0,27.529 -98.822,0 0,-27.529 z" />
        <path
           style="fill:#231f20"
           inkscape:connector-curvature="0"
           id="path936"
           d="m 235.38,294.45 97.324,0 0,25.767 -97.324,0 0,-25.767 z m 98.073,-1.762 -98.822,0 c -0.41393,0 -0.74946,0.39443 -0.74946,0.88102 l 0,27.529 c 0,0.48659 0.33553,0.88102 0.74946,0.88102 l 98.822,0 c 0.41393,0 0.74904,-0.39443 0.74904,-0.88102 l 0,-27.529 c 0,-0.48659 -0.33511,-0.88102 -0.74904,-0.88102" />
        <path
           style="fill:#6d6e71"
           inkscape:connector-curvature="0"
           id="path938"
           d="m 265.54,299.81 c 0,3.2238 -2.4208,5.3253 -5.1653,5.3253 l -96.761,0 c -2.7441,0 -5.3263,-2.1015 -5.3263,-5.3253 l 0,-82.766 107.25,0 0,82.766" />
        <path
           style="fill:#f1f2f2"
           inkscape:connector-curvature="0"
           id="path940"
           d="m 149.86,217.04 0,-6.346 c 0,-3.2213 3.2794,-5.7668 6.4382,-5.7668 l 111.4,0 c 3.161,0 6.2776,2.5454 6.2776,5.7668 l 0,6.346 -124.11,0" />
        <path
           style="fill:#231f20"
           inkscape:connector-curvature="0"
           id="path942"
           d="m 150.61,216.16 0,-5.465 c 0,-2.7516 3.0581,-4.8857 5.6888,-4.8857 l 111.4,0 c 2.8933,0 5.5286,2.3289 5.5286,4.8857 l 0,5.465 -122.62,0 z m 117.09,-12.112 -111.4,0 c -3.3995,0 -7.1873,2.7298 -7.1873,6.6473 l 0,6.346 c 0,0.48659 0.33511,0.88102 0.74904,0.88102 l 124.11,0 c 0.41393,0 0.74903,-0.39443 0.74903,-0.88102 l 0,-6.346 c 0,-1.8071 -0.7992,-3.5102 -2.2522,-4.7951 -1.3303,-1.1773 -3.0708,-1.8522 -4.7745,-1.8522" />
        <path
           style="fill:#18affe"
           inkscape:connector-curvature="0"
           id="path944"
           d="m 165.32,224.75 93.202,0 0,73.777 -93.202,0 0,-73.777 z" />
        <path
           style="fill:#231f20"
           inkscape:connector-curvature="0"
           id="path946"
           d="m 166.06,225.63 91.704,0 0,72.014 -91.704,0 0,-72.014 m 92.453,-1.7615 -93.202,0 c -0.41393,0 -0.74945,0.39393 -0.74945,0.88052 l 0,73.777 c 0,0.48609 0.33552,0.88052 0.74945,0.88052 l 93.202,0 c 0.41393,0 0.74945,-0.39443 0.74945,-0.88052 l 0,-73.777 c 0,-0.48659 -0.33552,-0.88052 -0.74945,-0.88052" />
        <path
           style="fill:#231f20"
           inkscape:connector-curvature="0"
           id="path948"
           d="m 206.06,209.55 12.177,0 0,1.7616 -12.177,0 0,-1.7616 z" />
      </g>
      <g
         style="fill:#8cd7ff"
         id="g64">
        <path
           inkscape:connector-curvature="0"
           id="path950"
           d="m 242.59,271.55 8.8986,0 0,17.618 -8.8986,0 0,-17.618 z" />
        <path
           inkscape:connector-curvature="0"
           id="path952"
           d="m 173.75,271.55 64.164,0 0,17.618 -64.164,0 0,-17.618 z" />
        <path
           inkscape:connector-curvature="0"
           id="path954"
           d="m 173.75,248.42 17.797,0 0,17.618 -17.797,0 0,-17.618 z" />
        <path
           inkscape:connector-curvature="0"
           id="path956"
           d="m 194.82,248.42 54.797,0 0,17.618 -54.797,0 0,-17.618 z" />
        <path
           inkscape:connector-curvature="0"
           id="path958"
           d="m 173.75,234.11 75.873,0 0,8.2586 -75.873,0 0,-8.2586 z" />
      </g>
      <g
         style="fill:#231f20"
         id="g71">
        <path
           inkscape:connector-curvature="0"
           id="path960"
           d="m 233.78,240.97 -3.7414,4.3967 c -0.14037,0.1655 -0.21961,0.38947 -0.21961,0.62335 0,0.23339 0.0788,0.45736 0.21961,0.62286 l 3.7414,4.3972 1.0597,-1.2457 -3.2115,-3.7743 3.2115,-3.7743 -1.0597,-1.2457" />
        <path
           inkscape:connector-curvature="0"
           id="path962"
           d="m 245.3,240.97 -1.0597,1.2457 3.2111,3.7743 -3.2111,3.7743 1.0597,1.2457 3.7414,-4.3972 c 0.14037,-0.1655 0.21919,-0.38947 0.21919,-0.62286 0,-0.23388 -0.0788,-0.45785 -0.21919,-0.62335 l -3.7414,-4.3967" />
        <path
           inkscape:connector-curvature="0"
           id="path964"
           d="m 237.62,240.04 -1.3531,0.75664 4.5583,11.27 1.3535,-0.75615 -4.5587,-11.27" />
        <path
           inkscape:connector-curvature="0"
           id="path966"
           d="m 178.43,263.51 49.177,0 0,1.7616 -49.177,0 0,-1.7616 z" />
      </g>
      <g
         id="g77">
        <path
           style="fill:#939598"
           inkscape:connector-curvature="0"
           id="path968"
           d="m 200.91,261.64 4.6836,0 0,4.9551 -4.6836,0 0,-4.9551 z" />
        <path
           style="fill:#231f20"
           inkscape:connector-curvature="0"
           id="path970"
           d="m 201.66,262.52 3.185,0 0,3.1931 -3.185,0 0,-3.1931 z m 3.9344,-1.762 -4.6835,0 c -0.41393,0 -0.74946,0.39442 -0.74946,0.88102 l 0,4.9551 c 0,0.48659 0.33553,0.88101 0.74946,0.88101 l 4.6835,0 c 0.41393,0 0.74945,-0.39442 0.74945,-0.88101 l 0,-4.9551 c 0,-0.4866 -0.33552,-0.88102 -0.74945,-0.88102" />
        <path
           style="fill:#939598"
           inkscape:connector-curvature="0"
           id="path972"
           d="m 173.75,261.09 4.6834,0 0,5.5056 -4.6834,0 0,-5.5056 z" />
        <path
           style="fill:#231f20"
           inkscape:connector-curvature="0"
           id="path974"
           d="m 174.5,261.97 3.1846,0 0,3.7436 -3.1846,0 0,-3.7436 z m 3.934,-1.762 -4.6835,0 c -0.41393,0 -0.74946,0.39443 -0.74946,0.88102 l 0,5.5056 c 0,0.48659 0.33553,0.88101 0.74946,0.88101 l 4.6835,0 c 0.41393,0 0.74946,-0.39442 0.74946,-0.88101 l 0,-5.5056 c 0,-0.48659 -0.33553,-0.88102 -0.74946,-0.88102" />
        <path
           style="fill:#939598"
           inkscape:connector-curvature="0"
           id="path976"
           d="m 227.61,261.64 5.1518,0 0,4.9551 -5.1518,0 0,-4.9551 z" />
      </g>
      <g
         style="fill:#231f20"
         id="g84">
        <path
           inkscape:connector-curvature="0"
           id="path978"
           d="m 228.36,262.52 3.6529,0 0,3.1931 -3.6529,0 0,-3.1931 z m 4.4023,-1.762 -5.1518,0 c -0.41393,0 -0.74945,0.39442 -0.74945,0.88102 l 0,4.9551 c 0,0.48659 0.33552,0.88101 0.74945,0.88101 l 5.1518,0 c 0.41393,0 0.74946,-0.39442 0.74946,-0.88101 l 0,-4.9551 c 0,-0.4866 -0.33553,-0.88102 -0.74946,-0.88102" />
        <path
           inkscape:connector-curvature="0"
           id="path980"
           d="m 205.85,263.43 -0.0257,0 0.009,1.7615 0.002,0 c 0.16144,0 8.3663,0.06 13.776,6.3916 3.201,3.7456 4.8238,8.9539 4.8238,15.482 l 1.4989,0 c 0,-7.0204 -1.775,-12.653 -5.2753,-16.742 -5.7874,-6.7617 -14.179,-6.893 -14.809,-6.893" />
        <path
           inkscape:connector-curvature="0"
           id="path982"
           d="m 200.97,263.43 c -0.62849,0 -9.0209,0.13081 -14.809,6.893 -3.5003,4.089 -5.2753,9.7214 -5.2753,16.742 l 1.4989,0 c 0,-6.5338 1.6258,-11.746 4.8327,-15.493 5.4081,-6.3178 13.558,-6.3807 13.765,-6.3807 l 0.004,0 0.009,-1.7615 -0.0257,0" />
      </g>
      <g
         id="g89">
        <path
           style="fill:#939598"
           inkscape:connector-curvature="0"
           id="path984"
           d="m 222.45,283.66 5.1517,0 0,5.5056 -5.1517,0 0,-5.5056 z" />
        <path
           style="fill:#231f20"
           inkscape:connector-curvature="0"
           id="path986"
           d="m 223.2,284.54 3.6529,0 0,3.7441 -3.6529,0 0,-3.7441 z m 4.4023,-1.762 -5.1518,0 c -0.41393,0 -0.74946,0.39443 -0.74946,0.88102 l 0,5.5056 c 0,0.4866 0.33553,0.88102 0.74946,0.88102 l 5.1518,0 c 0.41393,0 0.74946,-0.39442 0.74946,-0.88102 l 0,-5.5056 c 0,-0.48659 -0.33553,-0.88102 -0.74946,-0.88102" />
        <path
           style="fill:#939598"
           inkscape:connector-curvature="0"
           id="path988"
           d="m 178.9,284.21 5.1521,0 0,4.9551 -5.1521,0 0,-4.9551 z" />
      </g>
      <g
         style="fill:#231f20"
         id="g94">
        <path
           inkscape:connector-curvature="0"
           id="path990"
           d="m 179.65,285.09 3.6533,0 0,3.1936 -3.6533,0 0,-3.1936 z m 4.4028,-1.7615 -5.1522,0 c -0.41393,0 -0.74946,0.39393 -0.74946,0.88052 l 0,4.9551 c 0,0.4866 0.33553,0.88102 0.74946,0.88102 l 5.1522,0 c 0.41393,0 0.74903,-0.39442 0.74903,-0.88102 l 0,-4.9551 c 0,-0.48659 -0.3351,-0.88052 -0.74903,-0.88052" />
        <path
           inkscape:connector-curvature="0"
           id="path992"
           d="m 181.71,247.54 17.329,0 0,1.762 -17.329,0 0,-1.762 z" />
        <path
           inkscape:connector-curvature="0"
           id="path994"
           d="m 203.25,247.54 7.4938,0 0,1.762 -7.4938,0 0,-1.762 z" />
        <path
           inkscape:connector-curvature="0"
           id="path996"
           d="m 181.71,241.49 36.532,0 0,1.762 -36.532,0 0,-1.762 z" />
        <path
           inkscape:connector-curvature="0"
           id="path998"
           d="m 276.78,298.75 4.2152,0 0,1.7616 -4.2152,0 0,-1.7616 z" />
        <path
           inkscape:connector-curvature="0"
           id="path1000"
           d="m 286.15,298.75 4.2152,0 0,1.7616 -4.2152,0 0,-1.7616 z" />
        <path
           inkscape:connector-curvature="0"
           id="path1002"
           d="m 295.99,298.75 4.2152,0 0,1.7616 -4.2152,0 0,-1.7616 z" />
      </g>
      <g
         id="g103">
        <path
           style="fill:#ffffff"
           inkscape:connector-curvature="0"
           id="path1004"
           d="m 296.92,251.73 34.658,0 0,32.483 -34.658,0 0,-32.483 z" />
        <path
           style="fill:#231f20"
           inkscape:connector-curvature="0"
           id="path1006"
           d="m 297.67,252.61 33.159,0 0,30.722 -33.159,0 0,-30.722 z m 33.909,-1.762 -34.658,0 c -0.41393,0 -0.74904,0.39442 -0.74904,0.88102 l 0,32.483 c 0,0.4866 0.33511,0.88102 0.74904,0.88102 l 34.658,0 c 0.41393,0 0.74903,-0.39442 0.74903,-0.88102 l 0,-32.483 c 0,-0.4866 -0.3351,-0.88102 -0.74903,-0.88102" />
        <path
           style="fill:#18affe"
           inkscape:connector-curvature="0"
           id="path1008"
           d="m 299.73,255.03 29.506,0 0,25.326 -29.506,0 0,-25.326 z" />
        <path
           style="fill:#231f20"
           inkscape:connector-curvature="0"
           id="path1010"
           d="m 323.09,262.38 -11.474,7.7711 -11.73,-7.1611 -0.69086,1.5638 12.094,7.3831 c 0.2272,0.13824 0.49782,0.13131 0.71953,-0.0188 l 11.829,-8.0114 -0.74819,-1.5267" />
        <path
           style="fill:#231f20"
           inkscape:connector-curvature="0"
           id="path1012"
           d="m 328.41,265.83 -5.5349,4.2198 -3.9656,-4.139 -0.9952,1.3171 4.3922,4.5845 c 0.2525,0.26312 0.62385,0.29582 0.905,0.0808 l 6.0138,-4.585 -0.81522,-1.4781" />
      </g>
      <g
         style="fill:#ffffff"
         id="g110">
        <path
           inkscape:connector-curvature="0"
           id="path1014"
           d="m 319.59,275.64 c 0,-1.7799 -1.227,-3.2213 -2.7403,-3.2213 -1.5141,0 -2.7416,1.4414 -2.7416,3.2213 0,1.7784 1.2275,3.2203 2.7416,3.2203 1.5132,0 2.7403,-1.4419 2.7403,-3.2203" />
        <path
           inkscape:connector-curvature="0"
           id="path1016"
           d="m 270.69,279.26 22.95,0 0,5.5062 -22.95,0 0,-5.5062 z" />
        <path
           inkscape:connector-curvature="0"
           id="path1018"
           d="m 270.69,263.84 22.95,0 0,12.663 -22.95,0 0,-12.663 z" />
      </g>
      <g
         style="fill:#231f20"
         id="g115">
        <path
           inkscape:connector-curvature="0"
           id="path1020"
           d="m 276.78,281.13 14.987,0 0,1.762 -14.987,0 0,-1.762 z" />
        <path
           inkscape:connector-curvature="0"
           id="path1022"
           d="m 273.04,271.77 18.734,0 0,1.762 -18.734,0 0,-1.762 z" />
        <path
           inkscape:connector-curvature="0"
           id="path1024"
           d="m 273.04,266.81 18.734,0 0,1.762 -18.734,0 0,-1.762 z" />
      </g>
      <g
         id="g120">
        <path
           style="fill:#e6e7e8"
           inkscape:connector-curvature="0"
           id="path1026"
           d="m 331.58,203.79 0,5.2866 c 0.4683,0.30424 1.6456,0.70313 2.4166,1.1862 l 3.1711,-3.7381 c 0.30223,-0.35577 0.78908,-0.35577 1.0888,0 l 4.5541,5.358 c 0.30054,0.3538 0.29886,0.92859 -0.003,1.2814 l -3.1803,3.4765 c 0.41182,0.90679 0.75072,2.0484 1.0091,2.599 l 4.4984,0 c 0.42573,0 0.4957,0.93354 0.4957,1.437 l 0,7.5739 c 0,0.50195 -0.07,1.4499 -0.4957,1.4499 l -4.4984,0 c -0.25839,1.1015 -0.59729,1.6862 -1.0091,2.5915 l 3.1803,3.6048 c 0.30139,0.35429 0.30139,0.85872 0,1.2155 l -4.5587,5.3208 c -0.30055,0.35678 -0.78824,0.34042 -1.0896,-0.0169 l -3.1626,-3.7456 c -0.77096,0.48312 -1.9482,0.87259 -2.4166,1.1813 l 0,5.2856 c 0,0.49997 -0.38147,1.0802 -0.80889,1.0802 l -6.4458,0 c -0.42489,0 -1.1756,-0.58025 -1.1756,-1.0802 l 0,-5.2856 c -0.93703,-0.30871 -1.4627,-0.7071 -2.2294,-1.1902 l -3.0817,3.7376 c -0.30054,0.35677 -0.7406,0.35677 -1.0416,0 l -4.5338,-5.355 c -0.30097,-0.35627 -0.28832,-0.92958 0.0135,-1.2844 l 3.1888,-3.4681 c -0.41099,-0.90531 -0.74609,-1.49 -1.0053,-2.5915 l -4.4955,0 c -0.427,0 -0.8658,-0.94791 -0.8658,-1.4499 l 0,-7.5739 c 0,-0.50344 0.4388,-1.437 0.8658,-1.437 l 4.4955,0 c 0.25923,-0.55052 0.60066,-1.6922 1.0133,-2.599 l -3.185,-3.6098 c -0.30138,-0.35132 -0.30138,-0.8602 0,-1.215 l 4.56,-5.3243 c 0.30012,-0.35528 0.79119,-0.34041 1.0905,0.0169 l 2.9814,3.7466 c 0.76675,-0.48411 1.2924,-0.87408 2.2294,-1.1783 l 0,-5.2866 c 0,-0.50196 0.75072,-0.51682 1.1756,-0.51682 l 6.4458,0 c 0.42742,0 0.80889,0.0149 0.80889,0.51682" />
        <path
           style="fill:#231f20"
           inkscape:connector-curvature="0"
           id="path1028"
           d="m 323.9,204.18 c 0.0969,-0.0109 0.23353,-0.0183 0.42658,-0.0183 l 6.5053,0 0,4.9224 c 0,0.32109 0.14838,0.61592 0.38653,0.77102 0.2605,0.16947 0.63439,0.33348 1.0677,0.52425 0.45946,0.20167 0.98045,0.43109 1.359,0.66795 0.29211,0.18334 0.6504,0.11942 0.8835,-0.1551 l 3.1711,-3.7381 4.5823,5.359 -3.1639,3.4899 c -0.2487,0.27253 -0.31024,0.70709 -0.15049,1.0599 0.20781,0.45785 0.4034,1.0019 0.57664,1.4821 0.16144,0.44893 0.30054,0.83642 0.43711,1.1278 0.13236,0.28095 0.38316,0.45537 0.65631,0.45537 l 4.2063,0 c 0.0206,0.12933 0.0388,0.31713 0.0388,0.55597 l 0,7.5739 c 0,0.24527 -0.019,0.43704 -0.0405,0.56933 l -4.2046,0 c -0.33722,0 -0.6327,0.26461 -0.72206,0.64665 -0.18463,0.78538 -0.41646,1.2769 -0.70984,1.8998 -0.0767,0.16203 -0.15554,0.33001 -0.23816,0.51037 -0.15764,0.34785 -0.10031,0.77647 0.14121,1.0495 l 3.1555,3.5771 -4.5418,5.305 -3.1926,-3.7585 c -0.23311,-0.2755 -0.59224,-0.34041 -0.88477,-0.15658 -0.37346,0.23438 -0.8894,0.45884 -1.3442,0.65754 -0.44006,0.19226 -0.82069,0.35776 -1.0862,0.53267 -0.23647,0.1556 -0.38274,0.44944 -0.38274,0.76855 l 0,5.2856 c -0.002,0.054 -0.0561,0.15807 -0.10074,0.1992 l -6.4045,0 c -0.10243,-0.0153 -0.33637,-0.18433 -0.42658,-0.30722 l 0,-5.1776 c 0,-0.39493 -0.22382,-0.74179 -0.54712,-0.84832 -0.69804,-0.23041 -1.1423,-0.51682 -1.705,-0.88003 l -0.3722,-0.23834 c -0.29548,-0.18532 -0.6601,-0.11842 -0.89193,0.16352 l -3.0817,3.7371 -4.5069,-5.3629 3.1808,-3.4844 c 0.24996,-0.27153 0.31235,-0.70808 0.15175,-1.0614 -0.0793,-0.17541 -0.15638,-0.33943 -0.23057,-0.49699 -0.29422,-0.62733 -0.52732,-1.1218 -0.71321,-1.9142 -0.0898,-0.38203 -0.38527,-0.64615 -0.72248,-0.64615 l -4.3762,0 c -0.10116,-0.13032 -0.22846,-0.43059 -0.23562,-0.5738 l 0,-7.5694 c 0.007,-0.13627 0.13277,-0.42911 0.23267,-0.55597 l 4.3791,0 c 0.27272,0 0.52395,-0.17392 0.65589,-0.45488 0.13699,-0.29086 0.27693,-0.67835 0.43921,-1.1268 0.17325,-0.48015 0.37052,-1.0247 0.57917,-1.4826 0.15765,-0.34785 0.10032,-0.77596 -0.14079,-1.05 l -3.1601,-3.582 4.5431,-5.3074 2.9961,3.7396 c 0.23268,0.29136 0.60319,0.36321 0.90205,0.17442 l 0.33089,-0.21159 c 0.59772,-0.38401 1.0289,-0.6615 1.7434,-0.8934 0.32499,-0.10555 0.54965,-0.4529 0.54965,-0.84931 l 0,-4.9041 z m 6.8724,-1.7804 -6.4458,0 c -1.2772,0 -1.9251,0.47024 -1.9251,1.3978 l 0,4.641 c -0.50961,0.21357 -0.90879,0.45587 -1.329,0.72444 l -2.5847,-3.2486 c -0.59897,-0.71403 -1.6005,-0.70858 -2.1695,-0.0362 l -4.5566,5.3198 c -0.29,0.3419 -0.44807,0.78093 -0.44722,1.2388 10e-4,0.45587 0.16017,0.89192 0.44807,1.2274 l 2.7972,3.1703 c -0.13826,0.34785 -0.26556,0.69916 -0.38274,1.0232 -0.0645,0.17838 -0.1273,0.35231 -0.18589,0.50839 l -4.0251,0 c -0.98593,0 -1.6148,1.5222 -1.6148,2.318 l 0,7.5739 c 0,0.80025 0.6289,2.3309 1.6148,2.3309 l 3.9484,0 c 0.18378,0.5961 0.39412,1.0599 0.61457,1.5306 l -2.7597,3.0013 c -0.61583,0.72345 -0.623,1.8572 -0.0367,2.5519 l 4.5347,5.3555 c 0.572,0.67835 1.531,0.68033 2.1055,-0.002 l 2.6901,-3.2629 c 0.41267,0.2651 0.82112,0.51732 1.3388,0.73832 l 0,4.6434 c 0,1.0827 1.1651,1.9612 1.9251,1.9612 l 6.4458,0 c 0.89192,0 1.5579,-1.0356 1.5579,-1.9612 l 0,-4.7168 c 0.1509,-0.0699 0.32288,-0.14469 0.49149,-0.21802 0.32667,-0.14271 0.68202,-0.29731 1.0184,-0.46876 l 2.7883,3.3026 c 0.57832,0.68529 1.582,0.69471 2.1544,0.0163 l 4.5536,-5.3154 c 0.5973,-0.70758 0.59687,-1.765 0.002,-2.4637 l -2.7774,-3.1485 c 0.2234,-0.47569 0.43753,-0.94197 0.62384,-1.544 l 3.9509,0 c 0.37431,0 1.2447,-0.22695 1.2447,-2.3309 l 0,-7.5739 c 0,-2.092 -0.87043,-2.318 -1.2447,-2.318 l -4.0268,0 c -0.0586,-0.15559 -0.12098,-0.32902 -0.18505,-0.50691 -0.11549,-0.32108 -0.24026,-0.66894 -0.37641,-1.0128 l 2.7715,-3.0296 c 0.30645,-0.35727 0.46536,-0.8062 0.46662,-1.2849 4.3e-4,-0.47767 -0.15723,-0.9266 -0.44386,-1.264 l -4.5541,-5.3584 c -0.56863,-0.67389 -1.5714,-0.67836 -2.1493,-5e-4 l -2.7972,3.2981 c -0.33974,-0.17442 -0.69972,-0.33248 -1.0306,-0.47816 -0.16481,-0.0724 -0.33257,-0.14568 -0.48053,-0.21456 l 0,-4.7168 c 0,-0.92759 -0.52436,-1.3978 -1.5579,-1.3978" />
        <path
           style="fill:#bcbec0"
           inkscape:connector-curvature="0"
           id="path1030"
           d="m 327.38,217.42 c -3.1926,0 -5.7811,3.0449 -5.7811,6.7974 0,3.7535 2.5885,6.7979 5.7811,6.7979 3.1947,0 5.7836,-3.0444 5.7836,-6.7979 0,-3.7525 -2.589,-6.7974 -5.7836,-6.7974" />
        <path
           style="fill:#18affe"
           inkscape:connector-curvature="0"
           id="path1032"
           d="m 335.8,347.53 -81.962,0 0,13.764 81.962,0 0,-13.764" />
        <path
           style="fill:#231f20"
           inkscape:connector-curvature="0"
           id="path1034"
           d="m 254.58,348.41 80.463,0 0,12.002 -80.463,0 0,-12.002 z m 81.213,-1.762 -81.962,0 c -0.41393,0 -0.74903,0.39443 -0.74903,0.88102 l 0,13.764 c 0,0.48659 0.3351,0.88101 0.74903,0.88101 l 81.962,0 c 0.41393,0 0.74904,-0.39442 0.74904,-0.88101 l 0,-13.764 c 0,-0.48659 -0.33511,-0.88102 -0.74904,-0.88102" />
        <path
           style="fill:#bcbec0"
           inkscape:connector-curvature="0"
           id="path1036"
           d="m 294.58,354.13 0,7.1572" />
        <path
           style="fill:#231f20"
           inkscape:connector-curvature="0"
           id="path1038"
           d="m 293.83,354.13 1.4985,0 0,7.1571 -1.4985,0 0,-7.1571 z" />
        <path
           style="fill:#bcbec0"
           inkscape:connector-curvature="0"
           id="path1040"
           d="m 303.95,354.13 0,7.1572" />
        <path
           style="fill:#231f20"
           inkscape:connector-curvature="0"
           id="path1042"
           d="m 303.2,354.13 1.498,0 0,7.1571 -1.498,0 0,-7.1571 z" />
        <path
           style="fill:#bcbec0"
           inkscape:connector-curvature="0"
           id="path1044"
           d="m 313.31,354.13 0,7.1572" />
        <path
           style="fill:#231f20"
           inkscape:connector-curvature="0"
           id="path1046"
           d="m 312.57,354.13 1.4985,0 0,7.1571 -1.4985,0 0,-7.1571 z" />
        <path
           style="fill:#bcbec0"
           inkscape:connector-curvature="0"
           id="path1048"
           d="m 322.68,354.13 0,7.1572" />
        <path
           style="fill:#231f20"
           inkscape:connector-curvature="0"
           id="path1050"
           d="m 321.93,354.13 1.4984,0 0,7.1571 -1.4984,0 0,-7.1571 z" />
        <path
           style="fill:#bcbec0"
           inkscape:connector-curvature="0"
           id="path1052"
           d="m 285.21,354.13 0,7.1572" />
        <path
           style="fill:#231f20"
           inkscape:connector-curvature="0"
           id="path1054"
           d="m 284.46,354.13 1.4985,0 0,7.1571 -1.4985,0 0,-7.1571 z" />
        <path
           style="fill:#bcbec0"
           inkscape:connector-curvature="0"
           id="path1056"
           d="m 275.85,354.13 0,7.1572" />
        <path
           style="fill:#231f20"
           inkscape:connector-curvature="0"
           id="path1058"
           d="m 275.1,354.13 1.4984,0 0,7.1571 -1.4984,0 0,-7.1571 z" />
        <path
           style="fill:#bcbec0"
           inkscape:connector-curvature="0"
           id="path1060"
           d="m 266.48,354.13 0,7.1572" />
        <path
           style="fill:#231f20"
           inkscape:connector-curvature="0"
           id="path1062"
           d="m 265.73,354.13 1.498,0 0,7.1571 -1.498,0 0,-7.1571 z" />
        <path
           style="fill:#f1f2f2"
           inkscape:connector-curvature="0"
           id="path1064"
           d="m 280.53,322.2 8.8991,0 0,40.191 -8.8991,0 0,-40.191 z" />
        <path
           style="fill:#231f20"
           inkscape:connector-curvature="0"
           id="path1066"
           d="m 284,321.1 1.4984,0 0,41.293 -1.4984,0 0,-41.293 z" />
        <path
           style="fill:#bcbec0"
           inkscape:connector-curvature="0"
           id="path1068"
           d="m 140.49,204.93 40.747,0" />
        <path
           style="fill:#231f20"
           inkscape:connector-curvature="0"
           id="path1070"
           d="m 140.49,204.05 40.747,0 0,1.7616 -40.747,0 0,-1.7616 z" />
        <path
           style="fill:#bcbec0"
           inkscape:connector-curvature="0"
           id="path1072"
           d="m 136.75,204.93 -6.5567,0" />
        <path
           style="fill:#231f20"
           inkscape:connector-curvature="0"
           id="path1074"
           d="m 130.19,204.05 6.5567,0 0,1.7616 -6.5567,0 0,-1.7616 z" />
        <path
           style="fill:#bcbec0"
           inkscape:connector-curvature="0"
           id="path1076"
           d="m 327.37,203.28 23.886,0" />
        <path
           style="fill:#231f20"
           inkscape:connector-curvature="0"
           id="path1078"
           d="m 327.37,202.4 23.886,0 0,1.762 -23.886,0 0,-1.762 z" />
        <path
           style="fill:#bcbec0"
           inkscape:connector-curvature="0"
           id="path1080"
           d="m 354.53,203.28 6.5571,0" />
        <path
           style="fill:#231f20"
           inkscape:connector-curvature="0"
           id="path1082"
           d="m 354.53,202.4 6.5572,0 0,1.762 -6.5572,0 0,-1.762 z" />
      </g>
    </g>
  </g>
</svg>
