<svg xmlns="http://www.w3.org/2000/svg" width="201.938" height="254.054" viewBox="0 0 151.93784 214.05409"><path d="M82 214.054c-38.627 0-69.94-5.885-69.94-13.145 0-5.03 15.025-9.4 37.1-11.61.135.24.202.332.202.332l.52-.403c9.62-.937 20.54-1.466 32.118-1.466 10.738 0 20.914.455 30.006 1.268 2.164 4.518 3.408 6.777 3.408 6.777s2.356-1.046 4.72-3.45c.797-.81 1.33-1.587 1.686-2.26 18.2 2.375 30.118 6.33 30.118 10.81 0 7.26-31.313 13.144-69.938 13.144" fill="#59abc3"/><path d="M115.284 191.787s1.795 3.294 2.396 3.864c.602.57 3.155 1.132 4.535-.525 1.38-1.656-.51-3.88-.51-3.88l-3.023-2.63-3.398 3.172" fill="#e3e3e3"/><path d="M117.034 194.86s-.132 3.017 1.364 5.27c1.496 2.252 2.968 3.275 5.24 2.58 2.273-.695 5.51-4.246 7.428-8.37 1.92-4.126 1.716-9.27 1.478-11.028-.237-1.758-1.236-3.74-2.744-3.613-1.507.126-2.216.61-2.578 1.78-.21.684-.245.768-.245.768s2.083 1.485 2.556 4.278c.473 2.793-3.152 6.7-4.464 7.57-1.312.87-3.14.95-4.62 1.13-1.742.21-3.416-.366-3.416-.366"/><path d="M126.98 182.212s-.367 1.602-1.023 3.535c-.656 1.932-1.366 3.372-2.868 3.807-1.502.435-2.262-.747-2.743-.257-.482.49-1.124 2.26-.616 3.723.508 1.46 1.386 2.403 3.836 2.286 2.45-.118 5.023-2.783 5.887-5.992.865-3.21.767-4.898-.43-6.27-.807-.924-2.043-.832-2.043-.832" fill="#4f4f4f"/><path d="M123.46 189.214l1.552-1.566s.725.49 1.438 1.796c1.15 2.107 1.012 4.257 1.012 4.257l-1.694 2.093s-.29-2.845-1.068-4.552c-.78-1.706-1.24-2.026-1.24-2.026"/><path d="M47.662 180.007c-.194.018-2.574 1.023-2.914 1.777-.34.755-1.797 4.74-1.846 5.872-.05 1.132 3.69-.484 4.857-1.023 1.165-.54 2.622-1.832 2.622-1.832s-1.603-4.9-2.72-4.793" fill="#e3e3e3"/><path d="M46.545 180.168s.194.647-.292 1.51c-.485.86-2.428 3.34-3.35 5.978-.924 2.64-1.7 6.842.145 8.566 1.845 1.724 4.03 1.455 5.245 1.293 1.214-.16 2.137-.377 2.137-.377s1.02.97.146 3.286c-.874 2.317-1.894 2.155-6.023 1.724-4.128-.43-5.585-1.24-6.605-5.603-1.02-4.363 1.41-10.56 2.623-13.36 1.215-2.8 2.283-4.04 3.546-3.987 1.263.054 1.603.162 2.43.97"/><path d="M50.43 197.138s-2.04-3.07-2.817-4.417c-.777-1.346-1.505-2.8-.243-3.986 1.263-1.185 1.797-1.347 1.07-2.855-.73-1.51-1.555-2.21-3.547-.81-1.99 1.4-3.788 4.31-3.74 6.896.05 2.586.438 5.98 4.372 6.25 3.934.27 4.905-1.078 4.905-1.078" fill="#4f4f4f"/><path d="M47.29 192.218s-.616-.503-2.915-.467c-2.3.037-3.497.863-3.497.863s-.097-1.473.033-2.155c.13-.682.422-1.22.422-1.22s1.003-.18 2.816.035c1.814.215 2.526.646 2.526.646l.615 2.298"/><path d="M23.976 120.1s.972-4.31 1.943-4.597c.97-.288 3.107 0 7.058.862 3.95.862 6.41 1.077 6.93 2.873.517 1.796-.973 5.747-.973 5.747l1.75.36s1.553-4.167.776-6.825c-.776-2.658-2.33-3.16-7.187-4.382-4.857-1.22-7.775-1.794-9.066-1.22-1.943.86-2.655 7.11-2.655 7.11l1.424.072" fill="#793522"/><path d="M40.116 165.37L4.303 154.6c-3.094-.93-4.94-4.5-4.1-7.93l6.1-24.958c.838-3.432 4.056-5.48 7.15-4.548l35.813 10.77c3.094.93 4.94 4.5 4.1 7.93l-6.1 24.958c-.84 3.432-4.056 5.48-7.15 4.548" fill="#793522"/><path d="M1.854 139.91l4.45-18.198-4.45 18.198m4.45-18.198l.014-.06-.015.06m.025-.1c.73-2.814 3.07-4.67 5.605-4.673-2.534 0-4.874 1.858-5.605 4.672m5.61-4.673" fill="#6f7e7e"/><path d="M48.918 154.063l-20.782-6.25.84-3.43c.167-.687-.202-1.4-.82-1.587l-3.626-1.09c-.1-.03-.203-.046-.303-.046-.513 0-.987.38-1.127.955l-.84 3.432-20.406-6.137 4.45-18.198.014-.06.01-.04c.73-2.814 3.07-4.67 5.605-4.673h.004c.502 0 1.01.072 1.516.224l35.813 10.77c2.586.777 4.3 3.4 4.303 6.242 0 .56-.066 1.125-.204 1.69l-4.448 18.197" fill="#592013"/><path d="M44.748 151.358L6.31 139.798c-3.094-.93-4.94-4.498-4.1-7.93l2.694-11.023c.84-3.432 4.057-5.48 7.15-4.548l38.44 11.56c3.093.93 4.938 4.498 4.1 7.93l-2.695 11.023c-.84 3.432-4.058 5.478-7.152 4.548" fill="#793522"/><path d="M26.07 151.323l-3.624-1.09c-.62-.186-.988-.9-.82-1.586l1.474-6.032c.168-.686.81-1.095 1.43-.91l3.625 1.09c.62.187.988.9.82 1.587l-1.474 6.03c-.167.688-.81 1.097-1.43.91" fill="#fbe136"/><path d="M27.802 147.602l-5.28-1.59.126-.518 5.282 1.588-.128.52" fill="#fba628"/><path d="M76.69 116.22s-2.98 8.19-2.203 11.925c.777 3.735 1.684 4.597 1.814 7.327.13 2.73-1.683 19.97-1.813 21.405-.13 1.437-9.325 10.2-14.894 14.366-5.57 4.166-12.822 7.327-12.822 7.327s0 5.17 1.037 7.757c1.036 2.587 1.555 3.305 1.555 3.305s20.722-15.947 27.198-22.267c6.475-6.322 7.512-6.322 7.9-9.913.39-3.592.777-16.81.777-20.975 0-4.166 1.166-10.63 3.11-8.907 1.94 1.724 9.842 29.45 16.318 44.966 6.475 15.515 10.75 23.273 10.75 23.273s2.355-1.046 4.72-3.45c2.33-2.37 2.403-4.452 2.403-4.452s-7.455-13.433-12.377-24.926c-4.92-11.493-11.97-35.412-13.396-40.01-1.425-4.596-2.72-9.624-2.72-9.624s-4.015 3.16-8.418 3.017c-4.404-.144-8.937-.144-8.937-.144" fill="#111b45"/><path d="M33.334 109.757s-.534 1.454-.777 1.454-.97-.645-1.554 0c-.583.648-2.963 5.335-2.43 6.304.536.97.778 1.078 1.167 1.132.39.054.826-.593.826-.593s-.34 1.078.243 1.455c.58.377 1.383.727 1.674.565.29-.162.656-.727.656-.727s-.097.916.777 1.077c.874.162 1.287.162 1.48-.053.195-.216.414-.862.414-.862s-.072.862.657 1.023c.728.163 1.433-.053 1.675-1.076.243-1.024.535-5.818.34-6.088-.194-.27-1.505-.43-1.505-.43l.194-.863-3.836-2.316M121.41 75.477s.745-.862 1.005-1.868c.23-.898.356-2.3-.39-3.915-.588-1.28-1.877-3.735-1.035-4.238.842-.503 1.878.574 2.655 2.298.777 1.724 1.36 2.37 1.684 2.155.322-.215 2.136-3.663 3.95-5.1 1.812-1.436 3.496-2.442 4.532-1.867 1.036.574.712 1.796 0 2.37-.712.575-1.75.718-3.044 1.867-1.295 1.15-2.072 2.3-1.49 2.443.584.143 3.19-1.877 4.94-2.74 1.747-.86 3.026-.708 3.544.154.518.862-.47 1.68-1.506 1.895-1.036.215-3.4.808-4.905 1.984-.645.505-1.36 1.58-.517 1.508.842-.072 3.666-1.687 6.087-1.58 1.46.064 1.688.863 1.425 1.58-.39 1.06-3.117.782-4.25.98-1.072.186-2.938.852-2.68 1.426.26.575 4.08-1.04 4.922.252.842 1.293-.906 1.975-3.108 2.047-2.203.07-4.47 2.333-5.894 2.764-1.425.43-2.525.144-3.108-.646-.583-.79-2.817-3.77-2.817-3.77" fill="#f6c29e"/><path d="M71.606 77.972c-.292.108-2.914.97-5.634 2.37-2.72 1.4-9.034 3.664-14.96 4.74-5.924 1.078-9.42 4.85-11.753 8.513-2.332 3.663-5.15 12.283-5.15 12.283s2.818 2.047 3.692 2.37c.875.323 2.332-4.202 3.206-6.25.874-2.046 3.95-7.433 8.612-9.696 4.663-2.263 10.135-2.694 13.146-3.77 3.012-1.08 5.44-2.372 6.8-1.725 1.36.646 4.34 2.335 5.537 5.495 1.347 3.553 2.234 10.56 2.622 13.468.39 2.91.065 10.38.065 10.38s5.8 1.42 8.613 1.15c4.468-.432 8.677-1.438 8.677-1.438s-.647-11.493-1.716-17.31c-1.068-5.82-3.594-13.47-3.594-13.47s8.646 7.435 18.165 7.866c9.52.43 13.696-6.895 14.57-8.296.875-1.4 1.07-2.37 1.07-2.37s-1.167-1.832-1.944-3.125c-.776-1.293-1.164-3.125-1.164-3.125s-5.15 8.943-9.13 10.56c-3.984 1.616-8.55.43-12.92-1.94-4.372-2.37-11.948-6.896-13.308-7.434-1.36-.54-6.314 2.154-8.257 2.154-1.94 0-5.244-1.4-5.244-1.4" fill="#59abc3"/><path d="M74.085 126.588s.16-.526.378-1.556c-.05.437-.084.863-.098 1.27l-.28.286" fill="#8bc1ce"/><path d="M74.365 126.3c.014-.405.048-.83.098-1.268.09-.425.19-.936.29-1.53 2.305-2.148 5.29-4.966 6.275-6.06.168-.186.323-.366.467-.538.485.082.988.16 1.49.226-.044.055-.09.11-.135.168-1.404 1.73-7.146 7.63-8.485 9.003" fill="#10193f"/><path d="M82.984 117.13c-.5-.066-1.004-.144-1.49-.226 1.292-1.547 1.606-2.48 1.606-2.48s1.814-6.248 2.202-12.64c.39-6.394 0-9.554-.907-13.002-.278-1.057-.77-2.245-1.2-3.176.114.005.164.016.164.016s0-3.087-.165-4.576c.047.052.093.104.138.157.204 1.567.33 4.182.33 4.182s-.044-.006-.133-.006h-.033c.472.904 1.022 2.06 1.35 3.1 1.07 3.39 1.608 6.523 1.525 12.93-.083 6.407-1.596 12.754-1.596 12.754s-.315 1.103-1.792 2.966" fill="#ebebeb"/><path d="M74.13 67.898s1.167 3.286 1.507 5.225c.34 1.94 0 3.287 0 3.287l4.03 3.824 1.555-4.633s-.63-1.615-.825-2.315c-.195-.7-.292-.97-.292-.97s1.263-.646 1.07-1.67c-.195-1.023-1.458-.754-1.458-.754s-.534-1.615-.73-2.37c-.193-.754-4.564.485-4.564.485l-.292-.107" fill="#f6c29e"/><path d="M74.13 67.898s1.167 3.286 1.507 5.225c.34 1.94 0 3.287 0 3.287l4.03 3.824 1.555-4.633s-.63-1.615-.825-2.315c-.195-.7-.292-.97-.292-.97s1.263-.646 1.07-1.67c-.195-1.023-1.458-.754-1.458-.754s-.534-1.615-.73-2.37c-.193-.754-4.564.485-4.564.485l-.292-.107" fill="#f6c29e"/><path d="M75.61 72.98c-.205-1.08-.635-2.522-.98-3.593.345 1.07.777 2.512.98 3.593" fill="#93aca0"/><path d="M79.488 73.284c-1.285 0-2.582-.106-3.877-.304-.204-1.08-.635-2.522-.98-3.593 1.602-.066 3.2-.228 4.77-.482.168.536.317.986.317.986s.15-.03.355-.03c.388 0 .974.115 1.102.785.014.074.02.146.02.216-.002.9-1.09 1.455-1.09 1.455s.097.266.287.95c-.3.013-.6.02-.902.02" fill="#f09f71"/><path d="M80.704 85.263s.324 9.984-1.1 15.443c-1.425 5.46-6.088 10.344-6.088 10.344s.39 4.668-.26 8.835c-.646 4.166-1.424 6.32-1.424 6.32s7.512-6.895 9.196-8.763c1.684-1.867 2.072-3.017 2.072-3.017s1.814-6.25 2.202-12.64c.39-6.395 0-9.555-.907-13.003-.562-2.14-2.007-4.813-2.007-4.813l-1.684 1.293" fill="#fe413f"/><path d="M80.734 87.16c-.002-.434-.007-.81-.012-1.107.005.298.01.672.012 1.108" fill="#fe413f"/><path d="M80.734 87.16c-.002-.435-.007-.81-.012-1.107l.112.143s.518-.36 1.36-.503c.42-.07.712-.09.898-.09h.05c.142.294.297.61.46.935-.14-.01-.274-.013-.404-.013-.914 0-1.63.2-2.464.636" fill="#fd1110"/><path d="M80.316 78.295s-1.555.43-2.267 1.006c-.713.575-.972 2.084-.972 2.084l3.756 4.812s.518-.36 1.36-.503c.84-.143 1.165-.07 1.165-.07s0-3.45-.195-4.814c-.194-1.366-.712-2.3-.712-2.3l-2.137-.215" fill="#fe413f"/><path d="M76.85 79.372c-1.94 0-5.244-1.4-5.244-1.4-.023.008-.06.02-.11.04l.984-1.064 5.026 1.235.915.868-.058.036c-.592.174-1.114.287-1.51.287" fill="#8bc1ce"/><path d="M77.483 84.92s-1.895-1.615-3.45-2.908c-1.2-.998-3.398-3.07-3.398-3.07l.86-.93c.05-.02.088-.032.11-.04 0 0 3.304 1.4 5.246 1.4.398 0 .92-.112 1.512-.286-.115.068-.22.14-.313.214-.713.575-.972 2.084-.972 2.084l.768.984c-.035.14-.07.286-.105.434-.214.94-.257 2.12-.257 2.12" fill="#ebebeb"/><path d="M78.42 79.05l-.914-.867 1.774.435s-.01.013-.024.04c-.28.11-.577.245-.835.393" fill="#e3b392"/><path d="M77.846 82.368l-.768-.984s.26-1.51.97-2.083c.093-.074.2-.146.314-.214l.06-.035c.257-.147.553-.28.834-.392-.138.23-.85 1.494-1.41 3.71" fill="#ea3c3a"/><path d="M80.73 78.266l-.396-.017.533-1.588.938-1.168s1.797.538 1.943.592c.004.002.01.002.02.002.262 0 2.408-.81 2.408-.81s-.04.74-.328 2.294c-.325-.17-.577-.29-.74-.355-.124-.05-.277-.07-.455-.07-.894 0-2.41.56-3.924 1.118" fill="#8bc1ce"/><path d="M84.622 82.874s-.217-.293-1.068-1.4c-.072-.093-.145-.184-.22-.27-.03-.232-.062-.44-.095-.614-.26-1.35-.822-2.253-.822-2.253l-1.69-.07c1.514-.56 3.03-1.12 3.925-1.12.178 0 .33.02.455.07.163.065.415.187.74.355-.033.177-.07.364-.11.56-.17.85-1.116 4.742-1.116 4.742" fill="#ebebeb"/><path d="M80.578 78.32l-.26-.025.016-.046.395.016-.152.055" fill="#81b2be"/><path d="M83.333 81.203c-.045-.053-.09-.105-.138-.157l-.03-.237c-.194-1.366-.712-2.3-.712-2.3l-1.875-.19.15-.054 1.69.07s.56.903.82 2.254c.034.174.065.382.095.613" fill="#d9d9d9"/><path d="M79.33 78.63l-.034-.012 1.57-1.956-.532 1.587-.015.045h-.004s-.456.126-.987.334" fill="#e3b392"/><path d="M83.195 81.046c-1.487-1.624-3.58-2.326-3.866-2.417.53-.21.986-.335.986-.335h.003l.258.026 1.875.19s.518.934.712 2.3l.03.236" fill="#ea3c3a"/><path d="M50.042 48.557s-4.274-.107-4.857 3.448c-.583 3.556 1.177 7.198 4.08 6.68 2.816-.503 3.108-1.616 3.108-1.616s2.33 9.05 12.336 11.42c10.004 2.37 22.243.108 29.237-5.603 6.994-5.71.212-8.677-2.234-10.882-3.108-2.8-7.188-10.45-8.645-14.33C81.61 33.795 79.57 24.1 79.57 24.1s-10.198-1.294-16.804 1.508c-6.605 2.8-12.724 11.313-13.307 14.545-.584 3.233.582 8.404.582 8.404" fill="#f6c29e"/><path d="M49.662 57.255c-.238 0-.708-.037-1.077-.294-.52-.358-2.137-2.656-1.555-4.596.524-1.74 1.867-2.32 2.806-2.32.106 0 .208.008.303.022.668.1 1.94.898 2.136 1.83.194.935-.13 2.192-.972 2.695-.218.13-.4.18-.553.18-.434 0-.61-.394-.61-.394s1.1-.216 1.294-1.222c.187-.97-1.136-1.943-1.985-1.943-.03 0-.06.003-.088.005-.842.072-1.943 1.652-1.425 3.376.518 1.725 1.878 2.66 1.878 2.66s-.058.005-.153.005" fill="#ed9361"/><path d="M50.01 28.588s-1.167-11.205 5.698-14.653c6.864-3.448 12.045-2.442 12.045-2.442s.13-6.32 6.734-8.045c6.606-1.724 8.03.574 11.268-.288C88.993 2.298 89.64 0 89.64 0s.52 9.194-1.942 16.52c-2.46 7.327-7.253 10.344-17.355 10.775-10.102.43-11.786 5.316-11.786 5.316L50.01 28.59M57.91 33.33l-8.42-3.88s-4.273-.862-6.734 2.874c-2.46 3.735.907 6.32.907 6.32s-2.59-.718-3.238 3.45c-.648 4.164 3.756 5.745 6.087 6.463 2.33.718 4.792 2.155 5.828 5.316.452 1.377.26 1.436.26 1.436l1.683-.288s3.14-3.987 4.21-10.56c.836-5.145-.583-11.133-.583-11.133"/><path d="M63.887 56.966s6.773 1.265 14.525-2.076c7.558-3.26 8.29-5.698 8.29-5.698s2.066 7.494-5.207 11.172c-7.273 3.678-17.608-3.398-17.608-3.398" fill="#fff"/><path d="M77.11 51.607c-1.868 0-2.088-1.955-2.088-1.955s.582.773 1.31 1.096c.212.094.457.145.73.145.67 0 1.504-.312 2.38-1.078 1.702-1.49 1.748-4.526 1.748-4.526l-.437.268c-.24.148-.972.424-1.88.424-.754 0-1.628-.19-2.443-.8-1.797-1.347-4.08-6.196-4.08-6.196s.89 1.024 1.328 1.777c.437.755 1.62 3.017 4.063 4.364.347.19.742.265 1.15.265 1.423 0 2.98-.91 2.98-.91s.513 1.64.048 3.07c-.663 2.047-2.38 3.824-4.517 4.04-.1.01-.197.015-.29.015" fill="#ed9361"/><path d="M66.443 42.86c2.555-1.357 4.353 1.277 4.353 1.277s-.863-3.59-4.353-2.314c-3.306 1.21-1.763 4.868-1.763 4.868s-.418-2.67 1.763-3.83M78.32 39.087c2.197-1.167 3.744 1.098 3.744 1.098s-.743-3.09-3.744-1.99c-2.843 1.04-1.516 4.186-1.516 4.186s-.36-2.297 1.516-3.293"/><path d="M79.28 78.654s-1.1.575-1.88 2.083c-.776 1.508-.84 2.873-.84 2.873s-.907-1.508-2.655-2.658c-1.75-1.15-3.303-2.082-3.303-2.082s.26-1.22.907-2.586c.646-1.365 1.423-2.37 1.423-2.37s1.554.79 3.238 2.01c1.685 1.222 3.11 2.73 3.11 2.73M81.417 72.764l-2.137 5.89s1.947.167 3.4.934c1.02.54 1.65 1.724 1.65 1.724l1.88-6.034s-1.005-1.023-2.527-1.724c-1.344-.618-2.266-.79-2.266-.79" fill="#fff"/><path d="M123.352 82.982c.053-.137.094-.256.126-.356l.023.033-.148.322m-3.873-5.338l-.002-.005c.468-.75.745-1.25.745-1.25l.007.04c-.17.282-.426.702-.75 1.214" fill="#8bc1ce"/><path d="M122.934 83.898c-1.537-1.616-2.736-3.984-3.455-6.254.324-.512.58-.932.75-1.215.058.265.423 1.868 1.134 3.05.718 1.194 1.932 2.893 2.114 3.146-.032.1-.073.22-.126.356-.102.222-.25.544-.418.916M37.894 108.265c-.03 0-.062-.006-.092-.017-.874-.323-3.69-2.37-3.69-2.37v-.002c.007-.023.1-.302.255-.76 1.31 1.138 2.872 1.578 4.298 2.396-.28.463-.542.753-.77.753" fill="#ebebeb"/><path d="M33.917 105.447s.97.862 2.266 1.616c1.295.754 2.364 1.113 2.364 1.113s-.583 3.843-.842 4.095c-.26.252-2.59-.61-3.788-1.257-1.198-.646-1.813-1.4-1.878-1.724-.066-.324 1.683-3.664 1.877-3.843" fill="#fff"/><path d="M34.176 107.96c0 .3-.218.54-.486.54s-.486-.24-.486-.54c0-.297.218-.538.486-.538s.486.24.486.54" fill="#111b45"/><path d="M119.858 76.535s.473 1.8 1.433 3.726c.98 1.968 2.098 3.207 2.098 3.207l2.104-3.286s-1.19-1.48-2.112-3.26c-.55-1.057-1.433-2.962-1.433-2.962l-2.09 2.577" fill="#fff"/></svg>
