<?xml version="1.0" encoding="UTF-8" standalone="no"?>
<!-- Created with Inkscape (http://www.inkscape.org/) -->
<svg id="svg2" xmlns:rdf="http://www.w3.org/1999/02/22-rdf-syntax-ns#" xmlns="http://www.w3.org/2000/svg" xml:space="preserve" height="300" viewBox="0 0 1104 300" width="1104" version="1.1" xmlns:cc="http://creativecommons.org/ns#" xmlns:dc="http://purl.org/dc/elements/1.1/"><metadata id="metadata8"><rdf:RDF><cc:Work rdf:about=""><dc:format>image/svg+xml</dc:format><dc:type rdf:resource="http://purl.org/dc/dcmitype/StillImage"/><dc:title/></cc:Work></rdf:RDF></metadata><defs id="defs6"><clipPath id="clipPath922" clipPathUnits="userSpaceOnUse"><path id="path924" d="m8038.2 8609.7h-1659.8c-14.48 47.97-63.67 77.78-118.25 77.78h-610.79v277.78h2388.9v-355.56"/></clipPath></defs><g id="g10" transform="matrix(1.25,0,0,-1.25,0,300)"><g id="g5865" transform="matrix(1.3579 0 0 1.2874 100.87 -251.4)"><g><path id="path856" d="m331.11 331.56h4.6839v20.371h-4.6839v-20.371z" fill="#a7a9ac"/><path id="path858" d="m311.91 331.56h4.6834v20.371h-4.6834v-20.371z" fill="#a7a9ac"/><path id="path860" d="m316.59 351.94 14.519-20.568" fill="#bcbec0"/><path id="path862" d="m330.54 330.81-14.519 20.568 1.1533 1.1248 14.519-20.568-1.1537-1.1248" fill="#231f20"/><path id="path864" d="m316.59 331.37 14.519 20.568" fill="#bcbec0"/><path id="path866" d="m317.17 330.81-1.1533 1.1248 14.519 20.568 1.1537-1.1248-14.519-20.568" fill="#231f20"/><path id="path868" d="m170 291.37h13.114v25.877h-13.114v-25.877z" fill="#bcbec0"/><path id="path870" d="m165.78 317.24h21.076v7.7081h-21.076v-7.7081z" fill="#d1d3d4"/></g><g fill="#231f20"><path id="path872" d="m166.53 318.13h19.577v5.9461h-19.577v-5.9461zm20.326-1.762h-21.076c-0.41393 0-0.74946 0.39443-0.74946 0.88102v7.7082c0 0.48659 0.33553 0.88102 0.74946 0.88102h21.076c0.41393 0 0.74946-0.39443 0.74946-0.88102v-7.7082c0-0.48659-0.33553-0.88102-0.74946-0.88102"/><path id="path874" d="m170 308.66h5.6205v1.7616h-5.6205v-1.7616z"/><path id="path876" d="m170 301.5h5.6205v1.762h-5.6205v-1.762z"/></g><g><path id="path878" d="m179.83 349.18h1.4766c0.91427 0 1.8016 1.1456 1.8016 2.2169v11.663c0 1.0748-0.88729 2.0861-1.8016 2.0861h-9.9187c-0.91301 0-1.3935-1.0113-1.3935-2.0861v-11.663c0-1.0713 0.48053-2.2169 1.3935-2.2169h0.94841v-24.225h7.4937v24.225" fill="#fff"/><path id="path880" d="m173.09 325.83h5.9948v23.344c0 0.4866 0.33552 0.88053 0.74945 0.88053h1.4766c0.48179 0 1.0521 0.72443 1.0521 1.3364v11.663c0 0.58569-0.5408 1.2051-1.0521 1.2051h-9.9187c-0.50919 0-0.64408-0.78836-0.64408-1.2051v-11.663c0-0.53862 0.20486-1.3364 0.64408-1.3364h0.94841c0.41393 0 0.74946-0.39393 0.74946-0.88053v-23.344zm6.7443-1.762h-7.4937c-0.41393 0-0.74946 0.39443-0.74946 0.88102v23.344h-0.19895c-1.3918 0-2.143 1.596-2.143 3.0979v11.663c0 1.7189 0.90121 2.9671 2.143 2.9671h9.9187c1.3354 0 2.551-1.4147 2.551-2.9671v-11.663c0-1.5926-1.2397-3.0979-2.551-3.0979h-0.72754v-23.344c0-0.48659-0.33511-0.88102-0.74904-0.88102" fill="#231f20"/><path id="path882" d="m202.87 334.31h4.1342c0 8.8087 7.503 14.817 7.503 14.817l-11.637 15.939-11.639-15.969s7.5034-5.9778 7.5034-14.787h4.1351" fill="#d1d3d4"/><path id="path884" d="m202.03 350.83h1.499v14.315h-1.499v-14.315z" fill="#231f20"/><path id="path886" d="m205.56 347.33c0-1.707-1.1773-3.091-2.6298-3.091-1.4521 0-2.6294 1.384-2.6294 3.091s1.1773 3.091 2.6294 3.091c1.4526 0 2.6298-1.384 2.6298-3.091" fill="#939598"/><path id="path888" d="m202.93 349.54c-1.0365 0-1.88-0.99151-1.88-2.2105 0-1.2185 0.84345-2.21 1.88-2.21 1.0369 0 1.8804 0.99151 1.8804 2.21 0 1.219-0.84345 2.2105-1.8804 2.2105zm0-6.1825c-1.8631 0-3.3784 1.7819-3.3784 3.972 0 2.1902 1.5154 3.972 3.3784 3.972 1.8631 0 3.3789-1.7819 3.3789-3.972 0-2.1902-1.5158-3.972-3.3789-3.972" fill="#231f20"/><path id="path890" d="m193.89 271h17.329v7.1572h-17.329v-7.1572z" fill="#f1f2f2"/><path id="path892" d="m194.63 271.88h15.83v5.3951h-15.83v-5.3951m16.58-1.762h-17.329c-0.41393 0-0.74946 0.39442-0.74946 0.88101v7.1572c0 0.48659 0.33553 0.88102 0.74946 0.88102h17.329c0.41393 0 0.74945-0.39443 0.74945-0.88102v-7.1572c0-0.48659-0.33552-0.88101-0.74945-0.88101" fill="#231f20"/><path id="path894" d="m211.21 328.81h-1.4049v5.5061h-14.519v-5.5061h-1.4049v-50.652h17.329v50.652" fill="#ffd248"/><path id="path896" d="m194.63 279.04h15.83v48.891h-0.65546c-0.41393 0-0.74946 0.39393-0.74946 0.88052v4.6251h-13.02v-4.6251c0-0.48659-0.33553-0.88052-0.74946-0.88052h-0.65546v-48.891m16.58-1.762h-17.329c-0.41393 0-0.74946 0.39442-0.74946 0.88102v50.652c0 0.48709 0.33553 0.88102 0.74946 0.88102h0.65547v4.6251c0 0.48659 0.33552 0.88102 0.74945 0.88102h14.519c0.41393 0 0.74945-0.39443 0.74945-0.88102v-4.6251h0.65547c0.41393 0 0.74945-0.39393 0.74945-0.88102v-50.652c0-0.4866-0.33552-0.88102-0.74945-0.88102" fill="#231f20"/><path id="path898" d="m195.29 327.93h7.0255v1.7616h-7.0255v-1.7616z" fill="#231f20"/><path id="path900" d="m270.69 210.99h28.57v22.573h-28.57v-22.573z" fill="#d1d3d4"/><path id="path902" d="m351.25 329.05c0 4.6598-3.2364 8.5619-7.3744 8.5619h-118.05c-4.138 0-7.5844-3.9022-7.5844-8.5619v-70.169h133.01v70.169" fill="#58595b"/><path id="path904" d="m218.24 258.88v-17.932c0-4.6608 3.4463-7.395 7.5844-7.395h118.05c4.138 0 7.3744 2.7342 7.3744 7.395v17.932h-133.01" fill="#fff"/><path id="path906" d="m218.99 258v-17.05c0-3.1371 2.1388-6.514 6.8349-6.514h118.05c4.5768 0 6.6254 3.2719 6.6254 6.514v17.05h-131.51m124.89-25.326h-118.05c-4.9069 0-8.3338 3.4032-8.3338 8.276v17.932c0 0.4861 0.33553 0.88053 0.74946 0.88053h133.01c0.41393 0 0.74904-0.39443 0.74904-0.88053v-17.932c0-4.8729-3.3405-8.276-8.1235-8.276" fill="#231f20"/><path id="path908" d="m289.48 246.21c0-3.0058-2.0739-5.4447-4.6329-5.4447s-4.6312 2.4389-4.6312 5.4447c0 3.0087 2.0722 5.4462 4.6312 5.4462s4.6329-2.4374 4.6329-5.4462" fill="#bcbec0"/><path id="path910" d="m265.07 204.93h39.341v6.0566h-39.341v-6.0566z" fill="#fff"/><path id="path912" d="m265.82 205.81h37.843v4.2946h-37.843v-4.2946zm38.592-1.7615h-39.341c-0.41393 0-0.74946 0.39393-0.74946 0.88052v6.0566c0 0.4866 0.33553 0.88102 0.74946 0.88102h39.341c0.41393 0 0.74903-0.39442 0.74903-0.88102v-6.0566c0-0.48659-0.3351-0.88052-0.74903-0.88052" fill="#231f20"/><path id="path914" d="m226.67 258.88h116.15v69.371h-116.15v-69.371z" fill="#ffd248"/><path id="path916" d="m227.42 259.77h114.65v67.61h-114.65v-67.61m115.4-1.762h-116.15c-0.41393 0-0.74945 0.39444-0.74945 0.88152v69.371c0 0.48659 0.33552 0.88101 0.74945 0.88101h116.15c0.41393 0 0.74946-0.39442 0.74946-0.88101v-69.371c0-0.48708-0.33553-0.88152-0.74946-0.88152" fill="#231f20"/></g><g id="g918" transform="matrix(.042152 0 0 .049551 -3.4963 -125.34)"><g id="g920" clip-path="url(#clipPath922)"><path id="path926" d="m5649.3 8609.7h2388.9v355.56h-2388.9v-355.56z" fill="#ffe9a4"/></g></g><g fill="#ffe9a4"><path id="path928" d="m265.54 281.46h35.595v15.416h-35.595v-15.416z"/><path id="path930" d="m308.16 281.46h26.696v15.416h-26.696v-15.416z"/><path id="path932" d="m265.54 269.35h69.316v7.1576h-69.316v-7.1576z"/></g><g><path id="path934" d="m234.63 293.57h98.822v27.529h-98.822v-27.529z" fill="#fff"/><path id="path936" d="m235.38 294.45h97.324v25.767h-97.324v-25.767zm98.073-1.762h-98.822c-0.41393 0-0.74946 0.39443-0.74946 0.88102v27.529c0 0.48659 0.33553 0.88102 0.74946 0.88102h98.822c0.41393 0 0.74904-0.39443 0.74904-0.88102v-27.529c0-0.48659-0.33511-0.88102-0.74904-0.88102" fill="#231f20"/><path id="path938" d="m265.54 299.81c0 3.2238-2.4208 5.3253-5.1653 5.3253h-96.761c-2.7441 0-5.3263-2.1015-5.3263-5.3253v-82.766h107.25v82.766" fill="#6d6e71"/><path id="path940" d="m149.86 217.04v-6.346c0-3.2213 3.2794-5.7668 6.4382-5.7668h111.4c3.161 0 6.2776 2.5454 6.2776 5.7668v6.346h-124.11" fill="#f1f2f2"/><path id="path942" d="m150.61 216.16v-5.465c0-2.7516 3.0581-4.8857 5.6888-4.8857h111.4c2.8933 0 5.5286 2.3289 5.5286 4.8857v5.465h-122.62zm117.09-12.112h-111.4c-3.3995 0-7.1873 2.7298-7.1873 6.6473v6.346c0 0.48659 0.33511 0.88102 0.74904 0.88102h124.11c0.41393 0 0.74903-0.39443 0.74903-0.88102v-6.346c0-1.8071-0.7992-3.5102-2.2522-4.7951-1.3303-1.1773-3.0708-1.8522-4.7745-1.8522" fill="#231f20"/><path id="path944" d="m165.32 224.75h93.202v73.777h-93.202v-73.777z" fill="#18affe"/><path id="path946" d="m166.06 225.63h91.704v72.014h-91.704v-72.014m92.453-1.7615h-93.202c-0.41393 0-0.74945 0.39393-0.74945 0.88052v73.777c0 0.48609 0.33552 0.88052 0.74945 0.88052h93.202c0.41393 0 0.74945-0.39443 0.74945-0.88052v-73.777c0-0.48659-0.33552-0.88052-0.74945-0.88052" fill="#231f20"/><path id="path948" d="m206.06 209.55h12.177v1.7616h-12.177v-1.7616z" fill="#231f20"/></g><g fill="#8cd7ff"><path id="path950" d="m242.59 271.55h8.8986v17.618h-8.8986v-17.618z"/><path id="path952" d="m173.75 271.55h64.164v17.618h-64.164v-17.618z"/><path id="path954" d="m173.75 248.42h17.797v17.618h-17.797v-17.618z"/><path id="path956" d="m194.82 248.42h54.797v17.618h-54.797v-17.618z"/><path id="path958" d="m173.75 234.11h75.873v8.2586h-75.873v-8.2586z"/></g><g fill="#231f20"><path id="path960" d="m233.78 240.97-3.7414 4.3967c-0.14037 0.1655-0.21961 0.38947-0.21961 0.62335 0 0.23339 0.0788 0.45736 0.21961 0.62286l3.7414 4.3972 1.0597-1.2457-3.2115-3.7743 3.2115-3.7743-1.0597-1.2457"/><path id="path962" d="m245.3 240.97-1.0597 1.2457 3.2111 3.7743-3.2111 3.7743 1.0597 1.2457 3.7414-4.3972c0.14037-0.1655 0.21919-0.38947 0.21919-0.62286 0-0.23388-0.0788-0.45785-0.21919-0.62335l-3.7414-4.3967"/><path id="path964" d="m237.62 240.04-1.3531 0.75664 4.5583 11.27 1.3535-0.75615-4.5587-11.27"/><path id="path966" d="m178.43 263.51h49.177v1.7616h-49.177v-1.7616z"/></g><g><path id="path968" d="m200.91 261.64h4.6836v4.9551h-4.6836v-4.9551z" fill="#939598"/><path id="path970" d="m201.66 262.52h3.185v3.1931h-3.185v-3.1931zm3.9344-1.762h-4.6835c-0.41393 0-0.74946 0.39442-0.74946 0.88102v4.9551c0 0.48659 0.33553 0.88101 0.74946 0.88101h4.6835c0.41393 0 0.74945-0.39442 0.74945-0.88101v-4.9551c0-0.4866-0.33552-0.88102-0.74945-0.88102" fill="#231f20"/><path id="path972" d="m173.75 261.09h4.6834v5.5056h-4.6834v-5.5056z" fill="#939598"/><path id="path974" d="m174.5 261.97h3.1846v3.7436h-3.1846v-3.7436zm3.934-1.762h-4.6835c-0.41393 0-0.74946 0.39443-0.74946 0.88102v5.5056c0 0.48659 0.33553 0.88101 0.74946 0.88101h4.6835c0.41393 0 0.74946-0.39442 0.74946-0.88101v-5.5056c0-0.48659-0.33553-0.88102-0.74946-0.88102" fill="#231f20"/><path id="path976" d="m227.61 261.64h5.1518v4.9551h-5.1518v-4.9551z" fill="#939598"/></g><g fill="#231f20"><path id="path978" d="m228.36 262.52h3.6529v3.1931h-3.6529v-3.1931zm4.4023-1.762h-5.1518c-0.41393 0-0.74945 0.39442-0.74945 0.88102v4.9551c0 0.48659 0.33552 0.88101 0.74945 0.88101h5.1518c0.41393 0 0.74946-0.39442 0.74946-0.88101v-4.9551c0-0.4866-0.33553-0.88102-0.74946-0.88102"/><path id="path980" d="m205.85 263.43h-0.0257l0.009 1.7615h0.002c0.16144 0 8.3663 0.06 13.776 6.3916 3.201 3.7456 4.8238 8.9539 4.8238 15.482h1.4989c0-7.0204-1.775-12.653-5.2753-16.742-5.7874-6.7617-14.179-6.893-14.809-6.893"/><path id="path982" d="m200.97 263.43c-0.62849 0-9.0209 0.13081-14.809 6.893-3.5003 4.089-5.2753 9.7214-5.2753 16.742h1.4989c0-6.5338 1.6258-11.746 4.8327-15.493 5.4081-6.3178 13.558-6.3807 13.765-6.3807h0.004l0.009-1.7615h-0.0257"/></g><g><path id="path984" d="m222.45 283.66h5.1517v5.5056h-5.1517v-5.5056z" fill="#939598"/><path id="path986" d="m223.2 284.54h3.6529v3.7441h-3.6529v-3.7441zm4.4023-1.762h-5.1518c-0.41393 0-0.74946 0.39443-0.74946 0.88102v5.5056c0 0.4866 0.33553 0.88102 0.74946 0.88102h5.1518c0.41393 0 0.74946-0.39442 0.74946-0.88102v-5.5056c0-0.48659-0.33553-0.88102-0.74946-0.88102" fill="#231f20"/><path id="path988" d="m178.9 284.21h5.1521v4.9551h-5.1521v-4.9551z" fill="#939598"/></g><g fill="#231f20"><path id="path990" d="m179.65 285.09h3.6533v3.1936h-3.6533v-3.1936zm4.4028-1.7615h-5.1522c-0.41393 0-0.74946 0.39393-0.74946 0.88052v4.9551c0 0.4866 0.33553 0.88102 0.74946 0.88102h5.1522c0.41393 0 0.74903-0.39442 0.74903-0.88102v-4.9551c0-0.48659-0.3351-0.88052-0.74903-0.88052"/><path id="path992" d="m181.71 247.54h17.329v1.762h-17.329v-1.762z"/><path id="path994" d="m203.25 247.54h7.4938v1.762h-7.4938v-1.762z"/><path id="path996" d="m181.71 241.49h36.532v1.762h-36.532v-1.762z"/><path id="path998" d="m276.78 298.75h4.2152v1.7616h-4.2152v-1.7616z"/><path id="path1000" d="m286.15 298.75h4.2152v1.7616h-4.2152v-1.7616z"/><path id="path1002" d="m295.99 298.75h4.2152v1.7616h-4.2152v-1.7616z"/></g><g><path id="path1004" d="m296.92 251.73h34.658v32.483h-34.658v-32.483z" fill="#fff"/><path id="path1006" d="m297.67 252.61h33.159v30.722h-33.159v-30.722zm33.909-1.762h-34.658c-0.41393 0-0.74904 0.39442-0.74904 0.88102v32.483c0 0.4866 0.33511 0.88102 0.74904 0.88102h34.658c0.41393 0 0.74903-0.39442 0.74903-0.88102v-32.483c0-0.4866-0.3351-0.88102-0.74903-0.88102" fill="#231f20"/><path id="path1008" d="m299.73 255.03h29.506v25.326h-29.506v-25.326z" fill="#18affe"/><path id="path1010" d="m323.09 262.38-11.474 7.7711-11.73-7.1611-0.69086 1.5638 12.094 7.3831c0.2272 0.13824 0.49782 0.13131 0.71953-0.0188l11.829-8.0114-0.74819-1.5267" fill="#231f20"/><path id="path1012" d="m328.41 265.83-5.5349 4.2198-3.9656-4.139-0.9952 1.3171 4.3922 4.5845c0.2525 0.26312 0.62385 0.29582 0.905 0.0808l6.0138-4.585-0.81522-1.4781" fill="#231f20"/></g><g fill="#fff"><path id="path1014" d="m319.59 275.64c0-1.7799-1.227-3.2213-2.7403-3.2213-1.5141 0-2.7416 1.4414-2.7416 3.2213 0 1.7784 1.2275 3.2203 2.7416 3.2203 1.5132 0 2.7403-1.4419 2.7403-3.2203"/><path id="path1016" d="m270.69 279.26h22.95v5.5062h-22.95v-5.5062z"/><path id="path1018" d="m270.69 263.84h22.95v12.663h-22.95v-12.663z"/></g><g fill="#231f20"><path id="path1020" d="m276.78 281.13h14.987v1.762h-14.987v-1.762z"/><path id="path1022" d="m273.04 271.77h18.734v1.762h-18.734v-1.762z"/><path id="path1024" d="m273.04 266.81h18.734v1.762h-18.734v-1.762z"/></g><g><path id="path1026" d="m331.58 203.79v5.2866c0.4683 0.30424 1.6456 0.70313 2.4166 1.1862l3.1711-3.7381c0.30223-0.35577 0.78908-0.35577 1.0888 0l4.5541 5.358c0.30054 0.3538 0.29886 0.92859-0.003 1.2814l-3.1803 3.4765c0.41182 0.90679 0.75072 2.0484 1.0091 2.599h4.4984c0.42573 0 0.4957 0.93354 0.4957 1.437v7.5739c0 0.50195-0.07 1.4499-0.4957 1.4499h-4.4984c-0.25839 1.1015-0.59729 1.6862-1.0091 2.5915l3.1803 3.6048c0.30139 0.35429 0.30139 0.85872 0 1.2155l-4.5587 5.3208c-0.30055 0.35678-0.78824 0.34042-1.0896-0.0169l-3.1626-3.7456c-0.77096 0.48312-1.9482 0.87259-2.4166 1.1813v5.2856c0 0.49997-0.38147 1.0802-0.80889 1.0802h-6.4458c-0.42489 0-1.1756-0.58025-1.1756-1.0802v-5.2856c-0.93703-0.30871-1.4627-0.7071-2.2294-1.1902l-3.0817 3.7376c-0.30054 0.35677-0.7406 0.35677-1.0416 0l-4.5338-5.355c-0.30097-0.35627-0.28832-0.92958 0.0135-1.2844l3.1888-3.4681c-0.41099-0.90531-0.74609-1.49-1.0053-2.5915h-4.4955c-0.427 0-0.8658-0.94791-0.8658-1.4499v-7.5739c0-0.50344 0.4388-1.437 0.8658-1.437h4.4955c0.25923-0.55052 0.60066-1.6922 1.0133-2.599l-3.185-3.6098c-0.30138-0.35132-0.30138-0.8602 0-1.215l4.56-5.3243c0.30012-0.35528 0.79119-0.34041 1.0905 0.0169l2.9814 3.7466c0.76675-0.48411 1.2924-0.87408 2.2294-1.1783v-5.2866c0-0.50196 0.75072-0.51682 1.1756-0.51682h6.4458c0.42742 0 0.80889 0.0149 0.80889 0.51682" fill="#e6e7e8"/><path id="path1028" d="m323.9 204.18c0.0969-0.0109 0.23353-0.0183 0.42658-0.0183h6.5053v4.9224c0 0.32109 0.14838 0.61592 0.38653 0.77102 0.2605 0.16947 0.63439 0.33348 1.0677 0.52425 0.45946 0.20167 0.98045 0.43109 1.359 0.66795 0.29211 0.18334 0.6504 0.11942 0.8835-0.1551l3.1711-3.7381 4.5823 5.359-3.1639 3.4899c-0.2487 0.27253-0.31024 0.70709-0.15049 1.0599 0.20781 0.45785 0.4034 1.0019 0.57664 1.4821 0.16144 0.44893 0.30054 0.83642 0.43711 1.1278 0.13236 0.28095 0.38316 0.45537 0.65631 0.45537h4.2063c0.0206 0.12933 0.0388 0.31713 0.0388 0.55597v7.5739c0 0.24527-0.019 0.43704-0.0405 0.56933h-4.2046c-0.33722 0-0.6327 0.26461-0.72206 0.64665-0.18463 0.78538-0.41646 1.2769-0.70984 1.8998-0.0767 0.16203-0.15554 0.33001-0.23816 0.51037-0.15764 0.34785-0.10031 0.77647 0.14121 1.0495l3.1555 3.5771-4.5418 5.305-3.1926-3.7585c-0.23311-0.2755-0.59224-0.34041-0.88477-0.15658-0.37346 0.23438-0.8894 0.45884-1.3442 0.65754-0.44006 0.19226-0.82069 0.35776-1.0862 0.53267-0.23647 0.1556-0.38274 0.44944-0.38274 0.76855v5.2856c-0.002 0.054-0.0561 0.15807-0.10074 0.1992h-6.4045c-0.10243-0.0153-0.33637-0.18433-0.42658-0.30722v-5.1776c0-0.39493-0.22382-0.74179-0.54712-0.84832-0.69804-0.23041-1.1423-0.51682-1.705-0.88003l-0.3722-0.23834c-0.29548-0.18532-0.6601-0.11842-0.89193 0.16352l-3.0817 3.7371-4.5069-5.3629 3.1808-3.4844c0.24996-0.27153 0.31235-0.70808 0.15175-1.0614-0.0793-0.17541-0.15638-0.33943-0.23057-0.49699-0.29422-0.62733-0.52732-1.1218-0.71321-1.9142-0.0898-0.38203-0.38527-0.64615-0.72248-0.64615h-4.3762c-0.10116-0.13032-0.22846-0.43059-0.23562-0.5738v-7.5694c0.007-0.13627 0.13277-0.42911 0.23267-0.55597h4.3791c0.27272 0 0.52395-0.17392 0.65589-0.45488 0.13699-0.29086 0.27693-0.67835 0.43921-1.1268 0.17325-0.48015 0.37052-1.0247 0.57917-1.4826 0.15765-0.34785 0.10032-0.77596-0.14079-1.05l-3.1601-3.582 4.5431-5.3074 2.9961 3.7396c0.23268 0.29136 0.60319 0.36321 0.90205 0.17442l0.33089-0.21159c0.59772-0.38401 1.0289-0.6615 1.7434-0.8934 0.32499-0.10555 0.54965-0.4529 0.54965-0.84931v-4.9041zm6.8724-1.7804h-6.4458c-1.2772 0-1.9251 0.47024-1.9251 1.3978v4.641c-0.50961 0.21357-0.90879 0.45587-1.329 0.72444l-2.5847-3.2486c-0.59897-0.71403-1.6005-0.70858-2.1695-0.0362l-4.5566 5.3198c-0.29 0.3419-0.44807 0.78093-0.44722 1.2388 0.001 0.45587 0.16017 0.89192 0.44807 1.2274l2.7972 3.1703c-0.13826 0.34785-0.26556 0.69916-0.38274 1.0232-0.0645 0.17838-0.1273 0.35231-0.18589 0.50839h-4.0251c-0.98593 0-1.6148 1.5222-1.6148 2.318v7.5739c0 0.80025 0.6289 2.3309 1.6148 2.3309h3.9484c0.18378 0.5961 0.39412 1.0599 0.61457 1.5306l-2.7597 3.0013c-0.61583 0.72345-0.623 1.8572-0.0367 2.5519l4.5347 5.3555c0.572 0.67835 1.531 0.68033 2.1055-0.002l2.6901-3.2629c0.41267 0.2651 0.82112 0.51732 1.3388 0.73832v4.6434c0 1.0827 1.1651 1.9612 1.9251 1.9612h6.4458c0.89192 0 1.5579-1.0356 1.5579-1.9612v-4.7168c0.1509-0.0699 0.32288-0.14469 0.49149-0.21802 0.32667-0.14271 0.68202-0.29731 1.0184-0.46876l2.7883 3.3026c0.57832 0.68529 1.582 0.69471 2.1544 0.0163l4.5536-5.3154c0.5973-0.70758 0.59687-1.765 0.002-2.4637l-2.7774-3.1485c0.2234-0.47569 0.43753-0.94197 0.62384-1.544h3.9509c0.37431 0 1.2447-0.22695 1.2447-2.3309v-7.5739c0-2.092-0.87043-2.318-1.2447-2.318h-4.0268c-0.0586-0.15559-0.12098-0.32902-0.18505-0.50691-0.11549-0.32108-0.24026-0.66894-0.37641-1.0128l2.7715-3.0296c0.30645-0.35727 0.46536-0.8062 0.46662-1.2849 0.00043-0.47767-0.15723-0.9266-0.44386-1.264l-4.5541-5.3584c-0.56863-0.67389-1.5714-0.67836-2.1493-0.0005l-2.7972 3.2981c-0.33974-0.17442-0.69972-0.33248-1.0306-0.47816-0.16481-0.0724-0.33257-0.14568-0.48053-0.21456v-4.7168c0-0.92759-0.52436-1.3978-1.5579-1.3978" fill="#231f20"/><path id="path1030" d="m327.38 217.42c-3.1926 0-5.7811 3.0449-5.7811 6.7974 0 3.7535 2.5885 6.7979 5.7811 6.7979 3.1947 0 5.7836-3.0444 5.7836-6.7979 0-3.7525-2.589-6.7974-5.7836-6.7974" fill="#bcbec0"/><path id="path1032" d="m335.8 347.53h-81.962v13.764h81.962v-13.764" fill="#18affe"/><path id="path1034" d="m254.58 348.41h80.463v12.002h-80.463v-12.002zm81.213-1.762h-81.962c-0.41393 0-0.74903 0.39443-0.74903 0.88102v13.764c0 0.48659 0.3351 0.88101 0.74903 0.88101h81.962c0.41393 0 0.74904-0.39442 0.74904-0.88101v-13.764c0-0.48659-0.33511-0.88102-0.74904-0.88102" fill="#231f20"/><path id="path1036" d="m294.58 354.13v7.1572" fill="#bcbec0"/><path id="path1038" d="m293.83 354.13h1.4985v7.1571h-1.4985v-7.1571z" fill="#231f20"/><path id="path1040" d="m303.95 354.13v7.1572" fill="#bcbec0"/><path id="path1042" d="m303.2 354.13h1.498v7.1571h-1.498v-7.1571z" fill="#231f20"/><path id="path1044" d="m313.31 354.13v7.1572" fill="#bcbec0"/><path id="path1046" d="m312.57 354.13h1.4985v7.1571h-1.4985v-7.1571z" fill="#231f20"/><path id="path1048" d="m322.68 354.13v7.1572" fill="#bcbec0"/><path id="path1050" d="m321.93 354.13h1.4984v7.1571h-1.4984v-7.1571z" fill="#231f20"/><path id="path1052" d="m285.21 354.13v7.1572" fill="#bcbec0"/><path id="path1054" d="m284.46 354.13h1.4985v7.1571h-1.4985v-7.1571z" fill="#231f20"/><path id="path1056" d="m275.85 354.13v7.1572" fill="#bcbec0"/><path id="path1058" d="m275.1 354.13h1.4984v7.1571h-1.4984v-7.1571z" fill="#231f20"/><path id="path1060" d="m266.48 354.13v7.1572" fill="#bcbec0"/><path id="path1062" d="m265.73 354.13h1.498v7.1571h-1.498v-7.1571z" fill="#231f20"/><path id="path1064" d="m280.53 322.2h8.8991v40.191h-8.8991v-40.191z" fill="#f1f2f2"/><path id="path1066" d="m284 321.1h1.4984v41.293h-1.4984v-41.293z" fill="#231f20"/><path id="path1068" d="m140.49 204.93h40.747" fill="#bcbec0"/><path id="path1070" d="m140.49 204.05h40.747v1.7616h-40.747v-1.7616z" fill="#231f20"/><path id="path1072" d="m136.75 204.93h-6.5567" fill="#bcbec0"/><path id="path1074" d="m130.19 204.05h6.5567v1.7616h-6.5567v-1.7616z" fill="#231f20"/><path id="path1076" d="m327.37 203.28h23.886" fill="#bcbec0"/><path id="path1078" d="m327.37 202.4h23.886v1.762h-23.886v-1.762z" fill="#231f20"/><path id="path1080" d="m354.53 203.28h6.5571" fill="#bcbec0"/><path id="path1082" d="m354.53 202.4h6.5572v1.762h-6.5572v-1.762z" fill="#231f20"/></g></g></g></svg>
