<?xml version="1.0" encoding="UTF-8" standalone="no"?>
<!-- Created with Inkscape (http://www.inkscape.org/) -->

<svg
   xmlns:dc="http://purl.org/dc/elements/1.1/"
   xmlns:cc="http://creativecommons.org/ns#"
   xmlns:rdf="http://www.w3.org/1999/02/22-rdf-syntax-ns#"
   xmlns:svg="http://www.w3.org/2000/svg"
   xmlns="http://www.w3.org/2000/svg"
   xmlns:sodipodi="http://sodipodi.sourceforge.net/DTD/sodipodi-0.dtd"
   xmlns:inkscape="http://www.inkscape.org/namespaces/inkscape"
   width="385"
   height="344"
   viewBox="0 0 385 344"
   id="svg2"
   version="1.1"
   inkscape:version="0.91 r13725"
   sodipodi:docname="marketproblem.svg">
  <defs
     id="defs4">
    <clipPath
       id="clipPath4292"
       clipPathUnits="userSpaceOnUse">
      <path
         inkscape:connector-curvature="0"
         id="path4294"
         d="m 3460.93,5454.57 0,201.14 143.89,0 c -29.65,-111.29 -82.36,-189.09 -143.89,-201.14 m -33.47,0.06 c -61.43,12.08 -114.15,89.79 -143.9,201.08 l 143.9,0 0,-201.08 m 117.49,11.1 c 41.29,40.98 74.45,107.12 95.15,189.98 l 157.4,0 c -54.75,-93.29 -145.1,-162.79 -252.55,-189.98 m -201.42,0 c -107.54,27.19 -197.89,96.69 -252.56,189.98 l 157.41,0 c 20.69,-82.86 53.85,-149 95.15,-189.98 m 471.58,223.48 -19.9,0 c 0.8,0.64 1.56,1.24 2.27,1.8 l 5.62,4.48 c 6.45,5.12 7.31,14.41 1.91,20.62 l -96.37,110.99 c -5.4,6.22 -3.52,13.72 4.17,16.67 l 4.88,1.87 135.29,0 c -2.19,-55.81 -15.47,-108.54 -37.87,-156.43 m -82.97,0 -84.48,0 c 5.65,28.37 9.84,58.42 12.51,89.82 l 71.97,-89.82 m -119.33,0 -151.88,0 0,156.43 75.12,0 36.79,-142.07 c 1.12,-4.35 3.21,-6.57 5.59,-6.57 1.98,0 4.18,1.55 6.18,4.71 l 40.33,63.54 c -2.9,-26.43 -6.99,-51.85 -12.13,-76.04 m -185.35,0 -151.78,0 c -10.2,47.89 -16.31,100.62 -17.29,156.43 l 169.07,0 0,-156.43 m -186.74,0 -167.35,0 c -12.25,26.18 -21.77,53.82 -28.26,82.61 l 71.3,0 0,73.82 108.5,0 c 0.9,-55.9 6.28,-108.54 15.81,-156.43 m 612.26,189.9 -47.99,0 6.84,2.63 c 7.69,2.95 8.01,8.48 0.71,12.29 l -155.36,81.14 c -2.48,20.84 -5.66,40.99 -9.52,60.37 l 167.45,0 c 22.4,-47.82 35.6,-100.61 37.87,-156.43 m -325.59,0 -66.46,0 0,156.43 25.96,0 40.5,-156.43 m -99.93,0 -169.07,0 c 0.98,55.82 7.09,108.61 17.29,156.43 l 151.78,0 0,-156.43 m -202.55,0 -108.5,0 0,156.43 124.31,0 c -9.53,-47.91 -14.91,-100.53 -15.81,-156.43 m 395.43,115.3 -78.75,41.13 71.22,0 c 2.84,-13.33 5.36,-27.06 7.53,-41.13 m 177.16,74.69 -157.4,0 c -20.7,82.87 -53.86,149.02 -95.15,189.92 107.45,-27.22 197.89,-96.71 252.55,-189.92 m -192.68,0 -143.89,0 0,201.08 c 61.53,-12.05 114.24,-89.87 143.89,-201.08 m -177.36,0 -143.9,0 c 29.75,111.29 82.47,189.03 143.9,201.08 l 0,-201.08 m -179.08,0 -131.97,0 0,38.28 c 55.27,73.84 134.86,128.3 227.06,151.64 -41.32,-40.9 -74.4,-107.05 -95.09,-189.92" />
    </clipPath>
    <clipPath
       id="clipPath4470"
       clipPathUnits="userSpaceOnUse">
      <path
         inkscape:connector-curvature="0"
         id="path4472"
         d="m 7540.82,3584.87 -317.2,0 c -41.53,0 -75.52,33.99 -75.52,75.53 l 0,99.44 185.03,0 0,-63.37 c 0,-9.65 7.92,-16.56 16.56,-16.56 2.75,0 5.58,0.7 8.24,2.24 l 105.39,60.85 c 6.35,3.66 9.04,10.49 8.08,16.84 l 144.94,0 0,-99.44 c 0,-41.54 -33.98,-75.53 -75.52,-75.53" />
    </clipPath>
    <clipPath
       id="clipPath4514"
       clipPathUnits="userSpaceOnUse">
      <path
         inkscape:connector-curvature="0"
         id="path4516"
         d="m 5389.29,3710.33 1237.57,0 0,1186.3 -1237.57,0 0,-1186.3 z" />
    </clipPath>
    <clipPath
       id="clipPath4292-3"
       clipPathUnits="userSpaceOnUse">
      <path
         inkscape:connector-curvature="0"
         id="path4294-6"
         d="m 3460.93,5454.57 0,201.14 143.89,0 c -29.65,-111.29 -82.36,-189.09 -143.89,-201.14 m -33.47,0.06 c -61.43,12.08 -114.15,89.79 -143.9,201.08 l 143.9,0 0,-201.08 m 117.49,11.1 c 41.29,40.98 74.45,107.12 95.15,189.98 l 157.4,0 c -54.75,-93.29 -145.1,-162.79 -252.55,-189.98 m -201.42,0 c -107.54,27.19 -197.89,96.69 -252.56,189.98 l 157.41,0 c 20.69,-82.86 53.85,-149 95.15,-189.98 m 471.58,223.48 -19.9,0 c 0.8,0.64 1.56,1.24 2.27,1.8 l 5.62,4.48 c 6.45,5.12 7.31,14.41 1.91,20.62 l -96.37,110.99 c -5.4,6.22 -3.52,13.72 4.17,16.67 l 4.88,1.87 135.29,0 c -2.19,-55.81 -15.47,-108.54 -37.87,-156.43 m -82.97,0 -84.48,0 c 5.65,28.37 9.84,58.42 12.51,89.82 l 71.97,-89.82 m -119.33,0 -151.88,0 0,156.43 75.12,0 36.79,-142.07 c 1.12,-4.35 3.21,-6.57 5.59,-6.57 1.98,0 4.18,1.55 6.18,4.71 l 40.33,63.54 c -2.9,-26.43 -6.99,-51.85 -12.13,-76.04 m -185.35,0 -151.78,0 c -10.2,47.89 -16.31,100.62 -17.29,156.43 l 169.07,0 0,-156.43 m -186.74,0 -167.35,0 c -12.25,26.18 -21.77,53.82 -28.26,82.61 l 71.3,0 0,73.82 108.5,0 c 0.9,-55.9 6.28,-108.54 15.81,-156.43 m 612.26,189.9 -47.99,0 6.84,2.63 c 7.69,2.95 8.01,8.48 0.71,12.29 l -155.36,81.14 c -2.48,20.84 -5.66,40.99 -9.52,60.37 l 167.45,0 c 22.4,-47.82 35.6,-100.61 37.87,-156.43 m -325.59,0 -66.46,0 0,156.43 25.96,0 40.5,-156.43 m -99.93,0 -169.07,0 c 0.98,55.82 7.09,108.61 17.29,156.43 l 151.78,0 0,-156.43 m -202.55,0 -108.5,0 0,156.43 124.31,0 c -9.53,-47.91 -14.91,-100.53 -15.81,-156.43 m 395.43,115.3 -78.75,41.13 71.22,0 c 2.84,-13.33 5.36,-27.06 7.53,-41.13 m 177.16,74.69 -157.4,0 c -20.7,82.87 -53.86,149.02 -95.15,189.92 107.45,-27.22 197.89,-96.71 252.55,-189.92 m -192.68,0 -143.89,0 0,201.08 c 61.53,-12.05 114.24,-89.87 143.89,-201.08 m -177.36,0 -143.9,0 c 29.75,111.29 82.47,189.03 143.9,201.08 l 0,-201.08 m -179.08,0 -131.97,0 0,38.28 c 55.27,73.84 134.86,128.3 227.06,151.64 -41.32,-40.9 -74.4,-107.05 -95.09,-189.92" />
    </clipPath>
  </defs>
  <sodipodi:namedview
     id="base"
     pagecolor="#ffffff"
     bordercolor="#666666"
     borderopacity="1.0"
     inkscape:pageopacity="0.0"
     inkscape:pageshadow="2"
     inkscape:zoom="0.7"
     inkscape:cx="76.427849"
     inkscape:cy="-65.785714"
     inkscape:document-units="px"
     inkscape:current-layer="g4200"
     showgrid="false"
     units="px"
     inkscape:window-width="1366"
     inkscape:window-height="744"
     inkscape:window-x="0"
     inkscape:window-y="24"
     inkscape:window-maximized="1" />
  <metadata
     id="metadata7">
    <rdf:RDF>
      <cc:Work
         rdf:about="">
        <dc:format>image/svg+xml</dc:format>
        <dc:type
           rdf:resource="http://purl.org/dc/dcmitype/StillImage" />
        <dc:title></dc:title>
      </cc:Work>
    </rdf:RDF>
  </metadata>
  <g
     inkscape:label="Layer 1"
     inkscape:groupmode="layer"
     id="layer1"
     transform="translate(0,-708.36216)">
    <g
       transform="matrix(1.25,0,0,-1.25,682.85714,1495.4999)"
       inkscape:label="ink_ext_XXXXXX"
       id="g4198">
      <g
         transform="scale(0.1,0.1)"
         id="g4200">
        <g
           transform="matrix(4.974278,0,0,4.4582768,-4430.128,4207.6466)"
           inkscape:label="ink_ext_XXXXXX"
           id="g5221">
          <g
             transform="translate(-186.21049,-129.46428)"
             inkscape:label="ink_ext_XXXXXX"
             id="g22413">
            <g
               transform="scale(0.1,0.1)"
               id="g22415">
              <path
                 inkscape:connector-curvature="0"
                 id="path22417"
                 style="fill:#feedea;fill-opacity:1;fill-rule:nonzero;stroke:none"
                 d="m 5560.63,1952 -5367.997,0 C 86.2422,1952 0,2038.24 0,2144.63 l 0,2889.48 c 0,106.38 86.2422,192.63 192.633,192.63 l 5367.997,0 c 106.39,0 192.63,-86.25 192.63,-192.63 l 0,-2889.48 c 0,-106.39 -86.24,-192.63 -192.63,-192.63" />
              <path
                 inkscape:connector-curvature="0"
                 id="path22421"
                 style="fill:#d8d4d4;fill-opacity:1;fill-rule:nonzero;stroke:none"
                 d="M 4931.43,0 1232.78,0 c -77.98,0 -141.2,63.2188 -141.2,141.199 l 0,0.133 c 0,77.981 63.22,141.199 141.2,141.199 l 898.06,0 c -2.07,-15.812 -3.14,-31.922 -3.14,-48.289 l 0,-79.332 847.58,0 0,79.332 c 0,16.367 -1.06,32.477 -3.13,48.289 l 243.84,0 c -2.07,-15.812 -3.13,-31.922 -3.13,-48.289 l 0,-79.332 847.58,0 0,79.332 c 0,16.367 -1.07,32.477 -3.14,48.289 l 874.13,0 c 77.98,0 141.2,-63.218 141.2,-141.199 l 0,-0.133 C 5072.63,63.2188 5009.41,0 4931.43,0" />
              <path
                 inkscape:connector-curvature="0"
                 id="path22423"
                 style="fill:#f78f89;fill-opacity:1;fill-rule:nonzero;stroke:none"
                 d="m 4566.11,2224.98 0,0 c -139.54,-87.88 -323.89,-46.01 -411.77,93.52 l -459.21,729.12 c -87.88,139.53 -46,323.88 93.53,411.76 l 0,0 c 139.53,87.88 323.89,46.01 411.77,-93.52 l 459.2,-729.12 c 87.88,-139.53 46.01,-323.88 -93.52,-411.76" />
              <path
                 inkscape:connector-curvature="0"
                 id="path22425"
                 style="fill:#f36176;fill-opacity:1;fill-rule:nonzero;stroke:none"
                 d="m 3790.47,2673.82 627.26,413.76 -284.54,451.77 c -69.2,109.89 -188.13,175.49 -318.13,175.49 -70.71,0 -139.84,-19.99 -199.9,-57.82 -175.26,-110.38 -228.04,-342.77 -117.66,-518.03 l 292.97,-465.17" />
              <path
                 inkscape:connector-curvature="0"
                 id="path22427"
                 style="fill:#f36176;fill-opacity:1;fill-rule:nonzero;stroke:none"
                 d="m 4060.44,1765.79 -1932.74,0 0,1483.26 c 0,319.16 258.73,577.9 577.9,577.9 l 776.94,0 c 319.16,0 577.9,-258.74 577.9,-577.9 l 0,-1483.26" />
              <path
                 inkscape:connector-curvature="0"
                 id="path22429"
                 style="fill:#503e49;fill-opacity:1;fill-rule:nonzero;stroke:none"
                 d="m 2126.1,4408.05 0,1001.69 c 0,212.77 172.48,385.26 385.26,385.26 l 1165.42,0 c 212.77,0 385.26,-172.49 385.26,-385.26 l 0,-982.42 -1935.94,-19.27" />
              <path
                 inkscape:connector-curvature="0"
                 id="path22431"
                 style="fill:#f57b8d;fill-opacity:1;fill-rule:nonzero;stroke:none"
                 d="m 3999.44,4160.84 -1810.74,0 c -88.29,0 -160.52,72.24 -160.52,160.53 0,88.29 72.23,160.52 160.52,160.52 l 1810.74,0 c 88.29,0 160.52,-72.23 160.52,-160.52 0,-88.29 -72.23,-160.53 -160.52,-160.53" />
              <path
                 inkscape:connector-curvature="0"
                 id="path22433"
                 style="fill:#f78f89;fill-opacity:1;fill-rule:nonzero;stroke:none"
                 d="m 3402.28,3390.32 -616.42,0 c -319.16,0 -577.9,258.73 -577.9,577.89 l 0,821.9 c 0,319.16 258.74,577.89 577.9,577.89 l 616.42,0 c 319.16,0 577.89,-258.73 577.89,-577.89 l 0,-821.9 c 0,-319.16 -258.73,-577.89 -577.89,-577.89" />
              <path
                 inkscape:connector-curvature="0"
                 id="path22435"
                 style="fill:#fbd1cd;fill-opacity:1;fill-rule:nonzero;stroke:none"
                 d="m 3915.08,3701.49 0,0 c 41.59,79.8 65.09,170.51 65.09,266.72 l 0,192.63 0.01,0 0,-192.63 c 0,-96.21 -23.51,-186.92 -65.1,-266.72" />
              <path
                 inkscape:connector-curvature="0"
                 id="path22437"
                 style="fill:#f35b6a;fill-opacity:1;fill-rule:nonzero;stroke:none"
                 d="m 3890.3,3658.56 0,0 c 8.85,13.91 17.12,28.25 24.78,42.93 l 0,0 c -7.66,-14.68 -15.93,-29.02 -24.78,-42.93" />
              <path
                 inkscape:connector-curvature="0"
                 id="path22439"
                 style="fill:#f35b6a;fill-opacity:1;fill-rule:nonzero;stroke:none"
                 d="m 3810.91,3559.58 c 0.32,0.32 0.65,0.64 0.97,0.96 -0.32,-0.32 -0.65,-0.64 -0.97,-0.96 m 2.61,2.62 c 28.87,29.24 54.63,61.53 76.78,96.36 l 0,0 c -22.15,-34.83 -47.91,-67.12 -76.78,-96.36" />
              <path
                 inkscape:connector-curvature="0"
                 id="path22441"
                 style="fill:#f4707f;fill-opacity:1;fill-rule:nonzero;stroke:none"
                 d="m 3980.18,4160.84 -0.01,0 0,17.99 c 0.01,0.43 0.01,0.85 0.01,1.28 l 0,-19.27" />
              <path
                 inkscape:connector-curvature="0"
                 id="path22443"
                 style="fill:#f6807b;fill-opacity:1;fill-rule:nonzero;stroke:none"
                 d="m 3756.12,3511.28 c -8.9,65.85 -65.33,116.61 -133.62,116.61 l -49.33,0 c 235.34,72.75 406.44,291.83 407,550.94 l 0,-210.62 c 0,-96.21 -23.5,-186.92 -65.09,-266.72 -7.66,-14.68 -15.93,-29.02 -24.78,-42.93 -22.15,-34.83 -47.91,-67.12 -76.78,-96.36 -0.55,-0.55 -1.1,-1.11 -1.64,-1.66 -0.32,-0.32 -0.65,-0.64 -0.97,-0.96 -17.22,-17.22 -35.51,-33.36 -54.79,-48.3 m -1141.15,116.61 -296.22,0 c -69.67,95.46 -110.79,213.1 -110.79,340.32 l 0,211.9 c 0,-259.67 171.28,-479.35 407.01,-552.22" />
              <path
                 inkscape:connector-curvature="0"
                 id="path22445"
                 style="fill:#5c3941;fill-opacity:1;fill-rule:nonzero;stroke:none"
                 d="m 3980.18,4782.64 0,0 -0.01,7.47 c 0,31.16 -2.46,61.74 -7.21,91.57 4.75,-29.82 7.22,-60.41 7.22,-91.57 l 0,-7.47 m -7.23,99.12 c -0.04,0.24 -0.08,0.5 -0.12,0.74 0.04,-0.25 0.08,-0.49 0.12,-0.74 m -0.17,1.02 c -0.03,0.18 -0.05,0.34 -0.08,0.52 0.03,-0.17 0.06,-0.35 0.08,-0.52 m -0.14,0.9 c -0.03,0.15 -0.04,0.26 -0.07,0.41 0.02,-0.14 0.04,-0.27 0.07,-0.41 m -0.14,0.87 c -0.02,0.07 -0.03,0.16 -0.05,0.24 0.02,-0.08 0.03,-0.16 0.05,-0.24" />
              <path
                 inkscape:connector-curvature="0"
                 id="path22447"
                 style="fill:#f6807b;fill-opacity:1;fill-rule:nonzero;stroke:none"
                 d="m 3309.84,4696.12 c -391.59,0 -869.61,167.12 -1033.65,366.47 74.76,139.54 205.11,244.77 361.48,286.15 l 912.8,0 c 217.58,-57.57 384.87,-238.8 421.98,-463.95 0.02,-0.08 0.03,-0.17 0.05,-0.24 0.02,-0.16 0.05,-0.31 0.07,-0.46 0.03,-0.15 0.04,-0.26 0.07,-0.41 0.02,-0.13 0.04,-0.25 0.06,-0.38 0.03,-0.18 0.05,-0.34 0.08,-0.52 0.02,-0.1 0.03,-0.18 0.05,-0.28 0.04,-0.24 0.08,-0.5 0.12,-0.74 0,-0.02 0.01,-0.06 0.01,-0.08 4.75,-29.83 7.21,-60.41 7.21,-91.57 l 0,-7.47 c -323.24,73.34 -661.52,327.61 -780.18,423.19 121.75,-127.73 302.42,-494.15 302.42,-494.15 -60.26,-10.61 -125.14,-15.56 -192.57,-15.56" />
              <path
                 inkscape:connector-curvature="0"
                 id="path22449"
                 style="fill:#503e49;fill-opacity:1;fill-rule:nonzero;stroke:none"
                 d="m 2614.9,4340.63 0,0 c -34.43,0 -62.61,28.17 -62.61,62.61 l 0,77.05 c 0,34.43 28.18,62.6 62.61,62.6 34.43,0 62.6,-28.17 62.6,-62.6 l 0,-77.05 c 0,-34.44 -28.17,-62.61 -62.6,-62.61" />
              <path
                 inkscape:connector-curvature="0"
                 id="path22451"
                 style="fill:#503e49;fill-opacity:1;fill-rule:nonzero;stroke:none"
                 d="m 3573.24,4340.63 0,0 c -34.43,0 -62.61,28.17 -62.61,62.61 l 0,77.05 c 0,34.43 28.18,62.6 62.61,62.6 34.43,0 62.61,-28.17 62.61,-62.6 l 0,-77.05 c 0,-34.44 -28.18,-62.61 -62.61,-62.61" />
              <path
                 inkscape:connector-curvature="0"
                 id="path22453"
                 style="fill:#503e49;fill-opacity:1;fill-rule:nonzero;stroke:none"
                 d="m 2231.04,5197.38 c 105.95,-265.44 818.68,-504.34 1271.37,-424.7 0,0 -231.16,468.95 -346.74,530.88 0,0 433.42,-377.52 837.95,-463.05 l 0,569.23 -1618.11,0 -144.47,-212.36" />
              <path
                 inkscape:connector-curvature="0"
                 id="path22455"
                 style="fill:#503e49;fill-opacity:1;fill-rule:nonzero;stroke:none"
                 d="m 2758.2,4657.08 c -119.99,84.28 -248.22,35.15 -299.25,-2.62 -12.83,-9.49 -15.54,-27.57 -6.04,-40.41 9.47,-12.82 27.58,-15.53 40.41,-6.04 1.15,0.83 115.42,83.43 231.67,1.77 5.69,-3.99 12.33,-5.65 18.76,-5.16 8.33,0.63 16.31,4.84 21.49,12.2 9.17,13.06 6.02,31.08 -7.04,40.26" />
              <path
                 inkscape:connector-curvature="0"
                 id="path22457"
                 style="fill:#503e49;fill-opacity:1;fill-rule:nonzero;stroke:none"
                 d="m 3422.69,4657.08 c 119.99,84.28 248.22,35.15 299.25,-2.62 12.83,-9.49 15.54,-27.57 6.04,-40.41 -9.47,-12.82 -27.58,-15.53 -40.42,-6.04 -1.14,0.83 -115.42,83.43 -231.66,1.77 -5.69,-3.99 -12.33,-5.65 -18.77,-5.16 -8.33,0.63 -16.31,4.84 -21.49,12.2 -9.17,13.06 -6.01,31.08 7.05,40.26" />
              <path
                 inkscape:connector-curvature="0"
                 id="path22459"
                 style="fill:#b73146;fill-opacity:1;fill-rule:nonzero;stroke:none"
                 d="m 3171.72,3634.32 c 0,-78.02 -34.49,-83.48 -77.05,-83.48 -42.55,0 -77.05,5.46 -77.05,83.48 0,78.01 34.5,141.26 77.05,141.26 42.56,0 77.05,-63.25 77.05,-141.26" />
              <path
                 inkscape:connector-curvature="0"
                 id="path22461"
                 style="fill:#f78f89;fill-opacity:1;fill-rule:nonzero;stroke:none"
                 d="m 2240.07,706.32 622.84,0 0,738.422 -622.84,0 0,-738.422 z" />
              <path
                 inkscape:connector-curvature="0"
                 id="path22463"
                 style="fill:#ef817a;fill-opacity:1;fill-rule:nonzero;stroke:none"
                 d="m 2709.94,706.32 152.969,0 0,738.422 -152.969,0 0,-738.422 z" />
              <path
                 inkscape:connector-curvature="0"
                 id="path22465"
                 style="fill:#ef817a;fill-opacity:1;fill-rule:nonzero;stroke:none"
                 d="m 2240.07,1277.79 622.84,0 0,166.953 -622.84,0 0,-166.953 z" />
              <path
                 inkscape:connector-curvature="0"
                 id="path22467"
                 style="fill:#c6d3d9;fill-opacity:1;fill-rule:nonzero;stroke:none"
                 d="m 2225.24,398.109 652.5,0 0,308.211 -652.5,0 0,-308.211 z" />
              <path
                 inkscape:connector-curvature="0"
                 id="path22469"
                 style="fill:#b3c1c7;fill-opacity:1;fill-rule:nonzero;stroke:none"
                 d="m 2546.2,398.109 331.539,0 0,308.211 -331.539,0 0,-308.211 z" />
              <path
                 inkscape:connector-curvature="0"
                 id="path22471"
                 style="fill:#9fabb1;fill-opacity:1;fill-rule:nonzero;stroke:none"
                 d="m 2527.03,398.109 48.918,0 0,308.211 -48.918,0 0,-308.211 z" />
              <path
                 inkscape:connector-curvature="0"
                 id="path22473"
                 style="fill:#ffffff;fill-opacity:1;fill-rule:nonzero;stroke:none"
                 d="m 2744.12,648.531 0,0 c 0,13.508 -10.95,24.461 -24.46,24.461 l -336.34,0 c -13.51,0 -24.46,-10.953 -24.46,-24.461 l 0,0 c 0,-13.511 10.95,-24.472 24.46,-24.472 l 336.34,0 c 13.51,0 24.46,10.961 24.46,24.472" />
              <path
                 inkscape:connector-curvature="0"
                 id="path22475"
                 style="fill:#dfedf6;fill-opacity:1;fill-rule:nonzero;stroke:none"
                 d="m 2975.28,154.91 -847.58,0 0,79.332 c 0,203.539 165,368.539 368.54,368.539 l 110.5,0 c 203.54,0 368.54,-165 368.54,-368.539 l 0,-79.332" />
              <path
                 inkscape:connector-curvature="0"
                 id="path22477"
                 style="fill:#f78f89;fill-opacity:1;fill-rule:nonzero;stroke:none"
                 d="m 3325.23,706.32 622.84,0 0,738.422 -622.84,0 0,-738.422 z" />
              <path
                 inkscape:connector-curvature="0"
                 id="path22479"
                 style="fill:#ef817a;fill-opacity:1;fill-rule:nonzero;stroke:none"
                 d="m 3795.1,706.32 152.969,0 0,738.422 -152.969,0 0,-738.422 z" />
              <path
                 inkscape:connector-curvature="0"
                 id="path22481"
                 style="fill:#ef817a;fill-opacity:1;fill-rule:nonzero;stroke:none"
                 d="m 3325.23,1277.79 622.84,0 0,166.953 -622.84,0 0,-166.953 z" />
              <path
                 inkscape:connector-curvature="0"
                 id="path22483"
                 style="fill:#c6d3d9;fill-opacity:1;fill-rule:nonzero;stroke:none"
                 d="m 3310.4,398.109 652.5,0 0,308.211 -652.5,0 0,-308.211 z" />
              <path
                 inkscape:connector-curvature="0"
                 id="path22485"
                 style="fill:#b3c1c7;fill-opacity:1;fill-rule:nonzero;stroke:none"
                 d="m 3631.36,398.109 331.539,0 0,308.211 -331.539,0 0,-308.211 z" />
              <path
                 inkscape:connector-curvature="0"
                 id="path22487"
                 style="fill:#9fabb1;fill-opacity:1;fill-rule:nonzero;stroke:none"
                 d="m 3612.19,398.109 48.918,0 0,308.211 -48.918,0 0,-308.211 z" />
              <path
                 inkscape:connector-curvature="0"
                 id="path22489"
                 style="fill:#ffffff;fill-opacity:1;fill-rule:nonzero;stroke:none"
                 d="m 3829.28,648.531 0,0 c 0,13.508 -10.95,24.461 -24.46,24.461 l -336.34,0 c -13.51,0 -24.46,-10.953 -24.46,-24.461 l 0,0 c 0,-13.511 10.95,-24.472 24.46,-24.472 l 336.34,0 c 13.51,0 24.46,10.961 24.46,24.472" />
              <path
                 inkscape:connector-curvature="0"
                 id="path22491"
                 style="fill:#dfedf6;fill-opacity:1;fill-rule:nonzero;stroke:none"
                 d="m 4060.44,154.91 -847.58,0 0,79.332 c 0,203.539 165,368.539 368.54,368.539 l 110.5,0 c 203.54,0 368.54,-165 368.54,-368.539 l 0,-79.332" />
              <path
                 inkscape:connector-curvature="0"
                 id="path22493"
                 style="fill:#503e49;fill-opacity:1;fill-rule:nonzero;stroke:none"
                 d="m 2127.7,2003.37 0,-629.26 863.63,0 0,28.95 c 0,56.71 45.97,102.68 102.67,102.68 l 0.13,0 c 56.71,0 102.68,-45.97 102.68,-102.68 l 0,-28.95 863.63,0 0,629.26 -1932.74,0" />
              <path
                 inkscape:connector-curvature="0"
                 id="path22495"
                 style="fill:#f78f89;fill-opacity:1;fill-rule:nonzero;stroke:none"
                 d="m 1931.14,1586 -65.22,0 c -50.97,0 -92.68,41.71 -92.68,92.69 l 0,13.68 c 0,50.97 41.71,92.68 92.68,92.68 l 65.22,0 c 50.98,0 92.69,-41.71 92.69,-92.68 l 0,-13.68 c 0,-50.98 -41.71,-92.69 -92.69,-92.69" />
              <path
                 inkscape:connector-curvature="0"
                 id="path22497"
                 style="fill:#f78f89;fill-opacity:1;fill-rule:nonzero;stroke:none"
                 d="m 2120.48,1586 -65.22,0 c -50.98,0 -92.69,41.71 -92.69,92.69 l 0,13.68 c 0,50.97 41.71,92.68 92.69,92.68 l 65.22,0 c 50.98,0 92.69,-41.71 92.69,-92.68 l 0,-13.68 c 0,-50.98 -41.71,-92.69 -92.69,-92.69" />
              <path
                 inkscape:connector-curvature="0"
                 id="path22499"
                 style="fill:#f78f89;fill-opacity:1;fill-rule:nonzero;stroke:none"
                 d="m 2309.82,1586 -65.22,0 c -50.98,0 -92.69,41.71 -92.69,92.69 l 0,13.68 c 0,50.97 41.71,92.68 92.69,92.68 l 65.22,0 c 50.97,0 92.68,-41.71 92.68,-92.68 l 0,-13.68 c 0,-50.98 -41.71,-92.69 -92.68,-92.69" />
              <path
                 inkscape:connector-curvature="0"
                 id="path22501"
                 style="fill:#dfedf6;fill-opacity:1;fill-rule:nonzero;stroke:none"
                 d="m 3622.5,2061.16 -2029.05,0 c -74.47,0 -134.84,60.37 -134.84,134.84 l 0,1297.05 c 0,74.47 60.37,134.84 134.84,134.84 l 2029.05,0 c 74.47,0 134.84,-60.37 134.84,-134.84 l 0,-1297.05 c 0,-74.47 -60.37,-134.84 -134.84,-134.84" />
              <path
                 inkscape:connector-curvature="0"
                 id="path22503"
                 style="fill:#d3dfe8;fill-opacity:1;fill-rule:nonzero;stroke:none"
                 d="m 3699.55,1711.21 -2183.15,0 c -31.92,0 -57.79,25.87 -57.79,57.79 l 0,256.84 c 0,31.92 25.87,57.79 57.79,57.79 l 2183.15,0 c 31.92,0 57.79,-25.87 57.79,-57.79 l 0,-256.84 c 0,-31.92 -25.87,-57.79 -57.79,-57.79" />
              <path
                 inkscape:connector-curvature="0"
                 id="path22505"
                 style="fill:#bccad1;fill-opacity:1;fill-rule:nonzero;stroke:none"
                 d="m 3699.55,1761.78 -2183.15,0 c -31.92,0 -57.79,25.87 -57.79,57.79 l 0,-50.57 c 0,-31.92 25.87,-57.79 57.79,-57.79 l 2183.15,0 c 31.92,0 57.79,25.87 57.79,57.79 l 0,50.57 c 0,-31.92 -25.87,-57.79 -57.79,-57.79" />
              <path
                 inkscape:connector-curvature="0"
                 id="path22507"
                 style="fill:#3b91b6;fill-opacity:1;fill-rule:nonzero;stroke:none"
                 d="m 1538.87,2154.26 2138.21,0 0,1380.53 -2138.21,0 0,-1380.53 z" />
              <path
                 inkscape:connector-curvature="0"
                 id="path22509"
                 style="fill:#3480a3;fill-opacity:1;fill-rule:nonzero;stroke:none"
                 d="m 3606.45,2154.26 70.6328,0 0,1380.53 -70.6328,0 0,-1380.53 z" />
              <path
                 inkscape:connector-curvature="0"
                 id="path22511"
                 style="fill:#bbc7ce;fill-opacity:1;fill-rule:nonzero;stroke:none"
                 d="m 1538.87,2048.01 2138.21,0 0,12.6484 -2138.21,0 0,-12.6484 z" />
              <path
                 inkscape:connector-curvature="0"
                 id="path22513"
                 style="fill:#bbc7ce;fill-opacity:1;fill-rule:nonzero;stroke:none"
                 d="m 1538.87,1997.45 2138.21,0 0,12.6406 -2138.21,0 0,-12.6406 z" />
              <path
                 inkscape:connector-curvature="0"
                 id="path22515"
                 style="fill:#bbc7ce;fill-opacity:1;fill-rule:nonzero;stroke:none"
                 d="m 1601.58,1894.61 12.6367,0 0,163.742 -12.6367,0 0,-163.742 z" />
              <path
                 inkscape:connector-curvature="0"
                 id="path22517"
                 style="fill:#bbc7ce;fill-opacity:1;fill-rule:nonzero;stroke:none"
                 d="m 1725.98,1894.61 12.6484,0 0,163.742 -12.6484,0 0,-163.742 z" />
              <path
                 inkscape:connector-curvature="0"
                 id="path22519"
                 style="fill:#bbc7ce;fill-opacity:1;fill-rule:nonzero;stroke:none"
                 d="m 1850.39,1894.61 12.6406,0 0,163.742 -12.6406,0 0,-163.742 z" />
              <path
                 inkscape:connector-curvature="0"
                 id="path22521"
                 style="fill:#bbc7ce;fill-opacity:1;fill-rule:nonzero;stroke:none"
                 d="m 1974.8,1894.61 12.6406,0 0,163.742 -12.6406,0 0,-163.742 z" />
              <path
                 inkscape:connector-curvature="0"
                 id="path22523"
                 style="fill:#bbc7ce;fill-opacity:1;fill-rule:nonzero;stroke:none"
                 d="m 2099.21,1894.61 12.6406,0 0,163.742 -12.6406,0 0,-163.742 z" />
              <path
                 inkscape:connector-curvature="0"
                 id="path22525"
                 style="fill:#bbc7ce;fill-opacity:1;fill-rule:nonzero;stroke:none"
                 d="m 2223.62,1894.61 12.6406,0 0,163.742 -12.6406,0 0,-163.742 z" />
              <path
                 inkscape:connector-curvature="0"
                 id="path22527"
                 style="fill:#bbc7ce;fill-opacity:1;fill-rule:nonzero;stroke:none"
                 d="m 2348.02,1894.61 12.6406,0 0,163.742 -12.6406,0 0,-163.742 z" />
              <path
                 inkscape:connector-curvature="0"
                 id="path22529"
                 style="fill:#bbc7ce;fill-opacity:1;fill-rule:nonzero;stroke:none"
                 d="m 2472.43,1894.61 12.6406,0 0,163.742 -12.6406,0 0,-163.742 z" />
              <path
                 inkscape:connector-curvature="0"
                 id="path22531"
                 style="fill:#bbc7ce;fill-opacity:1;fill-rule:nonzero;stroke:none"
                 d="m 2596.84,1894.61 12.6406,0 0,163.742 -12.6406,0 0,-163.742 z" />
              <path
                 inkscape:connector-curvature="0"
                 id="path22533"
                 style="fill:#bbc7ce;fill-opacity:1;fill-rule:nonzero;stroke:none"
                 d="m 2721.25,1894.61 12.6406,0 0,163.742 -12.6406,0 0,-163.742 z" />
              <path
                 inkscape:connector-curvature="0"
                 id="path22535"
                 style="fill:#bbc7ce;fill-opacity:1;fill-rule:nonzero;stroke:none"
                 d="m 2845.65,1894.61 12.6523,0 0,163.742 -12.6523,0 0,-163.742 z" />
              <path
                 inkscape:connector-curvature="0"
                 id="path22537"
                 style="fill:#bbc7ce;fill-opacity:1;fill-rule:nonzero;stroke:none"
                 d="m 2970.06,1894.61 12.6406,0 0,163.742 -12.6406,0 0,-163.742 z" />
              <path
                 inkscape:connector-curvature="0"
                 id="path22539"
                 style="fill:#bbc7ce;fill-opacity:1;fill-rule:nonzero;stroke:none"
                 d="m 3094.47,1894.61 12.6406,0 0,163.742 -12.6406,0 0,-163.742 z" />
              <path
                 inkscape:connector-curvature="0"
                 id="path22541"
                 style="fill:#bbc7ce;fill-opacity:1;fill-rule:nonzero;stroke:none"
                 d="m 3218.88,1894.61 12.6406,0 0,163.742 -12.6406,0 0,-163.742 z" />
              <path
                 inkscape:connector-curvature="0"
                 id="path22543"
                 style="fill:#bbc7ce;fill-opacity:1;fill-rule:nonzero;stroke:none"
                 d="m 3343.29,1894.61 12.6406,0 0,163.742 -12.6406,0 0,-163.742 z" />
              <path
                 inkscape:connector-curvature="0"
                 id="path22545"
                 style="fill:#bbc7ce;fill-opacity:1;fill-rule:nonzero;stroke:none"
                 d="m 3467.69,1894.61 12.6484,0 0,163.742 -12.6484,0 0,-163.742 z" />
              <path
                 inkscape:connector-curvature="0"
                 id="path22547"
                 style="fill:#bbc7ce;fill-opacity:1;fill-rule:nonzero;stroke:none"
                 d="m 3592.1,1894.61 12.6367,0 0,163.742 -12.6367,0 0,-163.742 z" />
              <path
                 inkscape:connector-curvature="0"
                 id="path22549"
                 style="fill:#bbc7ce;fill-opacity:1;fill-rule:nonzero;stroke:none"
                 d="m 1538.87,1946.88 2138.21,0 0,12.6406 -2138.21,0 0,-12.6406 z" />
              <path
                 inkscape:connector-curvature="0"
                 id="path22551"
                 style="fill:#bbc7ce;fill-opacity:1;fill-rule:nonzero;stroke:none"
                 d="m 1538.87,1896.32 2138.21,0 0,12.6406 -2138.21,0 0,-12.6406 z" />
              <path
                 inkscape:connector-curvature="0"
                 id="path22553"
                 style="fill:#bbc7ce;fill-opacity:1;fill-rule:nonzero;stroke:none"
                 d="m 2412.13,1785.05 391.691,0 0,75.4492 -391.691,0 0,-75.4492 z" />
              <path
                 inkscape:connector-curvature="0"
                 id="path22555"
                 style="fill:#ffffff;fill-opacity:1;fill-rule:nonzero;stroke:none"
                 d="m 3134.5,2844.53 c 0,290.79 -235.73,526.52 -526.53,526.52 -290.79,0 -526.52,-235.73 -526.52,-526.52 0,-290.8 235.73,-526.53 526.52,-526.53 290.8,0 526.53,235.73 526.53,526.53" />
              <path
                 inkscape:connector-curvature="0"
                 id="path22557"
                 style="fill:#e2eff7;fill-opacity:1;fill-rule:nonzero;stroke:none"
                 d="m 1835.42,2154.26 -206.17,0 206.17,0 0,0" />
              <path
                 inkscape:connector-curvature="0"
                 id="path22559"
                 style="fill:#419dbd;fill-opacity:1;fill-rule:nonzero;stroke:none"
                 d="m 1835.42,2154.26 -206.17,0 491.15,491.15 c 19.24,-47.05 45.08,-90.69 76.39,-129.78 l -361.37,-361.37 m 1101.45,1101.46 c -39.08,31.3 -82.73,57.15 -129.78,76.38 l 202.69,202.69 206.17,0 -279.08,-279.07" />
              <path
                 inkscape:connector-curvature="0"
                 id="path22561"
                 style="fill:#ffffff;fill-opacity:1;fill-rule:nonzero;stroke:none"
                 d="m 2196.79,2515.63 c -31.31,39.09 -57.15,82.73 -76.39,129.78 l 686.69,686.69 c 47.05,-19.23 90.7,-45.08 129.78,-76.38 l -740.08,-740.09" />
              <path
                 inkscape:connector-curvature="0"
                 id="path22563"
                 style="fill:#419dbd;fill-opacity:1;fill-rule:nonzero;stroke:none"
                 d="m 1538.87,2250.58 0,732 552.21,552.21 732,0 -166,-166 c -16.16,1.5 -32.55,2.26 -49.11,2.26 -290.79,0 -526.52,-235.73 -526.52,-526.52 0,-16.56 0.76,-32.94 2.26,-49.11 l -544.84,-544.84" />
              <path
                 inkscape:connector-curvature="0"
                 id="path22565"
                 style="fill:#ffffff;fill-opacity:1;fill-rule:nonzero;stroke:none"
                 d="m 2083.71,2795.42 c -1.5,16.17 -2.26,32.55 -2.26,49.11 0,290.79 235.73,526.52 526.52,526.52 16.56,0 32.95,-0.76 49.11,-2.26 l -573.37,-573.37" />
              <path
                 inkscape:connector-curvature="0"
                 id="path22567"
                 style="fill:#f46874;fill-opacity:1;fill-rule:nonzero;stroke:none"
                 d="m 2676.85,2574.82 c 0,-36.59 -30.82,-67.42 -68.39,-67.42 -38.53,0 -69.35,30.83 -69.35,67.42 0,39.5 30.82,70.32 69.35,70.32 37.57,0 68.39,-30.82 68.39,-70.32 z M 2608.46,2675 c -41.42,0 -75.13,31.79 -75.13,73.21 l 0,357.35 c 0,42.38 33.71,76.09 75.13,76.09 40.45,0 74.16,-33.71 74.16,-76.09 l 0,-357.35 c 0,-41.42 -33.71,-73.21 -74.16,-73.21" />
              <path
                 inkscape:connector-curvature="0"
                 id="path22569"
                 style="fill:#f78f89;fill-opacity:1;fill-rule:nonzero;stroke:none"
                 d="m 4472.19,2759.63 c 0,0 -579.4,58.34 -754.26,101.81 -98.23,130 -262.51,38.22 -253.63,-42.18 0,0 -363.6,95.98 -376.64,-53.67 -11.72,-134.56 117.27,-146.06 279.41,-170.24 -24.44,-36.39 -0.42,-341.42 129.22,-387.95 129.63,-46.53 929.27,-21.86 929.27,-21.86 l 46.63,574.09" />
              <path
                 inkscape:connector-curvature="0"
                 id="path22571"
                 style="fill:#ffffff;fill-opacity:1;fill-rule:nonzero;stroke:none"
                 d="m 3212.86,234.242 0,-79.332 847.58,0 0,79.332 c 0,9.258 -0.72,18.328 -1.39,27.418 l -844.81,0 c -0.67,-9.09 -1.38,-18.16 -1.38,-27.418" />
              <path
                 inkscape:connector-curvature="0"
                 id="path22573"
                 style="fill:#ebeeed;fill-opacity:1;fill-rule:nonzero;stroke:none"
                 d="m 4057.3,282.531 0,0 c -10.11,77.231 -44.14,146.957 -94.4,201.469 l 0,0 c 50.26,-54.512 84.29,-124.238 94.4,-201.469" />
              <path
                 inkscape:connector-curvature="0"
                 id="path22575"
                 style="fill:#cdccce;fill-opacity:1;fill-rule:nonzero;stroke:none"
                 d="m 4060.44,234.242 c 0,0.34 0,0.688 -0.01,1.028 -0.04,16.019 -1.1,31.781 -3.13,47.261 l 0,0 c 2.07,-15.812 3.14,-31.922 3.14,-48.289" />
              <path
                 inkscape:connector-curvature="0"
                 id="path22577"
                 style="fill:#b0bdc4;fill-opacity:1;fill-rule:nonzero;stroke:none"
                 d="m 3962.9,484 c -67.34,73.031 -163.83,118.781 -271,118.781 l -30.79,0 30.79,0 c 107.17,0 203.66,-45.75 271,-118.781 l 0,0" />
              <path
                 inkscape:connector-curvature="0"
                 id="path22579"
                 style="fill:#a0acb2;fill-opacity:1;fill-rule:nonzero;stroke:none"
                 d="m 3631.36,602.781 29.75,0 0,0 -29.75,0 z" />
              <path
                 inkscape:connector-curvature="0"
                 id="path22581"
                 style="fill:#d2e0e8;fill-opacity:1;fill-rule:nonzero;stroke:none"
                 d="m 4060.43,235.27 c -0.05,8.902 -0.73,17.64 -1.38,26.39 l -427.69,0 0,341.121 60.54,0 c 107.17,0 203.66,-45.75 271,-118.781 50.26,-54.512 84.29,-124.238 94.4,-201.469 2.03,-15.48 3.09,-31.242 3.13,-47.261" />
              <path
                 inkscape:connector-curvature="0"
                 id="path22583"
                 style="fill:#ebeeed;fill-opacity:1;fill-rule:nonzero;stroke:none"
                 d="m 4060.44,154.91 -429.08,0 0,106.75 427.69,0 c 0.65,-8.75 1.33,-17.488 1.38,-26.39 0.01,-0.34 0.01,-0.688 0.01,-1.028 l 0,-79.332" />
              <path
                 inkscape:connector-curvature="0"
                 id="path22585"
                 style="fill:#ffffff;fill-opacity:1;fill-rule:nonzero;stroke:none"
                 d="m 2127.7,234.242 0,-79.332 847.58,0 0,79.332 c 0,9.258 -0.71,18.328 -1.38,27.418 l -844.82,0 c -0.67,-9.09 -1.38,-18.16 -1.38,-27.418" />
              <path
                 inkscape:connector-curvature="0"
                 id="path22587"
                 style="fill:#ebeeed;fill-opacity:1;fill-rule:nonzero;stroke:none"
                 d="m 2972.15,282.531 -0.01,0 C 2962.03,359.762 2928,429.488 2877.74,484 l 0,0 c 50.26,-54.512 84.29,-124.238 94.41,-201.469" />
              <path
                 inkscape:connector-curvature="0"
                 id="path22589"
                 style="fill:#cdccce;fill-opacity:1;fill-rule:nonzero;stroke:none"
                 d="m 2975.28,234.242 c 0,0.34 0,0.688 0,1.028 -0.05,16.019 -1.11,31.781 -3.14,47.261 l 0.01,0 c 2.07,-15.812 3.13,-31.922 3.13,-48.289" />
              <path
                 inkscape:connector-curvature="0"
                 id="path22591"
                 style="fill:#b0bdc4;fill-opacity:1;fill-rule:nonzero;stroke:none"
                 d="m 2877.74,484 c -67.34,73.031 -163.83,118.781 -271,118.781 l -30.79,0 30.79,0 c 107.17,0 203.66,-45.75 271,-118.781 l 0,0" />
              <path
                 inkscape:connector-curvature="0"
                 id="path22593"
                 style="fill:#a0acb2;fill-opacity:1;fill-rule:nonzero;stroke:none"
                 d="m 2546.2,602.781 29.75,0 0,0 -29.75,0 z" />
              <path
                 inkscape:connector-curvature="0"
                 id="path22595"
                 style="fill:#d2e0e8;fill-opacity:1;fill-rule:nonzero;stroke:none"
                 d="m 2975.28,235.27 c -0.05,8.902 -0.74,17.64 -1.38,26.39 l -427.7,0 0,341.121 60.54,0 c 107.17,0 203.66,-45.75 271,-118.781 50.26,-54.512 84.29,-124.238 94.4,-201.469 2.03,-15.48 3.09,-31.242 3.14,-47.261" />
              <path
                 inkscape:connector-curvature="0"
                 id="path22597"
                 style="fill:#ebeeed;fill-opacity:1;fill-rule:nonzero;stroke:none"
                 d="m 2975.28,154.91 -429.08,0 0,106.75 427.7,0 c 0.64,-8.75 1.33,-17.488 1.38,-26.39 0,-0.34 0,-0.688 0,-1.028 l 0,-79.332" />
              <path
                 inkscape:connector-curvature="0"
                 id="path22599"
                 style="fill:#68505f;fill-opacity:1;fill-rule:nonzero;stroke:none"
                 d="m 3653.84,5631.26 -1069.11,0 c -29.13,0 -52.97,23.84 -52.97,52.98 l 0,0 c 0,29.13 23.84,52.97 52.97,52.97 l 1069.11,0 c 29.13,0 52.97,-23.84 52.97,-52.97 l 0,0 c 0,-29.14 -23.84,-52.98 -52.97,-52.98" />
              <path
                 inkscape:connector-curvature="0"
                 id="path22601"
                 style="fill:#68505f;fill-opacity:1;fill-rule:nonzero;stroke:none"
                 d="m 2413.77,5631.26 0,0 c -25.16,0 -45.75,20.59 -45.75,45.75 l 0,4.82 c 0,25.16 20.59,45.75 45.75,45.75 l 0,0 c 25.16,0 45.75,-20.59 45.75,-45.75 l 0,-4.82 c 0,-25.16 -20.59,-45.75 -45.75,-45.75" />
              <path
                 inkscape:connector-curvature="0"
                 id="path22603"
                 style="fill:#f57d86;fill-opacity:1;fill-rule:nonzero;stroke:none"
                 d="m 2449.89,3839.79 c -70.93,0 -128.42,57.5 -128.42,128.42 0,70.93 57.49,128.42 128.42,128.42 70.92,0 128.42,-57.49 128.42,-128.42 0,-70.92 -57.5,-128.42 -128.42,-128.42" />
              <path
                 inkscape:connector-curvature="0"
                 id="path22605"
                 style="fill:#f57d86;fill-opacity:1;fill-rule:nonzero;stroke:none"
                 d="m 3727.68,3839.79 c -70.93,0 -128.42,57.5 -128.42,128.42 0,70.93 57.49,128.42 128.42,128.42 70.92,0 128.42,-57.49 128.42,-128.42 0,-70.92 -57.5,-128.42 -128.42,-128.42" />
            </g>
          </g>
        </g>
      </g>
    </g>
  </g>
</svg>
