<?xml version="1.0" encoding="UTF-8" standalone="no"?>
<svg
   xmlns:dc="http://purl.org/dc/elements/1.1/"
   xmlns:cc="http://creativecommons.org/ns#"
   xmlns:rdf="http://www.w3.org/1999/02/22-rdf-syntax-ns#"
   xmlns:svg="http://www.w3.org/2000/svg"
   xmlns="http://www.w3.org/2000/svg"
   xmlns:sodipodi="http://sodipodi.sourceforge.net/DTD/sodipodi-0.dtd"
   xmlns:inkscape="http://www.inkscape.org/namespaces/inkscape"
   height="243.735"
   viewBox="0 0 286.2908 183.73456"
   width="286.291"
   id="svg2"
   version="1.1"
   inkscape:version="0.91 r13725"
   sodipodi:docname="meta_tag.svg">
  <metadata
     id="metadata222">
    <rdf:RDF>
      <cc:Work
         rdf:about="">
        <dc:format>image/svg+xml</dc:format>
        <dc:type
           rdf:resource="http://purl.org/dc/dcmitype/StillImage" />
        <dc:title></dc:title>
      </cc:Work>
    </rdf:RDF>
  </metadata>
  <sodipodi:namedview
     pagecolor="#ffffff"
     bordercolor="#666666"
     borderopacity="1"
     objecttolerance="10"
     gridtolerance="10"
     guidetolerance="10"
     inkscape:pageopacity="0"
     inkscape:pageshadow="2"
     inkscape:window-width="1301"
     inkscape:window-height="744"
     id="namedview220"
     showgrid="false"
     inkscape:zoom="0.96826471"
     inkscape:cx="-9.7052733"
     inkscape:cy="121.8675"
     inkscape:window-x="65"
     inkscape:window-y="24"
     inkscape:window-maximized="1"
     inkscape:current-layer="svg2" />
  <defs
     id="defs4">
    <clipPath
       id="a">
      <path
         d="M5900 2420h290v2790h-290V2420z"
         id="path7" />
    </clipPath>
    <clipPath
       id="b">
      <path
         d="M1775.1 2438.9l-774.7 865.7 1463.8 1310.1-689.1-2175.8z"
         id="path10" />
    </clipPath>
  </defs>
  <g
     id="g6"
     transform="matrix(0.04263457,0,0,-0.0492084,19.554918,214.68222)">
    <g
       style="font-family:sans-serif"
       id="g8">
      <flowRoot
         id="flowRoot10"
         style="font-size:40px;line-height:1.25;letter-spacing:0px;word-spacing:0px"
         transform="matrix(0.75,0,0,-0.75,0,5000)"
         xml:space="preserve"
         font-size="40px"
         line-height="1.25"><flowRegion
           id="flowRegion12"><rect
             id="rect14"
             y="875.71002"
             x="2584.7"
             height="68.301003"
             width="512.51001" /></flowRegion><flowPara
           id="flowPara16" /></flowRoot>      <text
         id="text18"
         style="font-size:30px;line-height:1.25;letter-spacing:0px;word-spacing:0px"
         xml:space="preserve"
         font-size="30px"
         transform="scale(1,-1)"
         y="-4279.6611"
         x="2033.8982"
         line-height="1.25"><tspan
           style="stroke-width:0.75"
           id="tspan20"
           y="-4253.1182"
           x="2033.8982" /></text>
      <text
         id="text22"
         style="font-size:30px;line-height:1.25;letter-spacing:0px;word-spacing:0px"
         xml:space="preserve"
         font-size="30px"
         transform="scale(1,-1)"
         y="-4290.2544"
         x="1959.7458"
         line-height="1.25"><tspan
           style="stroke-width:0.75"
           id="tspan24"
           y="-4263.7114"
           x="1959.7458" /></text>
    </g>
    <g
       style="font-family:sans-serif;fill:#000000"
       id="g26">
      <flowRoot
         id="flowRoot28"
         style="font-size:40px;line-height:16;letter-spacing:0px;word-spacing:0px"
         xml:space="preserve"
         font-size="40px"
         line-height="16"><flowRegion
           style="line-height:16"
           id="flowRegion30"
           line-height="16"><rect
             id="rect32"
             y="875.71002"
             width="564.96997"
             x="2556.5"
             height="240.11" /></flowRegion><flowPara
           id="flowPara34" /></flowRoot>      <text
         id="text36"
         style="font-size:30px;line-height:1.25;letter-spacing:0px;word-spacing:0px"
         xml:space="preserve"
         font-size="30px"
         transform="scale(1,-1)"
         y="-4237.2886"
         x="1980.9323"
         line-height="1.25"><tspan
           style="stroke-width:0.75"
           id="tspan38"
           y="-4210.7456"
           x="1980.9323" /></text>
      <text
         id="text40"
         style="font-size:30px;line-height:1.25;letter-spacing:0px;word-spacing:0px"
         xml:space="preserve"
         font-size="30px"
         transform="scale(1,-1)"
         y="-2997.8816"
         x="5858.0508"
         line-height="1.25"><tspan
           style="stroke-width:0.75"
           id="tspan42"
           y="-2997.8816"
           x="5858.0508">-</tspan></text>
      <flowRoot
         id="flowRoot44"
         style="font-size:40px;line-height:1.25;letter-spacing:0px;word-spacing:0px"
         xml:space="preserve"
         font-size="40px"
         line-height="1.25"><flowRegion
           id="flowRegion46"><rect
             id="rect48"
             y="-409.60001"
             width="8276.7998"
             height="11751"
             x="-847.46002" /></flowRegion><flowPara
           id="flowPara50" /></flowRoot>    </g>
    <g
       id="g52">
      <path
         style="fill:#355560"
         inkscape:connector-curvature="0"
         id="path54"
         d="m 382.04,4585.9 c -14.029,98.262 -79.897,120.65 -79.897,120.65 l -0.34731,0.4431 -49.157,0 c -111.31,0 -133.57,-159.54 -133.57,-159.54 l 0.17962,0 -0.0532,0 0,-857.36 594.38,0 13.132,946.25 -344.66,-50.443" />
      <path
         style="fill:#4c6b83"
         inkscape:connector-curvature="0"
         id="path56"
         d="m 698.44,3135.5 1055.3,0 0,1440.2 c -1.6224,11.656 -19.792,120.04 -132.62,131.29 l -1234.9,0 0,-0.034 -84.409,0 0.34731,-0.4431 c 0,0 82.511,-28.05 82.511,-159.1 l 2.028,0 0.092,-31.766 0,-1406.1 c 0,0 0.0545,-0.4294 0.14656,-1.1009 1.6224,-11.67 19.778,-120.03 132.61,-131.29 l 40.719,0 c 145.89,12.989 138.18,158.36 138.18,158.36" />
      <path
         style="fill:#355560"
         inkscape:connector-curvature="0"
         id="path58"
         d="m 697.68,3135.5 1321.6,0 c 0,0 -22.26,-159.53 -133.56,-159.53 -111.31,0 -1355.3,-0.014 -1355.3,-0.014 0,0 167.98,-7.1779 167.31,159.54" />
    </g>
    <g
       style="fill:#f5fcfd"
       id="g60">
      <path
         inkscape:connector-curvature="0"
         id="path62"
         d="m 504.62,4499.3 665.52,0 0,36.973 -665.48,0 z" />
      <path
         inkscape:connector-curvature="0"
         id="path64"
         d="m 623.46,4390.3 665.52,0 0,36.973 -665.54,0 z" />
      <path
         inkscape:connector-curvature="0"
         id="path66"
         d="m 1368.9,4390.3 147.89,0 0,36.973 -147.89,0 z" />
      <path
         inkscape:connector-curvature="0"
         id="path68"
         d="m 728.22,4281.3 665.52,0 0,36.974 -665.48,0 z" />
      <path
         inkscape:connector-curvature="0"
         id="path70"
         d="m 504.62,4172.3 665.52,0 0,36.971 -665.48,0 z" />
      <path
         inkscape:connector-curvature="0"
         id="path72"
         d="m 1223.1,4172.3 224.91,0 0,36.971 -224.91,0 z" />
      <path
         inkscape:connector-curvature="0"
         id="path74"
         d="m 660.43,4063.3 665.47,0 0,36.973 -665.47,0 z" />
      <path
         inkscape:connector-curvature="0"
         id="path76"
         d="m 790.63,3954.3 342.01,0 0,36.97 -341.97,0 z" />
      <path
         inkscape:connector-curvature="0"
         id="path78"
         d="m 658.15,3845.3 665.55,0 0,36.97 -665.55,0 z" />
      <path
         inkscape:connector-curvature="0"
         id="path80"
         d="m 504.62,3736.3 665.52,0 0,36.97 -665.48,0 z" />
      <path
         inkscape:connector-curvature="0"
         id="path82"
         d="m 587.81,3627.3 665.52,0 0,36.971 -665.49,0 z" />
      <path
         inkscape:connector-curvature="0"
         id="path84"
         d="m 1306.3,3627.3 224.92,0 0,36.971 -224.92,0 z" />
      <path
         inkscape:connector-curvature="0"
         id="path86"
         d="m 810.81,3518.3 342,0 0,36.971 -341.99,0 z" />
      <path
         inkscape:connector-curvature="0"
         id="path88"
         d="m 678.32,3409.3 665.52,0 0,36.97 -665.48,0 z" />
      <path
         inkscape:connector-curvature="0"
         id="path90"
         d="m 952.42,3300.4 665.51,0 0,36.98 -665.48,0 z" />
      <path
         inkscape:connector-curvature="0"
         id="path92"
         d="m 674.54,3300.4 224.92,0 0,36.98 -224.92,0 z" />
      <path
         inkscape:connector-curvature="0"
         id="path94"
         d="m 504.62,3191.4 665.52,0 0,36.98 -665.48,0 z" />
    </g>
    <g
       id="g96">
      <path
         style="fill:#211c1d"
         inkscape:connector-curvature="0"
         id="path98"
         d="m 2434.5,3891.1 -1448,0 c -20.518,0 -37.147,-16.633 -37.147,-37.151 l 0,-1771.2 c 0,-20.518 16.629,-37.151 37.147,-37.151 l 1448,0 c 20.522,0 37.14,16.633 37.14,37.151 l 0,1771.2 c 0,20.518 -16.619,37.151 -37.14,37.151" />
      <path
         style="fill:#2b4148"
         inkscape:connector-curvature="0"
         id="path100"
         d="m 2434.5,3909.6 -1448,0 c -30.726,0 -55.719,-25.017 -55.719,-55.726 l 0,-1771.2 c 0,-30.729 24.993,-55.719 55.719,-55.719 l 1448,0 c 30.723,0 55.719,24.99 55.719,55.719 l 0,1771.2 c 0,30.709 -24.997,55.726 -55.719,55.726 z m 0,-18.575 c 20.522,0 37.14,-16.633 37.14,-37.151 l 0,-1771.1 c 0,-20.518 -16.619,-37.151 -37.14,-37.151 l -1448,0 c -20.518,0 -37.147,16.633 -37.147,37.151 l 0,1771.2 c 0,20.518 16.629,37.151 37.147,37.151 l 1448,0" />
      <path
         style="fill:#fffef7"
         inkscape:connector-curvature="0"
         id="path102"
         d="m 949.32,3691.1 0,-1608.4 c 0,-20.518 16.629,-37.151 37.147,-37.151 l 1448,0 c 20.522,0 37.14,16.633 37.14,37.151 l 0,1608.4 -1522.3,0" />
      <path
         style="fill:#c4e5e6"
         inkscape:connector-curvature="0"
         id="path104"
         d="m 949.32,3669.4 1522.3,0 0,140.94 -1522.3,0 z" />
      <path
         style="fill:#355560"
         inkscape:connector-curvature="0"
         id="path106"
         d="m 2471.6,3853.9 c 0,20.518 -16.619,37.151 -37.14,37.151 l -1448,0 c -20.518,0 -37.147,-16.633 -37.147,-37.151 l 0,-43.524 1522.2,0 0,43.524" />
      <path
         style="fill:#fffef7"
         inkscape:connector-curvature="0"
         id="path108"
         d="m 995.74,3694.6 1276.8,0 0,91.2 -1276.8,0 z" />
      <path
         style="fill:#3b5664"
         inkscape:connector-curvature="0"
         id="path110"
         d="m 2365,3729.9 c -10.988,0 -19.891,8.8957 -19.898,19.905 0.01,10.975 8.9094,19.905 19.898,19.905 11.002,0 19.911,-8.9298 19.911,-19.905 0,-11.009 -8.9093,-19.905 -19.911,-19.905 z m -34.54,-13.599 -0.4601,0.6817 0.4601,-0.6817 -16.05,-10.668 c -1.0191,-0.6817 -2.1915,-1.0225 -3.3401,-1.0225 -1.9394,0 -3.8583,0.9543 -5.0103,2.6925 -0.6885,1.0225 -1.0088,2.1814 -1.0088,3.3402 0,1.9427 0.9407,3.8514 2.6789,5.0102 l 16.05,10.668 c 1.0225,0.6816 2.1915,1.0225 3.3401,1.0225 1.9428,0 3.8617,-0.9544 5.0103,-2.6926 0.6816,-1.0225 1.0088,-2.1813 1.0088,-3.3402 0,-1.9086 -0.9373,-3.8514 -2.6789,-5.0102 z m 64.172,32.822 c 0,13.702 -9.3831,26.074 -23.272,29.312 -2.3006,0.5453 -4.6183,0.818 -6.8882,0.818 l -0.2488,0 c -13.603,-0.1023 -25.842,-9.4752 -29.073,-23.279 -0.5487,-2.3176 -0.8009,-4.6012 -0.8009,-6.8848 0,-2.6244 0.3408,-5.1806 1.002,-7.6687 l 0.1398,-0.5453 -1.6599,-1.1248 -1.4996,-1.0906 -29.649,-20.961 c -2.5733,-1.8064 -3.9707,-4.7035 -3.9912,-7.6005 l 0.031,-0.2045 -0.031,-0.068 c 0.041,-1.8405 0.6101,-3.681 1.7417,-5.2829 l 1.0259,-1.4656 c 1.8337,-2.5562 4.7512,-3.9536 7.6823,-3.9536 l 0.031,0 c 1.8678,0 3.7901,0.5794 5.4295,1.7382 l 1.3088,0.9203 25.269,17.86 1.3123,0.9544 5.0886,3.5446 0.4703,-0.3067 c 2.8494,-1.8405 6.06,-3.2379 9.5604,-4.09 2.3108,-0.5112 4.6216,-0.7839 6.8984,-0.7839 l 0.01,0 c 13.65,0 25.992,9.3388 29.291,23.177 l 0.01,0.1022 c 0.5487,2.2836 0.8111,4.6012 0.8111,6.8848" />
      <path
         style="fill:#f04b21"
         inkscape:connector-curvature="0"
         id="path112"
         d="m 2360.7,3826 50.611,0 0,50.62 -50.611,0 z" />
    </g>
    <g
       style="fill:#f1ba0c"
       id="g114">
      <path
         inkscape:connector-curvature="0"
         id="path116"
         d="m 2273,3826 50.609,0 0,50.62 -50.609,0 z" />
      <path
         inkscape:connector-curvature="0"
         id="path118"
         d="m 997.91,3427 934.84,0 0,157.88 -934.89,0 z" />
      <path
         inkscape:connector-curvature="0"
         id="path120"
         d="m 2062.8,3529.1 300.27,0 0,55.72 -300.3,0 z" />
    </g>
    <g
       id="g122">
      <path
         style="fill:#f14d22"
         inkscape:connector-curvature="0"
         id="path124"
         d="m 2062.8,3427 300.27,0 0,55.719 -300.3,0 z" />
      <path
         style="fill:#f1ba0c"
         inkscape:connector-curvature="0"
         id="path126"
         d="m 1778,2225.1 154.77,0 0,1106 -154.77,0 z" />
      <path
         style="fill:#f1ba0c"
         inkscape:connector-curvature="0"
         id="path128"
         d="m 2062.8,3061.7 300.27,0 0,269.32 -300.3,0 z" />
      <path
         style="fill:#f14d22"
         inkscape:connector-curvature="0"
         id="path130"
         d="m 2062.8,2225.1 300.27,0 0,269.31 -300.3,0 z" />
      <path
         style="fill:#88d0e2"
         inkscape:connector-curvature="0"
         id="path132"
         d="m 997.91,2218.9 631.49,0 -631.49,1112.1 0,-1112.1" />
      <path
         style="fill:#9cd9da"
         inkscape:connector-curvature="0"
         id="path134"
         d="m 997.91,3331 631.49,-1112.1 0,1112.1 -631.49,0" />
      <path
         style="fill:#88d0e2"
         inkscape:connector-curvature="0"
         id="path136"
         d="m 2062.8,2664.1 300.27,0 0,269.31 -300.3,0 z" />
    </g>
    <g
       style="fill:#6b6d6e"
       id="g138">
      <path
         inkscape:connector-curvature="0"
         id="path140"
         d="m 2281.1,3210.8 -0.01,0 0.01,0" />
      <path
         inkscape:connector-curvature="0"
         id="path142"
         d="m 2642.5,3347.7 0,0.011 z" />
      <path
         inkscape:connector-curvature="0"
         id="path144"
         d="m 2215.9,3237.3 c 7.1404,2.6619 15.078,-0.9782 17.73,-8.1186 l 10.948,-29.431 35.753,13.289 c 0.2283,-0.7191 0.4806,-1.4383 0.76,-2.1575 l 21.329,8.0982 c -0.259,0.6715 -0.4601,1.3599 -0.6305,2.0416 l 33.65,12.519 c 0.2795,-0.559 0.5385,-1.1384 0.7601,-1.7417 l 284.85,108.13 c 0.01,-0.051 0.037,-0.092 0.058,-0.1398 l 21.38,7.9482 c -0.037,0.1023 -0.078,0.1909 -0.1192,0.2897 l 35.62,13.521 -11.138,29.359 c -2.713,7.12 0.8691,15.092 7.9993,17.788 l 95.961,36.435 c 0.6578,0.2386 1.319,0.4431 1.987,0.5794 -28.238,28.868 -70.518,40.286 -109,25.665 -37.89,-14.349 -67.232,-52.181 -72.88,-92.955 l -8.3913,-3.1902 c -0.021,0 -0.031,-0.01 -0.051,-0.01 l -283.48,-105.44 c -31.108,26.97 -78.088,36.101 -116.08,21.97 -38.579,-14.352 -62.856,-50.791 -65.099,-91.111 0.5896,0.3307 1.1997,0.6306 1.8711,0.8794 l 96.21,35.78" />
    </g>
    <g
       id="g146">
      <path
         style="fill:#595a5b"
         inkscape:connector-curvature="0"
         id="path148"
         d="m 2258.1,3089.8 c 37.669,14.008 67.069,51.101 73.33,91.449 3.3299,0.4806 6.6496,1.319 9.9182,2.5597 l 282.77,107.34 c 31.292,-26.772 78.32,-35.58 116.23,-21.19 38.47,14.598 62.509,51.21 64.482,91.547 -0.6033,-0.3408 -1.2134,-0.6373 -1.8712,-0.8895 l -95.961,-36.428 c -7.1303,-2.6993 -15.089,0.8794 -17.792,7.9994 l -11.149,29.359 -90.719,-34.438 c -0.01,0.027 -0.021,0.048 -0.041,0.078 l -342.65,-127.44 10.951,-29.441 c 2.6619,-7.137 -0.9781,-15.078 -8.1186,-17.74 l -96.21,-35.77 c -0.6612,-0.2488 -1.3191,-0.4295 -1.9905,-0.559 28.05,-29.059 70.249,-40.78 108.82,-26.438" />
      <path
         style="fill:#2d3f50"
         inkscape:connector-curvature="0"
         id="path150"
         d="m 3333.6,2750.2 -1.9734,1.97 0.092,-0.2693 c 0,0 0.6408,-0.6101 1.8814,-1.7007" />
      <path
         style="fill:#caa685"
         inkscape:connector-curvature="0"
         id="path152"
         d="m 3585.1,3193.5 309.34,0 0,-73.129 1.0566,0 c 11.111,-24.68 26.108,-47.212 44.172,-66.902 -52.113,15 -306.51,89.342 -354.57,125.67 l 0,14.359" />
      <path
         style="fill:#edcfad"
         inkscape:connector-curvature="0"
         id="path154"
         d="m 3585.1,3076.6 0,102.54 c 48.057,-36.329 302.45,-110.67 354.57,-125.67 20.586,-22.42 45.126,-41.159 72.563,-54.99 -30.232,-43.149 3.681,-132.55 -43.456,-156.87 l -32.754,-64.301 -26.483,-46.65 -179.04,-260.98 -144.99,282.41 -35.276,32.781 -17.655,45.392 -40.354,45.389 c -42.331,24.151 14.179,83.93 -13.565,123.8 44.104,21.169 81.118,35.637 106.44,77.151" />
      <path
         style="fill:#eed0ae"
         inkscape:connector-curvature="0"
         id="path156"
         d="m 2565.7,3156.8 -12.379,48.402 c 0,0 57.819,67.41 15,117.19 l -20.17,29.339 c 0,0 -1.6803,39.591 -22.498,39.141 -20.811,-0.4396 -21.179,-8.7491 -27.631,-13.31 0,0 -15.9,31.905 -36.909,27.311 -21.002,-4.591 -31.81,-29.059 -31.81,-29.059 0,0 -19.41,15.429 -32.9,8.4185 -13.5,-7.0313 -25.45,-25.9 -25.45,-25.9 0,0 -6.5406,8.6196 -20.62,3.7083 -14.09,-4.908 -20.47,-38.599 -20.47,-38.599 0,0 -12.999,-103.41 76.101,-157.35 l 26.401,-14.359 29.257,-58.18 104.08,63.248" />
      <path
         style="fill:#c1403c"
         inkscape:connector-curvature="0"
         id="path158"
         d="m 3319.3,2010.3 35.76,-1391.9 147.29,0 c 0,0 6.4076,944.65 249.97,944.65 l 0,499.65 -433.01,-52.44" />
      <path
         style="fill:#4c6b83"
         inkscape:connector-curvature="0"
         id="path160"
         d="m 3395.4,3035.4 c 72.011,20.47 127.87,32.999 127.87,32.999 l 154.81,-91.646 77.71,-7.7914 18.746,-1013.8 -463.4,0 -48.541,730.84 c 61.96,54.86 161.82,156.37 132.68,349.43" />
      <path
         style="fill:#b33936"
         inkscape:connector-curvature="0"
         id="path162"
         d="m 4177.9,2010.3 -36.3,-1391.8 -147.31,0 c 0,0 -5.2488,944.65 -248.81,944.65 l 0,499.65 432.45,-52.44" />
      <path
         style="fill:#eed0ae"
         inkscape:connector-curvature="0"
         id="path164"
         d="m 4393,2151.3 -23.517,-44.08 c 0,0 -88.139,-10.77 -90.116,-76.401 l -4.8739,-35.259 c 0,0 -25.46,-30.368 -9.8159,-44.08 15.678,-13.708 21.541,-7.8289 29.38,-8.8105 0,0 -9.7819,-34.281 8.8276,-45.058 18.609,-10.77 43.115,0 43.115,0 0,0 3.9196,-24.492 18.609,-28.412 14.69,-3.9195 36.23,1.9496 36.23,1.9496 0,0 -0.9884,-10.77 12.747,-16.639 13.701,-5.8692 41.138,14.69 41.138,14.69 0,0 79.346,67.57 49.932,167.49 l -9.7819,28.408 17.621,62.693 -119.5,23.507" />
      <path
         style="fill:#3f6678"
         inkscape:connector-curvature="0"
         id="path166"
         d="m 4619.3,2623.6 c -32.686,90.862 -103.65,161.1 -177.98,234.71 -57.26,56.701 -119.15,99.99 -204.43,139.12 l 0,0.021 c -118.92,41.898 -248.43,70.958 -248.43,70.958 l -154.77,-91.646 -77.71,-7.7914 -18.78,-1013.8 463.29,0 61.656,716.88 c 3.6469,0.6578 7.2598,1.2883 10.804,1.7894 45.706,-7.1098 92.297,-21.21 130.68,-47.331 23.142,-18.19 38.275,-39.22 49.455,-70.89 39.468,-111.71 14.008,-243.55 -77.88,-405.15 l 153.07,-87.011 c 62.236,109.5 100.61,214.61 114.08,312.43 12.134,88.16 4.3627,171.51 -23.04,247.74" />
      <path
         style="fill:#bec9b2"
         inkscape:connector-curvature="0"
         id="path168"
         d="m 4399.8,331.76 c 0,0 26.551,-4.4404 24.335,-48.65 -2.2154,-44.221 -128.26,-75.19 -223.31,-55.28 -95.092,19.9 -263.12,110.55 -263.12,110.55 0,0 -6.6122,48.651 6.6462,57.499 13.258,8.8412 455.45,-64.12 455.45,-64.12" />
      <path
         style="fill:#2b3548"
         inkscape:connector-curvature="0"
         id="path170"
         d="m 4138.3,497.58 c 0,0 38.173,6.6394 95.672,-30.941 57.498,-37.601 172.46,-37.59 181.32,-150.36 0,0 -24.335,-42.019 -128.26,-42.019 -103.925,0 -336.09,99.509 -336.09,99.509 0,0 -33.163,103.9 28.766,114.97 l 158.59,8.8412" />
      <path
         style="fill:#dab490"
         inkscape:connector-curvature="0"
         id="path172"
         d="m 3998.2,527.57 c 0,0 -57.089,-83.538 42.434,-92.379 0,0 53.988,64.598 97.682,62.389 l 0,51.142 -138.68,28.449 -1.4315,-49.601" />
      <path
         style="fill:#bec9b2"
         inkscape:connector-curvature="0"
         id="path174"
         d="m 3082.8,331.76 c 0,0 -26.53,-4.4404 -24.332,-48.65 2.2222,-44.221 128.25,-75.19 223.32,-55.28 95.082,19.9 263.1,110.55 263.1,110.55 0,0 6.6462,48.651 -6.6121,57.499 -13.258,8.8412 -455.47,-64.12 -455.47,-64.12" />
      <path
         style="fill:#2b3548"
         inkscape:connector-curvature="0"
         id="path176"
         d="m 3344.3,497.58 c 0,0 -38.19,6.6394 -95.682,-30.941 -57.488,-37.601 -172.47,-37.59 -181.31,-150.36 0,0 24.322,-42.019 128.24,-42.019 103.918,0 336.1,99.509 336.1,99.509 0,0 33.163,103.9 -28.766,114.97 l -158.58,8.8412" />
      <path
         style="fill:#dab490"
         inkscape:connector-curvature="0"
         id="path178"
         d="m 3484.4,527.57 c 0,0 57.055,-83.538 -42.434,-92.379 0,0 -53.988,64.598 -97.676,62.389 l 0,51.142 138.68,28.449 1.4315,-49.601" />
      <path
         style="fill:#d54a4b"
         inkscape:connector-curvature="0"
         id="path180"
         d="m 3954.9,564.69 c 0,-16.04 13.02,-29.039 29.073,-29.039 l 174.74,0 c 16.053,0 29.039,12.999 29.039,29.039 l 0,60.77 c 0,16.04 -12.986,29.049 -29.039,29.049 l -174.74,0 c -16.053,0 -29.073,-13.01 -29.073,-29.049 l 0,-60.77" />
      <path
         style="fill:#d54a4b"
         inkscape:connector-curvature="0"
         id="path182"
         d="m 3314.8,564.69 c 0,-16.04 13.003,-29.039 29.039,-29.039 l 174.78,0 c 16.019,0 29.039,12.999 29.039,29.039 l 0,60.77 c 0,16.04 -13.02,29.049 -29.039,29.049 l -174.78,0 c -16.036,0 -29.039,-13.01 -29.039,-29.049 l 0,-60.77" />
      <path
         style="fill:#ffffff"
         inkscape:connector-curvature="0"
         id="path184"
         d="m 3829.9,2974.9 -116.8,-7.1302 -136.71,-15.661 59.816,-162.36 29.891,-229.29 86.605,-261.8 155.52,582.24 -78.323,94.002" />
      <path
         style="fill:#f26973"
         inkscape:connector-curvature="0"
         id="path186"
         d="m 3758.5,2966.9 0,0.3375 0.3749,-0.167 0.3749,0.167 0,-0.3375 62.543,-29.049 -22.631,-49.243 -80.47,0 -22.699,49.243 62.509,29.049" />
      <path
         style="fill:#f36b73"
         inkscape:connector-curvature="0"
         id="path188"
         d="m 3798.9,2884.2 -79.38,0 -35.992,-344.66 69.291,-243.56 89.434,261.2 -43.354,327.02" />
      <path
         style="fill:#eed0ae"
         inkscape:connector-curvature="0"
         id="path190"
         d="m 4045.3,3528.1 c -7.0893,-48.705 6.5781,-91.036 30.436,-94.547 23.926,-3.5106 49.046,33.095 56.135,81.8 7.0893,48.671 -6.544,91.002 -30.436,94.547 -23.892,3.5106 -49.012,-33.095 -56.135,-81.8" />
      <path
         style="fill:#dbb591"
         inkscape:connector-curvature="0"
         id="path192"
         d="m 3449.6,3532.1 c 4.6694,-48.091 -9.4069,-88.787 -31.322,-90.9 -21.922,-2.1473 -43.453,35.072 -48.091,83.129 -4.6319,48.091 9.4069,88.787 31.329,90.934 21.943,2.1131 43.483,-35.106 48.084,-83.163" />
      <path
         style="fill:#dbb591"
         inkscape:connector-curvature="0"
         id="path194"
         d="m 3745.8,3893.8 c -290.01,7.8051 -322.5,-112.3 -322.5,-339.13 0,-230.08 143.73,-417.02 322.5,-422.16 2.5222,-0.072 5.0103,-0.242 7.5324,-0.242 l 0,761.67 c -2.5221,-0.034 -5.0443,-0.2045 -7.5324,-0.1364" />
      <path
         style="fill:#eed0ae"
         inkscape:connector-curvature="0"
         id="path196"
         d="m 4083.4,3554.6 c 0,233.27 -140.25,339.4 -322.56,339.4 -2.4881,0 -4.9762,-0.068 -7.4643,-0.1363 l 0,-761.67 c 182.28,0 330.03,189.11 330.03,422.41" />
    </g>
    <g
       style="fill:#754b36"
       id="g198">
      <path
         inkscape:connector-curvature="0"
         id="path200"
         d="m 3422,3528.2 c 0,0 -33.303,242.26 -8.1459,268.47 25.188,26.244 38.787,17.86 38.787,17.86 0,0 -31.459,48.228 -20.961,70.245 10.498,22.018 101.7,178.26 375.39,143.66 273.69,-34.594 288.38,-288.38 288.38,-288.38 0,0 -7.362,-198.16 -15.746,-234.87 l -14.69,2.0791 -29.346,241.17 c 0,0 -33.572,-59.748 -135.28,-25.153 -101.7,34.594 -225.43,198.19 -413.12,87.048 0,0 -29.38,-36.708 -30.436,-53.476 -1.0225,-16.803 -31.425,-197.14 -18.848,-244.34 l -15.985,15.678" />
      <path
         inkscape:connector-curvature="0"
         id="path202"
         d="m 3489.3,3634.8 c -4.8398,0 -9.5092,2.6926 -11.793,7.362 -3.2038,6.5099 -0.5112,14.417 6.0327,17.587 0.8521,0.4431 21.847,10.566 56.714,16.496 31.834,5.4192 82.14,8.2482 140.97,-8.9639 6.9871,-2.045 10.975,-9.3388 8.9298,-16.292 -2.045,-6.9871 -9.3388,-10.975 -16.292,-8.9298 -103.17,30.164 -178.05,-5.5556 -178.8,-5.8964 -1.8405,-0.9203 -3.8174,-1.3634 -5.7601,-1.3634" />
      <path
         inkscape:connector-curvature="0"
         id="path204"
         d="m 3990,3634.8 c -1.9428,0 -3.8855,0.4431 -5.7601,1.3293 -0.409,0.2045 -19.393,9.2025 -50.648,14.383 -28.903,4.7717 -74.608,7.1916 -128.15,-8.4526 -6.953,-2.045 -14.247,1.9427 -16.292,8.9298 -2.045,6.9529 1.9427,14.247 8.9298,16.292 58.828,17.212 109.13,14.383 140.97,8.9639 34.867,-5.9305 55.862,-16.053 56.714,-16.496 6.5439,-3.1697 9.2365,-11.077 6.0327,-17.587 -2.2836,-4.6694 -6.953,-7.362 -11.793,-7.362" />
      <path
         inkscape:connector-curvature="0"
         id="path206"
         d="m 4069.8,3521.7 c -45.262,-150.45 -128.08,-188.58 -165.99,-198.22 -2.7266,8.2379 -14.383,36.97 -62.849,48.419 -20.348,5.9305 -44.07,10.412 -62.066,10.44 -5.1806,0.1704 -10.6,0.3715 -16.224,0.3715 l -19.87,0 c -5.6919,0 -11.145,-0.2079 -16.394,-0.3783 -17.587,-0.051 -40.559,-4.4411 -60.498,-10.041 -49.557,-11.343 -61.486,-40.361 -64.281,-48.722 -37.969,9.741 -120.55,47.999 -165.75,198.14 l -13.736,6.5099 c 0,0 25.017,-412.26 329.11,-415.9 l 0,-0.078 c 0,0 1.1248,0.031 1.8065,0.041 0.1363,-0.01 -0.1364,-0.01 0.034,-0.01 0.5113,-0.01 1.0907,-0.031 1.0907,-0.031 l 0,0.078 c 304.09,3.6333 329.24,415.86 329.24,415.86 l -13.633,-6.4758" />
    </g>
    <g
       id="g208">
      <path
         style="fill:#dbb591"
         inkscape:connector-curvature="0"
         id="path210"
         d="m 3744.9,3416.1 c 0,-13.712 -16.053,-24.823 -35.821,-24.823 -19.802,0 -35.856,11.111 -35.856,24.823 0,13.667 16.053,24.778 35.856,24.778 19.768,0 35.821,-11.111 35.821,-24.778" />
      <path
         style="fill:#efd1ae"
         inkscape:connector-curvature="0"
         id="path212"
         d="m 3837.8,3416.1 c 0,-13.712 -16.053,-24.823 -35.821,-24.823 -19.802,0 -35.822,11.111 -35.822,24.823 0,13.667 16.019,24.778 35.822,24.778 19.768,0 35.821,-11.111 35.821,-24.778" />
      <path
         style="fill:#dbb591"
         inkscape:connector-curvature="0"
         id="path214"
         d="m 3718.6,3403 c 0,-13.432 15.44,-24.363 34.697,-24.782 l 0,49.554 c -19.3,-0.4 -34.7,-11.4 -34.7,-24.8" />
      <path
         style="fill:#eed0ae"
         inkscape:connector-curvature="0"
         id="path216"
         d="m 3754.5,3427.8 c -0.3749,0 -0.7499,0 -1.1248,-0.034 l 0,-49.554 c 0.3749,-0.01 0.7499,-0.021 1.1248,-0.021 19.768,0 35.821,11.111 35.821,24.802 0,13.695 -16.053,24.806 -35.821,24.806" />
      <path
         style="fill:#d6d4d1"
         inkscape:connector-curvature="0"
         id="path218"
         d="m 3884.5,2842 -124.03,123.62 130.71,-105.61 -6.6803,-18.01" />
      <path
         style="fill:#d6d4d1"
         inkscape:connector-curvature="0"
         id="path220"
         d="m 3757,2969.1 1.7724,1.0907 -0.2727,-2.5801 -1.5,1.5" />
      <path
         style="fill:#ffffff"
         inkscape:connector-curvature="0"
         id="path222"
         d="m 3758.8,2970.2 177.71,108.94 19.564,-43.831 -64.894,-175.22 -130.71,105.61 -1.9427,1.9189 0.2727,2.5801" />
      <path
         style="fill:#d6d4d1"
         inkscape:connector-curvature="0"
         id="path224"
         d="m 3633.8,2842 124.03,123.62 -130.71,-105.61 6.6803,-18.01" />
      <path
         style="fill:#ffffff"
         inkscape:connector-curvature="0"
         id="path226"
         d="m 3759.5,2970.2 -177.71,108.94 -19.564,-43.831 64.894,-175.22 130.71,105.61 1.9427,1.9189 -0.2726,2.5801" />
      <path
         style="fill:#c1bebb"
         inkscape:connector-curvature="0"
         id="path228"
         d="m 3915.4,3067.9 -162.61,-771.81 185.04,446.57 -33.64,50.47 92.536,-7.0109 27.676,277.14 c 0,0 -76.721,36.878 -109,4.6387" />
      <path
         style="fill:#c1bebb"
         inkscape:connector-curvature="0"
         id="path230"
         d="m 3593.1,3077.4 159.58,-781.37 -182,456.12 33.64,50.474 -92.536,-7.0109 -24.983,268.19 c 0,0 74.063,45.838 106.31,13.599" />
      <path
         style="fill:#4c6b83"
         inkscape:connector-curvature="0"
         id="path232"
         d="m 2977.8,2648.8 c -67.321,0 -131.56,12.198 -191.74,36.49 -272.6,110.02 -364.57,427.24 -368.35,440.69 l 170.63,47.969 -0.072,0.2488 c 0.7089,-2.4676 73.32,-248.2 265,-324.9 120.03,-48.04 530.64,180.63 542.05,185.86 11.408,5.2318 9.758,-297.38 9.758,-297.38 -115.48,-67.584 -248.63,-70.723 -352.12,-84.063 -25.44,-3.2788 -50.511,-4.9182 -75.16,-4.9182" />
      <path
         style="fill:#e86073"
         inkscape:connector-curvature="0"
         id="path234"
         d="m 3669.1,3304.7 c 0,0 0.852,-3.6197 2.9652,-9.1105 4.7035,-12.188 15.678,-34.179 37.321,-49.09 11.622,-7.9993 26.312,-13.998 44.785,-15.368 18.439,1.3701 33.129,7.3279 44.751,15.327 21.677,14.911 32.618,36.953 37.321,49.141 2.1472,5.4806 2.9652,9.1003 2.9652,9.1003 l -170.11,0" />
      <path
         style="fill:#eed0ae"
         inkscape:connector-curvature="0"
         id="path236"
         d="m 3678.1,3297.5 c 0.034,0 0.068,0.15 0.068,0.099 4.3286,-11.179 14.588,-31.898 34.935,-45.91 11.929,-8.1902 25.733,-12.89 41.104,-14.1 15.338,1.2099 29.175,6.0089 41.07,14.202 20.348,13.998 30.607,34.608 34.935,45.787 0.034,0.051 0.034,-0.078 0.068,-0.078 z m 76.108,-72.88 c -0.1704,0 -0.3408,0.01 -0.4771,0.021 -17.894,1.319 -34.015,6.8575 -47.989,16.469 -23.245,15.978 -34.867,39.468 -39.707,52.048 -2.2495,5.8112 -3.1697,9.6524 -3.2379,9.8126 -0.4772,1.9393 -0.034,3.7389 1.227,5.3102 1.227,1.5678 3.1016,2.2392 5.1125,2.2392 l 170.11,0 c 2.0109,0 3.9196,-0.6714 5.1466,-2.2392 1.227,-1.5713 1.6701,-3.5004 1.1929,-5.4431 -0.034,-0.1602 -0.9884,-3.9264 -3.2379,-9.7376 -4.8398,-12.58 -16.462,-36.04 -39.707,-52.031 -13.94,-9.6012 -30.096,-15.13 -47.955,-16.449 -0.1704,-0.01 -0.3408,0 -0.4772,0" />
      <path
         style="fill:#ffffff"
         inkscape:connector-curvature="0"
         id="path238"
         d="m 3798.9,3246.4 -89.537,0 c 11.622,-7.9891 26.312,-13.967 44.785,-15.327 18.439,1.3599 33.129,7.3381 44.751,15.327" />
      <path
         style="fill:#ffffff"
         inkscape:connector-curvature="0"
         id="path240"
         d="m 3669.1,3304.5 c 0,0 0.852,-3.5208 2.9652,-9.0116 0.6817,-1.711 1.4656,-3.6197 2.3858,-5.6715 l 159.44,0 c 0.9203,2.0518 1.7042,3.9605 2.3518,5.6715 2.1472,5.4908 2.9652,9.0116 2.9652,9.0116 l -170.11,0" />
      <path
         style="fill:#e86073"
         inkscape:connector-curvature="0"
         id="path242"
         d="m 3674.4,3289.8 c 5.6238,-12.549 16.326,-30.549 34.935,-43.371 l 89.537,0 c 18.609,12.822 29.346,30.822 34.969,43.371 l -159.44,0" />
      <path
         style="fill:#ffffff"
         inkscape:connector-curvature="0"
         id="path244"
         d="m 3654.9,3568.2 c 0,0 -29.755,-28.323 -66.428,-28.323 -36.708,0 -66.462,28.323 -66.462,28.323 0,0 29.755,28.323 66.462,28.323 36.674,0 66.428,-28.323 66.428,-28.323" />
      <path
         style="fill:#ffffff"
         inkscape:connector-curvature="0"
         id="path246"
         d="m 3984.2,3568.2 c 0,0 -29.755,-28.323 -66.462,-28.323 -36.674,0 -66.428,28.323 -66.428,28.323 0,0 29.755,28.323 66.428,28.323 36.708,0 66.462,-28.323 66.462,-28.323" />
      <path
         style="fill:#1d1714"
         inkscape:connector-curvature="0"
         id="path248"
         d="m 3616.4,3568.3 c 0,-15.303 -12.406,-27.744 -27.71,-27.744 -15.338,0 -27.744,12.44 -27.744,27.744 0,15.303 12.406,27.744 27.744,27.744 15.303,0 27.71,-12.44 27.71,-27.744" />
      <path
         style="fill:#ffffff"
         inkscape:connector-curvature="0"
         id="path250"
         d="m 3604.5,3575.7 c 0,-5.1466 -4.1582,-9.3047 -9.3047,-9.3047 -5.1466,0 -9.3047,4.1581 -9.3047,9.3047 0,5.1466 4.1581,9.3047 9.3047,9.3047 5.1465,0 9.3047,-4.1581 9.3047,-9.3047" />
      <path
         style="fill:#1d1714"
         inkscape:connector-curvature="0"
         id="path252"
         d="m 3945.8,3568.3 c 0,-15.303 -12.406,-27.744 -27.71,-27.744 -15.337,0 -27.744,12.44 -27.744,27.744 0,15.303 12.406,27.744 27.744,27.744 15.303,0 27.71,-12.44 27.71,-27.744" />
      <path
         style="fill:#ffffff"
         inkscape:connector-curvature="0"
         id="path254"
         d="m 3933.9,3575.7 c 0,-5.1466 -4.1581,-9.3047 -9.3047,-9.3047 -5.1465,0 -9.3047,4.1581 -9.3047,9.3047 0,5.1466 4.1582,9.3047 9.3047,9.3047 5.1466,0 9.3047,-4.1581 9.3047,-9.3047" />
      <path
         style="fill:#88b9ba"
         inkscape:connector-curvature="0"
         id="path256"
         d="m 2322.9,4292 c 0,-138.99 -112.67,-251.67 -251.67,-251.67 -139,0 -251.67,112.68 -251.67,251.67 0,138.99 112.67,251.67 251.67,251.67 139,0 251.67,-112.68 251.67,-251.67" />
      <path
         style="fill:#f4fbfa"
         inkscape:connector-curvature="0"
         id="path258"
         d="m 2349,4306.5 c 0,-138.99 -112.68,-251.67 -251.67,-251.67 -139,0 -251.68,112.68 -251.68,251.67 0,138.99 112.68,251.67 251.68,251.67 138.99,0 251.67,-112.68 251.67,-251.67" />
      <path
         style="fill:#88b9ba"
         inkscape:connector-curvature="0"
         id="path260"
         d="m 799.94,2552 c 0,-139 -112.67,-251.68 -251.67,-251.68 -139,0 -251.67,112.68 -251.67,251.68 0,139 112.67,251.67 251.67,251.67 139,0 251.67,-112.67 251.67,-251.67" />
      <path
         style="fill:#f4fbfa"
         inkscape:connector-curvature="0"
         id="path262"
         d="m 826,2566.5 c 0,-139 -112.68,-251.68 -251.67,-251.68 -138.99,0 -251.68,112.68 -251.68,251.68 0,139 112.68,251.67 251.68,251.67 139,0 251.67,-112.67 251.67,-251.67" />
    </g>
    <g
       style="fill:#008080"
       id="g264">
      <g
         id="g266">
        <path
           inkscape:connector-curvature="0"
           id="path268"
           d="m 394.02,2597 0,-41.977 40.689,0 0,41.977 24.639,0 0,-109.26 -24.639,0 0,45.719 -40.689,0 0,-45.719 -24.802,0 0,109.26 24.802,0" />
        <path
           inkscape:connector-curvature="0"
           id="path270"
           d="m 501.98,2576.3 -29.339,0 0,20.746 83.971,0 0,-20.746 -29.83,0 0,-88.511 -24.802,0 0,88.511" />
        <path
           inkscape:connector-curvature="0"
           id="path272"
           d="m 661.49,2529.6 c -0.48399,13.129 -0.97138,29.008 -0.97138,44.898 l -0.48739,0 c -3.4015,-13.94 -7.9414,-29.499 -12.154,-42.308 l -13.292,-42.631 -19.294,0 -11.67,42.311 c -3.5651,12.798 -7.2938,28.361 -9.8875,42.628 l -0.32719,0 c -0.64759,-14.748 -1.1316,-31.609 -1.9428,-45.228 l -1.9462,-41.5 -22.856,0 6.97,109.26 32.907,0 10.699,-36.469 c 3.4049,-12.648 6.8098,-26.261 9.24,-39.07 l 0.48739,0 c 3.0811,12.652 6.8098,27.069 10.375,39.23 l 11.67,36.309 32.263,0 5.9952,-109.26 -24.155,0 -1.6224,41.83" />
        <path
           inkscape:connector-curvature="0"
           id="path274"
           d="m 706.23,2597 24.802,0 0,-88.507 43.442,0 0,-20.75 -68.245,0 0,109.26" />
      </g>
      <text
         id="text276"
         style="font-weight:bold;font-size:144px;line-height:1.25;font-family:sans-serif;letter-spacing:0px;word-spacing:0px"
         xml:space="preserve"
         font-size="144px"
         transform="scale(1,-1)"
         y="-4247.8813"
         x="1864.4067"
         font-weight="bold"
         line-height="1.25"><tspan
           style="font-weight:bold;font-size:144px;font-family:sans-serif;fill:#008080;stroke-width:0.75"
           id="tspan278"
           font-size="144px"
           y="-4247.8813"
           x="1864.4067"
           font-weight="bold">META </tspan></text>
    </g>
  </g>
</svg>
