<?xml version="1.0" encoding="UTF-8" standalone="no"?>
<svg id="svg2" xmlns:rdf="http://www.w3.org/1999/02/22-rdf-syntax-ns#" xmlns="http://www.w3.org/2000/svg" height="468" width="513" version="1.1" xmlns:cc="http://creativecommons.org/ns#" xmlns:dc="http://purl.org/dc/elements/1.1/">
 <metadata id="metadata38">
  <rdf:RDF>
   <cc:Work rdf:about="">
    <dc:format>image/svg+xml</dc:format>
    <dc:type rdf:resource="http://purl.org/dc/dcmitype/StillImage"/>
    <dc:title/>
   </cc:Work>
  </rdf:RDF>
 </metadata>
 <g id="g4" fill-rule="evenodd" transform="matrix(1.0526 -.032650 .030245 1.1362 -42.214 .13004)">
  <path id="path6" fill="#418291" d="m303.46 352.29c48.566 0 88.176-13.694 88.176-30.485 0-16.79-39.61-30.486-88.176-30.486s-88.175 13.696-88.175 30.487c0 16.79 39.61 30.485 88.176 30.485"/>
  <path id="path8" fill="#0f424d" d="m387.22 318.27c-10.96 12.526-44.598 21.645-84.403 21.645s-73.444-9.12-84.404-21.645c10.96-12.524 44.6-21.644 84.404-21.644 39.805 0 73.444 9.12 84.404 21.643"/>
  <path id="path10" fill="#6b9916" d="m252.22 321.69c-9.693-12.594-20.64-29.016-30.902-47.23-13.708 6.923-27.724 16.917-40.755 28.014-17.486 14.89-31.022 29.146-41.692 43.085-3.88 5.065-5.878 6.08-4.53 12.425 1.883 8.845 3.715 17.026 1.375 18.903-4.12 3.307-4.823-9.36-11.328-7.366-9.558 2.93-11.627 25.016-15.782 24.164-7.628-1.566 7.74-21.733-3.458-27.548-3.008-1.563-15.422 14.003-19.43 10.497-5.997-5.243 9.706-10.933 9.64-15.767-0.063-4.616-12.784 5.777-12.993 0.335-0.364-9.487 13.71-5.21 31.044-14.65 4.19-2.28 4.248-3.44 7.142-7.405 11.56-15.83 29.38-35.425 49.433-52.5 13.367-11.378 27.813-21.73 42.21-29.275-3.692-7.312-7.2-14.79-10.41-22.333-6.055-8.072-15.965-16.313-26.206-21.465-4.762-2.396-9.504-4.04-13.815-4.56-3.578-0.43-6.708-0.08-9.025 1.317-1.663 1.004-3.068 2.723-4.092 5.315-4.08 10.335-5.15 23.876-6.11 36.016-0.61 7.728-1.182 14.95-2.418 21.134-1.49 7.448-2.01 6.162 0.502 13.908 2.28 7.038 4.435 10.99 2.382 12.998-3.823 3.735-9.18-4.978-11.725-3.69-9.035 4.585-10.34 30.033-14.552 29.666-6.907-0.607 4.606-29.503-2.884-31.41-10.693-2.71-14.826 15.015-20.6 10.96-6.44-4.52 8.665-11.996 8.16-16.798-0.48-4.587-13.79-0.222-14.44-5.62-0.787-6.51 14.712 0.688 31.098-10.706 7.302-5.078 5.41-3.81 6.423-14.922 0.213-2.324 0.405-4.746 0.6-7.228 1.086-13.74 2.3-29.066 7.554-42.376 2.715-6.875 6.807-11.654 11.856-14.698 5.658-3.412 12.217-4.4 19.124-3.567 6.173 0.742 12.713 2.97 19.107 6.188 1.06 0.534 2.118 1.1 3.17 1.687-0.753-3.87-1.99-7.62-3.643-11.09-2.857-5.996-6.915-11.056-11.8-14.336-4.696-3.15-10.21-4.68-16.184-3.79-3.57 0.53-7.38 1.93-11.384 4.358-3.95 2.395-7.926 4.266-11.877 5.66-13.386 4.713-26.542 4.003-37.502-0.256-9.377-3.647-17.253-9.944-22.48-17.78-4.068-6.104-5.075-14.934-10.096-18.45-8.712-6.1-25.923-5.54-24.516-10.556 1.457-5.19 16.068 0.64 17.235-3.787 1.222-4.634-11.25-14.715-6.08-18.093 4.387-2.867 17.217 17.947 20.26 16.474 5.667-2.743-3.042-29.893 4.675-29.07 4.205 0.45 2.92 24.54 8.212 29.353 3.892 3.54 10.266-5.148 13.468-0.73 2.078 2.867-6.085 9.303-9.288 15.316-3.36 6.316 2.217 11.107 6.713 14.41 2.25 1.654 4.808 3.058 7.6 4.14 7.702 2.996 17.016 3.47 26.58 0.1 2.922-1.028 5.863-2.41 8.783-4.185 5.914-3.59 11.765-5.687 17.43-6.53 10.165-1.508 19.485 1.05 27.383 6.35 1.455 0.978 2.86 2.048 4.214 3.203 0.93-25.973 12.595-46.523 41.833-54.49 52.235-14.235 71.098 7.304 78.694 36.082 48.73-14.642 60.632-51.54 63.5-71.15 0.808-5.525 2.032-8.68-1.09-12.793-5.718-7.53-12.167-14.282-10.693-17.4 2.38-5.035 8.052 5.884 13.054 0.785 7.35-7.494-6.06-23.762-3.23-27.3 6.127-7.648 9.024 24.35 16.694 20.494 3.62-1.823 5.035-15.775 9.374-18.734 7.61-5.193-1.942 19.01 1.958 21.01 4.022 2.06 7.09-7.907 10.54-4.1 6.712 7.416-16.728 18.71-17.345 25.885-4.687 54.705-30.965 88.6-79.18 102.72 0.814 6.608 1.32 13.265 1.748 19.685 4.084-6.857 9.376-12.703 15.58-16.867 7.898-5.3 17.22-7.86 27.384-6.35 5.665 0.842 11.517 2.94 17.428 6.53 2.923 1.773 5.863 3.155 8.787 4.185 9.56 3.367 18.876 2.893 26.577-0.1 5.38-2.09 18.598-9.61 14.617-17.952-2.95-6.178-11.74-12.952-9.59-15.914 3.202-4.418 9.575 4.27 13.467 0.73 5.29-4.813 6.066-31.232 10.273-31.68 7.714-0.823-3.048 28.655 2.61 31.397 3.05 1.472 15.882-19.34 20.262-16.475 5.17 3.378-7.3 13.46-6.074 18.094 1.167 4.424 15.775-1.404 17.228 3.788 1.603 5.703-20.885 4.193-27.554 13.48-3.432 4.79-3.65 11.828-9.874 19.298-5.065 6.084-11.84 10.966-19.662 14.006-10.96 4.26-24.115 4.968-37.502 0.256-3.95-1.392-7.926-3.262-11.876-5.66-4.003-2.43-7.814-3.828-11.384-4.36-5.974-0.886-11.487 0.64-16.183 3.793-4.886 3.28-8.943 8.34-11.798 14.336-2.15 4.51-3.597 9.488-4.192 14.592-0.376 3.24-2.1 5.91-4.453 7.38 0.04 0.165 0.08 0.33 0.117 0.496 2.044-1.952 4.244-3.887 6.568-5.754 9.988-8.035 22.497-15.044 35.252-17.534 13.737-2.68 27.71-0.26 39.448 11.187 2.925 2.85 5.67 6.25 8.198 10.25 13.168 20.872 15.087 35.366 15.358 45.27 0.166 6.366-0.624 9.903 6.668 11.243 9.265 1.703 26.11 0.32 25.966 5.115-0.158 5.442-13.788 2.64-13.856 7.26-0.068 4.834 15.64 10.522 9.64 15.766-4.003 3.505-16.413-12.06-19.424-10.495-11.203 5.814 3.477 30.633-4.147 32.2-4.154 0.854-5.54-25.887-15.096-28.818-6.504-1.995-7.188 10.643-11.328 7.367-2.604-2.06-0.3-11.697 1.87-21.48 1.815-8.176 2.656-11.64 2.05-19.748-0.547-7.346-2.805-17.635-11.995-32.2-1.692-2.683-3.496-4.92-5.378-6.758-7.146-6.966-16.064-8.358-25.02-6.61-9.94 1.94-19.93 7.596-28.04 14.12-3.984 3.204-7.465 6.575-10.224 9.785 10.9 27.364 29.853 55.328 48.628 74.46l-116.54 11.43"/>
  <path id="path12" fill="#fff" d="m226.05 148.93c9.406-0.42 17.33 7.852 17.702 18.467 0.368 10.62-6.955 19.566-16.36 19.982-9.407 0.42-17.33-7.85-17.702-18.468-0.37-10.617 6.955-19.566 16.36-19.982"/>
  <path id="path14" fill="#84b32d" d="m247.53 99.25c0.066 0.467 0.1 0.944 0.1 1.43 0 4.926-3.536 8.92-7.9 8.92-4.03 0-7.352-3.405-7.84-7.804 5.62-1.28 10.826-2.116 15.64-2.545m-18.928 3.333c0.306 0.713 0.478 1.516 0.478 2.362 0 2.998-2.153 5.43-4.81 5.43-2.55 0-4.638-2.245-4.8-5.08 1.9-0.69 3.884-1.32 5.96-1.886 1.073-0.293 2.126-0.564 3.172-0.826m-58.68 47.373c-0.516 4.366-3.825 7.733-7.832 7.733-4.363 0-7.902-3.994-7.902-8.92 0-0.23 0.01-0.46 0.024-0.688 5.54-0.51 10.807 0.192 15.71 1.875m-35.278 4.875c0.2 0.785 0.306 1.613 0.306 2.47 0 4.926-3.537 8.92-7.902 8.92-3.296 0-6.122-2.282-7.306-5.52 1.995-0.382 4.013-0.924 6.043-1.638 2.922-1.03 5.863-2.412 8.783-4.186l0.076-0.046m190.71-24.22c0.39 1.056 0.606 2.214 0.606 3.43 0 4.926-3.536 8.92-7.902 8.92-3.34 0-6.197-2.342-7.352-5.65 5.365-1.97 10.23-4.227 14.65-6.7m22.164-17.753c1.125 1.54 1.8 3.515 1.8 5.67 0 4.925-3.536 8.92-7.9 8.92-2.474 0-4.683-1.285-6.13-3.294 4.71-3.542 8.758-7.35 12.23-11.297m28.364 52.173c-1.444 2.144-3.725 3.527-6.294 3.527-4.364 0-7.902-3.996-7.902-8.92 0-0.586 0.05-1.158 0.147-1.714 2.65 1.037 5.327 2.362 8.01 3.992 2.008 1.22 4.026 2.253 6.04 3.114m-25.335-9.875c0.955 1.474 1.52 3.292 1.52 5.26 0 4.926-3.537 8.918-7.902 8.918-4.363 0-7.9-3.992-7.9-8.92 0-1.536 0.343-2.976 0.948-4.238 4.218-1.105 8.683-1.49 13.334-1.02m-168.45 40.05c1.44 1.615 2.33 3.85 2.33 6.324 0 4.926-3.536 8.92-7.9 8.92-4.366 0-7.903-3.994-7.903-8.92 0-4.81 3.375-8.73 7.597-8.913 1.96 0.76 3.925 1.627 5.876 2.59m-17.29-5.71c0.248 0.86 0.38 1.777 0.38 2.73 0 4.927-3.537 8.92-7.9 8.92-4.366 0-7.903-3.993-7.903-8.92 0-0.566 0.047-1.12 0.137-1.657 4.386-1.494 9.154-1.832 14.1-1.235 0.394 0.046 0.79 0.1 1.187 0.16m-24.013 31.819c2.075 0 3.966 0.905 5.375 2.383-1.128 4.702-1.88 9.745-2.446 14.825-0.906 0.408-1.893 0.632-2.93 0.632-4.362 0-7.9-3.992-7.9-8.918 0-4.928 3.538-8.92 7.9-8.92m-17.175 55.07c4.364 0 7.9 3.995 7.9 8.92 0 4.927-3.536 8.918-7.9 8.918s-7.902-3.99-7.902-8.92c0-4.923 3.538-8.918 7.902-8.918m5.498 65.93c3.49 0 6.454 2.557 7.497 6.103-2.32 2.914-3.313 4.615-2.282 9.517-1.39 1.382-3.218 2.218-5.216 2.218-4.365 0-7.903-3.993-7.903-8.92 0-4.925 3.538-8.918 7.902-8.918m18.314-34.529c2.398 1.532 4.017 4.435 4.017 7.768 0 4.927-3.538 8.92-7.902 8.92-3.094 0-5.77-2.004-7.067-4.925 3.442-3.88 7.106-7.822 10.952-11.764m27.721-24.42c4.364 0 7.902 3.994 7.902 8.92 0 4.928-3.538 8.92-7.902 8.92s-7.902-3.992-7.902-8.92c0-1.428 0.298-2.775 0.826-3.972 0.636-0.548 1.275-1.096 1.915-1.645 1.25-1.062 2.514-2.12 3.784-3.168 0.448-0.088 0.908-0.135 1.38-0.135m31.026-22.658c2.204 1.58 3.668 4.364 3.668 7.534 0 4.926-3.537 8.92-7.9 8.92-4.345 0-7.874-3.962-7.9-8.86 4.017-2.71 8.07-5.253 12.132-7.593m121.32-56.203c3.455 0.953 6.02 4.47 6.02 8.662 0 4.93-3.54 8.922-7.902 8.922-4.364 0-7.903-3.994-7.903-8.923 0-0.443 0.03-0.882 0.09-1.31 0.78-0.67 1.584-1.338 2.402-1.993 2.305-1.857 4.748-3.657 7.294-5.36m35.905-1.807c4.363 0 7.9 3.994 7.9 8.92v0.232c-4.154-0.927-8.52-0.824-12.892 0.03-0.956 0.184-1.912 0.406-2.866 0.66-0.027-0.302-0.043-0.61-0.043-0.92 0-4.928 3.538-8.922 7.902-8.922m40.964 13.12c-1.187 3.228-4.01 5.497-7.297 5.497-4.363 0-7.902-3.993-7.902-8.92 0-4.172 2.538-7.674 5.964-8.65 2.84 2.804 5.508 6.13 7.968 10.025 0.434 0.69 0.856 1.373 1.267 2.048m5.07 55.914c4.363 0 7.9 3.994 7.9 8.92 0 4.928-3.537 8.92-7.9 8.92-4.365 0-7.9-3.992-7.9-8.92 0-4.926 3.535-8.92 7.9-8.92m-221.92-104.71c4.364 0 7.9 3.992 7.9 8.918 0 4.928-3.536 8.92-7.9 8.92s-7.9-3.992-7.9-8.92c0-4.926 3.536-8.918 7.9-8.918m6.367-43.071c3.27 1.093 5.657 4.508 5.657 8.553 0 4.927-3.538 8.92-7.9 8.92-1.96 0-3.754-0.806-5.134-2.14 1.676-5.582 4.1-10.728 7.377-15.333m104.7 0.465c-1.447 1.867-3.576 3.046-5.947 3.046-4.364 0-7.9-3.993-7.9-8.92 0-3.32 1.61-6.217 3.99-7.753 4.062 3.85 7.283 8.475 9.857 13.627m-94.58 106.2c4.364 0 7.902 3.994 7.902 8.92 0 3.55-1.838 6.617-4.498 8.052-1.954-4.146-3.835-8.33-5.624-12.532-0.712-0.947-1.48-1.897-2.29-2.845 1.28-1.005 2.835-1.595 4.51-1.595m25.424 48.09c4.362 0 7.9 3.996 7.9 8.922 0 3.146-1.443 5.912-3.625 7.5-2.995-4.7-5.997-9.612-8.96-14.687 1.31-1.09 2.93-1.734 4.684-1.734m101.99-19.3c-0.938 0.44-1.966 0.687-3.045 0.687-4.362 0-7.9-3.994-7.9-8.922 0-2.935 1.256-5.54 3.194-7.165 2.345 5.167 4.947 10.32 7.752 15.4m18.701 28.925c-0.788 0.297-1.633 0.46-2.508 0.46-4.365 0-7.9-3.993-7.9-8.92 0-1.73 0.436-3.348 1.192-4.714 2.963 4.533 6.048 8.942 9.216 13.175m-89.17-189.17c1.103 0.995 1.807 2.526 1.807 4.242 0 3-2.15 5.43-4.81 5.43-2.656 0-4.808-2.43-4.808-5.43 0-1.865 0.832-3.51 2.1-4.487 1.978 0.004 3.88 0.09 5.71 0.245m22.377 7.304c-0.32 2.65-2.33 4.695-4.765 4.695-2.66 0-4.81-2.43-4.81-5.43 0-1.353 0.44-2.59 1.162-3.54 3.082 1.154 5.876 2.592 8.412 4.276m-79.119 6.935c0.937 0.992 1.524 2.4 1.524 3.963 0 3-2.153 5.43-4.81 5.43-1.728 0-3.243-1.028-4.09-2.573 2.163-2.468 4.614-4.75 7.376-6.82m-20.284 39.543c0.326 0.73 0.508 1.555 0.508 2.428 0 2.998-2.153 5.43-4.81 5.43-2.655 0-4.81-2.432-4.81-5.43 0-1.084 0.283-2.097 0.772-2.947 1.302 0.693 2.574 1.453 3.81 2.282 1.455 0.978 2.86 2.048 4.214 3.203 0.058-1.68 0.166-3.335 0.317-4.965m-33.528-4.312c0.238 0.642 0.37 1.345 0.37 2.085 0 2.996-2.155 5.428-4.81 5.428-2.43 0-4.44-2.035-4.763-4.68 3.104-1.327 6.177-2.26 9.203-2.834m183.93-23.756c0.367 0.765 0.573 1.642 0.573 2.572 0 2.998-2.153 5.428-4.81 5.428-1.74 0-3.266-1.044-4.11-2.61 2.987-1.702 5.765-3.507 8.347-5.39m-3.102 33.419c0.99 0.995 1.614 2.444 1.614 4.058 0 2.998-2.154 5.43-4.81 5.43-2.46 0-4.49-2.09-4.774-4.78 0.586-0.44 1.18-0.862 1.786-1.266 1.975-1.326 4.04-2.48 6.183-3.442m-191.45 41.29c2.656 0 4.81 2.43 4.81 5.43 0 2.997-2.154 5.427-4.81 5.427s-4.81-2.43-4.81-5.427c0-3 2.154-5.43 4.81-5.43m-4.81 48.088c2.657 0 4.81 2.432 4.81 5.43s-2.153 5.43-4.81 5.43c-2.655 0-4.81-2.432-4.81-5.43s2.155-5.43 4.81-5.43m1.375 24.046c1.45 0 2.75 0.726 3.63 1.87-0.922 4.464-1.4 5.476-0.858 7.996-0.784 0.626-1.74 0.992-2.772 0.992-2.656 0-4.81-2.43-4.81-5.43 0-2.998 2.154-5.428 4.81-5.428m208.17-73.7c2.654 0 4.807 2.43 4.807 5.43s-2.153 5.43-4.808 5.43c-2.657 0-4.81-2.43-4.81-5.43s2.153-5.43 4.81-5.43m35.039-0.775c2.657 0 4.81 2.43 4.81 5.428 0 3-2.153 5.432-4.81 5.432-2.655 0-4.81-2.43-4.81-5.432 0-2.997 2.155-5.428 4.81-5.428m26.798 34.902c2.656 0 4.81 2.433 4.81 5.43 0 3-2.154 5.43-4.81 5.43s-4.81-2.43-4.81-5.43c0-2.997 2.154-5.43 4.81-5.43m10.306 23.27c0.58 0 1.136 0.117 1.656 0.333 0.075 1.138 0.12 2.226 0.15 3.265 0.068 2.72-0.03 4.925 0.4 6.66-0.663 0.386-1.416 0.602-2.206 0.602-2.658 0-4.81-2.43-4.81-5.43 0-2.998 2.152-5.43 4.81-5.43m15.376 15.61c0.28 0.68 0.43 1.437 0.43 2.23 0 3-2.16 5.43-4.81 5.43-2.657 0-4.81-2.43-4.81-5.43 0-1.235 0.362-2.373 0.98-3.285 0.405 0.104 0.834 0.2 1.308 0.285 2.025 0.37 4.41 0.597 6.902 0.77m-321.14 79.03c2.657 0 4.81 2.433 4.81 5.432 0 2.997-2.153 5.43-4.81 5.43-2.655 0-4.808-2.433-4.808-5.43 0-3 2.153-5.43 4.808-5.43m50.844-46.539c2.657 0 4.81 2.43 4.81 5.43 0 2.998-2.153 5.43-4.81 5.43-2.655 0-4.808-2.432-4.808-5.43 0-3 2.153-5.43 4.808-5.43m32.294-93.079c2.655 0 4.81 2.43 4.81 5.43 0 2.998-2.155 5.43-4.81 5.43-2.656 0-4.81-2.432-4.81-5.43 0-3 2.154-5.43 4.81-5.43m144.19 60.536c-0.866 0.938-2.04 1.517-3.336 1.517-2.655 0-4.81-2.432-4.81-5.43 0-2.21 1.17-4.11 2.846-4.96 1.704 2.992 3.473 5.957 5.3 8.872m-43.27-133.57c2.657 0 4.81 2.432 4.81 5.43s-2.153 5.428-4.81 5.428c-2.656 0-4.808-2.43-4.808-5.428s2.152-5.43 4.808-5.43m8.195 53.068c2.656 0 4.808 2.43 4.808 5.43 0 2.998-2.152 5.428-4.808 5.428-2.657 0-4.81-2.43-4.81-5.428 0-3 2.153-5.43 4.81-5.43m12.79-13.01c3.456 0 6.258 3.166 6.258 7.067 0 3.904-2.802 7.068-6.258 7.068-3.46 0-6.26-3.164-6.26-7.068 0-3.9 2.8-7.066 6.26-7.066m-1.57 48.066c2.656 0 4.81 2.432 4.81 5.43 0 2.996-2.154 5.428-4.81 5.428s-4.81-2.432-4.81-5.428c0-2.998 2.154-5.43 4.81-5.43"/>
  <path id="path16" fill="#beeb6c" d="m222.81 120.36c-8.97 1.244-17.43 6.506-12.663 6.008 4.77-0.5-2.01 2.622-8.11 5.146-6.102 2.52-6.977 7.198-2.28 5.493 4.7-1.705-3.488 3.8-3.673 8.984-0.204 5.715 1.916 9.91 3.483 3.19 1.773-7.616 12.837-20.916 24.772-21.358 9.344-0.348 7.507-8.715-1.53-7.464"/>
  <path id="path18" fill="#3a5409" d="m290.49 175.7c-13.163-0.908-17.63 17.75-38.953 26.403-18.926 7.676-30.65 3.91-35.212 8.946-4.565 5.035-4.227 30.53 38.49 11.67 43.096-19.028 43.35-46.492 35.675-47.02"/>
  <path id="path20" fill="#9d561b" d="m279.51 207.54c-5.673-5.45-12.565-7.74-18.387-7.952-3.258-0.118-1.303 13.242-3.49 14.228-1.947 0.88-8.818-10.226-10.604-7.73-3.346 4.68-5.963 12.08-6.206 21.723 4.062-1.097 8.7-2.75 13.988-5.085 10.695-4.722 18.748-9.962 24.7-15.184"/>
  <path id="path22" fill="#fff" d="m276.14 183.19c1.595 2.917 4.907 4.092 7.73 2.616 3.048-1.596 4.375-5.682 2.96-9.123-0.09-0.222-0.188-0.435-0.297-0.64-3.808 0.965-6.97 3.696-10.393 7.147m-12.186 11.658c1.688 2.527 4.765 3.472 7.41 2.086 3.052-1.595 4.377-5.678 2.965-9.12-0.266-0.645-0.608-1.22-1.008-1.722-2.715 2.817-5.712 5.88-9.368 8.756m-15.753 8.518c1.475 3.282 5 4.677 7.98 3.12 2.843-1.488 4.188-5.14 3.213-8.416-2.348 1.48-4.948 2.85-7.86 4.033-1.138 0.46-2.25 0.88-3.334 1.263m-15.819 3.737c0.093 0.438 0.225 0.873 0.4 1.298 1.414 3.443 5.03 4.94 8.08 3.346 2.478-1.296 3.816-4.232 3.478-7.134-4.487 1.314-8.473 2.02-11.957 2.49m-14.721 2.829c0.09 0.384 0.212 0.765 0.366 1.14 1.41 3.443 5.03 4.94 8.08 3.345 2.428-1.273 3.764-4.124 3.49-6.97-5.387 0.617-9.364 0.857-11.937 2.485m4.953 11.818c-1.915 1.002-3.15 2.983-3.453 5.173 2.6 1.822 6.445 2.922 11.942 2.59 0.29-1.432 0.18-2.98-0.41-4.418-1.415-3.44-5.03-4.94-8.08-3.344m16.357-0.755c-2.716 1.42-4.065 4.815-3.33 7.97 3.414-0.592 7.333-1.648 11.82-3.277-0.093-0.453-0.23-0.907-0.41-1.348-1.413-3.444-5.03-4.94-8.08-3.346m15.849-3.475c-2.35 1.23-3.675 3.934-3.514 6.686 1.14-0.462 2.304-0.954 3.51-1.486 2.54-1.122 4.925-2.275 7.177-3.446-1.73-2.272-4.645-3.073-7.173-1.753m13.358-9.051c-3.034 1.587-4.363 5.635-2.985 9.065 3.96-2.237 7.437-4.538 10.476-6.858-1.673-2.614-4.802-3.613-7.49-2.207m12.322-10.577c-3.05 1.596-4.375 5.68-2.964 9.12 0.227 0.552 0.51 1.055 0.84 1.502 3.717-3.125 6.667-6.248 8.97-9.266-1.755-1.965-4.472-2.6-6.846-1.357m9.412-12.722c-3.05 1.596-4.376 5.68-2.965 9.12 0.464 1.13 1.166 2.05 2.005 2.72 3.055-4.547 4.637-8.76 5.16-12.222-1.348-0.426-2.832-0.333-4.2 0.38"/>
  <path id="path24" d="m227.3 160.18c4.707-0.207 8.675 3.932 8.86 9.25 0.185 5.313-3.482 9.792-8.19 10-4.707 0.21-8.673-3.93-8.86-9.245-0.184-5.316 3.48-9.793 8.19-10.004"/>
  <path id="path26" fill="#fff" d="m232.24 160.45c2.024-0.09 3.73 1.69 3.81 3.973 0.08 2.286-1.496 4.21-3.52 4.3s-3.728-1.688-3.81-3.974c-0.078-2.283 1.5-4.208 3.52-4.298m20.064-6.929c6.648-0.296 12.25 5.55 12.513 13.055 0.26 7.506-4.918 13.832-11.566 14.126-6.65 0.296-12.252-5.55-12.513-13.056-0.262-7.507 4.916-13.83 11.566-14.126"/>
  <path id="path28" d="m253.46 161.96c3.328-0.15 6.132 2.778 6.264 6.536 0.13 3.76-2.46 6.925-5.79 7.072-3.33 0.148-6.133-2.778-6.264-6.536-0.13-3.755 2.46-6.924 5.79-7.07"/>
  <path id="path30" fill="#fff" d="m256.95 162.16c1.43-0.065 2.636 1.195 2.692 2.808 0.055 1.615-1.058 2.977-2.49 3.04-1.43 0.064-2.636-1.194-2.692-2.808-0.056-1.616 1.058-2.978 2.49-3.04"/>
  <path id="path32" fill="#beeb6c" d="m244.08 131.89c9.023-0.53 18.166 2.998 13.39 3.44-4.772 0.442 2.38 2.192 8.78 3.483 6.394 1.29 7.976 5.726 3.087 4.966-4.89-0.76 4.02 3.062 4.998 8.13 1.076 5.59-0.37 10.138-2.942 3.823-2.913-7.154-15.853-18.09-27.673-16.19-9.257 1.484-8.73-7.116 0.36-7.65"/>
 </g>
</svg>
