<svg xmlns="http://www.w3.org/2000/svg" width="397.343" height="358.274" viewBox="0 0 397.34326 358.27441"><path d="M363.093 84.31h-67.147c-4.938 0-8.94-4.384-8.94-9.795 0-.29.015-.577.037-.862-.02-.282-.036-.568-.036-.857 0-5.566 4.237-10.077 9.465-10.077 2.124 0 4.084.743 5.663 2h.686c.42-5.154 4.48-9.198 9.43-9.198 2.653 0 5.05 1.163 6.77 3.036-.004-.132-.01-.264-.01-.397 0-11.526 8.78-20.873 19.608-20.873 10.83 0 19.607 9.347 19.607 20.874 0 2.293-.352 4.497-.993 6.56h1.316c.976-.363 2.024-.562 3.117-.562 1.505 0 2.926.376 4.19 1.04 3.585 1.276 6.177 4.964 6.177 9.317 0 5.41-4.002 9.796-8.94 9.796M269.393 227.982h-52.49c-3.857 0-6.985-3.428-6.985-7.657 0-.228.01-.452.028-.674-.017-.22-.028-.443-.028-.67 0-4.35 3.312-7.876 7.398-7.876 1.66 0 3.192.582 4.427 1.564h.536c.327-4.03 3.5-7.19 7.37-7.19 2.074 0 3.947.91 5.29 2.373 0-.102-.006-.205-.006-.31 0-9.01 6.863-16.316 15.327-16.316 8.466 0 15.328 7.306 15.328 16.316 0 1.793-.275 3.515-.777 5.128h1.03c.763-.284 1.582-.44 2.437-.44 1.176 0 2.287.294 3.274.814 2.804.996 4.83 3.88 4.83 7.283 0 4.23-3.127 7.657-6.987 7.657M370.546 319.862h-67.148c-4.937 0-8.938-4.386-8.938-9.796 0-4.354 2.592-8.042 6.177-9.318 1.264-.664 2.684-1.04 4.19-1.04 1.093 0 2.14.2 3.117.562h1.316c-.642-2.064-.994-4.267-.994-6.56 0-11.526 8.78-20.872 19.607-20.872 10.83 0 19.61 9.346 19.61 20.873 0 .134-.007.266-.01.398 1.718-1.873 4.115-3.036 6.77-3.036 4.95 0 9.01 4.044 9.428 9.198h.687c1.58-1.256 3.538-2 5.662-2 5.228 0 9.465 4.51 9.465 10.076 0 .29-.015.575-.037.857.022.285.037.572.037.863 0 5.41-4 9.796-8.94 9.796M108.663 55.8h-79.68c-5.857 0-10.605-5.204-10.605-11.624 0-5.166 3.076-9.543 7.33-11.056 1.5-.79 3.186-1.234 4.97-1.234 1.298 0 2.542.236 3.7.666h1.562c-.762-2.448-1.18-5.063-1.18-7.783C34.76 11.09 45.18 0 58.027 0c12.85 0 23.27 11.09 23.27 24.77 0 .157-.01.314-.012.47 2.04-2.222 4.884-3.603 8.033-3.603 5.874 0 10.69 4.8 11.188 10.915h.814c1.872-1.49 4.198-2.374 6.718-2.374 6.204 0 11.232 5.353 11.232 11.958 0 .342-.017.68-.044 1.017.027.338.044.678.044 1.023 0 6.42-4.748 11.624-10.607 11.624" fill="#a3d9cb"/><path d="M199.92 358.274c-21.403 0-37.632-.99-49.872-2.378C102.934 350.55 40.842 335.056 0 323.916v-6.538c60.087 16.484 113.984 28.042 150.68 32.207 12.1 1.372 28.137 2.35 49.302 2.348 42.266 0 104.95-3.895 197.36-16.305v6.396c-92.248 12.363-154.997 16.25-197.423 16.25" fill="#6ea79e"/><path d="M397.343 334.436c-139.34 18.762-211.312 18.214-247.657 14.09-36.493-4.14-90-15.595-149.686-31.934v6.536c40.85 11.12 102.32 26.407 149.055 31.71 12.24 1.39 28.468 2.38 49.87 2.38 42.578 0 105.627-3.918 198.418-16.385v-6.397" fill="#815e53"/><path d="M113.29 331.718c-.248 5.642 6.692 12.762 4.97 14.105-4.035 3.15-13.83-4.177-13.832-8.79l-.614.74c-2.97-3.444-4.987-5.397-6.424-7.73 1.34-2.363 5.672-5.795 7.588-6.63" fill="#28292a"/><path d="M177.577 225.073s-9.71 53.775-13.145 59.646c-4.355 7.44-26.424 26.695-26.424 26.695L113.29 331.64l-8.483-8.388s44.324-48.295 44.324-52.833c0-10.625-6.037-45.347-6.037-45.347" fill="#232324"/><path d="M177.577 341.5c7.016 7.453 13.306 8.125 12.855 10.494-1.054 5.55-13.89 2.562-17.096.52l.016 1.052c-4.65-.444-6.358-.414-9.057-1.15-.536-2.88-.63-8.913.313-11.027" fill="#28292a"/><path d="M120.642 225.073s9.22 29.32 37.79 60.91c2.427 2.687 4.324 33.457 5.8 51.022.46 5.455.38 4.59.38 4.59l12.965-.096s.645-54.497-3.05-62.26c-3.693-7.763-18.05-51.717-18.05-51.717l-.37-2.45H120.64" fill="#3f4143"/><path d="M130.26 98.46c.45-.028.885.042 1.286.19-.044-3.158.005-6.285.294-7.96.284-1.636.58-3.142.898-4.54-.56-.423-1.14-.986-1.525-1.6-.67-1.07-1.885-3.268-1.898-6.355-3.682 5.258-4.643 13.49-1.925 21.527.058.172.123.34.183.51.54-1 1.525-1.7 2.686-1.772M167.92 88.907c.36 1.664.58 4.72.717 7.795 1.373.558 2.28 2.042 2.116 3.67l-.033.332c1.752-4.703 1.94-10.607.188-16.483-1.05.844-2.23 1.63-3.562 2.333.207.76.398 1.544.573 2.354" fill="#ab723e"/><path d="M179.238 68.28s-1.653 3.85-12.29 1.008c-12.064-3.223-24.18-11.947-32.38-2.72-4.088 4.604-5.266 8.556-5.253 11.627.013 3.087 1.228 5.284 1.898 6.356.385.614.965 1.177 1.525 1.6.48.362.944.623 1.254.71 16.26 4.572 26.676 3.215 33.354-.307 1.33-.702 2.513-1.49 3.562-2.332 7.923-6.368 8.33-15.94 8.33-15.94" fill="#a16c39"/><path d="M139.027 139.046c-1.06-.658 2.976 2.846 11.15 2.517 7.865-.315 11.488-3.426 11.488-3.426L161 120.114l-22.563 2.304.59 16.628" fill="#e3a891"/><path d="M166.52 109.356c-1.823-.206-3.144-1.946-2.952-3.887l.58-5.84c.194-1.943 1.83-3.35 3.653-3.146.295.034.573.11.837.218-.137-3.074-.358-6.13-.718-7.795-.176-.81-.367-1.594-.574-2.354-6.678 3.522-17.095 4.88-33.354.308-.31-.087-.775-.348-1.254-.71-.317 1.398-.614 2.904-.898 4.54-.29 1.675-.338 4.802-.294 7.96 1.23.457 2.142 1.664 2.222 3.133l.323 5.863c.083 1.505-.734 2.842-1.952 3.427 1.137 9.513 5.663 16.606 19.32 15.756 12.84 1.285 17.28-8.215 17.448-18.2-.654.54-1.496.826-2.385.726" fill="#eebaa6"/><path d="M134.09 107.646l-.322-5.863c-.08-1.47-.993-2.676-2.222-3.132-.4-.148-.836-.218-1.287-.19-1.162.073-2.148.773-2.687 1.773-.31.576-.473 1.25-.434 1.963l.32 5.862c.107 1.95 1.678 3.438 3.508 3.323.417-.025.81-.135 1.17-.307 1.218-.585 2.035-1.922 1.953-3.427M168.637 96.702c-.264-.108-.542-.184-.836-.218-1.823-.205-3.458 1.203-3.652 3.145l-.58 5.84c-.192 1.94 1.13 3.68 2.953 3.886.89.1 1.732-.185 2.386-.726.688-.57 1.167-1.422 1.266-2.417l.548-5.51.033-.33c.163-1.63-.743-3.113-2.116-3.67" fill="#eebaa6"/><path d="M154.318 95.624c.26.506.504 1.017.72 1.536.23.515.426 1.04.635 1.562.194.526.382 1.054.57 1.583l.517 1.598.467 1.614c.157.537.282 1.085.425 1.627.146.54.264 1.09.385 1.64.127.546.234 1.1.336 1.654l.15.81-.683-.008c-.345-.004-.69-.014-1.036-.035-.345-.02-.69-.028-1.036-.06-.692-.055-1.384-.117-2.08-.23l-.004-.093 4.118-.277-.057.086c-.594-2.16-1.21-4.313-1.778-6.483l-1.733-6.497.084-.026" fill="#ca9582"/><path d="M146.77 96.37c-.055-1.005-.866-1.772-1.81-1.713-.94.058-1.66.92-1.605 1.924.055 1.005.864 1.77 1.807 1.712.943-.058 1.662-.92 1.607-1.923M164.256 95.28c-.055-1.005-.862-1.77-1.805-1.712-.944.06-1.663.92-1.61 1.925.057 1.004.866 1.77 1.81 1.71.942-.058 1.662-.92 1.606-1.923" fill="#151516"/><path d="M157.76 115.014s-.186.03-.48.03c-.144-.003-.332-.007-.497.016l-.265.032c-.086.01-.175.014-.28.032-.202.027-.398.026-.61.064-.106.016-.21.018-.313.028-.11.023-.214.028-.32.043-.212.006-.435.066-.652.065-.22.047-.443.035-.667.08-.227.007-.45.05-.68.058-.224.03-.455.036-.678.058l-.665.045c-.223.004-.425.03-.635.03-.194.022-.4.014-.575.027-.167.023-.345.015-.48.03-.13.02-.255.016-.333.025l-.13.005-.117-.128.29-.287c.192-.172.475-.41.85-.64.193-.1.393-.23.622-.325.225-.11.467-.21.724-.296.252-.096.524-.163.798-.234.278-.06.56-.12.847-.145.285-.04.575-.024.858-.03.282.027.562.026.828.084.134.025.264.048.393.07.126.037.248.07.368.105.243.057.457.163.66.24.206.07.376.196.533.278.16.085.28.178.38.254.203.15.318.237.318.237l-.09.15" fill="#ba4f5a"/><path d="M262.21 138.837s2.1-.015 6.352-.622c4.868-.7 17.344-3.693 19.028-.458 1.687 3.232-3.174 8.007-7.405 7.208-4.23-.8-8.252-.284-8.732 1.31-.48 1.594 3.354 3.58 1.24 5.654-1.943 1.91-1.554.07-4.615-2.603-3.062-2.674-6.058-3.696-6.058-3.696l.19-6.793M45.584 202.093s-1.768 1.206-5.645 3.162c-4.44 2.236-16.435 6.96-16.193 10.65.24 3.687 6.76 4.874 9.898 1.75 3.14-3.123 6.776-5.023 7.994-3.965 1.216 1.06-.982 4.947 1.852 5.462 2.607.475 1.34-.843 2.54-4.86s3.188-6.61 3.188-6.61l-3.636-5.59" fill="#eebaa6"/><path d="M175.794 134.855h2.338s36.27 3.25 50.89 3.25c14.622 0 33.612-2.154 33.612-2.154l-.725 13.726s-19.363 2.587-31.425 3.095c-9.968.42-41.65-1.177-52.353-1.745v74.048h-57.524l.032-45.674.472-15.702c-7.946 6.117-34.87 26.755-43.676 32.33-10.377 6.567-27.938 15.624-27.938 15.624l-7.63-11.09s15.93-10.414 28.193-18.89c12.263-8.48 37.414-33.394 51.755-41.368l3.893-1.627 10.944-3.822 16.224 9.348 10.563-9.52 12.354.172" fill="#a3d9cb"/><path d="M157.653 145.792l-5.262-4.372-5.288 4.095s.6 4.058 3.588 4.483c0 0-3.45 38.722-3.212 42.176l4.05 6.975 4.755-6.976s.538-36.95-1.235-42.438c0 0 2.382-.878 2.605-3.944" fill="#d5472a"/><path d="M134.097 131.685l4.657-.35.104 3.347-4.76-2.997M162.307 133.324l-.857-1.024.033 1.858.824-.834" fill="#d2c0c0"/><path d="M326.648 511.4s-5.404-5.204-7.663-6.92c-5.558-4.224-12.294-8.384-12.294-8.384l18.666-17.795c5.876 7.278 15.145 17.482 15.145 17.482l-13.852 15.62M269.874 514.5s19.587-11.262 36.817-18.404c0 0-7.266-9.07-13.728-21.46 0 0-23.658 18.026-30.096 22.614l7.008 17.25" fill="#f0e4e2" stroke="#2c4149" transform="matrix(.4969 0 0 -.52895 0 403.832)"/></svg>