<svg xmlns="http://www.w3.org/2000/svg" width="380" height="360"><path d="M244.725 229.754l21.368 12.83-14.552 17.96s-51.293 16.29-57.256 15.69c-5.962-.6-24.415-5.252-27.882-6.973 0 0 6.338-9.52 16.205-15.137 9.865-5.62 62.118-24.37 62.118-24.37" fill="#80d4c3"/><path d="M302.236 247.187s4.446 1.777 5.153 3.845c.707 2.07-33.2 79.257-35.04 83.495-1.84 4.237-10.184 11.902-11.563 15.08-1.38 3.18-15.282-7.8-16.077-10.128-.798-2.328 4.91-20.1 11.41-26.748s16.54-23.774 13.268-33.34c-3.273-9.568-13.518-11.863-16.508-4.977-2.988 6.888-6.727 1.165-4.58-3.778 2.147-4.945 9.12-22.876 17.793-28.052" fill="#80d4c3"/><path d="M282.287 294.795s-.25 2.668-1.253 6.34c-.243.923-.51 1.92-.857 2.94-.33 1.027-.663 2.122-1.094 3.207-.43 1.086-.794 2.25-1.306 3.356l-1.477 3.4-1.637 3.314c-.522 1.102-1.158 2.12-1.708 3.143-.546 1.024-1.165 1.966-1.726 2.872-.55.915-1.133 1.744-1.67 2.51-2.12 3.08-3.95 4.91-3.95 4.91l-.277-.145 8.2-18.07 8.478-17.923.277.145" fill="#45aaad"/><path d="M138.803 306.74s-2.064-2.1-4.22-5.618c-.552-.874-1.142-1.824-1.67-2.866-.554-1.033-1.162-2.114-1.66-3.28-.5-1.168-1.133-2.33-1.566-3.59-.47-1.25-.95-2.516-1.43-3.782-.398-1.298-.793-2.596-1.187-3.874-.415-1.27-.643-2.588-.963-3.826-.327-1.234-.506-2.482-.71-3.652-.227-1.16-.347-2.295-.455-3.344-.48-4.174-.177-7.2-.177-7.2l.414-.162 7.225 20.436c3.408 10.298 6.813 20.597 6.813 20.597l-.415.16" fill="#2c4149"/><path d="M94.392 139.613s3.48 16.09-4.373 30.6c-7.853 14.508-16.147 8.297-16.147 8.297l1.397-2.526s3.892-.643 5.848-5.148c1.955-4.502.906-18.385-12.995-15.145L55.94 189.2l16.784 9.99s-7.297 12.93-14.73 15.84c-7.437 2.912-15.205 6.65-18.792 2.777-3.586-3.876-1.673-21.117 1.547-28.534 3.22-7.418 25.977-77.52 25.977-77.52" fill="#80d4c3"/><path d="M166.656 343.93c.997-2.298 6.27-33.76-4.577-65.466-10.85-31.707-37.796-122.506-37.796-122.506l-6.438-3.452L93.2 161.28s32.027 127.267 44.834 148.67c12.804 21.403 28.622 33.98 28.622 33.98" fill="#80d4c3"/><path d="M44.16 198.4s.037-2.73.746-6.546c.168-.96.358-1.995.623-3.063.245-1.074.49-2.216.835-3.36.342-1.14.614-2.358 1.036-3.533.4-1.184.8-2.387 1.205-3.592.46-1.18.92-2.36 1.37-3.524.436-1.17.99-2.268 1.46-3.358.46-1.094 1.002-2.113 1.493-3.09.475-.98.99-1.88 1.465-2.712 1.874-3.337 3.556-5.384 3.556-5.384l.286.118s-3.377 9.57-6.75 19.142l-7.04 19.02-.287-.117" fill="#45aaad"/><path d="M221.12 133.808l19.002-7.437s-4.714-10.214 3.315-13.355c7.55-2.954 8.592 2.62 11.595 6.71 4.957 6.752 20.818 2.748 18.725-9.064-1.717-9.708 1.317-13.716 5.38-11.7 4.06 2.016 6.368 13.01 15.152 8.997 6.856-3.134 4.59-9.208 7.687-14.584 1.684-2.926 7.638-6.39 11.355-7.353 0 0-14.66 2.243-17.44 6.36-3.09 4.583-2.266 7.492-5.172 8.63-3.633 1.422-6.086-5.822-10.026-9.984-4.243-4.48-16.835.097-15.268 8.638 1.184 6.452 4.788 11.34-.49 13.405-5.254 2.056-8.17-1.906-11.75-7.107-4.96-7.216-21.985-3.45-23.39 7.645l-27.44 9.896M185.076 114.062s24.1-55.13 29.926-63.347c5.826-8.217 11.092-19.838 30.1-32.502l-44.787 104.173" fill="#80d4c3"/><path d="M212.42 67.623c1.055-1.914 2.99-2.79 4.324-1.947 1.33.84 1.555 3.072.5 4.99-1.057 1.916-2.993 2.788-4.326 1.95-1.332-.843-1.556-3.076-.5-4.993" fill="#45aaad"/><path d="M302.11 244.502s17.155-6.034 20.84-23.308c3.688-17.275-11.435-34.227-34.318-49.025-22.882-14.796-160.6-89.182-168.03-92.872-7.432-3.69-24.2-8.227-32.987.544" fill="#b0cac2"/><path d="M305.796 240.368c6.67-9.62 13.57-31.258-10.095-52.345C272.04 166.937 112.223 85.658 104.79 81.97c-7.43-3.69-28.81-3.68-35.48 11.684-6.67 15.365-2.678 31.835 17.63 41.918 20.312 10.084 176.492 105.98 182.932 109.178 6.442 3.198 25.46 10.71 35.924-4.382" fill="#f05874"/><path d="M321.59 208.793c5.412 3.564 11.675 6.565 17.987 7.584 7.007 1.13 17.28-2.217 16.494-11.85-1.172-14.41-30.336-8.872-37.216-3.685-1.602 1.208 1.057 5.268 2.665 4.056 4.552-3.434 33.02-8.442 30.55.4-3.758 13.457-22.64 4.622-29.786-.083-2.583-1.702-2.457 2.415-.694 3.578" fill="#45aaad"/><path d="M304.225 248.288c4.928 2.165 4.16 2.98 3.396 7.086-.697 3.765-3.077 7.823-4.516 11.316-4.572 11.098-9.312 22.116-14.06 33.128-4.16 9.643-8.35 19.27-12.553 28.892-1.08 2.47-2.033 5.1-3.434 7.39-1.865 3.046-4.58 5.617-6.817 8.294-2.507 3.004-1.992 3.328-5.133 2.64-5.01-1.096-9.89-6.854-9.675-11.762.3-6.928 5.466-15.673 9.342-20.907 6.87-9.284 19.01-22.456 14.92-35.788-2.286-7.456-11.16-12.556-17.84-8.066.093-.06-4.01 3.56-3.3 3.743-1.98-.51.772-5.446 1.37-7.18 2.92-8.45 8.485-18.818 15.557-23.878 2.692-1.926-1.46-2.543-2.965-1.468-8.347 5.973-15.15 17.525-18.13 27.756-2.013 6.925-.155 10.82 6.358 7.996 3.93-1.706-.38-7.17 8.27-4.856 4.393 1.175 6.37 8.13 6.315 12.124-.126 9.514-6.126 18.837-11.783 25.767-4.937 6.048-15.016 19.614-13.4 28.55.865 4.802 11.128 12.183 15.723 12.334 6.324.205 11.728-9.355 14.94-14.242 8.975-13.656 14.32-31.644 20.79-46.742 4.477-10.442 8.998-20.876 13.175-31.46 2.62-6.64 4.926-9.76-2.718-13.12-1.404-.618-5.782 1.594-3.83 2.452" fill="#2c4149"/><path d="M286.254 294.7s.088 2.85-.674 6.65c-.177.957-.38 1.99-.683 3.03-.278 1.058-.55 2.183-.957 3.282-.402 1.1-.71 2.294-1.22 3.403-.475 1.127-.96 2.27-1.443 3.415l-1.67 3.295c-.53 1.1-1.223 2.092-1.8 3.098-.567 1.012-1.248 1.922-1.86 2.8-.592.892-1.242 1.686-1.84 2.42-2.363 2.95-4.53 4.603-4.53 4.603l-.397-.21 8.14-18.102c4.27-8.945 8.536-17.89 8.536-17.89l.398.207M255.183 259.37c-11.677 3.704-23.397 7.28-35.173 10.607-6.356 1.796-13.66 4.796-20.3 4.952-3.823.088-7.724-1.124-11.434-1.98-2.296-.53-13.014-1.668-14.46-3.904-1.13-1.75-1.038.674-1.003-1.113.024-1.283 3.277-3.91 4.132-4.8 3.983-4.14 8.316-7.33 13.33-9.804 6.582-3.253 13.543-5.763 20.35-8.405 12.695-4.925 25.466-9.645 38.27-14.244 1.892-.68 1.415-2.8-.528-2.1-13.825 4.965-27.617 10.063-41.316 15.426-14.602 5.717-28.637 11.023-38.26 24.995-.37.542.15 1.027.57 1.204 14.556 6.16 28.023 8.057 42.922 4.14 14.583-3.83 29.03-8.307 43.427-12.873 1.928-.61 1.428-2.72-.527-2.1M142.707 306.617s-2.064-2.1-4.218-5.62c-.554-.872-1.142-1.825-1.672-2.867-.555-1.032-1.16-2.112-1.657-3.28-.5-1.168-1.135-2.33-1.568-3.59l-1.428-3.78-1.187-3.875c-.417-1.268-.645-2.59-.963-3.825-.327-1.236-.506-2.483-.712-3.653-.227-1.16-.347-2.295-.455-3.342-.48-4.174-.177-7.2-.177-7.2l.416-.164 7.226 20.437 6.81 20.598-.415.162M96.697 139.95c1.92 9.755.842 21.896-4.5 30.215-2.744 4.27-15.924 10.104-12.012 6.095 1.222-1.252 3.248-1.44 4.563-2.914 3.306-3.708 3.505-10.19.884-14.388-3.138-5.02-8.35-4.895-13.334-4.134-.55.085-1.624.373-1.857 1.014-4.06 11.17-8.12 22.34-12.182 33.51-.046.133-.017.25.086.34 4.266 2.54 9.74 4.676 13.457 8.01 3.247 2.91 3.15-.09 1.59 4.312-2.014 5.674-11.53 12.942-15.797 13.883-3.352.74-12.506 1.51-14.238-1.615-.758-1.366-.524-4.282-.562-5.854-.13-5.334.772-11.21 2.32-16.315 1.265-4.17 3.017-8.232 4.445-12.347 7.876-22.672 15.242-45.557 22.66-68.407.268-.825-2.86-.425-3.173.544-8.07 24.853-15.777 49.95-24.79 74.436-2.953 8.028-11.066 32.68 2.65 33.773 13.055 1.044 25.044-10.51 31.31-21.314.05-.138.02-.25-.085-.343-3.5-2.085-14.398-5.98-16.197-9.64-1.33-2.71 4.807-14.61 5.987-17.856 2.323-6.39 4.674-22.216 13.502-12.425 7.366 8.166-1.622 13.602-5.23 20.125-.047.137-.02.25.086.343 18.388 12.353 25.922-28.27 23.62-39.97-.173-.885-3.393-.055-3.2.92" fill="#2c4149"/><path d="M170.73 344.874c7.73-23.658-.11-52.95-7.428-75.3-7.67-23.44-14.807-47.08-21.956-70.705-3.06-10.114-6.104-20.234-9.133-30.362-.975-3.26-1.72-9.772-3.737-12.535-7.622-10.435-25.41 1.33-33.9 4.353-.866.31-2.3 1.1-1.987 2.347 7.68 30.49 15.822 60.877 24.662 91.006 10.43 35.552 20.18 68.813 49.33 92.38 1.595 1.29 5.862-1.134 3.727-2.86-29.777-24.073-39.17-59.525-49.684-95.796-8.27-28.53-15.97-57.268-23.235-86.11-.66.783-1.322 1.566-1.983 2.346l19.997-7.12c4.122-1.467 5.666-2.43 8.696 2.268 2.643 4.095 3.518 11.79 4.92 16.473 3.01 10.055 6.04 20.102 9.086 30.144 6.438 21.22 12.884 42.447 19.735 63.52 7.322 22.523 16.115 51.62 8.323 75.465-.886 2.71 3.903 2.512 4.566.484M48.002 198.247s-.318-2.87.142-6.795c.1-.985.22-2.05.44-3.136.194-1.1.377-2.264.695-3.417.313-1.157.525-2.398.948-3.572l1.166-3.61c.473-1.174.944-2.35 1.408-3.507.44-1.166 1.052-2.242 1.55-3.322.485-1.082 1.093-2.075 1.635-3.027.52-.964 1.107-1.836 1.646-2.64 2.124-3.232 4.16-5.135 4.16-5.135l.41.17-6.69 19.168c-3.55 9.496-7.098 18.994-7.098 18.994l-.413-.17M323.347 208.748c5.973 3.928 13.094 7.185 20.12 7.837 7.172.667 18.385-3.44 17.992-13.112-.582-14.332-32.96-6.958-39.446-2.106-3.555 2.66 1.757 4.552 4.155 2.756 4.38-3.276 26.792-7.965 28.752-.18.953 3.777-3.23 7.5-6.203 8.026-3.245.574-6.83-.608-9.857-1.693-3.662-1.312-7.233-3.1-10.524-5.266-2.182-1.433-7.92 1.812-4.993 3.738M225.634 134.298l19.003-7.438c.26-.102 1.193-.6.992-1.07-.59-1.383-1.176-3.014-1.263-4.536-.906-5.677 2.305-7.776 9.63-6.296.828 1.1 1.58 2.26 2.257 3.474 3.143 2.508 3.828 4.805 8.288 5.282 5.615.598 12.972-2.576 14.596-8.84.758-2.92-.93-5.87-.332-8.61 2.507-11.436 4.63-4.56 7.302-1.59 2.093 2.328 3.713 4.368 6.884 4.848 2.897.437 6.725-.94 8.892-2.987 8.3-7.835-.9-14.136 15.543-19.877 1.31-.458 2.037-1.94.05-1.62-5.182.835-11.6 1.726-16.116 4.733-2.552 1.7-2.923 3.482-4.86 5.848-5.645 6.894-5.192-1.378-10.407-5.36-3.556-2.714-8.018-2.376-11.9-.494-2.124 1.032-4.248 2.42-5.424 4.67-2.067 3.96.342 5.885.118 10.05.4 1.268.74 2.556 1.02 3.86-2.383.73-4.77 1.462-7.154 2.19-2.343-.85-3.403-5.094-5.406-6.72-1.832-1.49-3.916-2.15-6.174-2.446-5.445-.71-12.16 1.44-15.956 5.814-1.363 1.572-2.114 5.273-2.895 5.968-1.836 1.635-6.67 2.403-8.89 3.205-5.927 2.136-11.854 4.275-17.78 6.412-2.13.768-.173 1.727 1.22 1.226 7.95-2.87 15.968-5.582 23.868-8.607 1.572-.603 3.046-1.02 4.44-1.912.118-.076 4.847-6.25.646-2.494 4.773-4.268 8.212-8.092 14.358-6.837 6.48 1.323 6.305 6.804 11.79 9.333 3.776 1.74 9.862.777 11.206-3.95.924-3.254-2.214-7.267-2.247-10.446-.06-5.823 4.534-12.26 12.174-7.532 1.116.69 1.816 2.56 2.7 3.517 2.69 2.92 3.903 7.447 8.376 6.693 1.55-.26 2.426-1.35 3.637-2.297 4.64-3.625 5.724-9.432 11.92-11.155 1.724-.477 3.565-.61 5.24-1.195 1.93-.68 1.37-1.497-.38-1.123-3.138.67-7.478 3.746-9.46 6.374-1.342 1.778-1.64 3.82-2.533 5.822-.546 1.227-.2 3.534-1.078 4.53-3.268 1.206-6.534 2.414-9.802 3.624-.75-.643-1.42-1.366-2.01-2.17-3.555-2.833-7.095-10.43-12.306-4.845-3.125 3.35-.647 7.846-1.35 11.674l-.113 4.358c-4.34 1.905-8.68 3.808-13.017 5.713-1.563-.473-2.738-2.794-3.693-3.923-1.377-1.63-1.91-3.75-3.823-4.92-5.68-3.466-13.852 1.247-14.362 7.99-.56 7.395 4.267 4.677-3.176 7.59l-13.466 5.27c-2.108.824-.17 1.77 1.22 1.226M190.554 113.618c15.09-34.485 28.56-73.966 59.667-95.53l-2.785.32-44.788 104.174c-.17.397 2.786.2 3.147-.64l44.79-104.175c.29-.674-2.535.146-2.787.32-31.54 21.865-45.082 61.183-60.39 96.174-.17.388 2.78.197 3.147-.642" fill="#2c4149"/><path d="M217.835 67.614c.473-.79 1.14-1.76 1.905-.82.798.976.455 2.635-.1 3.632-.397.707-1.073 1.692-1.814.945-.952-.958-.517-2.71.01-3.756.786-1.57-2.44-1.385-3.022-.23-1.09 2.17-1.186 5.44 1.448 6.332 2.44.827 5.16-.832 6.398-3.06 1.146-2.07 1.15-5.344-1.315-6.283-2.524-.962-5.196.783-6.53 3.01-.427.713.368 1.162.92 1.22.754.084 1.68-.29 2.1-.99M312.408 241.36c29.48-44.96-38.713-74.79-66.633-90.412-41.54-23.244-83.707-45.245-126.017-66.833-13.043-6.653-26.764-10.522-40.35-1.78-10 6.438-14.617 20.67-11.473 32.594 3.258 12.363 13.474 18.76 23.494 24.182 38.76 20.98 76.232 45.01 114.02 67.9 19.417 11.762 38.79 23.612 58.283 35.235 15.507 9.248 35.24 16.045 48.675-.886 2.648-3.334-3.41-4.757-5.412-2.233-12.38 15.6-30.437 3.787-43.42-4.015-15.145-9.097-30.245-18.28-45.356-27.437-35.97-21.793-71.85-43.787-108.173-64.9-14.934-8.68-38.644-16.964-36.383-39.143 2.576-25.258 26.25-22.95 41.957-14.94 35.403 18.058 70.653 36.483 105.594 55.542 20.466 11.16 41.007 22.353 60.748 34.938 19.474 12.413 41.617 34.66 25.034 59.955-2.362 3.6 3.613 4.978 5.412 2.234" fill="#2c4149"/><path d="M307.193 245.438c7.675-2.853 15.182-8.674 19.43-16.12 7.46-13.083 2.936-26.668-5.917-37.4-14.11-17.097-35.097-27.286-53.696-37.786-42.09-23.77-84.55-46.818-127.094-69.634-15.617-8.374-34.962-18.314-50.9-5.088-2.694 2.235 3.666 1.727 5.007.614 13.026-10.808 32.943 3.25 45.323 9.905 17.036 9.157 34.04 18.39 51.022 27.656 32.915 17.957 66.728 35.02 98.487 55.266 13.014 8.296 29.476 19.898 34.21 36.267 4.22 14.586-5.322 29.4-18.228 34.198-4.267 1.588-.307 3.11 2.356 2.12" fill="#2c4149"/></svg>