<?xml version="1.0" encoding="UTF-8" standalone="no"?>
<!-- Created with Inkscape (http://www.inkscape.org/) -->
<svg id="svg2" xmlns:rdf="http://www.w3.org/1999/02/22-rdf-syntax-ns#" xmlns="http://www.w3.org/2000/svg" xml:space="preserve" height="320" viewBox="0 0 1763 920" width="1763" version="1.1" xmlns:cc="http://creativecommons.org/ns#" xmlns:dc="http://purl.org/dc/elements/1.1/"><metadata id="metadata8"><rdf:RDF><cc:Work rdf:about=""><dc:format>image/svg+xml</dc:format><dc:type rdf:resource="http://purl.org/dc/dcmitype/StillImage"/><dc:title/></cc:Work></rdf:RDF></metadata><defs id="defs6"><clipPath id="clipPath110" clipPathUnits="userSpaceOnUse"><path id="path112" d="m5900 2420h290v2790h-290v-2790z"/></clipPath><clipPath id="clipPath158" clipPathUnits="userSpaceOnUse"><path id="path160" d="m1775.1 2438.9-774.7 865.7 1463.8 1310.1-689.1-2175.8z"/></clipPath></defs><g id="g10" transform="matrix(1.25,0,0,-1.25,0,920)"><g stroke-linejoin="round" stroke="#fff" stroke-linecap="round" stroke-width="8.7456" fill="none"><path id="path80" d="m922.32 445.06v-15.041h-14.696"/><path id="path82" d="m879.96 430.02h-216.11" stroke-dasharray="29.73511533, 29.73511533"/><path id="path84" d="m648.29 430.02h-14.696v15.041"/><path id="path86" d="m633.59 473.37v159.26" stroke-dasharray="27.98599089, 27.98599089"/><path id="path88" d="m633.59 646.79v15.041h14.696"/><path id="path90" d="m677.68 661.83h216.11" stroke-dasharray="29.73511533, 29.73511533"/><path id="path92" d="m907.62 661.83h14.696v-15.041"/><path id="path94" d="m922.32 616.71v-157.49" stroke-dasharray="27.98599089, 27.98599089"/></g><path id="path96" d="m618.03 638.83h32.849v33.622h-32.849v-33.622z" fill="#67c9d9"/><path id="path98" stroke-linejoin="round" d="m618.03 638.83h32.849v33.622h-32.849v-33.622z" stroke="#fff" stroke-linecap="round" stroke-miterlimit="10" stroke-width="8.7456" fill="none"/><path id="path100" d="m901.57 638.83h32.849v33.622h-32.849v-33.622z" fill="#67c9d9"/><path id="path102" stroke-linejoin="round" d="m901.57 638.83h32.849v33.622h-32.849v-33.622z" stroke="#fff" stroke-linecap="round" stroke-miterlimit="10" stroke-width="8.7456" fill="none"/><path id="path104" d="m1045.9 64.598h50.138v493.71h-50.138v-493.71z" fill="#fbc121"/><g id="g106" transform="matrix(.17289 0 0 .17696 25.884 -363.64)"><g id="g108" clip-path="url(#clipPath110)" stroke="#fff" stroke-miterlimit="10" stroke-width="30" fill="none"><path id="path114" d="m6080 3885h240"/><path id="path116" d="m6080 3735h240"/><path id="path118" d="m6080 3885h240"/><path id="path120" d="m6080 4025h240"/><path id="path122" d="m6080 4175h240"/><path id="path124" d="m6080 4325h240"/><path id="path126" d="m6080 4475h240"/><path id="path128" d="m6080 4615h240"/><path id="path130" d="m6080 4765h240"/><path id="path132" d="m6080 4915h240"/><path id="path134" d="m6080 5065h240"/><path id="path136" d="m6080 3585h240"/><path id="path138" d="m6080 3435h240"/><path id="path140" d="m6080 3285h240"/><path id="path142" d="m6080 3145h240"/><path id="path144" d="m6080 2995h240"/><path id="path146" d="m6080 2845h240"/><path id="path148" d="m6080 2695h240"/><path id="path150" d="m6080 2545h240"/></g></g><path id="path152" d="m332.79 67.941-133.95 153.2 253.09 231.82-119.14-385.02" fill="#fbc121"/><g id="g154" transform="matrix(.17289 0 0 .17696 25.884 -363.64)"><g id="g156" clip-path="url(#clipPath158)" stroke="#fff" stroke-miterlimit="10" stroke-width="31.685" fill="none"><path id="path162" d="m2167 4178.6-162.01 181.02"/><path id="path164" d="m2056.9 4080-161.99 181.03"/><path id="path166" d="m1946.7 3981.4-161.99 181.01"/><path id="path168" d="m1836.5 3882.8-162 181"/><path id="path170" d="m1726.3 3784.2-161.99 181.01"/><path id="path172" d="m1616.1 3685.6-162 181"/><path id="path174" d="m1505.9 3587-161.99 181.02"/><path id="path176" d="m1395.8 3488.4-162 181.01"/><path id="path178" d="m1285.6 3389.8-162 181"/><path id="path180" d="m1175.4 3291.2-162 181.02"/></g></g><g><path id="path182" d="m252.98 218.07 120.07 109.97-56.52-182.65l-63.546 72.679" fill="#67c9d9"/><path id="path184" d="m608.52 64.598h176.35v79.631h-176.35v-79.631z" fill="#9a9c9e"/><path id="path186" d="m784.87 64.209-177.05 80.021h177.05v-80.021" fill="#6b6f74"/><path id="path188" d="m977.59 194.41v359.47c0 9.2903-7.3582 16.82-16.435 16.82h-527.72c-9.0768 0-16.433-7.5296-16.433-16.82v-359.47h560.58" fill="#212227"/><path id="path190" d="m439.83 223.07h514.93v307.76h-514.93v-307.76z" fill="#fff"/><path id="path192" d="m417.01 195.04v-50.463c0-9.2903 7.3565-16.822 16.433-16.822h527.72c9.0768 0 16.435 7.5313 16.435 16.822v50.463h-560.58" fill="#fff"/><path id="path194" d="m703.23 551.39c0-3.3551-2.659-6.075-5.9336-6.075-3.278 0-5.9353 2.7198-5.9353 6.075 0 3.3551 2.6573 6.075 5.9353 6.075 3.2745 0 5.9336-2.7199 5.9336-6.075" fill="#3d788f"/><path id="path196" d="m699.94 154c1.0909-4.861-1.8759-9.7097-6.6269-10.825l-0.59473-0.1397c-4.7493-1.1166-9.4865 1.9218-10.576 6.7828l-2.9962 13.36c-1.0892 4.861 1.8793 9.7079 6.6286 10.825l0.59128 0.1399c4.751 1.1148 15.479-4.1497 16.568-9.0125l-2.9944-11.131" fill="#212227"/><path id="path198" d="m694.66 154c-1.0909-4.861 1.8776-9.7097 6.6269-10.825l0.59301-0.1397c4.7528-1.1166 9.4865 1.9218 10.576 6.7828l2.9962 13.36c1.091 4.861-1.8759 9.7079-6.6269 10.825l-0.59301 0.1399c-4.751 1.1148-13.342-2.281-14.431-7.1438l0.85926-12.999" fill="#212227"/></g><path id="path200" d="m698.67 164.51s-2.4343 11.214 3.0446 15.574" stroke="#212227" stroke-linecap="round" stroke-miterlimit="10" stroke-width="5.5421" fill="none"/><path id="path202" d="m824.72 64.938c-0.82468 12.752-11.162 22.838-23.824 22.838h-207.19c-12.664 0-23.001-10.087-23.824-22.838h254.84" fill="#fff"/><path id="path204" d="m470.21 414.98h127.94v46.009h-127.94v-46.009z" fill="#f36343"/><g fill="#f9aa9d"><path id="path206" d="m470.21 381.35h127.94v14.157h-127.94v-14.157z"/><path id="path208" d="m470.21 349.5h127.94v14.157h-127.94v-14.157z"/><path id="path210" d="m470.21 317.65h127.94v14.157h-127.94v-14.157z"/><path id="path212" d="m470.21 285.8h127.94v14.157h-127.94v-14.157z"/><path id="path214" d="m470.21 255.71h127.94v12.387h-127.94v-12.387z"/></g><path id="path216" d="m632.73 414.98h127.94v46.009h-127.94v-46.009z" fill="#f36343"/><g fill="#f9aa9d"><path id="path218" d="m632.73 381.35h127.94v14.157h-127.94v-14.157z"/><path id="path220" d="m632.73 349.5h127.94v14.157h-127.94v-14.157z"/><path id="path222" d="m632.73 317.65h127.94v14.157h-127.94v-14.157z"/><path id="path224" d="m632.73 285.8h127.94v14.157h-127.94v-14.157z"/><path id="path226" d="m632.73 255.71h127.94v12.387h-127.94v-12.387z"/></g><path id="path228" d="m795.25 414.98h127.94v46.009h-127.94v-46.009z" fill="#f36343"/><g fill="#f9aa9d"><path id="path230" d="m795.25 381.35h127.94v14.157h-127.94v-14.157z"/><path id="path232" d="m795.25 349.5h127.94v14.157h-127.94v-14.157z"/><path id="path234" d="m795.25 317.65h127.94v14.157h-127.94v-14.157z"/><path id="path236" d="m795.25 285.8h127.94v14.157h-127.94v-14.157z"/><path id="path238" d="m795.25 255.71h127.94v12.387h-127.94v-12.387z"/></g><g><path id="path240" d="m470.21 485.76h79.53v23.005h-79.53v-23.005z" fill="#67c9d9"/><path id="path242" d="m563.57 485.76h79.53v23.005h-79.53v-23.005z" fill="#664b92"/><path id="path244" d="m656.93 485.76h81.258v23.005h-81.258v-23.005z" fill="#f9aa9d"/><path id="path246" d="m752.02 485.76h77.801v23.005h-77.801v-23.005z" fill="#74ce9c"/><path id="path248" d="m845.38 485.76h77.801v23.005h-77.801v-23.005z" fill="#67c9d9"/><path id="path250" d="m1205 95.576c0-9.2903-7.3582-16.822-16.435-16.822h-304.27c-9.0767 0-16.435 7.5313-16.435 16.822v207.02c0 9.2903 7.3582 16.822 16.435 16.822h304.27c9.0767 0 16.435-7.5313 16.435-16.822v-207.02" fill="#212227"/><path id="path252" d="m885.38 101.55h301.29v194.37h-301.29v-194.37z" fill="#fff"/><path id="path254" d="m835.99 87.523c0.85581-13.233 11.582-23.7 24.725-23.7h350.61c13.143 0 23.871 10.467 24.725 23.7h-400.06" fill="#fff"/><path id="path258" d="m1042 308.39c0-3.3552-2.659-6.075-5.9319-6.075-3.2797 0-5.937 2.7198-5.937 6.075 0 3.3534 2.6573 6.0732 5.937 6.0732 3.2729 0 5.9319-2.7198 5.9319-6.0732" fill="#3d788f"/><path id="path260" d="m905.9 218.55h72.614v24.774h-72.614v-24.774z" fill="#f36343"/></g><g fill="#f9aa9d"><path id="path262" d="m905.9 197.32h72.614v8.8479h-72.614v-8.8479z"/><path id="path264" d="m905.9 177.85h72.614v8.8479h-72.614v-8.8479z"/><path id="path266" d="m905.9 161.92h72.614v7.0783h-72.614v-7.0783z"/><path id="path268" d="m905.9 142.46h72.614v7.0783h-72.614v-7.0783z"/><path id="path270" d="m905.9 124.76h72.614v7.0783h-72.614v-7.0783z"/></g><path id="path272" d="m999.26 218.55h76.072v24.774h-76.072v-24.774z" fill="#f36343"/><g fill="#f9aa9d"><path id="path274" d="m999.26 197.32h76.072v8.8479h-76.072v-8.8479z"/><path id="path276" d="m999.26 177.85h76.072v8.8479h-76.072v-8.8479z"/><path id="path278" d="m999.26 161.92h76.072v7.0783h-76.072v-7.0783z"/><path id="path280" d="m999.26 142.46h76.072v7.0783h-76.072v-7.0783z"/><path id="path282" d="m999.26 124.76h76.072v7.0783h-76.072v-7.0783z"/></g><path id="path284" d="m1096.1 218.55h72.614v24.774h-72.614v-24.774z" fill="#f36343"/><g fill="#f9aa9d"><path id="path286" d="m1096.1 197.32h72.614v8.8479h-72.614v-8.8479z"/><path id="path288" d="m1096.1 177.85h72.614v8.8479h-72.614v-8.8479z"/><path id="path290" d="m1096.1 161.92h72.614v7.0783h-72.614v-7.0783z"/><path id="path292" d="m1096.1 142.46h72.614v7.0783h-72.614v-7.0783z"/><path id="path294" d="m1096.1 124.76h72.614v7.0783h-72.614v-7.0783z"/></g><g><path id="path296" d="m905.9 261.02h44.951v10.618h-44.951v-10.618z" fill="#67c9d9"/><path id="path298" d="m957.76 261.02h48.409v10.618h-48.409v-10.618z" fill="#664b92"/><path id="path300" d="m1014.8 261.02h46.68v10.618h-46.68v-10.618z" fill="#f9aa9d"/><path id="path302" d="m1070.1 261.02h44.951v10.618h-44.951v-10.618z" fill="#74ce9c"/><path id="path304" d="m1122 261.02h46.68v10.618h-46.68v-10.618z" fill="#67c9d9"/><path id="path306" d="m568.76 81.42c0-9.2903-7.3582-16.822-16.435-16.822h-57.033c-9.0767 0-16.435 7.5314-16.435 16.822v139.78c0 9.2903 7.3582 16.822 16.435 16.822h57.033c9.0767 0 16.435-7.5314 16.435-16.822v-139.78" fill="#212227"/><path id="path308" d="m484.57 92.244h76.692v124.28h-76.692v-124.28z" fill="#fff"/><path id="path310" d="m484.57 205.32h76.692v11.212h-76.692v-11.212z" fill="#f9aa9d"/><path id="path312" d="m484.57 92.244h76.692v11.214h-76.692v-11.214z" fill="#f9aa9d"/><path id="path314" d="m529.76 78.537c0-3.3551-2.659-6.075-5.9336-6.075-3.2763 0-5.9353 2.7199-5.9353 6.075 0 3.3534 2.659 6.075 5.9353 6.075 3.2745 0 5.9336-2.7216 5.9336-6.075" fill="#3d788f"/><path id="path316" d="m490.96 181.39h63.969v12.387h-63.969v-12.387z" fill="#67c9d9"/><path id="path318" d="m490.96 165.46h63.969v10.618h-63.969v-10.618z" fill="#664b92"/><path id="path320" d="m490.96 147.77h63.969v12.387h-63.969v-12.387z" fill="#f36343"/><path id="path322" d="m490.96 131.84h63.969v10.618h-63.969v-10.618z" fill="#74ce9c"/><path id="path324" d="m490.96 114.15h63.969v12.387h-63.969v-12.387z" fill="#67c9d9"/><path id="path326" d="m454.65 81.42c0-9.2903-7.3582-16.822-16.433-16.822h-133.11c-9.075 0-16.433 7.5314-16.433 16.822v205.25c0 9.2903 7.3582 16.822 16.433 16.822h133.11c9.075 0 16.433-7.5313 16.433-16.822v-205.25" fill="#212227"/><path id="path328" d="m296.19 93.49h150.34v186.9h-150.34v-186.9z" fill="#fff"/><path id="path330" d="m376.38 78.537c0-3.3551-2.659-6.075-5.9336-6.075-3.2797 0-5.9353 2.7199-5.9353 6.075 0 3.3534 2.6556 6.075 5.9353 6.075 3.2745 0 5.9336-2.7216 5.9336-6.075" fill="#3d788f"/><path id="path332" d="m305.97 255.71h58.783v10.618h-58.783v-10.618z" fill="#67c9d9"/><path id="path334" d="m305.97 238.02h58.783v10.618h-58.783v-10.618z" fill="#664b92"/><path id="path336" d="m305.97 220.32h58.783v12.387h-58.783v-12.387z" fill="#f36343"/><path id="path338" d="m305.97 204.39h58.783v10.618h-58.783v-10.618z" fill="#74ce9c"/><path id="path340" d="m305.97 186.7h58.783v12.387h-58.783v-12.387z" fill="#67c9d9"/><path id="path342" d="m375.12 245.1h62.24v21.235h-62.24v-21.235z" fill="#f36343"/></g><g fill="#f9aa9d"><path id="path344" d="m375.12 230.94h62.24v7.0783h-62.24v-7.0783z"/><path id="path346" d="m375.12 215.01h62.24v8.8479h-62.24v-8.8479z"/><path id="path348" d="m375.12 200.86h62.24v7.0783h-62.24v-7.0783z"/><path id="path350" d="m375.12 184.93h62.24v8.8479h-62.24v-8.8479z"/><path id="path352" d="m375.12 170.77h62.24v7.0783h-62.24v-7.0783z"/><path id="path354" d="m305.97 169h58.783v7.0783h-58.783v-7.0783z"/><path id="path356" d="m305.97 153.08h58.783v8.8479h-58.783v-8.8479z"/><path id="path358" d="m305.97 138.92h58.783v7.0783h-58.783v-7.0783z"/><path id="path360" d="m305.97 124.76h58.783v7.0783h-58.783v-7.0783z"/><path id="path362" d="m305.97 108.84h58.783v7.0783h-58.783v-7.0783z"/></g><path id="path364" d="m375.12 108.84h62.24v53.087h-62.24v-53.087z" fill="#f36343"/><path id="path366" d="m364.1 438.82c0-20.747-16.433-37.566-36.703-37.566s-36.701 16.82-36.701 37.566c0 20.745 16.431 37.565 36.701 37.565s36.703-16.82 36.703-37.565z" stroke="#fff" stroke-miterlimit="10" stroke-dasharray="19.43679541, 19.43679541" stroke-width="18.566" fill="none"/><path id="path368" d="m364.1 438.82c0-20.747-16.433-37.566-36.703-37.566s-36.701 16.82-36.701 37.566c0 20.745 16.431 37.565 36.701 37.565s36.703-16.82 36.703-37.565" fill="#fff"/><path id="path370" d="m348.36 438.82c0-11.856-9.3879-21.467-20.972-21.467s-20.972 9.6106-20.972 21.467c0 11.854 9.388 21.465 20.972 21.465s20.972-9.6106 20.972-21.465" fill="#67c9d9"/><path id="path372" d="m394.79 524.19c0-14.334-11.354-25.954-25.358-25.954s-25.358 11.621-25.358 25.954c0 14.334 11.354 25.954 25.358 25.954s25.358-11.621 25.358-25.954z" stroke="#fff" stroke-miterlimit="10" stroke-dasharray="13.42911271, 13.42911271" stroke-width="12.827" fill="none"/><path id="path374" d="m394.79 524.19c0-14.334-11.354-25.954-25.358-25.954s-25.358 11.621-25.358 25.954c0 14.334 11.354 25.954 25.358 25.954s25.358-11.621 25.358-25.954" fill="#fff"/><path id="path376" d="m383.92 524.19c0-8.1914-6.4869-14.831-14.49-14.831s-14.488 6.6395-14.488 14.831c0 8.1914 6.4851 14.831 14.488 14.831 8.0031 0 14.49-6.6395 14.49-14.831" fill="#67c9d9"/><path id="path378" d="m318.05 524.87c0-12.449-9.8582-22.539-22.021-22.539-12.161 0-22.019 10.09-22.019 22.539 0 12.447 9.8582 22.539 22.019 22.539 12.163 0 22.021-10.092 22.021-22.539z" stroke="#fff" stroke-miterlimit="10" stroke-dasharray="11.66177989, 11.66177989" stroke-width="11.139" fill="none"/><path id="path380" d="m318.05 524.87c0-12.449-9.8582-22.539-22.021-22.539-12.161 0-22.019 10.09-22.019 22.539 0 12.447 9.8582 22.539 22.019 22.539 12.163 0 22.021-10.092 22.021-22.539" fill="#fff"/><path id="path382" d="m308.61 524.87c0-7.1137-5.6328-12.879-12.583-12.879s-12.583 5.7653-12.583 12.879 5.6328 12.879 12.583 12.879 12.583-5.7653 12.583-12.879" fill="#67c9d9"/><g fill="#fbc121"><path id="path384" d="m753.75 69.022c0-3.4206-2.7092-6.1935-6.0512-6.1935s-6.0512 2.7729-6.0512 6.1935v171.65c0 3.4206 2.7092 6.1935 6.0512 6.1935s6.0512-2.7729 6.0512-6.1935v-171.65"/><path id="path386" d="m796.97 69.022c0-3.4206-2.7092-6.1935-6.0512-6.1935s-6.0512 2.7729-6.0512 6.1935v171.65c0 3.4206 2.7092 6.1935 6.0512 6.1935s6.0512-2.7729 6.0512-6.1935v-171.65"/><path id="path388" d="m748.57 195.55h41.494v10.618h-41.494v-10.618z"/><path id="path390" d="m748.57 170.77h41.494v10.617h-41.494v-10.617z"/><path id="path392" d="m748.57 146h41.494v12.387h-41.494v-12.387z"/><path id="path394" d="m748.57 122.99h41.494v10.618h-41.494v-10.618z"/><path id="path396" d="m748.57 98.22h41.494v10.618h-41.494v-10.618z"/></g><g><path id="path398" d="m1106.4 454.78c0 9.2885-7.3582 16.82-16.433 16.82h-74.326c-9.075 0-16.433-7.5314-16.433-16.82v-38.913c0-9.2886 7.3582-16.82 16.433-16.82h74.326c9.075 0 16.433 7.5313 16.433 16.82v38.913" fill="#fff"/><path id="path400" d="m1042.4 402.65-20.698-20.718v27.731" fill="#fff"/><path id="path402" d="m1018.3 439.75h67.427v10.618h-67.427v-10.618z" fill="#fbc121"/><path id="path404" d="m1018.3 416.74h67.427v12.387h-67.427v-12.387z" fill="#fbc121"/><path id="path406" d="m553.2 695.46c0-9.2903-7.3582-16.822-16.433-16.822h-10.356c-9.075 0-16.433 7.5313-16.433 16.822v5.2875c0 9.2903 7.3582 16.822 16.433 16.822h10.356c9.075 0 16.433-7.5313 16.433-16.822v-5.2875" fill="#f9aa9d"/><path id="path408" d="m509.98 485.76h43.223v189.35h-43.223v-189.35z" fill="#fbc121"/><path id="path410" d="m522.08 485.76h19.018v189.35h-19.018v-189.35z" fill="#fce78d"/><path id="path412" d="m553.1 485.76h-43.824l21.912-48.593 21.912 48.593" fill="#fff"/><path id="path414" d="m518.13 466.97 13.064-28.97 13.064 28.97h-26.127" fill="#212227"/><path id="path416" d="m509.98 675.1h43.223v19.465h-43.223v-19.465z" fill="#fff"/></g></g></svg>
