<svg xmlns="http://www.w3.org/2000/svg" height="243.735" viewBox="0 0 286.2908 183.73456" width="286.291"><defs><clipPath id="a"><path d="M5900 2420h290v2790h-290V2420z"/></clipPath><clipPath id="b"><path d="M1775.1 2438.9l-774.7 865.7 1463.8 1310.1-689.1-2175.8z"/></clipPath></defs><g fill="none" stroke="#fff" stroke-width="8.746" stroke-linecap="round" stroke-linejoin="round"><path d="M922.32 445.06v-15.04h-14.696" transform="matrix(.27602 0 0 -.28062 -54.884 201.366)"/><path d="M879.96 430.02H663.85" stroke-dasharray="29.73511533, 29.73511533" transform="matrix(.27602 0 0 -.28062 -54.884 201.366)"/><path d="M648.29 430.02h-14.696v15.04" transform="matrix(.27602 0 0 -.28062 -54.884 201.366)"/><path d="M633.59 473.37v159.26" stroke-dasharray="27.98599089, 27.98599089" transform="matrix(.27602 0 0 -.28062 -54.884 201.366)"/><path d="M633.59 646.79v15.04h14.696" transform="matrix(.27602 0 0 -.28062 -54.884 201.366)"/><path d="M677.68 661.83h216.11" stroke-dasharray="29.73511533, 29.73511533" transform="matrix(.27602 0 0 -.28062 -54.884 201.366)"/><path d="M907.62 661.83h14.696v-15.04" transform="matrix(.27602 0 0 -.28062 -54.884 201.366)"/><path d="M922.32 616.71V459.22" stroke-dasharray="27.98599089, 27.98599089" transform="matrix(.27602 0 0 -.28062 -54.884 201.366)"/></g><path d="M115.705 22.098h9.067v-9.435h-9.067v9.435z" fill="#67c9d9"/><path d="M618.03 638.83h32.85v33.622h-32.85V638.83z" stroke-miterlimit="10" fill="none" stroke="#fff" stroke-width="8.746" stroke-linecap="round" stroke-linejoin="round" transform="matrix(.27602 0 0 -.28062 -54.884 201.366)"/><path d="M193.967 22.098h9.067v-9.435h-9.067v9.435z" fill="#67c9d9"/><path d="M901.57 638.83h32.85v33.622h-32.85V638.83z" stroke-miterlimit="10" fill="none" stroke="#fff" stroke-width="8.746" stroke-linecap="round" stroke-linejoin="round" transform="matrix(.27602 0 0 -.28062 -54.884 201.366)"/><path d="M233.805 183.24h13.84V44.693h-13.84V183.24z" fill="#fbc121"/><g clip-path="url(#a)" stroke-miterlimit="10" fill="none" stroke="#fff" stroke-width="30" transform="matrix(.04772 0 0 -.04966 -47.74 303.41)"><path d="M6080 3885h240M6080 3735h240M6080 3885h240M6080 4025h240M6080 4175h240M6080 4325h240M6080 4475h240M6080 4615h240M6080 4765h240M6080 4915h240M6080 5065h240M6080 3585h240M6080 3435h240M6080 3285h240M6080 3145h240M6080 2995h240M6080 2845h240M6080 2695h240M6080 2545h240"/></g><path d="M36.973 182.3L0 139.31l69.858-65.054L36.973 182.3" fill="#fbc121"/><g clip-path="url(#b)" stroke-miterlimit="10" fill="none" stroke="#fff" stroke-width="31.685" transform="matrix(.04772 0 0 -.04966 -47.74 303.41)"><path d="M2167 4178.6l-162.01 181.02M2056.9 4080l-161.99 181.03M1946.7 3981.4l-161.99 181.01M1836.5 3882.8l-162 181M1726.3 3784.2l-161.99 181.01M1616.1 3685.6l-162 181M1505.9 3587l-161.99 181.02M1395.8 3488.4l-162 181.01M1285.6 3389.8l-162 181M1175.4 3291.2l-162 181.02"/></g><path d="M14.944 140.17l33.14-30.86-15.6 51.257-17.54-20.396" fill="#67c9d9"/><path d="M113.08 183.24h48.676V160.89H113.08v22.347z" fill="#9a9c9e"/><path d="M161.756 183.348l-48.87-22.456h48.87v22.456" fill="#6b6f74"/><path d="M214.95 146.81V45.937c0-2.607-2.03-4.72-4.536-4.72H64.754c-2.507 0-4.537 2.113-4.537 4.72V146.81h154.73" fill="#212227"/><path d="M66.518 138.768h142.13V52.404H66.52v86.364zM60.22 146.634v14.16c0 2.608 2.03 4.72 4.535 4.72h145.66c2.507 0 4.538-2.112 4.538-4.72v-14.16H60.22" fill="#fff"/><path d="M139.222 46.635c0 .94-.734 1.705-1.638 1.705-.905 0-1.64-.764-1.64-1.705 0-.942.735-1.705 1.64-1.705.904 0 1.638.763 1.638 1.705" fill="#3d788f"/><path d="M138.313 158.15c.302 1.365-.517 2.725-1.83 3.038l-.163.04c-1.31.313-2.618-.54-2.92-1.904l-.826-3.75c-.3-1.363.52-2.723 1.83-3.037l.163-.04c1.31-.312 4.272 1.165 4.573 2.53l-.827 3.124" fill="#212227"/><path d="M136.856 158.15c-.3 1.365.518 2.725 1.83 3.038l.163.04c1.31.313 2.617-.54 2.918-1.904l.827-3.75c.3-1.363-.518-2.723-1.83-3.037l-.163-.04c-1.31-.312-3.682.64-3.983 2.006l.236 3.647" fill="#212227"/><path d="M698.67 164.51s-2.434 11.214 3.045 15.574" stroke-miterlimit="10" fill="none" stroke="#212227" stroke-width="5.542" stroke-linecap="round" transform="matrix(.27602 0 0 -.28062 -54.884 201.366)"/><path d="M172.755 183.143c-.227-3.578-3.08-6.41-6.576-6.41h-57.19c-3.495 0-6.348 2.832-6.575 6.41h70.34" fill="#fff"/><path d="M74.903 84.914h35.314v-12.91H74.903v12.91z" fill="#f36343"/><g fill="#f9aa9d"><path d="M74.903 94.352h35.314V90.38H74.903v3.972zM74.903 103.29h35.314v-3.973H74.903v3.972zM74.903 112.227h35.314v-3.973H74.903v3.973zM74.903 121.165h35.314v-3.973H74.903v3.973zM74.903 129.61h35.314v-3.477H74.903v3.476z"/></g><path d="M119.762 84.914h35.314v-12.91h-35.314v12.91z" fill="#f36343"/><g fill="#f9aa9d"><path d="M119.762 94.352h35.314V90.38h-35.314v3.972zM119.762 103.29h35.314v-3.973h-35.314v3.972zM119.762 112.227h35.314v-3.973h-35.314v3.973zM119.762 121.165h35.314v-3.973h-35.314v3.973zM119.762 129.61h35.314v-3.477h-35.314v3.476z"/></g><path d="M164.62 84.914h35.315v-12.91H164.62v12.91z" fill="#f36343"/><g fill="#f9aa9d"><path d="M164.62 94.352h35.315V90.38H164.62v3.972zM164.62 103.29h35.315v-3.973H164.62v3.972zM164.62 112.227h35.315v-3.973H164.62v3.973zM164.62 121.165h35.315v-3.973H164.62v3.973zM164.62 129.61h35.315v-3.477H164.62v3.476z"/></g><path d="M74.903 65.052h21.952v-6.456H74.903v6.456z" fill="#67c9d9"/><path d="M100.673 65.052h21.95v-6.456h-21.95v6.456z" fill="#664b92"/><path d="M126.442 65.052h22.43v-6.456h-22.43v6.456z" fill="#f9aa9d"/><path d="M152.69 65.052h21.473v-6.456H152.69v6.456z" fill="#74ce9c"/><path d="M178.458 65.052h21.474v-6.456h-21.474v6.456z" fill="#67c9d9"/><path d="M277.72 174.545c0 2.608-2.03 4.72-4.536 4.72H189.2c-2.506 0-4.537-2.112-4.537-4.72v-58.093c0-2.608 2.03-4.72 4.536-4.72h83.984c2.505 0 4.536 2.112 4.536 4.72v58.093" fill="#212227"/><path d="M189.5 172.87h83.16v-54.545H189.5v54.544zM175.866 176.805c.236 3.714 3.197 6.65 6.825 6.65h96.776c3.628 0 6.59-2.936 6.825-6.65H175.867" fill="#fff"/><path d="M232.73 114.826c0 .94-.735 1.704-1.638 1.704-.906 0-1.64-.763-1.64-1.704 0-.94.734-1.705 1.64-1.705.903 0 1.637.765 1.637 1.706" fill="#3d788f"/><path d="M195.163 140.036h20.042v-6.952h-20.042v6.952z" fill="#f36343"/><g fill="#f9aa9d"><path d="M195.163 145.994h20.042v-2.483h-20.042v2.484zM195.163 151.458h20.042v-2.483h-20.042v2.483zM195.163 155.928h20.042v-1.986h-20.042v1.986zM195.163 161.39h20.042v-1.987h-20.042v1.986zM195.163 166.356h20.042v-1.986h-20.042v1.986z"/></g><path d="M220.932 140.036h20.997v-6.952H220.93v6.952z" fill="#f36343"/><g fill="#f9aa9d"><path d="M220.932 145.994h20.997v-2.483H220.93v2.484zM220.932 151.458h20.997v-2.483H220.93v2.483zM220.932 155.928h20.997v-1.986H220.93v1.986zM220.932 161.39h20.997v-1.987H220.93v1.986zM220.932 166.356h20.997v-1.986H220.93v1.986z"/></g><path d="M247.662 140.036h20.042v-6.952h-20.042v6.952z" fill="#f36343"/><g fill="#f9aa9d"><path d="M247.662 145.994h20.042v-2.483h-20.042v2.484zM247.662 151.458h20.042v-2.483h-20.042v2.483zM247.662 155.928h20.042v-1.986h-20.042v1.986zM247.662 161.39h20.042v-1.987h-20.042v1.986zM247.662 166.356h20.042v-1.986h-20.042v1.986z"/></g><g><path d="M195.163 128.12h12.407v-2.98h-12.407v2.98z" fill="#67c9d9"/><path d="M209.477 128.12h13.362v-2.98h-13.363v2.98z" fill="#664b92"/><path d="M225.22 128.12h12.886v-2.98H225.22v2.98z" fill="#f9aa9d"/><path d="M240.485 128.12h12.407v-2.98h-12.407v2.98z" fill="#74ce9c"/><path d="M254.81 128.12h12.885v-2.98H254.81v2.98z" fill="#67c9d9"/><path d="M102.105 178.518c0 2.607-2.03 4.72-4.536 4.72H81.825c-2.505 0-4.536-2.113-4.536-4.72v-39.225c0-2.607 2.03-4.72 4.536-4.72H97.57c2.504 0 4.535 2.113 4.535 4.72v39.225" fill="#212227"/><path d="M78.867 175.48h21.17v-34.875h-21.17v34.875z" fill="#fff"/><path d="M78.867 143.75h21.17v-3.147h-21.17v3.146zM78.867 175.48h21.17v-3.146h-21.17v3.146z" fill="#f9aa9d"/><path d="M91.34 179.327c0 .94-.734 1.705-1.637 1.705-.905 0-1.64-.764-1.64-1.705 0-.94.735-1.705 1.64-1.705.903 0 1.637.764 1.637 1.705" fill="#3d788f"/><path d="M80.63 150.464H98.29v-3.476H80.63v3.476z" fill="#67c9d9"/><path d="M80.63 154.935H98.29v-2.98H80.63v2.98z" fill="#664b92"/><path d="M80.63 159.9H98.29v-3.477H80.63v3.476z" fill="#f36343"/><path d="M80.63 164.37H98.29v-2.98H80.63v2.98z" fill="#74ce9c"/><path d="M80.63 169.333H98.29v-3.476H80.63v3.476z" fill="#67c9d9"/><path d="M70.608 178.518c0 2.607-2.03 4.72-4.535 4.72h-36.74c-2.506 0-4.537-2.113-4.537-4.72V120.92c0-2.606 2.03-4.72 4.536-4.72h36.74c2.506 0 4.536 2.114 4.536 4.72v57.598" fill="#212227"/><path d="M26.87 175.13h41.497v-52.447H26.87v52.448z" fill="#fff"/><path d="M49.004 179.327c0 .94-.734 1.705-1.637 1.705-.906 0-1.64-.764-1.64-1.705 0-.94.734-1.705 1.64-1.705.903 0 1.637.764 1.637 1.705" fill="#3d788f"/><path d="M29.57 129.61h16.225v-2.98H29.57v2.98z" fill="#67c9d9"/><path d="M29.57 134.573h16.225v-2.98H29.57v2.98z" fill="#664b92"/><path d="M29.57 139.54h16.225v-3.476H29.57v3.476z" fill="#f36343"/><path d="M29.57 144.01h16.225v-2.98H29.57v2.98z" fill="#74ce9c"/><path d="M29.57 148.974h16.225v-3.476H29.57v3.476z" fill="#67c9d9"/><path d="M48.657 132.586h17.18v-5.96h-17.18v5.96z" fill="#f36343"/></g><g fill="#f9aa9d"><path d="M48.657 136.56h17.18v-1.987h-17.18v1.987zM48.657 141.03h17.18v-2.483h-17.18v2.483zM48.657 145h17.18v-1.986h-17.18V145zM48.657 149.47h17.18v-2.482h-17.18v2.483zM48.657 153.445h17.18v-1.987h-17.18v1.987zM29.57 153.94h16.225v-1.985H29.57v1.986zM29.57 158.41h16.225v-2.484H29.57v2.483zM29.57 162.382h16.225v-1.986H29.57v1.986zM29.57 166.356h16.225v-1.986H29.57v1.986zM29.57 170.823h16.225v-1.986H29.57v1.986z"/></g><path d="M48.657 170.823h17.18v-14.897h-17.18v14.897z" fill="#f36343"/><path d="M364.1 438.82c0-20.747-16.433-37.566-36.703-37.566-20.27 0-36.7 16.82-36.7 37.566 0 20.745 16.43 37.565 36.7 37.565 20.27 0 36.703-16.82 36.703-37.565z" stroke-miterlimit="10" fill="none" stroke="#fff" stroke-width="18.566" stroke-dasharray="19.43679541, 19.43679541" transform="matrix(.27602 0 0 -.28062 -54.884 201.366)"/><path d="M45.615 78.224c0 5.822-4.536 10.542-10.13 10.542-5.596 0-10.13-4.72-10.13-10.542 0-5.82 4.534-10.54 10.13-10.54 5.594 0 10.13 4.72 10.13 10.54" fill="#fff"/><path d="M41.27 78.224c0 3.327-2.59 6.024-5.788 6.024-3.198 0-5.79-2.697-5.79-6.024 0-3.326 2.592-6.023 5.79-6.023 3.197 0 5.788 2.698 5.788 6.024" fill="#67c9d9"/><path d="M394.79 524.19c0-14.334-11.354-25.954-25.358-25.954-14.004 0-25.358 11.62-25.358 25.954 0 14.334 11.354 25.954 25.358 25.954 14.004 0 25.358-11.62 25.358-25.954z" stroke-miterlimit="10" fill="none" stroke="#fff" stroke-width="12.827" stroke-dasharray="13.42911271, 13.42911271" transform="matrix(.27602 0 0 -.28062 -54.884 201.366)"/><path d="M54.086 54.268c0 4.022-3.134 7.283-7 7.283-3.865 0-7-3.26-7-7.282 0-4.023 3.135-7.283 7-7.283 3.866 0 7 3.26 7 7.283" fill="#fff"/><path d="M51.086 54.268c0 2.298-1.79 4.162-4 4.162s-4-1.863-4-4.162c0-2.3 1.79-4.162 4-4.162s4 1.863 4 4.162" fill="#67c9d9"/><path d="M318.05 524.87c0-12.45-9.858-22.54-22.02-22.54-12.162 0-22.02 10.09-22.02 22.54 0 12.447 9.858 22.54 22.02 22.54 12.162 0 22.02-10.093 22.02-22.54z" stroke-miterlimit="10" fill="none" stroke="#fff" stroke-width="11.139" stroke-dasharray="11.66177989, 11.66177989" transform="matrix(.27602 0 0 -.28062 -54.884 201.366)"/><path d="M32.904 54.077c0 3.493-2.72 6.325-6.078 6.325-3.357 0-6.078-2.832-6.078-6.325 0-3.493 2.72-6.325 6.078-6.325 3.357 0 6.078 2.832 6.078 6.325" fill="#fff"/><path d="M30.3 54.077c0 1.996-1.556 3.614-3.475 3.614-1.918 0-3.473-1.617-3.473-3.613s1.555-3.614 3.473-3.614c1.92 0 3.474 1.618 3.474 3.614" fill="#67c9d9"/><g fill="#fbc121"><path d="M153.166 181.997c0 .96-.748 1.738-1.67 1.738-.923 0-1.67-.778-1.67-1.738V133.83c0-.96.747-1.74 1.67-1.74.922 0 1.67.78 1.67 1.74v48.167M165.096 181.997c0 .96-.748 1.738-1.67 1.738-.923 0-1.67-.778-1.67-1.738V133.83c0-.96.747-1.74 1.67-1.74.922 0 1.67.78 1.67 1.74v48.167"/><path d="M151.736 146.49h11.453v-2.98h-11.454v2.98zM151.736 153.445h11.453v-2.98h-11.454v2.98zM151.736 160.395h11.453v-3.476h-11.454v3.475zM151.736 166.853h11.453v-2.98h-11.454v2.98zM151.736 173.804h11.453v-2.98h-11.454v2.98z"/></g><g><path d="M250.505 73.746c0-2.607-2.03-4.72-4.536-4.72h-20.517c-2.505 0-4.536 2.113-4.536 4.72v10.92c0 2.606 2.03 4.72 4.536 4.72h20.516c2.504 0 4.535-2.114 4.535-4.72v-10.92" fill="#fff"/><path d="M232.84 88.374l-5.714 5.814v-7.782" fill="#fff"/><path d="M226.187 77.963h18.61v-2.98h-18.61v2.98zM226.187 84.42h18.61v-3.476h-18.61v3.476z" fill="#fbc121"/><path d="M97.81 6.206c0 2.607-2.03 4.72-4.536 4.72h-2.858c-2.505 0-4.536-2.113-4.536-4.72V4.722c0-2.607 2.03-4.72 4.536-4.72h2.858c2.505 0 4.536 2.113 4.536 4.72v1.484" fill="#f9aa9d"/><path d="M85.88 65.052h11.93V11.917H85.88v53.135z" fill="#fbc121"/><path d="M89.22 65.052h5.25V11.917h-5.25v53.135z" fill="#fce78d"/><path d="M97.783 65.052H85.686l6.05 13.636 6.047-13.636" fill="#fff"/><path d="M88.13 70.325l3.606 8.13 3.606-8.13h-7.21" fill="#212227"/><path d="M85.88 11.92h11.93V6.456H85.88v5.462z" fill="#fff"/></g></svg>
