<svg xmlns="http://www.w3.org/2000/svg" width="1700" height="720"><path d="M950.643 551.627l42.528 23.75-28.962 33.245s-102.09 30.152-113.957 29.044c-11.866-1.11-48.592-9.724-55.493-12.91 0 0 12.614-17.62 32.253-28.02 19.634-10.404 123.633-45.11 123.633-45.11" fill="#80d4c3"/><path d="M1065.106 583.896s8.85 3.29 10.257 7.118c1.408 3.832-66.076 146.71-69.74 154.555-3.66 7.842-20.268 22.03-23.012 27.916-2.748 5.883-30.414-14.443-31.997-18.75-1.588-4.307 9.773-37.206 22.708-49.512 12.937-12.306 32.923-44.007 26.41-61.716-6.515-17.71-26.906-21.958-32.857-9.21-5.946 12.75-13.388 2.157-9.117-6.995 4.275-9.152 18.156-42.344 35.415-51.925" fill="#80d4c3"/><path d="M1025.402 672.023s-.497 4.94-2.493 11.734c-.485 1.71-1.017 3.552-1.708 5.442-.655 1.902-1.32 3.928-2.177 5.936-.853 2.012-1.58 4.165-2.6 6.212-.967 2.078-1.952 4.187-2.938 6.296-1.09 2.05-2.18 4.107-3.26 6.133-1.037 2.04-2.304 3.924-3.4 5.817-1.085 1.896-2.317 3.64-3.434 5.317-1.09 1.695-2.252 3.23-3.32 4.648-4.223 5.7-7.86 9.09-7.86 9.09l-.555-.27s8.164-16.726 16.323-33.45c8.437-16.592 16.873-33.177 16.873-33.177l.55.273" fill="#45aaad"/><path d="M739.826 694.133s-4.11-3.885-8.397-10.4c-1.1-1.617-2.275-3.376-3.326-5.305-1.104-1.912-2.314-3.912-3.303-6.072-.993-2.162-2.256-4.31-3.118-6.646-.937-2.31-1.89-4.655-2.845-7-.792-2.4-1.58-4.804-2.362-7.17-.827-2.348-1.28-4.79-1.918-7.082-.65-2.285-1.007-4.594-1.412-6.76-.453-2.15-.69-4.248-.906-6.19-.955-7.727-.353-13.326-.353-13.326l.823-.302 14.382 37.83c6.783 19.06 13.56 38.126 13.56 38.126l-.826.297" fill="#2c4149"/><path d="M651.436 384.77s6.928 29.783-8.704 56.64c-15.628 26.858-32.135 15.36-32.135 15.36l2.78-4.676s7.746-1.19 11.638-9.53c3.893-8.333 1.803-34.03-25.862-28.033l-24.248 62.028 33.405 18.493s-14.523 23.936-29.32 29.32c-14.8 5.39-30.26 12.312-37.4 5.142-7.137-7.175-3.328-39.09 3.08-52.818 6.41-13.733 51.703-143.496 51.703-143.496" fill="#80d4c3"/><path d="M795.263 762.972c1.983-4.252 12.478-62.49-9.11-121.18-21.59-58.693-75.225-226.766-75.225-226.766l-12.812-6.392-49.055 16.244s63.746 235.58 89.235 275.197c25.484 39.618 56.968 62.897 56.968 62.897" fill="#80d4c3"/><path d="M551.457 493.585s.075-5.048 1.487-12.114c.334-1.775.712-3.69 1.24-5.67.488-1.99.976-4.102 1.662-6.22.682-2.113 1.223-4.366 2.063-6.54l2.396-6.65c.915-2.183 1.83-4.37 2.727-6.523.867-2.166 1.97-4.2 2.903-6.217.92-2.025 1.997-3.91 2.974-5.718.945-1.815 1.97-3.482 2.916-5.022 3.73-6.177 7.077-9.966 7.077-9.966l.57.22s-6.72 17.713-13.436 35.43c-7.002 17.605-14.008 35.21-14.008 35.21l-.573-.22" fill="#45aaad"/><path d="M903.66 374.024l37.822-13.768s-9.382-18.908 6.597-24.722c15.024-5.47 17.1 4.847 23.077 12.42 9.866 12.5 41.433 5.088 37.268-16.777-3.418-17.972 2.62-25.392 10.705-21.66 8.085 3.73 12.676 24.083 30.16 16.655 13.648-5.8 9.135-17.045 15.302-26.998 3.35-5.416 15.2-11.825 22.6-13.61 0 0-29.18 4.152-34.71 11.773-6.152 8.483-4.512 13.868-10.295 15.973-7.23 2.633-12.114-10.776-19.956-18.48-8.444-8.295-33.506.18-30.387 15.99 2.357 11.944 9.53 20.99-.972 24.815-10.458 3.806-16.264-3.526-23.385-13.156-9.875-13.357-43.76-6.388-46.552 14.152l-54.615 18.318M831.923 337.472s47.968-102.048 59.562-117.26c11.595-15.21 22.076-36.722 59.91-60.163l-89.14 192.83" fill="#80d4c3"/><path d="M886.344 251.51c2.102-3.543 5.955-5.162 8.607-3.605 2.65 1.553 3.098 5.688.995 9.236-2.102 3.55-5.955 5.163-8.607 3.61-2.652-1.557-3.097-5.692-.994-9.24" fill="#45aaad"/><path d="M1064.856 578.926s34.144-11.17 41.48-43.145c7.337-31.975-22.76-63.356-68.306-90.747-45.54-27.387-319.642-165.082-334.43-171.91-14.79-6.83-48.166-15.23-65.654 1.005" fill="#b0cac2"/><path d="M1072.192 571.274c13.274-17.806 27.006-57.862-20.092-96.895-47.097-39.033-365.178-189.485-379.97-196.314-14.787-6.83-57.34-6.812-70.615 21.63-13.275 28.44-5.33 58.93 35.09 77.592 40.425 18.667 351.27 196.178 364.087 202.097 12.822 5.92 50.674 19.823 71.5-8.11" fill="#f05874"/><path d="M1103.627 512.826c10.772 6.597 23.237 12.153 35.8 14.04 13.946 2.09 34.39-4.105 32.828-21.937-2.336-26.674-60.38-16.424-74.073-6.82-3.19 2.234 2.103 9.75 5.305 7.506 9.06-6.357 65.72-15.627 60.803.74-7.478 24.91-45.057 8.557-59.282-.154-5.14-3.15-4.89 4.47-1.38 6.624" fill="#45aaad"/><path d="M1069.065 585.934c9.808 4.008 8.278 5.517 6.76 13.116-1.39 6.97-6.127 14.48-8.99 20.947-9.1 20.544-18.535 40.94-27.987 61.322-8.277 17.85-16.617 35.672-24.982 53.482-2.15 4.57-4.047 9.442-6.836 13.68-3.712 5.637-9.113 10.396-13.568 15.352-4.988 5.56-3.963 6.16-10.213 4.887-9.973-2.03-19.684-12.686-19.258-21.772.594-12.824 10.878-29.01 18.592-38.7 13.675-17.186 37.835-41.567 29.698-66.246-4.552-13.802-22.216-23.243-35.508-14.93.185-.114-7.983 6.59-6.567 6.925-3.94-.945 1.535-10.08 2.727-13.29 5.81-15.64 16.886-34.834 30.96-44.2 5.358-3.566-2.907-4.708-5.902-2.717-16.613 11.055-30.155 32.44-36.084 51.378-4.007 12.818-.308 20.028 12.654 14.8 7.82-3.154-.757-13.268 16.463-8.985 8.74 2.173 12.676 15.05 12.566 22.44-.25 17.612-12.19 34.87-23.45 47.698-9.827 11.196-29.888 36.307-26.673 52.85 1.724 8.888 22.15 22.55 31.295 22.83 12.588.382 23.342-17.314 29.737-26.36 17.86-25.28 28.496-58.576 41.38-86.524 8.905-19.33 17.904-38.643 26.217-58.233 5.217-12.294 9.804-18.07-5.41-24.29-2.793-1.142-11.506 2.953-7.622 4.54" fill="#2c4149"/><path d="M1033.297 671.85s.176 5.274-1.34 12.305c-.353 1.77-.758 3.684-1.36 5.612-.554 1.956-1.095 4.038-1.905 6.073-.8 2.034-1.41 4.247-2.427 6.3-.946 2.086-1.91 4.203-2.873 6.32-1.112 2.048-2.23 4.092-3.325 6.1-1.05 2.04-2.432 3.872-3.58 5.735-1.13 1.873-2.485 3.556-3.703 5.185-1.18 1.65-2.472 3.12-3.664 4.476-4.702 5.46-9.017 8.522-9.017 8.522l-.787-.39 16.203-33.507 16.986-33.118.79.387M971.457 606.448c-23.24 6.856-46.566 13.475-70.005 19.635-12.65 3.324-27.186 8.876-40.403 9.165-7.61.166-15.373-2.078-22.758-3.662-4.57-.984-25.902-3.088-28.78-7.227-2.246-3.243-2.066 1.246-1.996-2.062.05-2.375 6.523-7.236 8.225-8.885 7.927-7.665 16.552-13.567 26.532-18.147 13.1-6.02 26.953-10.666 40.5-15.557 25.27-9.118 50.687-17.855 76.17-26.368 3.766-1.26 2.816-5.185-1.05-3.89-27.516 9.192-54.966 18.63-82.232 28.555-29.064 10.583-56.998 20.405-76.15 46.27-.738 1 .3 1.897 1.136 2.225 28.968 11.405 55.77 14.914 85.425 7.664 29.026-7.09 57.782-15.376 86.433-23.83 3.84-1.132 2.846-5.038-1.046-3.888M747.597 693.906s-4.108-3.89-8.396-10.404c-1.1-1.614-2.27-3.377-3.324-5.306-1.104-1.91-2.31-3.91-3.3-6.072-.997-2.162-2.26-4.31-3.122-6.647-.937-2.305-1.89-4.65-2.84-6.994l-2.363-7.174c-.83-2.348-1.283-4.793-1.917-7.08-.65-2.29-1.007-4.598-1.416-6.764-.453-2.148-.69-4.248-.906-6.186-.953-7.726-.35-13.33-.35-13.33l.826-.302s7.19 18.916 14.383 37.83c6.776 19.066 13.554 38.127 13.554 38.127l-.827.3M656.024 385.39c3.817 18.06 1.675 40.533-8.96 55.933-5.458 7.905-31.69 18.702-23.905 11.283 2.43-2.32 6.465-2.665 9.082-5.395 6.58-6.863 6.975-18.86 1.76-26.633-6.247-9.292-16.622-9.06-26.54-7.65-1.096.156-3.234.69-3.695 1.875-8.085 20.676-16.164 41.352-24.25 62.027-.09.25-.034.463.173.634 8.49 4.698 19.384 8.653 26.782 14.826 6.46 5.386 6.267-.166 3.162 7.98-4.007 10.504-22.946 23.957-31.44 25.698-6.672 1.37-24.89 2.796-28.338-2.988-1.51-2.53-1.043-7.927-1.117-10.837-.26-9.874 1.534-20.75 4.617-30.2 2.516-7.717 6.004-15.237 8.845-22.854 15.676-41.97 30.336-84.33 45.1-126.627.533-1.527-5.69-.788-6.315 1.006-16.063 46.005-31.4 92.462-49.337 137.786-5.88 14.86-22.027 60.49 5.27 62.517 25.985 1.933 49.846-19.455 62.32-39.453.097-.254.04-.464-.17-.634-6.968-3.86-28.657-11.07-32.237-17.845-2.648-5.017 9.566-27.04 11.915-33.052 4.623-11.825 9.303-41.123 26.874-22.998 14.66 15.115-3.228 25.177-10.41 37.252-.093.254-.04.464.17.634 36.6 22.868 51.593-52.328 47.015-73.988-.348-1.636-6.756-.1-6.373 1.702" fill="#2c4149"/><path d="M803.37 764.722c15.39-43.793-.22-98.014-14.784-139.388-15.267-43.385-29.47-87.147-43.698-130.878-6.092-18.72-12.148-37.454-18.178-56.2-1.94-6.037-3.422-18.09-7.438-23.204-15.17-19.315-50.572 2.463-67.47 8.058-1.725.573-4.58 2.035-3.955 4.345 15.284 56.44 31.492 112.688 49.086 168.458 20.76 65.812 40.166 127.38 98.18 171.005 3.176 2.39 11.67-2.1 7.42-5.292-59.264-44.564-77.96-110.188-98.884-177.328-16.46-52.813-31.784-106.007-46.245-159.394-1.315 1.448-2.635 2.896-3.95 4.34 13.265-4.392 26.53-8.785 39.8-13.177 8.204-2.717 11.278-4.498 17.308 4.195 5.26 7.582 7.002 21.827 9.79 30.493 5.996 18.61 12.022 37.208 18.087 55.797 12.813 39.282 25.643 78.573 39.277 117.584 14.572 41.688 32.073 95.547 16.565 139.69-1.764 5.017 7.767 4.65 9.087.896M559.106 493.305s-.634-5.315.28-12.578c.203-1.824.44-3.793.876-5.805.387-2.034.753-4.19 1.386-6.326.624-2.14 1.047-4.436 1.887-6.61.765-2.206 1.544-4.44 2.322-6.68.94-2.175 1.878-4.354 2.802-6.493.874-2.16 2.093-4.152 3.082-6.15.968-2.005 2.177-3.843 3.255-5.606 1.034-1.785 2.204-3.4 3.277-4.886 4.227-5.984 8.277-9.506 8.277-9.506l.82.315s-6.655 17.74-13.314 35.48l-14.128 35.16-.822-.315M1107.124 512.743c11.89 7.27 26.06 13.3 40.043 14.507 14.277 1.234 36.594-6.366 35.81-24.272-1.156-26.53-65.596-12.88-78.505-3.898-7.077 4.926 3.496 8.426 8.27 5.1 8.716-6.062 53.324-14.742 57.226-.33 1.895 6.99-6.426 13.88-12.346 14.856-6.457 1.063-13.59-1.125-19.617-3.133-7.288-2.428-14.396-5.74-20.945-9.747-4.34-2.655-15.76 3.35-9.936 6.917M912.646 374.93l37.822-13.768c.52-.188 2.375-1.11 1.974-1.982-1.17-2.56-2.34-5.578-2.51-8.395-1.804-10.51 4.586-14.393 19.167-11.655 1.644 2.04 3.14 4.183 4.49 6.43 6.254 4.643 7.618 8.895 16.494 9.78 11.176 1.106 25.818-4.77 29.05-16.367 1.51-5.403-1.85-10.863-.66-15.934 4.99-21.17 9.216-8.444 14.533-2.945 4.165 4.31 7.39 8.085 13.7 8.973 5.767.81 13.385-1.74 17.7-5.53 16.52-14.503-1.79-26.166 30.934-36.793 2.61-.848 4.056-3.59.102-2.996-10.314 1.543-23.087 3.192-32.077 8.757-5.08 3.146-5.82 6.444-9.672 10.824-11.238 12.762-10.336-2.55-20.717-9.922-7.077-5.022-15.957-4.396-23.68-.914-4.232 1.912-8.458 4.48-10.798 8.645-4.113 7.33.68 10.892.237 18.605.796 2.345 1.474 4.73 2.032 7.144-4.746 1.35-9.496 2.703-14.242 4.05-4.662-1.57-6.773-9.427-10.758-12.437-3.646-2.756-7.794-3.98-12.29-4.528-10.837-1.317-24.2 2.664-31.755 10.762-2.714 2.91-4.21 9.76-5.762 11.046-3.655 3.028-13.274 4.45-17.695 5.933-11.796 3.955-23.593 7.914-35.39 11.87-4.24 1.42-.342 3.197 2.43 2.27 15.824-5.312 31.78-10.334 47.506-15.934 3.128-1.116 6.062-1.886 8.837-3.54.233-.14 9.646-11.566 1.284-4.615 9.502-7.9 16.346-14.98 28.577-12.656 12.896 2.45 12.55 12.596 23.466 17.277 7.516 3.22 19.63 1.44 22.304-7.31 1.838-6.024-4.407-13.453-4.473-19.337-.12-10.78 9.025-22.697 24.23-13.943 2.22 1.278 3.616 4.738 5.375 6.51 5.352 5.403 7.767 13.785 16.67 12.39 3.082-.482 4.828-2.5 7.24-4.253 9.23-6.71 11.39-17.46 23.723-20.65 3.43-.883 7.095-1.128 10.43-2.213 3.84-1.255 2.726-2.768-.758-2.077-6.245 1.242-14.884 6.934-18.83 11.8-2.67 3.29-3.263 7.07-5.04 10.774-1.086 2.27-.395 6.54-2.146 8.383-6.502 2.235-13.003 4.47-19.508 6.71-1.49-1.19-2.824-2.528-4.002-4.015-7.073-5.246-14.12-19.307-24.49-8.97-6.22 6.2-1.29 14.52-2.688 21.61l-.224 8.066c-8.634 3.527-17.272 7.05-25.906 10.575-3.11-.875-5.45-5.17-7.35-7.262-2.74-3.015-3.8-6.943-7.61-9.105-11.303-6.417-27.568 2.306-28.584 14.788-1.113 13.69 8.493 8.657-6.32 14.052l-26.8 9.75c-4.196 1.528-.34 3.278 2.428 2.272M842.826 336.65c30.032-63.834 56.845-136.916 118.756-176.833-1.847.197-3.694.394-5.546.595-29.715 64.276-59.43 128.556-89.142 192.832-.338.735 5.547.367 6.264-1.186l89.146-192.836c.576-1.247-5.045.272-5.547.595C893.984 200.29 867.03 273.07 836.563 337.84c-.34.717 5.533.363 6.263-1.19" fill="#2c4149"/><path d="M897.124 251.493c.94-1.46 2.27-3.255 3.792-1.518 1.587 1.806.906 4.878-.203 6.724-.787 1.307-2.133 3.13-3.606 1.75-1.896-1.777-1.03-5.02.017-6.957 1.566-2.905-4.856-2.564-6.012-.425-2.17 4.017-2.362 10.067 2.88 11.72 4.856 1.532 10.27-1.54 12.734-5.665 2.283-3.828 2.287-9.89-2.617-11.628-5.024-1.78-10.342 1.448-12.998 5.573-.85 1.317.734 2.148 1.834 2.258 1.5.153 3.343-.538 4.178-1.833M1085.352 573.112c58.674-83.224-77.05-138.443-132.62-167.36-82.675-43.028-166.6-83.754-250.812-123.714-25.96-12.315-53.268-19.477-80.31-3.294-19.902 11.917-29.09 38.262-22.83 60.334 6.482 22.885 26.816 34.727 46.758 44.763 77.147 38.837 151.726 83.317 226.938 125.687 38.644 21.774 77.204 43.71 115.998 65.225 30.863 17.12 70.14 29.7 96.878-1.64 5.27-6.173-6.787-8.807-10.77-4.135-24.64 28.88-60.58 7.01-86.42-7.433-30.142-16.838-60.196-33.84-90.272-50.787-71.588-40.34-143.004-81.054-215.296-120.135-29.724-16.068-76.914-31.402-72.415-72.456 5.128-46.754 52.243-42.485 83.507-27.654 70.462 33.424 140.62 67.53 210.162 102.81 40.733 20.658 81.615 41.377 120.906 64.674 38.758 22.976 82.83 64.157 49.825 110.98-4.7 6.664 7.192 9.215 10.772 4.136" fill="#2c4149"/><path d="M1074.972 580.658c15.275-5.28 30.217-16.056 38.67-29.84 14.85-24.216 5.846-49.362-11.774-69.23-28.084-31.647-69.855-50.507-106.87-69.944-83.773-43.998-168.278-86.662-252.956-128.897-31.083-15.5-69.586-33.9-101.307-9.42-5.362 4.14 7.297 3.2 9.967 1.138 25.924-20.006 65.566 6.016 90.206 18.335 33.907 16.953 67.748 34.04 101.55 51.195 65.508 33.24 132.808 64.823 196.016 102.302 25.902 15.356 58.666 36.832 68.087 67.133 8.402 27-10.59 54.423-36.277 63.304-8.493 2.94-.61 5.757 4.69 3.924" fill="#2c4149"/><path d="M1063.768 597.135c-9.64-3.442-85.58-43.803-168.755-89.69-83.176-45.89-182.246-99.723-220.157-119.632-79.355-41.673-95.073-55.548-95.073-83.923 0-15.192 3.096-22.402 14.532-33.838 13.438-13.438 16.392-14.336 39.218-11.925 27.747 2.93 125.66 47.315 313.534 142.127 116.283 58.682 152.248 81.364 172.466 108.768 20.853 28.264 12.27 79.87-15.008 90.24-15.145 5.758-19.28 5.542-40.757-2.127z" fill="none"/><path d="M1063.768 597.135c-9.64-3.442-85.58-43.803-168.755-89.69-83.176-45.89-182.246-99.723-220.157-119.632-79.355-41.673-95.073-55.548-95.073-83.923 0-15.192 3.096-22.402 14.532-33.838 13.438-13.438 16.392-14.336 39.218-11.925 27.747 2.93 125.66 47.315 313.534 142.127 116.283 58.682 152.248 81.364 172.466 108.768 20.853 28.264 12.27 79.87-15.008 90.24-15.145 5.758-19.28 5.542-40.757-2.127z" fill="none"/><path d="M1063.768 597.135c-9.64-3.442-85.58-43.803-168.755-89.69-83.176-45.89-182.246-99.723-220.157-119.632-79.355-41.673-95.073-55.548-95.073-83.923 0-15.192 3.096-22.402 14.532-33.838 13.438-13.438 16.392-14.336 39.218-11.925 27.747 2.93 125.66 47.315 313.534 142.127 116.283 58.682 152.248 81.364 172.466 108.768 20.853 28.264 12.27 79.87-15.008 90.24-15.145 5.758-19.28 5.542-40.757-2.127z" fill="none"/><g fill="#2c4149"><g fill-rule="evenodd"><path d="M892.14 212.63l5.412 1.623s.525-2.85 1.048-5.705c.574-2.84 1.14-5.68 1.14-5.68l-5.37-1.843s-.578 2.893-1.163 5.786c-.53 2.914-1.067 5.82-1.067 5.82M888.863 233.66l5.474 1.23.807-5.773.867-5.762-5.44-1.444-.89 5.864c-.406 2.946-.817 5.887-.817 5.887M886.514 254.85l5.526.776s.267-2.898.54-5.8c.312-2.903.62-5.81.62-5.81l-5.493-1.052-.637 5.935c-.274 2.974-.556 5.95-.556 5.95M907.99 151.543l5.028 3.05s.982-2.618 1.96-5.238c.47-1.32.992-2.61 1.403-3.56.4-.96.668-1.593.668-1.593l-4.896-3.402s-1.174 2.605-2.14 5.335c-1.016 2.71-2.023 5.408-2.023 5.408M901.574 171.397l5.207 2.505s.82-2.72 1.646-5.44c.792-2.74 1.696-5.414 1.696-5.414l-5.12-2.797s-.928 2.75-1.747 5.562l-1.68 5.585M896.38 191.726l5.33 2.044s.612-2.82 1.327-5.604c.685-2.788 1.374-5.575 1.374-5.575l-5.266-2.293-1.407 5.7c-.726 2.855-1.356 5.73-1.356 5.73M936.522 98.568l3.774 5.278c-.133-.22 6.723-7.37 6.723-7.37l-3.346-5.748s-7.303 7.624-7.152 7.84M925.226 114.574l4.374 4.443s1.322-2.327 2.782-4.486l2.955-4.27-4.067-4.898s-1.563 2.25-3.122 4.505c-1.537 2.28-2.922 4.707-2.922 4.707M915.837 132.36l4.767 3.69 2.322-4.947c1.255-2.39 2.515-4.78 2.515-4.78l-4.57-4.096s-1.307 2.495-2.622 4.985c-1.204 2.577-2.41 5.148-2.41 5.148M981.42 70.658l.718 7.134 4.378-.48c1.092-.124 2.188-.254 3.007-.34.826-.043 1.374-.005 1.374-.005l-.126-7.197s-.58-.038-1.458.01c-.882.09-2.048.225-3.215.355-2.34.264-4.678.523-4.678.523M965.034 75.715l1.863 6.78s2.092-.816 4.19-1.632c1.043-.408 2.088-.81 2.873-1.123l1.344-.326-1.226-7.02s-.574.14-1.437.356c-.847.326-1.973.763-3.102 1.2-2.252.877-4.504 1.765-4.504 1.765M949.923 85.186l2.93 6.118s.43-.45 1.166-.922c.72-.508 1.68-1.18 2.643-1.856l2.645-1.862c.707-.542 1.23-.758 1.23-.758l-2.352-6.516s-.563.235-1.326.81c-.778.543-1.808 1.273-2.845 1.997-1.033.73-2.063 1.46-2.837 2.006-.793.508-1.255.983-1.255.983M1031 78.608l-2.103 6.665s1.97 1.156 3.95 2.312c1.014.514 1.888 1.31 2.6 1.814l1.154.872 2.86-6.175s-.514-.384-1.285-.964c-.78-.552-1.766-1.435-2.866-2.006-2.157-1.252-4.31-2.52-4.31-2.52M1014.857 72.543l-1.063 7.068s.548.12 1.363.313c.803.26 1.87.604 2.94.945 1.07.345 2.14.69 2.94.945.812.23 1.327.47 1.327.47l1.593-6.89s-.556-.26-1.41-.508c-.853-.27-1.994-.638-3.127-1.008-1.137-.36-2.278-.724-3.13-.998l-1.433-.337M998.327 69.91l-.32 7.187s.553-.005 1.386.124l3.06.376c2.218.268 4.44.542 4.44.542l.704-7.135s-2.315-.288-4.633-.57c-1.156-.145-2.315-.29-3.185-.394-.868-.13-1.453-.13-1.453-.13M1060.435 128.685l-5.556.03s.01.675-.053 1.688c-.048 1.007-.103 2.36-.166 3.704-.347 2.677-.696 5.35-.696 5.35l5.42 1.593s.395-3.066.795-6.132c.073-1.555.147-3.114.2-4.285.07-1.166.055-1.948.055-1.948M1056.49 107.008l-4.977 3.2s.214.604.533 1.516c.307.916.81 2.087 1.052 3.397.307 1.277.61 2.55.84 3.508.17.98.238 1.64.238 1.64l5.444-1.443s-.08-.777-.285-1.92l-.982-4.12c-.3-1.53-.87-2.918-1.237-3.993-.374-1.07-.626-1.784-.626-1.784M1045.775 89.76l-3.533 5.55c.063-.09 1.545 1.847 3.078 3.7.815.877 1.393 2.01 1.904 2.773l.826 1.295 4.4-4.4s-.386-.6-.956-1.506c-.59-.883-1.285-2.183-2.2-3.196-.87-1.07-1.74-2.14-2.393-2.946-.636-.825-1.125-1.27-1.125-1.27M1034.564 182.84l-2.622-6.343s-.433.403-1.163.797c-.723.422-1.686.974-2.653 1.526-.944.633-1.974.94-2.718 1.276-.75.317-1.253.523-1.253.523l1.563 6.908s.566-.24 1.426-.595c.844-.384 2.014-.753 3.092-1.45 1.09-.632 2.185-1.266 3.008-1.736.826-.456 1.318-.907 1.318-.907M1047.953 169.17l-4.133-4.807s-.367.5-.91 1.257c-.553.74-1.246 1.8-2.072 2.654-.796.91-1.596 1.813-2.192 2.5-.61.652-1.06 1.026-1.06 1.026l3.356 5.74s.504-.43 1.193-1.163c.674-.772 1.57-1.794 2.466-2.806.927-.983 1.71-2.154 2.33-2.99.612-.848 1.023-1.41 1.023-1.41M1057.002 150.56l-5.145-2.736s-.185.64-.478 1.598c-.356.917-.838 2.14-1.316 3.368-.444 1.243-1.01 2.404-1.455 3.273l-.71 1.444 4.64 3.963.8-1.63c.49-.97 1.124-2.276 1.632-3.68.54-1.383 1.074-2.765 1.48-3.802l.55-1.8M985.856 177.462l4.097-5.02-.92-1.093c-.473-.75-1.02-1.834-1.62-2.865-.657-.994-1.094-2.155-1.375-3.057-.315-.883-.526-1.468-.526-1.468l-5.104 3.08.644 1.8c.356 1.108.89 2.533 1.678 3.766.734 1.272 1.42 2.596 2.008 3.503l1.118 1.352M1001.17 187.893l1.435-6.957c.048-.092-2.134-.48-3.93-1.555-1.852-.963-3.696-1.947-3.648-2.072l-2.952 6.15c-.056.14 2.2 1.393 4.478 2.578 1.126.676 2.29 1.094 3.163 1.358l1.455.5M1018.153 189.5l-.633-7.15s-.523.063-1.312.145c-.785.053-1.825.317-2.88.197-2.105-.096-4.216-.096-4.212-.207l-.526 7.164s.59.128 1.492.128c.897.03 2.097.072 3.293.11 1.196.12 2.39-.158 3.282-.215.9-.1 1.496-.173 1.496-.173M986.86 114.987l4.826 3.55c0 .005 4.615-9.735 4.774-9.625l-4.548-4.12s-1.43 2.393-2.6 5.027c-1.226 2.58-2.452 5.167-2.452 5.167M980.193 135.062l5.33 2.01s.16-.662.393-1.66c.24-1.003.496-2.35.96-3.637.82-2.605 1.647-5.21 1.647-5.21l-5.056-2.98s-.9 2.82-1.792 5.652c-.493 1.386-.79 2.888-1.056 3.982l-.427 1.842M978.423 157.185l5.5-1.266s-.045-.644-.108-1.614c-.048-.964-.203-2.25-.085-3.55.115-2.596.23-5.187.32-5.22l-5.505-.993s-.148.743-.17 1.948c-.056 1.186-.13 2.78-.197 4.357-.14 1.583.05 3.167.112 4.357l.133 1.98M1020.33 67.07l3.39 5.7s1.79-1.743 3.58-3.49c.886-.887 1.8-1.73 2.512-2.312.7-.604 1.17-1.007 1.17-1.007l-3.133-5.944-1.208 1.036c-.737.61-1.682 1.478-2.6 2.4-1.856 1.808-3.71 3.617-3.71 3.617"/><path d="M1007.697 81.137l3.856 5.182s1.618-1.993 3.24-3.984l3.4-3.77-3.596-5.49-3.526 3.915-3.373 4.147M996.438 97.004l4.326 4.505s1.415-2.222 2.83-4.453c1.47-2.164 3.022-4.242 3.022-4.242l-4.063-4.918s-1.615 2.174-3.156 4.438l-2.96 4.67M1063.86 35.704l1.993 6.717s2.1-1.035 4.2-2.067c1.05-.542 2.12-.983 2.926-1.305.803-.326 1.34-.537 1.34-.537l-1.73-6.846s-.555.23-1.385.566c-.833.327-1.933.783-3.01 1.344l-4.334 2.13M1048.616 44.312l2.46 6.448s1.988-1.372 4.06-2.495c2.054-1.19 4.11-2.375 4.11-2.375l-2.204-6.606-4.237 2.447c-2.14 1.162-4.19 2.582-4.19 2.582M1034.105 54.704l2.922 6.118s1.937-1.473 3.87-2.95c1.938-1.474 3.89-2.913 3.89-2.913l-2.667-6.316s-2.015 1.483-4.01 3.01c-2.005 1.52-4.005 3.05-4.005 3.05M1112.28 20.677l.58 7.158s.557-.12 1.4-.215c.846-.077 1.964-.173 3.09-.274 2.245-.206 4.497-.408 4.497-.408l-.33-7.182-4.622.412c-1.156.11-2.31.216-3.174.288-.866.096-1.44.22-1.44.22M1095.854 23.896l1.052 7.073 4.418-1.095c1.104-.307 2.22-.485 3.056-.62l1.396-.23-.79-7.125-1.436.24c-.86.14-2.01.322-3.144.638-2.274.562-4.552 1.118-4.552 1.118M1079.72 28.76l1.52 6.925 8.72-2.855-1.25-7.01-8.99 2.94M1162.047 21.723l-.73 7.14s2.245.306 4.467.844c2.23.48 4.456.97 4.456.97l.944-7.097s-2.28-.5-4.56-.984c-2.277-.552-4.577-.873-4.577-.873M1145.52 19.756l-.31 7.182s2.252.144 4.5.298c2.244.297 4.49.61 4.49.61l.547-7.164-4.6-.624c-2.315-.154-4.626-.302-4.626-.302M1128.976 19.362l.126 7.197s2.25-.03 4.508-.058c1.122-.02 2.248-.03 3.096-.04.845-.032 1.408.016 1.408.016l.125-7.197s-.582-.043-1.45-.014c-.865.015-2.025.02-3.18.04-2.32.027-4.634.056-4.634.056M1210.318 37.58l-2.13 6.65 4.082 2.342c1.018.585 2.04 1.166 2.804 1.607.76.45 1.233.824 1.233.824l2.49-6.44s-.5-.387-1.297-.862c-.797-.46-1.863-1.065-2.926-1.675-2.13-1.228-4.256-2.447-4.256-2.447M1194.592 30.503l-1.574 6.905s2.16.8 4.318 1.607c2.108.983 4.212 1.967 4.212 1.967l1.866-6.775-4.366-2.04c-2.23-.834-4.456-1.664-4.456-1.664M1178.52 25.317l-1.117 7.048 8.8 2.552 1.356-6.98-9.04-2.62M1250.582 75.68l-4.478 4.267s1.24 2.293 2.48 4.6c1.105 2.395 2.116 4.87 2.116 4.87l4.908-3.367s-1.108-2.72-2.326-5.345c-1.352-2.51-2.7-5.024-2.7-5.024M1239.085 59.694l-3.61 5.465s.425.45 1.006 1.194c.594.734 1.39 1.708 2.18 2.682.795.98 1.588 1.953 2.184 2.682.526.797.882 1.33.882 1.33l4.1-4.852c.196-.254-6.737-8.502-6.74-8.502M1225.426 47.186l-2.81 6.213s.49.326 1.176.93c.693.585 1.62 1.363 2.545 2.154.926.778 1.852 1.55 2.548 2.14.704.57 1.14.998 1.14.998l3.25-5.84s-.47-.455-1.212-1.064c-.737-.62-1.715-1.45-2.697-2.274-.977-.82-1.963-1.646-2.696-2.27-.73-.643-1.248-.983-1.244-.988M1261.337 138.3l-5.444-1.44s-.11.687-.278 1.714c-.17 1.027-.36 2.408-.72 3.733-.643 2.677-1.284 5.36-1.284 5.36l5.223 2.436s.712-2.922 1.412-5.848c.388-1.45.6-2.956.788-4.08l.304-1.875M1262.422 116.407l-5.537.547c.21-.02.193 11.14.004 11.136l5.536.585c.208.015.23-12.273-.004-12.268M1258.79 95.04l-5.2 2.544c.195-.086 2.58 10.628 2.366 10.69l5.444-1.444c.237-.062-2.404-11.89-2.61-11.79M1234 192.062l-3.14-5.93-3.627 3.008-3.815 2.543 2.363 6.506 4.227-2.812c1.997-1.656 3.993-3.316 3.993-3.316M1246.548 177.37l-4.222-4.677s-1.452 2.087-2.908 4.17c-1.577 1.913-3.155 3.833-3.155 3.833l3.667 5.407s1.725-2.102 3.448-4.193l3.17-4.54M1255.808 159.152l-4.982-3.185s-.937 2.538-2.033 4.956c-1.15 2.385-2.3 4.764-2.3 4.764l4.592 4.055s1.252-2.596 2.508-5.187c1.192-2.64 2.218-5.403 2.215-5.403M1185.773 195.613l3.567-5.518c-.27.427-5.615-7.59-5.374-7.87l-4.62 3.998c-.313.283 6.068 9.826 6.427 9.39M1201.692 204.45l.604-7.153s-.493-.1-1.234-.255c-.73-.215-1.763-.163-2.688-.676-1.875-.892-3.8-1.612-3.75-1.775l-2.354 6.52c-.06.164 2.29 1.138 4.607 2.19 1.14.59 2.4.59 3.297.853l1.518.298M1218.648 201.788l-1.656-6.87s-2.052.728-4.11 1.448c-2.1.44-4.2.883-4.2.883l.658 7.143 4.708-.988c2.3-.81 4.6-1.617 4.6-1.617M1173.28 134.078l5.434 1.483.978-5.48c.692-2.67 1.378-5.35 1.378-5.35l-5.237-2.402s-.74 2.898-1.486 5.796c-.537 2.98-1.066 5.954-1.066 5.954M1171.955 155.928l5.544-.44-.123-1.728c.015-1.046.037-2.443.056-3.84.022-1.395.04-2.79.06-3.833l.165-1.74-5.53-.678-.177 1.904c-.018 1.152-.043 2.682-.07 4.218-.018 1.535-.04 3.075-.055 4.222l.13 1.914M1175.655 177.385l5.122-2.783c-.08.058-.726-2.552-1.39-5.148-.38-1.276-.614-2.615-.743-3.637-.16-1.017-.263-1.694-.263-1.694l-5.448 1.42.297 1.896c.15 1.14.417 2.638.84 4.1l1.037 4.046c.248 1.118.548 1.8.548 1.8M1198.788 78.656l3.75 5.312s.395-.495.99-1.248l2.36-2.485c1.723-1.8 3.45-3.6 3.45-3.6l-3.36-5.723s-1.823 1.895-3.645 3.795c-.908.955-1.81 1.915-2.493 2.63-.626.79-1.052 1.32-1.052 1.32M1187.436 94.667l4.43 4.347s.285-.604.82-1.42c.536-.816 1.254-1.895 1.97-2.975 1.43-2.165 2.858-4.338 2.858-4.338l-4.052-4.918s-1.526 2.308-3.052 4.61c-.763 1.152-1.53 2.308-2.1 3.177-.563.87-.874 1.517-.874 1.517M1178.73 113.24l5.025 3.076c-.237-.14 4.16-9.956 4.16-9.956l-4.708-3.83s-4.715 10.547-4.478 10.71M1242.067 46.567l1.826 6.8s2.11-.97 4.226-1.935c2.165-.782 4.328-1.56 4.328-1.56l-1.533-6.918-4.47 1.612c-2.19 1.003-4.378 2-4.378 2"/><path d="M1226.637 54.72l2.404 6.486 8.156-4.73-2.067-6.675-8.493 4.92M1212.148 65.337l3.055 6.007s1.815-1.646 3.715-3.148c1.952-1.386 3.904-2.782 3.904-2.782l-2.69-6.3s-2.04 1.463-4.08 2.917c-1.99 1.57-3.904 3.302-3.904 3.307M1290.826 33.675l.497 7.163 9.018-.897-.3-7.187-9.214.922M1274.363 36.246l.874 7.106 8.945-1.602-.652-7.145-9.167 1.64M1258.12 40.358l1.306 6.996 8.822-2.37-1.06-7.063-9.07 2.438M1340.505 33.363l-.382 7.178 9.063.97.504-7.173-9.185-.974M1323.98 32.39l-.124 7.196 9.075.384.267-7.188-9.218-.393M1307.482 32.437l.163 7.197 9.063-.235.004-7.198-9.23.235M1389.753 41.025l-.93 7.092s2.253.417 4.482 1.017c2.23.56 4.463 1.123 4.463 1.123l1.045-7.068s-2.26-.567-4.526-1.133c-2.256-.62-4.534-1.032-4.534-1.032M1373.427 37.777l-.75 7.135s2.254.388 4.502.858c2.25.456 4.5.907 4.5.907l.85-7.11s-2.277-.456-4.55-.917c-2.275-.47-4.553-.873-4.553-.873M1357.094 35.21l-.604 7.154 9.056 1.42.68-7.144-9.132-1.43M1438.095 55.75l-1.685 6.862 8.563 3.752 1.877-6.77-8.755-3.844M1422.176 49.83l-1.385 6.966s2.193.754 4.368 1.564l4.36 1.603 1.547-6.914s-2.218-.817-4.44-1.632c-2.223-.826-4.45-1.588-4.45-1.588M1406.11 45.022l-1.142 7.043s2.24.528 4.44 1.248c2.21.676 4.42 1.358 4.42 1.358l1.274-7.004-4.485-1.377c-2.24-.735-4.508-1.268-4.508-1.268M1483.34 82.74l-3.11 5.958s.462.394 1.154.99c.69.613 1.656 1.342 2.493 2.273l3.466 3.542 3.515-5.575-3.674-3.752c-.9-.99-1.907-1.752-2.622-2.395-.733-.628-1.222-1.04-1.222-1.04M1468.962 71.776l-2.515 6.42c0-.005.526.26 1.248.815.73.534 1.704 1.234 2.678 1.944 1.956 1.41 3.904 2.826 3.904 2.826l2.833-6.194-4.063-2.946c-1.015-.73-2.03-1.463-2.793-2.015-.75-.57-1.292-.85-1.292-.85M1453.82 63.058l-2.058 6.683s2.092 1.086 4.18 2.165c1.057.523 2.09 1.1 2.842 1.588.763.466 1.267.778 1.267.778l2.3-6.55s-.518-.32-1.307-.8c-.778-.508-1.844-1.094-2.926-1.636l-4.296-2.226M1513.648 133.69l-5.423 1.56c.285-.064 1.263 10.8.974 10.813l5.555-.076c.322-.02-.79-12.374-1.107-12.298M1507.2 113.283l-4.73 3.776c.08-.053 1.03 2.427 2.037 4.87 1.11 2.39 1.74 5.023 1.74 5.023l5.17-2.634s-.73-2.97-1.944-5.63c-.555-1.362-1.114-2.72-1.53-3.742-.392-1.046-.744-1.665-.744-1.665M1496.51 96.428l-3.874 5.167.996 1.22c.612.714 1.397 1.702 2.067 2.806 1.418 2.13 2.836 4.266 2.836 4.266l4.348-4.476s-1.537-2.322-3.077-4.64c-.74-1.195-1.582-2.26-2.234-3.027-.64-.787-1.063-1.315-1.063-1.315M1498.762 194.62l-3.8-5.264s-1.452 1.775-2.9 3.55c-1.49 1.723-3.093 3.268-3.096 3.268l2.4 6.77 1.21-1.22c.7-.766 1.738-1.63 2.608-2.753l3.578-4.35M1508.818 176.785l-4.91-3.363s-.19.652-.638 1.526c-.42.887-.978 2.072-1.54 3.253-.523 1.22-1.164 2.342-1.66 3.172-.486.83-.808 1.396-.808 1.396l4.43 4.347s.352-.62.885-1.54c.544-.916 1.248-2.154 1.833-3.493.62-1.31 1.24-2.624 1.704-3.608.49-.964.704-1.69.704-1.69M1514.207 155.947l-5.49-1.103c.338.067-1.93 10.68-2.118 10.603l5.225 2.447c.208.1 2.74-11.85 2.382-11.947M1454.717 205.444l4.152-6.852s-1.005-2.236-1.69-4.678c-.718-2.413-1.237-4.918-1.237-4.918l-4.96 4.995s.67 3.02 1.597 5.888c.474 1.435.948 2.87 1.42 3.863.428 1.022.717 1.704.717 1.704M1468.725 216.177l1.674-8.632s-.123.024-.338.082h-.904c-.755.086-1.733-.158-2.715-.427-1.93-.744-3.533-2.337-3.533-2.337l-3.21 7.98s1.95 1.89 4.273 2.797c1.174.345 2.355.657 3.263.58.448.01.818.02 1.085.03.257-.05.405-.073.405-.073M1484.8 208.53l-1.17-7.707s-1.76 1.23-3.52 2.447l-3.67 2.044-.426 8.464s2.237-1.18 4.474-2.37l4.31-2.88M1451.254 140.128l5.422 1.574s.53-2.797 1.056-5.594c.61-2.77 1.222-5.537 1.222-5.537l-5.307-2.125s-.64 2.908-1.285 5.81c-.552 2.942-1.108 5.873-1.108 5.873M1448.84 161.585l5.54.48s.108-2.86.4-5.705c.208-2.86.596-5.69.596-5.69l-5.492-1.114s-.4 2.98-.626 5.998c-.304 3-.42 6.03-.42 6.03M1449.373 184.07l5.348-3.254s-.295-2.563-.388-5.154c-.178-2.576-.156-5.162-.156-5.162l-5.55.935s.013.802.04 1.987c0 1.2.07 2.783.18 4.36.13 3.173.527 6.287.527 6.287"/><path d="M1472.266 81.51l4.403 4.386.84-1.425c.53-.834 1.233-1.937 1.945-3.036 1.374-2.255 2.922-4.308 2.922-4.308l-4.09-4.866s-1.636 2.164-3.088 4.54c-.746 1.17-1.49 2.33-2.05 3.21l-.884 1.5M1463.11 99.652l4.86 3.48s1.055-2.53 2.233-4.967c1.103-2.5 2.38-4.85 2.38-4.85l-4.625-3.988s-1.337 2.476-2.507 5.1c-1.236 2.567-2.34 5.225-2.34 5.225M1456.117 119.247l5.193 2.553s.737-2.72 1.655-5.34c.85-2.668 1.82-5.26 1.82-5.26l-5.027-3.074s-1.015 2.715-1.904 5.517c-.96 2.76-1.737 5.604-1.737 5.604M1511.247 41.217l2.323 6.54s2.003-1.22 4.048-2.308c2.078-1.018 4.148-2.04 4.148-2.04l-1.874-6.775s-2.185 1.08-4.367 2.145c-2.16 1.15-4.278 2.437-4.278 2.437M1496.632 51.816l3.1 5.974s1.808-1.665 3.726-3.086c.95-.734 1.897-1.473 2.608-2.03.73-.513 1.215-.848 1.215-.848l-2.666-6.315-1.285.9c-.753.59-1.757 1.366-2.757 2.148-2.03 1.507-3.94 3.258-3.94 3.258M1483.573 65.303l3.808 5.235s.404-.49 1.004-1.233c.626-.706 1.46-1.646 2.297-2.586 1.63-1.935 3.42-3.633 3.42-3.633l-3.427-5.662s-1.885 1.794-3.618 3.838c-.878.99-1.76 1.982-2.423 2.735-.637.777-1.06 1.305-1.06 1.305M1559.963 27.423l.144 7.192s2.237-.062 4.478-.12c2.24.082 4.485.158 4.485.158l.178-7.187s-2.322-.082-4.64-.168c-2.323.058-4.645.125-4.645.125M1543.348 29.193l.79 7.12s2.214-.374 4.425-.753c2.218-.316 4.452-.484 4.452-.484l-.42-7.178s-2.32.177-4.632.508l-4.615.787M1527.05 33.636l1.524 6.914s.53-.22 1.344-.465c.807-.26 1.885-.614 2.963-.96 2.15-.758 4.342-1.257 4.342-1.257l-1.108-7.053s-2.292.523-4.544 1.32c-1.133.364-2.263.73-3.11 1.007-.853.26-1.41.494-1.41.494M1609.437 34.663l-1.27 7.01 8.76 2.917 1.462-6.938-8.953-2.99M1593.16 30.518l-.882 7.11s2.222.485 4.445.98c2.23.43 4.43 1.117 4.43 1.117l1.11-7.053s-2.252-.696-4.544-1.147l-4.56-1.007M1576.71 27.994l-.41 7.173s2.24.22 4.482.446l4.466.72.69-7.14s-2.3-.374-4.6-.74c-2.312-.234-4.627-.46-4.627-.46M1656.627 54.834l-2.122 6.645 4.196 2.264c2.108 1.094 4.175 2.336 4.175 2.336l2.237-6.592s-2.092-1.247-4.23-2.365l-4.255-2.29M1641.212 47.047l-1.882 6.765 8.493 4.16 2.022-6.703-8.633-4.223M1625.54 40.353l-1.606 6.895 4.34 1.68 4.293 1.89 1.767-6.823-4.37-1.92c-2.21-.858-4.423-1.722-4.423-1.722M1701.346 82.653l-2.656 6.324 7.96 5.757 2.733-6.27-8.037-5.81M1686.724 72.71l-2.5 6.42 8.077 5.456 2.594-6.367-8.17-5.51M1671.883 63.46l-2.326 6.54s2.063 1.23 4.133 2.467c2.045 1.295 4.085 2.59 4.085 2.59l2.43-6.477s-2.07-1.314-4.137-2.62l-4.185-2.5M1743.887 115.596l-3.015 6.04 7.637 6.488 3.07-5.998-7.693-6.53M1729.94 104.186l-2.916 6.132 7.748 6.252 2.974-6.08-7.807-6.304M1715.828 93.232l-2.793 6.224 7.852 6.016 2.863-6.17-7.922-6.07"/></g></g><g><path d="M202.298 795.412c-3.263 4.354-6.297 6.496-6.328 6.517-5.244 3.38-11.094 4.227-16 2.277-3.787-1.505-6.435-4.558-6.435-7.423 0-1.498.698-2.806 2.07-3.89 1.94-1.532 6.13-3.3 15.058-3.03 4.696.143 8.603 2.007 11.635 5.548zm-32.28 77.313c-4.566-1.225-6.877-3.936-6.877-8.075 0-7.067 6.63-14.492 9.555-14.492.876 0 2.182 1.767 2.182 6.633 0 .662-.023 1.373-.07 2.13-.32 4.973-1.93 9.61-4.79 13.805zm7.623-145.313c-.625 8.782-5.984 14.396-11.02 16.776-2.696 1.275-4.844 1.4-5.78.957-.183-.088-.676-.32-.676-1.32 0-.464.11-1.004.324-1.608 1.94-5.448 9.034-12.224 17.153-14.805zm-74.79 8.51c0 7.446-3.382 12.352-4.81 12.428-.032.002-3.28-.62-5.333-13.317-.293-1.816-.442-3.614-.442-5.345v-.005c.002-2.74.37-5.39 1.102-7.902 8.515 2.177 9.482 10.49 9.482 14.143zm-.2 124.184c0 .654-.09 1.39-.27 2.183-.82 3.64-2.73 5.977-5.68 6.95-3.913 1.288-9.527.156-15.58-3.106 4.052-6.112 13.47-10.592 18.598-9.734 1.258.208 2.933.823 2.933 3.706zm-23.225-69.71c0 1.422-.986 3.03-2.853 4.652-2.522 2.192-5.012 3.132-7.392 2.796-3.363-.476-6.87-3.536-9.74-8.453 5.4-3.95 11.802-4.403 15.96-3.015 1.21.404 4.025 1.603 4.025 4.022zM77.7 864.09c-12.144-7.984-25.972-24.79-27.603-48.07-.093-1.31-.137-2.57-.137-3.783 0-10.258 3.167-16.44 6.447-20.095 3.408 5.333 7.54 8.463 12.052 9.104 2.658.376 6.75.02 11.177-3.828 2.62-2.275 4-4.703 4-7.02 0-3.13-2.483-5.83-6.646-7.22-5.11-1.704-12.736-1.345-19.265 2.89-3.042-6.66-4.76-15.033-4.76-23.394v-.005c.004-20.26 9.663-35.143 25.838-39.808 3.89-1.122 7.37-1.66 10.386-1.606-.755 2.693-1.136 5.52-1.14 8.43v.006c0 1.88.164 3.83.482 5.795 1.816 11.232 5.016 16.567 9.783 16.31 5.404-.292 8.747-8.467 8.747-15.872 0-9.082-4.622-15.45-12.494-17.447 6.663-15.148 26.35-22.264 43.442-22.583 14.218-.266 31.38 4.13 36.91 17.266 1.546 3.678 2.458 7.237 2.71 10.597-10.23 2.657-18.846 10.917-21.186 17.493-1.125 3.165-.236 5.688 2.29 6.884 2.494 1.18 6.23.823 9.992-.956 6.225-2.946 12.867-9.904 13.18-20.698 10.592-1.227 19.284 6.21 24.6 21.133 2.708 7.61 4.082 14.933 4.082 21.76 0 10.1-3.02 17.67-6.072 22.74-3.638-3.578-8.317-5.535-13.697-5.7-8.24-.25-14.512 1.133-18.138 3.996-2.197 1.734-3.36 3.938-3.36 6.374 0 4.204 3.54 8.434 8.81 10.53 6.413 2.548 13.885 1.56 20.502-2.712.18-.123 2.868-2 6.01-5.802 2.917 5.19 4.5 12.44 4.5 20.812 0 19.218-8.064 39.694-19.174 48.685-4.302 3.482-8.908 5.223-13.692 5.175-.663-.007-1.304-.03-1.92-.072 2.765-4.387 4.33-9.186 4.655-14.3.67-10.347-3.15-12.392-6.318-12.394-6.304 0-13.768 9.725-13.768 17.94v.004c-.002 5.374 3.09 9.226 8.78 11.06-15.302 17.586-50.61 21.765-77.325 8.703-8.775-4.29-12.46-9.42-10.83-14.998 7.037 3.63 13.61 4.71 18.72 3.025 3.007-.99 6.882-3.448 8.253-9.524 1.222-5.44-1.055-9.077-5.964-9.9-7.208-1.203-17.986 4.196-22.86 11.072zm-31.953-51.853c0 1.277.046 2.604.143 3.983 1.746 24.926 16.965 42.865 30.016 51.105-.625 1.54-.94 3.09-.94 4.627 0 4.08 2.3 10.07 13.254 15.428 29.062 14.208 67.78 9.136 83.81-10.73 1.31.17 2.714.26 4.195.276 5.952.058 11.573-2.018 16.705-6.172 12.027-9.733 20.428-30.762 20.428-51.14 0-7.113-1.087-16.965-6.14-24.27 3.595-5.386 7.583-14.05 7.583-25.97 0-7.154-1.43-14.8-4.25-22.725-7.694-21.603-20.46-24.445-28.76-23.636-.33-3.51-1.296-7.193-2.89-10.976-5.245-12.458-20.948-19.965-40.985-19.592-18.762.35-40.44 8.35-47.542 25.402-3.8-.22-8.15.37-12.97 1.76-17.937 5.173-28.648 21.272-28.65 43.06v.008c0 9.333 2.06 18.72 5.68 25.97-4.167 3.913-8.686 11.048-8.686 23.593" fill="#2c4149"/><path d="M116.014 765.87l-8.996 3.365-.084 46.53 139.51-2.326v52.356l9.213-7.108v-91.75l-139.643-1.067" fill="#fff"/><path d="M248.55 861.8v-50.123l-139.507 2.327.08-43.66 7.337-2.743 137.09 1.046v89.296l-5 3.857zm-143.725-44.274l139.512-2.326v54.593l13.426-10.36v-94.205l-142.198-1.086-10.65 3.98-.09 49.404" fill="#2c4149"/><path d="M116.014 765.87l142.278 1.087-1.875-51.8 104.632 71.765-105.393 71.766v-52.61H116.014V765.87" fill="#9bdbc6"/><path d="M118.12 804.352v-36.738l142.342 1.086-1.8-49.753 99.098 67.97-99.997 68.092V804.35H118.12zm-4.213-40.222v43.673H253.55v54.562l110.787-75.438-110.163-75.56 1.946 53.85-142.213-1.087" fill="#2c4149"/><path d="M244.97 812.204l2.945 2.47 9.212-7.36-2.943-2.472-9.213 7.362" fill="none"/><path d="M246.117 724.27v42.6h4.214V725.12l7.19-11.226-3.73-1.603-7.673 11.976" fill="#2c4149"/></g><g><path d="M259.694 144.657H451.5c14.368 0 26.022 13.115 26.022 29.288V284.13c0 16.174-11.654 29.292-26.02 29.292H336.87v67.317s-38.22-27.253-44.44-67.318h-32.736c-14.377 0-26.025-13.118-26.025-29.29V173.944c0-16.173 11.647-29.288 26.024-29.288" fill="#9bdbc6"/><path d="M259.694 148.333c-12.55 0-22.76 11.49-22.76 25.612V284.13c0 14.127 10.21 25.617 22.76 25.617h35.48l.47 3.043c4.57 29.406 27.633 52.01 37.96 60.825v-63.868h117.897c12.55 0 22.757-11.49 22.757-25.616V173.946c0-14.122-10.208-25.612-22.756-25.612H259.695zm80.442 239.088l-5.013-3.575c-1.567-1.12-37.652-27.248-45.375-66.747h-30.054c-16.154 0-29.29-14.79-29.29-32.967V173.946c0-18.176 13.136-32.963 29.29-32.963H451.5c16.148 0 29.287 14.787 29.287 32.963V284.13c0 18.177-13.14 32.968-29.286 32.968H340.137v70.323" fill="#f05874"/><path d="M279.805 103.313H87.995c-14.37 0-26.02 13.115-26.02 29.288v110.187c0 16.173 11.65 29.29 26.02 29.29h114.63v67.31s38.215-27.244 44.442-67.31h32.738c14.37 0 26.018-13.117 26.018-29.29V132.6c0-16.172-11.647-29.287-26.018-29.287" fill="#f05874"/><path d="M87.995 106.99c-12.55 0-22.756 11.49-22.756 25.61v110.187c0 14.126 10.206 25.616 22.755 25.616H205.89v63.865c10.33-8.818 33.392-31.42 37.96-60.822l.477-3.043h35.478c12.55 0 22.753-11.49 22.753-25.616V132.6c0-14.12-10.204-25.61-22.753-25.61H87.995zM199.36 346.07v-70.316H87.995c-16.15 0-29.287-14.79-29.287-32.967V132.6c0-18.175 13.137-32.962 29.287-32.962h191.81c16.147 0 29.284 14.787 29.284 32.963v110.187c0 18.176-13.138 32.967-29.285 32.967H249.75c-7.73 39.495-43.807 65.618-45.378 66.74l-5.012 3.576" fill="#2c4149"/><path d="M120.894 181.635c0 6.958-5.013 12.6-11.19 12.6-6.182 0-11.194-5.642-11.194-12.6 0-6.97 5.012-12.597 11.193-12.597 6.178 0 11.19 5.628 11.19 12.597" fill="#fff"/><path d="M109.703 172.714c-4.372 0-7.928 4-7.928 8.92 0 4.922 3.556 8.925 7.928 8.925 4.37 0 7.925-4.004 7.925-8.925 0-4.922-3.556-8.92-7.925-8.92zm0 25.197c-7.97 0-14.46-7.3-14.46-16.275 0-8.973 6.49-16.273 14.46-16.273 7.97 0 14.456 7.3 14.456 16.273 0 8.976-6.486 16.276-14.457 16.276" fill="#2c4149"/><path d="M193.773 181.635c0 6.958-5.012 12.6-11.194 12.6-6.175 0-11.188-5.642-11.188-12.6 0-6.97 5.013-12.597 11.187-12.597 6.18 0 11.193 5.628 11.193 12.597" fill="#fff"/><path d="M182.58 172.714c-4.37 0-7.922 4-7.922 8.92 0 4.922 3.552 8.925 7.92 8.925 4.374 0 7.93-4.004 7.93-8.925 0-4.922-3.556-8.92-7.93-8.92zm0 25.197c-7.97 0-14.453-7.3-14.453-16.275 0-8.973 6.482-16.273 14.452-16.273 7.973 0 14.458 7.3 14.458 16.273 0 8.976-6.485 16.276-14.46 16.276" fill="#2c4149"/><path d="M264.09 181.635c0 6.958-5.013 12.6-11.19 12.6-6.18 0-11.192-5.642-11.192-12.6 0-6.97 5.013-12.597 11.19-12.597 6.18 0 11.19 5.628 11.19 12.597" fill="#fff"/><path d="M252.9 172.714c-4.37 0-7.926 4-7.926 8.92 0 4.922 3.556 8.925 7.925 8.925 4.368 0 7.924-4.004 7.924-8.925 0-4.922-3.556-8.92-7.925-8.92zm0 25.197c-7.975 0-14.457-7.3-14.457-16.275 0-8.973 6.482-16.273 14.456-16.273 7.97 0 14.454 7.3 14.454 16.273 0 8.976-6.485 16.276-14.455 16.276" fill="#2c4149"/></g></svg>
