<svg xmlns="http://www.w3.org/2000/svg" width="300" height="257"><path d="M178.693 156.367l15.716 9.1-10.704 12.736s-37.726 11.55-42.11 11.127c-4.386-.425-17.958-3.725-20.508-4.946 0 0 4.662-6.75 11.92-10.735 7.254-3.986 45.685-17.283 45.685-17.283" fill="#80d4c3"/><path d="M220.99 168.73s3.27 1.26 3.79 2.727c.52 1.468-24.416 56.206-25.77 59.212-1.352 3.004-7.49 8.44-8.504 10.694-1.016 2.254-11.24-5.533-11.824-7.183-.587-1.65 3.612-14.253 8.392-18.968 4.78-4.714 12.165-16.86 9.758-23.644-2.407-6.785-9.942-8.412-12.14-3.528-2.2 4.884-4.95.826-3.37-2.68 1.58-3.506 6.71-16.223 13.087-19.893" fill="#80d4c3"/><path d="M206.32 202.492s-.184 1.893-.922 4.496c-.18.655-.376 1.36-.63 2.085-.243.73-.49 1.505-.806 2.274-.315.77-.583 1.596-.96 2.38l-1.086 2.412-1.204 2.35c-.384.78-.852 1.502-1.257 2.228-.4.726-.856 1.394-1.27 2.036-.402.65-.83 1.237-1.226 1.78-1.56 2.184-2.906 3.483-2.906 3.483l-.204-.103 6.03-12.816c3.12-6.356 6.236-12.71 6.236-12.71l.203.104" fill="#45aaad"/><path d="M100.79 210.963s-1.52-1.488-3.103-3.984c-.407-.62-.84-1.294-1.23-2.034-.407-.732-.854-1.498-1.22-2.326-.367-.828-.833-1.65-1.152-2.546-.346-.885-.7-1.783-1.052-2.682-.292-.92-.583-1.84-.872-2.747-.305-.9-.472-1.835-.708-2.713-.24-.875-.372-1.76-.522-2.59-.167-.823-.255-1.627-.335-2.37-.352-2.96-.13-5.107-.13-5.107l.304-.115 5.314 14.493c2.506 7.302 5.01 14.606 5.01 14.606l-.304.113" fill="#2c4149"/><path d="M68.127 92.443s2.56 11.41-3.217 21.7c-5.775 10.29-11.874 5.884-11.874 5.884l1.027-1.792s2.862-.455 4.3-3.65c1.44-3.193.667-13.038-9.557-10.74l-8.96 23.763 12.344 7.085s-5.366 9.17-10.834 11.233c-5.47 2.065-11.182 4.716-13.82 1.97-2.638-2.75-1.23-14.977 1.137-20.236 2.37-5.26 19.106-54.975 19.106-54.975" fill="#80d4c3"/><path d="M121.275 237.336c.733-1.63 4.61-23.94-3.366-46.425-7.98-22.485-27.8-86.876-27.8-86.876l-4.733-2.45-18.128 6.225s23.555 90.25 32.974 105.43c9.417 15.178 21.05 24.096 21.05 24.096" fill="#80d4c3"/><path d="M31.18 134.13s.03-1.933.55-4.64c.124-.68.264-1.414.46-2.172.18-.763.36-1.572.613-2.383.252-.81.452-1.673.763-2.506l.886-2.55c.338-.835.676-1.673 1.007-2.498.32-.83.727-1.61 1.072-2.38.34-.777.738-1.5 1.1-2.192.348-.696.727-1.334 1.076-1.924 1.38-2.367 2.615-3.818 2.615-3.818l.212.084s-2.484 6.786-4.966 13.574l-5.177 13.49-.212-.085" fill="#45aaad"/><path d="M161.332 88.326l13.976-5.274s-3.467-7.244 2.438-9.472c5.552-2.095 6.32 1.857 8.528 4.76 3.646 4.787 15.31 1.948 13.77-6.43-1.26-6.884.97-9.727 3.957-8.297 2.99 1.43 4.686 9.226 11.146 6.38 5.044-2.222 3.376-6.53 5.655-10.343 1.24-2.075 5.618-4.53 8.352-5.214 0 0-10.783 1.59-12.826 4.51-2.273 3.25-1.667 5.314-3.805 6.12-2.67 1.01-4.475-4.128-7.373-7.08-3.12-3.178-12.38.07-11.23 6.126.872 4.576 3.523 8.042-.358 9.507-3.866 1.457-6.012-1.352-8.643-5.04-3.65-5.118-16.17-2.448-17.203 5.42l-20.18 7.02M134.822 74.323s17.726-39.096 22.01-44.924c4.285-5.828 8.158-14.07 22.14-23.05l-32.94 73.876" fill="#80d4c3"/><path d="M154.933 41.39c.777-1.358 2.2-1.978 3.18-1.38.98.594 1.145 2.178.368 3.537-.776 1.36-2.2 1.978-3.18 1.383-.98-.597-1.144-2.18-.367-3.54" fill="#45aaad"/><path d="M220.898 166.826s12.618-4.28 15.33-16.53c2.71-12.25-8.412-24.272-25.242-34.766-16.83-10.492-118.118-63.244-123.583-65.86-5.466-2.617-17.8-5.835-24.26.385" fill="#b0cac2"/><path d="M223.61 163.895c4.905-6.822 9.98-22.168-7.425-37.122C198.78 111.82 81.24 54.18 75.775 51.563c-5.465-2.616-21.19-2.61-26.096 8.287-4.906 10.896-1.97 22.576 12.966 29.726 14.94 7.152 129.806 75.158 134.542 77.426 4.738 2.268 18.726 7.594 26.42-3.107" fill="#f05874"/><path d="M235.226 141.502c3.98 2.528 8.586 4.657 13.228 5.38 5.154.8 12.71-1.573 12.132-8.405-.863-10.22-22.313-6.292-27.372-2.613-1.18.857.776 3.736 1.96 2.876 3.348-2.435 24.285-5.987 22.468.284-2.763 9.543-16.65 3.278-21.906-.06-1.9-1.206-1.807 1.714-.51 2.538" fill="#45aaad"/><path d="M222.454 169.51c3.624 1.536 3.06 2.115 2.498 5.026-.514 2.67-2.264 5.548-3.322 8.025-3.363 7.87-6.85 15.685-10.342 23.494-3.06 6.84-6.14 13.666-9.232 20.49-.795 1.75-1.495 3.617-2.526 5.24-1.372 2.16-3.368 3.983-5.014 5.882-1.843 2.13-1.464 2.36-3.774 1.873-3.685-.78-7.273-4.862-7.116-8.343.22-4.913 4.02-11.114 6.87-14.827 5.054-6.583 13.982-15.924 10.975-25.38-1.68-5.286-8.21-8.903-13.12-5.72.068-.042-2.95 2.526-2.427 2.654-1.456-.362.567-3.86 1.008-5.092 2.148-5.99 6.24-13.344 11.44-16.933 1.98-1.367-1.073-1.804-2.18-1.042-6.14 4.236-11.143 12.428-13.334 19.684-1.48 4.91-.114 7.673 4.676 5.67 2.89-1.208-.28-5.083 6.084-3.442 3.23.832 4.684 5.765 4.643 8.597-.093 6.747-4.506 13.36-8.667 18.273-3.63 4.29-11.044 13.91-9.856 20.247.637 3.405 8.185 8.64 11.564 8.747 4.653.146 8.627-6.633 10.99-10.1 6.6-9.684 10.53-22.44 15.29-33.147 3.292-7.405 6.618-14.805 9.69-22.31 1.927-4.71 3.623-6.922-2-9.306-1.032-.436-4.25 1.133-2.816 1.74" fill="#2c4149"/><path d="M209.237 202.426s.065 2.02-.496 4.714c-.13.68-.28 1.412-.5 2.15-.206.75-.406 1.547-.705 2.327-.296.78-.522 1.627-.897 2.413l-1.062 2.422c-.41.785-.824 1.568-1.228 2.337-.39.78-.9 1.482-1.323 2.196-.418.718-.92 1.363-1.37 1.987-.434.63-.912 1.194-1.353 1.714-1.737 2.092-3.332 3.265-3.332 3.265l-.29-.15s2.993-6.42 5.987-12.836c3.14-6.344 6.277-12.688 6.277-12.688l.293.148M186.384 177.37c-8.588 2.627-17.207 5.162-25.868 7.522-4.675 1.274-10.047 3.4-14.93 3.512-2.812.063-5.68-.796-8.41-1.403-1.69-.376-9.572-1.182-10.635-2.768-.83-1.242-.763.478-.737-.79.018-.91 2.41-2.772 3.04-3.404 2.93-2.936 6.116-5.197 9.804-6.952 4.84-2.306 9.96-4.086 14.966-5.96 9.337-3.493 18.73-6.84 28.147-10.102 1.392-.482 1.04-1.986-.388-1.49-10.168 3.522-20.312 7.137-30.387 10.94-10.74 4.054-21.063 7.817-28.14 17.726-.273.384.11.728.42.853 10.704 4.37 20.61 5.714 31.567 2.936 10.725-2.717 21.352-5.892 31.94-9.13 1.418-.434 1.05-1.93-.388-1.49M103.662 210.876s-1.52-1.49-3.103-3.986c-.408-.618-.84-1.293-1.23-2.033-.408-.732-.853-1.498-1.22-2.326-.368-.827-.834-1.65-1.153-2.545-.346-.883-.7-1.782-1.05-2.68l-.873-2.748c-.307-.9-.474-1.836-.708-2.713-.24-.876-.373-1.76-.524-2.59-.167-.823-.255-1.628-.335-2.37-.352-2.96-.13-5.107-.13-5.107l.306-.116 5.315 14.494c2.504 7.304 5.01 14.607 5.01 14.607l-.306.116M69.822 92.68c1.41 6.92.62 15.53-3.31 21.43-2.018 3.028-11.71 7.164-8.834 4.322.898-.89 2.39-1.02 3.356-2.067 2.43-2.63 2.578-7.226.65-10.204-2.308-3.56-6.142-3.47-9.807-2.93-.405.06-1.195.264-1.366.72l-8.96 23.762c-.033.095-.012.178.064.243 3.137 1.8 7.163 3.315 9.897 5.68 2.39 2.063 2.317-.064 1.17 3.057-1.48 4.024-8.48 9.178-11.618 9.845-2.466.525-9.198 1.07-10.472-1.144-.558-.97-.385-3.037-.413-4.152-.096-3.782.567-7.95 1.707-11.57.93-2.955 2.218-5.837 3.268-8.755 5.793-16.078 11.21-32.307 16.666-48.51.197-.586-2.103-.303-2.334.384-5.935 17.625-11.603 35.423-18.23 52.787-2.174 5.693-8.14 23.174 1.946 23.95 9.603.74 18.42-7.453 23.03-15.114.035-.097.014-.178-.064-.243-2.575-1.48-10.59-4.24-11.912-6.837-.98-1.922 3.535-10.36 4.403-12.663 1.708-4.53 3.438-15.755 9.93-8.81 5.418 5.79-1.192 9.645-3.846 14.27-.034.098-.014.18.064.244 13.524 8.76 19.065-20.047 17.373-28.345-.128-.628-2.496-.04-2.355.65" fill="#2c4149"/><path d="M124.27 238.007c5.688-16.778-.08-37.55-5.462-53.4-5.642-16.623-10.89-33.388-16.148-50.142-2.25-7.172-4.49-14.35-6.717-21.53-.717-2.314-1.265-6.93-2.75-8.89-5.604-7.4-18.687.943-24.93 3.087-.638.22-1.693.78-1.462 1.664 5.65 21.623 11.638 43.172 18.14 64.538 7.67 25.213 14.842 48.8 36.28 65.514 1.173.915 4.312-.805 2.742-2.028-21.9-17.073-28.81-42.214-36.54-67.936-6.083-20.233-11.745-40.612-17.09-61.065-.486.553-.973 1.108-1.46 1.66 4.903-1.68 9.805-3.364 14.71-5.047 3.03-1.04 4.166-1.723 6.394 1.607 1.944 2.905 2.588 8.362 3.618 11.683 2.216 7.13 4.442 14.254 6.684 21.376 4.734 15.048 9.475 30.1 14.514 45.046 5.385 15.972 11.852 36.606 6.12 53.517-.65 1.922 2.87 1.78 3.36.344M34.008 134.024s-.234-2.037.104-4.82c.075-.698.162-1.452.323-2.223.143-.778.278-1.605.512-2.422.23-.82.387-1.7.698-2.533.282-.845.57-1.7.858-2.56.348-.832.694-1.667 1.035-2.487.324-.828.774-1.59 1.14-2.356.357-.768.804-1.472 1.202-2.147.382-.684.814-1.302 1.21-1.872 1.563-2.293 3.06-3.642 3.06-3.642l.302.12-4.92 13.594-5.22 13.47-.304-.12M236.518 141.47c4.393 2.786 9.63 5.096 14.797 5.558 5.276.473 13.523-2.438 13.233-9.298-.427-10.164-24.24-4.935-29.01-1.494-2.615 1.888 1.292 3.228 3.055 1.955 3.222-2.322 19.706-5.648 21.148-.127.7 2.68-2.374 5.318-4.562 5.692-2.386.407-5.022-.43-7.25-1.2-2.692-.93-5.318-2.2-7.738-3.734-1.605-1.017-5.824 1.285-3.672 2.65M164.652 88.673l13.976-5.274c.192-.074.878-.427.73-.76-.432-.98-.865-2.138-.928-3.217-.666-4.026 1.695-5.514 7.083-4.465.608.78 1.16 1.602 1.66 2.464 2.31 1.778 2.815 3.407 6.095 3.746 4.13.424 9.54-1.827 10.735-6.27.558-2.07-.684-4.162-.244-6.105 1.842-8.11 3.404-3.234 5.37-1.128 1.54 1.65 2.73 3.098 5.062 3.438 2.13.31 4.946-.667 6.54-2.12 6.105-5.555-.66-10.023 11.432-14.094.963-.326 1.498-1.377.037-1.15-3.81.592-8.53 1.224-11.853 3.356-1.877 1.205-2.15 2.47-3.574 4.147-4.152 4.89-3.82-.977-7.655-3.802-2.615-1.923-5.897-1.683-8.75-.35-1.564.734-3.126 1.717-3.99 3.313-1.52 2.81.25 4.173.087 7.128.294.9.544 1.813.75 2.738-1.753.518-3.508 1.036-5.262 1.552-1.723-.6-2.503-3.612-3.976-4.765-1.347-1.056-2.88-1.525-4.54-1.734-4.006-.504-8.943 1.02-11.736 4.124-1.002 1.114-1.554 3.74-2.128 4.232-1.35 1.16-4.905 1.704-6.54 2.272l-13.076 4.548c-1.567.544-.127 1.225.897.87 5.848-2.035 11.745-3.96 17.555-6.105 1.156-.426 2.24-.72 3.266-1.355.086-.053 3.564-4.43.474-1.768 3.51-3.027 6.04-5.74 10.56-4.85 4.765.94 4.637 4.827 8.67 6.62 2.78 1.234 7.255.55 8.243-2.8.68-2.31-1.627-5.155-1.652-7.41-.044-4.13 3.335-8.694 8.954-5.34.82.49 1.336 1.815 1.986 2.494 1.978 2.07 2.87 5.282 6.16 4.747 1.14-.184 1.785-.957 2.676-1.63 3.41-2.57 4.21-6.688 8.767-7.91 1.268-.34 2.622-.432 3.854-.848 1.42-.482 1.008-1.062-.28-.797-2.307.476-5.5 2.656-6.957 4.52-.987 1.26-1.206 2.71-1.863 4.128-.4.87-.146 2.507-.793 3.213-2.4.856-4.804 1.712-7.207 2.57-.55-.455-1.044-.968-1.48-1.538-2.613-2.01-5.217-7.396-9.05-3.436-2.298 2.374-.476 5.562-.992 8.277l-.082 3.09c-3.19 1.352-6.383 2.7-9.573 4.052-1.15-.336-2.014-1.982-2.716-2.783-1.014-1.155-1.406-2.66-2.813-3.488-4.177-2.46-10.188.882-10.563 5.664-.41 5.244 3.138 3.317-2.336 5.383l-9.903 3.736c-1.55.585-.125 1.256.897.87M138.852 74.008c11.097-24.456 21.005-52.454 43.884-67.747-.683.077-1.366.152-2.05.23l-32.94 73.875c-.126.28 2.05.14 2.314-.454l32.942-73.877c.213-.477-1.864.104-2.05.228-23.196 15.506-33.156 43.39-44.415 68.203-.125.275 2.045.14 2.315-.455" fill="#2c4149"/><path d="M158.916 41.383c.348-.56.84-1.247 1.4-.582.588.694.336 1.87-.073 2.578-.29.5-.79 1.2-1.333.67-.7-.68-.38-1.922.006-2.665.58-1.113-1.794-.982-2.22-.163-.803 1.54-.874 3.857 1.063 4.49 1.793.587 3.794-.59 4.704-2.17.844-1.466.846-3.79-.967-4.455-1.856-.682-3.82.555-4.802 2.135-.314.505.27.823.677.865.555.06 1.236-.206 1.544-.702M228.472 164.6c21.682-31.885-28.472-53.04-49.007-64.12-30.55-16.483-61.564-32.086-92.683-47.395-9.592-4.718-19.684-7.46-29.677-1.262-7.354 4.566-10.75 14.66-8.437 23.115 2.396 8.767 9.91 13.304 17.28 17.15 28.508 14.878 56.067 31.918 83.86 48.15 14.28 8.342 28.53 16.746 42.865 24.99 11.405 6.558 25.92 11.378 35.8-.63 1.947-2.364-2.508-3.373-3.98-1.583-9.106 11.063-22.387 2.685-31.936-2.848-11.138-6.45-22.244-12.964-33.358-19.457-26.455-15.455-52.845-31.053-79.56-46.025-10.983-6.156-28.422-12.03-26.76-27.76 1.896-17.91 19.307-16.275 30.86-10.593 26.038 12.805 51.963 25.872 77.66 39.387 15.054 7.914 30.16 15.85 44.68 24.776 14.323 8.803 30.61 24.58 18.412 42.52-1.737 2.55 2.657 3.528 3.98 1.583" fill="#2c4149"/><path d="M224.637 167.49c5.644-2.023 11.166-6.15 14.29-11.433 5.487-9.277 2.16-18.91-4.35-26.522-10.38-12.124-25.815-19.35-39.494-26.796C164.127 85.88 132.9 69.537 101.61 53.356 90.12 47.42 75.893 40.37 64.17 49.747c-1.98 1.587 2.697 1.226 3.683.437 9.58-7.665 24.23 2.305 33.334 7.024 12.53 6.495 25.034 13.042 37.525 19.614 24.208 12.734 49.077 24.834 72.435 39.193 9.57 5.883 21.678 14.11 25.16 25.72 3.104 10.343-3.914 20.85-13.406 24.25-3.138 1.128-.226 2.207 1.733 1.505" fill="#2c4149"/><path d="M1063.768-65.865c-9.64-3.442-85.58-43.803-168.755-89.69-83.176-45.89-182.246-99.723-220.157-119.632-79.355-41.673-95.073-55.548-95.073-83.923 0-15.192 3.096-22.402 14.532-33.838 13.438-13.438 16.392-14.336 39.218-11.925 27.747 2.93 125.66 47.315 313.534 142.127 116.283 58.682 152.248 81.364 172.466 108.768 20.853 28.264 12.27 79.87-15.008 90.24-15.145 5.758-19.28 5.542-40.757-2.127z" fill="none"/><path d="M1063.768-65.865c-9.64-3.442-85.58-43.803-168.755-89.69-83.176-45.89-182.246-99.723-220.157-119.632-79.355-41.673-95.073-55.548-95.073-83.923 0-15.192 3.096-22.402 14.532-33.838 13.438-13.438 16.392-14.336 39.218-11.925 27.747 2.93 125.66 47.315 313.534 142.127 116.283 58.682 152.248 81.364 172.466 108.768 20.853 28.264 12.27 79.87-15.008 90.24-15.145 5.758-19.28 5.542-40.757-2.127z" fill="none"/><path d="M1063.768-65.865c-9.64-3.442-85.58-43.803-168.755-89.69-83.176-45.89-182.246-99.723-220.157-119.632-79.355-41.673-95.073-55.548-95.073-83.923 0-15.192 3.096-22.402 14.532-33.838 13.438-13.438 16.392-14.336 39.218-11.925 27.747 2.93 125.66 47.315 313.534 142.127 116.283 58.682 152.248 81.364 172.466 108.768 20.853 28.264 12.27 79.87-15.008 90.24-15.145 5.758-19.28 5.542-40.757-2.127z" fill="none"/></svg>