<?xml version="1.0" encoding="UTF-8" standalone="no"?>
<!-- Created with Inkscape (http://www.inkscape.org/) -->
<svg id="svg2" xmlns:rdf="http://www.w3.org/1999/02/22-rdf-syntax-ns#" xmlns="http://www.w3.org/2000/svg" xml:space="preserve" height="500" viewBox="0 0 500 500" width="500" version="1.1" xmlns:cc="http://creativecommons.org/ns#" xmlns:dc="http://purl.org/dc/elements/1.1/"><metadata id="metadata8"><rdf:RDF><cc:Work rdf:about=""><dc:format>image/svg+xml</dc:format><dc:type rdf:resource="http://purl.org/dc/dcmitype/StillImage"/><dc:title/></cc:Work></rdf:RDF></metadata><g id="g10" transform="matrix(1.25,0,0,-1.25,0,500)"><g id="g3638" transform="matrix(.41816 0 0 .43521 177.76 357.15)"><g id="g3705" transform="matrix(1.0997 0 0 1.0964 -417.13 -809.61)"><g fill="#fff"><path id="path16" d="m269.43 20.673c0-0.7031 0.109-1.3011 0.328-1.7949 0.218-0.4941 0.517-0.8652 0.897-1.1152s0.795-0.377 1.244-0.377c0.456 0 0.872 0.1192 1.249 0.3571 0.377 0.2359 0.678 0.6019 0.903 1.0922 0.224 0.4898 0.337 1.1046 0.337 1.8378 0 0.6911-0.113 1.2852-0.337 1.7829-0.225 0.4961-0.529 0.875-0.912 1.139-0.383 0.261-0.803 0.3922-1.258 0.3922-0.475 0-0.9-0.134-1.274-0.4019-0.373-0.2704-0.663-0.6539-0.868-1.1582-0.207-0.504-0.309-1.0879-0.309-1.754zm5.1-3.8089v0.2578c-0.348-0.3977-0.691-0.725-1.03-0.9731-0.339-0.2519-0.706-0.4406-1.103-0.5699-0.395-0.1328-0.827-0.1949-1.296-0.1949-0.621 0-1.195 0.1312-1.724 0.3922-0.528 0.2636-0.985 0.6386-1.371 1.1269-0.388 0.4871-0.68 1.059-0.879 1.7188-0.199 0.6582-0.3 1.3711-0.3 2.1371 0 1.6211 0.397 2.8851 1.188 3.791 0.792 0.9039 1.833 1.357 3.125 1.357 0.747 0 1.377-0.1289 1.889-0.3851 0.514-0.2547 1.014-0.652 1.501-1.1809v3.8262c0 0.5328 0.106 0.934 0.319 1.207 0.211 0.2719 0.513 0.4078 0.907 0.4078 0.392 0 0.694-0.125 0.906-0.375 0.213-0.2519 0.318-0.6191 0.318-1.107v-11.436c0-0.4942-0.113-0.8629-0.341-1.111-0.228-0.2461-0.522-0.3691-0.883-0.3691-0.355 0-0.648 0.1269-0.879 0.3832-0.232 0.2566-0.347 0.623-0.347 1.0969"/><path id="path18" d="m280.9 21.489h4.703c-0.063 0.8871-0.304 1.5507-0.718 1.9898-0.415 0.4422-0.96 0.6613-1.638 0.6613-0.646 0-1.177-0.223-1.591-0.6683-0.415-0.4481-0.666-1.1078-0.756-1.9828zm5.072-1.4719h-5.072c0.007-0.5883 0.125-1.1082 0.357-1.557 0.23-0.4493 0.538-0.7891 0.921-1.0161 0.384-0.2281 0.806-0.341 1.268-0.341 0.31 0 0.593 0.0348 0.85 0.1071 0.257 0.0738 0.505 0.1867 0.746 0.3437 0.241 0.1543 0.462 0.3203 0.665 0.4981 0.202 0.1769 0.464 0.4199 0.788 0.7218 0.133 0.1141 0.323 0.1723 0.571 0.1723 0.265 0 0.48-0.0742 0.644-0.2199 0.165-0.1473 0.248-0.35 0.248-0.6184 0-0.2336-0.093-0.5047-0.275-0.8199-0.185-0.3137-0.462-0.6149-0.831-0.902-0.372-0.289-0.836-0.5281-1.398-0.7168-0.559-0.191-1.204-0.2851-1.932-0.2851-1.664 0-2.96 0.4738-3.884 1.4242-0.925 0.9488-1.387 2.2379-1.387 3.8648 0 0.7668 0.113 1.4782 0.342 2.1333 0.228 0.6558 0.56 1.2156 0.997 1.6847 0.436 0.4692 0.975 0.8281 1.615 1.0781 0.639 0.25 1.349 0.375 2.127 0.375 1.013 0 1.882-0.2132 2.607-0.6402 0.725-0.4277 1.269-0.9809 1.629-1.657 0.36-0.677 0.541-1.3688 0.541-2.0699 0-0.654-0.186-1.0758-0.559-1.2688-0.373-0.1941-0.9-0.291-1.578-0.291"/><path id="path20" d="m297.78 18.774c0-0.7136-0.174-1.3277-0.522-1.8367-0.348-0.5101-0.863-0.8973-1.544-1.1609-0.68-0.261-1.508-0.3922-2.484-0.3922-0.93 0-1.728 0.1422-2.393 0.4281-0.664 0.2828-1.155 0.6399-1.472 1.066-0.316 0.4301-0.474 0.8571-0.474 1.2891 0 0.2848 0.1 0.5269 0.303 0.7297 0.202 0.2023 0.459 0.3031 0.77 0.3031 0.271 0 0.48-0.066 0.626-0.1988 0.146-0.1332 0.286-0.3199 0.418-0.559 0.265-0.4641 0.585-0.8063 0.955-1.0371 0.37-0.2262 0.875-0.3422 1.515-0.3422 0.519 0 0.945 0.1184 1.278 0.348 0.332 0.2332 0.498 0.4961 0.498 0.793 0 0.457-0.172 0.7871-0.518 0.9961-0.345 0.209-0.914 0.4102-1.705 0.6-0.892 0.2211-1.619 0.4551-2.18 0.6992-0.56 0.2418-1.008 0.5637-1.343 0.9629-0.336 0.3981-0.504 0.891-0.504 1.4731 0 0.5168 0.155 1.0089 0.466 1.4718 0.31 0.461 0.767 0.8301 1.373 1.1059 0.603 0.275 1.333 0.4141 2.188 0.4141 0.671 0 1.275-0.0711 1.809-0.211 0.536-0.1371 0.983-0.3258 1.34-0.5609 0.358-0.2321 0.63-0.4922 0.816-0.777 0.187-0.2851 0.28-0.5633 0.28-0.8359 0-0.2973-0.099-0.541-0.299-0.732-0.199-0.1883-0.482-0.2864-0.85-0.2864-0.266 0-0.492 0.0774-0.679 0.2313-0.186 0.15-0.4 0.3789-0.64 0.682-0.197 0.2527-0.427 0.457-0.694 0.609-0.265 0.1519-0.627 0.2258-1.083 0.2258-0.469 0-0.857-0.0969-1.168-0.2977-0.31-0.2004-0.466-0.448-0.466-0.7453 0-0.273 0.115-0.4961 0.342-0.6687 0.229-0.1762 0.535-0.3211 0.922-0.434 0.387-0.1133 0.917-0.252 1.596-0.416 0.803-0.1973 1.46-0.4321 1.97-0.7032 0.509-0.2718 0.896-0.5941 1.16-0.9648 0.262-0.3711 0.393-0.793 0.393-1.2684"/><path id="path56" d="m499.18 20.466v-3.4469c0-0.5472-0.121-0.9519-0.369-1.2269-0.25-0.2731-0.573-0.4082-0.979-0.4082-0.393 0-0.713 0.1351-0.951 0.4082-0.246 0.275-0.371 0.6797-0.371 1.2269v4.1297c0 0.6551-0.022 1.1633-0.065 1.5262-0.045 0.3531-0.168 0.6539-0.361 0.8832-0.197 0.234-0.51 0.3508-0.932 0.3508-0.849 0-1.406-0.291-1.675-0.8809-0.268-0.5761-0.407-1.414-0.407-2.507v-3.502c0-0.5382-0.123-0.9461-0.361-1.223-0.25-0.2742-0.568-0.4121-0.965-0.4121-0.396 0-0.717 0.1379-0.967 0.4121-0.252 0.2769-0.377 0.6848-0.377 1.223v7.4188c0 0.4891 0.112 0.8601 0.336 1.1121 0.229 0.2563 0.526 0.3813 0.889 0.3813 0.357 0 0.652-0.1231 0.893-0.3563 0.236-0.2379 0.353-0.566 0.353-0.984v-0.2441c0.453 0.5351 0.936 0.9312 1.445 1.1793 0.516 0.2597 1.082 0.3867 1.713 0.3867 0.651 0 1.211-0.1309 1.678-0.391 0.469-0.259 0.854-0.6539 1.16-1.175 0.44 0.5273 0.908 0.9222 1.41 1.1793 0.5 0.2578 1.053 0.3867 1.662 0.3867 0.705 0 1.321-0.1418 1.834-0.4199 0.51-0.277 0.893-0.6801 1.147-1.195 0.221-0.473 0.33-1.2089 0.33-2.2171v-5.0618c0-0.5472-0.121-0.9519-0.367-1.2269-0.246-0.2731-0.574-0.4082-0.979-0.4082-0.394 0-0.715 0.1379-0.965 0.4121-0.25 0.2769-0.377 0.6848-0.377 1.223v4.361c0 0.5578-0.023 1.0039-0.068 1.3379-0.047 0.3383-0.178 0.6211-0.383 0.8468-0.213 0.2274-0.531 0.3442-0.953 0.3442-0.342 0-0.666-0.107-0.974-0.3078-0.307-0.1981-0.547-0.477-0.721-0.8133-0.186-0.4367-0.283-1.2129-0.283-2.3219"/><path id="path78" d="m576.74 800h-31.13c0.49-2.08 0.75-4.26 0.75-6.49 0-15.87-12.91-28.78-28.78-28.78s-28.78 12.91-28.78 28.78c0 2.23 0.26 4.41 0.75 6.49h-31.13c-0.6-0.85-0.95-1.87-0.95-2.93v-7.11c0-2.64 2.13-4.96 4.75-5.18l1.38-0.12c2.62-0.22 5.12-2.51 5.85-5.04 1.04-3.63 2.49-7.08 4.28-10.32 1.27-2.31 1.13-5.69-0.57-7.7l-0.89-1.06c-1.71-2.02-1.57-5.16 0.29-7.02l5.03-5.03c1.86-1.86 5-2 7.02-0.3l1.06 0.89c2.01 1.7 5.4 1.85 7.7 0.58 3.24-1.79 6.7-3.24 10.32-4.28 2.53-0.73 4.82-3.23 5.04-5.85l0.12-1.38c0.22-2.62 2.54-4.75 5.17-4.75h7.11c2.64 0 4.96 2.13 5.18 4.75l0.12 1.38c0.22 2.62 2.51 5.12 5.04 5.85 3.62 1.04 7.08 2.49 10.32 4.28 2.31 1.27 5.69 1.12 7.7-0.57l1.06-0.9c2.02-1.7 5.16-1.56 7.02 0.3l5.03 5.03c1.86 1.86 1.99 5 0.3 7.02l-0.9 1.06c-1.7 2.01-1.84 5.39-0.57 7.7 1.79 3.24 3.24 6.69 4.28 10.32 0.73 2.53 3.22 4.83 5.85 5.04l1.38 0.12c2.63 0.22 4.75 2.54 4.75 5.18v7.1c0 1.07-0.35 2.1-0.95 2.94"/><path id="path80" d="m705.12 207.3-10.651 18.447-10.651 18.447-10.65-18.447-10.65-18.447h11.968v-207.3h18.666v207.3h11.968"/><path id="path82" d="m443.68 722.23-10.652 18.447-10.65 18.447-10.65-18.447-10.651-18.447h11.969v-129.9h18.666v129.9h11.968"/></g><g><path id="path86" d="m177.8 37.995h-30.132v1.4793h-8.663v-1.4793h-7.694v13.015l19.606-0.7391s10.021-6.8981 26.94-8.7199c1.619-0.1742-0.057-3.5563-0.057-3.5563" fill="#54433a"/><path id="path88" d="m266.82 37.995h-30.132v1.4793h-8.663v-1.4793h-7.694v13.015l19.606-0.7391s10.021-6.8981 26.94-8.7199c1.618-0.1742-0.057-3.5563-0.057-3.5563" fill="#54433a"/><path id="path90" d="m422.74 204.58 8.59-0.78 14.446 26.679h-4.295l-14.836-17.96-3.905-7.939" fill="#dba785"/><path id="path92" d="m311.31 218.62 10.617 11.093 15.749 28.134 18.583-3.14 6.489-17.693-6.259-6.615-0.833-8.736-5.64 1.236-7.143-6.704-7.374 1.533-5.094-4.538-19.095 5.43" fill="#dba785"/><path id="path94" d="m323.33 228.92-4.32 0.954s4.25 16.892 7.099 21.891c4.857 8.522 16.412 8.371 16.412 8.371s17.046-2.508 24.18-10.85c4.59-5.366-2.483-14.467-2.483-14.467l-13.491 6.611-11.367-3.055s-1.776 5.647-3.795 5.615c-1.219-0.019-4.356-2.554-4.17-4.501 0.062-0.656 1.349-2.34 1.349-2.34l-9.414-8.229" fill="#54433a"/><path id="path96" d="m271.33 108.62-1.385 5.789-111.17-68.115s-0.353-0.6239-7.163-0.6239c-10.131 0-24.957 2.8-20.303 5.9028 82.941 55.245 119.05 80.381 132.67 90.053l7.351-33.006" fill="#0e7b74"/><path id="path98" d="m307.57 86.212-61.628-38.7c-8.996-2.4062-34.89-2.1871-32.11 1.9777l62.138 39.774-4.633 19.355-7.351 33.006c5.196 3.687 7.111 5.123 7.111 5.123h27.842l8.631-60.536" fill="#0b8e7d"/><path id="path100" d="m310.14 217.55 5.705 6.658 18.885-6.658h-24.59" fill="#fff"/><path id="path102" d="m340.09 234.66-2.615 2.66 8.103 7.972 2.615-2.66-8.103-7.972" fill="#54433a"/><path id="path104" d="m246.4 130.66 50.1 88.34l133.86-1.551-7.096-15.467-84.884-13.435-35.421-70.001-56.56 12.114" fill="#13596a"/></g><g fill="#fff"><path id="path106" d="m687.51 503.03c0-2.04-1.654-3.694-3.694-3.694s-3.693 1.654-3.693 3.694c0 2.039 1.653 3.693 3.693 3.693s3.694-1.654 3.694-3.693"/><path id="path108" d="m687.51 527.6c0-2.039-1.654-3.693-3.694-3.693s-3.693 1.654-3.693 3.693c0 2.04 1.653 3.694 3.693 3.694s3.694-1.654 3.694-3.694"/><path id="path110" d="m687.51 552.18c0-2.039-1.654-3.693-3.694-3.693s-3.693 1.654-3.693 3.693c0 2.04 1.653 3.693 3.693 3.693s3.694-1.653 3.694-3.693"/><path id="path112" d="m687.51 576.76c0-2.04-1.654-3.694-3.694-3.694s-3.693 1.654-3.693 3.694c0 2.039 1.653 3.693 3.693 3.693s3.694-1.654 3.694-3.693"/><path id="path114" d="m687.51 601.34c0-2.039-1.654-3.693-3.694-3.693s-3.693 1.654-3.693 3.693c0 2.04 1.653 3.694 3.693 3.694s3.694-1.654 3.694-3.694"/><path id="path116" d="m687.51 625.92c0-2.04-1.654-3.693-3.694-3.693s-3.693 1.653-3.693 3.693c0 2.039 1.653 3.693 3.693 3.693s3.694-1.654 3.694-3.693"/><path id="path118" d="m426.07 250.06c0-2.04-1.653-3.694-3.693-3.694s-3.693 1.654-3.693 3.694 1.653 3.693 3.693 3.693 3.693-1.653 3.693-3.693"/><path id="path120" d="m426.07 274.64c0-2.04-1.653-3.694-3.693-3.694s-3.693 1.654-3.693 3.694c0 2.039 1.653 3.692 3.693 3.692s3.693-1.653 3.693-3.692"/><path id="path122" d="m426.07 299.22c0-2.04-1.653-3.694-3.693-3.694s-3.693 1.654-3.693 3.694 1.653 3.693 3.693 3.693 3.693-1.653 3.693-3.693"/><path id="path124" d="m426.07 323.8c0-2.04-1.653-3.693-3.693-3.693s-3.693 1.653-3.693 3.693c0 2.039 1.653 3.693 3.693 3.693s3.693-1.654 3.693-3.693"/><path id="path126" d="m426.07 492.43c0-2.04-1.653-3.694-3.693-3.694s-3.693 1.654-3.693 3.694 1.653 3.693 3.693 3.693 3.693-1.653 3.693-3.693"/><path id="path128" d="m426.07 517.01c0-2.04-1.653-3.694-3.693-3.694s-3.693 1.654-3.693 3.694c0 2.039 1.653 3.692 3.693 3.692s3.693-1.653 3.693-3.692"/><path id="path130" d="m426.07 541.59c0-2.04-1.653-3.693-3.693-3.693s-3.693 1.653-3.693 3.693 1.653 3.693 3.693 3.693 3.693-1.653 3.693-3.693"/><path id="path132" d="m426.07 566.17c0-2.04-1.653-3.693-3.693-3.693s-3.693 1.653-3.693 3.693c0 2.039 1.653 3.693 3.693 3.693s3.693-1.654 3.693-3.693"/></g><g><path id="path136" d="m685.46 700.81c-0.348-1.685-1.071-4.362-1.703-5.958-1.21-3.01-2.654-5.879-4.33-8.592-0.896-1.457-2.624-3.632-3.763-4.914l-4.92-5.52c-1.139-1.282-3.102-3.247-4.451-4.307-2.596-2.066-5.37-3.886-8.29-5.458-1.509-0.82-4.096-1.834-5.727-2.38l-7.057-2.345c-1.631-0.545-4.311-1.262-6.011-1.507-3.12-0.448-6.289-0.645-9.501-0.562-1.711 0.043-4.46 0.448-6.147 0.797l-7.605 1.57c-1.678 0.347-4.364 1.064-5.959 1.703-2.968 1.187-5.8 2.623-8.479 4.268-1.457 0.898-3.642 2.619-4.923 3.766l-5.579 4.962c-1.282 1.147-3.247 3.102-4.31 4.444-2.05 2.6-3.872 5.361-5.432 8.269-0.819 1.509-1.842 4.09-2.379 5.726l-2.361 7.093c-0.538 1.629-1.255 4.309-1.508 6.01-0.45 3.106-0.644 6.29-0.562 9.494 0.045 1.718 0.45 4.468 0.798 6.154l1.552 7.555c0.347 1.678 1.064 4.364 1.704 5.959 1.199 2.996 2.636 5.836 4.292 8.522 0.897 1.463 2.619 3.648 3.765 4.929l4.947 5.576c1.147 1.281 3.11 3.252 4.454 4.315 2.597 2.049 5.376 3.876 8.295 5.442 1.507 0.819 4.087 1.842 5.718 2.38l7.081 2.348c1.63 0.538 4.319 1.261 6.01 1.507 3.129 0.454 6.319 0.638 9.546 0.553 1.718-0.044 4.461-0.449 6.14-0.795l7.501-1.549c1.677-0.347 4.371-1.066 5.966-1.705 2.99-1.199 5.851-2.64 8.544-4.297 1.464-0.898 3.639-2.625 4.922-3.765l5.553-4.942c1.282-1.139 3.253-3.109 4.314-4.459 2.051-2.593 3.878-5.37 5.453-8.281 0.816-1.517 1.84-4.098 2.38-5.72l2.33-7.047c0.539-1.637 1.27-4.32 1.514-6.02 0.461-3.13 0.644-6.336 0.565-9.571-0.053-1.716-0.451-4.468-0.797-6.146l-1.55-7.502zm19.291 4.395c0.347 1.678-0.707 3.437-2.349 3.924l-3.204 0.947c-1.65 0.488-2.869 2.274-2.815 3.989 0.115 3.824-0.102 7.609-0.653 11.317-0.247 1.691 0.753 3.607 2.332 4.28l3.067 1.318c1.574 0.682 2.415 2.544 1.877 4.173l-2.745 8.303c-0.539 1.629-2.324 2.617-3.994 2.218l-3.259-0.782c-1.671-0.398-3.623 0.531-4.433 2.046-1.807 3.323-3.885 6.494-6.23 9.464-1.062 1.35-1.15 3.506-0.116 4.879l2.01 2.682c1.028 1.375 0.822 3.416-0.461 4.555l-6.535 5.811c-1.275 1.138-3.327 1.105-4.569-0.079l-2.427-2.294c-1.242-1.184-3.398-1.35-4.853-0.446-3.188 1.967-6.577 3.666-10.133 5.082-1.588 0.63-2.752 2.458-2.546 4.166l0.398 3.316c0.206 1.708-0.992 3.372-2.677 3.72l-8.556 1.767c-1.679 0.347-3.438-0.707-3.926-2.356l-0.954-3.202c-0.488-1.649-2.266-2.87-3.981-2.817-3.834 0.11-7.619-0.108-11.317-0.653-1.709-0.25-3.615 0.754-4.288 2.334l-1.316 3.068c-0.675 1.579-2.545 2.422-4.174 1.884l-8.287-2.749c-1.629-0.539-2.627-2.33-2.229-4l0.781-3.267c0.4-1.669-0.537-3.614-2.044-4.433-3.329-1.79-6.494-3.878-9.462-6.222-1.344-1.063-3.505-1.142-4.881-0.123l-2.683 2.01c-1.376 1.027-3.414 0.829-4.561-0.452l-5.81-6.529c-1.138-1.282-1.103-3.325 0.078-4.577l2.302-2.426c1.177-1.242 1.342-3.398 0.437-4.852-1.958-3.189-3.672-6.575-5.081-10.133-0.631-1.596-2.459-2.752-4.158-2.549l-3.324 0.401c-1.707 0.205-3.372-0.992-3.719-2.67l-1.768-8.564c-0.348-1.685 0.708-3.436 2.355-3.932l3.203-0.948c1.642-0.486 2.861-2.271 2.817-3.988-0.118-3.824 0.117-7.606 0.653-11.308 0.252-1.702-0.753-3.609-2.326-4.291l-3.075-1.316c-1.58-0.674-2.42-2.536-1.883-4.165l2.748-8.295c0.544-1.638 2.337-2.627 4.008-2.229l3.256 0.775c1.669 0.399 3.616-0.53 4.434-2.046 1.789-3.328 3.878-6.492 6.224-9.455 1.06-1.349 1.149-3.505 0.122-4.88l-2.01-2.683c-1.027-1.375-0.819-3.407 0.459-4.563l6.522-5.799c1.282-1.147 3.332-1.114 4.578 0.069l2.417 2.296c1.251 1.182 3.399 1.35 4.869 0.443 3.178-1.966 6.565-3.672 10.132-5.082 1.594-0.638 2.744-2.456 2.539-4.164l-0.391-3.31c-0.205-1.708 0.993-3.372 2.672-3.719l8.556-1.767c1.684-0.348 3.444 0.705 3.931 2.355l0.947 3.196c0.488 1.649 2.279 2.859 3.988 2.816 3.825-0.117 7.611 0.108 11.317 0.652 1.693 0.254 3.608-0.753 4.279-2.332l1.312-3.067c0.68-1.58 2.55-2.423 4.174-1.876l8.302 2.745c1.63 0.547 2.626 2.331 2.228 4l-0.784 3.252c-0.406 1.672 0.529 3.616 2.038 4.435 3.337 1.796 6.499 3.876 9.477 6.22 1.343 1.07 3.505 1.15 4.88 0.122l2.677-2.001c1.375-1.027 3.406-0.827 4.548 0.463l5.809 6.528c1.139 1.283 1.106 3.334-0.073 4.568l-2.294 2.425c-1.181 1.251-1.341 3.399-0.443 4.863 1.974 3.184 3.672 6.566 5.088 10.122 0.632 1.597 2.458 2.753 4.158 2.548l3.323-0.399c1.703-0.197 3.366 0.993 3.714 2.678l1.761 8.565" fill="#0b8e7d"/><path id="path138" d="m683.76 694.85c-1.21-3.01-2.654-5.879-4.33-8.592-0.896-1.457-2.624-3.632-3.763-4.914l-4.92-5.52c-1.139-1.282-3.102-3.247-4.451-4.307-2.596-2.066-5.37-3.886-8.29-5.458-1.509-0.82-4.096-1.834-5.727-2.38l-7.057-2.345c-1.631-0.545-4.311-1.262-6.011-1.507-3.12-0.448-6.289-0.645-9.501-0.562-1.711 0.043-4.46 0.448-6.147 0.797l-7.605 1.57c-1.678 0.347-4.364 1.064-5.959 1.703-2.968 1.187-5.8 2.623-8.479 4.268-1.457 0.898-3.642 2.619-4.923 3.766l-5.579 4.962c-1.282 1.147-3.247 3.102-4.31 4.444-2.05 2.6-3.872 5.361-5.432 8.269-0.819 1.509-1.842 4.09-2.379 5.726l-2.361 7.093c-0.538 1.629-1.255 4.309-1.508 6.01-0.45 3.106-0.644 6.29-0.562 9.494 0.045 1.718 0.45 4.468 0.798 6.154l1.552 7.555c0.347 1.678 1.064 4.364 1.704 5.959 1.199 2.996 2.636 5.836 4.292 8.522 0.897 1.463 2.619 3.648 3.765 4.929l4.947 5.576c1.147 1.281 3.11 3.252 4.454 4.315 2.597 2.049 5.376 3.876 8.295 5.442 1.507 0.819 4.087 1.842 5.718 2.38l7.081 2.348c1.63 0.538 4.319 1.261 6.01 1.507 3.129 0.454 6.319 0.638 9.546 0.553 1.718-0.044 4.461-0.449 6.14-0.795l7.501-1.549c1.677-0.347 4.371-1.066 5.966-1.705 2.99-1.199 5.851-2.64 8.544-4.297 1.464-0.898 3.639-2.625 4.922-3.765l5.553-4.942c1.282-1.139 3.253-3.109 4.314-4.459 2.051-2.593 3.878-5.37 5.453-8.281 0.816-1.517 1.84-4.098 2.38-5.72l2.33-7.047c0.539-1.637 1.27-4.32 1.514-6.02 0.461-3.13 0.644-6.336 0.565-9.571-0.053-1.716-0.451-4.468-0.797-6.146l-1.55-7.502c-0.348-1.685-1.071-4.362-1.703-5.958zm-40.351 79.603-0.178 0.037c-32.335 6.678-63.963-14.116-70.643-46.459-6.677-32.329 14.122-63.967 46.458-70.645l0.179-0.037c32.274-6.565 63.802 14.228 70.466 46.497 6.667 32.284-14.046 63.85-46.282 70.607" fill="#0b8e7d"/><path id="path142" d="m479 607.25c-5.227 24.815 10.709 49.255 35.524 54.482 24.805 5.225 49.245-10.709 54.472-35.525 5.228-24.816-10.708-49.254-35.513-54.48-24.816-5.227-49.255 10.707-54.483 35.523zm117.06 17.373-2.94 13.953c-0.326 1.546-1.865 2.643-3.428 2.445l-7.332-0.899c-1.573-0.199-3.334 0.831-4.003 2.262-2.77 5.876-6.431 11.176-10.774 15.739-1.102 1.147-1.421 3.153-0.672 4.548l3.502 6.513c0.748 1.393 0.274 3.215-1.043 4.081l-11.943 7.795c-1.325 0.856-3.191 0.545-4.158-0.69l-4.545-5.833c-0.974-1.247-2.95-1.765-4.434-1.219-5.936 2.131-12.252 3.346-18.746 3.511-1.581 0.035-3.233 1.23-3.684 2.74l-2.143 7.069c-0.453 1.519-2.074 2.475-3.611 2.152l-13.963-2.942c-1.547-0.326-2.645-1.854-2.448-3.427l0.911-7.329c0.187-1.566-0.842-3.325-2.276-3.995-5.864-2.769-11.164-6.43-15.745-10.777-1.139-1.098-3.147-1.42-4.539-0.671l-6.503 3.505c-1.402 0.737-3.225 0.271-4.092-1.046l-7.784-11.951c-0.865-1.326-0.557-3.183 0.69-4.156l5.824-4.547c1.248-0.975 1.763-2.94 1.23-4.432-2.144-5.93-3.356-12.256-3.521-18.75-0.036-1.58-1.23-3.232-2.74-3.683l-7.071-2.133c-1.519-0.453-2.476-2.075-2.151-3.622l2.939-13.953c0.326-1.546 1.856-2.645 3.431-2.455l7.329 0.909c1.563 0.198 3.325-0.842 3.992-2.265 2.771-5.875 6.43-11.164 10.788-15.745 1.088-1.14 1.411-3.157 0.66-4.541l-3.494-6.51c-0.749-1.394-0.28-3.228 1.044-4.082l11.944-7.796c1.325-0.856 3.183-0.556 4.164 0.704l4.539 5.82c0.972 1.247 2.941 1.753 4.422 1.228 5.947-2.141 12.273-3.352 18.756-3.519 1.584-0.046 3.234-1.231 3.697-2.748l2.121-7.065c0.454-1.519 2.075-2.475 3.621-2.149l13.964 2.942c1.537 0.323 2.634 1.852 2.436 3.425l-0.888 7.323c-0.2 1.574 0.833 3.324 2.262 4.004 5.876 2.771 11.165 6.429 15.736 10.785 1.142 1.078 3.157 1.41 4.551 0.662l6.509-3.493c1.388-0.761 3.218-0.283 4.083 1.044l7.786 11.941c0.858 1.314 0.556 3.183-0.691 4.156l-5.832 4.545c-1.246 0.965-1.765 2.94-1.218 4.425 2.129 5.947 3.344 12.263 3.509 18.757 0.036 1.57 1.229 3.232 2.749 3.685l7.074 2.124c1.508 0.46 2.474 2.084 2.149 3.631" fill="#00a999"/><path id="path144" d="m529.92 594.5c-1.89-0.5-3.88-0.77-5.93-0.77-2.95 0-5.78 0.56-8.37 1.58l8.37 21.42 5.93-22.23" fill="#ef334a"/><path id="path146" d="m546.99 616.73c0-10.65-7.24-19.61-17.07-22.23l-5.93 22.23-8.37-21.42c-8.56 3.34-14.63 11.67-14.63 21.42 0 12.7 10.3 23 23 23 12.71 0 23-10.3 23-23" fill="#f9f593"/><path id="path148" d="m546.99 616.73c0-10.65-7.24-19.61-17.07-22.23l-5.93 22.23h23" fill="#00a999"/></g><g id="g3772" fill="#ef334a" transform="matrix(1.5613 0 0 1.4878 -313.02 -58.503)"><path id="path152" d="m613.51 514.23c1.277-1.278 1.277-3.349-0.001-4.627s-3.349-1.278-4.627 0l-15.37 15.369c-1.277 1.279-1.277 3.35 0 4.628 1.279 1.278 3.35 1.278 4.628 0l15.37-15.37"/><path id="path154" d="m610.18 530.86c1.278 1.277 3.349 1.277 4.628-0.001 1.277-1.277 1.277-3.349-0.001-4.627l-15.37-15.369c-1.278-1.278-3.349-1.278-4.627 0s-1.278 3.349 0 4.628l15.37 15.369"/></g><path id="path158" d="m568.83 409.11c0-2.172-0.208-5.665-0.583-7.798-0.727-4.029-1.778-7.944-3.159-11.724-0.736-2.029-2.316-5.158-3.396-7.035l-4.671-8.076c-1.081-1.877-3.004-4.806-4.402-6.46-2.68-3.216-5.647-6.173-8.853-8.864-1.656-1.398-4.593-3.311-6.469-4.401l-8.126-4.699c-1.876-1.092-5.006-2.659-7.043-3.399-3.742-1.349-7.61-2.401-11.601-3.12-2.124-0.383-5.626-0.582-7.798-0.582h-9.801c-2.163 0-5.666 0.199-7.8 0.582-3.972 0.708-7.839 1.762-11.57 3.112-2.031 0.736-5.168 2.305-7.046 3.397l-8.162 4.709c-1.876 1.09-4.805 3.003-6.46 4.393-3.198 2.69-6.155 5.637-8.825 8.834-1.397 1.654-3.32 4.584-4.403 6.468l-4.726 8.164c-1.083 1.876-2.651 5.004-3.399 7.043-1.349 3.724-2.401 7.609-3.119 11.59-0.385 2.135-0.584 5.637-0.584 7.81l-0.009 9.733c0 2.163 0.199 5.666 0.583 7.801 0.718 4.009 1.77 7.885 3.129 11.627 0.737 2.039 2.307 5.178 3.399 7.054l4.689 8.154c1.09 1.876 3.014 4.814 4.401 6.47 2.69 3.196 5.658 6.163 8.864 8.843 1.655 1.398 4.584 3.321 6.46 4.402l8.153 4.709c1.877 1.082 5.015 2.661 7.044 3.397 3.752 1.36 7.647 2.403 11.657 3.12 2.134 0.384 5.627 0.584 7.79 0.584h9.667c2.163 0 5.676-0.2 7.81-0.584 4-0.717 7.906-1.77 11.657-3.129 2.037-0.736 5.167-2.316 7.043-3.398l8.126-4.689c1.876-1.082 4.813-3.014 6.469-4.412 3.197-2.68 6.163-5.647 8.853-8.843 1.398-1.665 3.321-4.594 4.402-6.46l4.68-8.116c1.082-1.886 2.669-5.015 3.407-7.054 1.37-3.751 2.412-7.666 3.139-11.686 0.375-2.134 0.583-5.637 0.583-7.799v-9.668zm22.721 10.357c0 2.163-1.75 4.068-3.905 4.25l-4.201 0.353c-2.163 0.182-4.124 2.077-4.499 4.211-0.831 4.756-2.066 9.379-3.693 13.82-0.737 2.028 0.01 4.651 1.79 5.886l3.455 2.412c1.771 1.244 2.336 3.761 1.252 5.637l-5.511 9.561c-1.082 1.876-3.54 2.641-5.504 1.722l-3.827-1.799c-1.963-0.918-4.614-0.268-6.001 1.398-3.083 3.645-6.46 7.034-10.116 10.105-1.656 1.399-2.316 4.04-1.387 6.002l1.798 3.828c0.92 1.961 0.144 4.431-1.732 5.512l-9.56 5.513c-1.868 1.081-4.393 0.517-5.629-1.263l-2.411-3.455c-1.235-1.781-3.857-2.536-5.887-1.79-4.441 1.617-9.061 2.852-13.818 3.695-2.126 0.373-4.03 2.335-4.212 4.498l-0.353 4.201c-0.184 2.163-2.087 3.914-4.26 3.914h-11.025c-2.163 0-4.067-1.751-4.25-3.914l-0.363-4.201c-0.181-2.163-2.067-4.125-4.202-4.498-4.766-0.843-9.387-2.078-13.819-3.695-2.048-0.746-4.66 0.009-5.896 1.79l-2.411 3.455c-1.235 1.78-3.761 2.344-5.639 1.263l-9.541-5.513c-1.876-1.081-2.651-3.551-1.732-5.512l1.8-3.839c0.919-1.96 0.259-4.603-1.398-6-3.655-3.062-7.033-6.451-10.106-10.106-1.387-1.656-4.039-2.306-6.001-1.397l-3.828 1.799c-1.963 0.919-4.431 0.153-5.522-1.723l-5.512-9.551c-1.082-1.876-0.518-4.393 1.262-5.637l3.465-2.412c1.771-1.235 2.526-3.858 1.78-5.886-1.607-4.441-2.862-9.064-3.693-13.82-0.375-2.134-2.337-4.029-4.49-4.211l-4.21-0.353c-2.163-0.182-3.914-2.087-3.914-4.25v-11.034c0-2.173 1.751-4.069 3.914-4.26l4.201-0.354c2.153-0.182 4.115-2.076 4.499-4.211 0.831-4.756 2.086-9.37 3.693-13.81 0.746-2.038-0.009-4.651-1.78-5.896l-3.465-2.412c-1.78-1.234-2.344-3.752-1.262-5.627l5.512-9.55c1.091-1.886 3.559-2.653 5.522-1.733l3.828 1.789c1.962 0.92 4.604 0.269 6.001-1.396 3.062-3.657 6.451-7.035 10.106-10.098 1.657-1.395 2.317-4.037 1.398-6.001l-1.8-3.827c-0.919-1.964-0.144-4.421 1.732-5.523l9.541-5.502c1.878-1.091 4.404-0.527 5.639 1.251l2.401 3.457c1.246 1.781 3.858 2.538 5.906 1.79 4.432-1.618 9.053-2.862 13.819-3.695 2.135-0.383 4.021-2.334 4.202-4.499l0.363-4.19c0.183-2.163 2.087-3.914 4.25-3.914h11.025c2.173 0 4.076 1.751 4.26 3.914l0.353 4.19c0.182 2.165 2.086 4.116 4.212 4.499 4.757 0.833 9.377 2.077 13.818 3.695 2.03 0.748 4.652-0.009 5.887-1.79l2.402-3.457c1.245-1.778 3.77-2.342 5.638-1.251l9.56 5.512c1.876 1.092 2.652 3.549 1.732 5.513l-1.798 3.818c-0.929 1.961-0.269 4.605 1.387 6.001 3.665 3.072 7.044 6.45 10.125 10.107 1.389 1.665 4.04 2.316 6.001 1.396l3.818-1.789c1.964-0.92 4.422-0.153 5.504 1.733l5.511 9.55c1.084 1.875 0.519 4.403-1.252 5.627l-3.455 2.412c-1.78 1.245-2.527 3.858-1.79 5.896 1.627 4.44 2.862 9.054 3.703 13.81 0.374 2.135 2.338 4.029 4.489 4.211l4.211 0.354c2.154 0.191 3.905 2.087 3.905 4.26l-0.01 11.034" fill="#ef334a"/><path id="path160" d="m568.25 401.31c-0.727-4.029-1.778-7.944-3.159-11.724-0.736-2.029-2.316-5.158-3.396-7.035l-4.671-8.076c-1.081-1.877-3.004-4.806-4.402-6.46-2.68-3.216-5.647-6.173-8.853-8.864-1.656-1.398-4.593-3.311-6.469-4.401l-8.126-4.699c-1.876-1.092-5.006-2.659-7.043-3.399-3.742-1.349-7.61-2.401-11.601-3.12-2.124-0.383-5.626-0.582-7.798-0.582h-9.801c-2.163 0-5.666 0.199-7.8 0.582-3.972 0.708-7.839 1.762-11.57 3.112-2.031 0.736-5.168 2.305-7.046 3.397l-8.162 4.709c-1.876 1.09-4.805 3.003-6.46 4.393-3.198 2.69-6.155 5.637-8.825 8.834-1.397 1.654-3.32 4.584-4.403 6.468l-4.726 8.164c-1.083 1.876-2.651 5.004-3.399 7.043-1.349 3.724-2.401 7.609-3.119 11.59-0.385 2.135-0.584 5.637-0.584 7.81l-0.009 9.733c0 2.163 0.199 5.666 0.583 7.801 0.718 4.009 1.77 7.885 3.129 11.627 0.737 2.039 2.307 5.178 3.399 7.054l4.689 8.154c1.09 1.876 3.014 4.814 4.401 6.47 2.69 3.196 5.658 6.163 8.864 8.843 1.655 1.398 4.584 3.321 6.46 4.402l8.153 4.709c1.877 1.082 5.015 2.661 7.044 3.397 3.752 1.36 7.647 2.403 11.657 3.12 2.134 0.384 5.627 0.584 7.79 0.584h9.667c2.163 0 5.676-0.2 7.81-0.584 4-0.717 7.906-1.77 11.657-3.129 2.037-0.736 5.167-2.316 7.043-3.398l8.126-4.689c1.876-1.082 4.813-3.014 6.469-4.412 3.197-2.68 6.163-5.647 8.853-8.843 1.398-1.665 3.321-4.594 4.402-6.46l4.68-8.116c1.082-1.886 2.669-5.015 3.407-7.054 1.37-3.751 2.412-7.666 3.139-11.686 0.375-2.134 0.583-5.637 0.583-7.799v-9.668c0-2.172-0.208-5.665-0.583-7.798zm-70.189 88.086h-0.23c-41.67 0-75.453-33.773-75.453-75.453 0-41.66 33.783-75.454 75.453-75.454h0.23c41.563 0.124 75.223 33.87 75.223 75.454 0 41.603-33.66 75.329-75.223 75.453" fill="#fbf6b2"/><g fill="#0b8e7d"><path id="path162" d="m462.3 397.23h21.057v24.999h-21.057v-24.999z"/><path id="path164" d="m511.8 397.23h21.058v33.435h-21.058v-33.435z"/><path id="path166" d="m487.23 397.23h21.058v15.64h-21.058v-15.64z"/></g><g fill="#ef334a"><path id="path168" d="m462.3 397.23h21.057v6.4109h-21.057v-6.4109z"/><path id="path170" d="m487.23 397.23h21.058v3.2051h-21.058v-3.2051z"/><path id="path172" d="m511.8 397.23h21.058v15.64h-21.058v-15.64z"/></g><g><path id="path174" d="m647.5 314.07c0-15.292-12.396-27.688-27.688-27.688s-27.689 12.396-27.689 27.688 12.397 27.689 27.689 27.689 27.688-12.397 27.688-27.689" fill="#fff"/><path id="path176" d="m576.7 298.65c-7.418 23.873 5.968 49.33 29.842 56.748 23.864 7.415 49.318-5.971 56.737-29.843 7.419-23.874-5.967-49.328-29.832-56.745-23.873-7.417-49.329 5.966-56.747 29.84zm113.29 27.844-4.171 13.424c-0.463 1.487-2.074 2.421-3.59 2.084l-7.113-1.559c-1.526-0.339-3.348 0.507-4.137 1.852-3.26 5.511-7.342 10.376-12.026 14.451-1.186 1.025-1.684 2.967-1.079 4.404l2.838 6.714c0.605 1.438-0.029 3.182-1.4 3.91l-12.441 6.549c-1.381 0.72-3.182 0.241-4.017-1.06l-3.923-6.144c-0.841-1.313-2.734-2.005-4.24-1.605-6.023 1.546-12.334 2.155-18.722 1.717-1.555-0.111-3.286 0.909-3.868 2.349l-2.754 6.741c-0.585 1.449-2.264 2.239-3.743 1.779l-13.434-4.175c-1.487-0.462-2.424-2.063-2.086-3.589l1.57-7.109c0.328-1.52-0.519-3.341-1.865-4.13-5.501-3.258-10.365-7.341-14.459-12.03-1.016-1.183-2.957-1.683-4.394-1.077l-6.706 2.842c-1.443 0.594-3.189-0.032-3.919-1.405l-6.538-12.447c-0.726-1.381-0.252-3.175 1.061-4.016l6.136-3.926c1.314-0.841 2.002-2.723 1.615-4.235-1.558-6.017-2.164-12.339-1.727-18.728 0.112-1.553-0.91-3.285-2.349-3.867l-6.743-2.746c-1.45-0.583-2.241-2.264-1.778-3.752l4.171-13.423c0.463-1.489 2.066-2.425 3.593-2.094l7.11 1.569c1.516 0.337 3.341-0.521 4.128-1.857 3.26-5.509 7.339-10.363 12.038-14.457 1.174-1.018 1.677-2.967 1.068-4.397l-2.83-6.71c-0.606-1.438 0.023-3.194 1.401-3.91l12.44-6.55c1.379-0.717 3.175-0.252 4.024 1.075l3.918 6.13c0.839 1.313 2.725 1.991 4.225 1.613 6.036-1.552 12.356-2.159 18.734-1.725 1.559 0.102 3.288-0.91 3.882-2.357l2.733-6.736c0.584-1.449 2.265-2.238 3.752-1.777l13.434 4.175c1.478 0.46 2.414 2.061 2.075 3.586l-1.548 7.107c-0.34 1.525 0.512 3.338 1.852 4.137 5.511 3.261 10.365 7.339 14.449 12.037 1.021 1.162 2.968 1.674 4.406 1.069l6.711-2.828c1.431-0.619 3.184 0.02 3.91 1.4l6.542 12.438c0.719 1.369 0.25 3.174-1.063 4.016l-6.14 3.94c-1.312 0.832-2.002 2.723-1.603 4.23 1.541 6.033 2.152 12.343 1.714 18.731-0.108 1.546 0.91 3.288 2.359 3.871l6.747 2.738c1.437 0.588 2.235 2.273 1.773 3.76" fill="#ef334a"/><path id="path178" d="m636.21 321.78c-1.162 1.161-3.045 1.161-4.207-0.001l-14.45-14.449-9.587 9.587c-1.162 1.162-3.045 1.162-4.208 0-1.161-1.161-1.161-3.044 0.001-4.207l11.611-11.611c0.602-0.602 1.397-0.885 2.184-0.864 0.788-0.02 1.582 0.263 2.182 0.864l16.474 16.473c1.162 1.162 1.162 3.045 0 4.208" fill="#00a999"/><path id="path180" d="m509.83 108.5h58v75.75h-58v-75.75z" fill="#0b8e7d"/><path id="path182" d="m530.02 84.885c-36.393 6.364-60.73 41.037-54.363 77.427 6.366 36.394 41.026 60.731 77.417 54.364 36.393-6.364 60.733-41.024 54.365-77.415-6.365-36.393-41.027-60.743-77.419-54.376zm125.96 52.726c0.459 2.619-1.241 5.285-3.811 5.961l-4.993 1.304c-2.559 0.684-4.526 3.384-4.537 6.04-0.001 5.912-0.515 11.749-1.541 17.451-0.46 2.603 1.006 5.608 3.402 6.721l4.689 2.181c2.395 1.115 3.61 4.043 2.7 6.535l-4.632 12.697c-0.921 2.483-3.726 3.936-6.285 3.243l-4.999-1.365c-2.56-0.692-5.622 0.651-6.946 2.954-2.936 5.046-6.297 9.836-10.058 14.323-1.702 2.036-1.942 5.362-0.408 7.535l2.966 4.24c1.524 2.172 1.109 5.314-0.925 7.014l-10.36 8.667c-2.036 1.7-5.201 1.552-7.067-0.334l-3.627-3.661c-1.878-1.886-5.189-2.245-7.49-0.918-5.016 2.891-10.32 5.354-15.892 7.376-2.485 0.899-4.357 3.665-4.119 6.314l0.449 5.144c0.234 2.649-1.693 5.164-4.303 5.62l-13.312 2.328c-2.609 0.456-5.276-1.253-5.951-3.825l-1.315-4.994c-0.676-2.57-3.376-4.54-6.03-4.537-5.915-0.014-11.752-0.526-17.451-1.541-2.616-0.47-5.619 0.993-6.733 3.403l-2.171 4.675c-1.124 2.409-4.053 3.623-6.534 2.713l-12.684-4.635c-2.492-0.909-3.949-3.724-3.242-6.286l1.349-5.008c0.694-2.561-0.66-5.606-2.941-6.948-5.058-2.932-9.859-6.295-14.337-10.056-2.024-1.704-5.358-1.929-7.523-0.421l-4.248 2.982c-2.175 1.52-5.315 1.12-7.016-0.916l-8.665-10.359c-1.7-2.034-1.553-5.203 0.334-7.067l3.659-3.64c1.877-1.863 2.234-5.185 0.916-7.478-2.888-5.017-5.363-10.329-7.371-15.891-0.902-2.497-3.668-4.368-6.319-4.142l-5.152 0.471c-2.638 0.235-5.151-1.691-5.608-4.313l-2.327-13.3c-0.46-2.622 1.252-5.276 3.81-5.963l4.995-1.312c2.57-0.689 4.537-3.377 4.536-6.031 0.014-5.916 0.538-11.755 1.555-17.443 0.459-2.614-1.003-5.605-3.402-6.732l-4.678-2.181c-2.409-1.115-3.621-4.03-2.711-6.524l4.633-12.685c0.907-2.502 3.724-3.947 6.286-3.252l4.997 1.35c2.561 0.695 5.608-0.649 6.943-2.95 2.935-5.0598 6.31-9.852 10.074-14.317 1.69-2.034 1.93-5.3601 0.408-7.5332l-2.968-4.2386c-1.534-2.1723-1.119-5.3153 0.912-7.0293l10.362-8.6528c2.022-1.7094 5.189-1.5621 7.066 0.3227l3.626 3.6633c1.866 1.8859 5.188 2.2437 7.49 0.9128 5.016-2.8871 10.33-5.3648 15.893-7.3718 2.494-0.9133 4.366-3.6801 4.132-6.316l-0.458-5.1313c-0.238-2.6469 1.689-5.1629 4.3-5.6187l13.312-2.327c2.61-0.457 5.277 1.2539 5.952 3.825l1.324 4.9777c0.673 2.5602 3.372 4.527 6.017 4.5422 5.927-0.0019 11.754 0.525 17.453 1.5399 2.617 0.4691 5.608-0.9942 6.734-3.4039l2.168-4.677c1.115-2.4062 4.044-3.6211 6.535-2.7012l12.688 4.6352c2.491 0.9078 3.946 3.725 3.253 6.2848l-1.355 4.9851c-0.705 2.5629 0.649 5.607 2.943 6.9461 5.07 2.932 9.858 6.2961 14.336 10.059 2.026 1.7117 5.36 1.9398 7.533 0.416l4.231-2.9629c2.172-1.5242 5.301-1.1191 7.014 0.9246l8.665 10.361c1.702 2.0347 1.555 5.2-0.322 7.0527l-3.672 3.6402c-1.873 1.875-2.234 5.186-0.915 7.4909 2.897 5.001 5.363 10.318 7.383 15.879 0.913 2.493 3.665 4.356 6.316 4.131l5.141-0.461c2.653-0.223 5.151 1.693 5.61 4.317l2.314 13.301" fill="#00a999"/><path id="path184" d="m513.25 111.5h51.5v68.5h-51.5v-68.5z" fill="#fff"/></g><g fill="#a7e3f6"><path id="path186" d="m520.12 166.88h37.75v2.25h-37.75v-2.25z"/><path id="path188" d="m520.12 156.88h37.75v2.25h-37.75v-2.25z"/><path id="path190" d="m520.12 146.88h37.75v2.25h-37.75v-2.25z"/><path id="path192" d="m520.12 136.88h37.75v2.25h-37.75v-2.25z"/><path id="path194" d="m520.12 126.88h37.75v2.25h-37.75v-2.25z"/></g><path id="path196" d="m547.62 122.62 4.781-4.781 5.782 5.781" stroke="#00a999" stroke-miterlimit="10" fill="none"/><path id="path198" d="m552.65 179.92c0 0.636-0.515 1.151-1.151 1.151h-25.332c-0.636 0-1.151-0.515-1.151-1.151s0.515-1.151 1.151-1.151h25.332c0.636 0 1.151 0.515 1.151 1.151" fill="#0b8e7d"/></g></g></g></svg>
