<?xml version="1.0" encoding="UTF-8" standalone="no"?>
<svg id="svg2" xmlns:rdf="http://www.w3.org/1999/02/22-rdf-syntax-ns#" xmlns="http://www.w3.org/2000/svg" xml:space="preserve" height="400" viewBox="0 0 500 500" width="500" version="1.1" xmlns:cc="http://creativecommons.org/ns#" xmlns:dc="http://purl.org/dc/elements/1.1/"><metadata id="metadata8"><rdf:RDF><cc:Work rdf:about=""><dc:format>image/svg+xml</dc:format><dc:type rdf:resource="http://purl.org/dc/dcmitype/StillImage"/><dc:title/></cc:Work></rdf:RDF></metadata><g id="g10" transform="matrix(1.25,0,0,-1.25,0,500)"><g id="g4498" transform="matrix(1.1397 0 0 1.277 -492.23 -572.47)"><path id="path114" d="m574.93 706.91c-2.78 0-5.42-0.584-7.817-1.623-2.272 10.314-11.451 18.033-22.444 18.033-12.177 0-22.118-9.471-22.92-21.445-8.757-0.938-15.577-8.346-15.577-17.353 0-9.643 7.816-17.459 17.459-17.459 1.445 0 2.844 0.196 4.187 0.526h47.112c10.858 0 19.66 8.804 19.66 19.663 0 10.858-8.802 19.658-19.66 19.658" fill="#cbcbcb"/><path id="path116" d="m491.95 637.37c-4.077 0-7.383 3.305-7.383 7.382 0 4.079 3.306 7.384 7.383 7.384s7.382-3.305 7.382-7.384c0-4.077-3.305-7.382-7.382-7.382zm15.117 3.277 5.029 1.22v5.773l-5.029 1.219c-0.344 1.274-0.854 2.507-1.526 3.678l2.697 4.421-4.084 4.084-4.421-2.697c-1.169 0.671-2.403 1.181-3.676 1.524l-1.221 5.031h-5.773l-1.219-5.029c-1.275-0.345-2.507-0.855-3.678-1.526l-4.421 2.695-4.083-4.082 2.696-4.421c-0.67-1.171-1.182-2.404-1.526-3.678l-5.029-1.219v-5.773l5.029-1.223c0.344-1.271 0.856-2.504 1.526-3.675l-2.696-4.421 4.083-4.084 4.421 2.697c1.171-0.671 2.403-1.182 3.678-1.526l1.219-5.03h5.773l1.221 5.03c1.273 0.344 2.507 0.855 3.676 1.526l4.421-2.694 4.082 4.081-2.695 4.421c0.672 1.171 1.182 2.404 1.526 3.678" fill="#00658c"/><path id="path118" d="m713.57 679.12c6.434-11.177 2.589-25.454-8.586-31.888s-25.454-2.591-31.886 8.585c-6.437 11.177-2.59 25.454 8.586 31.888 11.174 6.435 25.452 2.59 31.886-8.585zm-33.493 30.127-16.216-9.338 5.616-9.753c-1.598-1.681-3.016-3.499-4.205-5.441l-10.854 2.923-4.861-18.069 10.851-2.92c0.054-2.28 0.364-4.56 0.905-6.821l-9.757-5.615 9.337-16.216 9.754 5.613c1.683-1.596 3.501-3.011 5.443-4.201l-2.923-10.855 18.067-4.865 2.922 10.854c2.278 0.054 4.561 0.363 6.821 0.902l5.615-9.753 16.215 9.333-5.615 9.756c1.599 1.682 3.011 3.499 4.207 5.445l10.849-2.926 4.867 18.07-10.853 2.923c-0.055 2.277-0.365 4.558-0.904 6.816l9.753 5.619-9.336 16.214-9.753-5.615c-1.683 1.6-3.499 3.012-5.443 4.205l2.921 10.851-18.068 4.865-2.92-10.851c-2.281-0.056-4.561-0.366-6.819-0.903l-5.616 9.753" fill="#006585"/><path id="path120" d="m677.07 658.11c5.16-8.962 16.653-12.058 25.619-6.898 8.967 5.165 12.061 16.656 6.899 25.621-5.162 8.967-16.654 12.061-25.619 6.899-8.968-5.164-12.063-16.655-6.899-25.622zm40.471 23.301c7.686-13.348 3.077-30.465-10.273-38.15-13.351-7.687-30.47-3.08-38.155 10.27-7.685 13.352-3.076 30.465 10.277 38.154 13.35 7.684 30.463 3.078 38.151-10.274" fill="#007daa"/><path id="path122" d="m509.95 560.56c6.891-6.892 6.893-18.062 0.003-24.949-6.889-6.888-18.059-6.888-24.95 0-6.888 6.887-6.888 18.059 0 24.949 6.891 6.885 18.058 6.885 24.947 0zm-50.379 38.11-12.679-12.68 8.371-13.731c-2.08-3.636-3.669-7.468-4.738-11.421l-15.619-3.788-0.003-17.932 15.622-3.791c1.069-3.949 2.658-7.784 4.738-11.416l-8.371-13.732 12.681-12.684 13.731 8.374c3.636-2.083 7.466-3.668 11.422-4.738l3.785-15.619h17.931l3.791 15.619c3.954 1.067 7.787 2.655 11.42 4.738l13.733-8.369 12.678 12.679-8.372 13.732c2.084 3.636 3.668 7.464 4.739 11.419l15.622 3.788-0.003 17.932-15.617 3.788c-1.071 3.957-2.657 7.788-4.739 11.421l8.372 13.731-12.68 12.685-13.733-8.376c-3.633 2.081-7.466 3.669-11.42 4.735l-3.791 15.624h-17.929l-3.787-15.619c-3.956-1.071-7.786-2.659-11.422-4.74l-13.733 8.371" fill="#006585"/><path id="path124" d="m507.8 558.41c5.695-5.693 5.695-14.963 0.002-20.658-5.696-5.692-14.962-5.692-20.658 0-5.694 5.698-5.694 14.965 0 20.658 5.695 5.691 14.96 5.697 20.656 0zm-24.201-24.202c7.649-7.648 20.096-7.648 27.746 0 7.648 7.647 7.648 20.097 0 27.746-7.65 7.65-20.097 7.647-27.745 0-7.648-7.649-7.651-20.099-0.001-27.746" fill="#007daa"/><path id="path126" d="m515.64 566.24c10.015-10.013 10.015-26.307-0.003-36.326-10.018-10.016-26.309-10.016-36.326 0-10.019 10.019-10.019 26.311 0 36.326 10.017 10.019 26.312 10.021 36.329 0zm-41.085-41.083c12.638-12.64 33.206-12.636 45.841 0 12.638 12.641 12.638 33.202-0.002 45.843-12.636 12.635-33.201 12.638-45.839 0.002-12.637-12.641-12.639-33.209 0-45.845" fill="#007dab"/><path id="path128" d="m511.35 561.95c7.648-7.649 7.648-20.099 0-27.746-7.65-7.648-20.097-7.648-27.746 0-7.65 7.647-7.647 20.097 0.001 27.746 7.648 7.647 20.095 7.65 27.745 0zm-32.037-32.036c10.017-10.016 26.308-10.016 36.326 0 10.018 10.019 10.018 26.313 0.003 36.326-10.017 10.021-26.312 10.019-36.329 0-10.019-10.015-10.019-26.307 0-36.326" fill="#00658c"/><path id="path130" d="m699.96 566.93c6.935-6.933 6.935-18.173 0-25.11-6.934-6.935-18.178-6.935-25.11 0-6.935 6.934-6.935 18.177 0 25.11 6.934 6.936 18.176 6.936 25.11 0zm-57.673 52.204-19.639-19.638 7.482-12.518c-2.75-4.823-4.838-9.917-6.272-15.155l-14.146-3.56v-27.775l14.146-3.558c1.434-5.24 3.522-10.332 6.272-15.157l-7.482-12.514 19.639-19.64 12.513 7.483c4.822-2.746 9.917-4.839 15.156-6.272l3.561-14.146h27.772l3.562 14.143c5.239 1.436 10.332 3.524 15.158 6.275l12.513-7.483 19.638 19.64-7.482 12.514c2.749 4.825 4.839 9.917 6.274 15.157l14.145 3.56v27.773l-14.147 3.56c-1.434 5.238-3.524 10.334-6.272 15.158l7.482 12.513-19.64 19.64-12.513-7.485c-4.824 2.753-9.92 4.838-15.156 6.277l-3.562 14.139h-27.772l-3.561-14.142c-5.236-1.436-10.33-3.523-15.156-6.274l-12.513 7.485" fill="#007dab"/><path id="path132" d="m672.26 539.23c8.351-8.353 21.944-8.353 30.296-0.002 8.351 8.354 8.351 21.947-0.002 30.299-8.352 8.351-21.94 8.349-30.294-0.002-8.355-8.352-8.355-21.943 0-30.295zm38.589 38.589c12.925-12.923 12.929-33.957 0-46.883-12.925-12.927-33.961-12.929-46.887 0-12.929 12.923-12.926 33.96 0.002 46.885 12.926 12.927 33.957 12.927 46.885-0.002" fill="#96b3c6"/><path id="path134" d="m675.54 542.51c6.543-6.542 17.188-6.54 23.73 0 6.541 6.542 6.541 17.188 0 23.727-6.541 6.542-17.187 6.542-23.727 0-6.545-6.539-6.545-17.188-0.003-23.727zm25.112 25.111c7.305-7.304 7.303-19.191 0-26.493-7.304-7.307-19.189-7.307-26.494 0-7.304 7.302-7.304 19.189 0 26.493 7.305 7.305 19.19 7.305 26.494 0" fill="#00658c"/><path id="path136" d="m662.06 529.03c13.974-13.974 36.712-13.977 50.689 0 13.973 13.973 13.976 36.716 0 50.691-13.975 13.975-36.715 13.975-50.689 0-13.976-13.978-13.975-36.715 0-50.691zm53.455 53.454c15.499-15.5 15.499-40.721 0-56.216-15.5-15.5-40.721-15.5-56.22 0-15.499 15.497-15.499 40.716 0.001 56.216 15.498 15.497 40.719 15.497 56.219 0" fill="#006690"/><path id="path138" d="m546 673.3c3.222-3.221 3.222-8.443 0-11.662-3.22-3.221-8.441-3.221-11.661 0-3.222 3.219-3.222 8.441 0 11.662 3.221 3.221 8.441 3.221 11.661 0zm-26.784 24.244-9.121-9.12 3.474-5.815c-1.276-2.24-2.246-4.604-2.912-7.037l-6.569-1.653v-12.9l6.569-1.652c0.666-2.435 1.636-4.8 2.912-7.042l-3.474-5.809 9.121-9.122 5.81 3.475c2.241-1.275 4.607-2.247 7.04-2.913l1.654-6.569h12.898l1.654 6.569c2.434 0.666 4.799 1.635 7.04 2.913l5.812-3.475 9.12 9.122-3.475 5.809c1.277 2.242 2.248 4.607 2.914 7.042l6.568 1.654v12.898l-6.57 1.653c-0.666 2.433-1.635 4.799-2.912 7.039l3.475 5.811-9.122 9.122-5.81-3.477c-2.241 1.279-4.608 2.247-7.04 2.916l-1.654 6.566h-12.898l-1.654-6.569c-2.432-0.666-4.797-1.634-7.04-2.913l-5.81 3.477" fill="#007dab"/><path id="path140" d="m533.13 660.43c3.878-3.879 10.191-3.879 14.069-0.002 3.88 3.881 3.88 10.194 0 14.073-3.879 3.878-10.189 3.878-14.069-0.002s-3.88-10.19 0-14.069zm17.923 17.922c6.002-6.004 6.003-15.771 0-21.773-6.004-6.005-15.774-6.005-21.776 0-6.005 6.002-6.004 15.769 0 21.773 6.004 6.005 15.771 6.005 21.776 0" fill="#96b3c6"/><path id="path142" d="m534.66 661.96c3.039-3.038 7.983-3.038 11.02 0 3.039 3.037 3.039 7.981 0 11.02-3.037 3.04-7.981 3.04-11.018 0-3.041-3.039-3.041-7.983-0.002-11.02zm11.662 11.662c3.393-3.392 3.393-8.913 0-12.305-3.391-3.392-8.912-3.392-12.304 0s-3.392 8.913 0 12.305 8.913 3.392 12.304 0" fill="#00658c"/><path id="path144" d="m528.4 655.7c6.491-6.49 17.049-6.49 23.541 0 6.489 6.49 6.491 17.05 0 23.543-6.49 6.49-17.05 6.49-23.541 0-6.49-6.493-6.49-17.053 0-23.543zm24.826 24.826c7.197-7.199 7.197-18.913 0-26.109-7.199-7.198-18.911-7.198-26.111 0-7.197 7.196-7.197 18.91 0.002 26.109 7.198 7.197 18.91 7.197 26.109 0" fill="#006690"/><path id="path146" d="m560.45 487.45h78.602v25.907h-78.602v-25.907z" fill="#cbcbcb"/><path id="path148" d="m550.37 487.45h98.762v6.0992h-98.762v-6.0992z" fill="#f1f1f1"/><path id="path150" d="m702.03 514.87c0-3.366-2.73-6.096-6.095-6.096h-192.36c-3.368 0-6.097 2.73-6.097 6.096v136.96c0 3.366 2.729 6.094 6.097 6.094h192.36c3.365 0 6.095-2.728 6.095-6.094v-136.96" fill="#f1f1f1"/><path id="path152" d="m702.03 528.1v123.72c0 3.366-2.73 6.094-6.095 6.094h-192.36c-3.368 0-6.097-2.728-6.097-6.094v-123.72h204.55"/><path id="path154" d="m506.18 533.25h187.16v115.97h-187.16v-115.97z" fill="#00445c"/><path id="path156" d="m506.18 639.56h187.16v9.6641h-187.16v-9.6641z" fill="#cbcbcb"/><path id="path158" d="m530.12 642.15h139.27v4.4711h-139.27v-4.4711z" fill="#f1f1f1"/><path id="path160" d="m512.56 644.39c0-1.234-1.002-2.236-2.238-2.236-1.233 0-2.233 1.002-2.233 2.236s1 2.235 2.233 2.235c1.236 0 2.238-1.001 2.238-2.235" fill="#ff1d25"/><path id="path162" d="m518.95 644.39c0-1.234-1.001-2.236-2.236-2.236-1.233 0-2.234 1.002-2.234 2.236s1.001 2.235 2.234 2.235c1.235 0 2.236-1.001 2.236-2.235" fill="#fbed21"/><path id="path164" d="m525.33 644.39c0-1.234-1.001-2.236-2.232-2.236-1.235 0-2.237 1.002-2.237 2.236s1.002 2.235 2.237 2.235c1.231 0 2.232-1.001 2.232-2.235" fill="#8bc53f"/><g fill="#808080"><path id="path166" d="m671.65 646.06h10.471v0.56719h-10.471v-0.56719z"/><path id="path168" d="m671.65 644.75h10.471v0.57031h-10.471v-0.57031z"/><path id="path170" d="m671.65 643.45h10.471v0.56992h-10.471v-0.56992z"/><path id="path172" d="m671.65 642.15h10.471v0.56914h-10.471v-0.56914z"/><path id="path174" d="m684.5 642.15h5.8121v4.4711h-5.8121v-4.4711z"/></g><path id="path176" d="m604.52 517.55c0-2.635-2.135-4.769-4.768-4.769-2.632 0-4.767 2.134-4.767 4.769 0 2.632 2.135 4.763 4.767 4.763 2.633 0 4.768-2.131 4.768-4.763"/><path id="path178" d="m523.22 533.25h153.06v106.3h-153.06v-106.3z" fill="#f1f1f1"/><path id="path180" d="m628.1 604.21h41.445v24.683h-41.445v-24.683z" fill="#ff8756"/><path id="path182" d="m529.96 604.21h90.516v24.683h-90.516v-24.683z" fill="#9ed9a5"/><path id="path184" d="m529.96 551.57h139.43v24.683h-139.43v-24.683z" fill="#facc5d"/><g fill="#4d4d4d"><path id="path186" d="m628.1 599.92h41.445v1.1762h-41.445v-1.1762z"/><path id="path188" d="m628.1 596.81h41.445v1.1758h-41.445v-1.1758z"/><path id="path190" d="m628.1 593.71h41.445v1.175h-41.445v-1.175z"/><path id="path192" d="m628.1 590.61h41.445v1.175h-41.445v-1.175z"/><path id="path194" d="m628.1 587.5h41.445v1.1762h-41.445v-1.1762z"/><path id="path196" d="m628.1 584.4h41.445v1.175h-41.445v-1.175z"/><path id="path198" d="m628.1 581.29h41.445v1.175h-41.445v-1.175z"/><path id="path200" d="m529.96 599.92h90.516v1.1762h-90.516v-1.1762z"/><path id="path202" d="m529.96 596.81h90.516v1.1758h-90.516v-1.1758z"/><path id="path204" d="m529.96 593.71h90.516v1.175h-90.516v-1.175z"/><path id="path206" d="m529.96 590.61h90.516v1.175h-90.516v-1.175z"/><path id="path208" d="m529.96 587.5h90.516v1.1762h-90.516v-1.1762z"/><path id="path210" d="m529.96 584.4h90.516v1.175h-90.516v-1.175z"/><path id="path212" d="m529.96 581.29h90.516v1.175h-90.516v-1.175z"/><path id="path214" d="m529.96 546.9h139.43v1.177h-139.43v-1.177z"/><path id="path216" d="m529.96 543.8h139.43v1.173h-139.43v-1.173z"/><path id="path218" d="m529.96 540.69h139.43v1.173h-139.43v-1.173z"/></g><path id="path220" d="m606.15 698.27c-1.864 0-3.633-0.392-5.24-1.089-1.523 6.915-7.677 12.09-15.048 12.09-8.164 0-14.828-6.35-15.366-14.376-5.87-0.632-10.443-5.597-10.443-11.637 0-6.465 5.239-11.705 11.704-11.705 0.971 0 1.907 0.132 2.808 0.354h31.585c7.281 0 13.181 5.902 13.181 13.183 0 7.278-5.9 13.18-13.181 13.18" fill="#f1f1f1"/><path id="path222" d="m596.8 668.82v9.507h-15.764v-9.507h-2.422l10.304-12.206 10.304 12.206h-2.422" fill="#ff8756"/></g></g></svg>
