<?xml version="1.0" encoding="UTF-8" standalone="no"?>
<svg
   xmlns:dc="http://purl.org/dc/elements/1.1/"
   xmlns:cc="http://creativecommons.org/ns#"
   xmlns:rdf="http://www.w3.org/1999/02/22-rdf-syntax-ns#"
   xmlns:svg="http://www.w3.org/2000/svg"
   xmlns="http://www.w3.org/2000/svg"
   xmlns:sodipodi="http://sodipodi.sourceforge.net/DTD/sodipodi-0.dtd"
   xmlns:inkscape="http://www.inkscape.org/namespaces/inkscape"
   height="243.735"
   viewBox="0 0 286.2908 183.73456"
   width="286.291"
   id="svg2"
   version="1.1"
   inkscape:version="0.91 r13725"
   sodipodi:docname="The-irony-of-building-your-own-websitepreview.svg">
  <metadata
     id="metadata222">
    <rdf:RDF>
      <cc:Work
         rdf:about="">
        <dc:format>image/svg+xml</dc:format>
        <dc:type
           rdf:resource="http://purl.org/dc/dcmitype/StillImage" />
        <dc:title></dc:title>
      </cc:Work>
    </rdf:RDF>
  </metadata>
  <sodipodi:namedview
     pagecolor="#ffffff"
     bordercolor="#666666"
     borderopacity="1"
     objecttolerance="10"
     gridtolerance="10"
     guidetolerance="10"
     inkscape:pageopacity="0"
     inkscape:pageshadow="2"
     inkscape:window-width="1301"
     inkscape:window-height="744"
     id="namedview220"
     showgrid="false"
     inkscape:zoom="0.96826471"
     inkscape:cx="143.14549"
     inkscape:cy="121.8675"
     inkscape:window-x="65"
     inkscape:window-y="24"
     inkscape:window-maximized="1"
     inkscape:current-layer="svg2" />
  <defs
     id="defs4">
    <clipPath
       id="a">
      <path
         d="M5900 2420h290v2790h-290V2420z"
         id="path7" />
    </clipPath>
    <clipPath
       id="b">
      <path
         d="M1775.1 2438.9l-774.7 865.7 1463.8 1310.1-689.1-2175.8z"
         id="path10" />
    </clipPath>
  </defs>
  <g
     id="g4189"
     transform="matrix(1.0090365,0,0,0.97547305,12.38071,165.6577)">
    <g
       id="g4265"
       transform="matrix(3.0508,0,0,3.0847,35.39,-165.15)">
      <rect
         id="rect3"
         height="58"
         width="58"
         y="0"
         x="0"
         style="fill:#ecf0f1" />
      <rect
         id="rect5"
         height="12"
         width="58"
         y="0"
         x="0"
         style="fill:#546a79" />
      <circle
         id="circle7"
         cy="6"
         cx="6"
         r="3"
         style="fill:#ed7161" />
      <circle
         id="circle9"
         cy="6"
         cx="15"
         r="3"
         style="fill:#f0c419" />
      <circle
         id="circle11"
         cy="6"
         cx="24"
         r="3"
         style="fill:#4fba6f" />
      <rect
         id="rect13"
         height="12"
         width="48"
         y="17"
         x="5"
         style="fill:#556080" />
      <g
         id="g12"
         style="fill:#bdc3c7">
        <rect
           id="rect15"
           height="10"
           width="22"
           y="34"
           x="31" />
        <path
           id="path17"
           d="m 53,49 -22,0 c -0.552,0 -1,-0.448 -1,-1 0,-0.552 0.448,-1 1,-1 l 22,0 c 0.552,0 1,0.448 1,1 0,0.552 -0.448,1 -1,1 z"
           inkscape:connector-curvature="0" />
        <path
           id="path19"
           d="m 53,53 -22,0 c -0.552,0 -1,-0.448 -1,-1 0,-0.552 0.448,-1 1,-1 l 22,0 c 0.552,0 1,0.448 1,1 0,0.552 -0.448,1 -1,1 z"
           inkscape:connector-curvature="0" />
        <rect
           id="rect21"
           height="10"
           width="22"
           y="34"
           x="5" />
        <path
           id="path23"
           d="M 27,49 5,49 C 4.448,49 4,48.552 4,48 4,47.448 4.448,47 5,47 l 22,0 c 0.552,0 1,0.448 1,1 0,0.552 -0.448,1 -1,1 z"
           inkscape:connector-curvature="0" />
        <path
           id="path25"
           d="M 27,53 5,53 C 4.448,53 4,52.552 4,52 4,51.448 4.448,51 5,51 l 22,0 c 0.552,0 1,0.448 1,1 0,0.552 -0.448,1 -1,1 z"
           inkscape:connector-curvature="0" />
      </g>
    </g>
    <g
       id="g4279"
       transform="matrix(1.4838,0,0,1.4498,0.26053,150.06)">
      <path
         id="path22"
         d="m 118.12,-115.19 17.599,0 0,1.1108 -17.599,0 0,-1.1108 z m 0,2.7065 12.467,0 0,1.111 -12.467,0 0,-1.111 z m 0,-5.4119 17.599,0 0,1.1108 -17.599,0 0,-1.1108"
         inkscape:connector-curvature="0"
         style="fill:#eff4f4" />
      <path
         id="path26"
         d="m 115.54,-121.78 22.75,0 0,-18.734 -22.75,0 0,18.734 z"
         inkscape:connector-curvature="0"
         style="fill:#eff4f4" />
      <path
         id="path42"
         d="m 122.39,-147.85 c 15.15,0 27.43,12.721 27.43,28.413 0,15.692 -12.281,28.413 -27.43,28.413 -15.149,0 -27.43,-12.721 -27.43,-28.413 0,-15.692 12.281,-28.413 27.43,-28.413"
         inkscape:connector-curvature="0"
         style="fill:#f7d132" />
      <path
         id="path44"
         d="m 122.39,-145.5 c 13.892,0 25.154,11.665 25.154,26.056 0,14.39 -11.262,26.055 -25.154,26.055 -13.892,0 -25.154,-11.665 -25.154,-26.055 0,-14.39 11.262,-26.056 25.154,-26.056"
         inkscape:connector-curvature="0"
         style="fill:#556080" />
      <path
         id="path46"
         d="m 122.39,-144.37 c 13.292,0 24.067,11.162 24.067,24.93 0,13.768 -10.775,24.93 -24.067,24.93 -13.292,0 -24.067,-11.162 -24.067,-24.93 0,-13.768 10.775,-24.93 24.067,-24.93"
         inkscape:connector-curvature="0"
         style="fill:#ffffff" />
      <path
         id="path48"
         d="m 118.15,-118.9 4.2426,-16.554 4.2427,16.553 c -0.989,-1.299 -2.5216,-2.1321 -4.2416,-2.1321 -1.721,0 -3.2546,0.83425 -4.2425,2.133 l -0.001,0"
         inkscape:connector-curvature="0"
         style="fill:#f03f5c" />
      <path
         id="path50"
         d="m 122.39,-121.04 c 2.982,0 5.3995,2.5041 5.3995,5.5928 0,3.089 -2.4174,5.593 -5.3995,5.593 -2.9819,0 -5.3993,-2.504 -5.3993,-5.593 0,-3.0887 2.4174,-5.5928 5.3993,-5.5928"
         inkscape:connector-curvature="0"
         style="fill:#eff4f4" />
      <path
         id="path52"
         d="m 122.39,-119.55 c 2.188,0 3.9618,1.8373 3.9618,4.1038 0,2.2665 -1.7738,4.1038 -3.9618,4.1038 -2.1881,0 -3.9618,-1.8373 -3.9618,-4.1038 0,-2.2665 1.7738,-4.1038 3.9618,-4.1038"
         inkscape:connector-curvature="0"
         style="fill:#59c7b6" />
      <path
         id="path54"
         d="m 115.59,-106.61 13.61,0 c 0.86939,0 1.574,0.73016 1.574,1.6307 0,0.90048 -0.70466,1.6304 -1.574,1.6304 l -13.61,0 c -0.86937,0 -1.574,-0.72995 -1.574,-1.6304 -1.8e-4,-0.90052 0.70443,-1.6307 1.574,-1.6307"
         inkscape:connector-curvature="0"
         style="fill:#eff4f4" />
      <path
         id="path56"
         d="m 109.42,-137.36 0.52189,-0.39265 1.0365,1.4776 -0.52165,0.39265 -1.0367,-1.4776 z m -4.7096,5.0266 0.37992,-0.54061 1.4265,1.0727 -0.37992,0.54037 -1.4265,-1.0736 0,0.001 z m -2.9799,6.2884 0.1993,-0.63626 1.6765,0.56417 -0.1993,0.63626 -1.6765,-0.56417 z m 37.952,-6.8292 0.37906,0.54059 -1.4265,1.0736 -0.37906,-0.54036 1.4265,-1.0727 0,-10e-4 z m -4.8529,-4.8784 0.52189,0.39265 -1.0356,1.4776 -0.52167,-0.39265 1.0365,-1.4776 -0.001,0 z m -6.0708,-3.0867 0.61424,0.20668 -0.54466,1.7363 -0.61423,-0.20645 0.54465,-1.7366 z m 14.084,14.159 0.19951,0.63603 -1.6765,0.5644 -0.1993,-0.63626 1.6763,-0.56417 z m -27.442,-13.953 0.61402,-0.20668 0.54465,1.7366 -0.61402,0.20645 -0.54465,-1.7363"
         inkscape:connector-curvature="0"
         style="fill:#59c7b6" />
      <path
         id="path58"
         d="m 140.33,-120.04 3.5235,0 0,1.2031 -3.5235,0 0,-1.2031 z m -39.397,0 3.5235,0 0,1.2031 -3.5235,0 0,-1.2031"
         inkscape:connector-curvature="0"
         style="fill:#f03f5c" />
      <path
         id="path60"
         d="m 121.81,-138.02 1.1615,0 0,-3.6498 -1.1615,0 0,3.6498 z"
         inkscape:connector-curvature="0"
         style="fill:#f03f5c" />
    </g>
  </g>
</svg>
