<?xml version="1.0" encoding="UTF-8" standalone="no"?>
<!-- Generator: Adobe Illustrator 19.0.0, SVG Export Plug-In . SVG Version: 6.00 Build 0)  -->
<svg xmlns:rdf="http://www.w3.org/1999/02/22-rdf-syntax-ns#" xmlns="http://www.w3.org/2000/svg" xml:space="preserve" viewBox="0 0 774.2 210" height="300" width="1106" version="1.1" y="0px" x="0px" xmlns:cc="http://creativecommons.org/ns#" xmlns:dc="http://purl.org/dc/elements/1.1/"><metadata><rdf:RDF><cc:Work rdf:about=""><dc:format>image/svg+xml</dc:format><dc:type rdf:resource="http://purl.org/dc/dcmitype/StillImage"/><dc:title/></cc:Work></rdf:RDF></metadata><g transform="matrix(.86926 0 0 .90693 293.82 169.53)"><g transform="matrix(3.0508,0,0,3.0847,35.39,-165.15)"><rect height="58" width="58" y="0" x="0" fill="#ecf0f1"/><rect height="12" width="58" y="0" x="0" fill="#546a79"/><circle cy="6" cx="6" r="3" fill="#ed7161"/><circle cy="6" cx="15" r="3" fill="#f0c419"/><circle cy="6" cx="24" r="3" fill="#4fba6f"/><rect height="12" width="48" y="17" x="5" fill="#556080"/><g fill="#bdc3c7"><rect y="34" width="22" x="31" height="10"/><path d="m53 49h-22c-0.552 0-1-0.448-1-1s0.448-1 1-1h22c0.552 0 1 0.448 1 1s-0.448 1-1 1z"/><path d="m53 53h-22c-0.552 0-1-0.448-1-1s0.448-1 1-1h22c0.552 0 1 0.448 1 1s-0.448 1-1 1z"/><rect y="34" width="22" x="5" height="10"/><path d="m27 49h-22c-0.552 0-1-0.448-1-1s0.448-1 1-1h22c0.552 0 1 0.448 1 1s-0.448 1-1 1z"/><path d="m27 53h-22c-0.552 0-1-0.448-1-1s0.448-1 1-1h22c0.552 0 1 0.448 1 1s-0.448 1-1 1z"/></g></g><g transform="matrix(1.4838 0 0 1.4498 .26053 150.06)"><path fill="#eff4f4" d="m118.12-115.19h17.599v1.1108h-17.6zm0 2.7065h12.467v1.111h-12.47zm0-5.4119h17.599v1.1108h-17.6v-1.1108"/><path fill="#eff4f4" d="m115.54-121.78h22.75v-18.734h-22.75z"/><path fill="#f7d132" d="m122.39-147.85c15.15 0 27.43 12.721 27.43 28.413s-12.281 28.413-27.43 28.413-27.43-12.721-27.43-28.413 12.281-28.413 27.43-28.413"/><path fill="#556080" d="m122.39-145.5c13.892 0 25.154 11.665 25.154 26.056 0 14.39-11.262 26.055-25.154 26.055s-25.154-11.665-25.154-26.055 11.262-26.056 25.154-26.056"/><path fill="#fff" d="m122.39-144.37c13.292 0 24.067 11.162 24.067 24.93s-10.775 24.93-24.067 24.93-24.067-11.162-24.067-24.93 10.775-24.93 24.067-24.93"/><path fill="#f03f5c" d="m118.15-118.9 4.2426-16.554 4.2427 16.553c-0.989-1.299-2.5216-2.1321-4.2416-2.1321-1.721 0-3.2546 0.83425-4.2425 2.133h-0.001"/><path fill="#eff4f4" d="m122.39-121.04c2.982 0 5.3995 2.5041 5.3995 5.5928 0 3.089-2.4174 5.593-5.3995 5.593-2.9819 0-5.3993-2.504-5.3993-5.593 0-3.0887 2.4174-5.5928 5.3993-5.5928"/><path fill="#59c7b6" d="m122.39-119.55c2.188 0 3.9618 1.8373 3.9618 4.1038s-1.7738 4.1038-3.9618 4.1038c-2.1881 0-3.9618-1.8373-3.9618-4.1038s1.7738-4.1038 3.9618-4.1038"/><path fill="#eff4f4" d="m115.59-106.61h13.61c0.86939 0 1.574 0.73016 1.574 1.6307 0 0.90048-0.70466 1.6304-1.574 1.6304h-13.61c-0.86937 0-1.574-0.72995-1.574-1.6304-0.00018-0.90052 0.70443-1.6307 1.574-1.6307"/><path fill="#59c7b6" d="m109.42-137.36 0.52189-0.39265 1.0365 1.4776-0.52165 0.39265-1.0367-1.4776zm-4.7096 5.0266 0.37992-0.54061 1.4265 1.0727-0.37992 0.54037-1.4265-1.0736v0.001zm-2.9799 6.2884 0.1993-0.63626 1.6765 0.56417-0.1993 0.63626zm37.952-6.8292 0.37906 0.54059-1.4265 1.0736-0.37906-0.54036 1.4265-1.0727v-0.001zm-4.8529-4.8784 0.52189 0.39265-1.0356 1.4776-0.52167-0.39265 1.0365-1.4776h-0.001zm-6.0708-3.0867 0.61424 0.20668-0.54466 1.7363-0.61423-0.20645 0.54465-1.7366zm14.084 14.159 0.19951 0.63603-1.6765 0.5644-0.1993-0.63626 1.6763-0.56417zm-27.442-13.953 0.61402-0.20668 0.54465 1.7366-0.61402 0.20645-0.54465-1.7363"/><path fill="#f03f5c" d="m140.33-120.04h3.5235v1.2031h-3.52zm-39.397 0h3.5235v1.2031h-3.5235v-1.2031"/><path fill="#f03f5c" d="m121.81-138.02h1.1615v-3.6498h-1.16z"/></g></g></svg>
