<?xml version="1.0" encoding="UTF-8" standalone="no"?>
<svg id="svg2" xmlns:rdf="http://www.w3.org/1999/02/22-rdf-syntax-ns#" xmlns="http://www.w3.org/2000/svg" xml:space="preserve" height="500" viewBox="0 0 500 500" width="500" version="1.1" xmlns:cc="http://creativecommons.org/ns#" xmlns:dc="http://purl.org/dc/elements/1.1/"><metadata id="metadata8"><rdf:RDF><cc:Work rdf:about=""><dc:format>image/svg+xml</dc:format><dc:type rdf:resource="http://purl.org/dc/dcmitype/StillImage"/><dc:title/></cc:Work></rdf:RDF></metadata><path id="path14" fill-rule="evenodd" fill="#d67c32" d="m129.91 390.17 301.78 11.61 11.1-281.83-301.78-11.61-11.1 281.83z"/><path id="path16" fill-rule="evenodd" fill="#d67c32" d="m129.01 390.13 301.78 11.62 11.09-281.83-301.78-11.62-11.09 281.83z"/><g id="g8" fill="#ab6328" transform="matrix(.37726 .014517 .013868 -.35232 129.91 390.17)"><path id="path18" d="m566.9 554.13-283.64 245.79h5.046l270.39-234.32 187.14 215.95 10.364-8.982-189.3-218.45"/><path id="path20" d="m738.26 456.87c-4.767 0-9.467 2.247-12.38 6.435l-27.119 38.968v5.898l3.289 2.289-3.289 4.727v15.463l8.123 5.651 10.539-15.144 2.67 1.858 0.465 0.324 4.763 3.315 29.883-42.941c4.727-6.792 3.037-16.214-3.754-20.939l-4.631-3.224c-2.604-1.812-5.594-2.68-8.559-2.68m-39.499 45.403-2.766 3.974 2.766 1.924v-5.898m0 12.914-7.248 10.418 7.248 5.045v-15.463m-22.077 18.809-8.992 12.923c-4.726 6.792-3.037 16.214 3.754 20.941l4.633 3.222c2.604 1.812 5.594 2.681 8.558 2.681 4.767 0 9.467-2.248 12.382-6.436l1.742-2.506v-15.462l-17.311-12.046-4.766-3.317m22.077 15.363v15.462l7.25-10.417-4.766-3.316-2.484-1.729"/><path id="path22" d="m671.31 21.998c-5.341 0-10.756 0.4961-16.197 1.525-46.992 8.895-77.877 54.198-68.984 101.19 7.864 41.551 44.195 70.511 84.988 70.511 5.342 0 10.76-0.497 16.201-1.527 42.959-8.128 72.452-46.689 70.405-89.148l10.812-2.047c3.66-0.691 6.088-4.254 5.395-7.9141l-1.08-5.7027c-0.612-3.2403-3.474-5.5141-6.662-5.5141-0.413 0-0.832 0.0379-1.252 0.118l-10.282 1.9468c-10.43-37.726-44.9-63.435-83.34-63.436"/><path id="path24" d="m486.84 0h-17.94l212.02 429.35 14.42-7.12-208.5-422.23"/><path id="path26" d="m67.915 620.97c-1.4402 0-2.9949 0.68-4.3269 1.99v10.483c1.9156-0.942 4.0172-1.691 6.3422-2.216v-9.75c-0.6164-0.34-1.302-0.507-2.0153-0.507m2.0153 0.507v9.75c2.5191-0.568 5.3023-0.872 8.3957-0.872h0.1984c3.6781-1.37 7.9188-1.99 12.352-1.989 3.3961 0 6.9066 0.363 10.363 1.031v-4.556c-4.7498-0.964-8.9537-1.41-12.702-1.41-6.5516 0-11.707 1.364-15.927 3.709-0.0859-2.977-1.1777-4.833-2.6812-5.663m-6.3422 1.483c-1.0215 1.005-1.9121 2.379-2.5191 4.101-0.1997 0.566-0.4086 1.183-0.6223 1.845 1.1203 0.98 1.8863 2.682 1.9582 5.157 0.3867-0.215 0.7805-0.422 1.1832-0.62v-10.483m37.652 1.881v4.556c9.492 1.833 18.586 5.961 23.84 11.163 9.871 9.773 14.451 36.276 7.517 49.718-0.739-0.308-1.475-0.615-2.208-0.921 0.557 5.004 2.687 9.148 9.22 11.451 2.01 0.708 3.809 1.026 5.439 1.026 5.053 0 8.504-3.052 11.705-7.017-0.483 0.061-0.98 0.093-1.495 0.093-1.631 0-3.43-0.319-5.44-1.027-14.281-5.034-7.521-18.863-9.292-31.246-0.992-6.945-4.053-28.493-33.08-36.321-2.167-0.585-4.233-1.074-6.206-1.475m104.02 38.405c-2.502 0-4.845 0.238-7.029 0.651v4.854c1.477-0.446 2.916-0.752 4.29-0.893 0.88-0.091 1.791-0.135 2.73-0.135 8.67 0 19.657 3.772 28.338 9.695v-5.43c-2.505-1.415-5.296-2.804-8.4-4.169-7.514-3.305-14.148-4.573-19.929-4.573m-7.029 0.651c-9.256 1.749-15.669 6.647-19.391 9.952 4.216-2.027 9.398-3.575 15.578-3.674 1.291-0.569 2.565-1.047 3.813-1.424v-4.854m-158.06 0.148c-1.6168 0.868-2.7832 2.606-3.6645 4.785 1.1633-1.026 2.3145-2.593 3.6645-4.785m193.42 7.943v5.43c6.813 4.65 12.207 10.625 13.944 17.145 3.03 0.722 4.911 4.908 3.165 9.863-1.439 4.082-4.139 10.527-8.339 16.442-0.209 1.249-0.411 2.431-0.604 3.55 1.428-0.861 2.773-1.848 4.037-2.929-1.42 5.017-3.363 9.669-5.706 13.26-0.625 5.102-0.262 7.716 2.017 9.488 2.377 1.846 2.471 4.756 1.502 8.018 0.322 0.035 0.602 0.056 0.837 0.062 0.734 0.021 1.388 0.034 1.972 0.034 4.472 0 4.911-0.752 6.489-4.508 1.782-4.247 2.383-8.221-0.591-10.531-3.788-2.945-2.283-8.219 0.257-23.37 4.199-5.916 6.899-12.359 8.337-16.442 1.922-5.45-0.548-9.969-4.107-9.969-1.54 0-3.285 0.847-4.966 2.832-2.627-6.511-8.091-12.644-18.244-18.375m-189.42 0.684c-0.2316 1.16-0.4047 2.294-0.5137 3.388h0.0004c0.1086-1.094 0.2817-2.228 0.5133-3.388m81.126 14.565c-0.496 3.718-1.445 7.134-2.907 9.969 1.462-2.835 2.412-6.251 2.907-9.969m30.899 18.295c-0.392 1.1-0.702 2.191-0.922 3.268 0.22-1.077 0.53-2.168 0.922-3.268"/></g><g id="g15" fill-rule="evenodd" fill="#21445c" transform="matrix(.37726 .014517 .013868 -.35232 129.91 390.17)"><path id="path28" d="m29.991 684.98c35.488 13.368 165.04 47.363 185.9 49.762 20.862 2.399 31.39-20.625 34.808-30.321 3.418-9.698-7.065-16.453-12.85-0.041-5.784 16.411-10.349 24.799-22.146 21.773-11.797-3.023-169.27-49.056-180.1-52.544s-12.923 9.294-5.616 11.371"/><path id="path30" d="m234.98 757.23c-36.03-11.83-158.26-66.59-176.02-77.8-17.755-11.21-11.519-35.75-8.1-45.45 3.4179-9.698 15.82-8.385 10.035 8.026-5.7843 16.411-7.4882 25.807 3.5985 30.849 11.087 5.041 162.62 67.924 173.24 71.997 10.624 4.075 4.24 15.344-2.756 12.379"/><path id="path32" d="m84.623 708.51c-1.7789-0.395-3.5071-0.809-5.1622-1.243-19.159-5.031-45.975-17.065-50.205-20.278-5.0582-3.839-5.0582-4.363-3.7848-8.789 1.2738-4.427 3.2981-7.898 7.0633-7.834 5.1305 0.088 7.2164-5.697 16.103-21.28 6.8238-11.964 15.657-20.688 35.986-18.352v4.712c-8.8793-0.693-17.432 0.858-22.847 5.653-12.048 10.671-23.328 36.834-15.838 45.749 3.807 4.531 21.354 12.705 38.686 16.872v4.79m49.075 8.411c-5.779-2.182-30.288-4.239-49.075-8.411v-4.79c12.979 3.121 25.838 3.996 32.717-0.594 13.498-9.008 9.223-44.066-2.469-55.642-6.433-6.371-18.62-11.129-30.248-12.038v-4.712c3.7855 0.434 7.9699 1.253 12.614 2.505 29.027 7.829 32.088 29.376 33.08 36.321 1.771 12.384-4.989 26.213 9.292 31.247 14.282 5.033 17.852-9.632 26.997-18.169 3.847-3.592 13.664-13.053 29.952-12.441v4.488c-1.477-0.071-2.899-0.043-4.242 0.095-16.366 1.688-41.68 26.317-36.813 41.797 3.551 11.295 23.674 21.553 41.055 27.34v5.19c-4.999-1.754-9.862-3.635-14.144-5.552-16.164-7.235-33.833-21.017-48.716-26.634m62.86-46.724c5.419 0.204 11.555 1.523 18.426 4.544 28.049 12.335 30.516 26.689 27.923 42.82-2.849 17.712-4.851 23.526-0.8 26.675 2.974 2.31 2.374 6.284 0.59 10.53-1.783 4.247-2.111 4.655-8.459 4.475-4.053-0.115-21.573-4.476-37.68-10.134v-5.19c10.967 3.653 20.844 5.526 24.773 4.752 11.425-2.248 19.043-29.701 16.349-45.568-2.56-15.078-25.138-27.653-41.122-28.416v-4.488"/></g><g id="g20" transform="matrix(.37726 .014517 .013868 -.35232 129.91 390.17)"><path id="path34" fill="#de965b" d="m80.672 635.29c-3.5457 0-6.9676 0.396-10.077 1.255-0.2289 0.662-0.4503 1.312-0.664 1.951v-1.759 1.759c-3.8653 11.561-5.0867 19.286 0 24.298v10.183c-0.2719-0.164-0.525-0.321-0.7602-0.469-2.2176-1.4-4.0605-3.01-5.582-4.771v-28.046 28.046c-3.1953-3.701-4.9703-8.077-5.8078-12.619-0.468 1.097-0.9028 2.196-1.3004 3.29-0.6137 5.9 0.843 10.164 5.6219 13.175 0.4867 0.145 0.9824 0.292 1.4863 0.441v0.401-0.401c1.9875 0.588 4.107 1.215 6.3422 1.876v1.317-1.317l3.3746 0.996c-1.3152-0.719-2.4496-1.363-3.3746-1.919v-10.183c1.2156 1.196 2.7879 2.239 4.7719 3.142 2.048 0.931 8.8882 3.836 18.745 7.978l29.637-11.096c2.33 7.786 3.24 16.745 2.217 24.419 1.836-13.767-2.55-31.669-10.191-39.512-0.079-0.081-0.159-0.161-0.239-0.24l-0.04-0.04-0.012-0.012c-0.01-0.009-0.019-0.019-0.029-0.028l-0.013-0.013c-0.009-0.009-0.019-0.018-0.028-0.027l-0.013-0.013c-0.009-0.009-0.019-0.018-0.028-0.027l-0.014-0.014c-0.009-0.009-0.018-0.018-0.028-0.027l-0.012-0.012c-0.01-0.009-0.021-0.019-0.031-0.029-0.003-0.004-0.007-0.007-0.011-0.011-0.011-0.01-0.023-0.022-0.035-0.033-0.002-0.002-0.003-0.004-0.005-0.006-0.014-0.012-0.028-0.026-0.041-0.039l-0.001-0.001c-0.029-0.027-0.058-0.054-0.087-0.082-0.001 0-0.001-0.001-0.002-0.001-0.013-0.013-0.027-0.026-0.041-0.039-0.001-0.001-0.002-0.003-0.004-0.004-0.012-0.011-0.025-0.024-0.038-0.035-0.002-0.003-0.005-0.005-0.007-0.007-0.012-0.011-0.025-0.023-0.037-0.034l-0.006-0.006-0.039-0.036-0.003-0.003-0.042-0.039c-0.001 0-0.001-0.001-0.002-0.001-0.754-0.695-1.577-1.369-2.46-2.02-0.104-0.076-0.209-0.153-0.314-0.228l-0.001-0.001c-0.016-0.012-0.033-0.024-0.05-0.036-0.002-0.001-0.004-0.003-0.006-0.004-0.015-0.011-0.03-0.021-0.045-0.032-0.003-0.002-0.006-0.005-0.01-0.007l-0.042-0.03c-0.003-0.003-0.006-0.004-0.009-0.007-0.013-0.009-0.029-0.02-0.042-0.029-0.004-0.003-0.007-0.006-0.012-0.009-0.014-0.01-0.027-0.019-0.041-0.029-0.004-0.003-0.006-0.004-0.01-0.007-0.016-0.011-0.031-0.022-0.047-0.033-0.001-0.001-0.003-0.002-0.005-0.003-0.034-0.025-0.069-0.048-0.103-0.073-0.007-0.004-0.013-0.009-0.02-0.013-0.01-0.008-0.021-0.015-0.032-0.023-0.007-0.005-0.014-0.009-0.021-0.014-0.009-0.007-0.02-0.014-0.03-0.021-0.007-0.005-0.015-0.011-0.023-0.016-0.01-0.007-0.019-0.013-0.029-0.019-0.008-0.006-0.015-0.011-0.024-0.017-0.008-0.006-0.018-0.012-0.026-0.018s-0.018-0.012-0.026-0.018c-0.009-0.006-0.017-0.012-0.026-0.018s-0.017-0.011-0.025-0.017c-0.009-0.006-0.018-0.012-0.027-0.019-0.009-0.005-0.017-0.011-0.025-0.016-0.009-0.007-0.016-0.011-0.025-0.017-0.057-0.039-0.114-0.077-0.171-0.116-0.002-0.001-0.004-0.002-0.006-0.004l-0.045-0.03c-0.002-0.001-0.003-0.002-0.005-0.003l-0.045-0.03c-0.002-0.002-0.003-0.002-0.005-0.004-0.015-0.01-0.031-0.02-0.046-0.03-0.001-0.001-0.003-0.002-0.003-0.002-0.017-0.011-0.032-0.021-0.048-0.032h-0.001c-6.782-4.481-16.402-7.65-25.668-8.374v-0.001 0.001c-1.3274-0.103-2.6481-0.157-3.9512-0.157"/><path id="path36" fill="#bc8253" d="m70.594 636.54c-0.223 0.062-0.4441 0.126-0.664 0.192v1.759c0.2137-0.639 0.4351-1.289 0.664-1.951m-0.664 0.192c-2.3305 0.704-4.4723 1.679-6.3422 2.954v28.046c1.5215 1.761 3.3644 3.371 5.582 4.771 0.2352 0.148 0.4883 0.305 0.7602 0.469v-10.183c-5.0867-5.012-3.8653-12.737 0-24.298v-1.759m-6.3422 2.954c-0.6367 0.435-1.2418 0.904-1.8125 1.409-0.2758 0.244-0.552 0.497-0.827 0.757-0.0179 0.052-0.0355 0.103-0.0539 0.155-2.2965 6.516-3.95 11.926-4.4148 16.396 0.3976-1.094 0.8324-2.193 1.3004-3.29 0.8375 4.542 2.6125 8.918 5.8078 12.619v-28.046m-16.018 22.354c-1.5367 3.602-2.7172 7.233-3.3949 10.627-0.2316 1.16-0.4047 2.294-0.5133 3.388 4.8496 1.449 11.523 3.427 19.433 5.76-1.707-0.932-3.0984-1.735-4.1336-2.388-6.876-4.34-10.155-10.68-11.391-17.38m22.361 0.749v10.183c0.925 0.556 2.0594 1.2 3.3746 1.919l-3.3746-0.996v1.317c2.4844 1.059 5.6613 2.404 9.4051 3.98l14.112-5.283c-9.8571-4.142-16.697-7.047-18.745-7.978-1.984-0.903-3.5563-1.946-4.7719-3.142m-7.8285 8.789c0.4636 0.293 0.9589 0.573 1.4863 0.842v-0.401c-0.5039-0.149-0.9996-0.296-1.4863-0.441m1.4863 0.441v0.401c0.2922 0.149 0.593 0.294 0.9051 0.436 0.9129 0.415 2.7769 1.222 5.4371 2.356v-1.317c-2.2352-0.661-4.3547-1.288-6.3422-1.876m61.713 15.213c-0.496 3.717-1.445 7.134-2.907 9.969 1.462-2.835 2.411-6.251 2.907-9.969"/><path id="path38" fill="#de965b" d="m56.646 693.76c0.723 0.353 1.473 0.709 2.2449 1.064-0.7711-0.355-1.5207-0.71-2.243-1.064h-0.0019"/></g><g id="g25" fill="#4d697d" transform="matrix(.37726 .014517 .013868 -.35232 129.91 390.17)"><path id="path40" d="m43.661 676.06c-0.4437 4.466 0.1844 8.299 2.2762 10.789 0.816 0.971 2.2641 2.11 4.2051 3.341 0.0012 0.001 0.0035 0.002 0.0043 0.003 0.0097 0.006 0.0195 0.012 0.0293 0.018 1.7797 1.126 3.9715 2.329 6.4699 3.55h0.0019c-2.5441-1.243-4.7699-2.468-6.5664-3.611l16.829-6.301c-1.4043-0.731-2.6812-1.409-3.8164-2.029-7.9105-2.333-14.584-4.311-19.433-5.76"/><path id="path42" d="m60.948 641.85c-5.1519 4.877-10.085 12.468-13.379 20.188 1.2368 6.703 4.5153 13.045 11.391 17.387 1.0352 0.653 2.4266 1.456 4.1336 2.388 1.1352 0.62 2.4121 1.298 3.8164 2.029l12.424-4.652c-3.7438-1.576-6.9207-2.921-9.4051-3.98-2.6602-1.134-4.5242-1.941-5.4371-2.356-0.3121-0.142-0.6129-0.287-0.9051-0.436-0.5274-0.269-1.0227-0.549-1.4863-0.842-4.7789-3.011-6.2356-7.275-5.6219-13.175 0.4648-4.47 2.1183-9.88 4.4148-16.396 0.0184-0.052 0.036-0.103 0.0539-0.155m61.446 55.349c-1.178 2.285-2.688 4.192-4.563 5.576 1.875-1.384 3.385-3.291 4.563-5.576"/><path id="path44" d="m80.672 635.29c-7.4164 0-14.291 1.732-18.897 5.811-7.8598 6.961-15.392 20.515-17.6 31.572 0.6777-3.394 1.8582-7.025 3.3949-10.627 3.2938-7.72 8.227-15.311 13.379-20.188 0.275-0.26 0.5512-0.513 0.827-0.757 0.5707-0.505 1.1758-0.974 1.8125-1.409 1.8699-1.275 4.0117-2.25 6.3422-2.954 0.2199-0.066 0.441-0.13 0.664-0.192 3.1098-0.859 6.5317-1.255 10.077-1.255 1.3031 0 2.6238 0.054 3.9512 0.157v-0.001c-1.3266-0.104-2.6481-0.157-3.9508-0.157m3.9508 0.157v0.001c9.266 0.724 18.886 3.893 25.668 8.374-6.782-4.482-16.402-7.651-25.668-8.375m25.669 8.375c0.016 0.011 0.031 0.021 0.048 0.032-0.017-0.011-0.032-0.021-0.048-0.032m0.051 0.034c0.015 0.01 0.031 0.02 0.046 0.03-0.015-0.009-0.032-0.02-0.046-0.03m0.051 0.034 0.045 0.03-0.045-0.03m0.05 0.033 0.045 0.03c-0.015-0.009-0.03-0.02-0.045-0.03m0.051 0.034c0.057 0.039 0.114 0.077 0.171 0.116-0.057-0.039-0.114-0.077-0.171-0.116m0.196 0.133c0.008 0.005 0.016 0.011 0.025 0.016-0.009-0.005-0.017-0.011-0.025-0.016m0.052 0.035c0.008 0.006 0.016 0.011 0.025 0.017-0.008-0.005-0.017-0.011-0.025-0.017m0.051 0.035c0.008 0.006 0.018 0.012 0.026 0.018-0.009-0.006-0.017-0.012-0.026-0.018m0.052 0.036c0.009 0.006 0.016 0.011 0.024 0.017-0.008-0.006-0.016-0.011-0.024-0.017m0.053 0.036c0.008 0.005 0.016 0.011 0.023 0.016-0.008-0.005-0.015-0.01-0.023-0.016m0.053 0.037c0.007 0.005 0.014 0.009 0.021 0.014-0.007-0.005-0.013-0.009-0.021-0.014m0.053 0.037c0.007 0.004 0.013 0.009 0.02 0.013-0.006-0.004-0.013-0.009-0.02-0.013m0.123 0.086c0.002 0.001 0.004 0.002 0.005 0.003-0.002-0.001-0.003-0.002-0.005-0.003m0.052 0.036c0.004 0.003 0.006 0.004 0.01 0.007-0.003-0.002-0.007-0.005-0.01-0.007m0.051 0.036c0.005 0.003 0.008 0.006 0.012 0.009-0.004-0.003-0.007-0.006-0.012-0.009m0.054 0.038c0.003 0.003 0.006 0.004 0.009 0.007-0.003-0.003-0.006-0.004-0.009-0.007m0.051 0.037c0.004 0.002 0.007 0.005 0.01 0.007-0.003-0.002-0.006-0.004-0.01-0.007m0.055 0.039c0.002 0.001 0.004 0.003 0.006 0.004-0.002-0.001-0.004-0.003-0.006-0.004m0.056 0.04 0.001 0.001-0.001-0.001m0.315 0.229m2.46 2.02c0.001 0 0.001 0.001 0.002 0.001l-0.002-0.001m0.044 0.04 0.003 0.003c-0.001-0.002-0.002-0.002-0.003-0.003m0.042 0.039 0.006 0.006-0.006-0.006m0.043 0.04c0.002 0.002 0.005 0.004 0.007 0.007-0.003-0.003-0.004-0.005-0.007-0.007m0.045 0.042c0.002 0.001 0.003 0.003 0.004 0.004l-0.004-0.004m0.045 0.043c0.001 0 0.001 0.001 0.002 0.001 0 0-0.001-0.001-0.002-0.001m0.089 0.083 0.001 0.001c-0.001-0.001-0.001 0-0.001-0.001m0.042 0.04c0.002 0.002 0.003 0.004 0.005 0.006-0.002-0.002-0.003-0.003-0.005-0.006m0.04 0.039c0.004 0.004 0.008 0.007 0.011 0.011l-0.011-0.011m0.042 0.04 0.012 0.012-0.012-0.012m0.04 0.039 0.014 0.014-0.014-0.014m0.042 0.041 0.013 0.013-0.013-0.013m0.041 0.04 0.013 0.013-0.013-0.013m0.042 0.041 0.012 0.012-0.012-0.012m0.052 0.052c0.08 0.079 0.16 0.159 0.239 0.24-0.079-0.081-0.159-0.161-0.239-0.24m-64.728 42.705c0.0019 0.001 0.0023 0.002 0.0043 0.003-0.0008-0.001-0.0031-0.002-0.0043-0.003m0.0336 0.021c7.1242 4.508 20.852 10.244 34.446 13.512-9.2164-2.216-18.493-5.566-25.732-8.898-0.7719-0.355-1.5219-0.711-2.2449-1.064-2.4984-1.221-4.6902-2.424-6.4699-3.55m34.446 13.512c1.3597 0.327 2.7222 0.63 4.0726 0.904-1.3515-0.274-2.7121-0.576-4.0726-0.904"/></g><g id="g30" transform="matrix(.37726 .014517 .013868 -.35232 129.91 390.17)"><path id="path46" fill="#de965b" d="m195.02 674.64c-0.856 0-1.689 0.037-2.494 0.113-0.071 0.006-0.142 0.013-0.212 0.02-3.268 0.337-6.893 1.589-10.563 3.5-7.962 6.691-14.627 15.575-16.266 23.594 12.006 3.492 23.236 6.749 32.712 9.484l37.498-14.038c0.791 1.534 1.393 3.111 1.769 4.719-0.716-3.068-2.249-6.023-4.367-8.782-0.001 0-0.001 0-0.001-0.001-0.011-0.013-0.019-0.024-0.029-0.038-0.001-0.001-0.004-0.004-0.005-0.006-0.009-0.012-0.018-0.023-0.027-0.034-0.002-0.003-0.003-0.004-0.005-0.007-0.008-0.01-0.016-0.021-0.025-0.032-0.003-0.004-0.005-0.007-0.008-0.011-0.008-0.01-0.015-0.019-0.022-0.028-0.004-0.005-0.007-0.009-0.011-0.014-0.006-0.008-0.013-0.016-0.019-0.025-0.004-0.005-0.009-0.011-0.013-0.016-0.006-0.008-0.013-0.017-0.019-0.025-0.005-0.005-0.008-0.01-0.013-0.016-0.005-0.007-0.011-0.014-0.016-0.021-0.006-0.006-0.012-0.014-0.017-0.021-0.005-0.006-0.009-0.012-0.014-0.018-0.006-0.007-0.013-0.016-0.018-0.023-0.004-0.005-0.008-0.01-0.011-0.014-0.008-0.009-0.014-0.018-0.021-0.027-0.004-0.004-0.007-0.008-0.011-0.013-0.007-0.009-0.014-0.018-0.022-0.028-0.002-0.003-0.005-0.005-0.007-0.008-0.008-0.011-0.017-0.022-0.025-0.032-0.002-0.002-0.004-0.004-0.005-0.006-0.01-0.012-0.018-0.023-0.028-0.035l-0.001-0.002c-8.095-10.113-24.02-17.492-36.148-18.071v-0.003 0.003c-0.519-0.025-1.032-0.038-1.536-0.038"/><path id="path48" fill="#bc8253" d="m181.75 678.28c-10.719 5.582-21.825 16.788-25.553 27.251-0.392 1.1-0.702 2.191-0.922 3.268 10.083 2.933 19.624 5.701 28.033 8.132l14.888-5.573c-9.476-2.735-20.706-5.992-32.712-9.484 1.639-8.019 8.304-16.903 16.266-23.594"/><path id="path50" fill="#de965b" d="m167.36 730.04c5.831 4.062 13.108 7.699 20.462 10.667-7.349-2.967-14.622-6.602-20.451-10.663-0.004-0.002-0.007-0.003-0.011-0.004"/></g><g id="g35" fill="#4d697d" transform="matrix(.37726 .014517 .013868 -.35232 129.91 390.17)"><path id="path52" d="m155.28 708.8c-0.135 0.658-0.235 1.31-0.3 1.955 7.194 2.987 14.342 5.952 21.27 8.821l7.063-2.644c-8.409-2.431-17.95-5.199-28.033-8.132"/><path id="path54" d="m154.98 710.75c-0.204 2.034-0.05 3.992 0.525 5.823 1.374 4.371 5.23 8.586 10.448 12.448 0.005 0.004 0.011 0.008 0.016 0.011 0.013 0.01 0.026 0.02 0.039 0.029 0.01 0.008 0.019 0.014 0.029 0.021 0.01 0.009 0.021 0.016 0.032 0.024 0.009 0.007 0.019 0.014 0.028 0.021 0.006 0.004 0.01 0.007 0.015 0.011 0.022 0.016 0.041 0.03 0.063 0.046 0.002 0.002 0.006 0.004 0.008 0.006 0.388 0.284 0.782 0.566 1.184 0.846 0.004 0.001 0.007 0.002 0.011 0.004-2.254-1.57-4.293-3.204-6.036-4.888l14.908-5.581c-6.928-2.869-14.076-5.834-21.27-8.821"/><path id="path56" d="m195.05 674.64c-0.863 0.001-1.705 0.038-2.518 0.115 0.805-0.076 1.638-0.113 2.494-0.113 0.504 0 1.017 0.013 1.536 0.038v-0.003c-0.511-0.024-1.015-0.037-1.512-0.037m1.512 0.037v0.003c12.128 0.579 28.053 7.958 36.148 18.071-8.096-10.114-24.02-17.495-36.148-18.074m-4.242 0.098c-12.813 1.321-31.111 16.705-36.116 30.751 3.728-10.463 14.834-21.669 25.553-27.251 3.67-1.911 7.295-3.163 10.563-3.5m40.391 17.978c0.01 0.012 0.018 0.023 0.028 0.035-0.01-0.013-0.018-0.023-0.028-0.035m0.033 0.041c0.008 0.01 0.017 0.021 0.025 0.032-0.008-0.011-0.017-0.022-0.025-0.032m0.032 0.04c0.008 0.01 0.015 0.019 0.022 0.028-0.007-0.009-0.015-0.019-0.022-0.028m0.033 0.041c0.007 0.009 0.013 0.018 0.021 0.027-0.007-0.009-0.014-0.018-0.021-0.027m0.032 0.041c0.005 0.007 0.012 0.016 0.018 0.023-0.006-0.008-0.012-0.015-0.018-0.023m0.032 0.041c0.005 0.007 0.011 0.015 0.017 0.021-0.006-0.007-0.011-0.014-0.017-0.021m0.033 0.042c0.005 0.006 0.008 0.011 0.013 0.016-0.004-0.005-0.009-0.01-0.013-0.016m0.032 0.041c0.004 0.005 0.009 0.011 0.013 0.016-0.004-0.005-0.009-0.011-0.013-0.016m0.032 0.041c0.004 0.005 0.007 0.009 0.011 0.014-0.004-0.005-0.007-0.009-0.011-0.014m0.033 0.042c0.003 0.004 0.005 0.007 0.008 0.011-0.002-0.003-0.005-0.007-0.008-0.011m0.033 0.043c0.002 0.003 0.003 0.004 0.005 0.007-0.001-0.002-0.003-0.005-0.005-0.007m0.032 0.041c0.001 0.002 0.004 0.005 0.005 0.006-0.002-0.001-0.004-0.004-0.005-0.006m0.034 0.044c0 0.001 0 0.001 0.001 0.001l-0.001-0.001m-67.147 35.769c0.005 0.004 0.01 0.007 0.016 0.011-0.005-0.003-0.011-0.007-0.016-0.011m0.055 0.04c0.009 0.007 0.019 0.014 0.029 0.021-0.01-0.007-0.019-0.013-0.029-0.021m0.061 0.045c0.009 0.007 0.019 0.014 0.028 0.021-0.009-0.007-0.019-0.014-0.028-0.021m0.043 0.032c0.021 0.015 0.042 0.031 0.063 0.046-0.022-0.016-0.041-0.03-0.063-0.046m0.071 0.052c8.253 6.045 19.82 11.209 30.377 14.724-2.864-0.954-5.805-2.03-8.731-3.211-7.354-2.968-14.631-6.605-20.462-10.667-0.402-0.28-0.796-0.562-1.184-0.846m30.377 14.724c1.486 0.495 2.953 0.957 4.387 1.385-1.435-0.428-2.9-0.89-4.387-1.385"/></g><path id="path58" fill="#de965b" d="m229.24 146.27c0.00091-0.004 0.002-0.008 0.003-0.0115-0.0009 0.004-0.002 0.008-0.003 0.0115m0.006-0.0199c0.00042-0.001 0.00085-0.002 0.00088-0.003-0.00003 0.0007-0.00046 0.002-0.00088 0.003"/><g id="g41" fill="#4d697d" transform="matrix(.37726 .014517 .013868 -.35232 129.91 390.17)"><path id="path60" d="m117.83 702.78c-0.026 0.018-0.051 0.038-0.077 0.056 0.025-0.018 0.052-0.038 0.077-0.056m-0.084 0.061c-0.023 0.017-0.046 0.034-0.07 0.051 0.023-0.017 0.047-0.034 0.07-0.051m-0.082 0.059c-0.006 0.005-0.013 0.01-0.02 0.014 0.007-0.005 0.013-0.009 0.02-0.014m-0.033 0.024c-0.011 0.007-0.021 0.015-0.032 0.022 0.011-0.007 0.022-0.015 0.032-0.022m-0.048 0.033c-0.006 0.005-0.011 0.008-0.017 0.013 0.005-0.004 0.012-0.009 0.017-0.013m-0.034 0.025c-0.006 0.004-0.014 0.009-0.02 0.013 0.006-0.004 0.013-0.009 0.02-0.013m-0.046 0.032c-0.005 0.003-0.011 0.006-0.016 0.01 0.005-0.003 0.011-0.007 0.016-0.01m-0.036 0.024c-0.004 0.003-0.009 0.007-0.014 0.01 0.005-0.004 0.009-0.007 0.014-0.01m-0.045 0.031c-0.004 0.002-0.008 0.005-0.012 0.008 0.004-0.003 0.008-0.006 0.012-0.008m-0.036 0.024c-0.004 0.003-0.008 0.005-0.012 0.008 0.005-0.003 0.007-0.005 0.012-0.008"/><path id="path62" d="m88.699 704.62c0.0184 0.004 0.0348 0.007 0.0532 0.011-0.018-0.004-0.0352-0.007-0.0532-0.011m0.0621 0.013c0.0164 0.003 0.0313 0.006 0.0481 0.009-0.0164-0.003-0.032-0.006-0.0481-0.009m0.0704 0.014c0.0128 0.002 0.0253 0.005 0.0378 0.007-0.0128-0.002-0.025-0.005-0.0378-0.007m0.0675 0.013c0.0129 0.003 0.0215 0.005 0.0344 0.007-0.0109-0.002-0.023-0.004-0.0344-0.007m0.0961 0.02c0.0055 0.001 0.0114 0.002 0.0168 0.003-0.0066-0.001-0.0101-0.002-0.0168-0.003m0.0664 0.013c0.0055 0.001 0.0141 0.003 0.0196 0.004-0.0063-0.002-0.0133-0.003-0.0196-0.004m0.068 0.013c0.0055 0.002 0.0113 0.003 0.0168 0.004-0.0051-0.001-0.0117-0.002-0.0168-0.004m0.0645 0.013c0.0074 0.002 0.014 0.003 0.021 0.005-0.0078-0.002-0.0128-0.003-0.021-0.005"/><path id="path64" d="m200.96 745.31c0.014 0.004 0.023 0.007 0.037 0.011-0.013-0.004-0.024-0.007-0.037-0.011m0.082 0.024c0.007 0.002 0.016 0.005 0.023 0.007-0.007-0.002-0.016-0.005-0.023-0.007"/><path id="path66" d="m117.83 702.78-0.001 0.001 0.001-0.001m-0.078 0.057c-0.002 0.002-0.004 0.003-0.007 0.005 0.002-0.002 0.005-0.003 0.007-0.005m-0.077 0.056c-0.004 0.003-0.008 0.005-0.012 0.008 0.002-0.001 0.003-0.002 0.004-0.003 0.001 0 0.001-0.001 0.002-0.001 0.002-0.001 0.004-0.003 0.006-0.004"/><path id="path68" d="m117.67 702.9c-0.001 0-0.001 0.001-0.002 0.001 0.001-0.001 0.001-0.001 0.002-0.001"/><path id="path70" d="m117.64 702.91c-0.004 0.003-0.009 0.007-0.013 0.01 0.004-0.003 0.009-0.007 0.013-0.01m-0.045 0.032c-0.005 0.004-0.01 0.007-0.016 0.011 0.001 0 0.002-0.001 0.003-0.001 0.002-0.002 0.004-0.003 0.006-0.005 0.002-0.001 0.005-0.003 0.007-0.005"/><path id="path72" d="m117.59 702.95c-0.002 0.002-0.004 0.003-0.006 0.005 0.002-0.002 0.004-0.003 0.006-0.005"/><path id="path74" d="m117.57 702.97c-0.006 0.004-0.012 0.008-0.017 0.012 0.002-0.002 0.002-0.002 0.004-0.003 0.003-0.002 0.007-0.006 0.011-0.008 0 0 0.001-0.001 0.002-0.001"/><path id="path76" d="m117.56 702.97c-0.004 0.002-0.008 0.006-0.011 0.008 0.003-0.003 0.007-0.006 0.011-0.008"/><path id="path78" d="m117.53 703c-0.009 0.007-0.017 0.012-0.026 0.019l0.001-0.001c0.004-0.003 0.009-0.007 0.013-0.009l0.02-0.01"/><path id="path80" d="m117.52 703c-0.004 0.002-0.009 0.006-0.013 0.009 0.004-0.004 0.009-0.006 0.013-0.009"/><path id="path82" d="m117.49 703.02c-0.006 0.005-0.013 0.009-0.02 0.014 0.001 0 0.001-0.001 0.002-0.001 0.005-0.004 0.012-0.008 0.017-0.012 0.001 0 0 0 0.001-0.001"/><path id="path84" d="m117.49 703.02c-0.005 0.004-0.012 0.008-0.017 0.012 0.005-0.004 0.011-0.008 0.017-0.012"/><path id="path86" d="m117.45 703.05c-0.01 0.007-0.021 0.014-0.031 0.021 0.011-0.008 0.02-0.014 0.031-0.021"/><path id="path88" d="m117.45 703.05c-0.011 0.007-0.02 0.013-0.031 0.021 0.01-0.007 0.021-0.014 0.031-0.021"/><path id="path90" d="m117.41 703.08c-0.008 0.005-0.016 0.011-0.024 0.016 0.008-0.005 0.016-0.011 0.023-0.016h0.001"/><path id="path92" d="m117.41 703.08c-0.007 0.005-0.015 0.011-0.023 0.016 0.008-0.005 0.016-0.011 0.023-0.016"/><path id="path94" d="m117.37 703.1c-0.011 0.008-0.023 0.015-0.034 0.023 0.011-0.008 0.023-0.015 0.034-0.023"/><path id="path96" d="m117.37 703.1c-0.011 0.008-0.023 0.015-0.034 0.023 0.011-0.008 0.023-0.015 0.034-0.023m-0.034 0.023c-3.379 2.255-8.197 3.191-13.766 3.191-4.4295 0-9.333-0.593-14.359-1.586 5.0262 0.993 9.9301 1.586 14.359 1.586 5.569 0 10.387-0.936 13.766-3.191m-28.645 1.5c0.0016 0.001 0.002 0.001 0.0035 0.001-0.0019 0-0.0015 0-0.0035-0.001m0.0567 0.012c0.0031 0 0.0054 0.001 0.0089 0.002-0.0019-0.001-0.0074-0.002-0.0089-0.002m0.057 0.011c0.0062 0.001 0.0156 0.003 0.0223 0.005-0.0075-0.002-0.0153-0.003-0.0223-0.005m0.0601 0.012c0.0098 0.002 0.0204 0.005 0.0297 0.006-0.009-0.001-0.0203-0.004-0.0297-0.006m0.0641 0.013c0.0211 0.005 0.041 0.008 0.0617 0.013-0.0203-0.005-0.0414-0.008-0.0617-0.013m0.0785 0.016c0.016 0.003 0.0332 0.007 0.0496 0.01-0.0168-0.003-0.0332-0.007-0.0496-0.01m0.0692 0.014c0.0164 0.003 0.0324 0.006 0.0484 0.009-0.0164-0.003-0.0316-0.006-0.0484-0.009m0.0652 0.013c0.016 0.003 0.0316 0.006 0.0477 0.009-0.0165-0.003-0.0313-0.006-0.0477-0.009"/></g><g id="g62" transform="matrix(.37726 .014517 .013868 -.35232 129.91 390.17)"><path id="path98" fill="#e5ab7c" d="m123.08 662.82-29.637 11.096c2.4242 1.019 5.0297 2.112 7.7927 3.27v11.197-11.197c7.132 2.988 15.303 6.401 24.061 10.053 1.023-7.674 0.113-16.633-2.217-24.419"/><path id="path100" fill="#c99b75" d="m93.447 673.91-14.112 5.283c6.0171 2.535 13.497 5.67 21.905 9.184v-11.197c-2.763-1.158-5.3685-2.251-7.7927-3.27m7.7927 3.27v11.197c6.568 2.745 13.704 5.721 21.154 8.825 1.462-2.835 2.411-6.252 2.907-9.969-8.758-3.652-16.929-7.065-24.061-10.053"/><path id="path102" fill="#e5ab7c" d="m56.648 693.76c0.7223 0.354 1.4719 0.709 2.243 1.064 7.2399 3.332 16.516 6.68 25.732 8.896v0.002-0.002c5.1429 1.237 10.269 2.121 15.01 2.452-15.576-4.31-30.448-8.59-42.985-12.41"/></g><g id="g67" fill="#718797" transform="matrix(.37726 .014517 .013868 -.35232 129.91 390.17)"><path id="path104" d="m66.911 683.85-16.829 6.301c1.7965 1.143 4.0223 2.368 6.5664 3.611 12.537 3.821 27.409 8.099 42.984 12.412 1.3496 0.094 2.6676 0.144 3.9456 0.144 3.063 0 5.897-0.284 8.392-0.914-18.846-8.63-35.159-16.4-45.059-21.55"/><path id="path106" d="m79.335 679.19-12.424 4.652c9.9 5.15 26.213 12.921 45.059 21.554 2.039-0.515 3.85-1.262 5.37-2.276 0.011-0.008 0.023-0.015 0.034-0.023 0.004-0.003 0.008-0.005 0.012-0.008 0.008-0.005 0.016-0.011 0.024-0.016 0.004-0.003 0.008-0.006 0.012-0.008 0.01-0.007 0.021-0.014 0.031-0.021 0.005-0.003 0.01-0.007 0.014-0.01 0.007-0.005 0.014-0.009 0.02-0.014 0.005-0.004 0.011-0.007 0.016-0.01 0.009-0.007 0.017-0.012 0.026-0.019 0.006-0.004 0.014-0.009 0.02-0.013 0.005-0.004 0.011-0.008 0.017-0.012 0.006-0.005 0.011-0.008 0.017-0.013 0.006-0.004 0.011-0.007 0.016-0.011 0.011-0.007 0.021-0.015 0.032-0.022 0.004-0.003 0.009-0.007 0.013-0.01 0.007-0.004 0.014-0.009 0.02-0.014 0.004-0.003 0.008-0.005 0.012-0.008 0.024-0.017 0.047-0.034 0.07-0.051 0.003-0.002 0.005-0.003 0.007-0.005 0.026-0.018 0.051-0.038 0.077-0.056l0.001-0.001c1.875-1.384 3.385-3.291 4.563-5.576-7.45-3.104-14.586-6.08-21.154-8.825-8.408-3.514-15.888-6.649-21.905-9.184"/><path id="path108" d="m58.891 694.82c7.2387 3.332 16.515 6.682 25.732 8.898v-0.002c-9.216-2.22-18.492-5.57-25.732-8.9m58.449 8.302c-1.52 1.014-3.331 1.761-5.37 2.276-2.495 0.63-5.329 0.914-8.392 0.914-1.278 0-2.596-0.05-3.9456-0.144-4.7406-0.331-9.8668-1.215-15.01-2.452v0.002c1.3605 0.328 2.7211 0.63 4.0726 0.904 0.002 0.001 0.0016 0.001 0.0035 0.001 0.018 0.004 0.0352 0.007 0.0532 0.011 0.0015 0 0.007 0.001 0.0089 0.002 0.0161 0.003 0.0317 0.006 0.0481 0.009 0.007 0.002 0.0148 0.003 0.0223 0.005 0.0128 0.002 0.025 0.005 0.0378 0.007 0.0094 0.002 0.0207 0.005 0.0297 0.006 0.0114 0.003 0.0235 0.005 0.0344 0.007 0.0203 0.005 0.0414 0.008 0.0617 0.013 0.0067 0.001 0.0102 0.002 0.0168 0.003 0.0164 0.003 0.0328 0.007 0.0496 0.01 0.0063 0.001 0.0133 0.002 0.0196 0.004 0.0168 0.003 0.032 0.006 0.0484 0.009 0.0051 0.002 0.0117 0.003 0.0168 0.004 0.0164 0.003 0.0312 0.006 0.0477 0.009 0.0082 0.002 0.0132 0.003 0.021 0.005 5.0262 0.993 9.9297 1.586 14.359 1.586 5.569 0 10.387-0.936 13.766-3.191"/></g><path id="path110" fill="#de965b" d="m229.24 146.27 0.00002-0.00035-0.00002 0.00035m0.003-0.0119c0.00086-0.003 0.002-0.006 0.003-0.008l-0.003 0.008m0.003-0.0115c0.0149-0.052 0.0294-0.10437 0.0428-0.15643-0.012 0.0468-0.0248 0.0933-0.038 0.14003-0.002 0.005-0.003 0.0108-0.005 0.0164m0.0428-0.15714c0.001-0.005 0.003-0.0101 0.004-0.0154-0.001 0.005-0.003 0.0105-0.004 0.0154m0.004-0.0154c0.001-0.005 0.003-0.0105 0.004-0.0154-0.001 0.005-0.003 0.0101-0.004 0.0154m0.004-0.0164c0.001-0.005 0.003-0.009 0.004-0.0143-0.001 0.005-0.003 0.01-0.004 0.0143m0.004-0.0157c0.001-0.005 0.003-0.009 0.004-0.0143-0.00095 0.005-0.002 0.009-0.004 0.0143m0.004-0.0161c0.001-0.005 0.002-0.009 0.004-0.0136-0.001 0.005-0.002 0.009-0.004 0.0136m0.004-0.0161c0.00093-0.005 0.002-0.009 0.003-0.0133-0.00093 0.005-0.002 0.009-0.003 0.0133m0.004-0.0157c0.001-0.004 0.002-0.009 0.003-0.0129-0.00092 0.004-0.002 0.008-0.003 0.0129m0.004-0.0157c0.00095-0.005 0.002-0.009 0.003-0.0136-0.001 0.005-0.002 0.009-0.003 0.0136m0.004-0.0161c0.00094-0.005 0.002-0.009 0.003-0.0143-0.00094 0.005-0.002 0.01-0.003 0.0143m0.004-0.0157c0.00092-0.004 0.002-0.009 0.003-0.0136-0.00094 0.005-0.002 0.009-0.003 0.0136m0.004-0.0157c0.00092-0.004 0.002-0.008 0.003-0.0123-0.00091 0.004-0.002 0.008-0.003 0.0123m0.004-0.0161c0.001-0.005 0.002-0.0105 0.004-0.0157-0.001 0.005-0.002 0.0109-0.004 0.0157"/><g id="g73" fill="#4d697d" transform="matrix(.37726 .014517 .013868 -.35232 129.91 390.17)"><path id="path112" d="m237.49 702.15c0.03 0.134 0.059 0.267 0.086 0.401v0.002c0.003 0.014 0.006 0.029 0.009 0.044s0.006 0.029 0.009 0.044v0.003c0.003 0.013 0.006 0.028 0.009 0.041v0.004c0.003 0.014 0.006 0.027 0.008 0.041 0 0.001 0.001 0.004 0.001 0.005 0.003 0.014 0.005 0.026 0.008 0.039 0 0.002 0 0.005 0.001 0.007 0.002 0.013 0.005 0.025 0.007 0.038 0 0.002 0.001 0.005 0.001 0.007 0.003 0.013 0.005 0.025 0.007 0.037 0.001 0.004 0.001 0.006 0.002 0.008 0.002 0.013 0.004 0.026 0.007 0.039 0 0.002 0.001 0.004 0.001 0.007 0.002 0.013 0.005 0.027 0.007 0.041 0.001 0.001 0.001 0.002 0.001 0.004 0.002 0.012 0.005 0.026 0.007 0.039 0 0.002 0.001 0.004 0.001 0.006 0.002 0.012 0.004 0.024 0.006 0.035 0.001 0.003 0.001 0.008 0.002 0.011 0.003 0.014 0.005 0.03 0.008 0.045 0.368 2.169 0.544 4.555 0.543 7.064 0.001-2.509-0.175-4.895-0.543-7.064-0.054-0.317-0.117-0.633-0.188-0.948m-36.547 43.15c0.006 0.002 0.015 0.004 0.02 0.006-0.006-0.002-0.013-0.004-0.02-0.006m0.057 0.017c0.015 0.004 0.03 0.009 0.045 0.013-0.015-0.004-0.03-0.009-0.045-0.013"/><path id="path114" d="m221.33 748.67c-0.588 0.116-1.311 0.172-2.15 0.172-0.386 0-0.797-0.012-1.231-0.035 0.434 0.023 0.845 0.035 1.232 0.035 0.433 0 0.834-0.014 1.202-0.045 0.003 0 0.005 0 0.008-0.001 0.008 0 0.017-0.001 0.025-0.002 0.333-0.028 0.639-0.07 0.914-0.124m-3.714 0.117m0.028 0.002h0.012-0.012m0.052 0.003c0.006 0 0.012 0.001 0.019 0.001-0.006 0-0.013-0.001-0.019-0.001m0.04 0.002c0.006 0.001 0.012 0.001 0.019 0.002-0.006-0.001-0.013-0.001-0.019-0.002m0.036 0.003c0.014 0.001 0.027 0.001 0.04 0.002-0.013-0.001-0.027-0.001-0.04-0.002m0.043 0.002c0.013 0.001 0.026 0.002 0.04 0.002-0.013 0-0.027-0.001-0.04-0.002m0.047 0.003c0.029 0.002 0.058 0.003 0.087 0.005-0.029-0.002-0.058-0.003-0.087-0.005"/><path id="path116" d="m201.07 745.34c7.512 2.231 14.129 3.501 18.11 3.501 0.433 0 0.836-0.014 1.204-0.045-0.368 0.031-0.769 0.045-1.202 0.045-0.387 0-0.798-0.012-1.232-0.035-0.029-0.002-0.058-0.003-0.087-0.005-0.003 0-0.004 0-0.007-0.001-0.014 0-0.027-0.001-0.04-0.002h-0.003c-0.013-0.001-0.026-0.001-0.04-0.002-0.006-0.001-0.011-0.001-0.017-0.001-0.007-0.001-0.013-0.001-0.019-0.002-0.008 0-0.014 0-0.021-0.001-0.007 0-0.013-0.001-0.019-0.001-0.013-0.001-0.027-0.002-0.04-0.003h-0.012c-0.009-0.001-0.019-0.002-0.028-0.002-4.039-0.267-9.946-1.486-16.547-3.446m19.347 3.453c-0.008 0.001-0.017 0.002-0.025 0.002 0.008 0 0.017-0.001 0.025-0.002"/></g><g id="g78" transform="matrix(.37726 .014517 .013868 -.35232 129.91 390.17)"><path id="path118" fill="#e5ab7c" d="m235.7 697.32-37.498 14.038c0.012 0.003 0.024 0.007 0.036 0.01v9.864-9.864c14.556 4.202 24.968 7.17 27.679 7.866 1.595 0.408 3.058 0.608 4.409 0.608 0.255 0 0.507-0.007 0.754-0.021 2.412-3.767 4.5-8.981 6.775-15.437 0.005-0.014 0.01-0.027 0.015-0.041-0.056-0.421-0.118-0.836-0.187-1.242-0.003-0.015-0.005-0.03-0.008-0.045-0.001-0.004-0.001-0.007-0.002-0.011-0.002-0.012-0.004-0.023-0.006-0.035 0-0.002-0.001-0.004-0.001-0.006-0.002-0.013-0.005-0.027-0.007-0.039 0-0.002 0-0.002-0.001-0.004-0.002-0.014-0.005-0.028-0.007-0.041 0-0.002-0.001-0.005-0.001-0.007-0.003-0.013-0.005-0.025-0.007-0.039-0.001-0.002-0.001-0.004-0.002-0.008-0.002-0.011-0.004-0.025-0.007-0.037 0-0.002-0.001-0.005-0.001-0.007-0.002-0.013-0.005-0.025-0.007-0.038-0.001-0.002-0.001-0.005-0.001-0.007-0.003-0.014-0.005-0.025-0.008-0.039 0-0.001-0.001-0.004-0.001-0.005-0.002-0.014-0.005-0.027-0.008-0.041v-0.004c-0.003-0.014-0.006-0.027-0.009-0.041v-0.003c-0.003-0.014-0.006-0.029-0.009-0.044s-0.006-0.03-0.009-0.044v-0.002c-0.03-0.149-0.063-0.299-0.097-0.448 0-0.002-0.001-0.006-0.002-0.009-0.002-0.007-0.004-0.016-0.006-0.024-0.002-0.011-0.005-0.022-0.007-0.033v-0.001c-0.376-1.608-0.978-3.185-1.769-4.719"/><path id="path120" fill="#c99b75" d="m198.2 711.36-14.888 5.573c5.516 1.595 10.541 3.043 14.924 4.301v-9.864c-0.012-0.003-0.024-0.007-0.036-0.01m0.036 0.01v9.864c9.129 2.62 15.446 4.406 17.471 4.925 1.596 0.41 3.059 0.61 4.411 0.61 4.711 0 8.07-2.434 10.96-6.946-0.247 0.014-0.499 0.021-0.754 0.021-1.351 0-2.814-0.2-4.409-0.608-2.711-0.696-13.123-3.664-27.679-7.866"/><path id="path122" fill="#e5ab7c" d="m235.59 728.42c-1.242 1.062-2.563 2.034-3.965 2.884 0.674 0.277 1.331 0.547 1.972 0.81v2.223-2.223c0.244 0.1 0.485 0.198 0.724 0.296 0.46-1.293 0.884-2.629 1.269-3.99"/><path id="path124" fill="#c99b75" d="m231.62 731.3c-3.673 2.226-7.902 3.619-12.733 3.619-0.973 0-1.971-0.056-2.994-0.174-1.216-0.14-2.8-0.387-4.715-0.731 7.596 3.13 14.01 5.765 18.692 7.675 1.389-2.127 2.639-4.629 3.722-7.356v-2.223c-0.641-0.263-1.298-0.533-1.972-0.81m1.972 0.81v2.223c0.25-0.631 0.491-1.273 0.724-1.927-0.239-0.098-0.48-0.196-0.724-0.296"/><path id="path126" fill="#e5ab7c" d="m167.38 730.04c5.829 4.061 13.102 7.696 20.451 10.663 2.927 1.181 5.866 2.256 8.731 3.21v0.001-0.001c4.303 1.433 8.438 2.592 12.112 3.425-12.171-4.889-26.45-10.888-41.294-17.298"/></g><g id="g85" fill="#718797" transform="matrix(.37726 .014517 .013868 -.35232 129.91 390.17)"><path id="path128" d="m237.87 704.34c-0.005 0.014-0.01 0.027-0.015 0.041-2.275 6.456-4.363 11.67-6.775 15.437-2.89 4.512-6.249 6.946-10.96 6.946-1.352 0-2.815-0.2-4.411-0.61-2.025-0.519-8.342-2.305-17.471-4.925-4.383-1.258-9.408-2.706-14.924-4.301l-7.063 2.644c12.858 5.328 24.923 10.316 34.931 14.44 1.915 0.344 3.499 0.591 4.715 0.731 1.023 0.118 2.021 0.174 2.994 0.174 4.831 0 9.06-1.393 12.733-3.619 1.402-0.85 2.723-1.822 3.965-2.884 2.28-8.051 3.21-17.037 2.281-24.074"/><path id="path130" d="m176.25 719.57-14.908 5.581c1.743 1.684 3.782 3.318 6.036 4.888 14.844 6.41 29.123 12.409 41.294 17.298 3.479 0.789 6.544 1.285 8.947 1.444 0.009 0 0.019 0.001 0.028 0.002h0.012c0.013 0.001 0.027 0.002 0.04 0.003 0.006 0 0.013 0.001 0.019 0.001 0.007 0.001 0.014 0.001 0.021 0.001 0.006 0.001 0.013 0.001 0.019 0.002 0.006 0 0.011 0 0.017 0.001 0.013 0.001 0.027 0.001 0.04 0.002h0.003c0.013 0.001 0.027 0.002 0.04 0.002 0.002 0.001 0.004 0.001 0.007 0.001 0.029 0.002 0.058 0.003 0.087 0.005 0.434 0.023 0.845 0.035 1.231 0.035 0.839 0 1.562-0.056 2.15-0.172 3.191-0.628 6.085-3.221 8.54-6.979-4.682-1.91-11.096-4.545-18.692-7.675-10.008-4.124-22.073-9.112-34.931-14.44"/><path id="path132" d="m237.58 702.55v0.002-0.002m0.009 0.046m0.009 0.044v0.003-0.003m0.009 0.044v0.004-0.004m0.008 0.045c0 0.001 0.001 0.004 0.001 0.005 0-0.001-0.001-0.004-0.001-0.005m0.009 0.044c0 0.002 0 0.005 0.001 0.007-0.001-0.002-0.001-0.005-0.001-0.007m0.008 0.045c0 0.002 0.001 0.005 0.001 0.007 0-0.002-0.001-0.005-0.001-0.007m0.008 0.044c0.001 0.004 0.001 0.006 0.002 0.008-0.001-0.002-0.001-0.004-0.002-0.008m0.009 0.047c0 0.002 0.001 0.005 0.001 0.007 0-0.003-0.001-0.005-0.001-0.007m0.008 0.048c0.001 0.002 0.001 0.002 0.001 0.004 0-0.002 0-0.003-0.001-0.004m0.008 0.043c0 0.002 0.001 0.004 0.001 0.006 0-0.002-0.001-0.004-0.001-0.006m0.007 0.041c0.001 0.004 0.001 0.007 0.002 0.011-0.001-0.003-0.001-0.008-0.002-0.011m0.01 0.056c0.069 0.406 0.131 0.821 0.187 1.242 0.929 7.037-0.001 16.023-2.281 24.074-0.385 1.361-0.809 2.697-1.269 3.99-0.233 0.654-0.474 1.296-0.724 1.927-1.083 2.727-2.333 5.229-3.722 7.356-2.455 3.758-5.349 6.351-8.54 6.979 9.864-1.941 16.889-22.665 16.892-38.504 0.001-2.509-0.175-4.895-0.543-7.064m-49.853 37.606c2.926 1.181 5.867 2.257 8.731 3.211v-0.001c-2.865-0.954-5.804-2.029-8.731-3.21m8.731 3.21v0.001c1.487 0.495 2.952 0.957 4.387 1.385 0.007 0.002 0.014 0.004 0.02 0.006 0.013 0.004 0.024 0.007 0.037 0.011 0.015 0.004 0.03 0.009 0.045 0.013 0.007 0.002 0.016 0.005 0.023 0.007 6.601 1.96 12.508 3.179 16.547 3.446-2.403-0.159-5.468-0.655-8.947-1.444-3.674-0.833-7.809-1.992-12.112-3.425m21.059 4.869c0.009 0 0.019 0.001 0.028 0.002-0.009-0.001-0.019-0.002-0.028-0.002m0.04 0.002c0.013 0.001 0.027 0.002 0.04 0.003-0.013-0.001-0.027-0.002-0.04-0.003m0.059 0.004c0.007 0.001 0.013 0.001 0.021 0.001-0.007 0-0.014 0-0.021-0.001m0.04 0.003c0.006 0 0.011 0 0.017 0.001-0.006-0.001-0.011-0.001-0.017-0.001m0.057 0.003h0.003-0.003m0.043 0.002c0.003 0.001 0.004 0.001 0.007 0.001-0.003 0-0.005 0-0.007-0.001m0.094 0.006"/></g><g id="g90" fill-rule="evenodd" transform="matrix(.37726 .014517 .013868 -.35232 129.91 390.17)"><path id="path134" fill="#fff" d="m683.1 445.82-443.01 218.76-309.39-626.55 443.01-218.76 309.39 626.54"/><path id="path136" fill="#fff" d="m719.84 511.78-21.905 31.475-15.371-10.697 21.905-31.475 15.371 10.697"/><path id="path138" fill="#cde9fa" d="m716.38 533.61 29.883-42.942c4.726-6.792 3.037-16.214-3.754-20.939l-4.633-3.224c-6.791-4.726-16.213-3.036-20.939 3.756l-29.883 42.941 29.326 20.408"/><path id="path140" fill="#4c8eb4" d="m711.61 530.29 27.895-40.085c3.191-4.584 2.051-10.945-2.533-14.136l-3.127-2.174c-4.584-3.191-10.946-2.05-14.135 2.534l-27.895 40.085 19.795 13.776"/><path id="path142" fill="#cde9fa" d="m688.07 574.28 8.994-12.922-29.326-20.409-8.992 12.923c-4.727 6.792-3.037 16.214 3.754 20.941l4.631 3.222c6.791 4.726 16.215 3.036 20.939-3.755"/><path id="path144" fill="#4c8eb4" d="m685.3 568.11 7.004-10.067-19.795-13.775-7.006 10.066c-3.189 4.584-2.049 10.944 2.535 14.135l3.125 2.176c4.584 3.189 10.945 2.049 14.137-2.535"/><path id="path146" fill="#d67c32" d="m697.27 537.48c0.48-0.688 0.31-1.636-0.379-2.116-0.69-0.479-1.637-0.309-2.116 0.379-0.48 0.69-0.31 1.637 0.379 2.117 0.688 0.479 1.637 0.309 2.116-0.38"/><path id="path148" fill="#d67c32" d="m690.72 532.92c0.478-0.688 0.308-1.636-0.381-2.116-0.688-0.479-1.637-0.309-2.115 0.38-0.481 0.688-0.309 1.636 0.379 2.116 0.689 0.478 1.636 0.309 2.117-0.38"/></g><g id="g100" transform="matrix(.37726 .014517 .013868 -.35232 129.91 390.17)"><path id="path150" fill="#ab6328" d="m0 166.32v108.63l63.63 20.23-63.63-128.86"/><path id="path158" fill="#ffedc4" d="m558.7 565.6-342.51 296.81 189.3 218.49 342.51-296.85-189.3-218.45"/><path id="path160" fill="#fff" d="m232.68 851.64 153.83-133.3 186.11 214.77-153.82 133.29-186.12-214.76"/><path id="path162" fill="#726657" d="m410.53 759.43c2.201-1.909 2.436-5.245 0.528-7.446-1.909-2.205-5.243-2.445-7.446-0.537-2.201 1.908-2.433 5.24-0.525 7.444 1.908 2.2 5.24 2.447 7.443 0.539"/><path id="path164" fill="#8c8e90" d="m411.2 753.63c0.571 0.659 0.938 1.42 1.139 2.214 0.1-1.348-0.313-2.745-1.275-3.854-1.909-2.205-5.243-2.445-7.446-0.537-1.541 1.335-2.109 3.372-1.668 5.23 0.11-1.34 0.711-2.639 1.805-3.586 2.201-1.907 5.539-1.664 7.445 0.533"/><path id="path166" fill="#726657" d="m424.4 775.44c2.202-1.908 2.44-5.242 0.53-7.445-1.909-2.202-5.242-2.442-7.444-0.534-2.201 1.908-2.435 5.238-0.527 7.44 1.91 2.204 5.24 2.447 7.441 0.539"/><path id="path168" fill="#8c8e90" d="m425.06 769.63c0.574 0.661 0.945 1.425 1.142 2.217 0.098-1.35-0.312-2.746-1.275-3.856-1.909-2.202-5.242-2.442-7.444-0.534-1.541 1.335-2.111 3.369-1.67 5.229 0.11-1.341 0.713-2.638 1.807-3.586 2.201-1.906 5.531-1.672 7.44 0.53"/><path id="path170" fill="#726657" d="m438.27 791.44c2.204-1.907 2.436-5.245 0.53-7.444-1.908-2.203-5.242-2.443-7.444-0.535-2.203 1.908-2.435 5.238-0.525 7.441 1.904 2.2 5.238 2.447 7.439 0.538"/><path id="path172" fill="#8c8e90" d="m438.94 785.64c0.572 0.659 0.943 1.425 1.142 2.216 0.098-1.35-0.318-2.75-1.277-3.856-1.908-2.203-5.242-2.443-7.444-0.535-1.541 1.335-2.111 3.371-1.669 5.231 0.107-1.343 0.714-2.637 1.808-3.586 2.199-1.906 5.531-1.672 7.44 0.53"/><path id="path174" fill="#726657" d="m452.14 807.45c2.203-1.907 2.437-5.242 0.531-7.444-1.91-2.204-5.244-2.443-7.445-0.535-2.204 1.908-2.436 5.239-0.526 7.442 1.906 2.201 5.238 2.446 7.44 0.537"/><path id="path176" fill="#8c8e90" d="m452.8 801.64c0.574 0.661 0.941 1.422 1.142 2.217 0.098-1.35-0.316-2.75-1.273-3.855-1.91-2.204-5.244-2.443-7.445-0.535-1.541 1.335-2.112 3.37-1.668 5.23 0.107-1.34 0.712-2.637 1.806-3.585 2.199-1.907 5.529-1.673 7.438 0.528"/></g><g id="g113" fill="#343434" transform="matrix(.37726 .014517 .013868 -.35232 129.91 390.17)"><path id="path178" d="m452.91 804 1.84-1.594v-1.952l-2.805 2.432c-0.265 0.228-0.935 0.053-1.441-0.529-0.502-0.582-0.584-1.273-0.319-1.502l4.565-3.955v-1.95l-5.529 4.791c-0.94 0.817-0.864 2.383 0.171 3.579 1.036 1.195 2.579 1.496 3.518 0.68zm1.84-1.594 5.533-4.795c0.934-0.809 0.859-2.381-0.178-3.576-1.035-1.195-2.578-1.491-3.511-0.682l-1.844 1.597v1.95l2.809-2.435c0.257-0.224 0.929-0.044 1.433 0.536 0.504 0.582 0.584 1.27 0.326 1.494l-4.568 3.959v1.952"/><path id="path180" d="m439.14 788.1 1.838-1.592v-1.955l-2.805 2.43c-0.266 0.23-0.936 0.054-1.441-0.529-0.502-0.581-0.583-1.271-0.319-1.501l4.565-3.954v-1.95l-5.53 4.791c-0.939 0.815-0.863 2.383 0.174 3.578 1.035 1.195 2.578 1.497 3.518 0.682zm1.838-1.592 5.535-4.798c0.933-0.807 0.857-2.381-0.178-3.575-1.037-1.197-2.58-1.492-3.514-0.685l-1.843 1.599v1.95l2.808-2.434c0.26-0.225 0.93-0.045 1.434 0.535 0.504 0.582 0.584 1.269 0.326 1.494l-4.568 3.959v1.955"/><path id="path182" d="m425.36 772.2 1.838-1.592v-1.955l-2.804 2.43c-0.266 0.23-0.938 0.052-1.442-0.529s-0.584-1.273-0.318-1.501l4.564-3.956v-1.946l-5.527 4.789c-0.941 0.816-0.865 2.38 0.17 3.577 1.035 1.194 2.58 1.498 3.519 0.683zm1.838-1.592 5.537-4.797c0.932-0.809 0.854-2.384-0.179-3.578-1.037-1.196-2.578-1.49-3.512-0.682l-1.846 1.6v1.946l2.809-2.435c0.258-0.224 0.93-0.045 1.434 0.537 0.501 0.581 0.585 1.27 0.326 1.495l-4.569 3.959v1.955"/><path id="path184" d="m411.58 756.3 1.838-1.593v-1.953l-2.805 2.43c-0.265 0.229-0.935 0.053-1.439-0.528s-0.586-1.273-0.32-1.503l4.564-3.955v-1.945l-5.527 4.79c-0.942 0.815-0.866 2.379 0.172 3.576 1.035 1.195 2.578 1.496 3.517 0.681zm1.838-1.593 5.535-4.797c0.934-0.808 0.858-2.38-0.178-3.574-1.037-1.197-2.578-1.491-3.511-0.683l-1.846 1.6v1.945l2.809-2.434c0.259-0.225 0.931-0.043 1.433 0.538 0.504 0.581 0.586 1.269 0.326 1.493l-4.568 3.959v1.953"/></g><g id="g119" fill="#5d5e60" transform="matrix(.37726 .014517 .013868 -.35232 129.91 390.17)"><path id="path186" d="m305.5 904.91 125.69-108.92 0.279 0.324-125.69 108.92-0.279-0.324"/><path id="path188" d="m298.89 897.29 125.68-108.92 0.281 0.325-125.68 108.92-0.281-0.326"/><path id="path190" d="m292.29 889.67 125.69-108.92 0.287 0.33-125.69 108.92-0.286-0.33"/><path id="path192" d="m285.69 882.06 125.68-108.92 0.285 0.328-125.68 108.92-0.285-0.328"/><path id="path194" d="m279.09 874.44 125.68-108.92 0.284 0.327-125.69 108.92-0.283-0.328"/><path id="path196" d="m296.61 845.92 101.57-88.015 0.283 0.329-101.57 88.015-0.285-0.329"/></g><g id="g127" transform="matrix(.37726 .014517 .013868 -.35232 129.91 390.17)"><path id="path198" fill="#4c8eb4" d="m683.99 750.03 3.762-3.261c5.863-5.08 14.142-5.127 18.49-0.11l27.088 31.259c4.352 5.023 3.127 13.208-2.736 18.289l-3.762 3.261-42.842-49.438"/><path id="path200" fill="#da4622" d="m653.46 714.79 3.764-3.261c5.861-5.081 14.138-5.129 18.49-0.108l27.084 31.254c4.352 5.023 3.129 13.211-2.734 18.291l-3.762 3.262-42.842-49.438"/><path id="path202" fill="#f9a818" d="m623.12 679.78 3.764-3.26c5.861-5.081 14.141-5.128 18.49-0.108l27.086 31.256c4.35 5.02 3.125 13.207-2.736 18.287l-3.764 3.261-42.84-49.436"/><path id="path204" fill="#bcbdbf" d="m542.82 582.89-153.83 133.3 186.11 214.77 153.83-133.31-186.11-214.76"/><path id="path206" fill="#fff" d="m728.93 797.65-153.83 133.31-186.11-214.77l113.7-98.53 62.67-8.76 163.57 188.75"/><path id="path208" fill="#c8cacd" d="m502.69 617.66s20.645 1.819 32.124 19.242c0 0 13.087-20.841 30.548-28.002l-62.672 8.76"/><path id="path210" fill="#726657" d="m426.25 745.81c-2.205 1.91-5.543 1.668-7.449-0.534-1.91-2.204-1.672-5.539 0.531-7.448 2.197-1.905 5.533-1.665 7.441 0.539 1.909 2.2 1.674 5.538-0.523 7.443"/><path id="path212" fill="#8c8e90" d="m420.41 745.64c0.573 0.659 1.272 1.13 2.03 1.442-1.346-0.095-2.672-0.699-3.633-1.81-1.91-2.204-1.672-5.539 0.531-7.448 1.539-1.335 3.637-1.61 5.41-0.906-1.338-0.085-2.711 0.328-3.805 1.275-2.199 1.907-2.437 5.249-0.533 7.447"/><path id="path214" fill="#726657" d="m440.12 761.81c-2.205 1.91-5.539 1.67-7.447-0.532-1.91-2.202-1.672-5.537 0.533-7.447 2.197-1.904 5.531-1.664 7.439 0.537 1.909 2.203 1.672 5.537-0.525 7.442"/><path id="path216" fill="#8c8e90" d="m434.28 761.65c0.575 0.662 1.278 1.138 2.034 1.447-1.348-0.097-2.674-0.701-3.635-1.811-1.91-2.202-1.672-5.537 0.533-7.447 1.539-1.334 3.635-1.611 5.408-0.906-1.338-0.086-2.709 0.329-3.802 1.276-2.202 1.906-2.446 5.24-0.538 7.441"/><path id="path218" fill="#726657" d="m453.99 777.82c-2.205 1.91-5.543 1.668-7.447-0.531-1.91-2.203-1.672-5.538 0.531-7.448 2.199-1.904 5.533-1.664 7.442 0.538 1.906 2.199 1.671 5.537-0.526 7.441"/><path id="path220" fill="#8c8e90" d="m448.15 777.65c0.573 0.66 1.276 1.137 2.032 1.447-1.348-0.098-2.676-0.705-3.635-1.812-1.91-2.203-1.672-5.538 0.531-7.448 1.541-1.334 3.637-1.609 5.412-0.904-1.342-0.088-2.711 0.329-3.804 1.277-2.2 1.906-2.444 5.239-0.536 7.44"/><path id="path222" fill="#726657" d="m467.86 793.83c-2.203 1.911-5.539 1.671-7.447-0.531-1.91-2.203-1.672-5.538 0.533-7.448 2.197-1.905 5.531-1.664 7.44 0.539 1.908 2.201 1.674 5.536-0.526 7.44"/><path id="path224" fill="#8c8e90" d="m462.02 793.66c0.572 0.662 1.273 1.135 2.033 1.448-1.348-0.098-2.678-0.705-3.635-1.811-1.91-2.203-1.672-5.538 0.533-7.448 1.539-1.334 3.635-1.61 5.41-0.905-1.338-0.084-2.711 0.33-3.804 1.278-2.2 1.906-2.446 5.237-0.537 7.438"/></g><g id="g143" fill="#343434" transform="matrix(.37726 .014517 .013868 -.35232 129.91 390.17)"><path id="path226" d="m458.81 791.44-5.532 4.794c-0.935 0.81-0.863 2.382 0.172 3.578 1.035 1.195 2.582 1.49 3.518 0.68l1.842-1.596v-1.953l-2.809 2.434c-0.258 0.225-0.928 0.048-1.434-0.534-0.501-0.58-0.584-1.271-0.324-1.496l4.567-3.958v-1.949zm5.357-0.915c-1.035-1.197-2.578-1.493-3.519-0.677l-1.838 1.592v1.949l2.802-2.428c0.268-0.231 0.94-0.053 1.442 0.529 0.504 0.582 0.584 1.27 0.318 1.501l-4.562 3.952v1.953l5.527-4.79c0.941-0.815 0.865-2.386-0.17-3.581"/><path id="path228" d="m445.03 775.54-5.531 4.794c-0.935 0.811-0.865 2.383 0.172 3.578 1.035 1.196 2.584 1.493 3.52 0.682l1.839-1.596v-1.955l-2.808 2.435c-0.258 0.223-0.928 0.048-1.432-0.534s-0.586-1.272-0.326-1.496l4.566-3.957v-1.951zm5.358-0.916c-1.035-1.195-2.578-1.491-3.52-0.676l-1.838 1.592v1.951l2.803-2.429c0.268-0.232 0.94-0.054 1.441 0.528 0.506 0.582 0.584 1.27 0.319 1.501l-4.563 3.952v1.955l5.53-4.791c0.941-0.814 0.865-2.388-0.172-3.583"/><path id="path230" d="m431.25 759.64-5.531 4.793c-0.934 0.81-0.865 2.38 0.172 3.576 1.035 1.194 2.584 1.493 3.519 0.683l1.84-1.594v-1.955l-2.807 2.432c-0.259 0.224-0.931 0.046-1.435-0.535-0.502-0.581-0.584-1.271-0.326-1.495l4.568-3.959v-1.946zm5.357-0.918c-1.035-1.196-2.578-1.491-3.517-0.675l-1.84 1.593v1.946l2.803-2.428c0.267-0.231 0.937-0.053 1.441 0.528s0.586 1.271 0.319 1.503l-4.563 3.954v1.955l5.531-4.792c0.94-0.816 0.862-2.391-0.174-3.584"/><path id="path232" d="m417.47 743.74-5.53 4.793c-0.935 0.81-0.865 2.379 0.172 3.577 1.034 1.194 2.582 1.49 3.518 0.68l1.84-1.596v-1.954l-2.807 2.434c-0.26 0.225-0.93 0.047-1.433-0.533-0.502-0.58-0.586-1.273-0.327-1.497l4.567-3.959v-1.945zm5.359-0.918c-1.037-1.197-2.578-1.491-3.519-0.675l-1.84 1.593v1.945l2.802-2.428c0.268-0.231 0.94-0.051 1.444 0.53 0.504 0.58 0.582 1.27 0.316 1.5l-4.562 3.953v1.954l5.529-4.791c0.94-0.814 0.865-2.386-0.17-3.581"/></g><g id="g149" fill="#5d5e60" transform="matrix(.37726 .014517 .013868 -.35232 129.91 390.17)"><path id="path234" d="m684.19 776.78-125.68 108.92 0.285 0.33 125.68-108.92-0.287-0.331"/><path id="path236" d="m677.59 769.17-125.69 108.92 0.285 0.328 125.68-108.92-0.283-0.327"/><path id="path238" d="m670.99 761.55-125.68 108.92 0.283 0.327 125.68-108.92-0.285-0.327"/><path id="path240" d="m664.4 753.94-125.68 108.92 0.281 0.324 125.68-108.92-0.281-0.323"/><path id="path242" d="m657.79 746.32-125.69 108.92 0.288 0.33 125.68-108.92-0.285-0.33"/><path id="path244" d="m651.19 738.7-125.68 108.92 0.287 0.331 125.68-108.92-0.286-0.33"/><path id="path246" d="m644.59 731.08-125.68 108.92l0.283 0.329 125.69-108.92-0.285-0.328"/><path id="path248" d="m637.99 723.47-125.68 108.92 0.287 0.332 125.68-108.92-0.285-0.331"/><path id="path250" d="m631.39 715.85-125.68 108.92 0.279 0.323 125.69-108.92-0.281-0.323"/><path id="path252" d="m624.79 708.23-125.68 108.92 0.285 0.33 125.68-108.92-0.285-0.33"/><path id="path254" d="m618.19 700.62-125.68 108.92 0.283 0.327 125.69-108.92-0.284-0.328"/><path id="path256" d="m611.59 693-125.69 108.92 0.282 0.324 125.68-108.92-0.279-0.323"/><path id="path258" d="m604.99 685.38-125.68 108.92 0.285 0.327 125.68-108.92-0.283-0.328"/><path id="path260" d="m598.38 677.76-125.68 108.92 0.287 0.332 125.69-108.92-0.289-0.332"/><path id="path262" d="m591.78 670.15-125.68 108.91 0.287 0.331 125.68-108.92-0.285-0.33"/><path id="path264" d="m585.19 662.54-125.68 108.92 0.279 0.325 125.69-108.92-0.281-0.323"/><path id="path266" d="m578.59 654.92-125.69 108.91 0.284 0.325 125.68-108.92-0.281-0.326"/><path id="path268" d="m571.98 647.3-125.68 108.92 0.287 0.331 125.68-108.92-0.285-0.33"/><path id="path270" d="m565.38 639.68-125.69 108.92 0.285 0.329 125.69-108.92-0.285-0.328"/><path id="path272" d="m558.78 632.06-125.68 108.92 0.283 0.327 125.68-108.92-0.283-0.328"/><path id="path274" d="m528.06 645.35-101.56 88.013 0.283 0.328 101.57-88.013-0.285-0.328"/></g><path id="path276" fill="#d2d2d2" d="m342.47 168.1-5.4789-7.0763-0.35471-1.5475 6.4831 5.6771-0.0285 0.12946-0.62097 2.8173"/><path id="path278" fill="#d2d2d2" d="m343.16 164.98-6.5817-5.7634-1.334-5.8194 8.7743 7.6834-0.85854 3.8995m0.89723-4.0762-8.8733-7.7701-1.3337-5.8184 9.6213 8.4248 0.87831 3.834-0.29264 1.3296m-0.64534-5.4235-9.6213-8.4252-1.3346-5.8234 9.622 8.4259 1.3339 5.8226m-1.3929-6.0811-9.6224-8.4259-1.3337-5.8191 9.6228 8.4263 1.3333 5.8187m-1.3936-6.0825-9.6232-8.4267-1.3334-5.8177 9.6239 8.4274 1.3326 5.8169m-1.3936-6.0822-9.6239-8.4274-1.333-5.8159 9.6246 8.4278 1.3323 5.8155m-1.3923-6.0772-9.6246-8.4281-1.334-5.8198 9.6254 8.4282 1.3333 5.8198m-1.3923-6.0779-9.6257-8.4289-0.26859-1.1723 4.4423 0.17094 4.1174 3.6051 1.3346 5.8251m-1.3946-6.0861-3.8081-3.3346 3.0713 0.11818 0.73675 3.2164"/><g id="g174" fill="#505153" transform="matrix(.37726 .014517 .013868 -.35232 129.91 390.17)"><path id="path280" d="m514.87 790.15-11.273 9.768h0.661l10.426-9.035 0.186-0.733"/><path id="path282" d="m519.2 773.06-26.353 22.836-0.184 0.727 26.354-22.838 0.183-0.725"/><path id="path284" d="m523.52 755.98-26.351 22.835-0.186 0.736 26.351-22.836 0.186-0.735"/><path id="path286" d="m527.84 738.9-26.349 22.834-0.189 0.745 26.349-22.834 0.189-0.745"/><path id="path288" d="m532.16 721.82-26.346 22.831-0.188 0.742 26.347-22.832 0.187-0.741"/><path id="path290" d="m536.48 704.75-26.344 22.83-0.184 0.726 26.345-22.83 0.183-0.726"/><path id="path292" d="m540.8 687.66-26.342 22.827-0.185 0.731 26.342-22.828 0.185-0.73"/><path id="path294" d="m542.8 672.59-24.023 20.818-0.187 0.74 24.294-21.053-0.084-0.505"/><path id="path296" d="m540.85 660.94-17.75 15.382-0.186 0.737 18.02-15.616-0.084-0.503"/></g><g fill-rule="evenodd"><g id="g185" transform="matrix(.37726 .014517 .013868 -.35232 129.91 390.17)"><path id="path298" fill="#f9a818" d="m538.5 682.11-4.082-24.375-15.238 19.457-54.342 214.75c-0.735 2.9 1.029 5.873 3.928 6.611l8.781 2.235c2.898 0.737 5.873-1.03 6.611-3.928l54.34-214.76"/><path id="path300" fill="#b37306" d="m538.5 682.11-4.082-24.375-5.801 22.791-55.461 219.15 4.391 1.117c2.898 0.737 5.873-1.03 6.611-3.928l54.34-214.75"/><path id="path302" fill="#fff" d="m538.5 682.11-4.082-24.375-15.238 19.457-52.368 206.99c6.508 2.888 12.918 4.465 19.321 4.918l52.37-207"/><path id="path304" fill="#d0d0d0" d="m538.5 682.11-4.082-24.375-5.801 22.791-52.361 206.96c3.303 0.85 6.59 1.379 9.877 1.612l52.36-206.99"/><path id="path306" fill="#da4622" d="m538.5 682.11-4.082-24.375-15.238 19.457-50.799 200.83c6.525 2.977 12.933 4.55 19.32 4.918l50.8-200.84"/><path id="path308" fill="#ad2c0c" d="m538.5 682.11-4.082-24.375-5.801 22.791-50.807 200.86c3.313 0.855 6.604 1.363 9.891 1.553l50.8-200.83"/><path id="path310" fill="#f0b16c" d="m538.5 682.11-4.082-24.375-15.238 19.457c2.923 1.351 6.086 2.482 9.437 3.334 3.35 0.853 6.668 1.372 9.883 1.584"/><path id="path312" fill="#c78b4c" d="m538.5 682.11-4.082-24.375-5.801 22.791c3.35 0.853 6.668 1.373 9.883 1.584"/><path id="path314" fill="#1e1e1e" d="m535.77 665.79-1.349-8.053-5.033 6.428c0.965 0.446 2.009 0.82 3.117 1.102 1.107 0.282 2.203 0.453 3.265 0.523"/></g><g id="g197" transform="matrix(.37726 .014517 .013868 -.35232 129.91 390.17)"><path id="path360" fill="#ffedc4" d="m748.11 107.27c-8.9-46.996-54.2-77.881-101.19-68.989-46.992 8.8949-77.877 54.198-68.984 101.19 8.894 46.992 54.197 77.877 101.19 68.982 46.994-8.892 77.879-54.195 68.986-101.19"/><path id="path362" fill="#f0d8a1" d="m742.88 108.26c-8.35-44.108-50.87-73.096-94.97-64.748-44.11 8.345-73.1 50.865-64.75 94.968 8.346 44.104 50.865 73.092 94.971 64.745 44.103-8.346 73.092-50.866 64.744-94.971"/><path id="path364" fill="#ffedc4" d="m765.73 109.35-1.08-5.703c-0.691-3.661-4.254-6.0879-7.914-5.395l-41.83 7.916c-3.66 0.692-6.088 4.254-5.396 7.914l1.08 5.703c0.693 3.66 4.254 6.088 7.914 5.397l41.83-7.916c3.662-0.694 6.09-4.254 5.396-7.916"/><path id="path366" fill="#f0d8a1" d="m762.22 108.93-0.686-3.623c-0.439-2.325-2.703-3.868-5.027-3.428l-39.27 7.432c-2.324 0.441-3.865 2.703-3.425 5.027l0.685 3.623c0.44 2.326 2.701 3.867 5.027 3.428l39.268-7.432c2.324-0.439 3.867-2.701 3.428-5.027"/><path id="path368" fill="#ffedc4" d="m730.04 110.69c-7.006-37.018-42.691-61.346-79.707-54.34-37.018 7.0059-61.346 42.691-54.34 79.707 7.006 37.015 42.692 61.346 79.707 54.34 37.016-7.006 61.346-42.692 54.34-79.707"/><path id="path370" fill="#f0d8a1" d="m723.39 111.94c-6.31-33.336-38.45-55.249-71.8-48.94-33.34 6.3109-55.252 38.453-48.944 71.795 6.311 33.34 38.454 55.252 71.793 48.941 33.342-6.308 55.254-38.451 48.944-71.791"/><path id="path372" fill="#6e532a" d="m714.36 113.65c-5.365-28.353-32.699-46.988-61.05-41.621-28.354 5.366-46.989 32.699-41.621 61.051 5.365 28.354 32.699 46.986 61.05 41.621 28.354-5.365 46.987-32.699 41.621-61.051"/><path id="path374" fill="#4f3a1c" d="m700.1 116.35c-3.88-20.475-23.62-33.932-44.1-30.057-20.477 3.875-33.934 23.615-30.059 44.094 3.875 20.476 23.616 33.933 44.094 30.058 20.477-3.875 33.934-23.615 30.059-44.093"/><path id="path376" fill="#997c51" d="m684.51 82.195c-8.936-4.6699-19.447-6.4801-30.125-4.459-25.203 4.77-41.766 29.067-36.996 54.268 2.019 10.676 7.545 19.801 15.156 26.412-6.072-6.361-10.438-14.488-12.195-23.771-4.844-25.596 11.978-50.272 37.576-55.118 9.283-1.7551 18.443-0.6598 26.584 2.6679"/></g><g id="g208" fill="#d4b194" transform="matrix(.37726 .014517 .013868 -.35232 129.91 390.17)"><path id="path378" d="m364.15 239.93c8.452 3.541 12.73 13.488 8.93 21.803l-36.279 79.361c-3.801 8.314-13.35 12.471-21.803 8.93-8.453-3.543-12.45-13.34-8.927-21.803l36.28-79.36c3.81-8.338 13.348-12.471 21.8-8.93"/><path id="path380" d="m327.15 238.68c8.909 2.15 14.715 11.291 12.285 20.103l-23.19 84.121c-2.429 8.815-11.196 14.438-20.104 12.286-8.909-2.151-14.414-11.188-12.282-20.104l23.189-84.123c2.435-8.838 11.194-14.436 20.102-12.283"/><path id="path382" d="m195.98 313.8 84.161 67.525 75.902-41.662 16.217-53.732-138.93-15.827-37.352 43.696"/><path id="path384" d="m287.97 239.99c9.158-0.347 17.226 6.871 17.282 16.014l0.522 87.258c0.055 9.142-6.856 16.933-16.014 17.283-9.158 0.348-16.91-6.856-17.278-16.014l-0.524-87.26c-0.057-9.168 6.854-16.933 16.012-17.281"/></g><g id="g214" fill="#ffd7b7" transform="matrix(.37726 .014517 .013868 -.35232 129.91 390.17)"><path id="path386" d="m219.75 325.53c-32.94 10.944-65.6-32.306-62.558-57.066 3.043-24.76 32.357-39.822 67.232-37.484 34.874 2.337 55.072 30.935 53.128 43.908-1.943 12.974-24.863 39.699-57.802 50.642"/><path id="path388" d="m180.5 304.77c4.406-8.036 15.68-12.54 22.617-6.6l84.691 72.5c6.937 5.939 11.005 14.582 6.599 22.617-4.406 8.037-14.569 10.986-22.615 6.598l-84.693-72.5c-6.965-5.959-11.005-14.58-6.599-22.615"/><path id="path390" d="m362.06 348.9c3.455 8.489-0.767 18.077-9.148 21.713l-66.947 29.057c-8.381 3.637-18.258-0.658-21.713-9.147-3.455-8.488 0.667-18.234 9.148-21.709l66.949-29.06c8.409-3.649 18.255 0.658 21.711 9.146"/><path id="path392" d="m401.75 263.54c8.024 4.428 11.207 14.777 6.535 22.635l-44.595 75.004c-4.672 7.857-14.613 10.965-22.637 6.535-8.023-4.428-10.945-14.6-6.532-22.635l44.594-75.006c4.684-7.879 14.611-10.963 22.635-6.533"/><path id="path394" d="m301.85 355.84c-13.294-8.35-65.936-43.029-31.751-63.219 34.184-20.189-68.536-19.088-68.536-19.088l10.257 64.26s41.145 45.184 90.03 18.047"/></g><path id="path396" fill="#254554" d="m288.19 304.5-75.102-65.956-4.9978 4.9664 75.106 65.956 4.994-4.9666"/><g id="g222" fill="#5896cc" transform="matrix(.37726 .014517 .013868 -.35232 129.91 390.17)"><path id="path398" d="m267.03 389.38-60.169 52.293-17.732-20.402 60.168-52.293 17.733 20.402"/><path id="path400" d="m398.1 246.36c2.611-1.086 6.828-3.9 6.539-10.824 6.002 3.158 17.422-1.935 20.39-4.084 0.592-0.428 1.391-0.457 2.055-0.06l-17.299 15.035c-0.719-0.401-1.642-0.332-2.299 0.238-0.838 0.731-0.927 2-0.199 2.84 0.729 0.838 2 0.928 2.838 0.197 0.658-0.57 0.856-1.474 0.559-2.242l17.3-15.035c0.307 0.719 0.174 1.517-0.349 2.025-2.709 2.631-9.176 13.24-6.885 19.625-5.271-1.242-9.453 1.215-11.629 4.965l-11.02-12.68"/><path id="path402" d="m271.5 394.52-68.174 43.081 3.538 4.071 68.175-43.08-3.539-4.072"/><path id="path404" d="m273.27 396.55-3.211 2.791-6.237-7.176 3.211-2.791 6.237 7.176"/><path id="path406" d="m393.41 274.46-3.997 3.475-12.702-14.616 3.998-3.474 12.701 14.615"/></g><g id="g229" transform="matrix(.37726 .014517 .013868 -.35232 129.91 390.17)"><path id="path408" fill="#ffd7b7" d="m209.24 336.61 15.996-83.115-49.295-17.418-25.024 81.153 58.323 19.38"/><path id="path410" fill="#fff" d="m156.6 327.88 32.76-103.05-31.83-10.12-32.77 103.05 31.84 10.12"/><path id="path412" fill="#6da675" d="m-264.85 205.2 39.3-123.6 386.35 122.84-39.3 123.6-386.35-122.84"/><path id="path414" fill="#ffd7b7" d="m244.89 274.65c-0.34-10.756 8.206-20.588 18.933-20.172l96.928 3.763c10.726 0.416 19.831 8.178 20.171 18.934 0.339 10.756-8.178 19.803-18.934 20.168l-96.93-3.762c-10.754-0.418-19.83-8.178-20.168-18.931"/><path id="path416" fill="#254554" d="m252.66 401.86-4.6 3.997-17.731-20.403 4.599-3.998 17.732 20.404"/></g></g></svg>
