<?xml version="1.0" encoding="UTF-8" standalone="no"?>
<!-- Created with Inkscape (http://www.inkscape.org/) -->

<svg
   xmlns:dc="http://purl.org/dc/elements/1.1/"
   xmlns:cc="http://creativecommons.org/ns#"
   xmlns:rdf="http://www.w3.org/1999/02/22-rdf-syntax-ns#"
   xmlns:svg="http://www.w3.org/2000/svg"
   xmlns="http://www.w3.org/2000/svg"
   xmlns:sodipodi="http://sodipodi.sourceforge.net/DTD/sodipodi-0.dtd"
   xmlns:inkscape="http://www.inkscape.org/namespaces/inkscape"
   height="61"
   width="61"
   version="1.1"
   viewBox="0 0 16.139583 16.139584"
   id="svg40"
   sodipodi:docname="conversion.svg"
   inkscape:version="0.92.3 (unknown)">
  <metadata
     id="metadata46">
    <rdf:RDF>
      <cc:Work
         rdf:about="">
        <dc:format>image/svg+xml</dc:format>
        <dc:type
           rdf:resource="http://purl.org/dc/dcmitype/StillImage" />
      </cc:Work>
    </rdf:RDF>
  </metadata>
  <defs
     id="defs44" />
  <sodipodi:namedview
     pagecolor="#ffffff"
     bordercolor="#666666"
     borderopacity="1"
     objecttolerance="10"
     gridtolerance="10"
     guidetolerance="10"
     inkscape:pageopacity="0"
     inkscape:pageshadow="2"
     inkscape:window-width="1366"
     inkscape:window-height="744"
     id="namedview42"
     showgrid="false"
     inkscape:zoom="3.8688525"
     inkscape:cx="30.5"
     inkscape:cy="30.5"
     inkscape:window-x="0"
     inkscape:window-y="24"
     inkscape:window-maximized="1"
     inkscape:current-layer="g38" />
  <g
     transform="translate(0 -280.86)"
     id="g38">
    <g
       transform="matrix(0.3859631,0,0,-0.35278,-1577.3763,1559.8316)"
       id="g36">
      <g
         transform="matrix(0.54533,0,0,0.54533,-1.1364,4.5457)"
         id="g34">
        <g
           transform="matrix(0.16241,0,0,-0.16241,7493.1,6639.1)"
           id="g32">
          <ellipse
             rx="144.53999"
             ry="14.369"
             cy="448.92999"
             cx="256"
             id="ellipse2"
             style="fill:#414c54" />
          <path
             d="m 68.921,101.39 h 374.16 c 12.291,0 22.35,10.055 22.35,22.35 V 354.23 H 46.581 V 123.74 c 0,-12.291 10.059,-22.35 22.35,-22.35 h -0.005 z"
             id="path4"
             inkscape:connector-curvature="0"
             style="fill:#666666" />
          <path
             d="m 61.743,339.06 h 388.51 V 123.74 c 0,-3.916 -3.257,-7.173 -7.173,-7.173 H 68.92 c -3.916,0 -7.173,3.257 -7.173,7.173 v 215.31 z"
             id="path6"
             inkscape:connector-curvature="0"
             style="fill:#21d0c3" />
          <g
             id="g12"
             style="fill:#eeeeee">
            <path
               d="m 465.43,354.23 v 24.442 c 0,12.295 -11.085,22.35 -24.637,22.35 H 71.213 c -13.552,0 -24.637,-10.055 -24.637,-22.35 V 354.23 Z"
               id="path8"
               inkscape:connector-curvature="0" />
            <path
               d="m 139.95,49.998 h 189.16 l 42.941,42.941 v 246.11 H 139.941 V 49.999 Z"
               id="path10"
               inkscape:connector-curvature="0" />
          </g>
          <path
             d="m 329.11,49.998 42.941,42.941 h -42.94 z"
             id="path14"
             inkscape:connector-curvature="0"
             style="fill:#fad24d" />
          <path
             d="M 372.05,135.88 329.11,92.938 h 42.941 z"
             id="path16"
             inkscape:connector-curvature="0"
             style="fill:#ecf0f1" />
          <path
             d="m 335.66,317.12 -10.244,-19.556 13.903,-7.279 -42.105,-33.172 3.289,53.5 13.903,-7.279 10.244,19.556 z"
             id="path18"
             inkscape:connector-curvature="0"
             style="fill:#21d0c3" />
          <path
             d="m 257.87,254.79 c -1.275,-0.587 -1.833,-2.097 -1.247,-3.376 0.587,-1.275 2.097,-1.833 3.371,-1.248 l 18.383,8.475 c 1.275,0.587 1.833,2.097 1.248,3.371 -0.587,1.275 -2.097,1.833 -3.371,1.252 z m 21.685,22.225 c 1.257,-0.628 2.781,-0.116 3.404,1.136 0.628,1.252 0.12,2.781 -1.136,3.404 l -25.643,12.803 c -1.252,0.628 -2.781,0.12 -3.404,-1.136 -0.628,-1.252 -0.116,-2.781 1.136,-3.404 z m 70.899,-32.797 c 1.252,-0.628 2.781,-0.116 3.404,1.136 0.628,1.257 0.116,2.781 -1.136,3.404 l -25.644,12.803 c -1.252,0.628 -2.781,0.116 -3.404,-1.136 -0.628,-1.257 -0.116,-2.781 1.136,-3.404 z m -34.087,-19.325 c 0.272,-1.376 1.612,-2.268 2.984,-1.995 1.376,0.272 2.273,1.612 1.995,2.988 l -3.958,19.856 c -0.272,1.376 -1.612,2.268 -2.988,1.995 -1.376,-0.273 -2.268,-1.612 -1.995,-2.984 l 3.958,-19.856 z m -37.19,-3.294 c -0.527,-1.302 0.106,-2.786 1.404,-3.307 1.302,-0.527 2.786,0.102 3.308,1.404 l 10.896,27.07 c 0.527,1.297 -0.102,2.781 -1.404,3.307 -1.297,0.527 -2.781,-0.102 -3.307,-1.404 z"
             id="path20"
             inkscape:connector-curvature="0"
             style="fill:#fad24d" />
          <path
             d="m 157.93,113.44 h 177.4 v 4.872 h -177.4 z m 0,52.484 h 177.4 v 4.877 h -177.4 z m 0,9.038 h 177.4 v 4.872 h -177.4 z m 0,9.04 h 177.4 v 4.872 h -177.4 z m 0,9.039 h 177.41 v 4.872 H 157.93 Z m 0,-70.561 h 177.4 v 4.872 h -177.4 z m 0,9.038 h 177.4 v 4.872 h -177.4 z m 0,9.039 h 177.41 v 4.872 H 157.93 Z m 0,9.04 h 135.89 v 4.872 H 157.93 Z m 0,52.482 h 135.89 v 4.872 H 157.93 Z"
             id="path22"
             inkscape:connector-curvature="0"
             style="fill:#dce3db" />
          <circle
             cy="376.26999"
             cx="256"
             r="7.8150001"
             id="circle24"
             style="fill:#b6b6b8" />
          <path
             d="m 305.06,436.74 36.096,11.565 h -170.32 l 29.121,-11.565 v -35.712 h 105.1 z"
             id="path26"
             inkscape:connector-curvature="0"
             style="fill:#c2c2c4" />
          <path
             d="m 305.06,436.74 -105.1,-35.72 h 105.1 z"
             id="path28"
             inkscape:connector-curvature="0"
             style="fill:#b0b0b0" />
          <path
             d="m 199.96,436.74 h 105.1 l 36.096,11.565 v 4.983 h -170.33 v -4.983 l 29.121,-11.565 z"
             id="path30"
             inkscape:connector-curvature="0"
             style="fill:#ecf0f1" />
        </g>
      </g>
    </g>
  </g>
</svg>
