<?xml version="1.0" encoding="UTF-8" standalone="no"?>
<!-- Created with Inkscape (http://www.inkscape.org/) -->

<svg
   xmlns:dc="http://purl.org/dc/elements/1.1/"
   xmlns:cc="http://creativecommons.org/ns#"
   xmlns:rdf="http://www.w3.org/1999/02/22-rdf-syntax-ns#"
   xmlns:svg="http://www.w3.org/2000/svg"
   xmlns="http://www.w3.org/2000/svg"
   xmlns:sodipodi="http://sodipodi.sourceforge.net/DTD/sodipodi-0.dtd"
   xmlns:inkscape="http://www.inkscape.org/namespaces/inkscape"
   height="61"
   width="61"
   version="1.1"
   viewBox="0 0 16.139583 16.139584"
   id="svg114"
   sodipodi:docname="responsive.svg"
   inkscape:version="0.92.3 (unknown)">
  <metadata
     id="metadata120">
    <rdf:RDF>
      <cc:Work
         rdf:about="">
        <dc:format>image/svg+xml</dc:format>
        <dc:type
           rdf:resource="http://purl.org/dc/dcmitype/StillImage" />
        <dc:title />
      </cc:Work>
    </rdf:RDF>
  </metadata>
  <defs
     id="defs118" />
  <sodipodi:namedview
     pagecolor="#ffffff"
     bordercolor="#666666"
     borderopacity="1"
     objecttolerance="10"
     gridtolerance="10"
     guidetolerance="10"
     inkscape:pageopacity="0"
     inkscape:pageshadow="2"
     inkscape:window-width="1366"
     inkscape:window-height="744"
     id="namedview116"
     showgrid="false"
     inkscape:zoom="2.7356918"
     inkscape:cx="-31.458734"
     inkscape:cy="13.943819"
     inkscape:window-x="0"
     inkscape:window-y="24"
     inkscape:window-maximized="1"
     inkscape:current-layer="g1291" />
  <g
     id="g1297"
     transform="translate(1.5286652,-281.78224)">
    <g
       id="g1295"
       transform="matrix(0.35278,0,0,-0.35278,-1441,1559.9)">
      <g
         id="g1293"
         transform="matrix(0.54533,0,0,0.54533,-1.1364,4.5457)">
        <g
           id="g1291"
           transform="matrix(0.16241,0,0,-0.16241,7493.1,6639.1)">
          <g
             transform="matrix(27.502882,0,0,35.820255,-14.507293,-10058.753)"
             id="g112">
            <g
               transform="matrix(0.35278,0,0,-0.35278,-1441,1559.9)"
               id="g110">
              <g
                 transform="matrix(0.54533,0,0,0.54533,-1.1364,4.5457)"
                 id="g108">
                <g
                   transform="matrix(0.16241,0,0,-0.16241,7493.1,6639.1)"
                   id="g106">
                  <g
                     transform="matrix(1.0047,0,0,0.99588,-1.6751,-2.9714)"
                     id="g104">
                    <g
                       transform="matrix(1.0078,0,0,1.0041,-2.0877,-0.21632)"
                       id="g102">
                      <g
                         transform="matrix(0.99175,0,0,0.99585,-0.4986,-3.2284)"
                         id="g100">
                        <g
                           transform="matrix(1.0123,0,0,1.0153,-1.0376,-3.9307)"
                           id="g98">
                          <path
                             d="m 49.359,118.03 h 370.52 c 12.173,0 22.133,9.959 22.133,22.133 v 228.25 H 27.232 v -228.25 c 0,-12.173 9.959,-22.133 22.132,-22.133 z"
                             id="path2"
                             inkscape:connector-curvature="0"
                             style="fill:#666666" />
                          <path
                             d="m 42.256,353.38 h 384.72 V 140.16 c 0,-3.876 -3.227,-7.103 -7.103,-7.103 H 49.353 c -3.876,0 -7.103,3.227 -7.103,7.103 v 213.22 z"
                             id="path4"
                             inkscape:connector-curvature="0"
                             style="fill:#ffffff" />
                          <path
                             d="m 50.218,163.47 h 368.8 v 85.374 h -368.8 z"
                             id="path6"
                             inkscape:connector-curvature="0"
                             style="fill:#ecf0f1" />
                          <path
                             d="m 7.082,368.41 h 455.08 v 12.782 c 0,7.029 -5.753,12.782 -12.782,12.782 H 19.86 c -7.029,0 -12.782,-5.753 -12.782,-12.782 V 368.41 Z"
                             id="path8"
                             inkscape:connector-curvature="0"
                             style="fill:#b6b6b8" />
                          <path
                             d="m 189.2,373.08 h 90.84 l -9.731,6.463 h -71.38 l -9.731,-6.463 z"
                             id="path10"
                             inkscape:connector-curvature="0"
                             style="fill:#919191" />
                          <path
                             d="m 331.13,198.4 h 136.09 c 4.316,0 7.814,3.498 7.814,7.814 v 179.94 c 0,4.316 -3.498,7.814 -7.814,7.814 H 331.13 c -4.316,0 -7.814,-3.498 -7.814,-7.814 v -179.94 c 0,-4.316 3.499,-7.814 7.814,-7.814 z"
                             id="path12"
                             inkscape:connector-curvature="0"
                             style="fill:#666666" />
                          <path
                             d="m 332.81,212.24 h 132.72 c 0.501,0 0.907,0.406 0.907,0.907 v 161.61 c 0,0.501 -0.406,0.907 -0.907,0.907 H 332.81 c -0.501,0 -0.907,-0.406 -0.907,-0.907 v -161.62 c 0,-0.501 0.406,-0.908 0.907,-0.908 z"
                             id="path14"
                             inkscape:connector-curvature="0"
                             style="fill:#ffffff" />
                          <circle
                             cy="384.48999"
                             cx="399.17999"
                             r="5.0960002"
                             id="circle16"
                             style="fill:#b6b6b8" />
                          <path
                             d="m 338.99,232.48 h 120.38 v 70.95 H 338.99 Z"
                             id="path18"
                             inkscape:connector-curvature="0"
                             style="fill:#ecf0f1" />
                          <path
                             d="m 437.9,268.4 h 63.051 c 2.191,0 3.966,1.776 3.966,3.966 v 117.64 c 0,2.191 -1.776,3.966 -3.966,3.966 h -63.05 c -2.191,0 -3.966,-1.776 -3.966,-3.966 v -117.65 c 0,-2.19 1.775,-3.966 3.966,-3.966 z"
                             id="path20"
                             inkscape:connector-curvature="0"
                             style="fill:#666666" />
                          <path
                             d="m 440.85,280.15 h 57.145 c 0.216,0 0.391,0.175 0.391,0.391 v 101.28 c 0,0.216 -0.175,0.391 -0.391,0.391 H 440.85 c -0.216,0 -0.391,-0.175 -0.391,-0.391 v -101.28 c 0,-0.215 0.176,-0.39 0.391,-0.39 z"
                             id="path22"
                             inkscape:connector-curvature="0"
                             style="fill:#ffffff" />
                          <g
                             id="g28"
                             style="fill:#b6b6b8">
                            <circle
                               cy="387.56"
                               cx="469.42999"
                               r="3.586"
                               id="circle24" />
                            <path
                               d="m 459.83,274.87 h 19.184 c 0.484,0 0.876,0.392 0.876,0.876 v 0.003 c 0,0.484 -0.392,0.876 -0.876,0.876 H 459.83 c -0.484,0 -0.876,-0.392 -0.876,-0.876 v -0.003 c 0,-0.484 0.392,-0.876 0.876,-0.876 z"
                               id="path26"
                               inkscape:connector-curvature="0" />
                          </g>
                          <path
                             d="M 426.99,156.83 H 42.26 v -16.67 c 0,-3.876 3.227,-7.103 7.103,-7.103 h 370.52 c 3.876,0 7.103,3.227 7.103,7.103 v 16.669 h 0.004 z"
                             id="path30"
                             inkscape:connector-curvature="0"
                             style="fill:#21d0c3" />
                          <path
                             d="m 206.44,139.86 h 197.08 c 1.453,0 2.636,1.186 2.636,2.636 v 4.891 c 0,1.453 -1.186,2.636 -2.636,2.636 H 206.44 c -1.453,0 -2.636,-1.186 -2.636,-2.636 v -4.891 c 0,-1.45 1.185,-2.636 2.636,-2.636 z"
                             id="path32"
                             inkscape:connector-curvature="0"
                             style="fill:#ffffff" />
                          <g
                             id="g40"
                             style="fill:#ecf0f1">
                            <path
                               d="m 58.624,139.68 c 3.292,0 5.962,2.668 5.962,5.962 0,3.294 -2.67,5.962 -5.962,5.962 -3.295,0 -5.967,-2.668 -5.967,-5.962 0,-3.294 2.67,-5.962 5.967,-5.962 z"
                               id="path34"
                               inkscape:connector-curvature="0" />
                            <path
                               d="m 82.16,139.68 c 3.295,0 5.962,2.668 5.962,5.962 0,3.294 -2.668,5.962 -5.962,5.962 -3.292,0 -5.962,-2.668 -5.962,-5.962 0,-3.294 2.67,-5.962 5.962,-5.962 z"
                               id="path36"
                               inkscape:connector-curvature="0" />
                            <path
                               d="m 105.7,139.68 c 3.292,0 5.962,2.668 5.962,5.962 0,3.294 -2.67,5.962 -5.962,5.962 -3.298,0 -5.967,-2.668 -5.967,-5.962 0,-3.294 2.669,-5.962 5.967,-5.962 z"
                               id="path38"
                               inkscape:connector-curvature="0" />
                          </g>
                          <path
                             d="m 91.149,269.44 c 9.503,0 17.204,7.701 17.204,17.204 0,9.5 -7.701,17.204 -17.204,17.204 -9.5,0 -17.201,-7.704 -17.201,-17.204 0,-9.503 7.701,-17.204 17.201,-17.204 z"
                             id="path42"
                             inkscape:connector-curvature="0"
                             style="fill:#ff5b62" />
                          <path
                             d="m 180.03,269.44 c 9.5,0 17.201,7.701 17.201,17.204 0,9.5 -7.701,17.204 -17.201,17.204 -9.5,0 -17.201,-7.704 -17.201,-17.204 0,-9.503 7.701,-17.204 17.201,-17.204 z"
                             id="path44"
                             inkscape:connector-curvature="0"
                             style="fill:#21d0c3" />
                          <g
                             id="g50"
                             style="fill:#dce3db">
                            <path
                               d="m 66.467,311.23 h 49.37 v 2.678 h -49.37 z m 0,16.83 h 33.16 v 2.678 h -33.16 z m 0,-8.414 h 49.37 v 2.676 h -49.37 z"
                               id="path46"
                               inkscape:connector-curvature="0" />
                            <path
                               d="m 155.35,311.23 h 49.367 v 2.678 H 155.35 Z m 0,16.83 h 33.163 v 2.678 H 155.35 Z m 0,-8.414 h 49.367 v 2.676 H 155.35 Z"
                               id="path48"
                               inkscape:connector-curvature="0" />
                          </g>
                          <path
                             d="m 274.37,269.44 c 9.5,0 17.201,7.701 17.201,17.204 0,9.5 -7.701,17.204 -17.201,17.204 -9.5,0 -17.201,-7.704 -17.201,-17.204 -10e-4,-9.503 7.7,-17.204 17.201,-17.204 z"
                             id="path52"
                             inkscape:connector-curvature="0"
                             style="fill:#fad24d" />
                          <path
                             d="m 249.69,311.23 h 49.367 v 2.678 H 249.69 Z m 0,16.83 h 33.163 v 2.678 H 249.69 Z m 0,-8.414 h 49.367 v 2.676 H 249.69 Z"
                             id="path54"
                             inkscape:connector-curvature="0"
                             style="fill:#dce3db" />
                          <path
                             d="m 362.96,313.65 c 5.896,0 10.678,4.782 10.678,10.678 0,5.896 -4.779,10.678 -10.678,10.678 -5.896,0 -10.678,-4.782 -10.678,-10.678 0,-5.897 4.78,-10.678 10.678,-10.678 z"
                             id="path56"
                             inkscape:connector-curvature="0"
                             style="fill:#ff5b62" />
                          <path
                             d="m 347.64,339.59 h 30.642 v 2.167 H 347.64 Z m 0,13.616 h 20.583 v 2.167 H 347.64 Z m 0,-6.81 h 30.642 v 2.167 H 347.64 Z"
                             id="path58"
                             inkscape:connector-curvature="0"
                             style="fill:#dce3db" />
                          <path
                             d="m 404.64,313.65 c 5.896,0 10.678,4.782 10.678,10.678 0,5.896 -4.782,10.678 -10.678,10.678 -5.896,0 -10.678,-4.782 -10.678,-10.678 0,-5.897 4.782,-10.678 10.678,-10.678 z"
                             id="path60"
                             inkscape:connector-curvature="0"
                             style="fill:#21d0c3" />
                          <path
                             d="m 389.32,339.59 h 30.642 v 2.167 H 389.32 Z m 0,13.616 h 20.583 v 2.167 H 389.32 Z m 0,-6.81 h 30.642 v 2.167 H 389.32 Z"
                             id="path62"
                             inkscape:connector-curvature="0"
                             style="fill:#dce3db" />
                          <path
                             d="M 466.45,227.78 H 331.9 v -14.636 c 0,-0.501 0.406,-0.907 0.907,-0.907 h 132.72 c 0.501,0 0.907,0.406 0.907,0.907 v 14.636 z"
                             id="path64"
                             inkscape:connector-curvature="0"
                             style="fill:#21d0c3" />
                          <g
                             id="g72"
                             style="fill:#ecf0f1">
                            <path
                               d="m 341.88,216.66 c 1.936,0 3.502,1.566 3.502,3.499 0,1.933 -1.566,3.499 -3.502,3.499 -1.933,0 -3.499,-1.566 -3.499,-3.499 0,-1.933 1.568,-3.499 3.499,-3.499 z"
                               id="path66"
                               inkscape:connector-curvature="0" />
                            <path
                               d="m 351.73,216.66 c 1.933,0 3.499,1.566 3.499,3.499 0,1.933 -1.566,3.499 -3.499,3.499 -1.933,0 -3.499,-1.566 -3.499,-3.499 0,-1.933 1.566,-3.499 3.499,-3.499 z"
                               id="path68"
                               inkscape:connector-curvature="0" />
                            <path
                               d="m 361.58,216.66 c 1.933,0 3.499,1.566 3.499,3.499 0,1.933 -1.566,3.499 -3.499,3.499 -1.933,0 -3.499,-1.566 -3.499,-3.499 0,-1.933 1.568,-3.499 3.499,-3.499 z"
                               id="path70"
                               inkscape:connector-curvature="0" />
                          </g>
                          <path
                             d="m 381.22,217.44 h 80.009 c 0.59,0 1.07,0.635 1.07,1.411 v 2.618 c 0,0.776 -0.48,1.411 -1.07,1.411 H 381.22 c -0.59,0 -1.07,-0.635 -1.07,-1.411 v -2.618 c 0,-0.776 0.48,-1.411 1.07,-1.411 z"
                             id="path74"
                             inkscape:connector-curvature="0"
                             style="fill:#ffffff" />
                          <path
                             d="m 498.39,286.94 h -57.927 v -6.4 c 0,-0.218 0.176,-0.391 0.391,-0.391 h 57.145 c 0.216,0 0.391,0.173 0.391,0.391 z"
                             id="path76"
                             inkscape:connector-curvature="0"
                             style="fill:#21d0c3" />
                          <path
                             d="m 444.55,281.3 c 1.107,0 2.001,0.894 2.001,2.001 0,1.104 -0.894,2.001 -2.001,2.001 -1.104,0 -2.001,-0.897 -2.001,-2.001 0,-1.107 0.897,-2.001 2.001,-2.001 z"
                             id="path78"
                             inkscape:connector-curvature="0"
                             style="fill:#ffffff" />
                          <g
                             id="g84"
                             style="fill:#ecf0f1">
                            <path
                               d="m 450.19,281.3 c 1.107,0 2.001,0.894 2.001,2.001 0,1.104 -0.894,2.001 -2.001,2.001 -1.107,0 -2.001,-0.897 -2.001,-2.001 0,-1.107 0.896,-2.001 2.001,-2.001 z"
                               id="path80"
                               inkscape:connector-curvature="0" />
                            <path
                               d="m 455.82,281.3 c 1.107,0 2.001,0.894 2.001,2.001 0,1.104 -0.894,2.001 -2.001,2.001 -1.104,0 -2.001,-0.897 -2.001,-2.001 0,-1.107 0.897,-2.001 2.001,-2.001 z"
                               id="path82"
                               inkscape:connector-curvature="0" />
                          </g>
                          <path
                             d="m 463.95,281.56 h 32.208 c 0.432,0 0.781,0.35 0.781,0.781 v 2.093 c 0,0.432 -0.35,0.781 -0.781,0.781 H 463.95 c -0.432,0 -0.781,-0.35 -0.781,-0.781 v -2.093 c 0,-0.43 0.35,-0.781 0.781,-0.781 z"
                             id="path86"
                             inkscape:connector-curvature="0"
                             style="fill:#ffffff" />
                          <path
                             d="m 443.27,289.13 h 52.308 v 30.831 H 443.27 Z"
                             id="path88"
                             inkscape:connector-curvature="0"
                             style="fill:#ecf0f1" />
                          <path
                             d="m 470.96,326.29 c 5.362,0 9.708,4.346 9.708,9.71 0,5.362 -4.346,9.71 -9.708,9.71 -5.362,0 -9.708,-4.346 -9.708,-9.71 10e-4,-5.362 4.347,-9.71 9.708,-9.71 z"
                             id="path90"
                             inkscape:connector-curvature="0"
                             style="fill:#fad24d" />
                          <path
                             d="m 454.11,352.78 h 33.7 v 2.381 h -33.7 z m 0,14.977 h 22.64 v 2.381 h -22.64 z m 0,-7.489 h 33.7 v 2.381 h -33.7 z"
                             id="path92"
                             inkscape:connector-curvature="0"
                             style="fill:#dce3db" />
                          <path
                             d="m 40.323,393.97 h 431.35 c -1.429,2.23 -2.903,4.425 -4.398,6.607 H 44.725 c -1.495,-2.182 -2.971,-4.378 -4.401,-6.607 z"
                             id="path94"
                             inkscape:connector-curvature="0"
                             style="fill:#edb937" />
                          <path
                             d="m 382.16,203.96 h 34.033 c 0.484,0 0.876,0.392 0.876,0.876 v 0.003 c 0,0.484 -0.392,0.876 -0.876,0.876 H 382.16 c -0.484,0 -0.876,-0.392 -0.876,-0.876 v -0.003 c 0,-0.483 0.392,-0.876 0.876,-0.876 z"
                             id="path96"
                             inkscape:connector-curvature="0"
                             style="fill:#b6b6b8" />
                        </g>
                      </g>
                    </g>
                  </g>
                </g>
              </g>
            </g>
          </g>
        </g>
      </g>
    </g>
  </g>
</svg>
