<?xml version="1.0" encoding="UTF-8" standalone="no"?>
<!-- Created with Inkscape (http://www.inkscape.org/) -->

<svg
   xmlns:dc="http://purl.org/dc/elements/1.1/"
   xmlns:cc="http://creativecommons.org/ns#"
   xmlns:rdf="http://www.w3.org/1999/02/22-rdf-syntax-ns#"
   xmlns:svg="http://www.w3.org/2000/svg"
   xmlns="http://www.w3.org/2000/svg"
   xmlns:sodipodi="http://sodipodi.sourceforge.net/DTD/sodipodi-0.dtd"
   xmlns:inkscape="http://www.inkscape.org/namespaces/inkscape"
   height="61"
   width="61"
   version="1.1"
   viewBox="0 0 16.139583 16.139584"
   id="svg52"
   sodipodi:docname="security.svg"
   inkscape:version="0.92.3 (unknown)">
  <metadata
     id="metadata58">
    <rdf:RDF>
      <cc:Work
         rdf:about="">
        <dc:format>image/svg+xml</dc:format>
        <dc:type
           rdf:resource="http://purl.org/dc/dcmitype/StillImage" />
      </cc:Work>
    </rdf:RDF>
  </metadata>
  <defs
     id="defs56" />
  <sodipodi:namedview
     pagecolor="#ffffff"
     bordercolor="#666666"
     borderopacity="1"
     objecttolerance="10"
     gridtolerance="10"
     guidetolerance="10"
     inkscape:pageopacity="0"
     inkscape:pageshadow="2"
     inkscape:window-width="1366"
     inkscape:window-height="744"
     id="namedview54"
     showgrid="false"
     inkscape:zoom="3.8688525"
     inkscape:cx="-13.31144"
     inkscape:cy="30.5"
     inkscape:window-x="0"
     inkscape:window-y="24"
     inkscape:window-maximized="1"
     inkscape:current-layer="svg52" />
  <g
     transform="matrix(0.95034863,0,0,0.94131813,0.04531715,-264.67691)"
     id="g50">
    <g
       transform="matrix(0.35278,0,0,-0.35278,-1441,1559.9)"
       id="g48">
      <g
         transform="matrix(0.54533,0,0,0.54533,-1.1364,4.5457)"
         id="g46">
        <g
           transform="matrix(0.16241,0,0,-0.16241,7493.1,6639.1)"
           id="g44">
          <g
             transform="matrix(1.0047,0,0,0.99588,-1.6751,-2.9714)"
             id="g42">
            <g
               transform="matrix(1.0078,0,0,1.0041,-2.0877,-0.21632)"
               id="g40">
              <g
                 transform="matrix(0.99175,0,0,0.99585,-0.4986,-3.2284)"
                 id="g38">
                <path
                   d="m 89.573,61.492 h 382.41 c 6.003,0 10.916,4.915 10.916,10.916 v 302.23 c -97.86268,90.15835 -359.194,40.379 -453.79,50.54384 V 72.408 c 0,-6.003 4.911,-10.916 10.916,-10.916 z"
                   id="path2"
                   inkscape:connector-curvature="0"
                   style="fill:#dddddd"
                   sodipodi:nodetypes="cssccssc" />
                <g
                   id="g8"
                   style="fill:#dce3db">
                  <path
                     d="m 65.658,390.69 h 81.948 v 4.991 H 65.654 Z m 0,24.327 h 58.047 v 4.991 H 65.663 v -4.991 z m 0,-12.164 h 81.948 v 4.991 H 65.654 Z"
                     id="path4"
                     inkscape:connector-curvature="0" />
                  <path
                     d="m 215.03,390.69 h 81.948 v 4.991 H 215.03 Z m 0,24.327 h 58.047 v 4.991 H 215.03 Z m 0,-12.164 h 81.948 v 4.991 H 215.03 Z"
                     id="path6"
                     inkscape:connector-curvature="0" />
                </g>
                <path
                   d="m 203.04,289.02 h 105.93 v 84.208 H 203.04 Z"
                   id="path10"
                   inkscape:connector-curvature="0"
                   style="fill:#fad24d" />
                <path
                   d="m 53.668,289.02 h 105.93 v 84.208 H 53.668 Z"
                   id="path12"
                   inkscape:connector-curvature="0"
                   style="fill:#21d0c3" />
                <path
                   d="m 40.024,61.492 h 431.95 c 6.004,0 10.917,4.911 10.917,10.917 v 21.83 H 29.111 V 72.408 c 0,-6.005 4.913,-10.916 10.917,-10.916 z"
                   id="path14"
                   inkscape:connector-curvature="0"
                   style="fill:#828282" />
                <path
                   d="m 231.13,72.797 h 219.2 c 1.62,0 2.932,1.313 2.932,2.932 v 5.44 c 0,1.62 -1.313,2.932 -2.932,2.932 h -219.2 c -1.62,0 -2.932,-1.313 -2.932,-2.932 v -5.44 c -0.001,-1.619 1.313,-2.932 2.932,-2.932 z"
                   id="path16"
                   inkscape:connector-curvature="0"
                   style="fill:#ffffff" />
                <circle
                   cy="77.139"
                   cx="50.881001"
                   r="6.2859998"
                   id="circle18"
                   style="fill:#21d0c3" />
                <circle
                   cy="77.139"
                   cx="75.693001"
                   r="6.2859998"
                   id="circle20"
                   style="fill:#fad24d" />
                <circle
                   cy="77.139"
                   cx="100.5"
                   r="6.2859998"
                   id="circle22"
                   style="fill:#ff5b62" />
                <rect
                   height="133.49001"
                   width="404.66"
                   y="106.24"
                   x="53.667999"
                   id="rect24"
                   style="fill:#ecf0f1" />
                <path
                   d="m 422.98,281.38 11.688,-15.676 27.484,15.867 -7.741,17.983 c 5.327,4.406 10.227,9.308 14.633,14.634 l 17.983,-7.741 15.868,27.484 -15.677,11.688 c 2.388,6.405 4.189,13.097 5.346,20.006 l 19.44,2.29 v 31.736 l -19.437,2.287 c -1.157,6.909 -2.957,13.6 -5.346,20.006 l 15.676,11.688 -15.867,27.484 -17.984,-7.741 c -4.406,5.327 -9.306,10.227 -14.633,14.633 l 7.741,17.983 -27.483,15.868 -11.69,-15.677 c -6.405,2.388 -13.097,4.189 -20.006,5.346 l -2.286,19.437 h -31.736 l -2.286,-19.437 c -6.91,-1.157 -13.6,-2.957 -20.006,-5.346 l -11.67,15.67 -27.49,-15.87 7.74,-17.98 c -5.327,-4.406 -10.227,-9.306 -14.633,-14.633 l -17.983,7.741 -15.868,-27.483 15.677,-11.69 c -2.388,-6.405 -4.19,-13.097 -5.346,-20.006 l -19.437,-2.286 v -31.736 l 19.437,-2.287 c 1.157,-6.909 2.957,-13.6 5.346,-20.006 l -15.676,-11.688 15.867,-27.484 17.984,7.741 c 4.406,-5.327 9.306,-10.227 14.633,-14.633 l -7.741,-17.983 27.484,-15.868 11.69,15.677 c 6.405,-2.388 13.096,-4.19 20.006,-5.346 l 2.286,-19.437 h 31.736 l 2.286,19.437 c 6.908,1.156 13.601,2.957 20.007,5.345 z"
                   id="path26"
                   inkscape:connector-curvature="0"
                   style="fill:#ff5b62" />
                <circle
                   cy="383.76999"
                   cx="384.82001"
                   r="94.106003"
                   id="circle28"
                   style="fill:#ecf0f1" />
                <circle
                   cy="383.76999"
                   cx="384.82001"
                   r="90.043999"
                   id="circle30"
                   style="fill:#ffffff" />
                <path
                   d="m 317.88,337 c 0.11,46.228 16.33,108.19 66.938,116.52 50.607,-8.332 66.828,-70.295 66.938,-116.52 -23.014,0 -48.526,-8.404 -66.938,-22.976 C 366.406,328.597 340.894,337 317.88,337 Z"
                   id="path32"
                   inkscape:connector-curvature="0"
                   style="fill:#ecf0f1" />
                <path
                   d="m 323.52,341.74 c 1.231,40.15 15.403,97.231 61.296,105.49 45.893,-8.262 60.066,-65.343 61.296,-105.49 -21.413,-1.168 -43.914,-8.873 -61.296,-21.416 -17.382,12.543 -39.883,20.247 -61.296,21.416 z"
                   id="path34"
                   inkscape:connector-curvature="0"
                   style="fill:#21d0c3" />
                <path
                   d="m 353.7,385.64 c -2,-1.966 -2.026,-5.183 -0.06,-7.183 1.966,-2 5.182,-2.026 7.182,-0.06 l 17.971,17.721 32.871,-40.007 c 1.782,-2.163 4.979,-2.476 7.143,-0.696 2.164,1.78 2.476,4.979 0.697,7.143 l -36.258,44.128 c -0.133,0.178 -0.279,0.349 -0.44,0.512 -1.966,2 -5.183,2.026 -7.183,0.06 z"
                   id="path36"
                   inkscape:connector-curvature="0"
                   style="fill:#ffffff" />
              </g>
            </g>
          </g>
        </g>
      </g>
    </g>
  </g>
</svg>
