<?xml version="1.0" encoding="UTF-8" standalone="no"?>
<!-- Created with Inkscape (http://www.inkscape.org/) -->

<svg
   xmlns:dc="http://purl.org/dc/elements/1.1/"
   xmlns:cc="http://creativecommons.org/ns#"
   xmlns:rdf="http://www.w3.org/1999/02/22-rdf-syntax-ns#"
   xmlns:svg="http://www.w3.org/2000/svg"
   xmlns="http://www.w3.org/2000/svg"
   xmlns:sodipodi="http://sodipodi.sourceforge.net/DTD/sodipodi-0.dtd"
   xmlns:inkscape="http://www.inkscape.org/namespaces/inkscape"
   height="61"
   width="61"
   version="1.1"
   viewBox="0 0 16.139583 16.139584"
   id="svg58"
   sodipodi:docname="seo.svg"
   inkscape:version="0.92.3 (unknown)">
  <metadata
     id="metadata64">
    <rdf:RDF>
      <cc:Work
         rdf:about="">
        <dc:format>image/svg+xml</dc:format>
        <dc:type
           rdf:resource="http://purl.org/dc/dcmitype/StillImage" />
      </cc:Work>
    </rdf:RDF>
  </metadata>
  <defs
     id="defs62" />
  <sodipodi:namedview
     pagecolor="#ffffff"
     bordercolor="#666666"
     borderopacity="1"
     objecttolerance="10"
     gridtolerance="10"
     guidetolerance="10"
     inkscape:pageopacity="0"
     inkscape:pageshadow="2"
     inkscape:window-width="1366"
     inkscape:window-height="744"
     id="namedview60"
     showgrid="false"
     inkscape:zoom="3.8688525"
     inkscape:cx="-13.311441"
     inkscape:cy="30.5"
     inkscape:window-x="0"
     inkscape:window-y="24"
     inkscape:window-maximized="1"
     inkscape:current-layer="g54" />
  <g
     transform="translate(0 -280.86)"
     id="g56">
    <g
       transform="matrix(.35278 0 0 -.35278 -1441 1559.9)"
       id="g54">
      <g
         transform="matrix(0.58163163,0,0,0.55182996,-274.70078,-38.928391)"
         id="g52">
        <g
           transform="matrix(0.16241,0,0,-0.16241,7493.1,6639.1)"
           id="g50">
          <g
             transform="matrix(1.0047,0,0,0.99588,-1.6751,-2.9714)"
             id="g48">
            <ellipse
               rx="182.28"
               ry="14.369"
               cy="421.64001"
               cx="256"
               id="ellipse2"
               style="fill:#414c54;fill-opacity:1" />
            <path
               d="m 65.982,67.222 h 380.04 c 12.486,0 22.7,10.217 22.7,22.703 v 234.1 H 43.282 v -234.1 c 0,-12.486 10.214,-22.703 22.7,-22.703 z"
               id="path4"
               inkscape:connector-curvature="0"
               style="fill:#666666" />
            <path
               d="m 58.695,308.61 h 394.6 V 89.92 c 0,-3.979 -3.308,-7.287 -7.287,-7.287 H 65.978 c -3.976,0 -7.287,3.308 -7.287,7.287 v 218.69 h 0.003 z"
               id="path6"
               inkscape:connector-curvature="0"
               style="fill:#21d0c3" />
            <path
               d="m 468.72,324.03 v 24.826 c 0,12.489 -11.261,22.703 -25.026,22.703 H 68.314 c -13.765,0 -25.026,-10.214 -25.026,-22.703 v -24.83 h 425.44 z"
               id="path8"
               inkscape:connector-curvature="0"
               style="fill:#dddddd" />
            <path
               d="m 141.24,115.53 h 263.69 c 4.142,0 7.528,3.389 7.528,7.528 v 185.56 H 99.548 v -185.56 c 0,-4.142 3.386,-7.528 7.528,-7.528 h 34.167 z"
               id="path10"
               inkscape:connector-curvature="0"
               style="fill:#ffffff" />
            <path
               d="m 107.07,115.53 h 297.86 c 4.142,0 7.528,3.386 7.528,7.528 v 15.05 H 99.548 v -15.054 c 0,-4.142 3.386,-7.528 7.528,-7.528 h -0.003 z"
               id="path12"
               inkscape:connector-curvature="0"
               style="fill:#828282" />
            <path
               d="M 226.38,123.32 H 390 c 1.115,0 2.022,0.913 2.022,2.022 v 3.751 c 0,1.11 -0.91,2.022 -2.022,2.022 H 226.38 c -1.107,0 -2.02,-0.907 -2.02,-2.022 v -3.751 c -0.001,-1.111 0.908,-2.022 2.02,-2.022 z"
               id="path14"
               inkscape:connector-curvature="0"
               style="fill:#ffffff" />
            <path
               d="m 117.33,121.98 c 2.392,0 4.334,1.938 4.334,4.334 0,2.394 -1.941,4.334 -4.334,4.334 -2.397,0 -4.339,-1.938 -4.339,-4.334 0.001,-2.399 1.942,-4.334 4.339,-4.334 z"
               id="path16"
               inkscape:connector-curvature="0"
               style="fill:#21d0c3" />
            <path
               d="m 134.44,121.98 c 2.397,0 4.334,1.938 4.334,4.334 0,2.394 -1.938,4.334 -4.334,4.334 -2.392,0 -4.334,-1.938 -4.334,-4.334 0,-2.399 1.941,-4.334 4.334,-4.334 z"
               id="path18"
               inkscape:connector-curvature="0"
               style="fill:#edb937" />
            <g
               id="g24"
               style="fill:#ff5b62">
              <path
                 d="m 151.55,121.98 c 2.392,0 4.334,1.938 4.334,4.334 0,2.394 -1.941,4.334 -4.334,4.334 -2.397,0 -4.339,-1.938 -4.339,-4.334 10e-4,-2.399 1.942,-4.334 4.339,-4.334 z"
                 id="path20"
                 inkscape:connector-curvature="0" />
              <polygon
                 points="269.42,224.36 210.8,308.61 186.57,308.61 245.2,224.36 "
                 id="polygon22" />
            </g>
            <path
               d="m 269.42,224.36 h -24.229 l 38.973,56.014 h 24.229 l -38.97,-56.014 z"
               id="path26"
               inkscape:connector-curvature="0"
               style="fill:#ed4c54" />
            <path
               d="m 368.48,194.07 -60.085,86.305 h -24.229 l 63.029,-90.866 -24.58,-6.457 66.613,-26.215 -3.879,42.765 z"
               id="path28"
               inkscape:connector-curvature="0"
               style="fill:#ff5b62" />
            <path
               d="m 179.94,157.8 h 75.091 v 3.722 H 179.94 Z m 0,8.643 h 53.814 v 3.722 H 179.94 Z"
               id="path30"
               inkscape:connector-curvature="0"
               style="fill:#dce3db" />
            <rect
               height="25.716"
               width="9.0909996"
               y="207.87"
               x="117.18"
               id="rect32"
               style="fill:#edb937" />
            <rect
               height="47.901001"
               width="9.0909996"
               y="185.69"
               x="136.37"
               id="rect34"
               style="fill:#ff5b62" />
            <rect
               height="75.632004"
               width="9.0909996"
               y="157.96001"
               x="155.56"
               id="rect36"
               style="fill:#21d0c3" />
            <circle
               cy="346.79999"
               cx="256"
               r="7.8140001"
               id="circle38"
               style="fill:#b6b6b8" />
            <path
               d="m 305.06,407.27 36.095,11.564 h -170.32 l 29.123,-11.564 v -35.712 h 105.1 v 35.712 z"
               id="path40"
               inkscape:connector-curvature="0"
               style="fill:#c2c2c4" />
            <path
               d="m 305.06,407.27 -105.1,-35.71 h 105.1 z"
               id="path42"
               inkscape:connector-curvature="0"
               style="fill:#b0b0b0" />
            <path
               d="m 199.96,407.27 h 105.1 l 36.095,11.564 v 4.981 h -170.32 v -4.981 l 29.123,-11.564 z"
               id="path44"
               inkscape:connector-curvature="0"
               style="fill:#ecf0f1" />
            <path
               d="m 179.94,176.13 h 75.091 v 3.722 H 179.94 Z m 0,8.643 h 53.814 v 3.722 H 179.94 Z"
               id="path46"
               inkscape:connector-curvature="0"
               style="fill:#dce3db" />
          </g>
        </g>
      </g>
    </g>
  </g>
</svg>
