<?xml version="1.0" encoding="UTF-8" standalone="no"?>
<!-- Created with Inkscape (http://www.inkscape.org/) -->

<svg
   xmlns:dc="http://purl.org/dc/elements/1.1/"
   xmlns:cc="http://creativecommons.org/ns#"
   xmlns:rdf="http://www.w3.org/1999/02/22-rdf-syntax-ns#"
   xmlns:svg="http://www.w3.org/2000/svg"
   xmlns="http://www.w3.org/2000/svg"
   xmlns:sodipodi="http://sodipodi.sourceforge.net/DTD/sodipodi-0.dtd"
   xmlns:inkscape="http://www.inkscape.org/namespaces/inkscape"
   height="61"
   width="61"
   version="1.1"
   viewBox="0 0 16.139583 16.139584"
   id="svg72"
   sodipodi:docname="speed.svg"
   inkscape:version="0.92.3 (unknown)">
  <metadata
     id="metadata78">
    <rdf:RDF>
      <cc:Work
         rdf:about="">
        <dc:format>image/svg+xml</dc:format>
        <dc:type
           rdf:resource="http://purl.org/dc/dcmitype/StillImage" />
      </cc:Work>
    </rdf:RDF>
  </metadata>
  <defs
     id="defs76" />
  <sodipodi:namedview
     pagecolor="#ffffff"
     bordercolor="#666666"
     borderopacity="1"
     objecttolerance="10"
     gridtolerance="10"
     guidetolerance="10"
     inkscape:pageopacity="0"
     inkscape:pageshadow="2"
     inkscape:window-width="1366"
     inkscape:window-height="744"
     id="namedview74"
     showgrid="false"
     inkscape:zoom="7.7377049"
     inkscape:cx="27.507472"
     inkscape:cy="32.927684"
     inkscape:window-x="0"
     inkscape:window-y="24"
     inkscape:window-maximized="1"
     inkscape:current-layer="g54" />
  <g
     transform="translate(0 -280.86)"
     id="g70">
    <g
       transform="matrix(.35278 0 0 -.35278 -1441 1559.9)"
       id="g68">
      <g
         transform="matrix(0.51575394,0,0,0.53225496,220.60682,93.080315)"
         id="g66">
        <g
           transform="matrix(0.16241,0,0,-0.16241,7493.1,6639.1)"
           id="g64">
          <g
             transform="matrix(1.0047,0,0,0.99588,-1.6751,-2.9714)"
             id="g62">
            <g
               transform="matrix(1.0078,0,0,1.0041,-2.0877,-0.21632)"
               id="g60">
              <g
                 transform="matrix(0.99175,0,0,0.99585,-0.4986,-3.2284)"
                 id="g58">
                <g
                   transform="matrix(1.0123,0,0,1.0153,-1.0376,-3.9307)"
                   id="g56">
                  <g
                     transform="matrix(8.3302,0,0,8.3754,-1326.4,-1521.1)"
                     id="g54">
                    <path
                       d="m 170.36941,188.88 h 46.87918 c 0.73603,0 1.34427,0.61586 1.33792,1.3677 l -0.29824,35.29018 c -15.97188,8.35873 -28.1784,8.35954 -55.69821,7.90558 l 0.36749,-43.19533 c 0.006,-0.75236 0.60179,-1.3677 1.33792,-1.3677 h 6.07435 z"
                       id="path2"
                       inkscape:connector-curvature="0"
                       style="fill:#dddddf;fill-opacity:0.94118;stroke-width:0.12395194"
                       sodipodi:nodetypes="cssccsscc" />
                    <g
                       transform="matrix(0.12258769,0,0,0.12531707,159.38307,181.17124)"
                       id="g10"
                       style="fill:#ecf0f1">
                      <path
                         d="m 364.39,390.69 h 81.946 v 4.993 H 364.39 Z m 0,24.327 h 58.049 v 4.993 H 364.39 Z m 0,-12.166 h 81.946 v 4.993 H 364.39 Z"
                         id="path8"
                         inkscape:connector-curvature="0" />
                    </g>
                    <g
                       id="g46"
                       style="stroke-width:0.11916">
                      <path
                         d="m 184.28337,217.39301 h 12.98602 v 10.55274 h -12.98602 z"
                         id="path12"
                         inkscape:connector-curvature="0"
                         style="fill:#fad24d;stroke-width:0.12395194;fill-opacity:1" />
                      <path
                         d="m 202.23142,218.65246 h 11.7741 v 9.26419 h -11.7741 z"
                         id="path14"
                         inkscape:connector-curvature="0"
                         style="fill:#ecf0f1;stroke-width:0.11058598" />
                      <path
                         d="m 165.96245,217.39301 h 12.98602 v 10.55274 h -12.98602 z"
                         id="path16"
                         inkscape:connector-curvature="0"
                         style="fill:#ff5b62;stroke-width:0.12395194;fill-opacity:1" />
                      <path
                         d="m 164.29691,188.88 h 52.95272 c 0.73603,0 1.33791,0.6152 1.33791,1.3677 v 2.73552 h -55.62895 v -2.73552 c 0,-0.75243 0.60178,-1.3677 1.33791,-1.3677 h 6.2e-4 z"
                         id="path18"
                         inkscape:connector-curvature="0"
                         style="fill:#828282;stroke-width:0.12395194" />
                      <path
                         d="m 187.71789,190.29205 h 26.87205 c 0.1986,0 0.35956,0.16454 0.35956,0.36756 v 0.68186 c 0,0.20301 -0.16096,0.36756 -0.35956,0.36756 h -26.87205 c -0.19859,0 -0.35955,-0.16455 -0.35955,-0.36756 v -0.68186 c 0,-0.20315 0.16096,-0.36756 0.35955,-0.36756 z"
                         id="path20"
                         inkscape:connector-curvature="0"
                         style="fill:#ffffff;stroke-width:0.12395194" />
                      <ellipse
                         rx="0.77059549"
                         ry="0.78775805"
                         cy="190.83597"
                         cx="165.62106"
                         id="ellipse22"
                         style="fill:#21d0c3;stroke-width:0.12395194" />
                      <ellipse
                         rx="0.77059549"
                         ry="0.78775805"
                         cy="190.83597"
                         cx="168.66249"
                         id="ellipse24"
                         style="fill:#fad24d;stroke-width:0.12395194" />
                      <ellipse
                         rx="0.77059549"
                         ry="0.78775805"
                         cy="190.83597"
                         cx="171.70389"
                         id="ellipse26"
                         style="fill:#ff5b62;stroke-width:0.12395194" />
                      <rect
                         height="16.729164"
                         width="49.607151"
                         y="194.48637"
                         x="165.96246"
                         id="rect28"
                         style="fill:#ecf0f1;stroke-width:0.12395194" />
                      <ellipse
                         rx="14.195888"
                         ry="14.051918"
                         cy="229.06537"
                         cx="205.7675"
                         id="ellipse30"
                         style="fill:#21d0c3;stroke-width:0.11058598;fill-opacity:1" />
                      <ellipse
                         rx="13.01782"
                         ry="12.885746"
                         cy="229.06537"
                         cx="205.7675"
                         id="ellipse32"
                         style="fill:#ecf0f1;stroke-width:0.11058598" />
                      <ellipse
                         rx="12.45505"
                         ry="12.32837"
                         cy="229.06537"
                         cx="205.7675"
                         id="ellipse34"
                         style="fill:#ffffff;stroke-width:0.11058598" />
                      <path
                         d="m 203.5727,229.33166 2.19565,-8.18671 2.19564,8.18625 c -0.51184,-0.64238 -1.30497,-1.05442 -2.19508,-1.05442 -0.89064,0 -1.68438,0.41268 -2.19566,1.05488 z"
                         id="path36"
                         inkscape:connector-curvature="0"
                         style="fill:#ff5b62;stroke-width:0.11058598" />
                      <ellipse
                         rx="2.7944372"
                         ry="2.7659407"
                         cy="231.03961"
                         cx="205.7675"
                         id="ellipse38"
                         style="fill:#ecf0f1;stroke-width:0.11058598" />
                      <ellipse
                         rx="2.0503609"
                         ry="2.0295074"
                         cy="231.03961"
                         cx="205.7675"
                         id="ellipse40"
                         style="fill:#21d0c3;stroke-width:0.11058598" />
                      <path
                         d="m 202.25018,235.41045 h 7.04345 c 0.44993,0 0.81472,0.36108 0.81472,0.80642 0,0.44536 -0.36479,0.80644 -0.81472,0.80644 h -7.04345 c -0.44994,0 -0.81471,-0.36108 -0.81471,-0.80644 0,-0.44534 0.36467,-0.80642 0.81471,-0.80642 z"
                         id="path42"
                         inkscape:connector-curvature="0"
                         style="fill:#ecf0f1;stroke-width:0.11058598" />
                      <path
                         d="m 202.15639,218.58819 0.31777,-0.10209 0.28186,0.85879 -0.31777,0.10209 z m 14.20151,6.90006 0.10314,0.31456 -0.86763,0.27898 -0.10314,-0.31453 z m -7.28891,-7.00226 0.31778,0.10209 -0.28187,0.85879 -0.31778,-0.1022 z m 3.14186,1.52649 0.26998,0.19418 -0.53596,0.73074 -0.26998,-0.19419 0.53651,-0.73073 z m 2.51154,2.4126 0.19617,0.26722 -0.73824,0.53107 -0.19618,-0.26724 0.73825,-0.53051 z m -19.64069,3.37731 0.10325,-0.31454 0.86762,0.279 -0.10314,0.31454 z m 1.54218,-3.10982 0.19662,-0.26725 0.73826,0.53052 -0.19662,0.26721 -0.73826,-0.53105 z m 2.43737,-2.48588 0.26998,-0.19417 0.53651,0.73073 -0.26997,0.19418 z"
                         id="path44"
                         inkscape:connector-curvature="0"
                         style="fill:#21d0c3;stroke-width:0.11058598" />
                    </g>
                    <g
                       transform="matrix(0.11114719,0,0,0.11001505,163.05321,186.85361)"
                       id="g52"
                       style="fill:#ff5b62">
                      <path
                         d="m 284.36,381.02 h 16.406 v 5.408 h -16.41 z m 183.44,0 h 16.406 v 5.408 H 467.8 Z"
                         id="path48"
                         inkscape:connector-curvature="0" />
                      <path
                         d="m 381.58,300.2 v -16.406 h 5.408 V 300.2 Z"
                         id="path50"
                         inkscape:connector-curvature="0" />
                    </g>
                  </g>
                </g>
              </g>
            </g>
          </g>
        </g>
      </g>
    </g>
  </g>
</svg>
