<?xml version="1.0" encoding="UTF-8" standalone="no"?>
<!-- Created with Inkscape (http://www.inkscape.org/) -->

<svg
   xmlns:dc="http://purl.org/dc/elements/1.1/"
   xmlns:cc="http://creativecommons.org/ns#"
   xmlns:rdf="http://www.w3.org/1999/02/22-rdf-syntax-ns#"
   xmlns:svg="http://www.w3.org/2000/svg"
   xmlns="http://www.w3.org/2000/svg"
   xmlns:sodipodi="http://sodipodi.sourceforge.net/DTD/sodipodi-0.dtd"
   xmlns:inkscape="http://www.inkscape.org/namespaces/inkscape"
   height="61"
   width="61"
   version="1.1"
   viewBox="0 0 16.139583 16.139584"
   id="svg62"
   sodipodi:docname="user.svg"
   inkscape:version="0.92.3 (unknown)">
  <metadata
     id="metadata68">
    <rdf:RDF>
      <cc:Work
         rdf:about="">
        <dc:format>image/svg+xml</dc:format>
        <dc:type
           rdf:resource="http://purl.org/dc/dcmitype/StillImage" />
      </cc:Work>
    </rdf:RDF>
  </metadata>
  <defs
     id="defs66" />
  <sodipodi:namedview
     pagecolor="#ffffff"
     bordercolor="#666666"
     borderopacity="1"
     objecttolerance="10"
     gridtolerance="10"
     guidetolerance="10"
     inkscape:pageopacity="0"
     inkscape:pageshadow="2"
     inkscape:window-width="1366"
     inkscape:window-height="744"
     id="namedview64"
     showgrid="false"
     inkscape:zoom="3.8688525"
     inkscape:cx="-31.400242"
     inkscape:cy="28.552516"
     inkscape:window-x="0"
     inkscape:window-y="24"
     inkscape:window-maximized="1"
     inkscape:current-layer="g50" />
  <g
     transform="matrix(0.94232066,0,0,0.9659112,0.04611965,-271.81459)"
     id="g60">
    <g
       transform="matrix(0.35278,0,0,-0.35278,-1441,1559.9)"
       id="g58">
      <g
         transform="matrix(0.54533,0,0,0.54533,-1.1364,4.5457)"
         id="g56">
        <g
           transform="matrix(0.16241,0,0,-0.16241,7493.1,6639.1)"
           id="g54">
          <g
             transform="matrix(1.0047,0,0,0.99588,-1.6751,-2.9714)"
             id="g52">
            <g
               transform="matrix(1.0078,0,0,1.0041,-2.0877,-0.21632)"
               id="g50">
              <path
                 d="m 89.573,61.493 h 382.4 c 6.004,0 10.84059,4.91545 10.915,10.915 l 4.335,349.538 C 282.419,421.943 200.47947,420.55548 27.088627,417.63293 L 29.118,72.408 c 0.03529,-6.003878 4.913,-10.915 10.915,-10.915 z"
                 id="path2"
                 inkscape:connector-curvature="0"
                 style="fill:#dddddd"
                 sodipodi:nodetypes="cssccssc" />
              <path
                 d="m 203.04,289.02 h 105.93 v 84.209 H 203.04 Z"
                 id="path10"
                 inkscape:connector-curvature="0"
                 style="fill:#ff5b62" />
              <path
                 d="m 53.667,289.02 h 105.93 v 84.209 H 53.667 Z"
                 id="path12"
                 inkscape:connector-curvature="0"
                 style="fill:#21d0c3" />
              <path
                 d="m 40.025,61.493 h 431.95 c 6.004,0 10.917,4.913 10.917,10.917 V 94.241 H 29.102 V 72.41 c 0,-6.004 4.913,-10.917 10.917,-10.917 h -0.002 z"
                 id="path14"
                 inkscape:connector-curvature="0"
                 style="fill:#828282" />
              <path
                 d="m 231.13,72.798 h 219.2 c 1.62,0 2.932,1.313 2.932,2.932 v 5.44 c 0,1.62 -1.313,2.932 -2.932,2.932 h -219.2 c -1.62,0 -2.932,-1.313 -2.932,-2.932 v -5.44 c 0,-1.62 1.313,-2.932 2.932,-2.932 z"
                 id="path16"
                 inkscape:connector-curvature="0"
                 style="fill:#ffffff" />
              <circle
                 cy="77.139999"
                 cx="50.881001"
                 r="6.2849998"
                 id="circle18"
                 style="fill:#51bbb2" />
              <g
                 id="g24"
                 style="fill:#fad24d">
                <circle
                   cy="77.139999"
                   cx="75.692001"
                   r="6.2849998"
                   id="circle20" />
                <path
                   d="m 422.98,281.38 11.688,-15.675 27.484,15.867 -7.741,17.984 c 5.328,4.406 10.227,9.307 14.633,14.633 l 17.984,-7.741 15.869,27.484 -15.677,11.688 c 2.387,6.405 4.189,13.096 5.345,20.006 l 19.44,2.29 v 31.736 l -19.437,2.288 c -1.157,6.909 -2.959,13.6 -5.345,20.006 l 15.675,11.688 -15.867,27.484 -17.984,-7.741 c -4.406,5.328 -9.307,10.227 -14.633,14.633 l 7.741,17.984 -27.484,15.869 -11.691,-15.677 c -6.405,2.387 -13.096,4.189 -20.006,5.346 l -2.285,19.437 h -31.736 l -2.288,-19.437 c -6.909,-1.157 -13.6,-2.959 -20.006,-5.346 l -11.688,15.675 -27.484,-15.867 7.741,-17.984 c -5.328,-4.406 -10.227,-9.307 -14.633,-14.633 l -17.984,7.741 -15.869,-27.484 15.677,-11.691 c -2.387,-6.405 -4.189,-13.096 -5.346,-20.006 l -19.437,-2.285 v -31.75 l 19.437,-2.288 c 1.157,-6.909 2.959,-13.6 5.346,-20.006 l -15.675,-11.688 15.867,-27.484 17.984,7.741 c 4.406,-5.328 9.307,-10.227 14.633,-14.633 l -7.741,-17.984 27.484,-15.869 11.691,15.677 c 6.405,-2.387 13.096,-4.189 20.006,-5.346 l 2.285,-19.437 h 31.736 l 2.285,19.437 c 6.909,1.157 13.603,2.959 20.008,5.346 z"
                   id="path22"
                   inkscape:connector-curvature="0" />
              </g>
              <circle
                 cy="77.139999"
                 cx="100.5"
                 r="6.2849998"
                 id="circle26"
                 style="fill:#ff5b62" />
              <g
                 id="g32"
                 style="fill:#ecf0f1">
                <rect
                   height="133.49001"
                   width="404.67001"
                   y="106.24"
                   x="53.667"
                   id="rect28" />
                <circle
                   cy="383.78"
                   cx="384.82001"
                   r="94.315002"
                   id="circle30" />
              </g>
              <circle
                 cy="383.78"
                 cx="384.82001"
                 r="88.097"
                 id="circle34"
                 style="fill:#ffffff" />
              <path
                 d="m 309.27,383.78 c 43.298,-63.726 107.79,-63.726 151.09,0 -43.298,63.726 -107.79,63.726 -151.09,0 z"
                 id="path36"
                 inkscape:connector-curvature="0"
                 style="fill:#ecf0f1" />
              <circle
                 cy="383.78"
                 cx="384.82001"
                 r="36.764"
                 id="circle38"
                 style="fill:#21d0c3" />
              <circle
                 cy="383.78"
                 cx="384.82001"
                 r="25.690001"
                 id="circle40"
                 style="fill:#15bdb2" />
              <circle
                 cy="383.78"
                 cx="384.82001"
                 r="13.364"
                 id="circle42"
                 style="fill:#666666" />
              <g
                 id="g48"
                 style="fill:#ffffff">
                <circle
                   cy="368.64999"
                   cx="366.59"
                   r="6.3400002"
                   id="circle44" />
                <circle
                   cy="394.84"
                   cx="395.85999"
                   r="4.3150001"
                   id="circle46" />
              </g>
            </g>
          </g>
        </g>
      </g>
    </g>
  </g>
</svg>
