<svg xmlns="http://www.w3.org/2000/svg" width="200" height="150" viewBox="0 0 150 150"><path d="M146.258 140.717c-.01 2.916-16.3 5.225-36.38 5.157-20.084-.068-36.354-2.488-36.343-5.404.01-2.916 16.298-5.225 36.38-5.157 20.082.068 36.353 2.487 36.343 5.404" fill="#5c546a"/><path d="M89.866 141.903c-.01 2.916-11.58 5.24-25.842 5.193-14.26-.05-25.813-2.452-25.802-5.368.01-2.917 11.58-5.242 25.84-5.193 14.262.048 25.814 2.452 25.804 5.368" fill="#5c546a"/><path d="M60.814 124.585l.52 8.514s-15.053 9.246-13.47 8.907c1.58-.34 14.25-5.806 14.25-5.806s3.507 13.1 4.697 12.07c1.19-1.03-1.14-12.4-1.14-12.4s16.58 5.22 16.586 3.843c.005-1.377-17.366-6.602-17.366-6.602l-1.307-9.204-2.77.68" fill="#2d212f"/><path d="M62.344 126.427l.323 7.654s-14.96 7.91-13.463 6.767c1.497-1.143 12.13-7.748 12.13-7.748l-.395-6.754 1.404.08M62.878 136.416c.133-.344.535-2.064 1.06-1.26.523.806 2.717 12.982 2.193 12.29-.523-.69-3.518-10.342-3.252-11.03M54.468 23.088l-.29-1.8-.74-4.632 9.485.032-1.153 27.087-5.272.442-2.03-21.13" fill="#352831"/><path d="M5.988 22.276l105.14-2.224-.373 101.49L8.57 125.064 5.99 22.275" fill="#ebddc4"/><path d="M15.58 122.564l-1.882-94.096-.004-.224 91.048-3.584.086 10.68-.525.29-.085-10.49-89.988 3.543 1.823 91.248-.06.11-.156 2.257 2 .007.17-.283 25.273-.87.023.33.526-.028-.023-.32 26.357-.91.02.277.525-.028-.02-.268 20.69-.713.14.456-75.94 2.618m85.386-2.944c.233-.16.47-.32.707-.484l3.305-.114-.017-2.142.525-.36.024 2.943-4.544.157m3.453-69.688l-.002-.1.513-1.803.008.898c-.16.303-.332.638-.52 1.004" fill="#d3b38e"/><path d="M15.994 120.04L29.04 95.894l12.92 9.397 10.09-25.768 14.052 4.24 18.64-35.416 7.384 5.186 9.963-15.3 3.322 2.27-12.192 17.55-7.017-4.54-18.27 35.74-13.307-5.528-11.577 27.7-12.178-10.686-13.036 21.566-2-.007.158-2.257" fill="#f14266"/><path d="M109.24 32.885L91.186 42.93l10.61.466 1.942 8.823 5.5-19.335" fill="#f14266"/><path d="M43.28 121.15l-.477-6.866.526-.027.477 6.874-.527.02" fill="#d3b38e"/><path d="M43.303 121.48l-.023-.33.527-.02.022.322-.527.027" fill="#be9267"/><path d="M70.164 120.223l-1.98-29.117.525-.027 1.98 29.124-.526.02" fill="#d3b38e"/><path d="M70.183 120.5l-.02-.277.528-.02.02.27-.527.026" fill="#be9267"/><path d="M93.354 124.696c-.38-.827-.734-1.67-1.057-2.52L97.47 122c-2.254 1.525-3.853 2.583-4.116 2.696" fill="#786f74"/><path d="M92.297 122.177c-.28-.737-.538-1.48-.776-2.23l9.446-.327c-1.26.862-2.45 1.67-3.495 2.38l-5.173.177m-.917-2.686c-7.407-24.33 6.38-56.132 12.216-67.92l.143.65.612-2.157.067-.13.012 1.624c-3.563 5.692-7.156 13.445-9.942 23.908.82.185 4.635 2.357 10.163 3.392l.308 38.023c-1.11.765-2.22 1.526-3.287 2.256l-7.79.268-.484-6.967-.527.027.484 6.96-1.977.067m14.105-2.97l-.304-37.568c1.58.27 3.29.44 5.103.447.208 0 .416-.002.627-.006l-.123 33.47c-1.643 1.136-3.47 2.395-5.302 3.656m-.532-65.78l-.015-1.812c.682-1.305 1.087-2.018 1.087-2.018l-.807.108.24-.84c1.284-.312 2.55-.706 3.76-1.192-1.373 1.61-2.814 3.513-4.265 5.754" fill="#ddc4a5"/><path d="M91.52 119.946l-.14-.455 1.977-.067.017.237.526-.028-.016-.228 7.79-.268-.708.484-9.445.326m13.44-3.066l-.307-38.023c.174.033.35.064.528.095l.305 37.568-.524.36m-.528-65.323l-.013-1.625c.186-.366.36-.7.518-1.004l.015 1.812c-.174.267-.347.54-.52.817" fill="#c7a079"/><path d="M92.085 48.165c-.896-.003-1.64-.05-2.137-.162-10.762-6.53-11.28-18.15-11.283-18.187 1.417 2.936 6.413 12.918 10.5 16.45 1.26.53 3.885.932 7.074.95l-.523.8c-1.326.094-2.585.153-3.632.15m8.408-.584l.426-.613c.534-.06 1.074-.13 1.616-.215l.128.58c-.667.08-1.4.164-2.17.247" fill="#ddc4a5"/><path d="M95.717 48.017l.522-.8h.08c1.444.004 3-.07 4.6-.248l-.427.612c-1.528.164-3.2.324-4.776.435" fill="#ef3d55"/><path d="M78.665 29.815l-1.34-2.603 1.637 1.448-.687.335s.138.298.39.82" fill="#ddc4a5"/><path d="M103.74 52.22l-.144-.65c.27-.547.523-1.05.756-1.507l-.613 2.156m-1.076-4.884l-.128-.58c.974-.15 1.953-.34 2.92-.577l-.238.838c-.597.078-1.49.192-2.554.318" fill="#ef3d55"/><path d="M93.357 119.423l-.484-6.96.526-.026.484 6.967-.527.02" fill="#c7a079"/><path d="M93.374 119.66l-.017-.237.527-.02.016.23-.526.027" fill="#b38257"/><path d="M113.944 120.422s-109.49 4.105-109.882 3.07c-.39-1.034 1.557 6.548 1.557 6.548l108.707-6.174-.383-3.444" fill="#bbb19c"/><path d="M82.268 27.937s-.427-3.895 4.667-7.735c2.183-2.68-3.256-.477-4.064 1.532l-.807 2.01s-.893-6.028-2.41-4.248c-1.515 1.78-1.27 2.766-1.27 2.766s-.71-1.674-1.215-.6c-.505 1.076-.706 2.662-.706 2.662s-.71-1.674-1.032-.582c-.323 1.093.487 1.974.487 1.974s-1.396-.617-1.315.193c.08.81 3.673 3.085 3.673 3.085l3.993-1.058" fill="#f9a78a"/><path d="M95.212 73.505s-9.193 39.67 1.204 64.224l-.134 1.056s-7.037 1.244-7.926 2.443c-.135 1.056 9.518-1.433 9.518-1.433l.862-.987c.7.282-6.872-36.84 9-53.498 0 0 16.156 5.312 18.802 54.16.243.023 7.23 2.09 9.062 1.2 1.476-.018 1.233-1.005-5.88-2.07-.082-3.218-1.878-48.13-3.708-63.72-7.402-.718-30.8-1.377-30.8-1.377" fill="#2d212f"/><path d="M118.79 36.936s-15.853 6.81-24.3 38.53c1.672.376 15.807 9.024 31.522-.584.157-8.975 4.028-28.347 4.694-30.69-.04.317-.044-5.463-.044-5.463l-3.365-1.077-8.508-.717" fill="#f3e9de"/><path d="M118.79 36.936s-15.61 6.353-24.287 5.03C87.18 37.244 82.4 26.987 82.4 26.987l-4.125 2.01s6.075 13.11 10.89 17.27c2.975 1.25 13.593 1.8 21.236-1.795 5.5-2.677 8.896-5.72 8.39-7.534M126.646 38.664s4.204-4.758 8.36-1.69c3.627 3.56 4.064 9.775 4.064 9.775l-8.19 1.366-4.234-9.452M141.34 54.695s4.897 4.97 3.867 7.278c-1.03 2.308-5.116-.336-5.116-.336s.2-5.92 1.25-6.942" fill="#f3e9de"/><path d="M81.79 35.848l1.23-7.612-4.355 1.58c.566 1.172 1.703 3.47 3.126 6.032" fill="#d4d3c8"/><path d="M83.612 26.14l-6.43 2.75.893 3.136 6.348-3.56-.81-2.325" fill="#8691a7"/><path d="M125.893 48.585s4.095 32.844-24.803 29.405c5.93 1.775 15.12 2.885 24.922-3.108.066-3.757.782-9.335 1.642-14.724l-1.76-11.573" fill="#d4d3c8"/><path d="M144.727 44.863l-23.975 1.69-1.115 24.777 18.595-1.41s4.758-21.532 6.495-25.057" fill="#ebddc4"/><path d="M127.12 70.763l11.112-.842-11.11.843m11.11-.843v-.003.002m0-.003v-.002.002m0-.003c.002 0 .002-.003.002-.005v.004m0-.005v-.003.002m0-.005c.06-.268.854-3.847 1.89-8.246-1.036 4.397-1.83 7.977-1.89 8.245" fill="#786f74"/><path d="M140.125 61.66c.337-1.43.7-2.944 1.07-4.46-.37 1.516-.733 3.03-1.07 4.46" fill="#e6d0bb"/><path d="M127.12 70.763l9.198-14.643 4.878 1.08c-.37 1.516-.734 3.03-1.07 4.46-1.038 4.398-1.83 7.977-1.89 8.245v.004h-.002v.007c-.002 0-.002 0-.002.002l-11.11.843" fill="#ddc4a5"/><path d="M142.027 56.986s-5.806-2.168-7.06-1.005c.427 1.005 4.735 1.905 4.735 1.905s-4.875-.794-4.813.175c.06.97 4.43 1.393 4.43 1.393s-5.22.457-4.753 1.145c.465.687 4.733.46 4.733.46s-2.67.703-3.155 1.62c-.484.916 2.367.23 2.367.23s2.245 1.18 3.357-.318c1.11-1.498.157-5.604.157-5.604" fill="#f9a78a"/><path d="M94.96 76.948s6.312 3.236 4.962 12.185c-1.35 8.95-6.947 26.15-4.38 44.754-.523-1.15-5.14-11.19-4-34.605 1.82-17.9 3.418-22.334 3.418-22.334M125.88 76.288s-9.326 4.1-11.082 3.94c-.884 1.682 13.257 25.3 13.928 34.027-.492-9.49-1.107-33.37-2.847-37.967" fill="#352831"/><path d="M118.543 41.213L102.34 76.055l-3.69.446-.514-3.215L117.52 41.52l1.023-.307" fill="#d4d3c8"/><path d="M117.162 39.026s-2.02 2.854-1.535 3.383c.486.528 4.814-.177 5.683-1.216.87-1.04-4.148-2.168-4.148-2.168" fill="#485770"/><path d="M117.52 41.52s-11.527 21.146-15.214 32.776c-.54.376-4.97 1.856-4.97 1.856l-.937-3.713s7.073-15.878 20.034-30.89l1.087-.03" fill="#485770"/><path d="M120.726 44.51l-1.552-2.313c.947-.25 1.8-.602 2.136-1.003.415-.498-.517-1.016-1.602-1.42.567.006 1.297.012 2.034.015 1.57.004 3.174-.01 3.306-.086l.01-.003c.116 0-4.332 4.81-4.332 4.81M114.5 41.812l2.662-2.786s-.816 1.153-1.286 2.13l-1.376.656" fill="#d5b696"/><path d="M119.174 42.197l-1.33-1.98-1.968.938c.47-.976 1.286-2.13 1.286-2.13l1.474.734 1.072.013c1.085.405 2.017.923 1.602 1.42-.336.402-1.19.754-2.136 1.004" fill="#3f454e"/><path d="M121.23 36.102l-2.44.834-4.017 3.57 3.317-.962 3.684 4.852s5.35-6.332 5.523-6.743c.175-.41-.082-1.292-.082-1.292l-5.986-.258" fill="#f5f4ed"/><path d="M123.61 14.445s-18.232 18.782-.9 18.697c0 0-1.01 3.594-3.455 5.444-2.446 1.85 4.227.09 5.724-.087 1.454-1.305 8.103-8.687 8.103-8.687s3.136 1.427 5.318-1.25c2.022-2.855-2.143-1.975-2.143-1.975s5.354-8.792-.634-10.978-9.468-3.808-12.014-1.165" fill="#f9a78a"/><path d="M119.86 26.5l-.356-.148.966-1.756c-.777.06-2.527.122-3.2-.403l-.075-.06.01-.087c.24-1.892 4.014-2.822 4.175-2.86l.105.332c-.036.008-3.54.872-3.87 2.473.666.397 2.488.306 3.16.233l.36-.038-1.274 2.316M122.796 29.194c-2.573-.01-4.95-1.766-5.062-1.85l.258-.26c.03.02 3.016 2.227 5.753 1.676 1.4-.282 2.512-1.24 3.307-2.847l.362.136c-.846 1.713-2.05 2.738-3.58 3.046-.347.07-.694.1-1.038.098" fill="#db7667"/><path d="M127.164 24.583s3.303-.857 3.048.188c-.256 1.047-4.746.612-3.048-.187" fill="#f68379"/><path d="M128.388 22.41c-.216 0-.46-.023-.736-.073-.543-.1-.89-.31-1.027-.63-.282-.65.43-1.49.462-1.525l.21.138c-.006.008-.657.774-.426 1.307.106.24.386.404.836.485 1.748.318 2.046-.578 2.05-.587l.254.06c-.003.01-.275.83-1.622.825M120.987 20.5c-.47-.003-.78-.12-.926-.352-.32-.513.36-1.372.39-1.41l.216.133c-.173.216-.576.846-.374 1.168.104.167.375.244.797.23 1.09-.037 1.44-.222 1.55-.33.056-.054.053-.092.053-.093l.26-.042c.004.02.024.132-.09.26-.23.257-.822.403-1.764.434l-.113.002M128.162 19.14s1.73.17 2.812 1.076c.222-.3-.71-2.396-2.812-1.075M121.285 17.43s1.73.168 2.812 1.076c.222-.3-.71-2.397-2.812-1.075" fill="#603639"/><path d="M138.402 28.562c2.02-2.854-2.145-1.974-2.145-1.974s.505-.83 1.03-2.043c-.343-.064-.69-.037-1.03.122-4.674 5.417-11.45 8.532-16.452 7.673-3.953-.69-4.49-3.25-4.55-4.224-.24 2.877 1.528 5.055 7.455 5.026 0 0-1.01 3.594-3.455 5.444-2.446 1.85 4.227.09 5.724-.087 1.454-1.305 8.103-8.687 8.103-8.687s3.136 1.427 5.32-1.25" fill="#ec7e70"/><path d="M128.153 3.808s-7.846.845-7.397 7.952c.905 3.513 4.83 5.5 10.128 4.407.85.082 3.492-.41 3.398.33-.094.74 2.348 2.796 1.486 4.746-.862 1.95-1.56 6.485-4.026 8.493 1.388-.293 5.97-3.488 8.786-7.283 2.816-3.794.038-5.133-.973-4.91-.77-.717-1.31-1.304-1.715-2.95-.405-1.644-2.88-11.195-9.687-10.785" fill="#603639"/><path d="M123.154 14.562s-5.478-7.167 4.47-10.056c.027.752-7.252 2.936-4.47 10.056" fill="#6a3d41"/><path d="M130.884 16.167c-2.255.42-3.928.304-5.07.062 1.466.323 3.18.327 5.07-.063M125.574 16.175l.19.043-.19-.043M132.647 16.096c-.986.008-1.66.058-1.763.07.37.037 1.085-.037 1.763-.07M124.634 15.88c-.49-.194-.727-.362-.727-.362l-.01.04c.236.118.482.225.737.322" fill="#40232b"/><path d="M140.528 22.453c2.816-3.794.038-5.133-.973-4.91-.29-.27-.548-.523-.778-.82-1.747-.432-3.624-.583-5.11-.62.388.044.645.154.615.393-.094.74 2.348 2.797 1.486 4.747-.862 1.95-1.56 6.485-4.026 8.493 1.388-.293 5.97-3.488 8.786-7.283" fill="#553032"/><path d="M140.528 22.453c1.247-1.68 1.396-2.878 1.088-3.673-1.512 1.514-4.034 3.87-7.02 6-.616 1.842-1.447 3.81-2.854 4.956 1.388-.293 5.97-3.488 8.786-7.283" fill="#40232b"/><path d="M80.612 20.02s.978 2.816 1.034 5.513c-.797 1.662-2.887-3.166-2.887-3.166s1.96 4.31 1.037 4.308c-.922-.003-2.627-2.305-2.627-2.305s1.768 2.876 1.176 2.645c-.592-.232-1.905-1.327-1.905-1.327s1.313 1.497 1.05 1.668c-.265.17-1.777-.867-1.777-.867s1.61.923 1.612.722c0-.2-1.245-1.898-1.245-1.898s1.97 1.556 1.972 1.27c0-.288-1.11-2.56-1.11-2.56s2.624 2.68 2.757 2.364c.132-.315-1.138-4.337-1.138-4.337s2.192 3.968 2.72 3.568c.398-.544-.67-5.598-.67-5.598" fill="#ec7e70"/><text transform="matrix(.26335 -.00746 .00875 .22946 24.836 48.332)" style="-inkscape-font-specification:Pacifico" font-size="67.084" font-family="Pacifico" fill="#f14266"><tspan x="0" y="0">Profit</tspan></text><text transform="matrix(.26335 -.00746 .00875 .22946 35.622 58.59)" style="-inkscape-font-specification:Pacifico" font-size="53.175" font-family="Pacifico" fill="#485770"><tspan x="0" y="0">Loss</tspan></text><path d="M67.694 155.8v-.004.004M67.728 155.99c-.012-.054-.022-.108-.03-.16.008.052.018.106.03.16M67.952 156.543l-.004-.007.004.007M67.93 156.506l-.016-.03.017.03M67.79 156.203c.034.092.074.18.12.266-.047-.088-.086-.177-.118-.267" fill="#444446"/></svg>