<svg xmlns="http://www.w3.org/2000/svg" width="200" height="150" viewBox="0 0 500 500"><path d="M368.42 414.163c-.114-2.883.78-5.694 3.606-7.798l18.248-5.416c-1.878 3.668-3.756 7.162-5.62 10.46l-16.233 2.753m-222.19-6.037C92.74 357.722 13.4 261.686 53.36 163.216c5.635-13.89 12.206-26.56 19.574-38.093l3.505 7.593-12.855 29.51 45.474-1.397c-8.162 15.49-14.903 33.124-19.84 53.018-16.554 66.69 40.228 147.186 76.684 190.356-7.248 1.376-13.92 2.7-19.675 3.922m249.364-18.028l-13.68-1.668c.298-.64.593-1.284.89-1.937l16.28-4.03c-1.16 2.61-2.322 5.147-3.49 7.635m4.07-15.373l-11.177-1.663c.922-2.34 1.836-4.74 2.733-7.177l16.248-4.02.23-.058c-1.586 4.058-3.195 8.03-4.817 11.885l-3.216 1.033m8.682-14.588c-.294-.19-.94-.446-1.58-.716.844-.426.94-1.706.084-2.2l-2.912-1.684-6.428 1.85-3.12-.465c.943-2.78 1.868-5.612 2.774-8.488l5.555-.913c2.142-.296 4.418-.716 4.63-2.95l-1.28-.253-.007-.054c-.184-1.353-1.155-2.435-2.444-2.7-.933-.19-1.884-.334-2.226-.323-.03 0-.057.002-.077.007l-2.068.36c1.397-4.72 2.743-9.555 4.02-14.464 1.998-.418 3.535-2.16 3.736-4.287l-2.528-.447c14.447-57.97 19.717-126.49 2.037-170.724l.38-.012-13.256-28.708 12.853-29.512-30.333.932.104 15.042-.214-31.1-48.808 1.5c-22.006-8.447-46.426-12.71-71.1-11.95-23.278.714-46.78 5.895-68.71 16.247l-83.015 2.552c42.136-40.36 97.073-58.114 150.064-59.743 73.797-2.268 143.808 26.742 170.203 69.56 38.18 61.93 15.37 181.657-16.337 263.643M93.516 103.074l-4.55.14c1.482-1.774 2.99-3.518 4.516-5.222l.035 5.082" fill="#c6ece3"/><path d="M165.904 404.204c-36.456-43.17-93.238-123.666-76.684-190.356 4.937-19.894 11.678-37.527 19.84-53.02l15.626-.48-.11-16.057-5.867.18 257.74-7.922-.186-27.12.186 27.12-30.768.946.11 16.058 60.723-1.866c17.68 44.235 12.41 112.754-2.037 170.723l-23.734-4.197c5.686-24.48 8.002-49.926 2.403-71.634-16.477-63.887-66.308-93.733-116.348-92.195-48.3 1.485-96.795 32.226-115.64 89.83-18.337 56.048 15.58 117.463 42.833 154.88-9.813 1.726-19.366 3.455-28.09 5.11m216.01-15.775l-4.648-.566 5.54-1.37c-.298.652-.593 1.295-.89 1.936m6.572-15.368l-16.404-2.44 19.137-4.737c-.897 2.437-1.81 4.837-2.733 7.177m5.903-16.14l-24.04-3.578c.065-.18.127-.358.19-.54l26.624-4.372c-.906 2.876-1.83 5.707-2.774 8.49m1.197-14.676l-20.252-4.002c.76-2.49 1.5-5.016 2.21-7.55l25.42-3.5c.104-.013.206-.03.306-.05-1.277 4.908-2.623 9.743-4.02 14.463l-3.663.64m-68.345-262.42l-139.81 4.298c21.93-10.352 45.432-15.533 68.71-16.248 24.674-.76 49.094 3.504 71.1 11.95" fill="#e4f6f1"/><path d="M193.993 399.095c-27.253-37.417-61.17-98.832-42.833-154.88 18.845-57.604 67.34-88.345 115.64-89.83 50.04-1.538 99.87 28.308 116.347 92.194 5.6 21.707 3.283 47.153-2.403 71.633l-34.898-6.168-14.917 3.974c-2.272-3.32-4.116-4.758-4.116-4.758-5.34-.27-5.676-7.637-10.355-7.493-2.674.08-6.765 2.613-14.023 10.324-19.958 21.204-8.082 25.335-7.71 37.344.087 2.86-.08 5.414-.507 7.737l-11.354-7.215s-6.173-19.046-8.496-18.975c-.115.004-.22.054-.316.157-2.01 2.165.05 7.21.05 7.21s-2.734.865-6.544.982c-5.037.155-11.955-.995-16.94-7.172 0 0 1.54 13.194 11.71 19.482 6.58 4.068 10.987 4.687 13.28 4.617 1.252-.038 1.875-.282 1.875-.282s5.078 4.807 12.19 11.22c-2.09 2.554-4.855 4.805-8.38 6.952-3.123 1.903-2.122 4.913.718 8.365-14.94 2.355-53.084 8.436-88.02 14.58M271.82 266.31c3.653 6.455 8.753 11.26 15.863 11.602 1.942.093 3.8.112 5.574.058 19.133-.588 28.907-9.606 36.225-23.58 7.998-15.272 5.806-39.546-17.113-47.856-4.393-1.593-8.862-2.21-13.23-2.076-18.43.567-35.057 14.516-36.388 25.107 0 0 .342 7.822 2.287 17.174-2.9 2.575-3.9 7.228-3.077 11.034.96 4.44 4.615 8.73 9.175 8.588.226-.006.454-.024.683-.053m-62.568-5.887s-1.54-8.546 2.687-11.282c.603-.388 1.084-.563 1.468-.575 2.31-.07 1.06 5.732 1.06 5.732 1.308-.72 2.604-3.267 1.487-6.358-.513-1.425-1.483-1.783-2.382-1.756-1.053.033-2.006.595-2.006.595-7.42 3.996-2.315 13.643-2.315 13.643m-6.585-1.867c-.903-3.87 2.2-9.143 2.2-9.143 5.882-12.77-3.38-13.826-3.38-13.826s5.658 5.285 1.11 12.762c-4.55 7.476.07 10.206.07 10.206m167.683 94.788l-1.623-.242 1.814-.298c-.063.182-.125.36-.19.54m4.985-15.1l-8.55-1.69c.224-1.63.603-3.188 1.2-4.545l9.56-1.316c-.71 2.534-1.45 5.06-2.21 7.55" fill="#f1faf8"/><path d="M206.224 460.767l-.617.025-.705.035c-.136.01-.28.016-.434.025-.154.02-.316.04-.484.065l-1.105.15c-.397.05-.783.147-1.2.226-.416.082-.85.164-1.268.275-.426.103-.858.21-1.29.314-.85.22-1.743.362-2.51.577-.385.11-.747.255-1.084.38-.338.124-.653.256-.943.39-.145.063-.282.135-.413.2-.132.058-.26.106-.378.166-.237.11-.444.215-.613.31-.34.186-.536.323-.536.323l.037.16s.238.054.656.094c.21.02.462.036.754.045.295.01.622.005.966-.034.347-.032.722-.078 1.113-.144.395-.057.78-.167 1.182-.285.804-.247 1.56-.65 2.373-.96.798-.307 1.6-.628 2.347-.9.374-.136.742-.283 1.084-.396.347-.112.674-.22.976-.32.153-.048.3-.097.44-.143.148-.035.287-.07.418-.1l.678-.167.59-.15-.034-.163M203.198 457.986l-.723.03-.83.038c-.32.01-.682.047-1.08.09l-1.287.133c-.458.053-.925.137-1.417.208-.49.074-1 .15-1.506.258l-1.544.304c-.512.113-1.03.215-1.54.31-.517.092-1.01.207-1.48.34-.466.14-.91.29-1.32.458-.405.167-.785.337-1.13.504-1.378.662-2.178 1.323-2.178 1.323l.076.154s.29.01.77-.02c.24-.014.526-.04.852-.077.324-.04.688-.086 1.08-.15.777-.13 1.666-.313 2.58-.58.908-.294 1.835-.687 2.8-1.01.97-.3 1.936-.62 2.856-.88.46-.134.903-.262 1.324-.386l1.194-.312c.37-.1.713-.19 1.028-.247l.806-.17.7-.156-.03-.164M198.114 454.912l-.65-.02-.746-.017-.46-.007-.514.026c-.363.018-.757.04-1.173.06-.42.022-.84.088-1.29.133-.446.05-.91.098-1.37.18-.462.077-.93.153-1.4.23-.923.178-1.89.265-2.735.473-.845.218-1.593.496-2.224.766-.315.14-.6.274-.853.393-.25.123-.47.237-.646.34-.356.202-.553.347-.553.347l.05.16s1.03.158 2.475.027c.72-.065 1.548-.18 2.386-.395.84-.23 1.68-.58 2.557-.847.876-.25 1.753-.52 2.58-.732.415-.105.82-.222 1.198-.31l1.076-.242.484-.11c.158-.023.31-.047.45-.07l.735-.115.64-.106-.016-.165M193.682 451.307s-.192.07-.53.19c-.17.058-.373.133-.606.22-.23.098-.503.158-.792.246l-.928.263-1.067.257c-.367.095-.753.175-1.145.256-.39.08-.787.164-1.183.247-.803.143-1.623.22-2.367.35-.37.074-.718.172-1.047.274-.33.094-.64.196-.927.3-.286.106-.545.22-.778.306-.232.095-.436.184-.603.266-.336.16-.528.284-.528.284l.024.163s.22.07.606.138c.194.036.427.07.697.1.27.03.57.042.896.043.327 0 .68-.01 1.05-.037.37-.03.75-.095 1.14-.174.385-.088.778-.202 1.162-.35.387-.142.782-.28 1.177-.408l1.166-.42c.388-.132.758-.283 1.11-.443l1.016-.445.883-.46c.266-.145.526-.263.718-.397.2-.128.375-.24.517-.335.284-.19.447-.296.447-.296l-.11-.14M189.28 448.512l-.58.175-.664.208c-.253.085-.543.174-.862.247-.314.08-.655.164-1.016.255-.353.094-.753.17-1.15.263-.795.18-1.66.358-2.52.54-.866.187-1.765.277-2.575.498-.4.116-.78.234-1.13.388-.353.148-.678.3-.973.452-.59.297-1.037.632-1.336.866-.3.237-.45.398-.45.398l.09.147s.257.01.67-.01c.208-.01.452-.03.727-.062.14-.01.28-.037.43-.056.154-.017.316-.03.48-.056.333-.045.684-.104 1.05-.18.363-.074.755-.155 1.143-.268.77-.232 1.57-.592 2.396-.868.413-.145.83-.29 1.236-.434.41-.135.805-.3 1.19-.45.38-.16.754-.284 1.1-.452.34-.16.665-.31.964-.447.303-.133.56-.27.785-.398l.584-.325.505-.287-.096-.146M184.877 446.538l-.603.018c-.192 0-.427.022-.7.052-.275.024-.583.06-.91.113-.334.044-.687.11-1.064.18-.377.067-.762.164-1.166.256-.804.186-1.635.43-2.462.658-.412.114-.83.217-1.24.307-.41.094-.806.18-1.178.29-.736.22-1.385.494-1.953.717-.14.055-.275.12-.405.176-.13.053-.257.096-.373.152-.238.105-.445.197-.615.274-.348.153-.556.272-.556.272l.018.164s.226.074.635.15c.102.016.217.04.34.055l.4.032c.288.02.614.03.962.008.354-.013.727-.055 1.116-.12.395-.054.785-.16 1.188-.274.788-.257 1.54-.666 2.32-.995l2.254-.967c.72-.293 1.39-.57 1.986-.77.297-.105.57-.192.815-.26.244-.072.46-.136.648-.18.37-.09.58-.143.58-.143l-.033-.162M179.75 442.933l-.515.278c-.166.087-.374.167-.598.272-.228.102-.514.197-.805.31-.31.095-.63.208-.99.303-.358.097-.727.206-1.123.298-.39.102-.807.183-1.218.283-.42.087-.84.182-1.27.26-.426.083-.86.147-1.29.202-.427.057-.85.11-1.25.193-.794.17-1.516.41-2.13.637-.31.115-.588.234-.837.342-.247.11-.46.212-.634.305-.35.182-.543.315-.543.315l.042.16s.242.057.655.103c.414.05.995.077 1.685.063.345-.007.714-.033 1.102-.074.39-.036.792-.105 1.204-.19.408-.1.822-.22 1.236-.37l1.258-.43c.846-.28 1.687-.572 2.447-.904.382-.16.747-.324 1.084-.492.34-.163.647-.343.933-.496.276-.174.53-.317.747-.47.212-.154.406-.283.537-.402l.41-.372-.138-.123M173.982 440.662s-.713.064-1.768.194c-.528.06-1.143.132-1.804.21-.66.068-1.353.167-2.05.257-.7.116-1.438.144-2.09.286-.324.078-.63.158-.91.287-.28.123-.538.252-.77.38-.465.26-.823.515-1.058.714-.237.198-.355.336-.355.336l.084.15s.214.038.556.06c.342.023.81.03 1.336-.015.263-.02.54-.054.828-.104.286-.047.606-.084.913-.165.62-.157 1.235-.45 1.888-.654.67-.202 1.338-.396 1.96-.6.307-.102.61-.19.89-.293l.787-.284c.977-.346 1.62-.6 1.62-.6l-.055-.158M169.95 437.32h-.563c-.178-.007-.398.006-.654.025-.258.014-.544.038-.85.074-.314.03-.646.076-1 .126-.355.047-.717.122-1.1.188-.756.14-1.546.323-2.33.495-.78.176-1.588.263-2.286.424-.697.17-1.313.394-1.85.58-.136.045-.264.097-.387.146-.124.048-.243.078-.354.126-.224.085-.423.17-.59.23-.334.125-.54.228-.54.228l-.003.165s.2.09.573.196c.19.06.418.1.686.14.27.04.57.067.902.072.334.013.683-.012 1.054-.045.37-.036.75-.104 1.13-.196.757-.2 1.477-.56 2.226-.83l2.158-.816c.686-.248 1.325-.49 1.885-.66.28-.093.54-.168.768-.226.23-.062.433-.118.608-.156l.542-.124-.025-.164M164.827 433.71s-.18.078-.496.21c-.158.066-.347.148-.563.244-.213.106-.47.182-.742.276l-.87.297-1.007.29c-.346.105-.708.202-1.08.29l-1.12.282c-.382.077-.77.143-1.15.203-.376.067-.75.116-1.102.19-.35.08-.68.184-.99.292-.313.095-.606.2-.876.306-.27.106-.517.22-.737.31-.22.094-.414.183-.573.265-.32.16-.504.283-.504.283l.022.164s.213.07.587.138c.187.037.414.07.677.1.266.036.555.038.873.035.636-.002 1.377-.052 2.12-.243.372-.09.745-.22 1.11-.374.37-.15.742-.3 1.12-.435.367-.152.736-.305 1.1-.454.366-.142.71-.31 1.04-.48.33-.166.65-.318.945-.478.29-.174.563-.34.815-.49.247-.154.483-.284.655-.425.18-.134.338-.252.466-.352.255-.198.402-.31.402-.31l-.12-.134M158.367 430.076l-.452.193c-.14.064-.316.136-.515.203-.2.07-.412.155-.67.224-.497.158-1.103.282-1.744.41-.654.11-1.348.225-2.066.316-.717.102-1.472.107-2.163.252-.344.077-.67.176-.972.3-.303.12-.58.245-.828.39-.25.132-.465.275-.642.42-.182.136-.33.262-.438.384-.22.234-.316.387-.316.387l.108.14s.223.01.56-.01c.166-.008.367-.02.598-.033l.733-.06c.522-.06 1.13-.112 1.765-.264.63-.155 1.3-.432 2.002-.63.35-.104.703-.21 1.05-.32.347-.105.685-.24 1.008-.36.32-.135.634-.25.914-.396.285-.133.544-.274.776-.41.237-.127.442-.27.623-.39.185-.117.327-.226.436-.323l.355-.292-.123-.132M154.68 427.55l-.52.036c-.164.01-.363.026-.593.047-.228.013-.486.044-.77.092l-.924.14c-.333.05-.656.127-1.006.194-.702.132-1.415.304-2.14.467-.358.074-.72.136-1.077.195-.36.063-.703.104-1.024.178-.32.07-.622.186-.903.274-.282.085-.547.18-.793.28-.123.048-.242.1-.355.15-.112.042-.222.075-.324.12-.203.078-.386.155-.54.227-.305.142-.49.253-.49.253l.002.165s.186.082.533.174c.173.048.386.095.636.14.126.024.26.042.4.062.138.006.282.012.433.013.303.004.633-.005.98-.03.35-.02.686-.097 1.04-.183.352-.092.705-.215 1.035-.364.337-.146.68-.288 1.026-.42l1.978-.793c.628-.26 1.2-.482 1.7-.675.248-.1.485-.184.704-.246.215-.066.403-.124.555-.176.31-.1.486-.16.486-.16l-.046-.16M150.626 424.76s-.19-.004-.528-.008c-.338-.003-.812-.017-1.396.017l-.948.04c-.336.017-.68.058-1.044.088-.362.033-.738.064-1.112.12l-1.142.15c-.756.123-1.55.15-2.244.31-.694.16-1.3.41-1.812.65-.51.24-.912.487-1.187.68-.277.193-.423.33-.423.33l.06.158s.217.047.578.078c.36.034.868.05 1.452.018.583-.034 1.252-.1 1.928-.266.675-.18 1.353-.47 2.065-.684.714-.203 1.427-.406 2.095-.598.674-.19 1.296-.357 1.837-.494.536-.152 1.015-.225 1.335-.31l.51-.116-.024-.164M145.173 421.687s-.73.076-1.812.226l-.874.116c-.31.037-.633.1-.97.154-.675.108-1.387.247-2.102.378-.705.126-1.44.16-2.08.31-.323.072-.624.186-.906.275-.283.09-.547.19-.788.294-.485.205-.883.424-1.16.6-.28.172-.434.3-.434.3l.036.164s.2.06.54.115c.34.057.825.106 1.4.107.288.002.598-.01.92-.035.33-.017.65-.09.98-.17.66-.177 1.313-.486 1.997-.706.66-.237 1.328-.467 1.946-.705.624-.232 1.204-.45 1.703-.634 1-.366 1.66-.63 1.66-.63l-.057-.16M140.762 418.35l-.52.135c-.166.043-.367.098-.595.163-.227.072-.49.127-.772.18-.28.054-.582.114-.9.177-.322.057-.674.105-1.027.16-.707.12-1.48.192-2.237.288-.383.03-.77.048-1.15.063-.38.02-.756.023-1.112.062-.357.037-.696.108-1.02.18-.324.066-.628.143-.91.225-.562.168-1.035.332-1.363.48-.33.14-.52.25-.52.25l.015.166s.204.08.56.17c.357.092.866.206 1.475.25.61.052 1.322.08 2.07-.022.373-.05.753-.13 1.133-.24.382-.104.768-.205 1.157-.293l1.148-.31c.38-.092.745-.22 1.095-.342.35-.123.69-.223 1.006-.354.31-.135.607-.26.88-.378.27-.112.512-.22.708-.333.202-.108.378-.203.52-.284.287-.16.452-.25.452-.25l-.092-.147M135.71 415.543l-.45-.07c-.143-.028-.32-.047-.534-.054-.213-.014-.46-.03-.717-.02-.263-.003-.548.007-.846.033-.304.012-.61.066-.935.106-.32.053-.655.103-.98.18-.327.07-.656.15-.982.23-.645.17-1.327.265-1.887.446-.56.19-1.022.442-1.42.66-.2.112-.382.226-.544.324l-.426.276c-.242.157-.388.278-.388.278l.03.163s.177.07.505.138c.167.04.36.057.59.075.23.022.48.018.753.002.278-.012.556-.055.857-.105.29-.054.597-.128.884-.233.584-.215 1.11-.56 1.686-.81.57-.26 1.14-.484 1.68-.7.545-.193 1.06-.378 1.523-.483.232-.065.44-.1.63-.135.186-.04.36-.065.508-.08l.457-.058.006-.164M130.905 413.576s-.614.02-1.526.087c-.23.014-.478.03-.74.048-.26.015-.533.054-.818.082-.57.056-1.174.14-1.78.217-.594.074-1.21.057-1.752.16-.27.048-.526.136-.76.21-.235.073-.456.154-.658.243-.405.173-.74.366-.974.523-.236.156-.368.275-.368.275l.028.163s.164.073.448.148c.285.08.69.157 1.176.192.24.02.503.027.777.02.274 0 .545-.044.824-.102.556-.13 1.108-.388 1.685-.56.556-.183 1.118-.36 1.638-.547l1.44-.5c.846-.284 1.404-.497 1.404-.497l-.047-.16M369.417 424.068l.748-.07.855-.086c.33-.03.703-.075 1.11-.14l1.318-.193c.473-.066.95-.17 1.454-.258.503-.094 1.027-.184 1.545-.3l1.582-.337c1.048-.234 2.137-.387 3.102-.626.963-.264 1.828-.56 2.564-.853.367-.15.704-.29 1-.412.297-.13.556-.247.766-.354.423-.21.66-.358.66-.358l-.046-.16s-.29-.04-.79-.056c-.496-.015-1.215-.02-2.042.07-.415.043-.86.102-1.33.178-.47.07-.944.185-1.436.31-.98.268-1.952.685-2.968 1.01-1.007.33-2.015.656-2.96.963-.946.31-1.825.574-2.588.804-.378.12-.734.218-1.052.296l-.822.218-.714.193.043.16M366.045 421.832s.927-.195 2.3-.52c.69-.158 1.495-.34 2.35-.553.86-.204 1.762-.445 2.67-.677.892-.276 1.834-.47 2.66-.762.82-.302 1.54-.665 2.135-1.004.592-.346 1.067-.66 1.38-.912.315-.245.477-.41.477-.41l-.092-.15s-.27-.005-.71.03c-.444.028-1.05.11-1.75.244-.7.14-1.493.335-2.294.63-.793.306-1.58.75-2.415 1.113-.855.338-1.714.67-2.51 1-.798.323-1.537.64-2.17.91-1.27.532-2.107.91-2.107.91l.077.152M361.27 420.133s.82-.256 2.033-.67l.98-.33c.348-.124.72-.222 1.1-.34.767-.224 1.564-.484 2.364-.735.818-.24 1.68-.397 2.427-.653.737-.268 1.396-.588 1.944-.894.546-.312.985-.6 1.276-.835.295-.228.448-.386.448-.386l-.08-.153s-.247-.02-.655-.006c-.412.008-.976.064-1.635.165-.328.053-.678.12-1.04.207-.366.08-.74.2-1.116.332-.746.28-1.48.697-2.256 1.028-.77.366-1.538.723-2.243 1.077-.348.18-.706.33-1.006.514l-.864.497c-1.075.612-1.777 1.04-1.777 1.04l.1.143M355.805 418.154l.56-.225c.176-.074.39-.163.637-.264.243-.11.524-.214.832-.32l.983-.35c.348-.12.732-.233 1.116-.357.388-.124.785-.253 1.2-.363l1.244-.35c.424-.097.853-.182 1.274-.262.42-.086.836-.15 1.23-.24.388-.093.755-.216 1.104-.327.35-.104.68-.217.982-.33.153-.057.298-.12.435-.177.14-.056.275-.09.4-.147.248-.097.466-.19.648-.274.36-.168.57-.293.57-.293l-.022-.164s-.237-.067-.652-.13c-.208-.033-.46-.063-.754-.09-.293-.03-.62-.034-.972-.02-.353.01-.736.037-1.14.078-.4.043-.807.136-1.226.236-.417.11-.838.247-1.243.425-.41.17-.827.34-1.246.498l-1.22.52c-.408.162-.784.36-1.15.546-.364.19-.725.353-1.048.543l-.905.535c-.565.32-.973.63-1.28.836l-.47.33.115.136M350.334 415.636l.655-.15c.422-.093.99-.22 1.713-.334.713-.124 1.558-.226 2.456-.346l2.846-.344c.974-.13 1.982-.17 2.902-.36.456-.1.894-.225 1.296-.366.406-.147.782-.29 1.116-.458.336-.16.635-.322.886-.484.25-.16.466-.3.625-.443.328-.268.485-.444.485-.444l-.103-.142s-.277.008-.713.06c-.216.03-.483.052-.777.09-.15.01-.298.044-.463.062-.165.018-.338.036-.514.063-.703.1-1.52.21-2.383.4-.856.2-1.764.512-2.704.733-.942.227-1.893.448-2.776.69-.443.126-.872.234-1.272.364-.4.124-.78.242-1.124.364-.345.116-.66.23-.938.34-.278.105-.516.198-.7.286l-.595.268.08.152M344.49 413.114l.68.082c.214.032.484.044.798.055.315.02.667.02 1.048.014.388.004.797-.028 1.24-.05.434-.03.895-.073 1.365-.13.473-.05.956-.11 1.443-.18.494-.073.955-.13 1.486-.22.977-.16 1.986-.23 2.894-.414.45-.097.88-.21 1.284-.337.395-.12.793-.256 1.108-.378l.124-.047.078-.03c.045-.025.126-.046.192-.067.14-.043.285-.07.426-.11.29-.072.554-.122.84-.216.062-.022.16-.054.25-.113.062-.045.112-.082.14-.146.028-.06.04-.147.02-.178-.07-.163-.156-.174-.214-.22l-.184-.076-.153.115.046.138-.026.084-.002-.077.04-.068-.038-.04c-.147-.043-.414-.11-.73-.168-.163-.033-.34-.05-.54-.066-.102-.006-.195-.016-.327-.012l-.19.006-.144.007c-.41.027-.795.062-1.227.12-.427.05-.87.125-1.322.22-.9.207-1.82.548-2.767.802-.433.125-.943.25-1.4.37-.464.123-.92.242-1.362.357-.44.117-.87.21-1.274.307-.404.085-.79.178-1.15.232-.36.064-.69.117-.98.145-.294.034-.55.07-.773.078l-.687.046-.01.164M341.126 411.153s.836-.1 2.078-.285l1.005-.145c.355-.05.725-.137 1.113-.208.775-.15 1.596-.33 2.423-.507.805-.205 1.654-.327 2.397-.55.368-.122.72-.247 1.034-.4.315-.148.607-.3.87-.453.526-.308.945-.594 1.22-.823.28-.223.423-.38.423-.38l-.083-.15s-.24-.02-.636-.01c-.395.003-.936.053-1.565.146-.625.1-1.332.253-2.057.477-.717.24-1.424.617-2.175.91-.75.274-1.51.54-2.214.816-.702.278-1.38.514-1.96.715-1.164.4-1.932.69-1.932.69l.058.158M337.11 408.34l.458-.296c.147-.096.34-.17.543-.28.2-.107.477-.196.743-.307.285-.098.595-.2.927-.294.34-.084.684-.19 1.062-.27.37-.088.763-.16 1.156-.242.395-.08.802-.148 1.207-.216.41-.063.82-.118 1.232-.155.41-.04.812-.082 1.194-.15.763-.144 1.46-.357 2.053-.57.592-.224 1.08-.44 1.412-.626.333-.182.513-.315.513-.315l-.046-.16s-.234-.057-.624-.104c-.195-.025-.43-.048-.7-.065-.265-.014-.568-.028-.892-.027-.65.003-1.405.045-2.19.195-.784.16-1.583.468-2.4.708-.813.255-1.626.512-2.357.83-.74.294-1.394.64-1.925.96-.257.176-.5.31-.694.477-.19.16-.373.29-.478.414l-.344.382.15.11M333.345 406.395s.708-.237 1.72-.652c.51-.204 1.104-.44 1.728-.703l1.95-.807c.66-.275 1.377-.45 1.972-.694.592-.252 1.09-.54 1.517-.775l.578-.318c.085-.046.17-.093.243-.123.08-.04.15-.076.215-.1.262-.112.473-.14.473-.14l.09-.148-.114-.1c-.04-.036-.095-.067-.163-.1-.07-.036-.154-.078-.25-.103-.197-.07-.437-.11-.715-.134-.276-.023-.58-.018-.896.016-.633.07-1.334.225-1.98.51-.648.29-1.224.725-1.838 1.09-.61.374-1.21.748-1.75 1.12-.548.365-1.042.72-1.466 1.02l-1.42 1 .107.14M328.527 405.258s.69-.118 1.704-.38c.51-.124 1.1-.28 1.72-.467.626-.183 1.28-.403 1.93-.637.325-.114.655-.227.987-.332.328-.11.65-.22.938-.367.573-.29 1.032-.664 1.388-1.02.18-.173.324-.36.443-.52.116-.173.204-.328.267-.458.115-.278.132-.442.132-.442l-.163-.1s-.21.047-.5.133c-.16.036-.337.088-.534.146-.21.053-.42.123-.66.202-.47.156-1.007.343-1.533.62-.52.28-1.01.68-1.576.994-.558.322-1.138.622-1.67.923-.54.293-1.045.565-1.48.798-.872.456-1.472.758-1.472.758l.08.152" fill="#97d1c6"/><path d="M323.732 403.018s.215-.004.59-.014c.377-.008.91-.032 1.554-.067.644-.033 1.398-.07 2.2-.142.4-.035.817-.057 1.236-.108.42-.047.848-.092 1.275-.14.43-.043.86-.086 1.284-.13.43-.04.847-.075 1.244-.16.394-.09.77-.193 1.118-.313.35-.108.675-.255.967-.39.292-.137.552-.274.78-.4.224-.148.41-.28.557-.398.296-.23.435-.385.435-.385l-.094-.144s-.252-.017-.64-.008c-.197.002-.425.014-.677.034-.266.007-.562.02-.877.045-.315.026-.64.072-1.002.11-.358.04-.726.104-1.102.19-.37.092-.76.193-1.148.32-.39.118-.785.245-1.192.342l-6.54 1.596.034.162M318.644 399.67l2.086.007c.625 0 1.357.004 2.144-.017.786-.01 1.627-.062 2.473-.12.427-.03.854-.056 1.274-.084.426-.023.843-.07 1.24-.144.395-.08.77-.193 1.116-.318.345-.136.667-.26.947-.418.283-.15.53-.298.738-.452.208-.152.383-.28.51-.414.258-.254.373-.418.373-.418l-.11-.14s-.245.002-.618.04c-.183.022-.415.034-.663.062l-.825.088c-.29.044-.62.07-.947.126-.34.04-.683.107-1.044.18-.357.08-.72.187-1.098.295-.373.114-.767.206-1.16.295-.79.167-1.592.31-2.347.46l-2.078.394c-1.224.228-2.033.415-2.033.415l.024.164M314.212 398.252l1.897-.235c.566-.068 1.23-.14 1.94-.235.715-.087 1.47-.202 2.23-.323.38-.058.764-.114 1.146-.16.38-.056.757-.107 1.11-.204.35-.092.68-.213.983-.35.303-.127.582-.286.83-.427.25-.154.466-.304.647-.453.18-.155.33-.287.44-.414.218-.256.305-.42.305-.42l-.123-.13s-.232.007-.57.05c-.175.015-.385.033-.61.062-.23.025-.49.053-.76.096-.28.033-.563.09-.877.143-.307.054-.628.126-.956.218-.646.195-1.31.506-2.02.722l-2.088.655c-.67.21-1.294.422-1.827.605-1.074.36-1.76.642-1.76.642l.06.158M310.162 394.913l.426-.034c.273-.027.65-.043 1.118-.13l.76-.126c.275-.045.538-.117.825-.18.58-.118 1.156-.29 1.75-.45.576-.166 1.204-.254 1.717-.425.257-.088.493-.208.706-.316.217-.11.416-.227.597-.346.18-.12.344-.232.488-.338.144-.107.268-.206.37-.296.204-.18.317-.312.317-.312l-.057-.158s-.178-.053-.482-.094c-.3-.038-.747-.085-1.23-.035-.246.02-.507.056-.778.107-.277.043-.538.124-.806.223-.538.204-1.012.544-1.544.8-.52.256-1.037.513-1.524.752-.49.244-.934.453-1.328.634-.193.096-.38.175-.555.236-.17.064-.32.122-.44.174-.244.097-.384.155-.384.155l.056.158M305.367 394.04l.37-.076c.12-.024.26-.056.422-.093.16-.036.343-.073.54-.15.202-.068.422-.143.652-.223.246-.076.45-.187.69-.29.23-.107.486-.21.707-.336l.696-.372c.447-.25.972-.443 1.352-.677.19-.12.35-.27.493-.4.148-.132.278-.27.39-.405l.31-.38c.09-.118.167-.228.227-.33.123-.194.185-.337.185-.337l-.095-.145s-.172-.03-.457-.028c-.143 0-.312.01-.506.028-.197.017-.41.052-.618.115-.213.058-.44.134-.668.227-.237.087-.438.208-.643.346-.408.286-.688.68-1.06 1.004-.356.32-.716.644-1.053.93-.17.142-.334.295-.492.41l-.454.35c-.136.116-.295.206-.43.285-.135.08-.253.15-.348.212l-.302.19.09.148M297.208 390.644s.137-.092.38-.25c.12-.085.27-.173.438-.27.166-.1.36-.206.584-.313.433-.222.976-.434 1.552-.653.588-.204 1.22-.41 1.868-.592.328-.086.657-.164.993-.227.33-.067.66-.13.965-.223.608-.188 1.14-.452 1.594-.704.448-.254.805-.514 1.037-.72.235-.202.352-.345.352-.345l-.078-.152s-.21-.035-.548-.05c-.34-.017-.807-.02-1.35.03-.537.053-1.16.142-1.787.344-.623.21-1.23.565-1.868.852-.315.152-.63.3-.934.463-.31.154-.594.332-.872.498-.27.178-.537.34-.767.522-.232.177-.45.34-.632.512-.19.16-.353.317-.49.464-.144.142-.26.265-.336.374-.166.212-.26.335-.26.335l.156.107" fill="#97d1c6"/><path d="M374.384 424.72s-72.11-32.846-85.856-41.227c0 0-138.51 21.516-160.507 29.174 0 0 65.684 39.81 77.334 49 0 0 162.665-32.046 169.03-36.948" fill="#6ba6a5"/><path d="M349.048 422.64l.425-.843-63.29-33.316-.29.05s-29.585 4.96-61.614 10.653c-16.016 2.848-32.642 5.88-46.49 8.57-6.923 1.343-13.15 2.602-18.266 3.71-5.116 1.11-9.108 2.064-11.598 2.814l-2.094.63 1.87 1.1 2.303 1.356c5.152 3.037 18.136 10.713 30.64 18.298 6.25 3.794 12.384 7.563 17.353 10.717 2.484 1.575 4.68 2.998 6.448 4.19 1.767 1.19 3.12 2.156 3.884 2.787l.32.264.41-.082s33.026-6.702 67.06-13.8c17.017-3.548 34.285-7.195 47.806-10.154 6.76-1.48 12.584-2.787 16.974-3.826 2.195-.52 4.032-.97 5.452-1.343 1.427-.376 2.414-.662 3-.892l1.943-.764-1.822-.96-.425.844-.305-.88c-.42.166-1.406.46-2.798.825-5.248 1.378-16.473 3.894-30.324 6.882-20.78 4.483-47.5 10.037-69.022 14.47-10.76 2.218-20.224 4.155-26.995 5.537l-7.967 1.624c-1.866.38-2.883.586-2.887.586l.154.926.574-.744c-.98-.808-2.632-1.97-4.812-3.42-7.62-5.066-21.62-13.58-33.728-20.838-12.108-7.256-22.315-13.248-22.317-13.25l-.46.824.236.906c2.39-.722 6.368-1.676 11.46-2.778 17.836-3.865 49.42-9.597 76.53-14.36 13.555-2.38 25.995-4.52 35.045-6.065 4.527-.772 8.205-1.395 10.752-1.825l2.935-.496 1.027-.172-.125-.93-.426.842 63.03 33.18.424-.844-.305-.88.305.88" fill="#9ad3c7"/><path d="M332.15 421.46l.443-.832-48.544-27.008-123.96 22.853 50.85 32.2 123.85-26.824-2.197-1.222-.442.833-.165-.922-120.678 26.135-46.154-29.226L283.71 395.59l48 26.705.44-.834-.165-.922.166.923" fill="#97d1c6"/><path d="M373.6 426.91c7.407-1.58 43.516-14.048 43.516-14.048l-8.355-3.766-37.016 14.916c-2.717-4.718-6.145-13.162.553-17.84l-61.495-12.995.684.884s-8.157 11.013 1.98 20.356l58.493 12.587.093.096c.083.017.212.018.377.005l1.562.336s-.15-.192-.39-.53" fill="#e55249"/><path d="M371.522 406.195s-9.647 4.767.223 17.817l40.5-11.224-3.42-18.803-37.303 12.21" fill="#fff"/><path d="M314.4 395.28l32.912-11.067 60.748 7.404c1.15-1.644 3.2-.284 3.487.095.756.99 1.612 2.513.407 2.803l-42.336 12.565-55.217-11.8" fill="#df3728"/><path d="M414.81 391.387l-1.76-2.36-42.812 13.757c-2.44-4.475-5.49-12.01.39-13.86l-57.04-13.132s-8.842 9.927-2.786 17.385c0 0 59.064 12.81 60.437 12.77 1.373-.04 43.57-14.56 43.57-14.56" fill="#f9d7d6"/><path d="M369.23 389.266s-7.508 3.474 1.48 14.663l43.154-13.42-3.795-12.654-40.84 11.41" fill="#fff"/><path d="M314.282 377.983l32.91-11.065 61.73 9.184c.407.565 3.076 1.358 3.364 1.735.756.993.188 1.322-1.017 1.613l-41.77 10.335-55.218-11.802" fill="#ee8d87"/><path d="M410.67 376.853l-5.644-3.85-37.4 12.003c-2.804-4.194-5.842-10.652-.605-13.673l-58.977-13.073s-3.408 11.37 5.545 17.532l56.074 13.362 41.008-12.3" fill="#e2463b"/><path d="M366.442 371.753s-7.276 4.274 1.185 13.254l39.52-9.477-.885-16.064-39.82 12.287" fill="#fff"/><path d="M310.48 360.398l32.91-11.066 61.73 9.185c.407.566 3.076 1.357 3.364 1.736.756.993.19 1.322-1.016 1.612l-41.77 10.336-55.22-11.802" fill="#dc3122"/><path d="M403.938 355.536l-38.357 11.03c-1.33-5.267-2.49-13.24 2.08-14.966l-62.86-14.16s-4.955 11.82 3.243 20.82l58.978 13.073 39.537-11.83c1.032-.308 1.216-1.75.293-2.284l-2.912-1.684" fill="#e65b51"/><path d="M367.66 351.6s-10.035 5.54-1.634 15.94l38.702-9.614-.496-11.875-36.572 5.55" fill="#fff"/><path d="M309.77 341.914l35.83-9.546 61.75 12.2c-.212 2.236-2.488 2.656-4.63 2.95l-37.73 6.2-55.22-11.804" fill="#e03b2d"/><path d="M406.19 345.208l-.127-.945c-.184-1.353-1.155-2.435-2.444-2.7-1.02-.206-2.057-.36-2.303-.316l-32.764 5.714c-.893.157-1.713-.49-1.803-1.42-.453-4.7-.47-11.04 1.943-14.878.632-1.004.022-2.326-1.11-2.472l-61.087-7.874c-.808-.103-1.574.45-1.767 1.28-.025.1-.056.196-.097.292-.455 1.05-3.28 8.13-.154 14.9.192.418.573.71 1.013.813l61.29 14.2c.134.033.274.048.414.04 3.132-.195 28.566-4.976 28.566-4.976l10.428-1.656" fill="#f09993"/><path d="M370.02 328.798s-7.687 8.685-2.77 19.395l36.018-5.51.078-16.697-32.746 2.592" fill="#fff"/><path d="M310.02 321.59l35.826-9.545 61.16 10.81c-.21 2.234-1.896 4.045-4.04 4.34l-35.634 4.904-57.313-10.51" fill="#eb7972"/><path d="M275.1 432.645c-32.413.996-58.702.083-58.717-2.042-.014-2.124 26.25-4.653 58.664-5.65 14.374-.44 27.54-.508 37.748-.26l-36.546 7.916c-.384.01-.766.023-1.15.035m11.893-.445l33.413-7.236c5.002.245 8.805.592 11.05 1.033-4.647 1.04-10.008 2.213-15.835 3.47-2.165.467-4.398.946-6.68 1.434-6.47.5-13.91.945-21.947 1.3m38.71-3.01c2.704-.593 5.24-1.156 7.58-1.682-1.03.555-3.667 1.127-7.58 1.683" fill="#488082"/><path d="M308.94 430.9c2.282-.487 4.515-.966 6.68-1.433 5.828-1.257 11.19-2.43 15.836-3.47 1.5.293 2.305.627 2.308.998 0 .17-.163.34-.482.513-2.34.526-4.875 1.09-7.578 1.683-4.235.604-9.966 1.188-16.764 1.71" fill="#65a39b"/><path d="M276.25 432.61l36.545-7.917c2.765.068 5.316.158 7.61.27l-33.412 7.237c-3.48.154-7.07.292-10.744.41" fill="#63a19b"/><path d="M114.262 437.59c-32.413.995-58.702.08-58.717-2.043-.014-2.124 26.25-4.653 58.664-5.65 11.193-.343 21.656-.46 30.558-.377l-.193.084c-.112.042-.222.075-.324.12-.203.078-.386.155-.54.227-.305.142-.49.253-.49.253l.002.165s.186.082.533.174c.173.048.386.095.636.14.126.024.26.042.4.062.138.006.282.012.433.013.158.002.32 0 .49-.005.16-.005.323-.013.49-.025.35-.02.686-.097 1.04-.183.352-.092.705-.215 1.035-.364.337-.146.68-.288 1.026-.42l.425-.17c2.186.04 4.255.097 6.187.165l1.28.792c-.142.05-.295.104-.468.15-.497.158-1.103.282-1.744.41-.654.11-1.348.225-2.066.316-.717.102-1.472.107-2.163.252-.344.077-.67.176-.972.3-.303.12-.58.245-.828.39-.25.132-.465.275-.642.42-.182.136-.33.262-.438.384-.22.234-.316.387-.316.387l.108.14s.136.006.358 0c.06-.002.13-.005.203-.01.164-.008.365-.02.596-.033l.733-.06c.522-.06 1.13-.112 1.765-.264.63-.155 1.3-.432 2.002-.63.35-.104.703-.21 1.05-.32.347-.105.685-.24 1.008-.36.32-.135.634-.25.914-.396.285-.133.544-.274.776-.41.226-.122.423-.258.596-.373 1.856 1.15 3.746 2.32 5.645 3.5l-.024.01c-10.488 1.365-28.53 2.61-49.03 3.24" fill="#76c2b1"/><path d="M163.293 434.35l.024-.01.006.005-.03.004M148.026 433.697c-.222.006-.358 0-.358 0l-.107-.14s.097-.153.317-.388c.108-.123.256-.25.438-.386.177-.144.393-.287.642-.42.247-.144.525-.27.828-.39.3-.123.628-.222.972-.3.69-.144 1.446-.15 2.163-.25.718-.092 1.412-.207 2.066-.316.64-.13 1.247-.253 1.743-.41.172-.047.325-.1.466-.15l.476.293c-.173.116-.37.252-.596.373-.232.137-.49.278-.777.41-.28.147-.594.262-.915.398-.323.12-.66.255-1.008.36-.347.11-.7.216-1.05.32-.703.198-1.37.475-2.002.63-.634.152-1.243.205-1.766.263l-.734.06-.597.035-.204.01M145.713 430.752c-.17.005-.332.007-.49.005-.15 0-.295-.007-.433-.013-.14-.02-.274-.038-.4-.063-.25-.043-.462-.09-.635-.138-.347-.092-.533-.174-.533-.174l-.002-.165s.185-.11.49-.252c.154-.07.337-.148.54-.226.103-.045.213-.078.325-.12l.193-.084c1.714.016 3.37.04 4.96.07l-.424.17c-.347.132-.69.274-1.026.42-.33.15-.683.272-1.034.364-.355.086-.692.162-1.04.183-.168.012-.33.02-.49.025" fill="#63a19b"/><path d="M163.323 434.345l-.006-.004c-1.9-1.18-3.79-2.35-5.645-3.5l-.476-.293-1.28-.792c10.51.372 17.003 1.13 17.01 2.184.006.78-3.527 1.612-9.603 2.405" fill="#488082"/><path d="M310.88 395c-.086-.04-.17-.082-.257-.124.103-.01.22-.018.35-.03l-.093.155m-.628-.305c-.9-.436-1.778-.866-2.646-1.292.143-.06.282-.13.436-.196.23-.107.486-.21.707-.336l.696-.372c.205-.114.426-.216.642-.317.21.337.448.67.714.997l.684.884s-.05.068-.136.196c-.146.067-.286.124-.42.17-.17.064-.32.122-.44.174-.097.04-.177.07-.238.095M306.684 392.95c-2.547-1.25-4.948-2.443-7.14-3.553.198-.08.405-.16.618-.24.588-.204 1.22-.41 1.868-.592.328-.086.657-.164.993-.227.33-.067.66-.13.965-.223.608-.188 1.14-.452 1.594-.704.448-.254.805-.514 1.037-.72.235-.202.352-.345.352-.345l-.078-.152s-.21-.035-.548-.05c-.204-.01-.452-.016-.736-.007-.19.006-.395.018-.613.038-.538.052-1.162.14-1.788.343-.623.21-1.23.565-1.868.852-.315.152-.63.3-.934.463-.31.154-.594.332-.872.498-.27.178-.537.34-.767.522-.042.03-.082.06-.122.092-4.453-2.263-7.988-4.15-10.12-5.45 0 0-2.36.366-6.515 1.02-2.84-3.45-3.84-6.46-.718-8.364 3.525-2.147 6.29-4.398 8.38-6.953-7.112-6.412-12.19-11.22-12.19-11.22s-.623.245-1.875.284c-2.293.07-6.7-.548-13.28-4.616-10.17-6.288-11.71-19.482-11.71-19.482 4.985 6.177 11.903 7.327 16.94 7.172 3.81-.117 6.543-.982 6.543-.982s-2.06-5.045-.05-7.21c.096-.103.202-.153.317-.157 2.323-.07 8.496 18.975 8.496 18.975l11.354 7.215c.427-2.323.594-4.877.507-7.737-.372-12.01-12.248-16.14 7.71-37.344 7.258-7.71 11.35-10.243 14.022-10.325 4.678-.145 5.013 7.22 10.354 7.492 0 0 1.844 1.44 4.115 4.757l-18.84 5.018-5.594-.722c-.082-.01-.163-.013-.243-.01-.714.02-1.35.544-1.524 1.29-.025.1-.056.196-.097.292-.455 1.05-3.28 8.13-.154 14.9.178.386.514.664.91.785l-.59-.133s-4.955 11.82 3.243 20.82c-.026.085-3.375 11.393 5.545 17.532 0 0-6.976 7.83-4.292 14.808-.346.275-.606.623-.94.914-.357.32-.717.644-1.054.93-.17.142-.334.295-.492.41l-.126.097" fill="#e5c3ba"/><path d="M310.623 394.876c-.123-.06-.25-.12-.37-.18.06-.026.14-.057.237-.096.12-.052.27-.11.44-.174.134-.046.274-.103.42-.17-.09.133-.22.332-.378.59-.13.012-.246.02-.35.03M307.606 393.403l-.922-.452.126-.097c.158-.114.323-.267.492-.41.337-.285.697-.61 1.053-.93.335-.29.595-.638.94-.913.205.533.468 1.06.793 1.58-.216.102-.437.204-.642.318l-.697.373c-.222.127-.478.23-.708.337-.154.066-.293.135-.436.196M299.543 389.397c-.303-.152-.6-.304-.895-.453l.12-.092c.23-.18.497-.344.768-.52.278-.167.563-.345.872-.5.303-.163.62-.31.934-.463.638-.288 1.245-.643 1.867-.853.625-.202 1.25-.29 1.787-.343.218-.02.423-.032.613-.038.284-.01.532-.004.736.006.338.016.548.05.548.05l.078.153s-.117.143-.353.345c-.233.206-.59.466-1.038.72-.453.253-.986.517-1.594.705-.304.093-.634.156-.965.223-.336.063-.665.14-.993.227-.648.182-1.28.388-1.868.592-.213.08-.42.16-.62.24" fill="#8ba095"/><path d="M313.57 415.976c-.198.006-.405.008-.614.006-12.316-.077-9.164-2.572-9.865-9.608l7.043 3.917c.782 1.386 1.866 2.773 3.333 4.126l3.855.83c-.98.418-2.212.683-3.75.73m-4.642-8.515l-7.08-3.94c-2.08-2.91-6.475-6.593-10.83-10.36l17.425 9.172c-.145 1.6-.045 3.34.485 5.13m-.175-7.1l-22.57-11.88-.29.048-.044.007c-1.456-1.38-2.775-2.732-3.837-4.022 4.154-.655 6.515-1.022 6.515-1.022 2.132 1.3 5.667 3.188 10.12 5.45.294.15.592.302.895.454 2.193 1.11 4.594 2.303 7.14 3.554l.923.453c.868.426 1.747.856 2.646 1.292l.37.18.258.126c-.63 1.07-1.6 2.983-2.127 5.362" fill="#62817d"/><path d="M308.443 402.332l-17.426-9.173c-1.783-1.543-3.558-3.1-5.168-4.623l.044-.007.29-.05 22.57 11.882c-.14.626-.248 1.286-.31 1.97" fill="#8ea194"/><path d="M310.133 410.29l-7.042-3.916c-.006-.066-.012-.132-.02-.2-.085-.78-.522-1.67-1.222-2.653l7.08 3.94c.277.935.67 1.882 1.205 2.83" fill="#8ba095"/><path d="M317.32 415.246l-3.854-.83c-1.467-1.353-2.55-2.74-3.333-4.125-.535-.948-.928-1.895-1.205-2.83-.53-1.79-.63-3.528-.485-5.128.063-.684.17-1.344.31-1.97.526-2.38 1.496-4.29 2.127-5.36l.092-.156c.157-.258.288-.457.378-.59.087-.128.136-.195.136-.195l-.684-.883 5.99 1.297-2.39.805 9.326 1.992c-2.087 4.908-3.524 7.775-3.524 7.775s2.88 7.745-2.883 10.2m17.373-13.698c-.82.024-1.713-.03-2.68-.17-1.795-.26-4.638-1.768-8.102-4.07l14.917 3.19c-1.122.627-2.483.998-4.134 1.05" fill="#dc4038"/><path d="M338.827 400.5l-14.916-3.19-.154-.102c-.01.02-.018.043-.028.064l-9.327-1.993 2.393-.806c5.613 1.213 14.454 3.12 23.395 5.035-.408.377-.86.708-1.36.99" fill="#d62f23"/><path d="M340.188 399.51c-8.94-1.915-17.782-3.823-23.395-5.036-3.664-.793-5.952-1.29-5.99-1.297-.267-.328-.505-.66-.715-.996-.325-.52-.588-1.047-.792-1.58-2.684-6.977 4.292-14.808 4.292-14.808l4.22 1.005-3.526 1.186 29.365 6.276c.024.603.042 1.17.053 1.704.112 5.467-.49 10.752-3.512 13.545" fill="#f0a19d"/><path d="M343.647 384.26l-29.365-6.277 3.525-1.186 25.778 6.144c.024.46.045.9.062 1.32" fill="#e56762"/><path d="M343.585 382.94l-25.778-6.143-4.22-1.005c-8.92-6.14-5.57-17.447-5.544-17.53l5.3 1.174-2.864.962 31.95 6.83c.58 7.217.968 12.1 1.155 15.713" fill="#da382e"/><path d="M342.43 367.228l-31.95-6.83 2.863-.962 28.976 6.422c.037.466.073.922.11 1.37" fill="#d32924"/><path d="M342.32 365.858l-28.977-6.422-5.3-1.175c-8.198-9-3.243-20.82-3.243-20.82l.59.133c.034.01.068.02.103.028l10.947 2.537-6.67 1.777 30.883 6.6c.93 5.823 1.196 9.73 1.065 9.81.218 2.754.418 5.254.6 7.534" fill="#de453f"/><path d="M340.653 348.515l-30.883-6.6 6.67-1.778 23.725 5.497c.18 1.003.343 1.965.488 2.88" fill="#d73123"/><path d="M340.165 345.634l-23.725-5.497-10.947-2.536c-.035-.007-.07-.016-.104-.027-.396-.12-.732-.4-.91-.786-3.126-6.77-.302-13.848.153-14.9.04-.095.072-.19.096-.292.172-.745.81-1.268 1.523-1.29.08-.002.16.002.243.01l5.595.723-2.07.552 25.977 4.763c1.172 3.422 2.165 7.496 2.75 12.298.56 2.465 1.03 4.818 1.418 6.984" fill="#e6706c"/><path d="M335.997 326.353l-25.978-4.763 2.07-.552 18.84-5.02c1.643 2.404 3.51 5.794 5.067 10.335" fill="#e25854"/><path d="M241.67 397.115l10.95 7.838s-7.53 10.447-11.848 8.83c-4.32-1.62.9-16.668.9-16.668" fill="#4e8885"/><path d="M277.017 372.07l-81.102-37.405s-8.126-4.336-13.64-1.346c-5.515 2.988-76.982 77.56-85.012 80.25-8.03 2.693-19.37 8.618-27.473 9.47-8.102.85-3.92 3.024-.638 4.757 3.282 1.73 10.117 5.56 18.235 2.223 8.116-3.338 11.388 3.235 12.59 3.79 1.205.556 10.504 2.688 14.57-3.807 4.068-6.495-1.553-9.845 3.187-16.59 4.74-6.746 51.305-33.863 65.167-51.435 0 0 74.21 66.084 98.118 66.675 0 0 27.567-1.98 21.657-31.144-1.94-9.567-25.658-25.44-25.658-25.44" fill="#e3c1a6"/><path d="M254.094 361.355s-9.56 40.157-13.656 52.437c0 0 26.332 13.54 37.992 14.057 11.66.516 22.85-9.663 25.592-16.17l-6.355-19.897-17.202-19.47s-17.98-6.838-26.37-10.958" fill="#579d95"/><path d="M246.038 401.235l10.945 7.03s-7.537 9.443-11.854 7.997c-4.32-1.446.908-15.027.908-15.027" fill="#4e8885"/><path d="M268.28 372.34l-60.954-40.53s-7.654-4.844-12.708-1.062-54.37 81.112-61.964 84.98c-7.593 3.87-18.02 11.428-25.942 13.494-7.924 2.065-3.468 3.576.033 4.788 3.5 1.21 10.822 3.953 18.412-.566 7.588-4.52 11.757 1.467 13.03 1.832 1.273.366 10.802 1.062 13.928-5.958 3.128-7.02-2.922-9.47.837-16.84 3.76-7.37 35.01-34.14 46.305-53.564 0 0 57.946 72.773 81.76 69.74 0 0 26.252-7.25 16.296-35.112-3.264-9.14-29.034-21.203-29.034-21.203M230.01 286.58s26.916 45.547 32.685 43.35c5.766-2.198 48.926-30.746 48.926-30.746s4.724-1.646 7.698.355c2.975 2 4.185 8.24-1.192 11.313-5.376 3.076-42.602 34.96-56.877 33.014-17.763-2.422-39.136-51.376-39.136-51.376s-11.452-3.12-7.72-14.443c3.732-11.325 11.71-5.635 11.71-5.635s6.36 1.674 3.906 14.167M262.752 229.565s2.062 47.246 24.93 48.347c22.87 1.1 33.803-8.25 41.8-23.522 7.998-15.272 5.806-39.546-17.113-47.856-22.92-8.31-47.972 9.93-49.618 23.03" fill="#eecbac"/><path d="M331.367 257.502s-1.742 12.51 8.34 8.294c10.083-4.217 12.022-16.746 7.378-18.782-4.644-2.038-10.704.33-10.704.33l-5.013 10.158" fill="#322018"/><path d="M302.714 276.853s7.79 9.072 2.29 22.764c0 0 8.025 2.896 15.463-9.572 0 0-5.566-9.95-1.604-22.85 0 0-13.024 2.655-16.15 9.658" fill="#eecbac"/><path d="M241.306 309.245s1.194 5.216 6.103 3.562l15.83 50.188s-1.26 2.555-5.062-1.234l-16.872-52.515" fill="#ab2122"/><path d="M253.602 361.024s-1.17 48.698-8.473 55.238c0 0 21.652 12.893 33.312 13.325 11.66.43 22.855-8.78 25.602-14.652l-6.34-17.92-11.92-16.182s-23.794-16.12-32.182-19.81" fill="#78baae"/><path d="M320.467 290.045s15.703 10.874 12.747 43.943c-2.957 33.07-18.725 64.507-18.725 64.507s9.17 15.044-2.828 18.72c-12 3.673-13.525-10.405-14.307-17.592-.78-7.19-31.572-24.058-21.774-30.026 9.8-5.97 13.804-12.702 13.43-24.712-.37-12.008-12.246-16.14 7.712-37.344 19.958-21.203 15.35-17.92 23.745-17.495" fill="#555a49"/><path d="M247.41 312.807l36.454-1.12 11.343 50.222-31.968 1.085-15.83-50.188" fill="#bf2324"/><path d="M241.306 309.245l5.915-23.67 1.302-.04-6.03 23.673s.402 3.804 4.91 2.552l36.897-.93-.436.857-36.455 1.12s-4.99 1.737-6.104-3.562" fill="#df2424"/><path d="M295.207 361.91l-11.343-50.223.435-.858 11.654 50.01-.747 1.07" fill="#df2424"/><path d="M248.522 285.536l6.186-.956-6.03 23.68 38.803-2.183 11.596 51.08-3.122 3.682-11.655-50.01-36.898.93s-3.688 1.755-4.91-2.552l6.03-23.672" fill="#fefde9"/><path d="M254.708 284.58l5.52 23.03-11.55.65 6.03-23.68" fill="#f6f4de"/><path d="M248.678 308.26l40.088-5.807 11.43 51.622-1.416 1.78-11.3-49.778-38.802 2.182" fill="#e8e6cf"/><path d="M196.087 267.937l.09 13.017s1.145 9.22 12.667 8.867c11.52-.353 10.823-9.588 10.823-9.588l-.09-13.017-23.49.722" fill="#7ac6b8"/><path d="M219.494 283.655c-.49.015-.957-.265-1.17-.754-.285-.656.003-1.443.642-1.755 4.514-2.2 6.66-5.692 6.746-8.005.024-.652-.1-1.51-.825-1.902-2.242-1.207-4.338.77-4.427.856-.52.5-1.32.48-1.79-.045-.472-.524-.44-1.352.07-1.857.142-.14 3.506-3.38 7.356-1.302 1.44.777 2.225 2.342 2.154 4.292-.118 3.206-2.713 7.65-8.247 10.346-.165.08-.338.122-.51.127" fill="#6eb4aa"/><path d="M225.75 282.72s-5.496-4.696-3.484-7.352c2.012-2.656 6.9 4.328 6.9 4.328l-3.415 3.024" fill="#eecbac"/><path d="M271.02 264.822c-3.86.087-6.82-3.85-7.61-7.507-.63-2.912-.003-6.562 2.008-8.828 1.233 5.466 3.02 11.308 5.603 16.335" fill="#f9fdfc"/><path d="M271.07 264.822h-.05c-2.58-5.027-4.37-10.87-5.602-16.335.823-.928 1.88-1.624 3.176-1.94.436-.106.86-.164 1.272-.176 3.94-.12 6.73 3.837 7.655 7.502.72 4.178-.598 9.6-5.184 10.77-.43.108-.855.167-1.267.18" fill="#f8e6d7"/><path d="M271.138 266.362c-4.56.14-8.215-4.148-9.175-8.588-.822-3.806.178-8.46 3.076-11.035.12.577.245 1.16.378 1.747-2.01 2.266-2.64 5.916-2.01 8.828.792 3.656 3.753 7.594 7.613 7.507.26.505.527 1 .8 1.487-.228.028-.456.046-.682.052" fill="#f9fdfc"/><path d="M271.82 266.31c-.273-.488-.54-.983-.8-1.488h.05c.41-.013.835-.072 1.266-.18 4.586-1.17 5.905-6.592 5.185-10.77-.923-3.665-3.714-7.622-7.654-7.5-.412.01-.836.07-1.272.175-1.297.316-2.353 1.012-3.176 1.94-.133-.588-.26-1.17-.38-1.748.876-.778 1.923-1.367 3.146-1.685.568-.15 1.12-.227 1.66-.243 4.534-.14 7.944 4.133 9.084 8.457.016.044.03.09.038.142.013.052.02.102.025.15.803 4.96-.872 11.193-6.245 12.57-.31.08-.618.138-.924.177M290.886 261.9c-3.916.12-6.913-3.935-7.585-7.725-.743-4.19.902-9.587 5.446-10.587.395-.087.78-.134 1.152-.146 4.033-.124 6.752 3.963 7.573 7.763.49 3.973-.658 8.94-4.835 10.37-.6.204-1.184.308-1.75.326" fill="#f8e6d7"/><path d="M290.906 263.44c-4.73.144-8.31-4.422-9.114-9.004-.87-4.964 1.364-11.224 6.636-12.402.485-.11.958-.167 1.42-.182 4.713-.144 8.106 4.41 9.073 8.913.013.054.02.107.02.157.004.017.008.033.01.05.687 5.045-1.387 11.27-6.852 12.333-.404.078-.802.122-1.192.134m-1.008-19.998c-.373.012-.757.06-1.152.146-4.544 1-6.19 6.398-5.445 10.587.673 3.79 3.67 7.846 7.586 7.726.565-.017 1.15-.12 1.75-.326 4.176-1.428 5.323-6.396 4.835-10.37-.82-3.8-3.54-7.886-7.572-7.762" fill="#f8e6d7"/><path d="M277.52 253.872c.722 4.18-.598 9.6-5.184 10.77-4.492 1.143-8.048-3.267-8.927-7.327-.89-4.105.723-9.677 5.184-10.768 4.608-1.128 7.906 3.276 8.927 7.325.244.965 1.69.508 1.446-.46-1.232-4.885-5.375-9.766-10.782-8.357-5.274 1.375-7.29 7.763-6.22 12.72 1.07 4.95 5.49 9.713 10.78 8.357 5.43-1.39 7.082-7.734 6.222-12.72-.17-.98-1.615-.52-1.445.46M297.448 251.018c.545 4.003-.57 9.105-4.813 10.556-4.75 1.624-8.564-3.06-9.334-7.4-.743-4.188.902-9.586 5.446-10.586 4.673-1.03 7.838 3.48 8.73 7.636.21.974 1.655.515 1.445-.46-1.06-4.943-5.044-9.947-10.492-8.73-5.272 1.178-7.507 7.437-6.636 12.402.87 4.96 4.996 9.9 10.306 8.87 5.466-1.065 7.54-7.29 6.85-12.335-.132-.975-1.635-.942-1.5.048" fill="#9e7059"/><path d="M278.974 253.837c.048-.213.104-.438.37-.628.76-.545 1.96.45 2.505.882.75.597 1.813-.532 1.053-1.135-1.105-.878-2.742-2.007-4.19-1.153-.584.343-1.036.985-1.19 1.662-.224.982 1.227 1.353 1.45.37M298.298 250.34l15.94-9.75c.842-.513.076-1.838-.766-1.322-5.313 3.25-10.628 6.498-15.94 9.748-.842.515-.077 1.84.766 1.324" fill="#9e7059"/><path d="M318.657 321.383l5.307 53.768-46.813-29.743s-6.8-20.983-8.81-18.818c-2.01 2.164.05 7.21.05 7.21s-14.728 4.66-23.484-6.19c0 0 1.538 13.192 11.71 19.48 10.17 6.292 15.153 4.335 15.153 4.335s44.29 41.913 54.528 43.4c10.24 1.49 11.865-6.734 11.687-15.414-.178-8.678-4.444-60.07-4.444-60.07s-9.764-11.09-14.883 2.043" fill="#eecbac"/><path d="M320.548 301.845s-6.634 3.21-4.192 21.465c2.44 18.256 2.066 20.37 2.066 20.37s9.95 1.798 17.44-3.24c0 0-1.17-43.838-15.314-38.595" fill="#717360"/><path d="M286.393 270.91c.026.022.36.32.923.618.562.295 1.36.593 2.302.565.677-.02 1.426-.217 2.163-.69.74-.472 1.466-1.21 2.144-2.283.19-.302.112-.7-.173-.892-.286-.19-.672-.102-.862.2-.597.945-1.192 1.527-1.74 1.878-.55.35-1.06.48-1.54.495-.66.023-1.268-.195-1.71-.428-.22-.116-.396-.234-.513-.32-.06-.043-.105-.078-.133-.1l-.03-.026-.004-.004-.123.15.124-.15h-.002l-.123.15.124-.15c-.258-.23-.65-.196-.88.075-.228.273-.204.68.053.912M270.806 256.56l-.005-.004.006.003-.005-.004.006.003c.02-.04.197-.352.516-.637.32-.287.755-.545 1.372-.566.503-.014 1.158.132 2.003.653.292.182.676.08.857-.23.18-.307.09-.703-.202-.884-.994-.616-1.89-.856-2.667-.83-1.023.028-1.786.515-2.26.975-.478.462-.697.9-.72.943-.16.32-.043.708.26.866.304.158.68.03.84-.29M288.02 253.867l-.233-.138.23.145.004-.008-.233-.138.23.145c0-.004.11-.18.33-.348.223-.166.543-.333 1.04-.35.532-.017 1.292.147 2.33.79.293.182.676.08.857-.23.18-.306.09-.703-.202-.884-1.18-.73-2.173-.994-2.992-.97-.82.025-1.44.347-1.83.67-.393.32-.573.632-.6.683-.176.31-.077.705.22.88.295.173.677.062.85-.25" fill="#1d1b19"/><path d="M262.752 229.565s6.395 4.036 23.676-7.862c0 0-3.408 9.428 7.62 14.07 11.03 4.64 9.036 9.363 6.744 12.664-2.293 3.3-2.25 9.308 4.123 10.314 0 0-6.98-4.74-1.52-10.393 5.46-5.654-.964-12.67-5.167-14.342-4.202-1.675-8.038-12.375-5.447-14.258 2.592-1.882 18.312 11.566 21.305 25.844 0 0 1.08-11.363 7.765-7.132 6.684 4.23-2.21 15.322-2.21 15.322s.63 8.113 4.832 8.726c4.203.613 14.252-10.814 14.966-33.375.713-22.56-31.197-33.598-45.057-29.267-13.86 4.333-35.487 15.558-31.628 29.692" fill="#322018"/><path d="M219.577 267.215c.006.796-5.25 1.603-11.736 1.802-6.485.2-11.748-.284-11.753-1.08-.006-.795 5.248-1.6 11.735-1.8 6.486-.2 11.75.283 11.755 1.078" fill="#fff"/><path d="M219.577 267.215l-.672.02.446-.013-.345-.296c-.03.034-.1.153-.1.31l.446-.014-.345-.296.134.115-.112-.14-.023.026.134.115-.112-.14c0 .003-.115.08-.302.15-.33.128-.873.274-1.563.408-2.077.41-5.488.744-9.326.86-3.22.1-6.14.03-8.23-.163-1.042-.095-1.882-.223-2.418-.363-.267-.067-.46-.143-.532-.186l-.028-.018-.148.206.2-.142-.052-.064-.148.206.2-.142-.395.28.47-.015c0-.115-.04-.216-.074-.265l-.396.28.47-.015-.445.013.346.298c.03-.035.102-.154.1-.31l-.446.012.346.298-.134-.116.11.142.024-.026-.134-.116.11.142c0-.004.117-.08.303-.15.33-.13.873-.275 1.562-.41 2.077-.407 5.488-.743 9.326-.86 3.22-.1 6.14-.028 8.23.164 1.042.095 1.882.223 2.418.363.267.068.458.144.53.187l.03.018.147-.206-.2.142.053.063.148-.206-.2.142.397-.28-.472.014c0 .115.042.216.075.266l.397-.28-.472.014 1.344-.04c-.002-.258-.117-.47-.23-.596-.216-.24-.434-.333-.69-.437-.443-.167-1.023-.29-1.758-.397-2.192-.316-5.735-.45-9.755-.327-3.266.1-6.22.352-8.382.684-1.08.166-1.963.35-2.615.558-.327.107-.597.215-.837.364-.12.078-.237.165-.35.303-.11.133-.22.352-.218.608 0 .256.116.468.226.595.218.24.437.333.692.437.444.167 1.024.29 1.76.397 2.19.316 5.734.45 9.754.327 3.266-.1 6.22-.353 8.38-.684 1.084-.167 1.965-.35 2.617-.56.328-.106.597-.213.837-.363.12-.077.237-.165.35-.303.11-.135.22-.353.22-.61l-.673.02" fill="#9e7059"/><path d="M202.667 258.556s-4.62-2.73-.07-10.207c4.548-7.478-1.11-12.763-1.11-12.763s9.262 1.055 3.38 13.826c0 0-3.103 5.274-2.2 9.143M209.252 260.423s-5.105-9.647 2.315-13.644c0 0 .953-.563 2.006-.596.9-.027 1.87.33 2.382 1.755 1.117 3.09-.18 5.636-1.488 6.357 0 0 1.25-5.803-1.06-5.732-.383.012-.864.187-1.468.576-4.228 2.737-2.688 11.283-2.688 11.283" fill="#f7fcfb"/><path d="M93.807 145.236l282.643-8.688-.4-58.22-282.644 8.687.4 58.22z" fill="#ef3a48"/><path d="M93.807 145.236l-.29-42.162-30.333.933 13.255 28.71-12.855 29.51 61.1-1.88-.11-16.056-30.768.946M406.493 93.454l-30.333.932.29 42.162-30.768.946.11 16.058 61.102-1.878-13.255-28.708 12.853-29.512" fill="#e72931"/><path d="M345.793 153.552l-.11-16.058 30.767-.946-30.657 17.004M124.686 160.348l-30.88-15.112 30.77-.945.11 16.058" fill="#dc2125"/><text transform="matrix(.60734 -.01867 .00434 .63068 130.512 125.414)" style="-inkscape-font-specification:Arvo" font-size="36" font-family="Arvo" fill="#fff"><tspan x="0" y="0">Awww Book Release:)</tspan></text><path d="M1046.686 363.76s-7.63 3.53 1.507 14.9l43.854-13.633-3.86-12.862-41.5 11.596M1045.094 325.482s-10.203 5.63-1.667 16.2l39.334-9.77-.508-12.068-37.158 5.638M1047.49 302.31s-7.815 8.826-2.82 19.71l36.605-5.6.08-16.97-33.28 2.637" fill="#fff"/><path d="M837.398 409.577l.03-.01c0 .003 0 .004.007.006-.012 0-.025.003-.037.004" fill="#63a19b"/><path d="M946.886 237.292c-3.924.082-6.965-3.908-7.74-7.628-.625-2.97-.004-6.676 2.04-8.976 1.257 5.555 3.077 11.495 5.7 16.604" fill="#f9fdfc"/><path d="M947 238.86c-4.64.14-8.348-4.215-9.324-8.73-.835-3.868.18-8.598 3.124-11.214.123.586.247 1.176.387 1.772-2.045 2.3-2.666 6.007-2.04 8.976.774 3.72 3.815 7.71 7.74 7.628.258.515.525 1.017.81 1.513-.238.03-.468.047-.698.054" fill="#f9fdfc"/><path d="M894.603 239.726c.006.808-5.335 1.628-11.932 1.83-6.587.203-11.937-.288-11.943-1.096-.006-.808 5.335-1.627 11.924-1.83 6.597-.203 11.947.288 11.953 1.096" fill="#fff"/><path d="M877.413 230.925s-4.693-2.773-.072-10.372c4.623-7.6-1.127-12.97-1.127-12.97s9.416 1.072 3.435 14.052c0 0-3.148 5.36-2.235 9.29M884.11 232.823s-5.194-9.803 2.347-13.865c0 0 .967-.572 2.048-.605.91-.028 1.892.336 2.413 1.782 1.137 3.143-.182 5.73-1.514 6.463 0 0 1.28-5.897-1.078-5.825-.383.012-.876.19-1.486.585-4.298 2.78-2.73 11.465-2.73 11.465" fill="#f7fcfb"/><path d="M232.914 486.836v-.012.012M232.997 487.357c-.03-.148-.054-.296-.073-.442.02.147.044.295.073.442M233.53 488.858l-.01-.02.01.02M233.48 488.76l-.042-.085.04.084M233.148 487.936c.08.25.174.493.282.722-.11-.235-.203-.477-.28-.722h-.002M874.27 467.12v-.01.01M874.36 467.642c-.036-.148-.063-.295-.08-.44.017.146.044.294.08.44M874.88 469.144v-.02.02M874.837 469.045l-.043-.084.043.085M874.508 468.222c.07.25.174.492.277.722-.112-.235-.207-.477-.277-.722" fill="#7ac6b8"/></svg>