<?xml version="1.0" encoding="UTF-8" standalone="no"?>
<!-- Created with Inkscape (http://www.inkscape.org/) -->

<svg
   xmlns:dc="http://purl.org/dc/elements/1.1/"
   xmlns:cc="http://creativecommons.org/ns#"
   xmlns:rdf="http://www.w3.org/1999/02/22-rdf-syntax-ns#"
   xmlns:svg="http://www.w3.org/2000/svg"
   xmlns="http://www.w3.org/2000/svg"
   xmlns:sodipodi="http://sodipodi.sourceforge.net/DTD/sodipodi-0.dtd"
   xmlns:inkscape="http://www.inkscape.org/namespaces/inkscape"
   id="svg2"
   version="1.1"
   inkscape:version="0.91 r13725"
   xml:space="preserve"
   width="200"
   height="150"
   viewBox="0 0 200 150"
   sodipodi:docname="blogger.svg"><metadata
     id="metadata8"><rdf:RDF><cc:Work
         rdf:about=""><dc:format>image/svg+xml</dc:format><dc:type
           rdf:resource="http://purl.org/dc/dcmitype/StillImage" /><dc:title></dc:title></cc:Work></rdf:RDF></metadata><defs
     id="defs6" /><sodipodi:namedview
     pagecolor="#c1c1c1"
     bordercolor="#666666"
     borderopacity="1"
     objecttolerance="10"
     gridtolerance="10"
     guidetolerance="10"
     inkscape:pageopacity="0"
     inkscape:pageshadow="2"
     inkscape:window-width="1301"
     inkscape:window-height="744"
     id="namedview4"
     showgrid="false"
     inkscape:zoom="1.3350176"
     inkscape:cx="216.06429"
     inkscape:cy="80.529875"
     inkscape:window-x="65"
     inkscape:window-y="24"
     inkscape:window-maximized="1"
     inkscape:current-layer="g10" /><g
     id="g10"
     inkscape:groupmode="layer"
     inkscape:label="ink_ext_XXXXXX"
     transform="matrix(1.25,0,0,-1.25,0,150)"><g
       id="g3799"
       transform="matrix(0.36002549,0,0,0.38561651,-9.2694277,-13.251552)"><path
         d="m 363.09089,203.66311 c 0,-68.45322 -55.42311,-123.945707 -123.79176,-123.945707 -68.36821,0 -123.79177,55.492487 -123.79177,123.945707 0,68.45322 55.42356,123.94571 123.79177,123.94571 68.36865,0 123.79176,-55.49249 123.79176,-123.94571"
         style="fill:#35939e;fill-opacity:1;fill-rule:nonzero;stroke:none"
         id="path16"
         inkscape:connector-curvature="0" /><path
         d="m 363.09044,203.37398 c 0,0.008 0,0.0122 0,0.0208 0,-0.007 0,-0.014 0,-0.0208 m 4.5e-4,0.0947 c 0,0.0168 0,0.0335 0,0.0503 0,-0.0172 0,-0.0335 0,-0.0503 m 0,0.0965 c 0,0.0335 0,0.0644 0,0.0979 l 0,0 c 0,-0.0326 0,-0.0653 0,-0.0979 m 0,0.0979 c 0,0.0295 0,0.063 0,0.0925 0,-0.0308 0,-0.0616 0,-0.0925 m 0,0.121 c 0,0.0208 0,0.0435 0,0.0644 0,-0.0204 0,-0.044 0,-0.0644 m 0,0.097 c 0,0.0213 0,0.0421 -4.5e-4,0.063 4.5e-4,-0.0204 4.5e-4,-0.0421 4.5e-4,-0.063 m -4.5e-4,0.0938 c 0,0.0249 0,0.0462 0,0.0712 0,-0.0236 0,-0.0476 0,-0.0712 m 0,0.0929 c -4.5e-4,0.0335 -4.5e-4,0.058 -4.5e-4,0.0915 0,-0.0304 0,-0.0607 4.5e-4,-0.0915 m -4.5e-4,0.11601 c 0,0.0208 -4.6e-4,0.0471 -4.6e-4,0.068 0,-0.0222 4.6e-4,-0.0458 4.6e-4,-0.068 m -4.6e-4,0.10061 c 0,0.0168 -4.5e-4,0.0449 -4.5e-4,0.0612 0,-0.0204 4.5e-4,-0.0408 4.5e-4,-0.0612 m -4.5e-4,0.0952 c -4.5e-4,0.0208 -4.5e-4,0.0385 -4.5e-4,0.0594 0,-0.0204 0,-0.039 4.5e-4,-0.0594 m -9e-4,0.0938 c 0,0.0295 0,0.0598 -4.6e-4,0.0888 4.6e-4,-0.029 4.6e-4,-0.0598 4.6e-4,-0.0888 m -4.6e-4,0.11013 c -4.5e-4,0.0208 -4.5e-4,0.0494 -4.5e-4,0.0702 0,-0.024 0,-0.0462 4.5e-4,-0.0702 m -9e-4,0.1074 c 0,0.0168 -4.5e-4,0.0385 -4.5e-4,0.0553 0,-0.0186 4.5e-4,-0.0367 4.5e-4,-0.0553 m -9.1e-4,0.0934 c 0,0.0168 -4.5e-4,0.0385 -4.5e-4,0.0548 0,-0.0168 4.5e-4,-0.0376 4.5e-4,-0.0548 m -9e-4,0.0934 c 0,0.0208 -4.6e-4,0.0412 -4.6e-4,0.0621 0,-0.0204 4.6e-4,-0.0417 4.6e-4,-0.0621 m -9.1e-4,0.0915 c 0,0.029 -4.5e-4,0.058 -9e-4,0.087 4.5e-4,-0.0285 9e-4,-0.058 9e-4,-0.087 m -10e-4,0.12644 c 0,0.0208 -4.5e-4,0.0308 -4.5e-4,0.0517 0,-0.0172 4.5e-4,-0.0349 4.5e-4,-0.0517 m -9e-4,0.0965 c -4.5e-4,0.0168 -4.5e-4,0.0276 -4.5e-4,0.0444 0,-0.0136 0,-0.0308 4.5e-4,-0.0444 m -10e-4,0.0924 c 0,0.0122 -4.5e-4,0.0308 -4.5e-4,0.0431 0,-0.0136 4.5e-4,-0.0295 4.5e-4,-0.0431 m -9e-4,0.0911 c -4.6e-4,0.0127 -4.6e-4,0.0295 -9.1e-4,0.0421 4.5e-4,-0.0136 4.5e-4,-0.0285 9.1e-4,-0.0421 m -0.002,0.13324 c 0,0.0127 0,0.0263 -4.5e-4,0.0385 4.5e-4,-0.0118 4.5e-4,-0.0263 4.5e-4,-0.0385 m -0.001,0.0906 c 0,0.0122 0,0.0254 -4.6e-4,0.0381 4.6e-4,-0.0118 4.6e-4,-0.0263 4.6e-4,-0.0381 m -10e-4,0.0915 c 0,0.0122 -4.6e-4,0.0227 -4.6e-4,0.0349 0,-0.01 4.6e-4,-0.0249 4.6e-4,-0.0349 m -10e-4,0.0897 c 0,0.0122 -4.5e-4,0.0163 -4.5e-4,0.0286 0,-0.01 4.5e-4,-0.0186 4.5e-4,-0.0286 m -0.003,0.15816 c 0,0.004 0,0.005 0,0.01 0,-0.004 0,-0.006 0,-0.01 m -10e-4,0.0743 c 0,0.009 -4.6e-4,0.0145 -4.6e-4,0.0231 0,-0.007 4.6e-4,-0.0163 4.6e-4,-0.0231 m -0.002,0.087 c 0,0.008 0,0.0145 -4.6e-4,0.0227 4.6e-4,-0.007 4.6e-4,-0.0159 4.6e-4,-0.0227 m -0.002,0.0888 c 0,0.004 0,0.009 0,0.0127 0,-0.005 0,-0.008 0,-0.0127 m -0.007,0.32494 c 0,0.004 0,0.002 0,0.006 0,-0.003 0,-0.003 0,-0.006 m -0.002,0.0843 0,0.002 0,-0.002"
         style="fill:#f9fbcf;fill-opacity:1;fill-rule:nonzero;stroke:none"
         id="path18"
         inkscape:connector-curvature="0" /><path
         d="m 361.36775,182.98684 c -4.71501,2.96793 -10.27823,4.70681 -16.24429,4.76845 -0.99215,6.04236 -3.58751,13.70487 -5.03138,18.02557 -1.81051,5.41742 -6.33676,12.10557 -11.76827,16.54138 -1.12523,0.91907 -2.56051,1.27935 -4.18996,1.27935 -2.39348,0 -5.20519,-0.77903 -8.06126,-1.71214 -0.63594,5.0952 -3.00679,9.65065 -6.50197,13.055 l 1.63081,2.00536 -1.40404,1.14475 -1.5765,-1.93874 c -2.38488,1.97001 -5.19162,3.44832 -8.26268,4.2781 0.16611,2.004 0.30235,3.69802 0.30235,4.81332 0,5.6073 6.33722,17.66574 10.26012,23.39631 0.82876,1.21092 2.27761,2.33573 4.04738,3.35677 1.59189,-6.29026 5.09068,-11.81961 9.84461,-15.93411 l -0.32544,-0.40062 1.40359,-1.14475 0.32499,0.39971 c 5.25679,-4.0429 11.83797,-6.44706 18.97905,-6.44706 l 0,0 c 3.27203,0 6.42502,0.50394 9.38836,1.43978 5.40073,-13.43342 8.51887,-28.02971 8.87372,-43.31304 l 0,-0.002 c 4.6e-4,-0.0254 10e-4,-0.0526 0.002,-0.0779 0,-0.004 0,-0.002 0,-0.006 0.002,-0.10333 0.005,-0.20847 0.007,-0.31225 0,-0.004 0,-0.009 0,-0.0127 4.6e-4,-0.0222 9.1e-4,-0.044 10e-4,-0.0662 4.6e-4,-0.008 4.6e-4,-0.0145 4.6e-4,-0.0227 4.5e-4,-0.0222 9e-4,-0.0421 10e-4,-0.0639 0,-0.009 4.6e-4,-0.0145 4.6e-4,-0.0231 4.5e-4,-0.0218 9e-4,-0.0426 0.001,-0.0644 0,-0.005 0,-0.006 0,-0.01 9.1e-4,-0.0421 10e-4,-0.087 0.002,-0.12961 0,-0.0122 4.5e-4,-0.0163 4.5e-4,-0.0286 4.5e-4,-0.0186 4.5e-4,-0.0362 9e-4,-0.0548 0,-0.0122 4.6e-4,-0.0227 4.6e-4,-0.0349 4.5e-4,-0.019 4.5e-4,-0.0349 9e-4,-0.0535 4.6e-4,-0.0127 4.6e-4,-0.0258 4.6e-4,-0.0381 4.5e-4,-0.019 9e-4,-0.0331 9e-4,-0.0521 4.5e-4,-0.0122 4.5e-4,-0.0258 4.5e-4,-0.0385 4.6e-4,-0.0304 9.1e-4,-0.0607 0.001,-0.0911 4.5e-4,-0.0127 4.5e-4,-0.0295 9.1e-4,-0.0421 0,-0.0168 0,-0.0308 4.5e-4,-0.048 0,-0.0122 4.5e-4,-0.0308 4.5e-4,-0.0431 4.5e-4,-0.0172 4.5e-4,-0.0313 9.1e-4,-0.048 0,-0.0168 0,-0.0276 4.5e-4,-0.0444 0,-0.0154 4.5e-4,-0.0295 4.5e-4,-0.0449 0,-0.0208 4.5e-4,-0.0308 4.5e-4,-0.0517 4.6e-4,-0.0136 4.6e-4,-0.0258 4.6e-4,-0.0394 4.5e-4,-0.029 9e-4,-0.058 9e-4,-0.087 0,-0.01 4.5e-4,-0.019 4.5e-4,-0.0295 0,-0.0208 4.6e-4,-0.0412 4.6e-4,-0.0621 4.5e-4,-0.0136 4.5e-4,-0.0249 4.5e-4,-0.0385 0,-0.0163 4.5e-4,-0.0381 4.5e-4,-0.0548 0,-0.0136 4.6e-4,-0.0245 4.6e-4,-0.0381 0,-0.0168 4.5e-4,-0.0385 4.5e-4,-0.0553 0,-0.0118 0,-0.0254 4.5e-4,-0.0372 0,-0.0209 0,-0.0494 4.5e-4,-0.0702 0,-0.007 0,-0.0145 0,-0.0213 4.6e-4,-0.029 4.6e-4,-0.0594 4.6e-4,-0.0888 4.5e-4,-0.0118 4.5e-4,-0.0227 4.5e-4,-0.0344 0,-0.0209 0,-0.0385 4.5e-4,-0.0594 0,-0.01 0,-0.0236 0,-0.034 0,-0.0163 4.5e-4,-0.0444 4.5e-4,-0.0612 0,-0.0122 0,-0.0204 0,-0.0326 0,-0.0208 4.6e-4,-0.0471 4.6e-4,-0.068 0,-0.009 0,-0.0159 0,-0.0245 0,-0.0335 0,-0.058 4.5e-4,-0.0915 0,-0.007 0,-0.015 0,-0.0217 0,-0.0249 0,-0.0462 0,-0.0712 0,-0.0104 0,-0.0204 0,-0.0308 4.5e-4,-0.0208 4.5e-4,-0.0417 4.5e-4,-0.063 0,-0.0118 0,-0.0208 0,-0.0326 0,-0.0208 0,-0.0435 0,-0.0644 0,-0.0104 0,-0.0181 0,-0.0285 0,-0.0295 0,-0.063 0,-0.0925 l 0,0 c 0,-0.0335 0,-0.0643 0,-0.0979 0,-0.0154 0,-0.0308 0,-0.0462 0,-0.0168 0,-0.0335 0,-0.0503 0,-0.0245 0,-0.0494 -4.5e-4,-0.0739 0,-0.009 0,-0.0127 0,-0.0208 -0.0158,-6.94602 -0.60833,-13.75473 -1.72269,-20.38714 m -45.85461,62.13623 -2.85787,-3.51448 1.40404,-1.14476 2.85788,3.51448 -1.40405,1.14476 m 5.71576,7.0285 -2.85743,-3.51448 1.4036,-1.14476 2.85788,3.51448 -1.40405,1.14476"
         style="fill:#5cc8c1;fill-opacity:1;fill-rule:nonzero;stroke:none"
         id="path20"
         inkscape:connector-curvature="0" /><path
         d="m 188.33755,111.86388 c -1.15691,0 -2.21062,0.28143 -2.94026,0.85063 -2.62794,2.04978 0.21319,8.39442 0,13.83268 -0.21364,5.43826 7.8336,16.87085 6.22361,29.73506 -0.56307,4.50379 -0.32363,9.01075 -0.081,13.17011 l 0.13397,-1.74568 1.80507,0.13867 -0.34625,4.51875 -1.43483,-0.11013 c 0.081,1.59341 0.13307,3.1193 0.10501,4.55319 l 0.9831,0.0757 -0.34625,4.51829 -1.12071,-0.0861 c -0.53409,2.30673 -1.58237,4.17931 -3.51282,5.4573 -4.54889,3.01053 -9.1453,8.73294 -11.38444,14.06199 3.52188,-2.3874 7.76932,-3.78186 12.3431,-3.78186 l 0,0 c 0.21952,0 0.4395,0.003 0.65812,0.01 l 0.17199,-2.24374 1.80507,0.13868 -0.17109,2.23195 c 10.1782,1.13342 18.26435,9.20562 19.43394,19.38514 l 2.03908,0 0,1.81275 -1.90556,0 c 0.008,0.24473 0.0122,0.4899 0.0122,0.73689 l 0,0 c 0,4.45711 -1.31985,8.60605 -3.58932,12.07566 6.12358,-2.79753 12.11679,-7.07155 14.77778,-12.07566 3.5522,-6.68 6.83329,-8.56209 11.52068,-8.56209 0.48929,0 0.99397,0.0208 1.51584,0.0585 1.02927,0.0743 2.29844,0.13369 3.67125,0.13369 5.99005,0 13.94721,-1.13161 12.51374,-7.09059 -0.90434,-3.7601 -3.88851,-7.49982 -6.37523,-11.1081 -2.07755,0.28324 -4.26057,0.41693 -6.51193,0.41693 l -0.0158,0 c -13.98025,-0.004 -25.31083,-5.17587 -25.31083,-19.17486 l 0,-13.52269 2.60577,0 0,-12.12778 c -2.48718,-3.14151 -5.03275,-5.56788 -6.76268,-7.79756 -3.54632,-4.57086 -11.82304,-16.88037 -13.1094,-22.32724 l -0.25302,-0.0195 0.0711,-0.92541 c -0.75408,-3.44061 -4.31443,-5.21303 -7.21893,-5.21303 m 0.60561,9.91305 -0.97541,-1.52725 3.81292,-2.44178 0.97541,1.52679 -3.81292,2.44224 m 7.65436,5.4011 -1.80508,-0.13868 0.34626,-4.51829 1.80553,0.13868 -0.34671,4.51829 m -0.69297,9.03748 -1.80508,-0.13867 0.34626,-4.51875 1.80553,0.13868 -0.34671,4.51874 m -0.69297,9.03704 -1.80508,-0.13868 0.34626,-4.51874 1.80507,0.13867 -0.34625,4.51875 m -0.69297,9.03703 -1.80508,-0.13868 0.34626,-4.51874 1.80553,0.13913 -0.34671,4.51829 m -0.69297,9.03748 -1.80508,-0.13912 0.34626,-4.51829 1.80553,0.13867 -0.34671,4.51874 m -2.07891,27.11156 -1.80553,-0.13913 0.34671,-4.51829 1.80507,0.13867 -0.34625,4.51875 m 25.48146,27.94813 0,-1.81275 4.52626,0 0,1.81275 -4.52626,0 m -47.15499,12.44184 c -1.29994,2.73409 -5.97647,11.73804 -11.40979,12.33897 -5.46545,0.60455 -15.42322,0.0372 -19.34613,5.30593 -0.048,0.0643 -0.0973,0.13188 -0.1471,0.20076 4.89967,0.55697 9.45309,2.25008 13.39455,4.8106 0.7414,-1.12346 1.71047,-2.09645 2.89364,-2.764 0.7681,-0.43415 1.45926,-0.61543 2.08977,-0.61543 0.53863,0 1.03244,0.13278 1.49095,0.35394 0.74774,-0.86831 1.49774,-1.73934 2.24819,-2.61037 l 1.37055,1.18419 c -0.7156,0.83069 -1.4312,1.66139 -2.14409,2.48981 0.33178,0.31316 0.64635,0.65305 0.94961,0.99294 1.07454,1.20548 2.00694,2.41051 3.06202,2.41051 0.61873,0 1.27957,-0.41467 2.03591,-1.48691 3.67758,-5.21258 2.21922,-12.28594 5.23009,-12.28549 0.13035,0 0.26931,0.0131 0.41686,0.0403 0.12176,0.0227 0.23582,0.0335 0.34219,0.0335 1.68829,0 1.54074,-2.72457 1.95489,-5.2724 -0.10637,-0.0906 -0.21228,-0.18218 -0.31729,-0.27508 -0.85773,0.99203 -1.73492,2.00626 -2.62659,3.03817 l -1.36919,-1.18644 c 0.91249,-1.05593 1.81005,-2.09328 2.68678,-3.10706 -1.05416,-1.09627 -1.99472,-2.30084 -2.80582,-3.59651 m -4.44931,14.76488 -1.3701,-1.18463 c 0.99668,-1.15518 1.98793,-2.30356 2.96832,-3.43879 l 1.36964,1.18554 c -0.98038,1.13478 -1.97163,2.28316 -2.96786,3.43788 m 13.65028,13.54128 c -2.61617,0 -4.92456,2.68559 -6.94871,5.37119 -2.02369,2.68559 -3.76313,5.37119 -5.24004,5.37119 -0.17834,0 -0.35305,-0.0394 -0.52414,-0.12236 -0.67034,-0.32675 -1.2669,-0.79399 -1.85532,-1.32059 1.34928,3.49318 2.08887,7.28908 2.08887,11.25901 l 0,0 c 0,7.27051 -2.4822,13.96093 -6.64454,19.26731 13.59461,11.33017 29.65241,19.79981 47.2505,24.48624 1.38593,-1.36229 2.81306,-2.57865 4.03515,-3.23713 3.92291,-2.11503 5.43196,-5.90459 1.20716,-9.29716 -4.22481,-3.39212 -20.82079,-2.78802 -18.40693,-6.11125 0.65495,-0.9023 2.10471,-1.18101 3.85818,-1.18101 1.41989,0 3.03938,0.18309 4.59686,0.36572 1.55794,0.18309 3.05387,0.36618 4.22798,0.36618 1.543,0 2.52927,-0.31633 2.36588,-1.36365 -0.56488,-3.6255 -12.20687,-3.54438 -15.28744,-9.32435 -2.89454,-5.42965 -9.2666,-8.48233 -11.11965,-13.06452 l -2.91401,0 0,-1.81275 2.44826,0 c -0.70157,-5.72604 2.97511,-18.74932 -2.55145,-19.60675 -0.19735,-0.0308 -0.39288,-0.0453 -0.58661,-0.0453 m -8.36271,21.46482 0,-1.81275 4.52626,0 0,1.81275 -4.52626,0"
         style="fill:#5cc8c1;fill-opacity:1;fill-rule:nonzero;stroke:none"
         id="path22"
         inkscape:connector-curvature="0" /><path
         d="m 314.53185,287.24105 c -1.33208,0.58189 -2.32559,1.44884 -3.40782,4.20514 -1.69961,4.3284 -2.03183,11.85813 -2.09656,14.63753 3.6545,-2.49933 7.16823,-5.18991 10.52672,-8.05678 -2.317,-3.19226 -4.04421,-6.84043 -5.02234,-10.78589"
         style="fill:#5cc8c1;fill-opacity:1;fill-rule:nonzero;stroke:none"
         id="path24"
         inkscape:connector-curvature="0" /><path
         d="m 293.13442,256.3354 c -2.00784,0 -3.76946,1.00789 -4.03787,2.9992 -0.6038,4.47524 4.51675,8.70485 4.51675,8.70485 0,0 7.28456,-1.20865 5.75921,-6.94874 -0.84686,-3.18637 -3.73371,-4.75531 -6.23809,-4.75531"
         style="fill:#5cc8c1;fill-opacity:1;fill-rule:nonzero;stroke:none"
         id="path26"
         inkscape:connector-curvature="0" /><path
         d="m 277.2192,85.650095 c -0.46666,3.457828 0.10773,6.666403 1.66566,8.00195 4.28094,3.669467 11.56097,6.912035 10.64033,13.256675 -0.67079,4.62071 7.08495,6.59706 13.45701,6.59706 2.37719,0 4.56292,-0.27508 6.04527,-0.79127 0.83147,-0.28913 1.90329,-0.41194 3.12221,-0.41194 3.92608,0 9.38067,1.2721 13.27687,2.34253 C 311.94917,101.57016 295.51297,91.538373 277.2192,85.650095"
         style="fill:#5cc8c1;fill-opacity:1;fill-rule:nonzero;stroke:none"
         id="path28"
         inkscape:connector-curvature="0" /><path
         d="m 187.86229,217.41104 0.34671,-4.51829 1.80508,0.13867 -0.34626,4.51829 -1.80553,-0.13867 m 0.69343,-9.03703 0.34625,-4.51875 1.80507,0.13868 -0.34625,4.51874 -1.80507,-0.13867 m 0.69251,-9.03704 0.34671,-4.51874 1.80507,0.13868 -0.34625,4.51874 -1.80553,-0.13868 m 0.69297,-9.03748 0.34671,-4.51829 1.80507,0.13867 -0.34625,4.51875 -1.80553,-0.13913 m 0.69342,-9.03704 0.34626,-4.51874 1.80507,0.13913 -0.34625,4.51829 -1.80508,-0.13868 m 0.69297,-9.03703 0.34626,-4.51874 1.80507,0.13867 -0.34625,4.51875 -1.80508,-0.13868 m 0.69297,-9.03748 0.34626,-4.51829 1.80553,0.13867 -0.34671,4.51874 -1.80508,-0.13912 m 0.69297,-9.03704 0.34626,-4.51874 1.80553,0.13913 -0.34671,4.51829 -1.80508,-0.13868 m 0.69297,-9.03703 0.34626,-4.51874 1.80507,0.13867 -0.34625,4.51875 -1.80508,-0.13868 m 0.69297,-9.03703 0.34626,-4.51875 1.80553,0.13868 -0.34671,4.51874 -1.80508,-0.13867 m 0.69297,-9.03749 0.34626,-4.51829 1.80553,0.13868 -0.34671,4.51829 -1.80508,-0.13868 m 0.69297,-9.03703 0.15163,-1.97817 1.80507,0.13868 -0.15162,1.97816 -1.80508,-0.13867"
         style="fill:#ffffff;fill-opacity:1;fill-rule:nonzero;stroke:none"
         id="path30"
         inkscape:connector-curvature="0" /><path
         d="m 293.3019,217.58642 -0.52822,-4.50107 1.79783,-0.21163 0.52822,4.50106 -1.79783,0.21164 m -1.05643,-9.00213 -0.52822,-4.50062 1.79783,-0.21164 0.52822,4.50107 -1.79783,0.21119 m -1.05643,-9.00169 -0.52821,-4.50107 1.79828,-0.21118 0.52776,4.50061 -1.79783,0.21164 m -1.05643,-9.00168 -0.52821,-4.50107 1.79828,-0.21164 0.52821,4.50107 -1.79828,0.21164 m -1.05643,-9.00214 -0.52821,-4.50062 1.79828,-0.21163 0.52821,4.50106 -1.79828,0.21119 m -1.05643,-9.00168 -0.52821,-4.50107 1.79828,-0.21119 0.52822,4.50062 -1.79829,0.21164 m -1.05597,-9.00169 -0.52822,-4.50107 1.79783,-0.21164 0.52822,4.50107 -1.79783,0.21164 m -1.05643,-9.00214 -0.52821,-4.50061 1.79783,-0.21164 0.52821,4.50107 -1.79783,0.21118 m -1.05643,-9.00168 -0.52821,-4.50107 1.79828,-0.21118 0.52776,4.50061 -1.79783,0.21164 m -1.05643,-9.00214 -0.52821,-4.50061 1.79828,-0.21164 0.52822,4.50107 -1.79829,0.21118 m -1.05642,-9.00168 -0.52822,-4.50107 1.79828,-0.21119 0.52822,4.50107 -1.79828,0.21119 m -1.05643,-9.00168 -0.1711,-1.46063 1.79783,-0.21164 0.17155,1.46063 -1.79828,0.21164"
         style="fill:#ffffff;fill-opacity:1;fill-rule:nonzero;stroke:none"
         id="path32"
         inkscape:connector-curvature="0" /><path
         d="m 251.99664,122.61895 -27.33,0 c -10.94856,0 -19.82274,-9.83328 -19.82274,-21.96333 l 0,-29.308202 c 9.03667,-4.996766 19.90286,-7.913125 31.59554,-7.913125 13.37509,0 25.66976,3.815802 35.37994,10.198509 l 0,27.022818 c 0,12.13005 -8.87554,21.96333 -19.82274,21.96333"
         style="fill:#e0223f;fill-opacity:1;fill-rule:nonzero;stroke:none"
         id="path34"
         inkscape:connector-curvature="0" /><path
         d="m 245.03887,116.71209 c 0,-3.70935 -3.00317,-5.35669 -6.70746,-5.35669 -3.70383,0 -6.707,1.64734 -6.707,5.35669 l 0,13.74612 c 0,3.70889 3.00317,6.71534 6.707,6.71534 3.70429,0 6.70746,-3.00645 6.70746,-6.71534 l 0,-13.74612"
         style="fill:#f6bd5b;fill-opacity:1;fill-rule:nonzero;stroke:none"
         id="path36"
         inkscape:connector-curvature="0" /><path
         d="m 134.70141,278.78682 4.52625,0 0,1.81275 -4.52625,0 0,-1.81275 m 9.05251,0 4.52626,0 0,1.81275 -4.52626,0 0,-1.81275 m 9.05251,0 4.52626,0 0,1.81275 -4.52626,0 0,-1.81275 m 9.05252,0 4.52625,0 0,1.81275 -4.52625,0 0,-1.81275 m 9.05251,0 4.52626,0 0,1.81275 -4.52626,0 0,-1.81275 m 9.05251,0 4.52626,0 0,1.81275 -4.52626,0 0,-1.81275 m 9.05252,0 4.52625,0 0,1.81275 -4.52625,0 0,-1.81275 m 9.05251,0 4.52626,0 0,1.81275 -4.52626,0 0,-1.81275 m 9.05252,0 4.52625,0 0,1.81275 -4.52625,0 0,-1.81275 m 9.05251,0 4.52626,0 0,1.81275 -4.52626,0 0,-1.81275 m 9.05251,0 4.52626,0 0,1.81275 -4.52626,0 0,-1.81275 m 9.05252,0 4.52625,0 0,1.81275 -4.52625,0 0,-1.81275 m 9.05251,0 4.52626,0 0,1.81275 -4.52626,0 0,-1.81275 m 9.05251,0 4.52626,0 0,1.81275 -4.52626,0 0,-1.81275 m 9.05252,0 4.52625,0 0,1.81275 -4.52625,0 0,-1.81275 m 9.05251,0 4.52626,0 0,1.81275 -4.52626,0 0,-1.81275 m 9.05251,0 4.52626,0 0,1.81275 -4.52626,0 0,-1.81275 m 9.05252,0 4.52625,0 0,1.81275 -4.52625,0 0,-1.81275 m 9.05251,0 4.52626,0 0,1.81275 -4.52626,0 0,-1.81275 m 9.05251,0 4.52626,0 0,1.81275 -4.52626,0 0,-1.81275 m 9.05252,0 4.52625,0 0,1.81275 -4.52625,0 0,-1.81275 m 9.05251,0 4.52626,0 0,1.81275 -4.52626,0 0,-1.81275 m 9.05251,0 4.52626,0 0,1.81275 -4.52626,0 0,-1.81275 m 9.05207,0 0.97359,0 0,1.81275 -0.97359,0 0,-1.81275"
         style="fill:#ffffff;fill-opacity:1;fill-rule:nonzero;stroke:none"
         id="path38"
         inkscape:connector-curvature="0" /><path
         d="m 135.6139,280.59957 c -0.0874,-4.5e-4 -0.19916,-0.0118 -0.32634,-0.0598 -0.0942,-0.0358 -0.19554,-0.0934 -0.28154,-0.1704 -0.13171,-0.11511 -0.21816,-0.26557 -0.2589,-0.38838 -0.0421,-0.12463 -0.0498,-0.22433 -0.0502,-0.30092 0.002,-0.13958 0.0244,-0.21526 0.0407,-0.27554 0.0349,-0.11103 0.0634,-0.16315 0.0896,-0.21571 0.0493,-0.092 0.096,-0.16361 0.15253,-0.2479 0.19373,-0.28551 0.51102,-0.69882 0.96681,-1.27255 0.45444,-0.57057 1.04059,-1.28978 1.74261,-2.13996 l 1.39499,1.15563 c -0.87764,1.06273 -1.57061,1.91699 -2.03727,2.51429 -0.23265,0.29775 -0.40962,0.53295 -0.5178,0.68613 -0.0534,0.0752 -0.0901,0.13233 -0.10003,0.14955 l -0.002,0.004 -0.34852,-0.19714 0.36889,0.15363 -0.0204,0.0435 -0.34852,-0.19714 0.36889,0.15363 -0.68799,-0.28596 0.71831,0.19578 c -0.0122,0.0449 -0.0226,0.0711 -0.0303,0.0902 l -0.68799,-0.28596 0.71831,0.19578 -0.82106,-0.22388 0.85094,0 c -0.001,0.11466 -0.0181,0.17765 -0.0299,0.22388 l -0.82106,-0.22388 0.85094,0 -0.88534,0 0.84958,-0.24925 c 0.0294,0.10332 0.0353,0.18535 0.0358,0.24925 l -0.88534,0 0.84958,-0.24925 -0.85818,0.25197 0.73823,-0.5053 c 0.0598,0.0879 0.0973,0.17674 0.11995,0.25333 l -0.85818,0.25197 0.73823,-0.5053 -0.74049,0.50666 0.36481,-0.82027 c 0.14213,0.0612 0.28742,0.18082 0.37568,0.31361 l -0.74049,0.50666 0.36481,-0.82027 -0.36255,0.81574 0,-0.89278 c 0.0932,0 0.21998,0.014 0.36255,0.077 l -0.36255,0.81574 0,-0.89278 0,1.81275 m 4.99654,-8.56934 c 0.89891,-1.06817 1.88337,-2.23241 2.93799,-3.47596 l 1.38005,1.17331 c -1.05371,1.24219 -2.03636,2.40462 -2.93346,3.47097 l -1.38458,-1.16832 m 5.88458,-6.94013 c 0.94916,-1.11348 1.93588,-2.26866 2.95248,-3.45692 l 1.37508,1.17919 c -1.01615,1.18736 -2.00242,2.34208 -2.95022,3.45421 l -1.37734,-1.17648 m 5.90858,-6.90886 c 0.96997,-1.13116 1.95851,-2.28271 2.95926,-3.44741 l 1.37236,1.18192 c -1.0003,1.1647 -1.98838,2.31579 -2.95836,3.4465 l -1.37326,-1.18101 m 5.92125,-6.89209 c 0.98355,-1.14294 1.97254,-2.29132 2.96243,-3.44016 l 1.37055,1.18419 c -0.98899,1.14838 -1.97843,2.29676 -2.96153,3.43924 l -1.37145,-1.18327 m 5.92894,-6.88031 c 0.99668,-1.15518 1.98793,-2.30356 2.96832,-3.43879 l 1.36964,1.18554 c -0.98038,1.13478 -1.97163,2.28316 -2.96786,3.43788 l -1.3701,-1.18463 m 5.93845,-6.87668 c 1.01207,-1.17059 2.00468,-2.31897 2.97239,-3.43698 l 1.36829,1.1869 c -0.96726,1.11801 -1.95987,2.26594 -2.97149,3.43652 l -1.36919,-1.18644 m 5.94614,-6.87351 c 1.03923,-1.19959 2.03455,-2.34888 2.97647,-3.43608 l 1.36783,1.18781 c -0.94191,1.08674 -1.93723,2.23603 -2.97601,3.43562 l -1.36829,-1.18735 0,0 m 5.9552,-6.87306 c 1.13156,-1.30473 2.13503,-2.46127 2.98144,-3.43653 l 1.36648,1.18871 c -0.84641,0.97527 -1.84943,2.13135 -2.98054,3.43653 l -1.36738,-1.18826 0,-4.5e-4 m 5.97737,-6.88711 0.0113,-0.0131 0.68301,0.59504 -0.6898,0.58688 -2.92079,-3.43971 1.3796,-1.17421 3.42456,4.03383 -0.51101,0.58824 -0.0109,0.0127 -1.36603,-1.18962 m -5.84747,-5.72377 -2.93165,-3.4533 1.3796,-1.17375 2.9312,3.45284 -1.37915,1.17421 m -5.86331,-6.90614 -2.93121,-3.45284 1.37916,-1.17421 2.93165,3.45329 -1.3796,1.17376 m -5.86286,-6.90569 -2.93166,-3.45284 1.37961,-1.17421 2.93165,3.45284 -1.3796,1.17421 m -5.86331,-6.90568 -2.93121,-3.4533 1.37915,-1.17376 2.93166,3.45285 -1.3796,1.17421 m -5.86286,-6.90614 -2.93166,-3.45285 1.3796,-1.17421 2.93166,3.45285 -1.3796,1.17421 m -5.86332,-6.90569 -2.9312,-3.45284 1.37915,-1.17422 2.93166,3.45285 -1.37961,1.17421 m -5.86286,-6.90614 -2.93165,-3.45284 1.3796,-1.17376 2.93165,3.45284 -1.3796,1.17376 m -5.86286,-6.90569 -2.93166,-3.45284 1.37916,-1.17421 2.93165,3.45284 -1.37915,1.17421 m -5.86331,-6.90568 -1.0777,-1.26984 4.15782,-2.66294 0.97586,1.52725 -3.28471,2.10325 -0.48793,-0.76362 0.6898,-0.58688 0.40646,0.47856 -1.3796,1.17422 m 6.89349,-6.37455 3.81292,-2.44224 0.9754,1.52725 -3.81291,2.44178 -0.97541,-1.52679 m 7.62583,-4.88402 3.81292,-2.44223 0.97541,1.52724 -3.81292,2.44224 -0.97541,-1.52725 m 7.62584,-4.88401 3.81292,-2.44178 0.97541,1.52679 -3.81292,2.44223 -0.97541,-1.52724 m 7.62584,-4.88401 3.81292,-2.44178 0.97586,1.52724 -3.81337,2.44178 -0.97541,-1.52724 m 7.62584,-4.88402 3.81292,-2.44178 0.97586,1.52725 -3.81292,2.44178 -0.97586,-1.52725 m 7.62583,-4.88356 3.81338,-2.44223 0.9754,1.52725 -3.81291,2.44178 -0.97587,-1.5268 m 7.62629,-4.88401 3.81292,-2.44178 0.97541,1.52679 -3.81292,2.44224 -0.97541,-1.52725 m 7.62584,-4.88401 3.81292,-2.44178 0.97541,1.52724 -3.81292,2.44178 -0.97541,-1.52724 m 7.62584,-4.88402 3.81292,-2.44178 0.97541,1.52725 -3.81292,2.44178 -0.97541,-1.52725 m 7.62584,-4.88356 3.81292,-2.44223 0.9754,1.52725 -3.81292,2.44178 -0.9754,-1.5268 m 7.62583,-4.88401 3.81292,-2.442231 0.97586,1.527245 -3.81292,2.442236 -0.97586,-1.52725 m 7.62584,-4.884011 3.81292,-2.44178 0.97586,1.526792 -3.81292,2.442233 -0.97586,-1.527245 m 7.62629,-4.884013 3.55719,-2.278179 1.23069,0.784923 -0.9727,1.529058 -0.25573,-0.163148 -2.58404,1.654591 -0.97541,-1.527245 m 8.60577,0.940819 3.8179,2.434076 -0.97224,1.529058 -3.8179,-2.434075 0.97224,-1.529059 m 7.63625,4.868152 3.8179,2.433622 -0.97224,1.529061 -3.81835,-2.433625 0.97269,-1.529058 m 7.6358,4.867693 3.81789,2.43408 -0.97224,1.52906 -3.81789,-2.43408 0.97224,-1.52906 m 7.63624,4.86816 3.8179,2.43407 -0.97224,1.52906 -3.8179,-2.43408 0.97224,-1.52905 m 7.6358,4.86769 3.81835,2.43408 -0.97269,1.52906 -3.8179,-2.43408 0.97224,-1.52906 m 7.63625,4.86816 3.81789,2.43407 -0.97224,1.52906 -3.81789,-2.43408 0.97224,-1.52905 m 7.63624,4.86815 3.8179,2.43362 -0.97269,1.52951 -3.8179,-2.43407 0.97269,-1.52906 m 7.6358,4.8677 3.8179,2.43407 -0.97224,1.52906 -3.8179,-2.43408 0.97224,-1.52905 m 7.63625,4.86815 3.8179,2.43407 -0.97224,1.52906 -3.81835,-2.43408 0.97269,-1.52905 m 7.63579,4.86769 3.81835,2.43408 -0.97269,1.52951 -3.8179,-2.43407 0.97224,-1.52952 m 7.63625,4.86816 3.8179,2.43407 -0.97224,1.52906 -3.8179,-2.43408 0.97224,-1.52905 m 7.63625,4.86815 3.8179,2.43407 -0.97224,1.52906 -3.81835,-2.43407 0.97269,-1.52906 m 7.63579,4.8677 3.8179,2.43407 -0.97224,1.52906 -3.8179,-2.43362 0.97224,-1.52951 m 7.63625,4.86815 3.68302,2.34797 -0.97224,1.52906 -3.68347,-2.34797 0.97269,-1.52906"
         style="fill:#ffffff;fill-opacity:1;fill-rule:nonzero;stroke:none"
         id="path40"
         inkscape:connector-curvature="0" /><path
         d="m 344.09238,280.26557 -2.85788,-3.51448 1.40405,-1.14475 2.85788,3.51448 -1.40405,1.14475 m -5.71576,-7.0285 -2.85787,-3.51448 1.40404,-1.14475 2.85788,3.51448 -1.40405,1.14475 m -5.71575,-7.0285 -2.85788,-3.51448 1.40404,-1.14475 2.85788,3.51447 -1.40404,1.14476 m -5.71576,-7.02896 -2.85788,-3.51402 1.40359,-1.14475 2.85788,3.51447 -1.40359,1.1443 m -5.71621,-7.02804 -2.85743,-3.51448 1.4036,-1.14476 2.85788,3.51448 -1.40405,1.14476 m -5.71576,-7.0285 -2.85787,-3.51448 1.40404,-1.14476 2.85788,3.51448 -1.40405,1.14476 m -5.71575,-7.02851 -2.85788,-3.51447 1.40404,-1.14476 2.85788,3.51448 -1.40404,1.14475 m -5.71576,-7.0285 -2.85788,-3.51447 1.40405,-1.14476 2.85787,3.51448 -1.40404,1.14475 m -5.71576,-7.02895 -2.85788,-3.51403 1.4036,-1.14475 2.85833,3.51448 -1.40405,1.1443 m -4.36376,-4.9461 -2.96877,3.42067 -1.36648,-1.18917 2.96877,-3.42067 1.36648,1.18917 m -5.938,6.84133 -2.96877,3.42067 -1.36648,-1.18917 2.96878,-3.42066 1.36647,1.18916 m -5.93754,6.84134 -2.96923,3.42066 -1.36647,-1.18916 2.96877,-3.42067 1.36693,1.18917 m -5.938,6.84133 -2.96922,3.42112 -1.36648,-1.18916 2.96923,-3.42067 1.36647,1.18871 m -5.93799,6.84179 -2.96878,3.42067 -1.36693,-1.18917 2.96923,-3.42067 1.36648,1.18917 m -5.938,6.84133 -2.96877,3.42067 -1.36648,-1.18917 2.96877,-3.42066 1.36648,1.18916 m -5.93754,6.84134 -2.96923,3.42066 -1.36648,-1.18916 2.96878,-3.42067 1.36693,1.18917 m -5.938,6.84133 -2.96922,3.42067 -1.36648,-1.18871 2.96877,-3.42067 1.36693,1.18871 m -5.938,6.84134 -2.96922,3.42112 -1.36648,-1.18917 2.96923,-3.42067 1.36647,1.18872 m -7.30945,6.06502 -2.88639,-3.49091 1.39454,-1.15609 2.88639,3.49091 -1.39454,1.15609 m -5.77279,-6.98182 -2.88639,-3.49092 1.39454,-1.15608 2.88639,3.49091 -1.39454,1.15609 m -5.77278,-6.98183 -2.8864,-3.49091 1.39499,-1.15563 2.88595,3.49046 -1.39454,1.15608 m -5.77234,-6.98182 -2.88685,-3.49046 1.395,-1.15608 2.88639,3.49046 -1.39454,1.15608 m -5.77279,-6.98182 -2.88639,-3.49046 1.39454,-1.15608 2.88639,3.49091 -1.39454,1.15563 m -5.77279,-6.98137 -2.88639,-3.49091 1.39454,-1.15609 2.88639,3.49091 -1.39454,1.15609 m -5.77278,-6.98182 -2.8864,-3.49092 1.39454,-1.15608 2.8864,3.49091 -1.39454,1.15609 m -5.77279,-6.98183 -2.88639,-3.49091 1.39453,-1.15608 2.8864,3.49091 -1.39454,1.15608 m -5.77279,-6.98182 -2.88639,-3.49091 1.39499,-1.15563 2.88594,3.49046 -1.39454,1.15608 m -2.93709,-7.45903 4.52626,0 0,1.81275 -4.52626,0 0,-1.81275 m 9.05252,0 4.52625,0 0,1.81275 -4.52625,0 0,-1.81275 m 9.05251,0 4.52626,0 0,1.81275 -4.52626,0 0,-1.81275 m 9.05251,0 4.52626,0 0,1.81275 -4.52626,0 0,-1.81275 m 9.05252,0 4.52625,0 0,1.81275 -4.52625,0 0,-1.81275 m 9.05251,0 4.52626,0 0,1.81275 -4.52626,0 0,-1.81275 m 9.05251,0 4.52626,0 0,1.81275 -4.52626,0 0,-1.81275 m 9.05252,0 4.52625,0 0,1.81275 -4.52625,0 0,-1.81275 m 9.05251,0 4.52626,0 0,1.81275 -4.52626,0 0,-1.81275 m 9.05251,0 4.52626,0 0,1.81275 -4.52626,0 0,-1.81275 m 9.05252,0 4.52626,0 0,1.81275 -4.52626,0 0,-1.81275 m 9.05251,0 4.52626,0 0,1.81275 -4.52626,0 0,-1.81275 m 6.82922,-3.0844 2.97601,-3.41478 1.36422,1.19189 -2.97602,3.41477 -1.36421,-1.19188 m 5.95203,-6.8291 2.97601,-3.41478 1.36421,1.19189 -2.97601,3.41478 -1.36421,-1.19189 m 5.95202,-6.8291 2.97602,-3.41477 1.36421,1.19188 -2.97601,3.41478 -1.36422,-1.19189 m 5.95203,-6.8291 2.97601,-3.41477 1.36422,1.19188 -2.97602,3.41478 -1.36421,-1.19189 m 5.95203,-6.82909 2.97601,-3.41478 1.36422,1.19189 -2.97602,3.41477 -1.36421,-1.19188 m 5.95203,-6.8291 2.97601,-3.41478 1.36421,1.19189 -2.97601,3.41477 -1.36421,-1.19188 m 5.95202,-6.8291 2.97602,-3.41478 1.36421,1.19189 -2.97601,3.41478 -1.36422,-1.19189 m 5.95203,-6.82955 2.97602,-3.41432 1.36421,1.19188 -2.97601,3.41478 -1.36422,-1.19234 m 5.95203,-6.8291 2.97601,-3.41432 1.36422,1.19188 -2.97602,3.41478 -1.36421,-1.19234"
         style="fill:#ffffff;fill-opacity:1;fill-rule:nonzero;stroke:none"
         id="path42"
         inkscape:connector-curvature="0" /><path
         d="m 166.79483,279.69319 c 0,-17.24246 -13.95988,-31.2197 -31.18093,-31.2197 -17.2206,0 -31.18093,13.97724 -31.18093,31.2197 0,17.24202 13.96033,31.21926 31.18093,31.21926 17.22105,0 31.18093,-13.97724 31.18093,-31.21926"
         style="fill:#3e8dd3;fill-opacity:1;fill-rule:nonzero;stroke:none"
         id="path44"
         inkscape:connector-curvature="0" /><path
         d="m 263.65808,160.27439 0,13.52269 c 0,14.00398 -11.33918,19.17486 -25.32667,19.17486 -13.98749,0 -25.32667,-5.17088 -25.32667,-19.17486 l 0,-13.52269 50.65334,0"
         style="fill:#504042;fill-opacity:1;fill-rule:nonzero;stroke:none"
         id="path46"
         inkscape:connector-curvature="0" /><path
         d="m 261.05277,146.3334 c 0,-12.56375 -10.17322,-22.74825 -22.72136,-22.74825 -12.54814,0 -22.7209,10.1845 -22.7209,22.74825 l 0,23.23634 c 0,12.56329 10.17276,17.20258 22.7209,17.20258 12.54814,0 22.72136,-4.63929 22.72136,-17.20258 l 0,-23.23634"
         style="fill:#f6bd5b;fill-opacity:1;fill-rule:nonzero;stroke:none"
         id="path48"
         inkscape:connector-curvature="0" /><path
         d="m 222.73574,160.27439 c 0,-3.94002 -3.1901,-7.1341 -7.12523,-7.1341 -3.93468,0 -7.12478,3.19408 -7.12478,7.1341 0,3.93956 3.1901,7.13364 7.12478,7.13364 3.93513,0 7.12523,-3.19408 7.12523,-7.13364"
         style="fill:#f6bd5b;fill-opacity:1;fill-rule:nonzero;stroke:none"
         id="path50"
         inkscape:connector-curvature="0" /><path
         d="m 268.17755,160.27439 c 0,-3.94002 -3.19056,-7.1341 -7.12478,-7.1341 -3.93558,0 -7.12614,3.19408 -7.12614,7.1341 0,3.93956 3.19056,7.13364 7.12614,7.13364 3.93422,0 7.12478,-3.19408 7.12478,-7.13364"
         style="fill:#f6bd5b;fill-opacity:1;fill-rule:nonzero;stroke:none"
         id="path52"
         inkscape:connector-curvature="0" /><path
         d="m 238.33141,187.90439 c -12.54814,0 -23.05992,-4.13354 -23.05992,-18.33465 l 0.33902,-2.16171 c 0,0 5.5329,4.30348 9.60426,12.56918 0,0 10.85759,-6.56761 21.71472,-8.15286 0,0 0.22586,2.03799 -1.58328,5.66168 0,0 7.8879,-9.28492 15.70656,-10.078 l 0.57981,2.16171 c 0,14.16576 -10.75303,18.33465 -23.30117,18.33465"
         style="fill:#504042;fill-opacity:1;fill-rule:nonzero;stroke:none"
         id="path54"
         inkscape:connector-curvature="0" /><path
         d="m 218.54126,157.58018 c 0,-0.57646 -0.63141,-1.04279 -1.40993,-1.04279 -0.77806,0 -1.40947,0.46633 -1.40947,1.04279 l 0,15.9187 c 0,0.57646 0.63141,1.04324 1.40947,1.04324 0.77852,0 1.40993,-0.46678 1.40993,-1.04324 l 0,-15.9187"
         style="fill:#504042;fill-opacity:1;fill-rule:nonzero;stroke:none"
         id="path56"
         inkscape:connector-curvature="0" /><path
         d="m 261.14873,157.58018 c 0,-0.57646 -0.63096,-1.04279 -1.40903,-1.04279 -0.77851,0 -1.40947,0.46633 -1.40947,1.04279 l 0,15.91915 c 0,0.57601 0.63096,1.04279 1.40947,1.04279 0.77807,0 1.40903,-0.46678 1.40903,-1.04279 l 0,-15.91915"
         style="fill:#504042;fill-opacity:1;fill-rule:nonzero;stroke:none"
         id="path58"
         inkscape:connector-curvature="0" /><path
         d="m 258.78059,79.799884 c 0,0 0,3.311448 -2.43739,6.941942 -1.71771,2.559156 1.19267,5.891451 0.17426,6.911125 -1.01841,1.019674 -5.04723,0.189433 -5.92487,-3.927332 -0.87674,-4.116765 0.38021,-9.44173 0.38021,-9.44173 l 0.45262,-3.064008 7.35517,2.580003"
         style="fill:#f6bd5b;fill-opacity:1;fill-rule:nonzero;stroke:none"
         id="path60"
         inkscape:connector-curvature="0" /><path
         d="m 217.8501,79.799884 c 0,0 0,3.311448 2.43739,6.941942 1.71772,2.558702 -1.19267,5.891451 -0.17426,6.911125 1.01841,1.019674 5.04768,0.189433 5.92442,-3.927332 0.87764,-4.116765 -0.37976,-9.44173 -0.37976,-9.44173 l -0.45262,-3.064008 -7.35517,2.580003"
         style="fill:#f6bd5b;fill-opacity:1;fill-rule:nonzero;stroke:none"
         id="path62"
         inkscape:connector-curvature="0" /><path
         d="m 229.61837,66.515612 c 0,-3.253894 -2.63428,-5.891451 -5.88413,-5.891451 -3.2494,0 -5.88414,0.442765 -5.88414,3.696161 l 0,15.479562 c 0,3.25344 2.63474,3.853009 5.88414,3.853009 3.24985,0 5.88413,-0.599569 5.88413,-3.853009 l 0,-13.284272"
         style="fill:#f6bd5b;fill-opacity:1;fill-rule:nonzero;stroke:none"
         id="path64"
         inkscape:connector-curvature="0" /><path
         d="m 215.72186,66.650164 0,30.892504 c -7.37011,0.301824 -10.87796,3.112952 -10.87796,3.112952 l -8.30432,-31.463522 c 3.387,-1.872575 15.3345,-1.297433 19.18228,-2.541934"
         style="fill:#f89d44;fill-opacity:1;fill-rule:nonzero;stroke:none"
         id="path66"
         inkscape:connector-curvature="0" /><path
         d="m 249.2578,63.434293 c 0,-0.924414 -0.74865,-1.673943 -1.672,-1.673943 l -17.75877,0 c -0.92381,0 -1.672,0.749529 -1.672,1.673943 0,0.92464 0.74819,1.674667 1.672,1.674667 l 17.75877,0 c 0.92335,0 1.672,-0.750027 1.672,-1.674667"
         style="fill:#4f515b;fill-opacity:1;fill-rule:nonzero;stroke:none"
         id="path68"
         inkscape:connector-curvature="0" /><path
         d="m 224.76532,91.272805 3.38971,-27.838512 21.10277,0 2.64016,27.838512 -27.13264,0"
         style="fill:#4f515b;fill-opacity:1;fill-rule:nonzero;stroke:none"
         id="path70"
         inkscape:connector-curvature="0" /><path
         d="m 251.89796,91.895939 c 0,-1.188713 -0.96273,-2.152645 -2.14997,-2.152645 l -22.8327,0 c -1.18769,0 -2.14997,0.963932 -2.14997,2.152645 0,1.188714 0.96228,2.152646 2.14997,2.152646 l 22.8327,0 c 1.18724,0 2.14997,-0.963932 2.14997,-2.152646"
         style="fill:#3c3a44;fill-opacity:1;fill-rule:nonzero;stroke:none"
         id="path72"
         inkscape:connector-curvature="0" /><path
         d="m 230.07099,91.895939 c 0,-0.56286 -0.45624,-1.019674 -1.0184,-1.019674 -0.56262,0 -1.01841,0.456814 -1.01841,1.019674 0,0.56286 0.45579,1.019674 1.01841,1.019674 0.56216,0 1.0184,-0.456814 1.0184,-1.019674"
         style="fill:#231f24;fill-opacity:1;fill-rule:nonzero;stroke:none"
         id="path74"
         inkscape:connector-curvature="0" /><path
         d="m 244.72475,91.895939 c 0,-0.344423 -0.27836,-0.623134 -0.62236,-0.623134 -0.34354,0 -0.62236,0.278711 -0.62236,0.623134 0,0.344423 0.27882,0.623134 0.62236,0.623134 0.344,0 0.62236,-0.278711 0.62236,-0.623134"
         style="fill:#231f24;fill-opacity:1;fill-rule:nonzero;stroke:none"
         id="path76"
         inkscape:connector-curvature="0" /><path
         d="m 247.10104,91.895939 c 0,-0.344423 -0.27837,-0.623134 -0.62236,-0.623134 -0.344,0 -0.62236,0.278711 -0.62236,0.623134 0,0.344423 0.27836,0.623134 0.62236,0.623134 0.34399,0 0.62236,-0.278711 0.62236,-0.623134"
         style="fill:#231f24;fill-opacity:1;fill-rule:nonzero;stroke:none"
         id="path78"
         inkscape:connector-curvature="0" /><path
         d="m 249.47732,91.895939 c 0,-0.344423 -0.27836,-0.623134 -0.62236,-0.623134 -0.34354,0 -0.62236,0.278711 -0.62236,0.623134 0,0.344423 0.27882,0.623134 0.62236,0.623134 0.344,0 0.62236,-0.278711 0.62236,-0.623134"
         style="fill:#231f24;fill-opacity:1;fill-rule:nonzero;stroke:none"
         id="path80"
         inkscape:connector-curvature="0" /><path
         d="m 234.48047,83.992784 c 0.43815,-1.255785 -0.0656,-2.571845 -1.12477,-2.94346 l -7.58555,-2.652965 c -1.0587,-0.370709 -2.27219,0.345329 -2.70987,1.600662 -0.4386,1.253972 0.0652,2.572298 1.12387,2.943006 l 7.58555,2.653419 c 1.05869,0.370708 2.27263,-0.346689 2.71077,-1.600662"
         style="fill:#f6bd5b;fill-opacity:1;fill-rule:nonzero;stroke:none"
         id="path82"
         inkscape:connector-curvature="0" /><path
         d="m 231.82039,80.975002 1.15465,0.404244 c 0.93241,0.327202 1.48869,1.268928 1.10305,2.373801 -0.38564,1.103968 -1.45383,1.734806 -2.38579,1.408964 l -1.42306,-0.498055 1.55115,-3.688954"
         style="fill:#f6edd8;fill-opacity:1;fill-rule:nonzero;stroke:none"
         id="path84"
         inkscape:connector-curvature="0" /><path
         d="m 234.48047,78.101333 c 0.43815,-1.255785 -0.0656,-2.571846 -1.12477,-2.943415 l -7.58555,-2.652921 c -1.0587,-0.370708 -2.27219,0.345194 -2.70987,1.600662 -0.4386,1.253882 0.0652,2.572208 1.12387,2.942917 l 7.58555,2.653419 c 1.05869,0.370708 2.27263,-0.346689 2.71077,-1.600662"
         style="fill:#f6bd5b;fill-opacity:1;fill-rule:nonzero;stroke:none"
         id="path86"
         inkscape:connector-curvature="0" /><path
         d="m 231.82039,75.08355 1.15465,0.404334 c 0.93241,0.327112 1.48869,1.268839 1.10305,2.373712 -0.38564,1.103968 -1.45383,1.734806 -2.38579,1.408963 l -1.42306,-0.498054 1.55115,-3.688955"
         style="fill:#f6edd8;fill-opacity:1;fill-rule:nonzero;stroke:none"
         id="path88"
         inkscape:connector-curvature="0" /><path
         d="m 234.48047,72.209881 c 0.43815,-1.255831 -0.0656,-2.571845 -1.12477,-2.943414 l -7.58555,-2.652921 c -1.0587,-0.370708 -2.27219,0.345194 -2.70987,1.600662 -0.4386,1.253882 0.0652,2.572208 1.12387,2.942871 l 7.58555,2.653464 c 1.05869,0.370708 2.27263,-0.346599 2.71077,-1.600662"
         style="fill:#f6bd5b;fill-opacity:1;fill-rule:nonzero;stroke:none"
         id="path90"
         inkscape:connector-curvature="0" /><path
         d="m 231.82039,69.192098 1.15465,0.404335 c 0.93241,0.327157 1.48869,1.268928 1.10305,2.373757 -0.38564,1.103922 -1.45383,1.734669 -2.38579,1.408963 l -1.42306,-0.49819 1.55115,-3.688865"
         style="fill:#f6edd8;fill-opacity:1;fill-rule:nonzero;stroke:none"
         id="path92"
         inkscape:connector-curvature="0" /><path
         d="m 234.48047,66.31843 c 0.43815,-1.255831 -0.0656,-2.571845 -1.12477,-2.943414 l -7.58555,-2.652921 c -1.0587,-0.370708 -2.27219,0.345194 -2.70987,1.600662 -0.4386,1.253882 0.0652,2.572208 1.12387,2.942871 l 7.58555,2.653464 c 1.05869,0.370708 2.27263,-0.346599 2.71077,-1.600662"
         style="fill:#f6bd5b;fill-opacity:1;fill-rule:nonzero;stroke:none"
         id="path94"
         inkscape:connector-curvature="0" /><path
         d="m 231.82039,63.300647 1.15465,0.404335 c 0.93241,0.327157 1.48869,1.268928 1.10305,2.373756 -0.38564,1.103922 -1.45383,1.73467 -2.38579,1.408964 l -1.42306,-0.498191 1.55115,-3.688864"
         style="fill:#f6edd8;fill-opacity:1;fill-rule:nonzero;stroke:none"
         id="path96"
         inkscape:connector-curvature="0" /><path
         d="m 220.74238,87.761047 4.5e-4,4.53e-4 c 2.25181,1.850369 0.99216,4.116312 0.0869,5.265145 -0.21726,0.276445 -0.46576,0.477207 -0.71742,0.6254 -0.88488,-0.888703 1.21666,-3.538043 0.63006,-5.890998"
         style="fill:#f6edd8;fill-opacity:1;fill-rule:nonzero;stroke:none"
         id="path98"
         inkscape:connector-curvature="0" /><path
         d="m 226.84468,73.703998 c 1.44433,-4.461641 -1.58736,-10.847883 -6.95278,-12.58858 l -9.60879,-2.622104 c -8.46365,-2.492537 -12.64863,-0.362551 -14.09296,4.099408 -1.44433,4.462139 -0.17924,9.545646 8.82213,12.95589 l 12.83782,4.251272 c 5.36497,1.740244 7.5507,-1.633745 8.99458,-6.095886"
         style="fill:#f6bd5b;fill-opacity:1;fill-rule:nonzero;stroke:none"
         id="path100"
         inkscape:connector-curvature="0" /><path
         d="m 247.01232,66.515612 c 0,-3.253894 2.63428,-5.891451 5.88413,-5.891451 3.24986,0 5.88414,0.442765 5.88414,3.696161 l 0,15.479562 c 0,3.25344 -2.63428,3.853009 -5.88414,3.853009 -3.24985,0 -5.88413,-0.599569 -5.88413,-3.853009 l 0,-13.284272"
         style="fill:#f6bd5b;fill-opacity:1;fill-rule:nonzero;stroke:none"
         id="path102"
         inkscape:connector-curvature="0" /><path
         d="m 260.90838,66.650164 0,30.892504 c 7.37056,0.301824 10.87841,3.112952 10.87841,3.112952 l 8.30432,-31.463522 c -3.38654,-1.872575 -15.3345,-1.297433 -19.18273,-2.541934"
         style="fill:#f89d44;fill-opacity:1;fill-rule:nonzero;stroke:none"
         id="path104"
         inkscape:connector-curvature="0" /><path
         d="m 242.15022,83.992784 c -0.43815,-1.255785 0.0656,-2.571845 1.12477,-2.943006 l 7.58555,-2.653419 c 1.0587,-0.370709 2.27219,0.345329 2.70987,1.600662 0.43815,1.253972 -0.0647,2.572298 -1.12386,2.943006 l -7.58556,2.653419 c -1.05869,0.370708 -2.27218,-0.346689 -2.71077,-1.600662"
         style="fill:#f6bd5b;fill-opacity:1;fill-rule:nonzero;stroke:none"
         id="path106"
         inkscape:connector-curvature="0" /><path
         d="m 244.8103,80.975455 -1.15465,0.403791 c -0.93241,0.327202 -1.48869,1.268928 -1.10305,2.373801 0.38564,1.103968 1.45383,1.734806 2.38579,1.408964 l 1.42351,-0.498055 -1.5516,-3.688501"
         style="fill:#f6edd8;fill-opacity:1;fill-rule:nonzero;stroke:none"
         id="path108"
         inkscape:connector-curvature="0" /><path
         d="m 242.15022,78.101333 c -0.43815,-1.255785 0.0656,-2.571846 1.12477,-2.943415 l 7.58555,-2.652921 c 1.0587,-0.370708 2.27219,0.345194 2.70987,1.600662 0.43815,1.253882 -0.0647,2.572208 -1.12386,2.942917 l -7.58556,2.653419 c -1.05869,0.370708 -2.27218,-0.346689 -2.71077,-1.600662"
         style="fill:#f6bd5b;fill-opacity:1;fill-rule:nonzero;stroke:none"
         id="path110"
         inkscape:connector-curvature="0" /><path
         d="m 244.8103,75.08355 -1.15465,0.404334 c -0.93241,0.327112 -1.48869,1.268839 -1.10305,2.373712 0.38564,1.103968 1.45383,1.734806 2.38579,1.408963 l 1.42351,-0.498054 -1.5516,-3.688955"
         style="fill:#f6edd8;fill-opacity:1;fill-rule:nonzero;stroke:none"
         id="path112"
         inkscape:connector-curvature="0" /><path
         d="m 242.15022,72.209881 c -0.43815,-1.255831 0.0656,-2.571845 1.12477,-2.943414 l 7.58555,-2.652921 c 1.0587,-0.370708 2.27219,0.345194 2.70987,1.600662 0.43815,1.253882 -0.0647,2.572208 -1.12386,2.942871 l -7.58556,2.653464 c -1.05869,0.370708 -2.27218,-0.346599 -2.71077,-1.600662"
         style="fill:#f6bd5b;fill-opacity:1;fill-rule:nonzero;stroke:none"
         id="path114"
         inkscape:connector-curvature="0" /><path
         d="m 244.8103,69.192098 -1.15465,0.404335 c -0.93241,0.327157 -1.48869,1.268928 -1.10305,2.373757 0.38564,1.103922 1.45383,1.734669 2.38579,1.408963 l 1.42351,-0.49819 -1.5516,-3.688865"
         style="fill:#f6edd8;fill-opacity:1;fill-rule:nonzero;stroke:none"
         id="path116"
         inkscape:connector-curvature="0" /><path
         d="m 242.15022,66.31843 c -0.43815,-1.255831 0.0656,-2.571845 1.12477,-2.943414 l 7.58555,-2.652921 c 1.0587,-0.370708 2.27219,0.345194 2.70987,1.600662 0.43815,1.253882 -0.0647,2.572208 -1.12386,2.942871 l -7.58556,2.653464 c -1.05869,0.370708 -2.27218,-0.346599 -2.71077,-1.600662"
         style="fill:#f6bd5b;fill-opacity:1;fill-rule:nonzero;stroke:none"
         id="path118"
         inkscape:connector-curvature="0" /><path
         d="m 244.8103,63.300647 -1.15465,0.404335 c -0.93241,0.327157 -1.48869,1.268928 -1.10305,2.373756 0.38564,1.103922 1.45383,1.735214 2.38579,1.408964 l 1.42351,-0.498191 -1.5516,-3.688864"
         style="fill:#f6edd8;fill-opacity:1;fill-rule:nonzero;stroke:none"
         id="path120"
         inkscape:connector-curvature="0" /><path
         d="m 255.88831,87.761047 -4.5e-4,4.53e-4 c -2.25136,1.850369 -0.99261,4.116312 -0.0874,5.265145 0.21771,0.276445 0.46575,0.477207 0.71787,0.6254 0.88488,-0.888703 -1.21621,-3.538043 -0.63006,-5.890998"
         style="fill:#f6edd8;fill-opacity:1;fill-rule:nonzero;stroke:none"
         id="path122"
         inkscape:connector-curvature="0" /><path
         d="m 249.78601,73.704497 c -1.44433,-4.46214 1.58781,-10.848382 6.95278,-12.589079 l 9.60925,-2.622104 c 8.46274,-2.492537 12.64817,-0.362551 14.09205,4.099408 1.44478,4.462139 0.17969,9.545646 -8.82168,12.95589 l -12.83782,4.251272 c -5.36543,1.740697 -7.5507,-1.633745 -8.99458,-6.095387"
         style="fill:#f6bd5b;fill-opacity:1;fill-rule:nonzero;stroke:none"
         id="path124"
         inkscape:connector-curvature="0" /><path
         d="m 252.92859,60.624161 c 9.1e-4,0 0.002,0 0.003,0 -9.1e-4,0 -0.002,0 -0.003,0 m -2.06805,0.09793 0,0 -3.02308,1.057198 c 4.5e-4,0 4.5e-4,0 4.5e-4,0 l 3.02263,-1.057198 0,0 m 29.22921,8.47585 0,0 -4.22707,16.014823 0,0 4.22707,-16.014823"
         style="fill:#ced093;fill-opacity:1;fill-rule:nonzero;stroke:none"
         id="path126"
         inkscape:connector-curvature="0" /><path
         d="m 275.86268,85.212768 -4.0433,15.320492 0,0.12236 0,-0.12191 4.0433,-15.320942 0,0"
         style="fill:#33818e;fill-opacity:1;fill-rule:nonzero;stroke:none"
         id="path128"
         inkscape:connector-curvature="0" /><path
         d="m 260.90838,79.095175 -2.12779,0.704709 0,0 c 0,0.325389 -0.0263,0.62404 -0.077,0.898673 -0.16656,1.227234 -0.69387,3.560702 -2.36044,6.043269 -1.67019,2.488005 1.03515,5.707456 0.24985,6.820941 0,4.53e-4 -4.5e-4,9.06e-4 -4.5e-4,0.0014 -0.001,0.0014 -0.002,0.0027 -0.003,0.0041 -4.5e-4,9.06e-4 -9.1e-4,0.0014 -10e-4,0.0023 -10e-4,0.0014 -0.002,0.0023 -0.003,0.0036 -4.5e-4,9.07e-4 -0.001,0.0018 -0.002,0.0027 -4.5e-4,9.07e-4 -9e-4,0.0014 -10e-4,0.0018 -9e-4,0.0018 -0.002,0.0032 -0.004,0.005 -4.5e-4,4.53e-4 -4.5e-4,4.53e-4 -4.5e-4,9.07e-4 -0.0118,0.01496 -0.024,0.02991 -0.0371,0.04396 l 0,0 c -0.003,0.0032 -0.005,0.0063 -0.008,0.0091 -4.6e-4,4.53e-4 -9.1e-4,9.06e-4 -0.001,0.0014 -10e-4,0.0014 -0.003,0.0027 -0.004,0.0041 -4.6e-4,9.06e-4 -0.001,0.0018 -0.002,0.0027 -4.5e-4,4.53e-4 -0.001,0.0014 -0.002,0.0023 -9.1e-4,9.06e-4 -0.002,0.0023 -0.003,0.0032 -4.5e-4,4.54e-4 -4.5e-4,4.54e-4 -9e-4,9.07e-4 l 0,0 c -4.6e-4,4.53e-4 -4.6e-4,4.53e-4 -9.1e-4,9.06e-4 -0.25573,0.256052 -0.70157,0.395634 -1.23929,0.395634 -1.03244,0 -2.40525,-0.513916 -3.42728,-1.70263 -0.20685,0.972996 -1.07001,1.70263 -2.1029,1.70263 l -4.02792,0 0.42683,0.272366 -0.97224,1.529058 -2.82574,-1.801424 -4.03335,0 0,17.306819 c 0.005,0 0.0109,0 0.0158,0 3.70429,0 6.70746,1.64734 6.70746,5.35669 l 0,5.90686 6.95777,0 c 10.9472,0 19.82274,-9.83328 19.82274,-21.96333 l 0,-0.12236 -0.0326,0.12236 c 0,0 -3.50785,-2.811132 -10.87841,-3.112956 l 0,-18.447493 m -8.09747,21.622539 -3.81835,-2.433629 0.97269,-1.529058 3.8179,2.433622 -0.97224,1.529065 m 7.63579,4.86815 -3.81789,-2.43408 0.97224,-1.52906 3.81789,2.43408 -0.97224,1.52906 m 7.63625,4.86815 -3.8179,-2.43408 0.97224,-1.52905 3.8179,2.43407 -0.97224,1.52906"
         style="fill:#c1253b;fill-opacity:1;fill-rule:nonzero;stroke:none"
         id="path130"
         inkscape:connector-curvature="0" /><path
         d="m 238.33141,111.3554 c -0.005,0 -0.0104,0 -0.0158,0 l 0,12.22975 c 0.005,0 0.0104,0 0.0158,0 2.33465,0 4.58736,0.35258 6.70746,1.00744 l 0,-7.8805 c 0,-3.70935 -3.00317,-5.35669 -6.70746,-5.35669"
         style="fill:#cea752;fill-opacity:1;fill-rule:nonzero;stroke:none"
         id="path132"
         inkscape:connector-curvature="0" /><path
         d="m 245.72007,94.048585 -3.37115,0 2.82574,1.801424 0.97224,-1.529058 -0.42683,-0.272366 m 4.24518,2.706442 -0.97269,1.529058 3.81835,2.433625 0.97224,-1.529061 -3.8179,-2.433622 m 7.6358,4.867693 -0.97224,1.52906 3.81789,2.43408 0.97224,-1.52906 -3.81789,-2.43408 m 7.63624,4.86816 -0.97224,1.52905 3.8179,2.43408 0.97224,-1.52906 -3.8179,-2.43407"
         style="fill:#d5d5d3;fill-opacity:1;fill-rule:nonzero;stroke:none"
         id="path134"
         inkscape:connector-curvature="0" /><path
         d="m 260.95138,144.17124 c 0,9e-4 0,4.5e-4 0,10e-4 l 0,-10e-4 m 0.003,0.0285 c 0,0.001 0,0.003 4.5e-4,0.004 -4.5e-4,-0.002 -4.5e-4,-0.002 -4.5e-4,-0.004 m 0.0104,0.11466 c 0,0.001 0,0.005 4.5e-4,0.006 -4.5e-4,-0.002 -4.5e-4,-0.004 -4.5e-4,-0.006 m 0.002,0.0294 c 4.5e-4,0.002 4.5e-4,0.006 9.1e-4,0.008 -4.6e-4,-0.002 -4.6e-4,-0.006 -9.1e-4,-0.008 m 0.003,0.0313 c 4.5e-4,0.002 4.5e-4,0.005 9e-4,0.008 -4.5e-4,-0.003 -4.5e-4,-0.005 -9e-4,-0.008 m 0.007,0.0834 c 4.5e-4,0.002 9e-4,0.006 9e-4,0.008 0,-0.002 -4.5e-4,-0.006 -9e-4,-0.008 m 0.003,0.0304 c 0,0.003 4.5e-4,0.007 9.1e-4,0.01 -4.6e-4,-0.003 -9.1e-4,-0.006 -9.1e-4,-0.01 m 0.003,0.0322 c 0,0.002 4.5e-4,0.006 4.5e-4,0.008 0,-0.003 -4.5e-4,-0.005 -4.5e-4,-0.008 m 0.002,0.0317 0,9.1e-4 0,-9.1e-4 m 0.004,0.053 c 0,0.002 4.6e-4,0.005 4.6e-4,0.007 0,-0.003 -4.6e-4,-0.005 -4.6e-4,-0.007 m 0.002,0.0281 c 0,0.004 4.5e-4,0.008 4.5e-4,0.0113 0,-0.004 -4.5e-4,-0.007 -4.5e-4,-0.0113 m 0.002,0.0313 c 0,0.005 4.5e-4,0.009 9.1e-4,0.0136 -4.6e-4,-0.005 -9.1e-4,-0.009 -9.1e-4,-0.0136 m 0.002,0.0326 c 0,0.004 4.6e-4,0.008 9.1e-4,0.0118 -4.5e-4,-0.004 -9.1e-4,-0.008 -9.1e-4,-0.0118 m 0.004,0.0539 c 0,0.002 4.6e-4,0.005 4.6e-4,0.008 0,-0.003 -4.6e-4,-0.005 -4.6e-4,-0.008 m 0.002,0.0267 c 4.5e-4,0.005 4.5e-4,0.009 9e-4,0.0136 0,-0.004 -4.5e-4,-0.01 -9e-4,-0.0136 m 0.002,0.0326 c 4.5e-4,0.005 4.5e-4,0.009 9e-4,0.0136 -4.5e-4,-0.005 -4.5e-4,-0.009 -9e-4,-0.0136 m 0.002,0.0326 c 0,0.005 4.5e-4,0.009 4.5e-4,0.0131 0,-0.004 -4.5e-4,-0.009 -4.5e-4,-0.0131 m 0.002,0.0344 c 9.1e-4,0.009 0.001,0.019 0.002,0.0281 -4.5e-4,-0.009 -9e-4,-0.019 -0.002,-0.0281 m 0.003,0.044 c 0,0.005 4.5e-4,0.0113 9.1e-4,0.0168 -4.6e-4,-0.005 -9.1e-4,-0.0113 -9.1e-4,-0.0168 m 0.002,0.034 c 4.5e-4,0.005 4.5e-4,0.0109 9.1e-4,0.0159 -4.6e-4,-0.005 -4.6e-4,-0.0104 -9.1e-4,-0.0159 m 0.002,0.0335 c 4.5e-4,0.005 9.1e-4,0.0104 9.1e-4,0.0149 0,-0.005 -4.6e-4,-0.0104 -9.1e-4,-0.0149 m 0.002,0.0326 c 0,0.005 4.6e-4,0.0109 9.1e-4,0.0159 -4.5e-4,-0.005 -9.1e-4,-0.01 -9.1e-4,-0.0159 m 0.002,0.0462 c 4.5e-4,0.005 9e-4,0.0118 9e-4,0.0168 0,-0.005 -4.5e-4,-0.0109 -9e-4,-0.0168 m 0.002,0.0335 c 4.5e-4,0.006 9e-4,0.0104 9e-4,0.0168 0,-0.005 -4.5e-4,-0.0109 -9e-4,-0.0168 m 0.002,0.0331 c 4.5e-4,0.005 4.5e-4,0.0113 9e-4,0.0168 -4.5e-4,-0.005 -4.5e-4,-0.0109 -9e-4,-0.0168 m 0.002,0.0335 c 0,0.005 4.5e-4,0.0118 9e-4,0.0168 -4.5e-4,-0.005 -4.5e-4,-0.0109 -9e-4,-0.0168 m 0.002,0.0331 c 4.5e-4,0.0104 9e-4,0.0199 10e-4,0.0304 -4.6e-4,-0.0104 -9.1e-4,-0.0199 -10e-4,-0.0304 m 0.002,0.0453 c 4.5e-4,0.006 9.1e-4,0.0127 9.1e-4,0.0186 0,-0.006 -4.6e-4,-0.0122 -9.1e-4,-0.0186 m 0.002,0.034 c 0,0.006 4.5e-4,0.0122 9.1e-4,0.0181 -4.6e-4,-0.006 -9.1e-4,-0.0118 -9.1e-4,-0.0181 m 10e-4,0.0335 c 4.5e-4,0.007 4.5e-4,0.0136 9e-4,0.0204 -4.5e-4,-0.007 -4.5e-4,-0.0136 -9e-4,-0.0204 m 0.001,0.0331 c 4.5e-4,0.0113 9e-4,0.0213 10e-4,0.0326 -4.5e-4,-0.0104 -9e-4,-0.0222 -10e-4,-0.0326 m 0.002,0.0403 c 4.5e-4,0.008 4.5e-4,0.0168 9e-4,0.0249 -4.5e-4,-0.009 -4.5e-4,-0.0163 -9e-4,-0.0249 m 0.001,0.039 c 4.6e-4,0.007 9.1e-4,0.0127 9.1e-4,0.0199 0,-0.006 -4.5e-4,-0.014 -9.1e-4,-0.0199 m 10e-4,0.034 c 4.6e-4,0.007 4.6e-4,0.0145 9.1e-4,0.0213 -4.5e-4,-0.007 -4.5e-4,-0.0145 -9.1e-4,-0.0213 m 0.001,0.0331 c 4.5e-4,0.009 9.1e-4,0.0186 9.1e-4,0.0276 -4.6e-4,-0.009 -4.6e-4,-0.0186 -9.1e-4,-0.0276 m 10e-4,0.0335 c 4.5e-4,0.0118 4.5e-4,0.0218 9e-4,0.0331 -4.5e-4,-0.0113 -4.5e-4,-0.0217 -9e-4,-0.0331 m 10e-4,0.0444 c 0,0.007 4.5e-4,0.0154 9e-4,0.0222 -4.5e-4,-0.007 -4.5e-4,-0.0145 -9e-4,-0.0222 m 9e-4,0.0354 c 4.5e-4,0.007 4.5e-4,0.0145 9.1e-4,0.0222 -4.6e-4,-0.008 -4.6e-4,-0.015 -9.1e-4,-0.0222 m 0.001,0.0335 c 0,0.008 4.5e-4,0.0163 4.5e-4,0.0249 0,-0.008 -4.5e-4,-0.0168 -4.5e-4,-0.0249 m 9e-4,0.034 c 4.6e-4,0.0109 4.6e-4,0.0222 9.1e-4,0.0331 -4.5e-4,-0.0113 -4.5e-4,-0.0217 -9.1e-4,-0.0331 m 9.1e-4,0.0426 c 4.5e-4,0.008 4.5e-4,0.0159 9.1e-4,0.024 -4.6e-4,-0.008 -4.6e-4,-0.0159 -9.1e-4,-0.024 m 0.001,0.0367 c 0,0.008 0,0.0145 4.5e-4,0.0222 -4.5e-4,-0.008 -4.5e-4,-0.0149 -4.5e-4,-0.0222 m 4.5e-4,0.034 c 4.5e-4,0.008 4.5e-4,0.0159 9.1e-4,0.024 -4.6e-4,-0.008 -4.6e-4,-0.0163 -9.1e-4,-0.024 m 9.1e-4,0.0335 c 4.5e-4,0.0231 9e-4,0.0453 10e-4,0.068 -4.5e-4,-0.0231 -9e-4,-0.0449 -10e-4,-0.068 m 0.002,0.0779 c 0,0.008 0,0.0163 4.5e-4,0.0245 -4.5e-4,-0.008 -4.5e-4,-0.0163 -4.5e-4,-0.0245 m 4.5e-4,0.0349 c 0,0.009 4.5e-4,0.0159 4.5e-4,0.0245 0,-0.008 -4.5e-4,-0.0163 -4.5e-4,-0.0245 m 4.5e-4,0.0349 c 4.5e-4,0.01 4.5e-4,0.0204 4.5e-4,0.0304 0,-0.0104 0,-0.0195 -4.5e-4,-0.0304 m 4.5e-4,0.0335 c 4.6e-4,0.0118 4.6e-4,0.0227 4.6e-4,0.034 0,-0.0113 0,-0.0227 -4.6e-4,-0.034 m 9.1e-4,0.044 c 0,0.009 0,0.0163 0,0.0245 0,-0.008 0,-0.0163 0,-0.0245 m 4.5e-4,0.0353 c 0,0.008 0,0.0159 0,0.0236 0,-0.008 0,-0.0159 0,-0.0236 m 0,0.0353 c 4.5e-4,0.009 4.5e-4,0.0172 4.5e-4,0.0258 0,-0.008 0,-0.0177 -4.5e-4,-0.0258 m 4.5e-4,0.0335 c 0,0.0104 0,0.0231 4.6e-4,0.034 -4.6e-4,-0.0113 -4.6e-4,-0.0231 -4.6e-4,-0.034 m 4.6e-4,0.0412 c 0,0.009 0,0.0186 0,0.0267 0,-0.009 0,-0.0177 0,-0.0267 m 0,0.0381 c 0,0.008 0,0.0149 0,0.0227 0,-0.008 0,-0.0154 0,-0.0227 m 0,0.0349 c 0,0.007 0,0.0163 0,0.0231 0,-0.007 0,-0.0154 0,-0.0231 m 0,0.0344 c 4.5e-4,0.0113 4.5e-4,0.0222 4.5e-4,0.0335 l 0,6.80689 c 3.93422,0 7.12478,3.19408 7.12478,7.1341 l 0,0 c 0,-3.94002 -3.19056,-7.1341 -7.12478,-7.1341 l 0,-6.80689 c 0,-0.0113 0,-0.0222 -4.5e-4,-0.0335 m 7.12523,13.97453 c 0,0.007 0,0.0136 0,0.0208 0,-0.007 0,-0.014 0,-0.0208 m 0,0.0272 c 0,0.005 -4.5e-4,0.01 -4.5e-4,0.0149 0,-0.005 4.5e-4,-0.01 4.5e-4,-0.0149 m -4.5e-4,0.0217 c 0,0.005 0,0.0113 0,0.0168 0,-0.005 0,-0.0113 0,-0.0168 m 0,0.0208 c 0,0.007 0,0.0131 -4.5e-4,0.0199 4.5e-4,-0.007 4.5e-4,-0.0131 4.5e-4,-0.0199 m -4.5e-4,0.0281 c 0,0.004 0,0.009 0,0.0131 0,-0.005 0,-0.009 0,-0.0131 m 0,0.0213 c -4.6e-4,0.005 -4.6e-4,0.009 -4.6e-4,0.0127 0,-0.004 0,-0.008 4.6e-4,-0.0127 m -4.6e-4,0.0208 c -4.5e-4,0.006 -4.5e-4,0.0127 -4.5e-4,0.019 0,-0.006 0,-0.0127 4.5e-4,-0.019 m -9e-4,0.029 c 0,0.003 0,0.006 0,0.01 0,-0.003 0,-0.006 0,-0.01 m -4.6e-4,0.0217 c 0,0.002 0,0.005 0,0.007 0,-0.002 0,-0.005 0,-0.007 m -4.5e-4,0.0204 c 0,4.6e-4 0,0.002 0,0.002 0,-9.1e-4 0,-0.001 0,-0.002 m -10e-4,0.0349 0,4.5e-4 c 0,0 0,0 0,-4.5e-4 m -4.5e-4,0.0172 c 0,4.5e-4 0,9.1e-4 0,10e-4 0,-4.5e-4 0,-9.1e-4 0,-10e-4"
         style="fill:#33818e;fill-opacity:1;fill-rule:nonzero;stroke:none"
         id="path136"
         inkscape:connector-curvature="0" /><path
         d="m 238.31557,192.97194 0.0158,0 c -0.005,0 -0.0104,0 -0.0158,0"
         style="fill:#50abac;fill-opacity:1;fill-rule:nonzero;stroke:none"
         id="path138"
         inkscape:connector-curvature="0" /><path
         d="m 263.65808,166.91586 c -0.77897,0.30681 -1.62447,0.47993 -2.50935,0.49171 l 0,0.35984 0.48385,1.80233 c 0,14.16576 -10.75303,18.33465 -23.30117,18.33465 -0.005,0 -0.0104,0 -0.0158,0 l 0,5.06755 c 0.005,0 0.0109,0 0.0158,0 l 0,0 c 13.98749,0 25.32667,-5.17088 25.32667,-19.17486 l 0,-6.88122"
         style="fill:#45383c;fill-opacity:1;fill-rule:nonzero;stroke:none"
         id="path140"
         inkscape:connector-curvature="0" /><path
         d="m 238.33141,123.58515 c -0.005,0 -0.0104,0 -0.0158,0 l 0,50.39683 c 2.72752,-0.93176 5.6705,-1.72755 8.61392,-2.15763 0,0 0.22586,2.03799 -1.58328,5.66168 0,0 6.15706,-7.24784 12.98402,-9.48297 l 0,-1.13433 c -2.58495,-1.07043 -4.4036,-3.62007 -4.4036,-6.59434 0,-3.94002 3.19056,-7.1341 7.12614,-7.1341 l 0,-6.80689 c 0,-0.0113 0,-0.0222 -4.5e-4,-0.0335 0,-0.004 0,-0.008 0,-0.0113 0,-0.007 0,-0.0159 0,-0.0231 0,-0.004 0,-0.008 0,-0.0122 0,-0.008 0,-0.015 0,-0.0227 0,-0.004 0,-0.007 0,-0.0113 0,-0.008 0,-0.0181 0,-0.0267 0,-0.002 0,-0.005 0,-0.007 -4.6e-4,-0.0109 -4.6e-4,-0.0236 -4.6e-4,-0.034 0,-0.003 0,-0.005 0,-0.008 0,-0.009 0,-0.0172 -4.5e-4,-0.0258 0,-0.004 0,-0.008 0,-0.0118 0,-0.008 0,-0.0159 0,-0.0236 -4.5e-4,-0.004 -4.5e-4,-0.007 -4.5e-4,-0.0109 0,-0.008 0,-0.0159 0,-0.0245 0,-0.004 -4.5e-4,-0.006 -4.5e-4,-0.01 0,-0.0113 0,-0.0222 -4.6e-4,-0.034 0,-4.6e-4 0,-0.002 0,-0.003 0,-0.01 0,-0.0204 -4.5e-4,-0.0304 0,-0.003 0,-0.008 0,-0.0104 0,-0.009 -4.5e-4,-0.0159 -4.5e-4,-0.0245 0,-0.004 0,-0.006 0,-0.0104 -4.5e-4,-0.008 -4.5e-4,-0.0163 -4.5e-4,-0.0245 -4.6e-4,-0.003 -4.6e-4,-0.007 -4.6e-4,-0.01 -4.5e-4,-0.0227 -9e-4,-0.0449 -10e-4,-0.068 0,-0.003 0,-0.006 0,-0.01 -4.6e-4,-0.008 -4.6e-4,-0.0159 -9.1e-4,-0.024 0,-0.004 0,-0.008 0,-0.0118 -4.5e-4,-0.008 -4.5e-4,-0.0145 -4.5e-4,-0.0222 -4.5e-4,-0.005 -4.5e-4,-0.008 -4.5e-4,-0.0127 -4.6e-4,-0.008 -4.6e-4,-0.0159 -9.1e-4,-0.024 0,-0.003 0,-0.006 0,-0.01 -4.5e-4,-0.0109 -4.5e-4,-0.0222 -9.1e-4,-0.0331 0,-0.003 0,-0.006 -4.5e-4,-0.009 0,-0.009 -4.5e-4,-0.0168 -4.5e-4,-0.0249 -4.5e-4,-0.004 -4.5e-4,-0.008 -4.5e-4,-0.0113 -4.6e-4,-0.008 -4.6e-4,-0.015 -9.1e-4,-0.0222 0,-0.005 0,-0.009 0,-0.0131 -4.5e-4,-0.007 -9e-4,-0.0154 -9e-4,-0.0222 0,-0.004 -4.6e-4,-0.008 -4.6e-4,-0.0113 -4.5e-4,-0.0113 -4.5e-4,-0.0213 -9e-4,-0.0331 0,-0.002 -4.5e-4,-0.004 -4.5e-4,-0.006 0,-0.009 -4.6e-4,-0.0186 -9.1e-4,-0.0276 0,-0.005 -4.5e-4,-0.008 -4.5e-4,-0.0118 -4.5e-4,-0.007 -4.5e-4,-0.0145 -9.1e-4,-0.0213 0,-0.005 0,-0.01 -4.5e-4,-0.014 0,-0.007 -4.5e-4,-0.0131 -9.1e-4,-0.0199 0,-0.005 0,-0.009 -4.5e-4,-0.014 -4.5e-4,-0.008 -4.5e-4,-0.0168 -9e-4,-0.0249 0,-0.003 0,-0.005 -4.6e-4,-0.008 -4.5e-4,-0.0113 -9e-4,-0.0213 -10e-4,-0.0326 0,-0.005 -4.6e-4,-0.008 -4.6e-4,-0.0127 -4.5e-4,-0.007 -4.5e-4,-0.0136 -9e-4,-0.0204 0,-0.005 -4.5e-4,-0.0104 -4.5e-4,-0.0154 -4.6e-4,-0.006 -9.1e-4,-0.0118 -9.1e-4,-0.0181 -4.5e-4,-0.005 -4.5e-4,-0.0104 -9e-4,-0.0154 0,-0.006 -4.6e-4,-0.0122 -9.1e-4,-0.0186 0,-0.005 -4.5e-4,-0.01 -4.5e-4,-0.015 -4.6e-4,-0.0104 -9.1e-4,-0.0199 -0.001,-0.0304 -4.5e-4,-0.005 -9.1e-4,-0.0104 -9.1e-4,-0.0163 -4.5e-4,-0.005 -9e-4,-0.0113 -9e-4,-0.0168 -4.5e-4,-0.005 -4.5e-4,-0.0113 -9.1e-4,-0.0168 -4.5e-4,-0.005 -4.5e-4,-0.0113 -9e-4,-0.0168 -4.5e-4,-0.005 -4.5e-4,-0.0109 -9.1e-4,-0.0163 0,-0.006 -4.5e-4,-0.0104 -9e-4,-0.0168 0,-0.005 -4.5e-4,-0.0113 -9.1e-4,-0.0168 0,-0.005 -4.5e-4,-0.0113 -9e-4,-0.0168 -4.6e-4,-0.01 -9.1e-4,-0.0204 -0.001,-0.0304 -4.5e-4,-0.005 -9.1e-4,-0.0104 -9.1e-4,-0.0159 -4.5e-4,-0.006 -9e-4,-0.0113 -10e-4,-0.0177 0,-0.005 -4.6e-4,-0.0104 -9.1e-4,-0.0149 0,-0.006 -4.5e-4,-0.0118 -9e-4,-0.0177 -4.6e-4,-0.005 -4.6e-4,-0.0104 -9.1e-4,-0.0159 -4.5e-4,-0.005 -4.5e-4,-0.0118 -9e-4,-0.0172 -4.6e-4,-0.005 -9.1e-4,-0.0113 -9.1e-4,-0.0168 -4.5e-4,-0.005 -9.1e-4,-0.0104 -10e-4,-0.0159 -4.5e-4,-0.009 -9e-4,-0.019 -0.002,-0.0281 -4.5e-4,-0.007 -4.5e-4,-0.014 -10e-4,-0.0213 0,-0.005 -4.5e-4,-0.009 -4.5e-4,-0.0131 -4.5e-4,-0.006 -9e-4,-0.0127 -0.001,-0.019 -4.5e-4,-0.005 -4.5e-4,-0.009 -9e-4,-0.0136 -4.5e-4,-0.006 -9.1e-4,-0.0127 -10e-4,-0.019 -4.5e-4,-0.005 -4.5e-4,-0.009 -9e-4,-0.0136 -4.6e-4,-0.007 -9.1e-4,-0.0122 -0.001,-0.019 0,-0.002 -4.6e-4,-0.005 -4.6e-4,-0.008 -9e-4,-0.014 -0.002,-0.0281 -0.003,-0.0421 -4.5e-4,-0.004 -9.1e-4,-0.008 -9.1e-4,-0.0118 -4.5e-4,-0.006 -9e-4,-0.0127 -10e-4,-0.019 -4.6e-4,-0.005 -9.1e-4,-0.009 -9.1e-4,-0.0136 -4.5e-4,-0.007 -9e-4,-0.0131 -0.002,-0.0199 0,-0.004 -4.5e-4,-0.007 -4.5e-4,-0.0113 -9.1e-4,-0.006 -0.001,-0.014 -0.002,-0.0208 0,-0.002 -4.6e-4,-0.005 -4.6e-4,-0.007 -10e-4,-0.0177 -0.003,-0.0344 -0.004,-0.0521 l 0,-9.1e-4 c -4.5e-4,-0.008 -0.001,-0.0159 -0.002,-0.0236 0,-0.002 -4.5e-4,-0.006 -4.5e-4,-0.008 -9.1e-4,-0.008 -10e-4,-0.0145 -0.002,-0.0227 -4.6e-4,-0.003 -9.1e-4,-0.006 -9.1e-4,-0.01 -4.5e-4,-0.007 -0.001,-0.0149 -0.002,-0.0222 0,-0.002 -4.5e-4,-0.006 -9e-4,-0.008 -0.002,-0.0258 -0.004,-0.0503 -0.006,-0.0757 -4.5e-4,-0.002 -4.5e-4,-0.005 -9e-4,-0.008 -4.6e-4,-0.008 -10e-4,-0.0149 -0.002,-0.0231 -4.6e-4,-0.002 -4.6e-4,-0.006 -9.1e-4,-0.008 -4.5e-4,-0.008 -10e-4,-0.0154 -0.002,-0.0236 -4.5e-4,-0.001 -4.5e-4,-0.005 -4.5e-4,-0.006 -0.004,-0.0367 -0.007,-0.0739 -0.01,-0.11058 -4.5e-4,-0.001 -4.5e-4,-0.003 -4.5e-4,-0.004 -9.1e-4,-0.01 -0.002,-0.0181 -0.003,-0.0272 0,-9.1e-4 0,-4.6e-4 0,-0.001 -0.87266,-9.26816 -7.29995,-16.91662 -15.91251,-19.57775 l 0,-9e-4 c -2.1201,-0.65486 -4.37281,-1.00744 -6.70746,-1.00744"
         style="fill:#cea752;fill-opacity:1;fill-rule:nonzero;stroke:none"
         id="path142"
         inkscape:connector-curvature="0" /><path
         d="m 261.05277,153.14029 0,0 c -3.93558,0 -7.12614,3.19408 -7.12614,7.1341 0,2.97427 1.81865,5.52391 4.4036,6.59434 l 0,-9.28855 c 0,-0.57646 0.63096,-1.04279 1.40947,-1.04279 0.77807,0 1.40903,0.46633 1.40903,1.04279 l 0,9.82739 c 0.88488,-0.0118 1.73038,-0.1849 2.50935,-0.49171 l 0,-0.007 c 2.56684,-1.01151 4.40858,-3.46644 4.51449,-6.36956 0,-4.5e-4 0,-9.1e-4 0,-0.001 4.5e-4,-0.005 4.5e-4,-0.0113 4.5e-4,-0.0168 l 0,-4.5e-4 c 4.6e-4,-0.0109 9.1e-4,-0.0218 10e-4,-0.0326 0,-4.5e-4 0,-0.002 0,-0.002 0,-0.005 0,-0.009 4.5e-4,-0.0131 0,-0.002 0,-0.005 0,-0.007 0,-0.004 4.6e-4,-0.008 4.6e-4,-0.0122 0,-0.003 0,-0.006 0,-0.01 4.5e-4,-0.003 4.5e-4,-0.007 4.5e-4,-0.01 0,-0.006 0,-0.0127 4.5e-4,-0.019 0,-0.003 0,-0.005 0,-0.008 0,-0.004 0,-0.008 4.6e-4,-0.0127 0,-0.003 0,-0.005 0,-0.008 0,-0.005 0,-0.009 0,-0.0131 0,-0.003 0,-0.005 0,-0.008 4.5e-4,-0.007 4.5e-4,-0.0131 4.5e-4,-0.0199 0,-0.001 0,-0.003 0,-0.004 0,-0.005 0,-0.0113 0,-0.0168 0,-0.002 0,-0.005 0,-0.007 0,-0.005 4.5e-4,-0.01 4.5e-4,-0.0149 0,-0.002 0,-0.005 0,-0.006 0,-0.007 0,-0.014 0,-0.0208 l 0,0 c 0,-3.94002 -3.19056,-7.1341 -7.12478,-7.1341"
         style="fill:#cea752;fill-opacity:1;fill-rule:nonzero;stroke:none"
         id="path144"
         inkscape:connector-curvature="0" /><path
         d="m 373.80642,261.24932 0,5.73192 c 0,0.57601 -0.63096,1.04279 -1.40903,1.04279 -0.77851,0 -1.40947,-0.46678 -1.40947,-1.04279 l 0,-5.49627 c -6.82696,2.23513 -12.98402,9.48297 -12.98402,9.48297 1.80914,-3.62369 1.58328,-5.66168 1.58328,-5.66168 -2.94342,0.43008 -5.8864,1.22587 -8.61392,2.15763 l 0,13.92241 c 0.005,0 0.0104,0 0.0158,0 12.54814,0 23.30117,-4.16889 23.30117,-18.33465 l -0.48385,-1.80233"
         style="fill:#45383c;fill-opacity:1;fill-rule:nonzero;stroke:none"
         id="path146"
         inkscape:connector-curvature="0" /><path
         d="m 259.7397,156.53739 c -0.77851,0 -1.40947,0.46633 -1.40947,1.04279 l 0,15.91915 c 0,0.57601 0.63096,1.04279 1.40947,1.04279 0.77807,0 1.40903,-0.46678 1.40903,-1.04279 l 0,-15.91915 c 0,-0.57646 -0.63096,-1.04279 -1.40903,-1.04279"
         style="fill:#45383c;fill-opacity:1;fill-rule:nonzero;stroke:none"
         id="path148"
         inkscape:connector-curvature="0" /><path
         d="m 258.70364,80.698557 c -0.45624,2.468518 -2.88277,2.954336 -5.80719,2.954336 -0.60153,0 -1.1818,-0.02085 -1.72812,-0.07478 l 0.72963,7.694688 -0.0914,0 c 0.0593,0.197137 0.0914,0.40651 0.0914,0.623134 0,0.154537 -0.0163,0.304996 -0.0471,0.450016 1.02203,1.188714 2.39484,1.70263 3.42728,1.70263 0.53772,0 0.98356,-0.139582 1.23929,-0.395634 4.5e-4,-4.53e-4 4.5e-4,-4.53e-4 9.1e-4,-9.06e-4 -0.25212,-0.148193 -0.50016,-0.348955 -0.71787,-0.6254 -0.90525,-1.148833 -2.164,-3.414776 0.0874,-5.265145 l 4.5e-4,-4.53e-4 0,0 c -0.56804,2.279085 1.38504,4.835975 0.70474,5.80172 0.7853,-1.113485 -1.92004,-4.332936 -0.24985,-6.820941 1.66657,-2.482567 2.19388,-4.816035 2.36044,-6.043269 m -2.11104,12.865569 c -10e-4,0.0014 -0.002,0.0027 -0.003,0.0041 9e-4,-0.0014 0.002,-0.0027 0.003,-0.0041 m -0.005,0.0063 c -9.1e-4,0.0014 -0.002,0.0027 -0.003,0.0036 10e-4,-0.0014 0.002,-0.0023 0.003,-0.0036 m -0.005,0.0063 c -4.5e-4,4.54e-4 -9e-4,0.0014 -10e-4,0.0018 4.6e-4,-4.53e-4 9.1e-4,-9.06e-4 10e-4,-0.0018 m -0.005,0.0068 c -4.5e-4,4.53e-4 -4.5e-4,4.53e-4 -4.5e-4,9.07e-4 0,-4.54e-4 0,-4.54e-4 4.5e-4,-9.07e-4 m -0.0376,0.04487 0,0 m -0.008,0.0091 c -4.6e-4,4.53e-4 -9.1e-4,9.06e-4 -0.001,0.0014 4.5e-4,-4.53e-4 9e-4,-9.06e-4 0.001,-0.0014 m -0.005,0.0054 c -4.6e-4,9.06e-4 -0.001,0.0018 -0.002,0.0027 9.1e-4,-9.06e-4 0.002,-0.0018 0.002,-0.0027 m -0.005,0.005 c -9.1e-4,9.06e-4 -0.002,0.0023 -0.003,0.0032 9.1e-4,-9.06e-4 0.002,-0.0023 0.003,-0.0032"
         style="fill:#cea752;fill-opacity:1;fill-rule:nonzero;stroke:none"
         id="path150"
         inkscape:connector-curvature="0" /><path
         d="m 247.5858,61.76035 -9.27023,0 0,1.673943 4.81187,0 c 0.048,-0.02175 0.0973,-0.0416 0.14755,-0.05928 l 4.56292,-1.595723 c 0,0 0,0 -4.5e-4,0 l -0.014,0.0049 c -0.0783,-0.01133 -0.15661,-0.02388 -0.23763,-0.02388 l 0,0"
         style="fill:#464651;fill-opacity:1;fill-rule:nonzero;stroke:none"
         id="path152"
         inkscape:connector-curvature="0" /><path
         d="m 243.12744,63.434293 -4.81187,0 0,26.309001 11.43242,0 c 0.97088,0 1.79149,0.644434 2.05854,1.529511 l 0.0914,0 -0.72963,-7.694688 c -0.13896,-0.0136 -0.2752,-0.02946 -0.40917,-0.04759 l -5.89817,2.062914 c -0.18874,0.06617 -0.38292,0.09789 -0.57619,0.09789 -0.89077,0 -1.77429,-0.668 -2.13458,-1.698551 -0.43815,-1.255785 0.0656,-2.571845 1.12477,-2.943006 l 3.73733,-1.307449 0,-0.79308 -2.15133,0.752746 c -0.18874,0.06616 -0.38292,0.09744 -0.57619,0.09744 -0.89077,0 -1.77429,-0.667546 -2.13458,-1.698097 -0.43815,-1.255785 0.0656,-2.571846 1.12477,-2.943415 l 3.73733,-1.306996 0,-0.79308 -2.15133,0.752701 c -0.18874,0.06621 -0.38292,0.09757 -0.57619,0.09757 -0.89077,0 -1.77429,-0.668135 -2.13458,-1.698233 -0.43815,-1.255831 0.0656,-2.571845 1.12477,-2.943414 l 3.73733,-1.306996 0,-0.79308 -2.15133,0.752701 c -0.18874,0.06621 -0.38292,0.09757 -0.57619,0.09757 -0.89077,0 -1.77429,-0.668136 -2.13458,-1.698233 -0.41732,-1.19601 0.0199,-2.446674 0.97722,-2.884137"
         style="fill:#464651;fill-opacity:1;fill-rule:nonzero;stroke:none"
         id="path154"
         inkscape:connector-curvature="0" /><path
         d="m 249.74799,89.743294 -11.43242,0 0,4.305291 11.43242,0 c 1.03289,0 1.89605,-0.729634 2.1029,-1.70263 0.0308,-0.14502 0.0471,-0.295479 0.0471,-0.450016 0,-0.216624 -0.0321,-0.425997 -0.0914,-0.623134 -0.26705,-0.885077 -1.08766,-1.529511 -2.05854,-1.529511 m -0.89303,2.775779 c -0.34354,0 -0.62236,-0.278711 -0.62236,-0.623134 0,-0.344423 0.27882,-0.623134 0.62236,-0.623134 0.344,0 0.62236,0.278711 0.62236,0.623134 0,0.344423 -0.27836,0.623134 -0.62236,0.623134 m -2.37628,0 c -0.344,0 -0.62236,-0.278711 -0.62236,-0.623134 0,-0.344423 0.27836,-0.623134 0.62236,-0.623134 0.34399,0 0.62236,0.278711 0.62236,0.623134 0,0.344423 -0.27837,0.623134 -0.62236,0.623134 m -2.37629,0 c -0.34354,0 -0.62236,-0.278711 -0.62236,-0.623134 0,-0.344423 0.27882,-0.623134 0.62236,-0.623134 0.344,0 0.62236,0.278711 0.62236,0.623134 0,0.344423 -0.27836,0.623134 -0.62236,0.623134"
         style="fill:#35333c;fill-opacity:1;fill-rule:nonzero;stroke:none"
         id="path156"
         inkscape:connector-curvature="0" /><path
         d="m 244.10239,91.272805 c -0.34354,0 -0.62236,0.278711 -0.62236,0.623134 0,0.344423 0.27882,0.623134 0.62236,0.623134 0.344,0 0.62236,-0.278711 0.62236,-0.623134 0,-0.344423 -0.27836,-0.623134 -0.62236,-0.623134"
         style="fill:#201c21;fill-opacity:1;fill-rule:nonzero;stroke:none"
         id="path158"
         inkscape:connector-curvature="0" /><path
         d="m 246.47868,91.272805 c -0.344,0 -0.62236,0.278711 -0.62236,0.623134 0,0.344423 0.27836,0.623134 0.62236,0.623134 0.34399,0 0.62236,-0.278711 0.62236,-0.623134 0,-0.344423 -0.27837,-0.623134 -0.62236,-0.623134"
         style="fill:#201c21;fill-opacity:1;fill-rule:nonzero;stroke:none"
         id="path160"
         inkscape:connector-curvature="0" /><path
         d="m 248.85496,91.272805 c -0.34354,0 -0.62236,0.278711 -0.62236,0.623134 0,0.344423 0.27882,0.623134 0.62236,0.623134 0.344,0 0.62236,-0.278711 0.62236,-0.623134 0,-0.344423 -0.27836,-0.623134 -0.62236,-0.623134"
         style="fill:#201c21;fill-opacity:1;fill-rule:nonzero;stroke:none"
         id="path162"
         inkscape:connector-curvature="0" /><path
         d="m 252.89645,60.624161 0,0 c -0.31502,0 -0.6219,0.03118 -0.92335,0.07967 0.69116,0.205339 1.3108,0.796297 1.59731,1.618925 0.0516,0.147649 0.0901,0.295796 0.11633,0.443626 0.90118,-0.714678 1.92547,-1.285197 3.05205,-1.650965 l 0.002,-4.99e-4 0,0 -0.002,4.99e-4 -0.004,0.0013 c -1.02248,-0.396041 -2.34867,-0.491256 -3.80341,-0.492525 -9.1e-4,0 -0.002,0 -0.003,0 -0.0109,0 -0.0217,0 -0.0321,0 l 0,0 m -1.82272,5.121937 -4.06141,1.420293 0,0.79308 3.52641,-1.233534 c 0.16159,-0.333184 0.34037,-0.66084 0.535,-0.979839 m -1.60184,6.451547 -2.45957,0.860197 0,0.79308 2.57544,-0.900893 c -0.0507,-0.246626 -0.0892,-0.497647 -0.11587,-0.752384 m 1.93769,5.213935 -4.39726,1.537669 0,0.79308 3.84822,-1.34597 c 0.1892,-0.06617 0.38338,-0.09789 0.57665,-0.09789 0.25121,0 0.50151,0.05302 0.73959,0.152271 -0.2761,-0.314059 -0.53093,-0.662561 -0.7672,-1.039161 m 1.90555,2.043427 c 0.10139,0.166774 0.18784,0.348049 0.25528,0.542014 0.43815,1.253972 -0.0647,2.572298 -1.12386,2.943006 l -1.68739,0.590505 c 0.13397,0.01813 0.27021,0.03399 0.40917,0.04759 0.54632,0.05393 1.12659,0.07478 1.72812,0.07478 2.92442,0 5.35095,-0.485818 5.80719,-2.954336 0.0507,-0.274633 0.077,-0.573284 0.077,-0.898673 l 0,0 c -0.98356,0.319044 -1.8612,0.466331 -2.64605,0.466331 -1.10939,0 -2.03455,-0.293667 -2.81941,-0.811208"
         style="fill:#cea752;fill-opacity:1;fill-rule:nonzero;stroke:none"
         id="path164"
         inkscape:connector-curvature="0" /><path
         d="m 280.08975,69.197945 c -1.20443,2.353906 -3.793,4.578246 -8.47134,6.350667 l -10.71003,3.546563 0,18.447493 c 7.37056,0.301824 10.87841,3.112952 10.87841,3.112952 l 0.0326,-0.12236 4.0433,-15.320492 4.22707,-16.014823"
         style="fill:#d08b41;fill-opacity:1;fill-rule:nonzero;stroke:none"
         id="path166"
         inkscape:connector-curvature="0" /><path
         d="m 251.43719,78.29847 c -0.19327,0 -0.38745,0.03172 -0.57665,0.09789 l -3.84822,1.34597 -3.73733,1.307449 c -1.05914,0.371161 -1.56292,1.687221 -1.12477,2.943006 0.36029,1.030551 1.24381,1.698551 2.13458,1.698551 0.19327,0 0.38745,-0.03172 0.57619,-0.09789 l 5.89817,-2.062914 1.68739,-0.590505 c 1.05914,-0.370708 1.56201,-1.689034 1.12386,-2.943006 -0.0674,-0.193965 -0.15389,-0.37524 -0.25528,-0.542014 -0.41732,-0.275085 -0.79435,-0.613164 -1.13835,-1.004266 -0.23808,-0.09925 -0.48838,-0.152271 -0.73959,-0.152271 m -7.00574,6.949193 c -0.7844,0 -1.56201,-0.587785 -1.87885,-1.494616 -0.38564,-1.104873 0.17064,-2.046599 1.10305,-2.373801 l 1.15465,-0.403791 1.5516,3.688501 -1.42351,0.498055 c -0.16611,0.05801 -0.33675,0.08565 -0.50694,0.08565"
         style="fill:#cea752;fill-opacity:1;fill-rule:nonzero;stroke:none"
         id="path168"
         inkscape:connector-curvature="0" /><path
         d="m 244.8103,80.975455 -1.15465,0.403791 c -0.93241,0.327202 -1.48869,1.268928 -1.10305,2.373801 0.31684,0.906831 1.09445,1.494616 1.87885,1.494616 0.17019,0 0.34083,-0.02764 0.50694,-0.08565 l 1.42351,-0.498055 -1.5516,-3.688501"
         style="fill:#d1ccba;fill-opacity:1;fill-rule:nonzero;stroke:none"
         id="path170"
         inkscape:connector-curvature="0" /><path
         d="m 249.58776,72.950029 -2.57544,0.900893 -3.73733,1.306996 c -1.05914,0.371569 -1.56292,1.68763 -1.12477,2.943415 0.36029,1.030551 1.24381,1.698097 2.13458,1.698097 0.19327,0 0.38745,-0.03127 0.57619,-0.09744 l 2.15133,-0.752746 4.39726,-1.537669 c -0.65993,-1.052758 -1.17728,-2.32803 -1.62357,-3.707083 -0.0797,-0.246036 -0.14574,-0.497964 -0.19825,-0.754468 m -5.15631,6.406183 c -0.7844,0 -1.56201,-0.587785 -1.87885,-1.494616 -0.38564,-1.104873 0.17064,-2.0466 1.10305,-2.373712 l 1.15465,-0.404334 1.5516,3.688955 -1.42351,0.498054 c -0.16611,0.05801 -0.33675,0.08565 -0.50694,0.08565"
         style="fill:#cea752;fill-opacity:1;fill-rule:nonzero;stroke:none"
         id="path172"
         inkscape:connector-curvature="0" /><path
         d="m 244.8103,75.08355 -1.15465,0.404334 c -0.93241,0.327112 -1.48869,1.268839 -1.10305,2.373712 0.31684,0.906831 1.09445,1.494616 1.87885,1.494616 0.17019,0 0.34083,-0.02764 0.50694,-0.08565 l 1.42351,-0.498054 -1.5516,-3.688955"
         style="fill:#d1ccba;fill-opacity:1;fill-rule:nonzero;stroke:none"
         id="path174"
         inkscape:connector-curvature="0" /><path
         d="m 250.53873,66.725937 -3.52641,1.233534 -3.73733,1.306996 c -1.05914,0.371569 -1.56292,1.687583 -1.12477,2.943414 0.36029,1.030098 1.24381,1.698233 2.13458,1.698233 0.19327,0 0.38745,-0.03136 0.57619,-0.09757 l 2.15133,-0.752701 2.45957,-0.860197 c -0.18467,-1.768296 0.20685,-3.702143 1.06684,-5.471708 m -6.10728,6.738868 c -0.7844,0 -1.56201,-0.587876 -1.87885,-1.494615 -0.38564,-1.104829 0.17064,-2.0466 1.10305,-2.373757 l 1.15465,-0.404335 1.5516,3.688865 -1.42351,0.49819 c -0.16611,0.05805 -0.33675,0.08565 -0.50694,0.08565"
         style="fill:#cea752;fill-opacity:1;fill-rule:nonzero;stroke:none"
         id="path176"
         inkscape:connector-curvature="0" /><path
         d="m 244.8103,69.192098 -1.15465,0.404335 c -0.93241,0.327157 -1.48869,1.268928 -1.10305,2.373757 0.31684,0.906739 1.09445,1.494615 1.87885,1.494615 0.17019,0 0.34083,-0.0276 0.50694,-0.08565 l 1.42351,-0.49819 -1.5516,-3.688865"
         style="fill:#d1ccba;fill-opacity:1;fill-rule:nonzero;stroke:none"
         id="path178"
         inkscape:connector-curvature="0" /><path
         d="m 251.41546,60.628602 c -0.18648,0 -0.37251,0.02955 -0.55492,0.09349 l 0,0 -3.02263,1.057198 -4.56292,1.595723 c -0.0502,0.01767 -0.0996,0.03752 -0.14755,0.05928 -0.95731,0.437463 -1.39454,1.688127 -0.97722,2.884137 0.36029,1.030097 1.24381,1.698233 2.13458,1.698233 0.19327,0 0.38745,-0.03136 0.57619,-0.09757 l 2.15133,-0.752701 4.06141,-1.420293 c 0.68437,-1.124497 1.56563,-2.149111 2.61301,-2.979715 -0.0262,-0.14783 -0.0647,-0.295977 -0.11633,-0.443626 -0.28651,-0.822628 -0.90615,-1.413586 -1.59731,-1.618925 -0.007,9.06e-4 -0.0136,0.0019 -0.0204,0.0032 -0.17652,-0.05085 -0.35667,-0.07845 -0.53727,-0.07845 m -6.98401,6.944752 c -0.7844,0 -1.56201,-0.587876 -1.87885,-1.494616 -0.38564,-1.104828 0.17064,-2.046599 1.10305,-2.373756 l 1.15465,-0.404335 1.5516,3.688864 -1.42351,0.498191 c -0.16611,0.05805 -0.33675,0.08565 -0.50694,0.08565"
         style="fill:#cea752;fill-opacity:1;fill-rule:nonzero;stroke:none"
         id="path180"
         inkscape:connector-curvature="0" /><path
         d="m 244.8103,63.300647 -1.15465,0.404335 c -0.93241,0.327157 -1.48869,1.268928 -1.10305,2.373756 0.31684,0.90674 1.09445,1.494616 1.87885,1.494616 0.17019,0 0.34083,-0.0276 0.50694,-0.08565 l 1.42351,-0.498191 -1.5516,-3.688864"
         style="fill:#d1ccba;fill-opacity:1;fill-rule:nonzero;stroke:none"
         id="path182"
         inkscape:connector-curvature="0" /><path
         d="m 255.88831,87.761047 -4.5e-4,4.53e-4 c -2.25136,1.850369 -0.99261,4.116312 -0.0874,5.265145 0.21771,0.276445 0.46575,0.477207 0.71787,0.6254 l 0,0 c 4.5e-4,-4.53e-4 4.5e-4,-4.53e-4 9e-4,-9.07e-4 9.1e-4,-9.06e-4 0.002,-0.0023 0.003,-0.0032 9e-4,-9.06e-4 0.002,-0.0018 0.002,-0.0023 9.1e-4,-9.06e-4 0.002,-0.0018 0.002,-0.0027 10e-4,-0.0014 0.003,-0.0027 0.004,-0.0041 4.5e-4,-4.53e-4 9e-4,-9.06e-4 10e-4,-0.0014 0.003,-0.0027 0.005,-0.0059 0.008,-0.0091 l 0,0 c 0.0131,-0.01405 0.0254,-0.029 0.0371,-0.04396 0,-4.54e-4 0,-4.54e-4 4.5e-4,-9.07e-4 0.001,-0.0018 0.003,-0.0032 0.004,-0.005 4.6e-4,-4.53e-4 9.1e-4,-0.0014 10e-4,-0.0018 4.5e-4,-9.06e-4 0.001,-0.0018 0.002,-0.0027 9.1e-4,-9.06e-4 0.002,-0.0023 0.003,-0.0036 4.5e-4,-9.07e-4 9.1e-4,-0.0014 0.001,-0.0023 9e-4,-0.0014 0.002,-0.0027 0.003,-0.0041 0,-4.53e-4 4.5e-4,-9.06e-4 4.5e-4,-0.0014 0.6803,-0.965745 -1.27278,-3.522635 -0.70474,-5.80172"
         style="fill:#d1ccba;fill-opacity:1;fill-rule:nonzero;stroke:none"
         id="path184"
         inkscape:connector-curvature="0" /><path
         d="m 272.67846,57.435028 c -1.77429,0 -3.87221,0.334045 -6.33042,1.058286 l -9.60698,2.621605 -0.002,4.99e-4 c -1.12658,0.365768 -2.15087,0.936287 -3.05205,1.650965 -1.04738,0.830604 -1.92864,1.855218 -2.61301,2.979715 -0.19463,0.318999 -0.37341,0.646655 -0.535,0.979839 -0.85999,1.769565 -1.25151,3.703412 -1.06684,5.471708 0.0267,0.254737 0.0652,0.505758 0.11587,0.752384 0.0525,0.256504 0.11859,0.508432 0.19825,0.754468 0.44629,1.379053 0.96364,2.654325 1.62357,3.707083 0.23627,0.3766 0.4911,0.725102 0.7672,1.039161 0.344,0.391102 0.72103,0.729181 1.13835,1.004266 0.78486,0.517541 1.71002,0.811208 2.81941,0.811208 0.78485,0 1.66249,-0.147287 2.64605,-0.466331 l 0,0 2.12779,-0.704709 10.71003,-3.546563 c 4.67834,-1.772421 7.26691,-3.996761 8.47134,-6.350667 l 0,0 0.001,-0.0058 -0.002,-9.06e-4 c 1.10984,-2.173492 1.04421,-4.457517 0.35079,-6.59847 l 0,0 c -1.0243,-3.16593 -3.42819,-5.157694 -7.76163,-5.157694"
         style="fill:#cea752;fill-opacity:1;fill-rule:nonzero;stroke:none"
         id="path186"
         inkscape:connector-curvature="0" /><path
         d="m 201.27133,116.09349 c 0,-2.61717 -2.11829,-4.73809 -4.73175,-4.73809 -2.61346,0 -4.7322,2.12092 -4.7322,4.73809 0,2.61626 2.11874,4.73808 4.7322,4.73808 2.61346,0 4.73175,-2.12182 4.73175,-4.73808"
         style="fill:#ffffff;fill-opacity:1;fill-rule:nonzero;stroke:none"
         id="path188"
         inkscape:connector-curvature="0" /><path
         d="m 287.14166,117.45305 c 0,-2.61716 -2.11829,-4.73808 -4.7322,-4.73808 -2.61301,0 -4.7322,2.12092 -4.7322,4.73808 0,2.61626 2.11919,4.73809 4.7322,4.73809 2.61391,0 4.7322,-2.12183 4.7322,-4.73809"
         style="fill:#ffffff;fill-opacity:1;fill-rule:nonzero;stroke:none"
         id="path190"
         inkscape:connector-curvature="0" /><path
         d="m 135.6139,248.47349 0,0 c -0.077,0 -0.15299,0.005 -0.22993,0.005 l 0,62.42808 c 0.0769,4.5e-4 0.15298,0.005 0.22993,0.005 17.22105,0 31.18093,-13.97724 31.18093,-31.21926 0,-9.27359 -4.03878,-17.60365 -10.45067,-23.32153 -0.45127,-0.40243 -0.9125,-0.79036 -1.3864,-1.16606 -0.76855,-0.60953 -1.56834,-1.18463 -2.39303,-1.72075 -3.94146,-2.56052 -8.49488,-4.25363 -13.39455,-4.8106 -1.16687,-0.13278 -2.35411,-0.20076 -3.55628,-0.20076"
         style="fill:#3978b4;fill-opacity:1;fill-rule:nonzero;stroke:none"
         id="path192"
         inkscape:connector-curvature="0" /><path
         d="m 210.8086,219.12364 c 0,-12.18941 -9.8695,-22.07119 -22.04377,-22.07119 -12.17427,0 -22.04378,9.88178 -22.04378,22.07119 0,12.18941 9.86951,22.07073 22.04378,22.07073 12.17427,0 22.04377,-9.88132 22.04377,-22.07073"
         style="fill:#7ccc3d;fill-opacity:1;fill-rule:nonzero;stroke:none"
         id="path194"
         inkscape:connector-curvature="0" /><path
         d="m 188.76483,197.05245 0,0 c -0.0548,0 -0.10818,0.004 -0.16249,0.005 l 0,44.13332 c 0.0543,4.5e-4 0.10772,0.004 0.16249,0.004 12.17427,0 22.04377,-9.88132 22.04377,-22.07073 0,-0.24699 -0.004,-0.49216 -0.0122,-0.73689 -0.0199,-0.61044 -0.0647,-1.2159 -0.13352,-1.81275 -1.16959,-10.17952 -9.25574,-18.25172 -19.43394,-19.38514 -0.5952,-0.0662 -1.19719,-0.10877 -1.80597,-0.12689 -0.21862,-0.006 -0.4386,-0.01 -0.65812,-0.01"
         style="fill:#64b839;fill-opacity:1;fill-rule:nonzero;stroke:none"
         id="path196"
         inkscape:connector-curvature="0" /><path
         d="m 316.24413,219.12364 c 0,-12.18941 -9.8695,-22.07119 -22.04332,-22.07119 -12.17472,0 -22.04332,9.88178 -22.04332,22.07119 0,12.18941 9.8686,22.07073 22.04332,22.07073 12.17382,0 22.04332,-9.88132 22.04332,-22.07073"
         style="fill:#e0223f;fill-opacity:1;fill-rule:nonzero;stroke:none"
         id="path198"
         inkscape:connector-curvature="0" /><path
         d="m 294.20081,197.05245 0,0 c -0.0548,0 -0.10818,0.004 -0.16249,0.005 l 0,44.13332 c 0.0543,4.5e-4 0.10772,0.004 0.16249,0.004 12.17382,0 22.04332,-9.88132 22.04332,-22.07073 0,-12.18941 -9.8695,-22.07119 -22.04332,-22.07119"
         style="fill:#b8263a;fill-opacity:1;fill-rule:nonzero;stroke:none"
         id="path200"
         inkscape:connector-curvature="0" /><path
         d="m 269.63274,279.69319 c 0,-17.24246 -13.95988,-31.2197 -31.18093,-31.2197 -17.22059,0 -31.18093,13.97724 -31.18093,31.2197 0,17.24202 13.96034,31.21926 31.18093,31.21926 17.22105,0 31.18093,-13.97724 31.18093,-31.21926"
         style="fill:#f7a02e;fill-opacity:1;fill-rule:nonzero;stroke:none"
         id="path202"
         inkscape:connector-curvature="0" /><path
         d="m 238.45181,248.47349 0,0 c -0.0769,0 -0.15299,0.005 -0.22993,0.005 l 0,62.42808 c 0.0769,4.5e-4 0.15299,0.005 0.22993,0.005 17.22105,0 31.18093,-13.97724 31.18093,-31.21926 0,-17.24246 -13.95988,-31.2197 -31.18093,-31.2197"
         style="fill:#c4882f;fill-opacity:1;fill-rule:nonzero;stroke:none"
         id="path204"
         inkscape:connector-curvature="0" /><path
         d="m 375.97579,279.69319 c 0,-17.24246 -13.96034,-31.2197 -31.18093,-31.2197 -17.22105,0 -31.18093,13.97724 -31.18093,31.2197 0,17.24202 13.95988,31.21926 31.18093,31.21926 17.22059,0 31.18093,-13.97724 31.18093,-31.21926"
         style="fill:#428964;fill-opacity:1;fill-rule:nonzero;stroke:none"
         id="path206"
         inkscape:connector-curvature="0" /><path
         d="m 344.79486,248.47349 0,0 c -0.0774,0 -0.15299,0.005 -0.22994,0.005 l 0,62.42808 c 0.077,4.5e-4 0.15254,0.005 0.22994,0.005 17.22059,0 31.18093,-13.97724 31.18093,-31.21926 0,-17.24246 -13.96034,-31.2197 -31.18093,-31.2197"
         style="fill:#3a7156;fill-opacity:1;fill-rule:nonzero;stroke:none"
         id="path208"
         inkscape:connector-curvature="0" /><path
         d="m 166.79483,156.53739 c 0,-17.24246 -13.95988,-31.2197 -31.18093,-31.2197 -17.2206,0 -31.18093,13.97724 -31.18093,31.2197 0,17.24202 13.96033,31.21926 31.18093,31.21926 17.22105,0 31.18093,-13.97724 31.18093,-31.21926"
         style="fill:#354f79;fill-opacity:1;fill-rule:nonzero;stroke:none"
         id="path210"
         inkscape:connector-curvature="0" /><path
         d="m 135.6139,125.31769 0,0 c -0.077,0 -0.15299,0.005 -0.22993,0.005 l 0,62.42808 c 0.0769,4.5e-4 0.15298,0.005 0.22993,0.005 17.22105,0 31.18093,-13.97724 31.18093,-31.21926 0,-6.37862 -1.91008,-12.30996 -5.18935,-17.25243 -0.33449,-0.50395 -0.68392,-0.99928 -1.04647,-1.48193 -4.3271,-5.76727 -10.6014,-9.98374 -17.84703,-11.67277 -2.27988,-0.5316 -4.65662,-0.81257 -7.09808,-0.81257"
         style="fill:#314266;fill-opacity:1;fill-rule:nonzero;stroke:none"
         id="path212"
         inkscape:connector-curvature="0" /><path
         d="m 375.97579,156.53739 c 0,-17.24246 -13.96034,-31.2197 -31.18093,-31.2197 -17.22105,0 -31.18093,13.97724 -31.18093,31.2197 0,17.24202 13.95988,31.21926 31.18093,31.21926 17.22059,0 31.18093,-13.97724 31.18093,-31.21926"
         style="fill:#f03f3a;fill-opacity:1;fill-rule:nonzero;stroke:none"
         id="path214"
         inkscape:connector-curvature="0" /><path
         d="m 344.79486,125.31769 0,0 c -0.0774,0 -0.15299,0.005 -0.22994,0.005 l 0,62.42808 c 0.077,4.5e-4 0.15254,0.005 0.22994,0.005 17.22059,0 31.18093,-13.97724 31.18093,-31.21926 0,-17.24246 -13.96034,-31.2197 -31.18093,-31.2197"
         style="fill:#ca3b35;fill-opacity:1;fill-rule:nonzero;stroke:none"
         id="path216"
         inkscape:connector-curvature="0" /><path
         d="m 150.21968,276.97361 c 0,-4.9742 -1.76162,-9.00712 -5.45007,-9.00712 l -16.59642,0 c -3.688,0 -6.67804,4.03292 -6.67804,9.00712 0,4.97465 2.99004,9.00758 6.67804,9.00758 l 16.59642,0 c 3.68845,0 5.45007,-4.03293 5.45007,-9.00758"
         style="fill:#ffffff;fill-opacity:1;fill-rule:nonzero;stroke:none"
         id="path218"
         inkscape:connector-curvature="0" /><path
         d="m 139.17199,277.60581 c 0,-1.74523 -1.41355,-3.16054 -3.15661,-3.16054 -1.74351,0 -3.15661,1.41531 -3.15661,3.16054 l 0,12.79985 c 0,1.74523 1.4131,3.16009 3.15661,3.16009 1.74306,0 3.15661,-1.41486 3.15661,-3.16009 l 0,-12.79985"
         style="fill:#ffffff;fill-opacity:1;fill-rule:nonzero;stroke:none"
         id="path220"
         inkscape:connector-curvature="0" /><path
         d="m 120.54871,267.96649 12.31001,0 0,18.01479 -12.31001,0 0,-18.01479 z"
         style="fill:#383b90;fill-opacity:1;fill-rule:nonzero;stroke:none"
         id="path222"
         inkscape:connector-curvature="0" /><path
         d="m 131.04374,283.05767 c 0,-0.91635 -0.74185,-1.65958 -1.65706,-1.65958 -0.91476,0 -1.65707,0.74323 -1.65707,1.65958 0,0.91634 0.74231,1.65912 1.65707,1.65912 0.91521,0 1.65706,-0.74278 1.65706,-1.65912"
         style="fill:#ffffff;fill-opacity:1;fill-rule:nonzero;stroke:none"
         id="path224"
         inkscape:connector-curvature="0" /><path
         d="m 188.60234,227.62727 2.83162,-5.49899 6.09868,-0.99702 -4.34837,-4.39593 0.93738,-6.11532 -5.51931,2.78212 -5.51887,-2.78212 0.93694,6.11532 -4.34793,4.39593 6.09823,0.99702 2.83163,5.49899"
         style="fill:#ffffff;fill-opacity:1;fill-rule:nonzero;stroke:none"
         id="path226"
         inkscape:connector-curvature="0" /><path
         d="m 238.22233,271.57659 -5.6379,7.98065 3.47163,0 0,5.615 4.33344,0 0,-5.615 3.47074,0 -5.63791,-7.98065 z m 13.97708,12.42416 c -0.65721,3.48049 -3.70791,6.11351 -7.37553,6.11351 -0.8953,0 -1.75348,-0.15771 -2.551,-0.44639 -2.02731,2.44178 -5.08344,3.99622 -8.50212,3.99622 -5.84114,0 -10.62132,-4.53687 -11.02325,-10.28285 -2.45957,-1.33328 -4.13066,-3.93957 -4.13066,-6.9365 0,-4.35424 3.52505,-7.88367 7.87342,-7.88367 l 23.46457,0 c 4.34747,0 7.87252,3.52943 7.87252,7.88367 0,3.57248 -2.37402,6.588 -5.62795,7.55601"
         style="fill:#ffffff;fill-opacity:1;fill-rule:nonzero;stroke:none"
         id="path228"
         inkscape:connector-curvature="0" /><path
         d="m 302.52414,224.34029 c -3.74909,3.46599 -8.48582,-1.62785 -8.48582,-1.62785 0,0 -4.73718,5.09384 -8.48628,1.62785 -5.23235,-4.83733 8.48628,-15.33363 8.48628,-15.33363 0,0 13.71818,10.4963 8.48582,15.33363"
         style="fill:#ffffff;fill-opacity:1;fill-rule:nonzero;stroke:none"
         id="path230"
         inkscape:connector-curvature="0" /><path
         d="m 122.62897,156.69102 c -2.86919,2.80207 -2.92667,7.40329 -0.12809,10.2756 2.79949,2.87412 7.39409,2.93123 10.26374,0.12871 2.8701,-2.80207 2.92804,-7.40284 0.12855,-10.27651 -2.79904,-2.87366 -7.3941,-2.93031 -10.2642,-0.1278 z m 12.26661,12.5914 c -4.07634,3.98035 -10.60321,3.89923 -14.57862,-0.18219 -3.97586,-4.08096 -3.89394,-10.61594 0.18196,-14.59675 3.80749,-3.71841 9.75272,-3.89062 13.76072,-0.57101 l 1.48462,-1.45021 c -0.45761,-0.60093 -0.60788,-1.16877 0.0416,-1.80233 l 10.15239,-9.9144 c 0.93739,-0.91544 1.69282,-0.16904 2.60622,0.7686 0.91385,0.93901 1.63986,1.71396 0.70293,2.6285 l -10.1524,9.9144 c -0.64951,0.63401 -1.21213,0.46996 -1.80054,-0.004 l -1.48552,1.44975 c 3.21455,4.09456 2.89364,10.0413 -0.9134,13.75926"
         style="fill:#ffffff;fill-opacity:1;fill-rule:nonzero;stroke:none"
         id="path232"
         inkscape:connector-curvature="0" /><path
         d="m 351.97214,159.25018 c -1.07317,-0.009 -2.05718,-0.37751 -2.84701,-0.98523 l -5.10743,3.51674 c 0.32091,0.79716 0.49743,1.66819 0.49019,2.58091 -0.0299,3.73201 -3.07468,6.73257 -6.8016,6.70221 -3.72647,-0.0295 -6.72331,-3.07851 -6.69434,-6.80962 0.0299,-3.73155 3.07559,-6.73211 6.80161,-6.70265 1.75619,0.0136 3.3449,0.70425 4.53667,1.81456 l 5.10833,-3.51855 c -0.12945,-0.43914 -0.19916,-0.90638 -0.19599,-1.38857 0.004,-0.43778 0.0711,-0.85789 0.18467,-1.25896 l -5.3437,-3.58835 c -0.6649,0.46679 -1.4742,0.73915 -2.34777,0.73326 -2.23551,-0.0177 -4.03334,-1.84765 -4.01614,-4.08685 0.0181,-2.23785 1.84535,-4.03882 4.08132,-4.02114 2.23552,0.0177 4.0338,1.84719 4.01615,4.08594 -0.002,0.29276 -0.0371,0.57782 -0.0982,0.85245 l 5.34008,3.58654 c 0.81654,-0.64399 1.84807,-1.02738 2.96832,-1.01832 2.62251,0.0213 4.72948,2.16579 4.70866,4.79111 -0.0208,2.62396 -2.16219,4.73491 -4.7838,4.71452"
         style="fill:#ffffff;fill-opacity:1;fill-rule:nonzero;stroke:none"
         id="path234"
         inkscape:connector-curvature="0" /><path
         d="m 337.41615,278.33861 c -0.72556,0.5828 -1.61723,0.92768 -2.58223,0.92768 l -1.54526,0 0,0.43914 c 1.86527,0.576 3.26931,2.20612 3.51781,4.19517 -0.0168,0.19441 -0.0285,0.39019 -0.0285,0.58824 l 0,1.18871 c -1.08585,0.30998 -1.88428,1.31289 -1.88428,2.49888 0,0.90275 0.45625,1.71668 1.19538,2.18754 l 0,1.38948 c 0,0.62676 0.0806,1.20684 0.23446,1.73979 -1.02474,0.99203 -2.67003,1.40216 -4.52489,1.40216 -3.10728,0 -5.62614,-1.14928 -5.62614,-4.25997 l 0,-1.52996 c -0.58751,-0.23158 -1.00393,-0.80351 -1.00393,-1.47423 0,-0.8751 0.70836,-1.5848 1.58284,-1.5848 l 0,-1.51183 c 0,-2.27138 1.49728,-4.1929 3.55718,-4.82918 l 0,-0.43914 -1.54571,0 c -2.43196,0 -4.40315,-2.18437 -4.40315,-4.87903 l 0,-6.5105 c 2.00694,-1.10986 4.42125,-1.75792 7.01887,-1.75792 0.87447,0 1.72722,0.0757 2.5519,0.21526 l 0,6.07228 c 0,2.63121 1.43075,4.90304 3.48567,5.93223"
         style="fill:#ffffff;fill-opacity:1;fill-rule:nonzero;stroke:none"
         id="path236"
         inkscape:connector-curvature="0" /><path
         d="m 360.37378,279.26629 -1.54572,0 0,0.43914 c 2.06036,0.63628 3.55719,2.5578 3.55719,4.82918 l 0,1.51183 c 0.87402,0 1.58328,0.7097 1.58328,1.5848 0,0.67072 -0.41641,1.24265 -1.00437,1.47423 l 0,1.52996 c 0,3.11069 -2.51887,4.25997 -5.62614,4.25997 -1.85531,0 -3.50016,-0.41013 -4.5249,-1.40216 0.15389,-0.53295 0.23491,-1.11303 0.23491,-1.73979 l 0,-1.38948 c 0.73824,-0.47086 1.19493,-1.28479 1.19493,-2.18754 0,-1.18599 -0.79797,-2.1889 -1.88473,-2.49888 l 0,-1.18871 c 0,-0.19805 -0.0113,-0.39337 -0.0281,-0.58734 0.24804,-1.98995 1.65254,-3.62007 3.51781,-4.19607 l 0,-0.43914 -1.54527,0 c -0.96545,0 -1.85667,-0.34488 -2.58223,-0.92768 2.05447,-1.02919 3.48567,-3.30102 3.48567,-5.93223 l 0,-6.19056 c 0.55945,-0.063 1.13066,-0.097 1.71138,-0.097 2.97149,0 5.70263,0.84791 7.85984,2.26549 l 0,6.00293 c 0,2.69466 -1.97163,4.87903 -4.40359,4.87903"
         style="fill:#ffffff;fill-opacity:1;fill-rule:nonzero;stroke:none"
         id="path238"
         inkscape:connector-curvature="0" /><path
         d="m 348.18321,278.2158 -1.84083,0 0,0.52253 c 2.45323,0.75773 4.23613,3.04542 4.23613,5.75051 l 0,1.80051 c 1.04104,0 1.88473,0.84475 1.88473,1.88708 0,0.79807 -0.49608,1.47921 -1.19584,1.75475 l 0,1.82227 c 0,3.70436 -2.99909,5.07208 -6.69931,5.07208 -3.69976,0 -6.69931,-1.36772 -6.69931,-5.07208 l 0,-1.82227 c -0.69886,-0.27554 -1.19493,-0.95668 -1.19493,-1.75475 0,-1.04233 0.84324,-1.88708 1.88473,-1.88708 l 0,-1.80051 c 0,-2.70509 1.78199,-4.99278 4.23567,-5.75051 l 0,-0.52253 -1.84037,0 c -2.89636,0 -5.24322,-2.60085 -5.24322,-5.80942 l 0,-7.7527 c 2.38986,-1.32195 5.26449,-2.09328 8.35728,-2.09328 3.53817,0 6.79029,1.00925 9.35849,2.69783 l 0,7.14815 c 0,3.20857 -2.34777,5.80942 -5.24322,5.80942"
         style="fill:#ebebea;fill-opacity:1;fill-rule:nonzero;stroke:none"
         id="path240"
         inkscape:connector-curvature="0" /></g></g></svg>
