<svg xmlns="http://www.w3.org/2000/svg" width="200" height="150"><defs><clipPath id="a"><path d="M0 0v7974h7984V0H0z"/></clipPath><clipPath id="b"><path d="M2981 0v6986h4567V0H2981z"/></clipPath><clipPath id="c"><path d="M0 0h7984v7974H0V0z"/></clipPath></defs><g clip-path="url(#a)" transform="matrix(.01806 0 0 -.01873 29.246 142.487)"><path d="M4234.93-329.77l-1431.4-156.398-133.5-14.602c-195.4-21.398-376.9 79.4-437.8 243.102l-257.2 690.797c-13.5 36.3-33.2 70.1-58.3 100.3-25 30.2-55.4 56.902-90.2 78.898-81.2 51.3-137.9 127.5-159.6 214.703l-9.3 37.2-253.6 1017.9c-9.2 37-12 75.2-8.2 113.4l16.8 167.4c5.4 53.5 23.5 105.7 53.2 153.2l107.3 171.3c20.2 32.3 45.5 61.9 75.1 88l180.9 159.5c35 30.9 75.5 56.4 119.7 75.3l384.7 164.6c54 23.1 112.4 36 171.5 37.9l338.4 11c1016.4 20.1 1573.9-2010.9 1768.8-2897.8 47.5-216.5-128.2-428.5-377.3-455.7" fill="#ecf8f6"/><path d="M3003.67 0h4516.99v6958.91H3003.67V0z" fill="#fff"/><path d="M7518.16-143.328l-6.64 885.59-5.07 888.088-4.48 888.09-2.76 888.1-2.76 888.09-1.61 888.09-.75 888.1.39 888.09 26.18-26.18-2258.49 4.01-1129.25 3.43-1129.25 5.13 13.61 13.61-3.56-888.09-1.78-888.1-.66-444.04.2-444.05 2.05-888.09 8.7-1776.19 3.19-888.088.46-888.09-22.21 22.2 1129.25-1.673 1129.25-3.76 1129.24-5.4 564.63-4.1 562.12-4.768m4.97-4.973l-567.09-4.81-564.63-4.1-1129.24-5.4-1129.25-3.77-1129.25-1.67-22.22-.028.01 22.25.46 888.09 3.19 888.088 8.7 1776.19 2.05 888.09.2 444.05-.65 444.04-1.79 888.1-3.56 888.09-.05 13.55 13.66.06 1129.25 5.13 1129.25 3.43 2258.49 4.01 26.17.05.01-26.23.39-888.09-.74-888.1-1.62-888.09-2.76-888.09-2.76-888.1-4.47-888.09-5.08-888.088-6.67-890.563" fill="#ef3536" fill-opacity=".855"/><path d="M3492.68 939.262c0-3.403-.3-6.8-.8-10.203-4.7-31.798-31.1-57.5-64.9-59.4l-221.2-13.2-130.7-7.8 138.1 7.8 26.6 1.5c6 .302 11.8-.198 17.3-1.5 26.9-6.3 46.6-30.5 46.7-58.6 0-3.9-.3-7.9-1.1-11.9-2.8-14.3-10.3-26.5-20.8-35.3-10.6-8.7-24-13.8-38.5-13.898l-164.8-.5 92.4-6.203c7.2-.5 14.1-2.1 20.4-4.798 27.3-11.3 44.4-40.703 38.3-71.5-.3-1.3-.5-2.602-.9-3.8-7.3-28.302-32.8-48.103-62-48.103-1.5 0-2.9.1-4.4.2l-129.7 8.9 75.1-16.6.7-.2 27-6c33-7.3 52.6-41.5 42.5-73.6l-.3-.9c-7.8-23.8-30.1-39.6-54.6-39.6-2.8 0-5.5.202-8.3.6l-83.2 11.8c-12.3 3.1-111.9 47-175.1 75-30.3 13.5-52.2 23.302-52.2 23.302-59 37-107.1 89.097-139.2 150.898v.102c-24.3 46.898-18.6 103.797 14.6 144.898l61.1 75.5c12.1 15.102 25.6 29.102 40.2 41.8l241.3 222.1c23 21.2 57.1 24.9 84.2 9.1 22.8-13.4 35.2-37.2 35.2-61.6 0-14.1-4.1-28.3-12.9-40.8l-76.6-109.1 25.6-21.7 342.3 13.3c36.6 1.5 68.1-25.6 72.2-61.998.3-2.703.4-5.3.4-8" fill="#f8a498"/><path d="M3486.53 923.332c-4.7-31.8-31.1-57.5-64.9-59.402l-221.2-13.2h-170.4c0 37.66 32.54 67.3 69.98 63.27 126.76-13.63 255.67-9.988 386.52 9.332M3298.43 792.13c0-3.9-.3-7.9-1.1-11.9-2.8-14.3-10.3-26.5-20.8-35.3-10.6-8.7-24-13.8-38.5-13.9l-164.8-.5 92.4-6.198c7.2-.5 14.1-2.102 20.4-4.8h-209.7v72.597c107.37-28.4 214.74-28.4 322.1 0M3223.43 644.23c-7.3-28.3-32.8-48.1-62-48.1-1.5 0-2.9.1-4.4.202l-129.7 8.898 75.1-16.6-135 19.702 10.5 71.797c79.44-38.52 161.41-49.01 245.5-35.9M3172.63 508.832l-.3-.902c-7.8-23.8-30.1-39.598-54.6-39.598-2.8 0-5.5.2-8.3.598l-83.2 11.8c-12.3 3.102-111.9 47-175.1 75l10.3 37.8c109.49-51.32 214.93-86.4 311.2-84.698" fill="#f68d79"/><path d="M2742.96 643.22c.41-1.35 302.52 233.28 323.13 264.94 20.61 31.668 17.24-177.66 17.24-177.66l-47.36-125.27-61.69-74.3-119.85 24.8-100.95 47.61-10.52 39.88" fill="#f68d79"/><path d="M2775.59 992.262l10.16-11.043 241.3 222.09c10.66 9.8 24.29 14.84 38.08 14.85 9.76 0 19.53-2.52 28.38-7.7 18.01-10.54 27.8-29.3 27.83-48.6-.01-11.14-3.26-22.3-10.22-32.22l-84.45-120.28 40.5-34.348 348.13 13.566 2.18.05c27.79 0 51.41-20.91 54.54-48.776.24-2.102.35-4.192.35-6.25.01-28.59-22.36-53.02-51.67-54.73l-351.83-20.923 1.74-29.95 164.62 9.28c.91.048 1.8.072 2.67.072 12.76-.012 24.02-5.16 32.3-13.5 8.26-8.352 13.27-19.704 13.27-31.993 0-2.88-.28-5.82-.86-8.82-4.13-21.41-22.85-36.91-44.65-36.98l-164.75-.56-.94-29.97 92.41-6.12c13.22-.89 24.57-6.75 32.81-15.64 8.22-8.9 13.11-20.7 13.11-33.29-.01-3.14-.31-6.35-.95-9.6-4.54-23.17-24.9-39.66-48.18-39.66-1.11 0-2.25.042-3.41.12l-.62.04-129.12 8.81-4.27-29.6 102.8-22.828c10.12-2.262 18.38-7.77 24.27-15.223 5.87-7.458 9.22-16.802 9.21-26.462 0-4.437-.69-8.95-2.19-13.47-5.84-17.667-22.38-29.276-40.51-29.276-2 0-4.03.137-6.07.43l-83.17 11.847-2.12-14.848 3.69 14.54c0-.02-1.75.53-4.02 1.39-8.85 3.277-27.52 11.078-49.97 20.73-33.75 14.508-76.49 33.36-110.77 48.558-17.14 7.61-32.16 14.3-42.91 19.09-10.74 4.8-17.17 7.68-17.18 7.692l-6.14-13.692 7.96 12.72c-56.79 35.52-103.01 85.62-133.83 145.08l-.04.07c-8.89 17.15-13.25 35.77-13.25 54.31.01 26.5 8.9 52.77 26.23 74.22l61.03 75.53c11.63 14.398 24.48 27.78 38.41 39.98l.12.11.15.13-10.16 11.042-9.88 11.278c-15.22-13.33-29.26-27.95-41.98-43.688l-61.02-75.52c-21.73-26.902-32.9-59.883-32.9-93.082 0-23.238 5.48-46.64 16.62-68.12l.04-.067c33.29-64.223 83.21-118.344 144.55-156.71l.87-.552.95-.42c.02-.01 52.31-23.44 106.91-47.458 27.31-12.02 55.18-24.18 77.45-33.652 11.13-4.74 20.86-8.81 28.47-11.872 3.82-1.54 7.09-2.816 9.83-3.84 2.79-1.02 4.79-1.738 7.08-2.34l.79-.198 83.96-11.96c3.45-.49 6.89-.728 10.3-.728 30.96 0 59 19.758 68.99 49.84 2.51 7.578 3.71 15.32 3.71 22.906 0 16.582-5.69 32.383-15.65 45.024-9.93 12.64-24.29 22.168-41.33 25.95l-102.8 22.82-3.25-14.642-1.02-14.968 130.36-8.89-.58.03c1.8-.12 3.61-.183 5.41-.183 37.57.01 70.26 26.55 77.62 63.87 1.01 5.16 1.51 10.308 1.5 15.39 0 20.41-7.91 39.418-21.07 53.65-13.14 14.25-31.76 23.83-52.86 25.222l-92.41 6.117-.99-14.97.05-15 164.75.56c36.14.13 67.14 25.8 74.01 61.28.94 4.88 1.4 9.742 1.4 14.52-.01 20.52-8.38 39.41-21.95 53.1-13.55 13.72-32.57 22.4-53.62 22.392-1.45 0-2.9-.043-4.36-.122l-164.62-9.28 1.73-29.95 351.83 20.922c45.33 2.726 79.88 40.297 79.89 84.68 0 3.18-.18 6.39-.54 9.617-4.88 43.09-41.32 75.4-84.35 75.41-1.12 0-2.24-.02-3.36-.07l-336.45-13.12-10.71 9.09 68.72 97.88c10.58 15.06 15.67 32.41 15.66 49.45.03 29.43-15.14 58.37-42.68 74.49-13.53 7.93-28.59 11.81-43.53 11.81-21.1.01-42.08-7.76-58.4-22.78l-241.3-222.08 10.16-11.038-9.88 11.278 9.88-11.278" fill="#040606"/><path d="M3234.43 852.23c6 .3 11.8-.2 17.3-1.5h-43.9l26.6 1.5" fill="#f68d79"/><path d="M3205.78 844.898h61.168v11.563h-61.168V844.9z" fill="#040606"/><path d="M1422.95 2218.23s229.18-785.5 369.78-915.2c140.6-129.7 609.61-722.14 985.11-295.92l-65.58-93.17-12.05-98.108 28.98-126.44 31.64-113.56-25.62-20.05-241.25 16.3-409.25 57.188-297.24 43.1-51.53 19.18-45.11 61.16-59.37 216.7-98.96 397.15-117.91 473.18-20.38 108.59 9.12 210.63 10 55.62 9.62 3.65" fill="#c2dfe2"/><path d="M2803.53-486.168l-133.5-14.602c-195.4-21.398-376.9 79.4-437.8 243.102l-257.2 690.797c-13.5 36.3-33.2 70.1-58.3 100.3-25 30.2-55.4 56.902-90.2 78.898-81.2 51.3-137.9 127.5-159.6 214.703l-9.3 37.2 302.1 152.4 302.3-412.1 541.5-1090.698" fill="#c2dfe2"/><path d="M2146.23-26.668h-16L2120.3 0h16l9.93-26.668M2136.3 0h-16l-159.29 427.93c-25.79 69.28-75.42 129.28-142.5 171.68-84.21 53.19-143.42 132.632-166.14 223.84l-262.9 1055.08c-6.83 27.39-10.26 55.44-10.26 83.63 0 11.6.58 23.22 1.74 34.83l16.77 167.47c5.6 55.84 24.55 110.28 55.45 159.61l107.29 171.33c21 33.53 47.24 64.27 77.85 91.27l180.86 159.54c36.24 31.97 78.12 58.27 123.8 77.82l384.67 164.59c55.7 23.84 115.94 37.16 176.91 39.13l338.35 10.94h.08l.1.01c5.11.1 10.2.15 15.28.15 45.43 0 89.97-4.03 133.59-11.8l-.08-15.18c-43.56 7.9-88.08 12.01-133.47 12.01-4.94 0-10-.05-14.97-.15l-338.4-11c-59.1-1.9-117.5-14.8-171.5-37.9l-384.7-164.6c-44.2-18.9-84.7-44.4-119.7-75.3l-180.9-159.5c-29.6-26.1-54.9-55.7-75.1-88l-107.3-171.3c-19.36-30.96-33.79-63.93-42.99-97.95l-9.51-3.6-10-55.62-6.76-156.04-.74-7.39c-1.45-14.61-1.94-29.21-1.47-43.76l-.15-3.44.36-1.95c1.05-21.66 4.22-43.15 9.46-64.25l10.54-42.3.02-.09 35.06-140.72 207.98-834.79 9.3-37.2c4.53-18.198 10.59-35.92 18.07-53.03l5.83-21.29 21.35-28.948c28.55-43.692 67.34-81.73 114.35-111.434 34.8-21.996 65.2-48.7 90.2-78.898 25.1-30.2 44.8-64 58.3-100.3L2136.3 0" fill="#040606"/><path d="M1657.63 864.23l-207.98 834.79 82.85-332.46 98.96-397.15 28.49-104-2.32-1.18m-243.06 975.6l-10.54 42.3c-5.24 21.1-8.41 42.59-9.46 64.25l20-106.55m-20.21 111.94c-.47 14.55.02 29.15 1.47 43.76l.74 7.39-2.21-51.15m37.22 237.45c-5.59 18.61-8.63 29.01-8.63 29.01l-.11-.05c9.2 34.02 23.63 66.99 42.99 97.95l107.3 171.3c20.2 32.3 45.5 61.9 75.1 88l180.9 159.5c35 30.9 75.5 56.4 119.7 75.3l384.7 164.6c54 23.1 112.4 36 171.5 37.9l338.4 11c4.97.1 10.03.15 14.97.15 45.39 0 89.91-4.11 133.47-12.01l-.07-15.27c-43.55 8.06-88.02 12.24-133.44 12.25-4.88 0-9.77-.05-14.67-.15l-338.17-10.93c-57.24-1.85-113.86-14.38-166.08-36.72l-384.66-164.6c-42.84-18.33-82-42.95-115.76-72.73l-180.86-159.55c-28.53-25.15-52.86-53.7-72.27-84.69l-107.3-171.33c-23.36-37.31-39.22-77.56-47.01-118.93" fill="#040606"/><path d="M1712.18 723.762l-21.35 28.95L1685 774c7.61-17.418 16.71-34.21 27.18-50.238m-52.23 141.648l-28.49 104-98.96 397.15-82.85 332.46-35.06 140.72-.02.09-20 106.55-.36 1.95.15 3.44 2.21 51.15 6.76 156.04 10 55.62 9.51 3.6.11.05s3.04-10.4 8.63-29.01c-1.74-9.21-3.07-18.46-4-27.75L1410.8 1994c-1.06-10.62-1.59-21.25-1.59-31.84 0-25.76 3.13-51.36 9.37-76.38l252.81-1014.6-11.44-5.77" fill="#040606"/><path d="M2162.24-26.668h-16.01L2136.3 0l-161.27 433.13c-13.5 36.3-33.2 70.1-58.3 100.3-25 30.2-55.4 56.902-90.2 78.898-47.01 29.703-85.8 67.742-114.35 111.434-10.47 16.027-19.57 32.82-27.18 50.238-7.48 17.11-13.54 34.832-18.07 53.03l-9.3 37.2 2.32 1.18 11.44 5.77 10.09-40.48c20.75-83.24 74.85-156.29 153.05-205.73 72.24-45.63 126.38-110.76 154.6-186.568l173.11-465.07" fill="#040606"/></g><g clip-path="url(#b)" transform="matrix(.01806 0 0 -.01873 29.246 142.487)"><path d="M4625.37-26.668h-30.92c6.91 26.38 10.54 53.578 10.54 81.168-.01 22.52-2.42 45.34-7.45 68.23-63.53 289.192-165.7 700.25-309.74 1121.78-144.01 421.52-330.02 853.54-560.41 1184.2-153.55 220.49-326.76 395.68-519.31 493.44-62.13 31.56-126.26 55.11-192.52 69.64l-.15 30.71c71.27-14.99 140.04-39.95 206.25-73.6 113.7-57.77 219.91-141.02 319.04-243.31 198.24-204.6 368.41-485.38 513.05-793.38 289.17-615.97 475.99-1341.18 573.09-1783.038 5.5-25.012 8.15-50 8.14-74.672 0-27.602-3.3-54.77-9.61-81.168" fill="#fff"/><path d="M3015.56 2991.79l-.15 30.71.15-30.71" fill="#040606"/><path d="M2991.88 3011.87h-.01l.08 15.18s-.01 0 0 0l-.07-15.18" fill="#e6e8b6"/><path d="M2991.8 2996.6l.07 15.27h.01l-.08-15.27" fill="#ecf8f6"/><path d="M3015.56 2991.79c-7.89 1.73-15.8 3.33-23.76 4.81l.08 15.27.07 15.18c7.85-1.4 15.67-2.92 23.46-4.55l.15-30.71" fill="#040606"/></g><g clip-path="url(#c)" transform="matrix(.01806 0 0 -.01873 29.246 142.487)"><path d="M2650.28 3129.76c56.98-163.57-90.67-363.7-329.79-447-239.12-83.3-479.16-18.22-536.14 145.35-56.98 163.57 90.67 363.7 329.79 447 239.13 83.3 479.16 18.22 536.14-145.35" fill="#ef3536"/><path d="M1801.48 2825.88s128.56-117.11 221.59-90.73c93.04 26.37 101.76-72.7 101.76-72.7l-123.28-3.92-116.73 47.24-59.28 51.03-24.06 69.08M2472.7 2949.96s143.22 198.54 128.96 242.64c-14.26 44.09 45.26-53.2 45.26-53.2l15.19-69.4-32.54-140.42-38.96-61 6.69 113.75s-13.25 2.2-29.36-18.29-95.24-14.08-95.24-14.08" fill="#dc2524"/><path d="M2650.28 3129.76l-14.16-4.93c7.69-22.1 11.38-44.88 11.39-68.08.06-68.27-32.35-140.76-90.48-205.04-58.04-64.25-141.49-119.97-241.48-154.78-69.08-24.07-138.16-35.43-202.45-35.43-76.69-.02-146.48 16.2-201.29 45.79-54.86 29.64-94.6 72.17-113.3 125.76-7.69 22.1-11.38 44.87-11.39 68.07-.06 68.28 32.35 140.76 90.48 205.04 58.04 64.25 141.49 119.97 241.48 154.78 69.08 24.07 138.17 35.44 202.45 35.43 76.69.02 146.48-16.2 201.29-45.78 54.86-29.65 94.6-72.18 113.3-125.76l14.16 4.93 14.17 4.94c-21.46 61.67-67.31 109.95-127.39 142.29-60.14 32.41-134.65 49.37-215.53 49.38-67.81 0-140.14-11.96-212.32-37.1-104.46-36.4-192.02-94.59-253.87-162.99-61.77-68.37-98.16-147.27-98.22-225.16 0-26.39 4.23-52.59 13.06-77.94 21.46-61.68 67.31-109.95 127.39-142.3 60.14-32.4 134.65-49.36 215.53-49.38 67.81 0 140.14 11.96 212.32 37.1 104.46 36.4 192.02 94.6 253.87 163 61.77 68.37 98.16 147.26 98.22 225.15 0 26.39-4.23 52.6-13.06 77.95l-14.17-4.94" fill="#040606"/><path d="M2087.72 2658.83l-128.08-78.8c-21.41-13.17-39.85-30.64-54.16-51.29l-105.58-152.38c-25.55-36.87-62.14-64.68-104.49-79.44l-62.4-21.74s690.69-288.71 663.46 384.91l-46.11 132.36-162.64-133.62" fill="#ef3536"/><path d="M2087.72 2658.83l-7.86 12.78-128.08-78.81c-23.17-14.25-43.14-33.16-58.63-55.52l-105.58-152.38c-23.74-34.26-57.74-60.1-97.1-73.81l-99.4-34.63 36.15-15.11c.44-.18 37.77-15.78 94.88-31.39 57.11-15.59 133.97-31.26 213.82-31.28 44.91.01 90.8 4.97 134.63 17.94 65.7 19.37 126.97 57.28 171 122.57 44.08 65.26 70.72 156.89 70.71 282.92 0 12.51-.27 25.37-.8 38.59l-.09 2.22-53.91 154.77-179.26-147.27 9.52-11.59-7.86 12.78 7.86-12.78 9.53-11.59 146.02 119.97 39.04-112.05 14.16 4.93-14.99-.6c.52-12.83.78-25.29.78-37.38 0-81.26-11.45-146.31-30.87-198.03-29.22-77.56-75.81-125.47-131.2-155.11-55.4-29.55-120.19-40.31-184.27-40.29-75.92-.02-150.52 15.07-205.92 30.22-27.7 7.57-50.61 15.15-66.54 20.81-7.97 2.83-14.19 5.18-18.39 6.81-2.1.82-3.7 1.46-4.75 1.88l-1.18.48-.35.14-5.78-13.84 4.93-14.16 62.4 21.74c45.36 15.8 84.53 45.58 111.88 85.06l105.59 152.37c13.13 18.96 30.05 34.98 49.69 47.06l128.95 79.34.8.65-9.53 11.59" fill="#040606"/><path d="M2296.47 2660.09s594.18-340.21 774.28 87.33c0 0-110.37-52.76-166.57-4.38-56.19 48.37-104.64 132.98-375.62 80.83-270.97-52.15-232.09-163.78-232.09-163.78" fill="#ef3536"/><path d="M2296.47 2660.09l-7.45-13.02c.45-.25 57.05-32.65 140.92-65.12 83.89-32.44 194.98-65.11 305.28-65.17 69.28 0 138.49 13 199.72 47.93 61.24 34.86 113.87 91.79 149.64 176.88l15.32 36.38-35.62-17.02-.06-.03c-1.11-.53-13.89-6.46-32.08-12.18-18.17-5.73-41.79-11.15-64.01-11.12-10.51-.01-20.68 1.19-29.83 3.89-9.17 2.71-17.31 6.86-24.33 12.9-20.61 17.6-42.37 43.23-77.79 64.27-35.46 21.08-84.21 36.66-157.65 36.6-41.91-.01-91.98-4.97-152.8-16.68-106.84-20.6-167.83-50.4-203.02-81.12-17.55-15.35-28.5-31.01-34.91-45.4-6.43-14.39-8.27-27.39-8.26-37.23 0-11.32 2.35-18.48 2.77-19.69l1.84-5.3 4.87-2.79 7.45 13.02 14.17 4.94-6.51-2.27 6.58 2.05-.07.22-6.51-2.27 6.58 2.05c-.02.04-1.18 3.83-1.17 10.04.01 6.2 1.1 14.78 5.65 25 6.86 15.29 21.61 34.79 54.54 54.67 32.89 19.83 83.91 39.67 161.67 54.62 59.36 11.43 107.6 16.14 147.13 16.14 69.43-.07 111.65-14.28 142.36-32.41 30.76-18.16 50.39-41.16 73.51-61.2 10.64-9.17 22.85-15.24 35.42-18.93 12.59-3.71 25.56-5.12 38.31-5.12 27.8.03 54.68 6.64 74.92 13.11 20.22 6.5 33.74 12.95 34.17 13.15l-6.47 13.54-13.82 5.82c-33.73-79.88-81.43-130.77-136.86-162.48-55.44-31.65-119.24-43.98-184.85-43.98-104.35-.05-212.64 31.43-294.45 63.14-40.92 15.85-75.25 31.71-99.29 43.57-12.02 5.94-21.46 10.87-27.87 14.31-3.21 1.72-5.66 3.06-7.29 3.97l-1.83 1.02-.56.32-7.46-13.02 14.17 4.94-14.17-4.94" fill="#040606"/><path d="M2534.22 2891.33c25.47-73.1-67.41-171.9-207.45-220.68-140.03-48.79-274.2-29.07-299.66 44.03-25.47 73.1 67.41 171.91 207.45 220.69 140.03 48.78 274.2 29.06 299.66-44.04" fill="#dc2524"/><path d="M2291.24 2636.38l-7.35 18.78c-35.96 91.87-2.06 156.6-.6 159.32 3.54 6.56 11.74 9.02 18.3 5.48 6.55-3.53 9.01-11.69 5.51-18.26-1.13-2.14-24.65-48.13-4.78-116.9 55.45 55.94 120.36 136.46 113.62 167.02-1.6 7.29 3.08 14.44 10.29 16.1 7.29 1.61 14.49-3 16.1-10.29 13.28-60.25-111.39-183.26-136.52-207.3l-14.57-13.95M2763.94 2598.61c-149.08-51.93-351.42 84.45-360.1 90.38-6.16 4.21-7.75 12.61-3.54 18.77 4.2 6.18 12.6 7.75 18.77 3.55 1.78-1.22 156.68-105.57 286.7-96.86-46.07 12.22-97.14 29.76-106.41 49.09-3.23 6.73-.4 14.8 6.33 18.03 6.69 3.27 14.79.39 18.02-6.33 7.78-12.19 81.62-34.71 145.66-47.99l44.09-9.13-41.84-16.65c-2.54-1.01-5.11-1.96-7.68-2.86M2479.33 2760.14s17.37 6.41 43.72 9.45c13.17 1.66 28.57 2.7 45.05 2.1 16.47-.9 33.93-3.97 51.4-6.27 34.88-4.88 69.88-11.2 95.03-21.02 12.53-4.78 22.73-10.21 28.58-15.99 2.88-2.84 4.94-5.48 5.7-7.61.85-2.04 1.31-3.13 1.31-3.13l-.71-1.73-1.61.49-.23.35-1.58 2.41c-.87 1.6-3.03 3.54-5.92 5.53-5.92 3.99-15.84 7.8-28.32 10.47-12.47 2.72-27.39 4.52-43.42 6.07-16.05 1.46-33.29 2.26-50.56 2.62-17.26.47-34.61-.7-50.78-.31-16.17.69-31.25 2.42-44.22 4.41-25.91 3.73-43.39 9.46-43.39 9.46l-.91 1.8.86.9M1930.2 2402.72l.59 26.91c1.78 81.96 192.41 211.95 214.14 226.51 6.21 4.14 14.6 2.48 18.75-3.72 4.14-6.19 2.49-14.59-3.72-18.74-45.81-30.69-151.82-110.07-189-169.4 78.64 52.88 90.8 47.9 96.36 45.62 6.91-2.82 10.22-10.71 7.4-17.61-2.47-6.04-8.8-9.33-14.94-8.18-13.02-2.63-65.39-35.7-107.65-65.78l-21.93-15.61M2211.83 2644.64s-1.55-15.45-8.25-36.03c-3.25-10.34-7.53-22.11-13.29-34.12-5.99-11.9-13.91-23.88-20.47-36.52-6.61-12.59-13.09-25.29-18.64-37.38-5.53-12.1-10.76-23.42-14.51-33.34-1.98-4.95-3.7-9.52-4.88-13.64-1.21-4.12-2.65-7.7-3.19-10.7-1.39-6.06-2.18-9.52-2.18-9.52l-.04-.18-1.61-1.01-1.05 1.33s.06 3.66.15 10.07c-.12 3.28.61 7.06 1.11 11.51.45 4.48 1.35 9.42 2.44 14.79 1.97 10.82 5.06 23.24 9.12 36.26 3.9 13.1 8.62 26.84 13.5 40.53 5.02 13.62 9.23 27.65 14.89 40.01 5.97 12.2 12.84 22.93 19.4 31.74 12.88 17.76 25.12 27.49 25.12 27.49l2.06-.24.32-1.05" fill="#040606"/><path d="M2300.97 2934.64c-38.1-13.28-237.91-72.15-199.12-144.48 38.79-72.32 42.9-125.08 90.42-92.16 47.53 32.93 87.8 215.05 104.18 188.56 16.38-26.48 31.45-162.16 48.27-118.02 16.81 44.13 65.73 154.16 81.82 141.88 16.08-12.28 36.23-80.36 46.76-69.54 10.54 10.82 16.39 2.23 5.81 55.19-10.58 52.95-178.14 38.57-178.14 38.57" fill="#ef3536"/><path d="M2534.22 2891.33l-14.16-4.93c2.26-6.5 3.36-13.23 3.36-20.33.02-14.11-4.48-29.85-13.67-46.34-13.73-24.73-37.94-50.78-70.18-74.34-32.23-23.6-72.4-44.79-117.73-60.58-50.51-17.6-100.16-25.96-143.36-25.95-36.57-.02-68.47 6.04-92.12 16.83-11.84 5.38-21.6 11.9-29.09 19.25-7.51 7.37-12.79 15.51-16 24.67-2.26 6.51-3.36 13.24-3.37 20.33-.01 14.12 4.49 29.85 13.68 46.35 13.72 24.72 37.94 50.77 70.18 74.34 32.22 23.6 72.39 44.79 117.73 60.57 50.5 17.61 100.16 25.96 143.36 25.95 36.57.03 68.47-6.03 92.12-16.83 11.83-5.38 21.59-11.89 29.09-19.25 7.5-7.37 12.79-15.5 16-24.67l14.16 4.93 14.17 4.94c-4.8 13.81-12.89 26.02-23.33 36.23-15.7 15.36-36.5 26.39-60.62 33.72-24.14 7.31-51.73 10.92-81.59 10.93-47.03-.01-99.74-9-153.23-27.62-64-22.32-118.56-54.71-157.78-91.2-19.6-18.26-35.39-37.57-46.47-57.45-11.06-19.87-17.45-40.45-17.47-60.94 0-10.24 1.63-20.42 5.04-30.2 4.8-13.81 12.89-26.01 23.33-36.23 15.7-15.35 36.5-26.38 60.61-33.71 24.14-7.31 51.73-10.93 81.6-10.93 47.02.01 99.74 8.99 153.23 27.61 64 22.32 118.56 54.72 157.78 91.2 19.6 18.27 35.39 37.57 46.47 57.46 11.05 19.86 17.45 40.44 17.46 60.93.01 10.25-1.63 20.43-5.03 30.2l-14.17-4.94" fill="#040606"/><path d="M2519.05 5948.3c-175 200.8-512.36 193.21-753.5-16.95-9.41-8.2-18.43-16.65-27.26-25.21-10.33 15.7-21.77 30.8-34.34 45.23-197.7 226.83-599.13 200.53-896.63-58.75-210.613-183.56-312.496-434.63-283.992-646.14-33.734-19.67-66.555-43.02-97.687-70.15-206.324-179.82-261.175-454.57-122.52-613.67 138.66-159.09 418.325-142.29 624.65 37.53 1.343 1.17 2.543 2.43 3.875 3.61l9.043-6.26s-2.028 3.64-5.778 9.31l.555.52c144.355-189.96 226.555-387.21 211.315-595.89l1208.44 420.96c-86.2 142.12-138 307.58-162.84 491.33 23.25 14.36 45.82 30.87 67.33 49.62 78.46 68.38 129.92 154.44 151.88 241.96 230.52 210.64 279.43 535.65 107.46 732.95" fill="#ecf8f6"/><path d="M270.906 4971.44s222.344-332.02 438.86-132.61c0 0 1113.544 368.83 995.174 937.98l-5.15 115.92s318.67-478.49 303.63-548.26c-15.05-69.77 466.7 162.58 466.7 162.58-104.15-72.21-243.87-237.37-151.64-392.61 37.6-63.29-513.78-54.92-513.78-54.92s-778.77-385.71-798.39-331.27c-19.626 54.45-347.994-267.1-400.306-210.35-52.313 56.74-269.422-67.82-335.098 453.54" fill="#c2dfe2"/><path d="M1161.45 4030.89l1173.69 408.86c-78.56 134.58-131.07 296.7-156.14 482.22l-1.19 8.69 7.48 4.61c23.04 14.23 45.09 30.48 65.55 48.31 73.19 63.79 125.61 147.26 147.64 235.05l.99 3.95 3 2.74c227.49 207.87 274.23 521.54 106.41 714.11-169.84 194.85-499.3 186.67-734.45-18.27-8.3-7.22-16.79-15.09-26.75-24.73l-11.72-11.35-8.96 13.63c-10.1 15.36-21.28 30.08-33.23 43.77-192.49 220.86-586.17 193.94-877.567-60.05-201.45-175.56-308.543-418.56-279.48-634.14l1.2-8.94-7.786-4.54c-33.71-19.65-65.88-42.75-95.62-68.67-200.376-174.63-254.755-441.38-121.208-594.6 133.194-152.82 403.776-135.9 603.987 37.45l-.027.04 19.453 17.77 9.5-11.26c153.087-201.46 223.627-392.94 215.227-584.65zm1213.96 394.28l-1243.6-433.21 1.49 20.5c13.67 187.08-51.01 374.39-197.616 572.11l-2.954 2.05c-211.253-181.26-497.34-196.27-639.796-32.84-143.33 164.47-87.782 448.31 123.828 632.74 28.75 25.04 59.683 47.57 92.058 67.07-26.203 222.22 84.164 470.14 289.625 649.22 302.685 263.75 713.435 289.51 915.685 57.43 9.25-10.6 18.06-21.78 26.33-33.38 5.66 5.3 10.97 10.1 16.21 14.68 246.41 214.72 592.95 221.74 772.57 15.64 176.82-202.87 130.29-531.19-105.56-749.07-23.92-91.64-78.88-178.48-155.1-244.9-19.33-16.85-40.03-32.38-61.62-46.23 25.94-184.8 79.69-345.44 159.81-477.53l8.64-14.28" fill="#040606"/><path d="M765.57 4704.21c-20.32-7.07-44.68-11.8-73.894-12.64l-.87 30.46c124.448 3.61 142.913 83.99 143.635 87.41l2.2 10.42 10.567 1.62c451.183 64.67 745.043 219.22 873.393 459.38 156.56 292.98 5.5 615.46 3.94 618.68l27.48 13.2c1.6-3.36 159.34-339.19-4.4-645.96-132.19-247.63-430.46-407.11-886.64-474.1-7.77-20.76-31.55-66.21-95.41-88.47" fill="#040606"/><path d="M919.203 4601.26c-9.105 6.31-82.762 86.41-125.85 133.59l22.5 20.55c42.436-46.47 112.838-122.68 121.096-129.38l-17.747-24.76M2178.01 4918.69c-46.75 132.25-90.77 260.59-91.22 261.87l28.83 9.89c.43-1.29 44.41-129.49 91.13-261.6l-28.74-10.16" fill="#040606"/><path d="M2214.66 5186.42c-237.51-82.74-484.91 75.06-487.8 76.94l16.61 25.54c3.2-2.07 323.04-205.56 571.03-13.8l18.65-24.1c-38.38-29.69-78.3-50.58-118.49-64.58" fill="#040606"/><path d="M2944.27 4015.84c39.42-113.16 11.03-225.91-63.35-251.82-49.63-17.29-107.31 8.68-151.86 61.4 9.22-68.75 8.86-137.54-.19-204.78l.09-.26c-24.61-183.96-114.07-356.32-252.64-485.42-169.81-401.63-491.87-309.53-668.38-219.24-184.1 21.71-355.17 104.6-483.09 234.85l-.17.08c-38.73 39.3-73.36 82.89-103.36 130.38-6.62-59.82-34.61-107.2-79.52-122.84-74.38-25.91-166.67 44.8-206.093 157.96-39.422 113.16-11.074 226.03 63.305 251.94 37.888 13.2 80.438 1.13 118.258-28.61-79.84 386.91 145.42 785.83 538.99 922.93 399.31 139.1 830.26-40.52 1003.35-403.54 8.22 56.08 35.65 100.12 78.52 115.05 74.38 25.91 166.72-44.92 206.14-158.08" fill="#f8a498"/><path d="M2658.65 4060.83c-189.86 322.83-594.93 475.42-971.8 344.14-393.44-137.06-618.83-536.02-538.85-922.88-37.96 29.69-80.5 41.77-118.27 28.61-74.503-25.95-102.718-138.78-63.3-251.94 1.957-5.62 4.04-11.19 6.203-16.58-14.688 21.63-27.37 46.54-36.926 73.97-39.422 113.16-11.074 226.03 63.305 251.94 37.888 13.2 80.438 1.13 118.258-28.61-79.84 386.91 145.42 785.83 538.99 922.93 398.55 138.83 828.76-39.9 1002.39-401.58" fill="#f68d79"/><path d="M2659.65 4059.17l-.04-.3-.96 1.96 1-1.66" fill="#f8a498"/><path d="M1149.54 3391.3c-2.13-.74-4.57-.53-6.61.79l-35.91 23.25c-29.99 19.41-66.53 23.81-100.26 12.06l-11.467-4c-3.95-1.37-8.266.71-9.645 4.66-1.375 3.95.71 8.27 4.66 9.64l11.472 4c38.17 13.3 79.53 8.32 113.46-13.65l35.92-23.24c3.51-2.28 4.51-6.97 2.24-10.47-.95-1.48-2.33-2.51-3.86-3.04" fill="#040606"/><path d="M1020.81 3350.14l-.15-.05c-2.16-.66-4.44.56-5.11 2.72l-1.86 6.09c-6.22 20.38-2.19 42.21 11.03 59.89l13.98 18.68c1.35 1.8 3.92 2.17 5.73.82 1.81-1.35 2.18-3.92.82-5.73l-13.97-18.68c-11.65-15.56-15.21-34.73-9.76-52.58l1.86-6.1c.65-2.1-.5-4.34-2.57-5.06M2845.57 4035.04c-2.06-.72-4.35.32-5.15 2.38l-2.34 5.93c-6.82 17.37-21.5 30.18-40.31 35.14l-22.56 5.95c-2.19.58-3.49 2.83-2.91 5.01.59 2.21 2.81 3.49 5.01 2.92l22.55-5.95c21.04-5.56 38.18-20.53 45.84-40.08l2.34-5.93c.83-2.1-.22-4.48-2.32-5.31l-.15-.06" fill="#040606"/><path d="M2721.11 3981.68c-1.55-.54-3.26-.59-4.91-.02-3.97 1.33-6.1 5.63-4.76 9.59l13.7 40.53c12.94 38.3 42.26 67.9 80.43 81.19l11.47 4c3.95 1.37 8.26-.71 9.64-4.66 1.37-3.95-.71-8.27-4.66-9.65l-11.46-3.99c-33.73-11.75-59.64-37.9-71.07-71.74l-13.7-40.53c-.78-2.3-2.55-3.98-4.68-4.72" fill="#040606"/><path d="M1354.94 3938.19s180.06 263.01 256.99 261.19c76.93-1.81-233.29-329.23-233.29-329.23l-23.7 68.04" fill="#072526"/><path d="M1362.44 3937.18l18.92-54.31c107.25 114.04 247.15 280.12 235.64 307.77-.19.47-.78 1.89-5.23 1.99-59.28 1.39-198.16-181.22-249.33-255.45zm13.47-79.73l-28.47 81.74 1.92 2.81c7.44 10.87 183.08 265.94 262.74 264.14 11.5-.28 15.82-6.57 17.38-10.31 19.47-46.8-201.45-283.38-245.94-330.33l-7.63-8.05" fill="#040606"/><path d="M2299.15 4224.19s-304.5 94.21-363.65 44.99c-59.16-49.22 387.35-113.03 387.35-113.03l-23.7 68.04" fill="#072526"/><path d="M1952.88 4270.96c-5.26-1.83-9.65-4.14-13.06-6.97-3.42-2.84-3-4.33-2.86-4.81 8.16-28.82 220.97-72.04 375.86-94.75l-18.92 54.31c-79.76 24.4-275.98 74.88-341.02 52.22zm380.01-123.07l-10.98 1.57c-64.03 9.15-384.14 57.27-397.95 106.04-1.1 3.89-1.63 11.51 7.21 18.87 61.33 50.97 357.4-39.83 369.98-43.73l3.26-1.01 28.48-81.74" fill="#040606"/><path d="M1605.46 3377.05s234-263.04 366 87.49c-109.58-81.61-232.11-108.55-366-87.49M2056.38 3490.43s282.07-210.67 340.96 159.23c-90.95-101.96-205.57-152.96-340.96-159.23M2134.7 3670.97c21.27-61.06-38.14-137.27-132.7-170.21-94.57-32.94-188.47-10.14-209.74 50.92-21.27 61.06 38.14 137.27 132.71 170.21 94.56 32.94 188.46 10.15 209.73-50.92" fill="#f68d79"/><path d="M2471.09 3774.72c27.27-78.3-56.34-178.6-186.75-224.04-130.41-45.43-258.25-18.78-285.52 59.52-27.28 78.3 56.33 178.61 186.74 224.04 130.42 45.43 258.25 18.78 285.53-59.52M1958.29 3550.33c13.33-81.84-86.35-166.19-222.66-188.4-136.3-22.21-257.61 26.13-270.94 107.97-13.34 81.83 86.35 166.18 222.65 188.39 136.31 22.21 257.61-26.13 270.95-107.96" fill="#f68674"/><path d="M1973.63 3517.15s.42-3.11.82-8.81c.28-2.88.42-6.35.56-10.43.32-4.01.24-8.87-.71-14.49-.77-5.53-1.5-12.03-2.84-18.88-1.7-6.46-3.63-13.56-6.04-21.14-2.49-7.52-6.26-15-9.94-23.28-4.07-7.99-9.21-15.93-14.62-24.37-11.77-15.94-26.35-32.65-45.16-46.42-18.2-14.63-40.67-26.02-65.16-33.49-24.54-7.69-51.58-8.88-77.97-6.99l-19.8 2.32c-6.56 1.01-13.05 2.61-19.52 3.95-6.51 1.25-12.87 3.01-19.17 5l-9.44 2.86-4.7 1.44-4.1 1.32-1.94.84-7.8 3.26c-2.79 1.19-7.2 3.42-10.65 5.17-7.8 3.72-13.04 7.82-19.3 11.91-11.64 8.81-22.02 18.93-30.69 30.13-17.24 22.53-27.11 49.19-29.37 75.18-1.35 12.97-.67 25.8 1.42 37.93 1.12 6.07 2.31 12 4.25 17.65l1.33 4.24.68 2.1.17.52c.72 2.33.25.77.44 1.34l.09.21.38.85c1.13 2.42 1.65 3.88 3.64 7.75 12.85 24.95 34.51 38.38 55.67 42.82 10.56 2.24 20.96 2.04 30.29.19 9.08-1.89 18.64-4.94 26.05-11.47 14.77-12.55 17.34-30.5 14.17-42.28-1.13-5.53-4.62-12.18-8.92-15.35-4.17-3.42-8.6-4.74-12.08-5.13-7.11-.62-10.41 1.52-10.41 1.3-2.51.71-3.98 3.33-3.27 5.84s3.33 3.97 5.84 3.26c-.04.11 2.2-.53 5.58.73 1.64.63 3.53 1.86 4.85 3.8 1.39 2.04 1.77 3.77 1.86 8.01.06 7.29-4.15 16.04-12.05 19.87-7.16 3.58-21.45 3.22-32.38-1.64-5.64-2.48-10.88-6.18-15.08-10.86-4.03-4.43-7.48-11.03-8.56-15.73-3.25-13.86-3.97-31.62.87-46.88 4.24-15.71 13.41-29.93 24.74-41.2 5.87-5.52 12.44-10.1 19.32-13.89 3.48-1.41 7.53-3.76 10.18-4.24 1.7-.48 2.28-.89 4.78-1.59l8.18-2.13 12.54-1.55 6.92-.94 6.99-.01c4.65.11 9.22-.17 13.77.16l13.51 1.53c17.73 3.15 34.41 7.16 50.02 12.67 15.61 5.21 30.87 10.29 44.95 16.95 14.39 6.17 27.15 14.09 39.55 21.57 5.58 4.33 11.74 8.03 17.04 12.2 5.37 4.35 10.47 8.46 15.26 12.33 4.48 4.27 9 8.25 13.27 12.05 3.94 3.88 7.56 7.45 10.83 10.67 7.06 6.27 11.95 13.89 15.9 17.79 3.78 4.29 6 6.51 6 6.51 2.06 2.06 5.4 2.05 7.46-.01.85-.85 1.35-1.92 1.5-3.02" fill="#072526"/><path d="M1966.93 3516.25l6.7.89-6.7-.89v-.01.01zm-376.91-4.12l.17-.08-1.98-6.26c-1.9-5.52-3.04-11.35-4.05-16.86-2.11-12.21-2.57-24.35-1.35-36 2.22-25.61 12.17-51.06 28.01-71.77 8.17-10.57 18.08-20.28 29.4-28.86l4.34-2.89c4.34-2.96 8.43-5.75 13.79-8.3 3.47-1.76 7.72-3.91 10.4-5.05l17.87-6.62 9.43-2.86c7.11-2.24 12.96-3.77 18.47-4.83l6.12-1.31c4.37-.95 8.75-1.91 13.16-2.6l19.55-2.28c29.32-2.1 54.01.1 75.17 6.72 23.94 7.38 45.73 18.49 62.95 32.32 15.63 11.45 29.93 26.16 43.96 45.15l.57.94c5.02 7.82 9.75 15.21 13.46 22.5l2.74 6.05c2.61 5.7 5.08 11.07 6.81 16.29 2.34 7.38 4.24 14.38 5.92 20.73.9 4.71 1.56 9.64 2.15 14.09l.54 4.01c.77 4.62.98 8.94.65 13.01-.14 4.23-.27 7.55-.54 10.31-.16 2.24-.33 4.06-.46 5.44-.92-.99-2.11-2.3-3.53-3.92-1.7-1.7-3.2-3.58-4.89-5.68-3.05-3.78-6.85-8.48-11.59-12.69l-12.15-11.84c-3.81-3.39-7.81-6.94-11.78-10.72l-15.67-12.69c-2.88-2.26-5.9-4.34-8.96-6.44-2.75-1.88-5.54-3.79-8.18-5.84l-3.68-2.28c-11.65-7.04-23.7-14.32-37.35-20.17-14.15-6.7-29.22-11.71-45.2-17.06-14.74-5.2-31.76-9.52-51.26-13l-13.93-1.59c-3.25-.24-6.24-.22-9.25-.19-1.7.01-3.41.03-5.13-.01l-7.15.01-20.29 2.54-9.05 2.3c-1.75.48-2.7.84-3.56 1.17l-1.33.44c-1.96.33-4.6 1.58-7.39 2.9-1.18.55-2.37 1.12-3.5 1.58-8.53 4.64-15.48 9.66-21.42 15.24-13.15 13.08-22.31 28.37-26.63 44.35-4.61 14.52-4.97 32.92-.92 50.19 1.37 6.03 5.45 13.58 10.13 18.74 4.72 5.25 10.73 9.58 17.36 12.49 12.39 5.55 28.8 6.16 38.13 1.5 10.91-5.29 15.84-17.17 15.77-25.96-.11-5.04-.61-8.2-3.02-11.76l-.89-1.18.51.41c2.92 2.16 5.69 7.1 6.58 11.47 2.84 10.6.19 25.48-11.92 35.78-6.96 6.14-16.48 8.64-23.05 10-9 1.79-18.53 1.74-27.51-.18-12.95-2.73-36.72-11.42-51.07-39.3-1.32-2.56-1.95-3.98-2.57-5.4l-1.91-4.2zm250.99-199.98c-2.8-.97-5.64-1.9-8.5-2.77-22.75-7.13-49.08-9.51-80.43-7.26l-20.1 2.34c-4.93.76-9.58 1.77-14.22 2.78l-5.88 1.26c-5.95 1.14-12.27 2.8-19.82 5.17l-20.82 6.7-7.74 3.24c-2.94 1.25-7.52 3.56-11.11 5.38-6.15 2.92-10.87 6.14-15.43 9.25l-4.5 3.02c-12.66 9.56-23.42 20.12-32.34 31.66-17.41 22.75-28.33 50.7-30.76 78.73-1.33 12.76-.83 26.15 1.49 39.66 1.12 6.08 2.39 12.46 4.53 18.69l1.96 6.22.41 1.17.03.13h.02l.26.62-.08.03 1.59 3.61c.71 1.61 1.42 3.24 2.93 6.14 12.34 23.99 34.31 40.85 60.28 46.33 10.74 2.29 22.16 2.36 32.99.2 8.12-1.68 19.92-4.85 29.2-13.02 16.52-14.05 20.07-34.81 16.22-49.11-1.21-6-5.28-14.48-11.42-19.03-5.44-4.45-11.37-5.98-15.35-6.4-6.93-.61-11.2.84-12.89 1.48l-.11.03c-6.09 1.73-9.65 8.08-7.92 14.17.83 2.96 2.76 5.41 5.44 6.91 1.15.62 2.38 1.06 3.62 1.29l.27.34 1.68-.17 2.26-.22c.33-.04 1.17-.12 2.29.34l1.63 1.28c.36.53.6.89.68 4.35.04 4.72-2.78 11-8.24 13.64-5.12 2.55-17.3 2.43-26.7-1.73-4.91-2.16-9.32-5.34-12.79-9.2-3.44-3.77-6.25-9.43-7-12.72-3.47-14.8-3.2-30.99.72-43.35 3.78-13.96 11.73-27.17 23.07-38.45 4.97-4.67 11.01-9.01 17.81-12.76.63-.2 2.07-.88 3.49-1.55 1.52-.72 3.81-1.81 4.63-1.95 1.6-.42 2.3-.68 3.06-.96.58-.22 1.21-.46 2.32-.77l8.08-2.1 18.66-2.34 6.1.06c1.7.04 3.56.03 5.4.01 2.64-.03 5.26-.06 7.86.13l13.25 1.5c18.35 3.27 33.98 7.37 48.53 12.33 15.96 5.31 30.68 10.24 44.31 16.68 13.02 5.59 24.66 12.62 35.92 19.43l3.04 1.83c2.2 1.77 5.2 3.83 8.17 5.87 2.82 1.92 5.6 3.83 8.18 5.85l15.19 12.28c3.67 3.52 7.78 7.18 11.71 10.67l1.31 1.16 10.59 10.45c4.15 3.7 7.42 7.74 10.3 11.3 2.06 2.57 3.91 4.82 5.58 6.48 3.64 4.15 5.97 6.47 5.97 6.47 2.28 2.29 5.3 3.53 8.52 3.52 3.21.01 6.23-1.25 8.5-3.52 1.88-1.89 3.06-4.27 3.41-6.91.02-.16.45-3.4.87-9.22.28-2.82.43-6.44.57-10.68.4-4.87.14-10.3-.79-15.83l-.5-3.74c-.63-4.7-1.32-9.91-2.39-15.33-1.82-6.97-3.77-14.19-6.22-21.89-1.99-6-4.61-11.7-7.38-17.74l-2.82-6.23c-4.17-8.2-9.09-15.87-14.28-23.98l-.83-1.3c-15.11-20.48-30.35-36.13-46.86-48.22-16.24-13.06-36.45-23.98-58.68-31.73" fill="#040606"/><path d="M2024.73 3541.1s3.12-.36 8.74-1.37c5.52-.61 14.09-3.54 23.51-4.06 4.57-.49 9.62-1.04 15.12-1.64 5.7-.32 11.72-.63 17.88-1.19 6.16-.06 12.71-.12 19.62-.18 6.75.02 13.87.95 20.93 1.03 14.37 1.84 29.29 3.56 44.4 7.66 15.17 3.54 30.28 9.04 45.75 14.65 15.65 5.39 31.22 12.61 47.07 21.16l11.53 7.19c3.78 2.57 7.18 5.62 10.89 8.43l5.47 4.35 4.84 5.03 8.87 9.01 5.08 6.76c1.53 2.09 1.72 2.78 2.75 4.21 1.79 2.02 3.5 6.38 5.35 9.64 3.04 7.25 5.34 14.92 6.51 22.89 1.87 15.88.22 32.71-6.21 47.65-5.7 14.97-17.29 28.44-28.45 37.28-3.76 3.01-10.57 6.04-16.48 7.01-6.2 1.06-12.61.7-18.56-.86-11.59-2.98-23.01-11.58-26.4-18.83-3.81-7.91-1.67-17.38 2.91-23.06 2.71-3.27 4.08-4.39 6.43-5.13 2.24-.69 4.48-.48 6.16.04 3.44 1.12 4.79 3.01 4.83 2.9 1.53 2.12 4.48 2.6 6.6 1.07 2.12-1.53 2.59-4.48 1.07-6.6-.14.17-1.4-3.56-7.35-7.5-2.97-1.85-7.26-3.56-12.66-3.48-5.33-.18-12.2 2.86-16.52 6.49-9.8 7.25-18.94 22.93-15.17 41.93 1.75 9.73 7.35 18.05 13.29 25.17 6.16 7.25 14.19 13.87 23.85 18.67 19.34 9.67 44.65 12.61 70.22 1.04 3.97-1.79 5.28-2.61 7.67-3.82l.82-.42.21-.11c.5-.33-.84.6 1.18-.77l.45-.31 1.84-1.22 3.67-2.49c5.04-3.23 9.65-7.14 14.3-11.19 9.17-8.21 17.68-17.84 24.68-28.84 14.38-21.77 23.21-48.8 23.7-77.16.17-14.17-1.67-28.54-5.33-42.68-2.36-7.09-3.92-13.56-7.72-21.32-1.62-3.51-3.69-8-5.14-10.67l-4.08-7.4-1-1.86-2.39-3.58-2.79-4.05-5.62-8.11c-3.7-5.47-7.59-10.81-11.91-15.83-4.24-5.07-8.33-10.35-12.84-15.22l-14.08-14.12c-19.5-17.88-41.43-33.74-65.44-42.96-23.83-9.37-48.51-14.4-71.86-14.25-23.29-.9-45.1 3.14-64.22 8.31-9.49 3.26-18.46 6.29-26.6 10.02-8.03 4.2-15.63 7.72-22.26 12.07-6.6 4.44-12.52 8.8-17.86 12.8-5.31 4.54-9.92 9.18-13.96 13.03-4.23 3.82-7.32 7.58-9.56 10.92-2.42 3.28-4.47 6.09-6.04 8.52-3.22 4.71-4.83 7.41-4.83 7.41-1.48 2.51-.66 5.74 1.84 7.23 1.04.62 2.2.84 3.3.71" fill="#072526"/><path d="M2027.07 3533.96c.74-1.15 1.71-2.62 2.93-4.4 1.6-2.49 3.56-5.17 5.9-8.32 2.45-3.64 5.3-6.9 8.64-9.92l3.05-2.92c3.23-3.12 6.8-6.58 10.78-9.97 4.92-3.67 10.75-7.98 17.25-12.35 4.52-2.97 9.8-5.65 15.38-8.49l6.23-3.19c7.11-3.25 15.42-6.1 24.21-9.12l1.46-.5c22.36-6.04 42.7-8.68 61.76-7.95 22.39-.13 46.44 4.61 69.66 13.78 20.75 7.98 41.45 21.6 63.33 41.66l13.87 13.91c2.83 3.07 5.65 6.52 8.46 9.96l3.99 4.84c3.73 4.34 7.37 9.17 11.49 15.26l11.44 17.02 4.12 7.46c1.37 2.53 3.35 6.85 4.91 10.24 2.7 5.49 4.17 10.22 5.73 15.23l1.73 5.39c3.4 13.29 5.13 27.06 4.98 40.48-.46 26.03-8.47 52.16-22.59 73.5-6.34 9.98-14.24 19.21-23.54 27.53-4.18 3.65-8.72 7.52-13.44 10.54l-1.72 1.17-.01-.02-7.99 4.95c-1.34.7-2.71 1.43-5.26 2.58-28.57 12.92-52.61 5-64.43-.93-8.23-4.09-15.74-9.97-21.72-17.01-4.26-5.11-10.17-13-11.79-21.99-3.1-15.71 4.06-29.02 12.55-35.3 3.73-3.13 8.98-5.28 12.28-5.17l.96.01-1.38.36c-4.15 1.3-6.49 3.47-9.65 7.27-5.56 6.92-9.08 19.29-3.78 30.3 4.38 9.38 17.57 19.07 30.8 22.44 6.96 1.83 14.37 2.18 21.37.98 6.83-1.12 14.71-4.5 19.58-8.4 13.86-10.99 25.01-25.63 30.54-40.14 6.43-14.93 8.76-32.61 6.59-50.86-1.2-8.25-3.54-16.5-6.97-24.7-.97-1.79-1.55-2.98-2.13-4.15-1.37-2.77-2.65-5.38-4.38-7.35l-.35-.65c-.48-.8-1-1.67-2.03-3.08l-5.14-6.83-14.22-14.66-6.15-4.96c-1.5-1.13-2.81-2.2-4.14-3.26-2.34-1.9-4.67-3.78-7.15-5.46l-11.76-7.35c-17.8-9.61-33.42-16.63-48.44-21.8-15.98-5.84-30.93-11.26-46.42-14.85-14.1-3.83-28.06-5.62-41.57-7.34l-3.5-.44c-4.14-.09-7.51-.33-10.84-.57-3.69-.25-7.36-.5-10.92-.51l-19.71.18c-6 .52-11.35.81-16.44 1.1l-1.75.1-15.47 1.67c-5.99.32-11.88 1.64-16.62 2.7-2.64.6-4.97 1.14-6.9 1.35-2.36.42-4.25.73-5.67.95zm223.79-79.03c-22.2-7.74-44.86-11.74-65.99-11.6-20.14-.78-41.8 2.01-65.94 8.54l-1.88.63c-9.12 3.13-17.73 6.08-25.77 9.77l-6.4 3.28c-5.93 3.01-11.52 5.85-16.74 9.27-6.77 4.56-12.79 9-18.21 13.06-4.54 3.86-8.32 7.5-11.73 10.8l-2.84 2.74c-4.04 3.64-7.61 7.73-10.51 12.04-2.34 3.17-4.48 6.1-6.1 8.63-3.28 4.79-4.96 7.62-4.96 7.62-1.64 2.75-2.11 5.99-1.32 9.11.79 3.12 2.75 5.74 5.52 7.38 2.25 1.34 4.9 1.9 7.5 1.61h.02s3.27-.37 9.16-1.44c1.88-.19 4.72-.8 7.93-1.53 4.47-1 9.54-2.14 14.76-2.42l16.88-1.74c5.24-.3 10.74-.61 16.35-1.11l19.07-.15c3.19.01 6.55.25 9.96.49 3.59.24 7.23.5 10.84.53l2.73.39c13.04 1.67 26.53 3.39 39.97 7.04 14.92 3.47 29.51 8.77 44.93 14.38 14.9 5.21 29.67 11.8 46.45 20.85l11.17 6.98c1.95 1.33 3.97 2.99 6.03 4.65 1.43 1.15 2.86 2.31 4.34 3.43l5.36 4.26 13.09 13.49 4.5 6.08 1.31 1.99 1.36 2.1c.97 1.15 2.09 3.42 2.82 4.92.71 1.42 1.42 2.85 2.15 4.12 2.63 6.43 4.67 13.57 5.69 20.52 1.84 15.71-.13 31-5.74 44.01-4.72 12.39-14.56 25.25-26.43 34.65-2.67 2.15-8.39 4.83-13.39 5.64-5.16.88-10.59.63-15.74-.73-10.11-2.66-19.61-10.05-21.99-15.15-2.67-5.54-.99-12.21 2.04-15.97 2.14-2.58 2.56-2.71 3.19-2.91l2.14.04c1.53.37 1.68.9 1.91 1.12l1.48 1.46 1.35 1.32.47-.12c3.79 2.03 8.48 1.87 12.17-.77 5.14-3.73 6.29-10.92 2.6-16.05l-.07-.08c-1-1.68-3.44-5.4-9.04-9.1-3.52-2.2-9.12-4.71-16.48-4.6-7.31-.25-15.78 3.87-20.77 8.09-11.58 8.54-21.69 27.01-17.46 48.39 2.18 12.04 9.46 21.86 14.74 28.2 7.19 8.47 16.19 15.5 26.03 20.39 23.72 11.83 51.43 12.27 76.03 1.14 2.88-1.3 4.45-2.12 5.96-2.93l3.72-1.96-.03-.03 1.23-.76 5.97-4.02c5.32-3.43 10.3-7.66 14.94-11.69 10.29-9.2 18.99-19.38 25.92-30.32 15.45-23.36 24.26-52.04 24.76-80.65.17-14.65-1.7-29.61-5.54-44.49l-1.77-5.58c-1.64-5.28-3.34-10.74-6.42-17.02-1.62-3.51-3.77-8.16-5.28-10.93l-10.63-17.49-5.62-8.12c-4.39-6.49-8.33-11.71-12.34-16.39l-3.83-4.64c-2.99-3.66-5.98-7.31-9.19-10.77l-14.25-14.3c-23.37-21.44-45.47-35.93-67.79-44.5-2.77-1.09-5.56-2.12-8.35-3.09" fill="#040606"/><path d="M2728.87 3620.64l.09-.26c-24.61-183.96-114.07-356.32-252.64-485.42-169.81-401.63-491.87-309.53-668.38-219.24-184.1 21.71-355.17 104.6-483.09 234.85 7.4-4 245.06-129.36 278.61-117.67 33.94 11.82 131.95-23.14 131.95-23.14s310.39-151.81 378.51-128.08c68 23.69 269.27 198.67 321.98 307.73 52.62 108.88 91.7 65.27 91.7 65.27l201.27 365.96" fill="#f68d79"/><path d="M2737.7 4175.15c14.98 5 30.99 6.41 46.62 4.58 15.73-1.69 30.58-7.54 44.64-14.36 13.97-7.19 26.72-16.47 38.58-26.69 11.65-10.46 22.46-21.87 31.95-34.31 4.76-6.21 9.51-12.43 13.6-19.12 4.42-6.46 8.37-13.21 12.05-20.11 7.65-13.62 14.08-28.17 19.52-42.59 5.58-14.7 9.91-29.71 13.41-45 1.81-7.62 2.77-15.42 4.3-23.11.99-7.77 1.9-15.57 2.59-23.39.8-15.67 1.09-31.47-.88-47.15-1.38-15.73-5.18-31.22-10.06-46.34-5.31-15.03-12.74-29.36-22.27-42.44-9.96-12.65-22.56-23.74-37.36-31.47l-10.61-4.79c-4.67-1.59-8.05-2.67-12.23-3.69-8.05-1.7-16.29-2.9-24.52-2.65-16.48.12-32.76 3.81-47.73 10.08-30.09 12.57-55.49 33.59-76.5 57.61l14.34 6.34 5.5-47.93 2.54-48.23-.42-48.33-3.39-48.25-6.57-47.94-9.46-47.47-12.3-46.84-15.09-46.04-17.8-45.08-20.44-43.96-22.99-42.71-25.67-41.16-28.06-39.58-30.3-37.88-32.44-36.08-34.47-34.16 3.31 4.73c-7.33-15.67-13.66-31.76-21.82-47.06l-11.87-23.13-13.08-22.52c-4.22-7.59-9.01-14.86-13.89-22.08-4.96-7.16-9.31-14.71-14.78-21.54l-15.8-20.89-17.14-19.91c-11.88-12.86-24.09-25.53-37.55-36.89-6.47-5.98-13.38-11.45-20.48-16.68-6.92-5.48-14.08-10.63-21.6-15.29-7.33-4.94-14.8-9.65-22.66-13.74-7.68-4.4-15.49-8.55-23.62-12.06-7.97-3.87-16.1-7.36-24.46-10.29-8.21-3.33-16.61-6.08-25.14-8.47-16.92-5.14-34.3-8.63-51.73-11.18-17.45-2.61-35.03-3.73-52.59-4.16-8.77-.11-17.53.24-26.3.34-8.72.65-17.48 1.09-26.17 1.93-17.37 1.87-34.67 4.31-51.72 7.79-68.36 13.62-133.37 38.99-194.64 70.46l4.39-1.34-44.85 6.68-44.42 9.09-43.85 11.47-43.16 13.84-42.34 16.15-41.33 18.58-40.21 20.84-39 23.01-37.64 25.15-36.16 27.2-34.56 29.18-32.85 31.07-31.02 32.89-29.08 34.58-27.03 36.19-24.91 37.66 15.74 3.63c-2.21-18.25-6.41-36.37-13.14-53.71-6.99-17.19-16.41-33.81-29.67-47.48-6.54-6.85-13.9-13.06-22.14-17.96-3.84-2.61-8.73-4.78-12.93-6.79l-6.2-2.43c-2.69-1.08-4.73-1.34-7.13-2.05-18.42-5.22-38.07-4.92-56.29-.47-18.21 4.69-34.98 13.1-50.2 23.33-15.42 10.1-28.63 22.91-40.886 36.29-12.243 13.48-22.532 28.48-32.004 43.88-8.953 15.54-17.29 32.11-23.48 48.8l-4.696 12.46-4.016 13.08c-2.906 8.55-4.715 17.4-6.832 26.16-3.722 17.63-6.234 35.56-6.703 53.63-.992 18.04.703 36.18 3.578 54.04 3.087 17.87 8.81 35.33 16.853 51.71 8.012 16.38 19.383 31.47 34.004 42.86 7.23 5.62 15.793 10.98 23.808 14.01 8.455 4.11 17.595 6.11 26.775 7.27 18.43 2.14 37.13-.78 54.22-7.17 17.21-6.23 32.98-15.71 47.29-26.8l-6.84-4.23-11.77 72.9-4.79 73.72c.76 24.61 1.16 49.26 2.23 73.86 3.07 24.44 5.57 48.98 9.12 73.35 5.22 24.06 9.47 48.41 15.53 72.3 7.44 23.49 13.61 47.47 22.13 70.62l13.83 34.36c4.85 11.34 8.6 23.21 14.66 34l16.8 33.04c5.71 10.96 10.81 22.28 17.77 32.53l19.65 31.46c6.54 10.5 12.89 21.15 20.69 30.77l22.35 29.65 11.19 14.83c3.75 4.93 8.18 9.29 12.23 13.96 32.35 37.52 67.86 72.33 106.31 103.65l29.55 22.63 14.78 11.3c5.02 3.63 10.42 6.73 15.61 10.11l31.45 19.9c10.43 6.71 20.87 13.42 32.22 18.76l33.36 17.1c11.14 5.59 22.16 11.84 33.61 15.94l34.05 13.73 17.02 6.87 8.51 3.43c3.94 1.38 6.21 1.93 9.39 2.93 23.8 7.04 47.46 14.68 71.46 20.89l73.1 14.2 74.05 7.47c24.79.69 49.61.63 74.39.95 24.74-1.29 49.44-3.76 74.14-5.61 24.54-3.29 48.85-8.37 73.24-12.51 24.08-5.69 47.84-12.76 71.73-19.08 23.44-7.87 46.47-16.96 69.67-25.38 22.57-10.02 44.72-21.02 67.05-31.48 21.48-12.15 42.6-24.94 63.87-37.36l60.15-42.98 55.82-48.35 51-53.29 46.04-57.54 40.55-61.49 34.58-65.02-3.77-.57c3.73 24.29 11.12 48.33 24.16 69.39 6.51 10.48 14.47 20.14 23.89 28.18 2.26 2.13 4.85 3.85 7.32 5.71 2.42 1.94 5.22 3.34 7.81 5.03 5.41 3.14 11.15 5.63 16.83 7.72zm.95-2.53c-5.77-2.18-11.21-4.63-16.34-7.67-2.5-1.66-5.2-3.04-7.54-4.94-2.38-1.84-4.88-3.52-7.06-5.61-9.08-7.89-16.75-17.35-23.02-27.64-12.55-20.66-19.61-44.31-23.06-68.21l-.85-5.93-2.92 5.36-34.94 64.35-40.82 60.75c-15.26 19.02-30.86 37.79-46.49 56.48l-51.81 51.56-56.33 46.45-60.36 40.94c-21.3 11.73-42.38 23.83-63.78 35.22-22.26 9.73-44.26 19.98-66.64 29.26-23.01 7.67-45.79 16.01-68.91 23.13-23.58 5.58-46.97 11.91-70.62 16.88-23.95 3.51-47.8 7.56-71.75 10.67-24.12 1.5-48.21 3.65-72.33 4.65-24.15-.62-48.32-.83-72.43-1.75l-71.98-8.09-70.91-14.62c-23.22-6.48-46.25-13.73-69.45-20.38l-8.17-2.42-8.53-3.38-17.06-6.76-34.13-13.53c-11.69-4.11-22.01-10.01-32.76-15.33l-32.08-16.23c-10.89-5-21.08-11.49-31.28-17.97l-30.72-19.17c-5.07-3.26-10.35-6.24-15.26-9.74l-14.44-10.92-28.89-21.85c-37.91-29.88-73.24-63.07-105.5-99.12-4.05-4.49-8.47-8.66-12.22-13.41l-11.19-14.28-22.4-28.56c-7.84-9.27-14.22-19.57-20.81-29.72l-19.84-30.45c-7.03-9.91-12.22-20.89-18.03-31.52l-17.12-32.08c-6.18-10.48-10.05-22.05-15.05-33.09l-14.25-33.49c-8.83-22.58-15.33-46.03-23.14-69.03-6.42-23.39-11.07-47.28-16.71-70.93-3.89-23.97-6.39-48.18-9.66-72.27-1.24-24.27-1.82-48.6-2.78-72.9l4.16-72.86 11.08-72.17 1.67-10.94-8.52 6.71c-13.65 10.75-28.62 19.88-44.8 25.88-16.12 6.07-33.53 8.52-50.4 6.5-8.37-1.1-16.86-3.01-24.367-6.77-8.55-3.37-15.078-7.82-21.816-13-13.367-10.53-23.906-24.59-31.367-40.1-7.485-15.5-12.87-32.13-15.723-49.29-2.644-17.15-4.207-34.61-3.133-52.05.547-17.45 3.086-34.81 6.793-51.88 2.11-8.48 3.9-17.05 6.774-25.32l3.95-12.33 4.894-12.38c6.454-16.52 14.43-31.62 23.4-46.71 9.358-14.68 19.46-28.93 31.326-41.57 11.88-12.55 24.58-24.49 39.09-33.64 14.34-9.31 29.87-16.73 46.2-20.67 16.34-3.69 33.33-3.59 49.02 1.13 1.85.56 4.23 1.02 5.65 1.65l6.16 2.53c3.72 1.92 7.02 3.35 10.5 5.77 6.99 4.28 13.24 9.73 18.86 15.78 22.68 24.47 33.49 58.61 37.08 92.41l2.44 23.08 13.29-19.46 24.9-36.46 26.94-34.95 28.88-33.34 30.73-31.62 32.47-29.81 34.09-27.92 35.59-25.95 36.98-23.91 38.24-21.81 39.36-19.66 40.37-17.49 41.19-15.39 41.97-13.14 42.61-10.83 43.13-8.52 43.51-6.17 2.43-.35 1.97-.99c59.75-30.19 122.84-54.2 188.06-66.71 16.27-3.21 32.68-5.4 49.11-7.06 8.22-.74 16.46-1.08 24.68-1.65 8.23-.03 16.46-.3 24.68-.15 16.41.53 32.79 1.68 48.95 4.22 16.16 2.47 32.2 5.8 47.75 10.66 7.86 2.17 15.61 4.68 23.17 7.73 7.7 2.67 15.19 5.86 22.53 9.42 7.5 3.19 14.7 7.01 21.78 11.05 7.26 3.73 14.16 8.07 20.94 12.63 6.97 4.26 13.61 9.01 20.03 14.09 6.6 4.83 13.04 9.87 19.07 15.45 12.56 10.51 24.01 22.37 35.2 34.4l16.19 18.69 15 19.73c5.2 6.43 9.36 13.66 14.1 20.45 4.67 6.85 9.25 13.75 13.3 21.03l12.59 21.52 11.46 22.21c7.9 14.67 14.06 30.28 21.19 45.37l1.3 2.75 2 1.98 33.43 32.94 31.47 34.82 29.41 36.57 27.25 38.22 25.02 39.71 22.92 40.98 20.49 42.26 17.97 43.42 15.35 44.43 12.68 45.28 9.94 45.98 7.14 46.52 4.56 46.87 1.69 47.09-1.21 47.16-4.1 47.02-2.31 26.48 16.64-20.13c19.11-23.11 42.35-43.29 69.43-55.45 13.47-6.12 27.98-9.69 42.54-10.17 7.3-.43 14.55.49 21.69 1.79 3.38.69 7.43 1.98 10.14 2.7l10.72 4.53c12.84 6.44 24.27 15.84 33.84 27.33 9.05 11.83 16.38 25.06 21.78 39.2 4.97 14.25 9.02 29.01 10.72 44.19 2.29 15.1 2.38 30.47 1.98 45.78-.47 7.65-1.18 15.3-1.96 22.94-1.26 7.57-2.24 15.21-3.91 22.71-3.27 15-7.42 29.91-12.7 44.28-5.38 14.65-11.41 28.64-18.82 42.16-3.55 6.84-7.37 13.52-11.67 19.91-3.95 6.62-8.56 12.78-13.18 18.94-9.21 12.34-19.73 23.65-31.06 34.03-11.53 10.15-23.95 19.36-37.54 26.53-13.67 6.8-28.11 12.66-43.37 14.44-15.17 1.92-30.65.73-45.26-3.97" fill="#040606"/><path d="M2219.99 2850.68c-3.26-1.14-6.53-2.22-9.83-3.26-129.86-41.05-267.25-1.07-359.64 39.69-99.66 43.97-169.93 98.38-170.63 98.92-3.3 2.57-3.88 7.33-1.32 10.62 2.6 3.3 7.36 3.88 10.63 1.32 2.73-2.13 276.11-212.11 516.46-136.1 135.71 43.01 236.21 168.33 298.59 372.72 1.2 4.02 5.46 6.26 9.45 5.03 4-1.22 6.25-5.45 5.03-9.45-62.44-204.56-162.92-332.18-298.74-379.49M2097.71 3234.59c-12.67-4.42-25.51-7.63-38.53-9.63-94.6-14.58-161.97 40.72-164.79 43.08-7.33 6.13-8.31 17.05-2.17 24.38 6.11 7.31 17.01 8.31 24.35 2.2.92-.75 59.12-47.74 137.85-35.37 69.42 10.95 134.5 63.31 193.53 155.76 5.15 8.06 15.85 10.41 23.91 5.27 8.05-5.14 10.42-15.84 5.27-23.9-54.2-84.9-114.42-139.15-179.42-161.79" fill="#040606"/><path d="M2049.78 3166.88s4.54-3.4 11.4-7.66c3.54-2.01 7.63-4.23 12.01-6.2 4.31-2.18 9.23-3.23 13.79-4.31 4.64-1.05 9.25-.96 13.65-.69 4.48 1.1 8.69 1.15 13.14 3.5 4.39 1.05 8.84 4.3 13.56 6.39 4.63 2.53 9.44 6.6 14.41 9.25 4.9 4.01 9.73 8.17 15.03 11.43 4.85 4.51 9.93 8.74 15.1 12.51 5.33 3.42 10.01 8.25 14.99 11.9 4.94 3.76 9.9 7.09 14.7 10.01 9.07 6.71 17.56 11.59 24.02 14.59 6.39 3.07 10.7 4.25 10.7 4.25s.28-6.14-.41-15.88c-.61-9.81-2.23-23.24-5.28-38.49-1.99-7.17-4.41-14.76-7.26-22.55-3.01-7.62-5.78-16.04-10.47-23.1-4.42-7.28-9.01-14.88-14.45-21.64-5.94-6.45-12.46-12.25-19.02-18.01-7.92-4.14-15.07-9.26-23.9-11.42-8.91-2.16-17.69-3.82-27.6-1.93-9.23.43-19.35 5.22-27.98 9.78-4.43 3.04-8.64 5.9-12.54 8.99-3.83 3.55-7.39 7.23-10.64 10.79-12.81 15.18-19.68 30.69-23.15 41.33-3.45 10.9-3.8 17.16-3.8 17.16" fill="#f68d79"/><path d="M2078.02 3169.6s2.88-1.38 7.32-3.01c2.3-.75 4.96-1.57 7.84-2.23 2.82-.78 6.15-.94 9.22-1.14 3.14-.19 6.33.2 9.39.66 3.19.89 6.11 1.23 9.36 2.75 3.12.85 6.44 2.82 9.86 4.23 3.39 1.62 7.03 4.03 10.66 5.73 3.69 2.39 7.35 4.85 11.26 6.89 3.69 2.63 7.52 5.14 11.38 7.42 3.94 2.13 7.54 4.91 11.25 7.12 3.7 2.26 7.38 4.31 10.92 6.14 6.78 4.06 13.02 7.15 17.71 9.14 4.65 2.03 7.73 2.94 7.73 2.94s-.27-3.07-1.47-8.03c-1.16-4.99-3.28-11.88-6.53-19.79-1.91-3.76-4.15-7.77-6.7-11.9-2.66-4.07-5.2-8.52-8.97-12.42-3.6-4-7.35-8.17-11.61-11.98-4.59-3.7-9.54-7.11-14.51-10.5-5.79-2.67-11.11-5.79-17.39-7.53-6.33-1.76-12.52-3.25-19.24-3.03-6.35-.48-13 1.18-18.63 2.83-2.84 1.21-5.54 2.33-8.01 3.6-2.39 1.5-4.57 3.09-6.56 4.64-7.73 6.7-11.33 14-12.93 19.11-1.58 5.23-1.35 8.36-1.35 8.36" fill="#040606"/><path d="M1814.3 3630.89c-96.18 22.18-190 14.42-280.45-36.16l-57.15 214.56c-25.14 72.16 12.98 151.04 85.14 176.18 72.17 25.13 151.04-12.99 176.18-85.15l76.28-269.43M2068.22 3719.34c61.58 77.14 139.92 129.35 242.21 145.91l-88.51 203.63c-25.14 72.17-104.02 110.29-176.18 85.15-72.17-25.14-110.29-104.02-85.15-176.18l107.63-258.51" fill="#f68d79"/><path d="M1781.78 3650.55c-78.25 18.05-150.8.85-224.39-40.3l-50.3 185.46c-20.45 58.71 10.56 122.89 69.28 143.35 58.72 20.45 122.89-10.57 143.35-69.28l62.06-219.23" fill="#fff"/><path d="M1622.3 3647.3c51.21 17.84 100.15 21.71 149.93 12.17l-59.01 208.47c-19.08 54.72-79.52 83.94-134.63 64.74-55.1-19.19-84.32-79.64-65.12-134.75l48.19-177.64c20.67 11.12 40.82 20.11 60.64 27.01zm169.09-5.89l-11.13 2.56c-71.83 16.57-141.63 3.97-219.58-39.62l-7.55-4.22-52.56 193.81c-21.51 61.68 11.44 129.85 73.58 151.5 62.13 21.64 130.3-11.3 151.95-73.44l65.29-230.59" fill="#040606"/><path d="M1719.04 3762.23c16.41-47.12-2.17-96.43-41.51-110.14-39.34-13.7-84.54 13.39-100.95 60.51-16.42 47.12 2.17 96.43 41.51 110.13 39.33 13.7 84.53-13.38 100.95-60.5" fill="#297535"/><path d="M1619.92 3817.46c-36.36-12.67-53.44-58.89-38.07-103.02 15.38-44.14 57.47-69.73 93.84-57.07 36.37 12.67 53.44 58.88 38.07 103.02-15.38 44.13-57.47 69.73-93.84 57.07zm59.45-170.64c-42.19-14.69-90.67 13.99-108.07 63.94-17.4 49.96 2.76 102.55 44.95 117.25 42.18 14.69 90.66-13.99 108.06-63.95 17.4-49.95-2.76-102.54-44.94-117.24" fill="#040606"/><path d="M1681.47 3751.17c5.11-14.68-6.1-31.92-25.04-38.52-18.94-6.6-38.44-.05-43.55 14.62-5.11 14.68 6.1 31.92 25.04 38.52 18.94 6.6 38.44.05 43.55-14.62" fill="#040606"/><path d="M1687.6 3773.2c3.76-10.8-1.85-22.57-12.53-26.29-10.69-3.72-22.4 2.01-26.16 12.81-3.76 10.8 1.85 22.58 12.53 26.3 10.69 3.72 22.4-2.02 26.16-12.82M2081.48 3754.96c50.11 62.76 117.64 94.35 200.87 107.83l-75.82 176.57c-20.45 58.72-84.63 89.73-143.34 69.28-58.72-20.45-89.74-84.63-69.28-143.35l87.57-210.33" fill="#fff"/><path d="M2065.41 4102.26c-55.11-19.19-84.32-79.64-65.12-134.74l83.14-199.64c45.87 53.26 106.48 85.3 189.33 100.12l-72.44 168.69c-19.37 55.55-79.81 84.77-134.91 65.57zm14.23-360.44l-91.97 220.88c-21.79 62.51 11.15 130.68 73.29 152.32 62.13 21.65 130.3-11.3 151.95-73.44l79.05-184.07-8.54-1.39c-88.22-14.28-150.69-47.78-196.65-105.38l-7.13-8.92" fill="#040606"/><path d="M2061.26 3881.44c16.42-47.12 61.62-74.21 100.96-60.5 39.34 13.7 57.92 63.01 41.51 110.13-16.42 47.12-61.62 74.21-100.96 60.5-39.34-13.7-57.92-63.01-41.51-110.13" fill="#297535"/><path d="M2104.61 3986.3c-36.36-12.67-53.44-58.88-38.07-103.02 15.38-44.13 57.47-69.73 93.84-57.06 36.37 12.67 53.43 58.87 38.06 103.01-15.37 44.13-57.46 69.74-93.83 57.07zm59.45-170.64c-42.19-14.69-90.67 13.99-108.07 63.95-17.4 49.95 2.76 102.55 44.95 117.24 42.18 14.7 90.66-13.99 108.07-63.94 17.4-49.95-2.77-102.55-44.95-117.25" fill="#040606"/><path d="M2097.57 3896.12c5.11-14.68 24.61-21.22 43.55-14.63 18.94 6.6 30.15 23.85 25.04 38.52-5.11 14.67-24.61 21.22-43.55 14.62-18.94-6.6-30.15-23.84-25.04-38.51" fill="#040606"/><path d="M2079.08 3909.57c3.76-10.8 15.47-16.53 26.15-12.81 10.69 3.72 16.3 15.49 12.54 26.29-3.76 10.8-15.48 16.54-26.16 12.82-10.68-3.72-16.3-15.5-12.53-26.3" fill="#fff"/><path d="M1795.6 3634.1s-4.97.57-13.67 1.56c-8.59.96-20.67 2.37-34.91 3.56-7.14.51-14.77 1.24-22.84 1.52-8.01.32-16.45.65-25.18 1-8.66.1-17.68.63-26.83.48-9.12-.47-18.54-.7-27.64-2.7-4.58-.89-9.25-1.52-13.78-2.61-4.45-1.37-8.89-2.74-13.29-4.09-9.07-2.21-17.05-6.68-25.2-10.19-8.41-3.14-15.03-8.8-22.25-12.74-7.31-3.91-13.1-9.13-18.73-13.66-5.43-4.74-11.2-8.37-15-12.9l-10.58-11.12c-5.96-6.18-9.37-9.71-9.37-9.71l-.11-.12-1.91-.04-.16 1.75s2.84 4.04 7.83 11.12c2.54 3.56 5.62 7.87 9.15 12.81 3.32 5.18 8.63 9.62 13.62 15.28 5.2 5.46 10.6 11.73 17.67 16.84 6.93 5.22 13.67 11.79 22.2 16.17 8.32 4.69 16.61 10.4 26.15 13.85 4.68 1.98 9.39 3.98 14.12 5.98 4.84 1.7 9.84 2.95 14.79 4.45 9.85 3.43 20.09 4.76 30.15 6.83 10.06 1.75 20.17 2.35 29.88 2.46 9.69-.62 19.1-1.05 27.74-3.21 8.74-1.5 16.78-3.86 24.08-6.31 7.33-2.29 13.77-5.32 19.45-7.8 5.59-2.86 10.41-5.27 14.19-7.77 7.67-4.66 11.52-8.21 11.52-8.21l.13-2-1.22-.48M2073.08 3732.86s.81 5.17 3.92 13.59c1.41 4.31 3.69 9.19 6.29 14.9 2.91 5.48 6.08 11.85 10.4 18.2 4.2 6.45 9.03 13.3 14.94 19.91 5.43 7.06 12.54 13.25 19.75 19.75 7.67 5.95 15.97 11.75 24.94 16.64 9.17 4.62 18.02 9.94 27.87 13.37 4.81 1.91 9.5 4.04 14.35 5.7 4.95 1.38 9.89 2.74 14.78 4.1 9.62 3.22 19.66 3.89 29.09 5.38 9.42 1.88 18.77.91 27.45 1.13 8.72.39 16.84-1.17 24.31-2.22 7.42-1.33 14.35-1.51 20.16-3.5 5.84-1.68 10.94-3.15 15.13-4.35 8.3-2.46 13.05-3.86 13.05-3.86l.91-1.67-1.47-.95-.17.02-13.37 1.79c-4.21.59-9.33 1.31-15.2 2.14-5.79 1.19-12.57.45-19.77.79-7.22.05-15.01.54-23.16-.94-8.1-1.4-16.81-1.07-25.35-3.83-8.57-2.32-17.6-3.77-26.08-7.68-4.29-1.67-8.61-3.36-12.96-5.05-4.22-1.96-8.27-4.37-12.41-6.51-8.38-4.1-15.9-9.77-23.33-15.07-7.26-5.56-14.01-11.58-20.73-17.04-6.63-5.7-13.04-11.2-19.11-16.43-6.15-5.23-11.67-10.54-16.95-15.38-10.42-9.78-19.02-18.39-25.15-24.48l-9.74-9.71h-2l-.39 1.26" fill="#040606"/><path d="M2128.04 3690.11c21.27-61.07-38.15-137.27-132.71-170.21s-188.46-10.15-209.74 50.92c-21.27 61.06 38.15 137.27 132.71 170.21s188.46 10.14 209.74-50.92" fill="#f68674"/><path d="M2127.99 3690.14c21.29-61.11-38.14-137.32-132.67-170.25-94.54-32.93-188.45-10.14-209.74 50.97-6.89 19.77-5.3 41.07 3.27 62.08 21.28-61.11 105.25-87.37 187.53-58.7 82.29 28.66 131.82 101.28 110.66 162.43 19.58-11.06 34.07-26.75 40.95-46.53" fill="#ef7863"/><path d="M2126.76 3689.66s-1.54 3.29-4.44 9.46c-1.54 3.02-4.15 6.36-6.8 10.48-3.41 3.52-6.62 8.3-11.86 11.95-9.6 8.14-23.25 15.82-40.24 20.14-16.87 4.56-36.68 6.53-58 5.12-21.2-1.37-44.38-6.04-66.9-13.08-23.76-7.73-47.1-17.44-69.18-31.95-22.37-13.64-42.91-31.84-58.33-53.74-14.75-22.12-23.18-48.79-15.21-73.67 7.89-24.62 31.08-42.25 56.58-51.52 25.95-8.97 54.09-11.3 80.84-8.83 13.43.94 26.57 3.5 39.01 6.37 6.28 1.37 12.72 3.61 18.96 5.33 5.76 1.79 11.88 4.12 17.71 6.11 23.28 8.88 44.03 20.57 61.61 33.53 17.61 12.95 31.66 27.7 41.6 42.49 10.21 14.66 15.65 29.66 17.68 42.26 1.6 6.24.97 12.06 1.29 16.97-.65 4.89-.78 9.05-1.57 12.41-1.81 6.7-2.78 10.27-2.78 10.27l.03-.1zm2.58.79l2.64-10.31c.75-3.41.9-7.87 1.47-12.97-.38-5.07.11-11.03-1.34-17.44-2.02-12.93-7.17-28.33-16.63-44.03-9.47-15.66-22.96-31.64-40.01-46.52-17.02-14.93-37.99-28.24-61.74-38.9-6.1-2.47-11.88-5.17-18.5-7.53-6.28-1.97-12.28-4.31-19.01-6.05-13.46-3.63-27.14-6.75-41.4-8.26-28.38-3.55-58.76-2.32-88.42 6.81-14.68 4.93-29.14 11.93-41.83 22.17-12.68 10.13-23.33 23.9-29.18 39.84l-3.31 11.49c-.84 3.99-1.31 8.76-1.86 13.14-.42 8.64-.06 16.9 1.59 25.07 3.08 16.28 9.66 31.3 17.81 44.88 16.91 26.82 40 47.77 64.58 63.66 24.78 15.37 51.37 26.89 76.58 33.04 26.47 6.87 51.51 8.53 74.76 6.81 23.12-1.69 43.98-6.69 61.25-13.93 17.28-7.24 30.82-16.8 40.24-26.15 5.02-4.38 8.25-9.52 11.6-13.38 2.59-4.46 5.11-8.07 6.57-11.29 2.68-6.55 4.11-10.05 4.11-10.05l.03-.1" fill="#040606"/><path d="M1122.36 3540.53l106.25-113.67c8.43 55.39 22.71 718.88-12.06 679.78-68.09-76.59-297.917-207.96-298.55-285.88-.637-77.92 204.36-280.23 204.36-280.23" fill="#072526"/><path d="M1218.7 4098.96c-25.65-27.64-69.9-61.35-116.63-96.96-82.94-63.19-176.937-134.82-177.316-181.3-.606-74.2 200.306-273.35 202.346-275.36l.18-.2 96.15-102.85c8.39 104.85 16.34 603.23-4.73 656.67zm14.48-686.89l-115.67 123.75c-9.78 9.66-206.912 205.43-206.264 285 .426 53.09 93.054 123.68 182.634 191.93 48.07 36.63 93.48 71.22 117.62 98.38 5 5.64 10.32 3.75 11.83 3.05 7.02-3.3 23.46-11.02 22.14-332.03-.68-164.75-6.13-329.63-10.19-356.31l-2.1-13.77" fill="#040606"/><path d="M1086.34 3920.92s-5.76-10.21-15.62-23.26c-9.59-13.37-23.52-29.45-37.01-45.3-3.3-3.98-6.91-7.81-10.05-11.73-3.19-3.93-6.64-7.6-9.51-11.38-3.11-3.68-6.05-7.25-8.55-10.76-2.83-3.44-5.2-6.74-7.284-9.92-2.3-3.17-4.058-6.14-5.507-8.92-1.517-2.79-3.15-5.28-3.728-7.47-1.69-4.36-2.926-7.26-2.926-7.26s-1.058 2.54-2.433 7.66c-.864 2.62-1.094 5.73-.993 9.37-.136 3.72-.015 7.97 1.122 12.22.753 4.47 1.863 9.26 3.79 13.88 1.66 4.85 3.862 9.67 6.503 14.39 2.464 4.91 5.5 9.53 8.725 14.15 3.06 4.8 6.86 8.94 10.38 13.4 14.76 17.17 32.53 30.92 47.22 39.21 14.49 8.59 25.87 11.72 25.87 11.72M1122.23 3817.9s-4.73-8.4-12.84-19.13c-3.98-5.45-8.82-11.49-14.01-17.86-5.21-6.32-10.85-12.88-16.41-19.38-11.12-13.01-22.11-25.6-29.1-36-1.89-2.61-3.34-5.04-4.53-7.33-1.25-2.29-2.59-4.34-3.06-6.14-1.39-3.59-2.41-5.96-2.41-5.96s-.87 2.08-2 6.29c-.71 2.15-.9 4.71-.82 7.7-.11 3.06-.01 6.55.93 10.05.61 3.67 1.52 7.62 3.17 11.38 1.38 3.98 3.09 8 5.29 11.86 2.03 4.04 4.52 7.83 7.17 11.63 2.51 3.94 5.64 7.35 8.53 11.01 12.07 14.19 26.85 25.31 38.82 32.24 11.91 7.06 21.27 9.64 21.27 9.64M1135.71 3713.6s-2.4-5.46-6.63-12.57c-2.07-3.6-4.56-7.65-7.31-11.86-2.61-4.3-5.73-8.58-8.42-13.07-5.77-8.73-11.16-17.37-14.49-24.4-.95-1.75-1.4-3.41-2.13-4.93-.69-1.52-1.12-2.87-1.42-4.04-.78-2.43-1.23-3.82-1.23-3.82s-.65 1.26-1.58 3.74c-.47 1.25-1.05 2.81-1.15 4.61-.16 1.79-.66 3.99-.4 6.19.17 2.21.15 4.8.81 7.25.62 2.46 1.01 5.27 2.14 7.76 1.79 5.27 4.55 10.48 7.63 15.34 6.36 9.69 14.6 17.7 21.6 22.67 6.91 5.09 12.58 7.13 12.58 7.13" fill="#67718c"/><path d="M2665.59 4070.97l-12.63-155.09c-41.02 38.17-464.44 549.18-412.91 540.15 100.94-17.71 362.65 22.14 411.56-38.52 48.91-60.66 13.98-346.54 13.98-346.54" fill="#072526"/><path d="M2243.26 4448.65c6.94-20.72 59.76-98.48 191.07-262.38 88.72-110.74 179.87-218.9 213.11-254.97l11.44 140.49c.36 2.84 34.04 283.73-12.53 341.48-29.17 36.19-147.33 33.9-251.58 31.9-58.74-1.14-114.35-2.22-151.51 3.48zm415.31-547.2l-10.21 9.49c-19.74 18.37-126.46 144.18-229.36 272.85-200.48 250.72-192.39 266.99-188.94 273.93.74 1.49 3.73 6.28 11.15 4.96 35.8-6.28 92.88-5.17 153.3-4.01 112.6 2.18 229.03 4.42 262.36-36.91 49.94-61.96 17.1-337.85 15.44-351.47l-13.74-168.84" fill="#040606"/><path d="M2457.47 4391.4s10.86-4.42 26.69-8.52c15.82-4.51 36.73-8.46 57.15-12.5 5.05-1.06 10.26-1.83 15.16-2.95 4.94-1.09 9.93-1.83 14.52-3 4.73-.96 9.24-1.92 13.39-3.12 4.35-.94 8.26-2.05 11.87-3.25 3.77-1.06 6.99-2.29 9.86-3.57 2.92-1.24 5.74-2.18 7.56-3.53 4.03-2.37 6.8-3.87 6.8-3.87s-.75 2.64-2.85 7.51c-.95 2.58-2.71 5.17-5.05 7.96-2.2 3-4.94 6.25-8.47 8.88-3.37 3.03-7.21 6.09-11.59 8.52-4.32 2.77-9.04 5.17-14.04 7.23-4.98 2.32-10.23 4.05-15.63 5.67-5.37 1.86-10.92 2.74-16.45 4.05-22.23 4.28-44.7 4.01-61.37 1.39-16.68-2.27-27.55-6.9-27.55-6.9M2493.36 4288.38s8.92-3.64 21.94-7.01c6.51-1.8 14.06-3.52 22.07-5.29 8.02-1.71 16.51-3.35 24.91-4.99 16.8-3.29 33.22-6.32 45.17-10.12 3.1-.87 5.74-1.88 8.1-2.94 2.4-1.02 4.72-1.79 6.21-2.9 3.32-1.95 5.6-3.18 5.6-3.18s-.62 2.17-2.35 6.17c-.78 2.13-2.22 4.25-4.14 6.55-1.82 2.46-4.06 5.13-6.97 7.3-2.76 2.49-5.93 5.01-9.56 6.94-3.55 2.26-7.38 4.35-11.51 6.01-4.1 1.9-8.41 3.32-12.85 4.65-4.41 1.53-8.98 2.26-13.52 3.33-18.27 3.62-36.76 3.15-50.45 1.14-13.72-1.86-22.65-5.66-22.65-5.66M2547.6 4198.28s5.27-2.79 13-5.73c3.86-1.53 8.33-3.16 13.1-4.75 4.71-1.75 9.82-3.16 14.71-5.01 9.95-3.25 19.54-6.67 26.52-10.11 1.84-.79 3.21-1.81 4.73-2.55 1.49-.75 2.67-1.55 3.62-2.28 2.13-1.42 3.34-2.23 3.34-2.23s-.27 1.39-1.09 3.91c-.4 1.27-.92 2.86-1.96 4.33-.98 1.5-1.95 3.54-3.53 5.1-1.51 1.62-3.1 3.67-5.14 5.18-2.01 1.54-4.06 3.5-6.5 4.75-4.67 3.02-10.07 5.38-15.51 7.28-11 3.64-22.43 4.8-31 4.35-8.59-.32-14.29-2.24-14.29-2.24M1388.7 3968.97s2.95-2.89 5.63-7.62c2.78-4.7 5.36-11.21 6.89-17.96 1.44-6.76 1.84-13.76 1.27-19.19-.46-5.42-1.94-9.28-1.94-9.28s-2.96 2.89-5.64 7.61c-2.79 4.7-5.36 11.22-6.88 17.97-1.43 6.77-1.81 13.77-1.25 19.2.46 5.41 1.92 9.27 1.92 9.27M1417.02 3995.07s2.95-2.89 5.62-7.62c2.78-4.7 5.37-11.21 6.9-17.96 1.44-6.76 1.83-13.76 1.27-19.19-.46-5.41-1.94-9.28-1.94-9.28s-2.96 2.89-5.64 7.62c-2.79 4.7-5.36 11.21-6.88 17.96-1.43 6.77-1.81 13.77-1.25 19.2.45 5.41 1.92 9.27 1.92 9.27M1463.54 4047.09s2.04-2.63 3.6-6.65c1.66-4.03 2.89-9.44 3.22-14.9.26-5.47-.38-10.98-1.61-15.15-1.13-4.17-2.89-7.01-2.89-7.01s-2.05 2.64-3.62 6.66c-1.65 4.02-2.88 9.44-3.2 14.9-.25 5.47.41 10.98 1.63 15.15 1.12 4.17 2.87 7 2.87 7M1498.77 4091.9s1.23-2.46 2.11-6.05c.84-3.58 1.13-8.27.66-12.88-.53-4.6-1.82-9.12-3.42-12.43-1.64-3.32-3.38-5.46-3.38-5.46s-1.24 2.47-2.12 6.06c-.85 3.58-1.13 8.27-.66 12.88.54 4.6 1.85 9.11 3.44 12.43 1.64 3.32 3.37 5.45 3.37 5.45M1550.88 4145.47s1.23-2.46 2.11-6.05c.83-3.59 1.13-8.28.66-12.88-.53-4.6-1.83-9.12-3.42-12.44-1.64-3.31-3.39-5.45-3.39-5.45s-1.23 2.47-2.12 6.06c-.84 3.58-1.12 8.27-.65 12.88.54 4.6 1.85 9.11 3.44 12.43 1.64 3.31 3.37 5.45 3.37 5.45M2245.39 4225.46s5.01-.83 11.08-3.66c6.16-2.75 13.45-7.44 19.87-13.1 6.35-5.74 11.84-12.44 15.25-18.26 3.5-5.73 4.87-10.62 4.87-10.62s-5.02.81-11.1 3.65c-6.16 2.73-13.44 7.44-19.86 13.1-6.34 5.75-11.82 12.47-15.23 18.29-3.5 5.72-4.88 10.6-4.88 10.6M2186.3 4245.5s2.73-3.09 5.2-8.04c2.57-4.92 4.95-11.69 6.34-18.66 1.31-6.98 1.63-14.14 1.07-19.67-.46-5.52-1.86-9.4-1.86-9.4s-2.75 3.08-5.23 8.03c-2.58 4.93-4.94 11.7-6.32 18.66-1.3 6.98-1.61 14.15-1.05 19.68.45 5.52 1.85 9.4 1.85 9.4M2037.19 4263.62s2.05-1.82 4.22-4.82c2.11-3.02 4.14-7.26 5.43-11.7 1.22-4.47 1.71-9.14 1.47-12.82-.29-3.68-1.1-6.32-1.1-6.32s-2.07 1.83-4.23 4.83c-2.12 3.01-4.14 7.25-5.42 11.7-1.22 4.47-1.7 9.14-1.46 12.82.28 3.68 1.09 6.31 1.09 6.31M2139.82 4248.92s2.13-1.75 4.41-4.66c2.23-2.92 4.43-7.07 5.9-11.47 1.4-4.41 2.08-9.06 1.98-12.74-.13-3.7-.84-6.36-.84-6.36s-2.14 1.74-4.42 4.65c-2.24 2.92-4.43 7.08-5.89 11.47-1.39 4.42-2.06 9.07-1.97 12.75.13 3.7.83 6.36.83 6.36" fill="#67718c"/><path d="M962.434 4721.97s202.076-391 233.976-486.13c0 0 575.81 487.02 932.21 324.74 0 0-443.11 179.44-896.3-131.02l-170.68 371.11-99.206-78.7" fill="#c2dfe2"/><path d="M1177.11 4961.31s382.72 202.25 468.79 365.75c86.06 163.51-51.58-317.96-468.79-365.75" fill="#f2fbfd"/><path d="M1745.17 663.55c.04 0 202.41-30.66 424.98-61.33 111.3-15.33 227.64-30.67 326.33-42.18 49.35-5.76 94.29-10.56 132.04-13.93 37.78-3.372 68.24-5.32 89.28-5.33 5.81 0 10.91.15 15.41.49 4.52.36 8.33.832 12.18 1.878 4.19 1.165 8.25 3.094 11.73 5.813 5.28 4.08 8.89 9.77 10.84 15.49 1.98 5.77 2.62 11.64 2.63 17.69-.07 14.7-3.79 31.122-8.92 50.102-7.74 28.328-19 61.988-28.27 98.067-9.29 36.06-16.54 74.452-16.53 111.51 0 28.81 4.34 56.72 15.17 82.54 10.86 25.82 28.11 49.722 55.07 70.96 9.75 7.69 17.35 15.43 22.79 23.79 5.43 8.3 8.65 17.52 8.63 26.92.04 11.08-4.49 21.35-11.2 29.65-6.33 7.88-14.57 14.54-24.32 20.7-18.3 11.47-42.2 21.2-70.44 30.08-49.38 15.49-112.08 28.1-178.7 38.5-199.69 31.15-434.44 42.08-434.71 42.11l-.7-14.99 14.67 3.12-182.24 858.2-29.35-6.23 184.65-869.53 11.56-.54c.01 0 2.71-.13 7.84-.4 38.5-2 212.56-11.9 376.37-34.45 81.85-11.25 161.25-25.74 219.11-43.63 28.89-8.88 52.41-18.75 67.5-28.62 7.56-4.9 12.92-9.77 15.98-13.89 3.09-4.2 3.95-7.19 3.98-10.08-.01-2.64-.79-5.92-3.79-10.58-2.97-4.62-8.23-10.31-16.18-16.55-30.77-24.158-51.5-52.61-64.19-82.94-12.72-30.33-17.5-62.358-17.5-94.14.04-54.57 13.94-108.738 27.46-155.09 6.78-23.16 13.49-44.36 18.4-62.39 4.95-17.95 7.93-32.96 7.86-42.2.04-5.058-.89-8.03-1.42-8.878l-.48-.633c-.14-.1-.42-.31-1.33-.57-.62-.2-3.05-.638-6.43-.88-3.41-.258-7.85-.4-13.13-.4-19.24-.01-49.31 1.872-86.61 5.212-130.78 11.668-351.39 40.988-539.02 67.38-93.84 13.187-179.47 25.66-241.64 34.82-31.09 4.578-56.31 8.34-73.75 10.95-17.45 2.608-27.09 4.07-27.12 4.07l-4.49-29.66" fill="#040606"/><path d="M2530.64 2434.42c0-32.97-26.72-59.7-59.7-59.7-32.97 0-59.69 26.73-59.69 59.7s26.72 59.69 59.69 59.69c32.98 0 59.7-26.72 59.7-59.69M2665.05 2208.33c0-32.97-26.73-59.69-59.7-59.69s-59.69 26.72-59.69 59.69 26.72 59.7 59.69 59.7 59.7-26.73 59.7-59.7M2800.49 1913.33c0-32.97-26.72-59.69-59.69-59.69s-59.7 26.72-59.7 59.69 26.73 59.7 59.7 59.7 59.69-26.73 59.69-59.7" fill="#b2bbba"/><path d="M2515.64 2444.42c0-32.97-26.72-59.7-59.7-59.7-32.97 0-59.69 26.73-59.69 59.7s26.72 59.69 59.69 59.69c32.98 0 59.7-26.72 59.7-59.69" fill="#072526"/><path d="M2515.64 2444.42h-5c0-15.12-6.11-28.77-16.02-38.68s-23.56-16.02-38.68-16.02c-15.12 0-28.76 6.11-38.67 16.02s-16.02 23.56-16.02 38.68c0 15.12 6.11 28.76 16.02 38.67s23.55 16.02 38.67 16.03c15.12-.01 28.77-6.12 38.68-16.03s16.02-23.55 16.02-38.67h10c0 35.73-28.96 64.69-64.7 64.69-35.73 0-64.69-28.96-64.69-64.69 0-35.74 28.96-64.7 64.69-64.7 35.74 0 64.7 28.96 64.7 64.7h-5" fill="#040606"/><path d="M2650.05 2218.33c0-32.97-26.73-59.69-59.7-59.69s-59.69 26.72-59.69 59.69 26.72 59.7 59.69 59.7 59.7-26.73 59.7-59.7" fill="#072526"/><path d="M2650.05 2218.33h-5c0-15.12-6.11-28.76-16.02-38.67s-23.56-16.02-38.68-16.02c-15.12 0-28.76 6.11-38.67 16.02s-16.02 23.55-16.02 38.67c0 15.12 6.11 28.77 16.02 38.68s23.55 16.02 38.67 16.02c15.12 0 28.77-6.11 38.68-16.02s16.02-23.56 16.02-38.68h10c0 35.74-28.96 64.7-64.7 64.7-35.73 0-64.69-28.96-64.69-64.7 0-35.73 28.96-64.69 64.69-64.69 35.74 0 64.7 28.96 64.7 64.69h-5" fill="#040606"/><path d="M2785.49 1923.33c0-32.97-26.72-59.69-59.69-59.69s-59.7 26.72-59.7 59.69 26.73 59.7 59.7 59.7 59.69-26.73 59.69-59.7" fill="#072526"/><path d="M2785.49 1923.33h-5c0-15.12-6.11-28.76-16.02-38.67s-23.55-16.02-38.67-16.02c-15.12 0-28.77 6.11-38.68 16.02s-16.02 23.55-16.02 38.67c0 15.12 6.11 28.77 16.02 38.68s23.56 16.02 38.68 16.02c15.12 0 28.76-6.11 38.67-16.02s16.02-23.56 16.02-38.68h10c0 35.74-28.96 64.7-64.69 64.7-35.74 0-64.7-28.96-64.7-64.7 0-35.73 28.96-64.69 64.7-64.69 35.73 0 64.69 28.96 64.69 64.69h-5" fill="#040606"/></g><text transform="matrix(.18064 0 0 .1873 109.967 34.95)" style="-inkscape-font-specification:Pacifico" font-size="70" font-family="Pacifico" fill="#ef3536" fill-opacity=".855"><tspan x="0" y="0">Menu</tspan></text><path d="M95.454 41.252h57.977" fill="#fff"/><path d="M95.454 41.252l.652-.02c.424-.01 1.047-.036 1.84-.052 1.585-.032 3.85-.1 6.567-.142 1.36-.02 2.83-.04 4.388-.064l4.898-.05 5.238-.033 5.406-.012 5.407.013c1.783 0 3.538.023 5.237.032l4.897.05 4.388.065c1.358.02 2.604.05 3.708.076l2.86.066c.792.015 1.415.04 1.84.052l.65.02-.65.02c-.425.012-1.048.037-1.84.053-.793.02-1.756.04-2.86.067-1.104.026-2.35.056-3.708.075l-4.388.065-4.897.05c-1.7.01-3.454.032-5.238.032l-5.408.013c-1.81-.005-3.623-.01-5.406-.013-1.784-.01-3.54-.022-5.238-.033-1.698-.016-3.34-.033-4.897-.05l-4.387-.064c-2.717-.042-4.982-.11-6.567-.14-.793-.017-1.416-.042-1.84-.054l-.652-.02" fill="#040606"/><path d="M95.494 55.98h57.976" fill="#fff"/><path d="M95.494 56.26h.045c.148 0 .27-.125.27-.28 0-.155-.122-.28-.27-.28h-.046c-.15 0-.27.125-.27.28 0 .155.12.28.27.28" fill="#040606"/><path d="M98.21 56.26h.09c.15 0 .27-.125.27-.28 0-.155-.12-.28-.27-.28h-.09c-.15 0-.27.125-.27.28 0 .155.12.28.27.28zm2.76 0h.09c.15 0 .27-.125.27-.28 0-.155-.12-.28-.27-.28h-.09c-.148 0-.27.125-.27.28 0 .155.122.28.27.28zm2.762 0h.09c.15 0 .27-.125.27-.28 0-.155-.12-.28-.27-.28h-.09c-.15 0-.27.125-.27.28 0 .155.12.28.27.28zm2.76 0h.09c.15 0 .27-.125.27-.28 0-.155-.12-.28-.27-.28h-.09c-.15 0-.27.125-.27.28 0 .155.12.28.27.28zm2.76 0h.09c.15 0 .27-.125.27-.28 0-.155-.12-.28-.27-.28h-.09c-.148 0-.27.125-.27.28 0 .155.122.28.27.28zm2.762 0h.09c.15 0 .27-.125.27-.28 0-.155-.12-.28-.27-.28h-.09c-.15 0-.27.125-.27.28 0 .155.12.28.27.28zm2.76 0h.09c.15 0 .27-.125.27-.28 0-.155-.12-.28-.27-.28h-.09c-.15 0-.27.125-.27.28 0 .155.12.28.27.28zm2.76 0h.09c.15 0 .27-.125.27-.28 0-.155-.12-.28-.27-.28h-.09c-.148 0-.27.125-.27.28 0 .155.122.28.27.28zm2.762 0h.09c.15 0 .27-.125.27-.28 0-.155-.12-.28-.27-.28h-.09c-.15 0-.27.125-.27.28 0 .155.12.28.27.28zm2.76 0h.09c.15 0 .27-.125.27-.28 0-.155-.12-.28-.27-.28h-.09c-.15 0-.27.125-.27.28 0 .155.12.28.27.28zm2.76 0h.09c.15 0 .27-.125.27-.28 0-.155-.12-.28-.27-.28h-.09c-.148 0-.27.125-.27.28 0 .155.122.28.27.28zm2.762 0h.09c.15 0 .27-.125.27-.28 0-.155-.12-.28-.27-.28h-.09c-.15 0-.27.125-.27.28 0 .155.12.28.27.28zm2.76 0h.09c.15 0 .27-.125.27-.28 0-.155-.12-.28-.27-.28h-.09c-.15 0-.27.125-.27.28 0 .155.12.28.27.28zm2.762 0h.09c.148 0 .27-.125.27-.28 0-.155-.122-.28-.27-.28h-.09c-.15 0-.27.125-.27.28 0 .155.12.28.27.28zm2.76 0h.09c.15 0 .27-.125.27-.28 0-.155-.12-.28-.27-.28h-.09c-.15 0-.27.125-.27.28 0 .155.12.28.27.28zm2.76 0h.09c.15 0 .27-.125.27-.28 0-.155-.12-.28-.27-.28h-.09c-.15 0-.27.125-.27.28 0 .155.12.28.27.28zm2.762 0h.09c.148 0 .27-.125.27-.28 0-.155-.122-.28-.27-.28h-.09c-.15 0-.27.125-.27.28 0 .155.12.28.27.28zm2.76 0h.09c.15 0 .27-.125.27-.28 0-.155-.12-.28-.27-.28h-.09c-.15 0-.27.125-.27.28 0 .155.12.28.27.28zm2.76 0h.09c.15 0 .27-.125.27-.28 0-.155-.12-.28-.27-.28h-.09c-.15 0-.27.125-.27.28 0 .155.12.28.27.28zm2.762 0h.09c.148 0 .27-.125.27-.28 0-.155-.122-.28-.27-.28h-.09c-.15 0-.27.125-.27.28 0 .155.12.28.27.28" fill="#e40606"/><path d="M153.424 56.26h.046c.15 0 .27-.125.27-.28 0-.155-.12-.28-.27-.28h-.046c-.15 0-.27.125-.27.28 0 .155.12.28.27.28" fill="#040606"/><path d="M95.454 66.188h57.977" fill="#fff"/><path d="M95.454 66.47h.046c.15 0 .27-.127.27-.282 0-.155-.12-.28-.27-.28h-.046c-.15 0-.27.125-.27.28 0 .155.12.28.27.28" fill="#040606"/><path d="M98.17 66.47h.09c.15 0 .27-.127.27-.282 0-.155-.12-.28-.27-.28h-.09c-.148 0-.27.125-.27.28 0 .155.122.28.27.28zm2.762 0h.09c.15 0 .27-.127.27-.282 0-.155-.12-.28-.27-.28h-.09c-.15 0-.27.125-.27.28 0 .155.12.28.27.28zm2.76 0h.09c.15 0 .27-.127.27-.282 0-.155-.12-.28-.27-.28h-.09c-.15 0-.27.125-.27.28 0 .155.12.28.27.28zm2.76 0h.09c.15 0 .27-.127.27-.282 0-.155-.12-.28-.27-.28h-.09c-.148 0-.27.125-.27.28 0 .155.122.28.27.28zm2.762 0h.09c.15 0 .27-.127.27-.282 0-.155-.12-.28-.27-.28h-.09c-.15 0-.27.125-.27.28 0 .155.12.28.27.28zm2.76 0h.09c.15 0 .27-.127.27-.282 0-.155-.12-.28-.27-.28h-.09c-.15 0-.27.125-.27.28 0 .155.12.28.27.28zm2.762 0h.09c.148 0 .27-.127.27-.282 0-.155-.122-.28-.27-.28h-.09c-.15 0-.27.125-.27.28 0 .155.12.28.27.28zm2.76 0h.09c.15 0 .27-.127.27-.282 0-.155-.12-.28-.27-.28h-.09c-.15 0-.27.125-.27.28 0 .155.12.28.27.28zm2.76 0h.09c.15 0 .27-.127.27-.282 0-.155-.12-.28-.27-.28h-.09c-.15 0-.27.125-.27.28 0 .155.12.28.27.28zm2.762 0h.09c.148 0 .27-.127.27-.282 0-.155-.122-.28-.27-.28h-.09c-.15 0-.27.125-.27.28 0 .155.12.28.27.28zm2.76 0h.09c.15 0 .27-.127.27-.282 0-.155-.12-.28-.27-.28h-.09c-.15 0-.27.125-.27.28 0 .155.12.28.27.28zm2.76 0h.09c.15 0 .27-.127.27-.282 0-.155-.12-.28-.27-.28h-.09c-.15 0-.27.125-.27.28 0 .155.12.28.27.28zm2.762 0h.09c.148 0 .27-.127.27-.282 0-.155-.122-.28-.27-.28h-.09c-.15 0-.27.125-.27.28 0 .155.12.28.27.28zm2.76 0h.09c.15 0 .27-.127.27-.282 0-.155-.12-.28-.27-.28h-.09c-.15 0-.27.125-.27.28 0 .155.12.28.27.28zm2.76 0h.09c.15 0 .27-.127.27-.282 0-.155-.12-.28-.27-.28h-.09c-.15 0-.27.125-.27.28 0 .155.12.28.27.28zm2.762 0h.09c.148 0 .27-.127.27-.282 0-.155-.122-.28-.27-.28h-.09c-.15 0-.27.125-.27.28 0 .155.12.28.27.28zm2.76 0h.09c.15 0 .27-.127.27-.282 0-.155-.12-.28-.27-.28h-.09c-.15 0-.27.125-.27.28 0 .155.12.28.27.28zm2.76 0h.09c.15 0 .27-.127.27-.282 0-.155-.12-.28-.27-.28h-.09c-.148 0-.27.125-.27.28 0 .155.122.28.27.28zm2.762 0h.09c.148 0 .27-.127.27-.282 0-.155-.122-.28-.27-.28h-.09c-.15 0-.27.125-.27.28 0 .155.12.28.27.28zm2.76 0h.09c.15 0 .27-.127.27-.282 0-.155-.12-.28-.27-.28h-.09c-.15 0-.27.125-.27.28 0 .155.12.28.27.28" fill="#ef3536" fill-opacity=".855"/><path d="M153.385 66.47h.046c.15 0 .27-.127.27-.282 0-.155-.12-.28-.27-.28h-.045c-.15 0-.27.125-.27.28 0 .155.12.28.27.28" fill="#040606"/><path d="M95.332 76.547h57.975" fill="#fff"/><path d="M95.33 76.828h.047c.15 0 .27-.126.27-.28 0-.156-.12-.282-.27-.282h-.046c-.148 0-.27.126-.27.28 0 .156.122.282.27.282" fill="#040606"/><path d="M98.048 76.828h.09c.15 0 .27-.126.27-.28 0-.156-.12-.282-.27-.282h-.09c-.15 0-.27.126-.27.28 0 .156.12.282.27.282zm2.76 0h.09c.15 0 .27-.126.27-.28 0-.156-.12-.282-.27-.282h-.09c-.15 0-.27.126-.27.28 0 .156.12.282.27.282zm2.762 0h.09c.148 0 .27-.126.27-.28 0-.156-.122-.282-.27-.282h-.09c-.15 0-.27.126-.27.28 0 .156.12.282.27.282zm2.76 0h.09c.15 0 .27-.126.27-.28 0-.156-.12-.282-.27-.282h-.09c-.15 0-.27.126-.27.28 0 .156.12.282.27.282zm2.76 0h.09c.15 0 .27-.126.27-.28 0-.156-.12-.282-.27-.282h-.09c-.15 0-.27.126-.27.28 0 .156.12.282.27.282zm2.762 0h.09c.148 0 .27-.126.27-.28 0-.156-.122-.282-.27-.282h-.09c-.15 0-.27.126-.27.28 0 .156.12.282.27.282zm2.76 0h.09c.15 0 .27-.126.27-.28 0-.156-.12-.282-.27-.282h-.09c-.15 0-.27.126-.27.28 0 .156.12.282.27.282zm2.76 0h.09c.15 0 .27-.126.27-.28 0-.156-.12-.282-.27-.282h-.09c-.15 0-.27.126-.27.28 0 .156.12.282.27.282zm2.762 0h.09c.15 0 .27-.126.27-.28 0-.156-.12-.282-.27-.282h-.09c-.15 0-.27.126-.27.28 0 .156.12.282.27.282zm2.76 0h.09c.15 0 .27-.126.27-.28 0-.156-.12-.282-.27-.282h-.09c-.15 0-.27.126-.27.28 0 .156.12.282.27.282zm2.76 0h.09c.15 0 .27-.126.27-.28 0-.156-.12-.282-.27-.282h-.09c-.148 0-.27.126-.27.28 0 .156.122.282.27.282zm2.762 0h.09c.15 0 .27-.126.27-.28 0-.156-.12-.282-.27-.282h-.09c-.15 0-.27.126-.27.28 0 .156.12.282.27.282zm2.76 0h.09c.15 0 .27-.126.27-.28 0-.156-.12-.282-.27-.282h-.09c-.15 0-.27.126-.27.28 0 .156.12.282.27.282zm2.76 0h.09c.15 0 .27-.126.27-.28 0-.156-.12-.282-.27-.282h-.09c-.148 0-.27.126-.27.28 0 .156.122.282.27.282zm2.762 0h.09c.15 0 .27-.126.27-.28 0-.156-.12-.282-.27-.282h-.09c-.15 0-.27.126-.27.28 0 .156.12.282.27.282zm2.76 0h.09c.15 0 .27-.126.27-.28 0-.156-.12-.282-.27-.282h-.09c-.15 0-.27.126-.27.28 0 .156.12.282.27.282zm2.76 0h.09c.15 0 .27-.126.27-.28 0-.156-.12-.282-.27-.282h-.09c-.148 0-.27.126-.27.28 0 .156.122.282.27.282zm2.762 0h.09c.15 0 .27-.126.27-.28 0-.156-.12-.282-.27-.282h-.09c-.15 0-.27.126-.27.28 0 .156.12.282.27.282zm2.76 0h.09c.15 0 .27-.126.27-.28 0-.156-.12-.282-.27-.282h-.09c-.15 0-.27.126-.27.28 0 .156.12.282.27.282zm2.76 0h.09c.15 0 .27-.126.27-.28 0-.156-.12-.282-.27-.282h-.09c-.148 0-.27.126-.27.28 0 .156.122.282.27.282" fill="#ef3536" fill-opacity=".855"/><path d="M153.262 76.828h.045c.15 0 .27-.126.27-.28 0-.156-.12-.282-.27-.282h-.045c-.15 0-.27.126-.27.28 0 .156.12.282.27.282" fill="#040606"/><path d="M95.292 86.756h57.976" fill="#fff"/><path d="M95.292 87.036h.046c.15 0 .27-.125.27-.28 0-.156-.12-.28-.27-.28h-.046c-.15 0-.27.124-.27.28 0 .155.12.28.27.28" fill="#040606"/><path d="M98.01 87.036h.088c.15 0 .27-.125.27-.28 0-.156-.12-.28-.27-.28h-.09c-.15 0-.27.124-.27.28 0 .155.12.28.27.28zm2.76 0h.09c.15 0 .27-.125.27-.28 0-.156-.12-.28-.27-.28h-.09c-.15 0-.27.124-.27.28 0 .155.12.28.27.28zm2.76 0h.09c.15 0 .27-.125.27-.28 0-.156-.12-.28-.27-.28h-.09c-.15 0-.27.124-.27.28 0 .155.12.28.27.28zm2.76 0h.09c.15 0 .27-.125.27-.28 0-.156-.12-.28-.27-.28h-.09c-.148 0-.27.124-.27.28 0 .155.122.28.27.28zm2.762 0h.09c.15 0 .27-.125.27-.28 0-.156-.12-.28-.27-.28h-.09c-.15 0-.27.124-.27.28 0 .155.12.28.27.28zm2.76 0h.09c.15 0 .27-.125.27-.28 0-.156-.12-.28-.27-.28h-.09c-.15 0-.27.124-.27.28 0 .155.12.28.27.28zm2.76 0h.09c.15 0 .27-.125.27-.28 0-.156-.12-.28-.27-.28h-.09c-.148 0-.27.124-.27.28 0 .155.122.28.27.28zm2.762 0h.09c.15 0 .27-.125.27-.28 0-.156-.12-.28-.27-.28h-.09c-.15 0-.27.124-.27.28 0 .155.12.28.27.28zm2.76 0h.09c.15 0 .27-.125.27-.28 0-.156-.12-.28-.27-.28h-.09c-.15 0-.27.124-.27.28 0 .155.12.28.27.28zm2.76 0h.09c.15 0 .27-.125.27-.28 0-.156-.12-.28-.27-.28h-.09c-.148 0-.27.124-.27.28 0 .155.122.28.27.28zm2.762 0h.09c.15 0 .27-.125.27-.28 0-.156-.12-.28-.27-.28h-.09c-.15 0-.27.124-.27.28 0 .155.12.28.27.28zm2.76 0h.09c.15 0 .27-.125.27-.28 0-.156-.12-.28-.27-.28h-.09c-.15 0-.27.124-.27.28 0 .155.12.28.27.28zm2.76 0h.09c.15 0 .27-.125.27-.28 0-.156-.12-.28-.27-.28h-.09c-.148 0-.27.124-.27.28 0 .155.122.28.27.28zm2.762 0h.09c.15 0 .27-.125.27-.28 0-.156-.12-.28-.27-.28h-.09c-.15 0-.27.124-.27.28 0 .155.12.28.27.28zm2.76 0h.09c.15 0 .27-.125.27-.28 0-.156-.12-.28-.27-.28h-.09c-.15 0-.27.124-.27.28 0 .155.12.28.27.28zm2.762 0h.09c.148 0 .27-.125.27-.28 0-.156-.122-.28-.27-.28h-.09c-.15 0-.27.124-.27.28 0 .155.12.28.27.28zm2.76 0h.09c.15 0 .27-.125.27-.28 0-.156-.12-.28-.27-.28h-.09c-.15 0-.27.124-.27.28 0 .155.12.28.27.28zm2.76 0h.09c.15 0 .27-.125.27-.28 0-.156-.12-.28-.27-.28h-.09c-.15 0-.27.124-.27.28 0 .155.12.28.27.28zm2.762 0h.09c.148 0 .27-.125.27-.28 0-.156-.122-.28-.27-.28h-.09c-.15 0-.27.124-.27.28 0 .155.12.28.27.28zm2.76 0h.09c.15 0 .27-.125.27-.28 0-.156-.12-.28-.27-.28h-.09c-.15 0-.27.124-.27.28 0 .155.12.28.27.28" fill="#ef3536" fill-opacity=".855"/><path d="M153.223 87.036h.045c.15 0 .27-.125.27-.28 0-.156-.12-.28-.27-.28h-.045c-.15 0-.27.124-.27.28 0 .155.12.28.27.28" fill="#040606"/><path d="M95.374 98.014h57.975" fill="#fff"/><path d="M95.374 98.295h.045c.148 0 .27-.125.27-.28 0-.156-.122-.282-.27-.282h-.046c-.15 0-.27.126-.27.28 0 .157.12.282.27.282" fill="#040606"/><path d="M98.09 98.295h.09c.15 0 .27-.125.27-.28 0-.156-.12-.282-.27-.282h-.09c-.15 0-.27.126-.27.28 0 .157.12.282.27.282zm2.76 0h.09c.15 0 .27-.125.27-.28 0-.156-.12-.282-.27-.282h-.09c-.15 0-.27.126-.27.28 0 .157.12.282.27.282zm2.762 0h.09c.148 0 .27-.125.27-.28 0-.156-.122-.282-.27-.282h-.09c-.15 0-.27.126-.27.28 0 .157.12.282.27.282zm2.76 0h.09c.15 0 .27-.125.27-.28 0-.156-.12-.282-.27-.282h-.09c-.15 0-.27.126-.27.28 0 .157.12.282.27.282zm2.76 0h.09c.15 0 .27-.125.27-.28 0-.156-.12-.282-.27-.282h-.09c-.15 0-.27.126-.27.28 0 .157.12.282.27.282zm2.762 0h.09c.148 0 .27-.125.27-.28 0-.156-.122-.282-.27-.282h-.09c-.15 0-.27.126-.27.28 0 .157.12.282.27.282zm2.76 0h.09c.15 0 .27-.125.27-.28 0-.156-.12-.282-.27-.282h-.09c-.15 0-.27.126-.27.28 0 .157.12.282.27.282zm2.76 0h.09c.15 0 .27-.125.27-.28 0-.156-.12-.282-.27-.282h-.09c-.148 0-.27.126-.27.28 0 .157.122.282.27.282zm2.762 0h.09c.148 0 .27-.125.27-.28 0-.156-.122-.282-.27-.282h-.09c-.15 0-.27.126-.27.28 0 .157.12.282.27.282zm2.76 0h.09c.15 0 .27-.125.27-.28 0-.156-.12-.282-.27-.282h-.09c-.15 0-.27.126-.27.28 0 .157.12.282.27.282zm2.76 0h.09c.15 0 .27-.125.27-.28 0-.156-.12-.282-.27-.282h-.09c-.148 0-.27.126-.27.28 0 .157.122.282.27.282zm2.762 0h.09c.148 0 .27-.125.27-.28 0-.156-.122-.282-.27-.282h-.09c-.15 0-.27.126-.27.28 0 .157.12.282.27.282zm2.76 0h.09c.15 0 .27-.125.27-.28 0-.156-.12-.282-.27-.282h-.09c-.15 0-.27.126-.27.28 0 .157.12.282.27.282zm2.76 0h.09c.15 0 .27-.125.27-.28 0-.156-.12-.282-.27-.282h-.09c-.148 0-.27.126-.27.28 0 .157.122.282.27.282zm2.762 0h.09c.15 0 .27-.125.27-.28 0-.156-.12-.282-.27-.282h-.09c-.15 0-.27.126-.27.28 0 .157.12.282.27.282zm2.76 0h.09c.15 0 .27-.125.27-.28 0-.156-.12-.282-.27-.282h-.09c-.15 0-.27.126-.27.28 0 .157.12.282.27.282zm2.76 0h.09c.15 0 .27-.125.27-.28 0-.156-.12-.282-.27-.282h-.09c-.148 0-.27.126-.27.28 0 .157.122.282.27.282zm2.762 0h.09c.15 0 .27-.125.27-.28 0-.156-.12-.282-.27-.282h-.09c-.15 0-.27.126-.27.28 0 .157.12.282.27.282zm2.76 0h.09c.15 0 .27-.125.27-.28 0-.156-.12-.282-.27-.282h-.09c-.15 0-.27.126-.27.28 0 .157.12.282.27.282zm2.76 0h.09c.15 0 .27-.125.27-.28 0-.156-.12-.282-.27-.282h-.09c-.148 0-.27.126-.27.28 0 .157.122.282.27.282" fill="#ef3536" fill-opacity=".855"/><path d="M153.304 98.295h.045c.15 0 .27-.125.27-.28 0-.156-.12-.282-.27-.282h-.046c-.15 0-.27.126-.27.28 0 .157.12.282.27.282" fill="#040606"/><path d="M95.25 108.373h57.976" fill="#fff"/><path d="M95.25 108.654h.046c.15 0 .27-.125.27-.28 0-.156-.12-.282-.27-.282h-.046c-.15 0-.27.126-.27.28 0 .157.12.282.27.282" fill="#040606"/><path d="M97.967 108.654h.09c.15 0 .27-.125.27-.28 0-.156-.12-.282-.27-.282h-.09c-.15 0-.27.126-.27.28 0 .157.12.282.27.282zm2.76 0h.09c.15 0 .27-.125.27-.28 0-.156-.12-.282-.27-.282h-.09c-.15 0-.27.126-.27.28 0 .157.12.282.27.282zm2.762 0h.088c.15 0 .27-.125.27-.28 0-.156-.12-.282-.27-.282h-.09c-.15 0-.27.126-.27.28 0 .157.12.282.27.282zm2.76 0h.088c.15 0 .27-.125.27-.28 0-.156-.12-.282-.27-.282h-.09c-.148 0-.27.126-.27.28 0 .157.122.282.27.282zm2.76 0h.09c.15 0 .27-.125.27-.28 0-.156-.12-.282-.27-.282h-.09c-.15 0-.27.126-.27.28 0 .157.12.282.27.282zm2.76 0h.09c.15 0 .27-.125.27-.28 0-.156-.12-.282-.27-.282h-.09c-.15 0-.27.126-.27.28 0 .157.12.282.27.282zm2.76 0h.09c.15 0 .27-.125.27-.28 0-.156-.12-.282-.27-.282h-.09c-.148 0-.27.126-.27.28 0 .157.122.282.27.282zm2.762 0h.09c.15 0 .27-.125.27-.28 0-.156-.12-.282-.27-.282h-.09c-.15 0-.27.126-.27.28 0 .157.12.282.27.282zm2.76 0h.09c.15 0 .27-.125.27-.28 0-.156-.12-.282-.27-.282h-.09c-.15 0-.27.126-.27.28 0 .157.12.282.27.282zm2.76 0h.09c.15 0 .27-.125.27-.28 0-.156-.12-.282-.27-.282h-.09c-.148 0-.27.126-.27.28 0 .157.122.282.27.282zm2.762 0h.09c.15 0 .27-.125.27-.28 0-.156-.12-.282-.27-.282h-.09c-.15 0-.27.126-.27.28 0 .157.12.282.27.282zm2.76 0h.09c.15 0 .27-.125.27-.28 0-.156-.12-.282-.27-.282h-.09c-.15 0-.27.126-.27.28 0 .157.12.282.27.282zm2.762 0h.09c.148 0 .27-.125.27-.28 0-.156-.122-.282-.27-.282h-.09c-.15 0-.27.126-.27.28 0 .157.12.282.27.282zm2.76 0h.09c.15 0 .27-.125.27-.28 0-.156-.12-.282-.27-.282h-.09c-.15 0-.27.126-.27.28 0 .157.12.282.27.282zm2.76 0h.09c.15 0 .27-.125.27-.28 0-.156-.12-.282-.27-.282h-.09c-.15 0-.27.126-.27.28 0 .157.12.282.27.282zm2.762 0h.09c.148 0 .27-.125.27-.28 0-.156-.122-.282-.27-.282h-.09c-.15 0-.27.126-.27.28 0 .157.12.282.27.282zm2.76 0h.09c.15 0 .27-.125.27-.28 0-.156-.12-.282-.27-.282h-.09c-.15 0-.27.126-.27.28 0 .157.12.282.27.282zm2.76 0h.09c.15 0 .27-.125.27-.28 0-.156-.12-.282-.27-.282h-.09c-.15 0-.27.126-.27.28 0 .157.12.282.27.282zm2.762 0h.09c.148 0 .27-.125.27-.28 0-.156-.122-.282-.27-.282h-.09c-.15 0-.27.126-.27.28 0 .157.12.282.27.282zm2.76 0h.09c.15 0 .27-.125.27-.28 0-.156-.12-.282-.27-.282h-.09c-.15 0-.27.126-.27.28 0 .157.12.282.27.282" fill="#ef3536" fill-opacity=".855"/><path d="M153.18 108.654h.046c.15 0 .27-.125.27-.28 0-.156-.12-.282-.27-.282h-.045c-.15 0-.27.126-.27.28 0 .157.12.282.27.282M96.755 30.824l.183-.008c.09-.005.164.066.168.158.005.092-.064.17-.153.174h-.015l-.183-.008c-.084-.004-.15-.078-.145-.165.004-.082.068-.146.145-.15M99.688 30.693l.184-.007c.157-.006.29.12.296.285.006.164-.117.302-.274.308h-.022l-.184-.007c-.154-.005-.273-.14-.267-.3.006-.15.125-.27.268-.277M102.622 30.583l.183-.006c.216-.007.396.17.403.393.006.224-.164.41-.38.417h-.023l-.183-.006c-.213-.005-.38-.19-.374-.41.006-.212.172-.38.374-.387M105.555 30.49l.183-.005c.265-.01.486.207.495.482.007.275-.2.504-.466.512h-.03l-.182-.006c-.262-.01-.468-.235-.46-.507.008-.26.212-.468.46-.476M151.857 30.84l-.184-.01c-.088-.003-.163.068-.168.16-.004.092.065.17.153.174h.015l.184-.01c.084-.003.15-.077.145-.164-.004-.08-.068-.146-.145-.15M148.923 30.71l-.183-.008c-.158-.007-.29.12-.297.284-.006.164.117.3.275.308h.022l.183-.007c.154-.007.274-.14.268-.3-.004-.152-.123-.272-.267-.278M145.99 30.598l-.183-.005c-.216-.007-.396.17-.403.393-.006.223.163.41.38.417h.023l.183-.006c.213-.007.38-.19.374-.41-.007-.213-.172-.382-.374-.39M143.057 30.506l-.184-.006c-.265-.008-.486.208-.494.483-.01.274.2.504.464.512h.03l.183-.006c.262-.01.468-.236.46-.507-.008-.26-.212-.47-.46-.477" fill="#040606"/></svg>