<svg xmlns="http://www.w3.org/2000/svg" width="200" height="150" viewBox="0 0 500 500"><path d="M253.518 109.805c9.167-.072 17.13-4.587 21.273-11.228l-1.402-.55c-.815-.88-1.576-1.797-2.158-2.662-2.076-3.094-2.224-6.776-2.224-8.25 0-1.473.074-5.747.444-6.482.372-.737 1.56-6.336 1.56-6.336s.432-.055 1-.19c.86-.2 2.03-.582 2.52-1.246.815-1.105 1.038-1.84.815-3.608-.22-1.768.89-2.873 1.114-4.494.22-1.62.368-3.83-.816-4.27-.71-.266-.916-.32-.97-.32-.048-.614-1.07-13.083-2.514-15.812-1.484-2.8-6.082-7.367-10.974-9.577-2.3-1.038-5.218-1.46-7.668-1.613-2.45.154-5.368.575-7.667 1.612-4.892 2.21-9.49 6.776-10.973 9.576-1.447 2.73-2.468 15.198-2.518 15.812-.052 0-.257.054-.967.32-1.186.44-1.04 2.65-.816 4.27.222 1.62 1.335 2.726 1.113 4.494-.223 1.768 0 2.503.815 3.61.49.663 1.662 1.045 2.52 1.246.568.134 1.002.19 1.002.19s1.186 5.598 1.558 6.335c.37.735.444 5.01.444 6.482 0 1.474-.15 5.156-2.224 8.25-.582.865-1.343 1.783-2.157 2.663l-1.406.55c4.143 6.64 12.107 11.155 21.274 11.227M206.57 249.956c-.412-.953-.815-1.774-1.082-2.414-.158.424-.222.47-.09-.217l-3.013.338-.58-.972c-.735-1.235-4.41-7.554-4.525-10.698l-.022-.627c-.673-19.77-1.964-28.425-2.93-32.207l-3.218-12.606 2.308-4.95c1.01-1.345 11.458-15.36 13.393-29.515.063-.19.144-.447.234-.746-.03-.084-.06-.173-.09-.25 0 0 1.016-2.748 1.764-7.1.36-2.206.655-4.73.758-7.46.258-8.41-1.47-19.15-9.386-28.526-6.188 3.708-13.285 9.87-14.834 19.118l-.01.117c-.01.395-1.652 10.085-5.25 17.226l-.242.36c-.054.065-5.988 7.498-10.757 43.64.116 1.203 2.92 29.617 11.48 43.08l5.73 11.2 5.044 10.723 5.04 6.228 3.53 2.79c8.334-6.327 7.873-12.97 6.75-16.532" fill="#f4be7d"/><path d="M234.417 351.87c-2.116-.032-4.157-.09-6.125-.172 3.76.167 6.125.17 6.125.17" fill="#3a3a3c"/><path d="M205.488 247.542c.004-.016.01-.03.017-.044-.067-.11-.108-.173-.108-.173-.13.688-.067.64.09.217" fill="#1b1918"/><path d="M209.476 140.53c-.085 2.79-.39 5.317-.758 7.46-.748 4.352-1.764 7.1-1.764 7.1.03.077.06.166.09.25.786 2.23 1.975 6.918 1.99 7.096.147 1.914.443 2.65 1.11 3.535.667.887.816 1.034 1.706 3.98.89 2.945 2.003 8.03 1.928 8.837-.074.813.223 2.506.816 5.38.592 2.87 0 2.504-.223 4.197-.22 1.695 0 3.02.224 5.967.222 2.948-.297 6.483-.593 8.104-.295 1.62-.592 1.693-.295 3.094.296 1.4-.148 5.746.074 7.734.22 1.988-.67 8.764-1.41 11.27-.74 2.505-3.856 11.786-3.41 12.523.128.213.135.438.06.725l.005.002s20.266 4.427 44.493 4.64c24.227-.213 44.492-4.64 44.492-4.64l.007-.002c-.077-.287-.07-.512.06-.725.444-.737-2.672-10.018-3.41-12.523-.742-2.506-1.632-9.282-1.41-11.27.222-1.988-.222-6.335.075-7.734.296-1.4 0-1.474-.297-3.094-.296-1.62-.816-5.156-.592-8.103.22-2.946.443-4.27.22-5.966-.22-1.693-.813-1.326-.22-4.197.592-2.874.89-4.567.814-5.38-.074-.808 1.04-5.892 1.93-8.837.888-2.946 1.037-3.093 1.703-3.98.67-.883.965-1.62 1.113-3.534.014-.178 1.203-4.865 1.99-7.095.03-.084.06-.173.09-.25 0 0-1.017-2.748-1.765-7.1-.368-2.143-.673-4.67-.758-7.46-.26-8.41 1.47-19.15 9.386-28.526.012-.014.023-.03.036-.044-5.165-2.876-9.776-4.285-10.885-4.6-2.63-1.432-15.422-6.48-21.306-8.783-4.142 6.64-12.105 11.156-21.272 11.228-9.167-.072-17.13-4.587-21.274-11.228-5.883 2.302-18.675 7.35-21.305 8.782-1.11.315-5.72 1.724-10.885 4.6.013.014.023.03.035.044 7.916 9.375 9.644 20.115 9.386 28.526M192.76 430.998s-.446 0-.63.15c-.186.147-.11.073-.222.957-.112.883-.557 6.04-.557 6.04s10.35.05 8.843 5.04c0 0 .43 6.058 4.878 1.353 0 0 1.034-1.298 1.593-.244-.223-.515.594-10.423.445-11.087-.106-.473-.266-.53-.35-.525-.02.002-.037.006-.057.01-8.737 1.267-13.94-1.694-13.94-1.694" fill="#d2462f"/><path d="M205.07 444.538c-4.447 4.705-4.877-1.354-4.877-1.354 1.506-4.99-8.842-5.038-8.842-5.038s-2.298-.296-3.633 1.546c-1.333 1.84-.814 2.357-1.78 3.02-.962.662-2.148 1.545-2.816 3.682-.665 2.136-3.335 9.724-4.3 11.05-.963 1.325-3.928 3.462-5.263 6.113-1.335 2.652-1.26 5.23-1.26 5.23l-.372.958s-.222 3.092.742 3.757c.964.66 9.12 1.4 12.68 1.324 3.558-.072 9.563-1.99 10.9-3.24 1.332-1.254 1.555-2.358 2.074-3.094.52-.737 2.152-.737 4.747-1.473 2.595-.738 5.19-2.47 5.302-2.8.11-.333.703-4.31.406-5.157-.297-.847-.705-.996-.705-.996s-.147-4.935.075-5.598c.224-.662.89-3.096.445-4.346-.445-1.252-1.705-3.314-1.927-3.83-.56-1.054-1.592.244-1.592.244" fill="#392223"/><path d="M198.58 352.847c-1.78 7.81-7.118 19.007-8.156 31.82-1.037 12.818 2.337 46.33 2.337 46.33s5.203 2.962 13.94 1.694c0 0 2.818-17.235 4.895-24.455 2.076-7.216 6.08-11.637 7.71-19.74 1.632-8.103 0-23.57.89-26.517.89-2.945 2.226-3.684 4.894-9.133.188-.387.378-.818.567-1.273-11.192-.603-19.845-1.96-26.2-3.372-.23 1.484-.508 3.023-.877 4.647M297.56 140.53c.103 2.73.397 5.254.758 7.46.748 4.352 1.764 7.1 1.764 7.1-.03.077-.06.166-.09.25.09.3.17.558.234.747 1.933 14.154 12.383 28.17 13.393 29.515l2.306 4.95-3.22 12.606c-.963 3.782-2.255 12.438-2.928 32.207l-.022.627c-.115 3.144-3.79 9.463-4.525 10.7l-.58.97-3.01-.337c.13.688.068.64-.093.217-.267.64-.67 1.46-1.082 2.414-1.12 3.563-1.583 10.205 6.752 16.53l3.528-2.788 5.04-6.23 5.044-10.722 5.73-11.2c8.56-13.463 11.363-41.877 11.478-43.08-4.768-36.142-10.703-43.575-10.756-43.64l-.243-.36c-3.598-7.14-5.24-16.83-5.25-17.227l-.01-.118c-1.55-9.248-8.646-15.41-14.834-19.118-7.916 9.375-9.645 20.115-9.386 28.526" fill="#f4be7d"/><path d="M278.744 351.698c-1.97.08-4.01.14-6.126.17 0 0 2.366-.003 6.126-.17" fill="#3a3a3c"/><path d="M307.578 348.194c4.924-1.084 9.706-2.486 13.83-4.307l-6.196-28.453c-.64-4.856-2.03-14.494-3.343-17.538-1.78-4.124-2.376-6.777-2.226-9.722.15-2.945-.297-11.05-.74-12.966-.32-1.362-1.32-5.408-1.687-8.72-8.335-6.327-7.873-12.97-6.752-16.532.39-1.247.86-2.112 1.066-2.458-.412-1.13-1.435-4.628-1.674-5.288-.946-2.61-1.658-3.73-1.84-4.43l-.006.002s-20.265 4.427-44.492 4.64c-24.227-.213-44.493-4.64-44.493-4.64l-.006-.002c-.182.7-.894 1.82-1.84 4.43-.24.66-1.26 4.158-1.675 5.288.204.346.673 1.21 1.066 2.458 1.123 3.563 1.584 10.205-6.75 16.53-.37 3.314-1.37 7.36-1.686 8.722-.445 1.916-.89 10.02-.742 12.966.15 2.945-.444 5.598-2.225 9.722-1.312 3.044-2.702 12.682-3.342 17.538l-6.197 28.453c4.123 1.82 8.905 3.223 13.83 4.307v.006c6.354 1.41 15.007 2.77 26.2 3.372 0-.003 0-.004.002-.007.443.026.854.046 1.272.067.414.02.82.042 1.24.06.04.004.078.005.12.006 1.968.08 4.01.14 6.125.17 0-1.994 3.124-19.627 4.25-21.123.393-.708.78-1.683 1.25-3.24.89-2.947 1.634-6.188 3.857-10.314 2.225-4.123 5.487-13.846 6.822-17.382.992-2.623 2.31-3.22 2.922-3.353.614.132 1.93.73 2.92 3.353 1.337 3.536 4.6 13.26 6.824 17.383 2.223 4.127 2.966 7.368 3.855 10.314.472 1.558.86 2.533 1.25 3.24 1.127 1.497 4.25 19.13 4.25 21.125 2.118-.032 4.158-.09 6.127-.172.04 0 .08-.002.12-.005l1.24-.06c.417-.022.827-.042 1.272-.068 0 .003.003.004.003.007 11.19-.603 19.843-1.96 26.198-3.372v-.006" fill="#653639"/><path d="M301.64 247.325s-.042.063-.11.173c.008.015.012.028.017.044.16.424.223.47.092-.217" fill="#1b1918"/><path d="M301.965 444.538c4.448 4.705 4.877-1.354 4.877-1.354-1.507-4.99 8.843-5.038 8.843-5.038s-.446-5.158-.557-6.04c-.11-.885-.036-.81-.223-.958-.184-.15-.63-.15-.63-.15s-5.202 2.96-13.94 1.693l-.057-.008c-.085-.005-.244.052-.35.525-.15.664.668 10.572.446 11.087.56-1.054 1.59.244 1.59.244" fill="#d2462f"/><path d="M334.74 468.787s.073-2.578-1.26-5.23c-1.335-2.65-4.302-4.788-5.266-6.113-.963-1.326-3.63-8.914-4.3-11.05-.667-2.137-1.853-3.02-2.817-3.683-.964-.66-.444-1.178-1.78-3.018-1.333-1.842-3.632-1.546-3.632-1.546s-10.35.05-8.843 5.038c0 0-.43 6.06-4.877 1.354 0 0-1.032-1.298-1.59-.244-.224.516-1.485 2.578-1.93 3.83-.444 1.25.22 3.684.445 4.345.223.662.075 5.597.075 5.597s-.408.15-.705.996c-.297.847.296 4.824.406 5.156.114.33 2.708 2.062 5.303 2.8 2.595.735 4.226.735 4.744 1.472.52.736.742 1.84 2.077 3.095 1.335 1.25 7.34 3.167 10.9 3.24 3.56.074 11.714-.664 12.68-1.325.963-.665.74-3.757.74-3.757l-.37-.958" fill="#392223"/><path d="M314.275 430.998s3.375-33.513 2.337-46.33c-1.04-12.814-6.377-24.012-8.157-31.82-.368-1.625-.646-3.164-.877-4.648-6.355 1.41-15.007 2.77-26.2 3.372.19.455.38.886.57 1.273 2.668 5.45 4.002 6.188 4.892 9.133.89 2.948-.742 18.414.89 26.518 1.63 8.102 5.635 12.523 7.71 19.74 2.077 7.22 4.895 24.455 4.895 24.455 8.738 1.27 13.94-1.692 13.94-1.692" fill="#f4be7d"/><path d="M234.432 67.484s-.638-5.84-.342-9.102c.294-3.24 2.34-9.434 2.34-9.434.806-4.266 2.505-7.446 2.505-7.446 8.88 8.456 26.583 2.753 26.583 2.753 9.02 1.82 7.896 21.31 7.896 21.31s.775-3.708 2.613-15.457c1.835-11.75-6.372-18.387-18.57-21.036-12.196-2.647-19.36 5.148-19.36 5.148-8.853.165-8.017 13.57-7.182 17.21.835 3.64 3.517 16.054 3.517 16.054M253.784 84.838c-5.668-.005-5.867-1.414-5.867-1.414s2.98-1.616 5.867-1.627c2.89.01 5.868 1.627 5.868 1.627s-.198 1.41-5.868 1.414zM272.99 69.33c-.852 4.603-5.014 10.524-9.365 10.712-4.308.186-6.488-2.568-9.84-2.805-3.354.237-5.533 2.99-9.842 2.805-4.35-.188-8.51-6.11-9.362-10.71-.23-1.246-2.223 24.645 19.204 25.066 21.428-.42 19.434-26.312 19.205-25.067" fill="#392223"/><path d="M4973.77 894.03s-96.25-62.5-136.25-123.75c0 0 143.75-40 190-67.5" fill="none" stroke="#fcfcfe" stroke-width="20" stroke-linecap="round" stroke-linejoin="round" stroke-miterlimit="10" transform="matrix(.0698 0 0 -.06936 -25.743 506.43)"/><path d="M4783.77 866.55s179.5-19.468 222.5-67.52c0 0-87.53-73.75-101.89-121.25M3026.27 894.03s96.25-62.5 136.25-123.75c0 0-143.75-38.75-190-66.25" fill="none" stroke="#fcfcfe" stroke-width="20" stroke-linecap="round" stroke-linejoin="round" stroke-miterlimit="10" transform="matrix(.0698 0 0 -.06936 -25.743 506.43)"/><path d="M3216.27 866.55s-179.49-19.468-222.5-67.52c0 0 87.54-73.75 101.89-121.25" fill="none" stroke="#fcfcfe" stroke-width="20" stroke-linecap="round" stroke-linejoin="round" stroke-miterlimit="10" transform="matrix(.0698 0 0 -.06936 -25.743 506.43)"/><path d="M195.035 443.797c-1.478-1.065-4.07-1.09-4.942-1.012l-.264-2.762c.17-.015 4.203-.376 6.845 1.53l-1.64 2.244M311.882 443.797c1.478-1.065 4.07-1.09 4.94-1.012l.265-2.762c-.17-.015-4.204-.376-6.845 1.53l1.64 2.244M405.678 137.5l12.818-21.274 12.676 28.603 6.803-15.83h14.623c.593-1.83.927-3.782.927-5.81 0-7.312-4.068-13.652-10.076-16.968-2.793-1.53-5.986-2.407-9.41-2.407-6.03 0-11.42 2.728-14.984 7.015-3.59-4.287-8.983-7.015-15.026-7.015-3.39 0-6.59.878-9.393 2.407-6.008 3.304-10.076 9.656-10.076 16.968 0 2.028.33 3.98.922 5.81h14.196l6 8.5" fill="#d2462f"/><path d="M431.207 150.993l-13.048-29.437L405.84 142l-7.447-10.548h-12.155c5.62 14.5 32.818 31.462 32.818 31.462s27.16-16.96 32.786-31.46l-12.237-.002-8.398 19.54" fill="#d2462f"/><path d="M392.2 337.39h25.58V291.21H392.2v46.177z" fill="#2c2a2a"/><path d="M394.745 310.86h20.49v-17.17h-20.49v17.17zM404.99 315.62c-4.695 0-8.515 3.797-8.515 8.463 0 4.663 3.82 8.46 8.515 8.46 4.694 0 8.514-3.797 8.514-8.46 0-4.666-3.82-8.462-8.514-8.462zm0 17.433c-4.98 0-9.03-4.025-9.03-8.97 0-4.948 4.05-8.973 9.03-8.973 4.977 0 9.028 4.025 9.028 8.973 0 4.945-4.05 8.97-9.028 8.97" fill="#f8f8f8"/><path d="M410.834 291.212h3.472v-6.674h-3.472v6.674z" fill="#d2462f"/><path d="M410.834 290.122h3.472v-.545h-3.472v.545zM410.834 288.988h3.472v-.546h-3.472v.546z" fill="#2c2a2a"/><path d="M412.313 284.9h.514v-16.663h-.514V284.9z" fill="#d2462f"/><path d="M421.965 336.073h-.513v-67.836c0-2.363-1.935-4.285-4.314-4.285-2.377 0-4.312 1.922-4.312 4.285h-.513c0-2.645 2.166-4.796 4.825-4.796 2.662 0 4.827 2.152 4.827 4.797v67.836" fill="#d2462f"/><path d="M425.718 340.333c-2.364 0-4.29-1.912-4.29-4.26h.515c0 2.067 1.693 3.75 3.775 3.75s3.775-1.683 3.775-3.75V276.57h.514v59.503c0 2.348-1.924 4.26-4.29 4.26" fill="#d2462f"/><path d="M437.684 327.854h-.514V276.57c0-1.963-1.608-3.56-3.582-3.56-1.975 0-3.58 1.597-3.58 3.56h-.515c0-2.244 1.837-4.07 4.095-4.07s4.096 1.826 4.096 4.07v51.284" fill="#d2462f"/><path d="M441.99 328.854h-.515V276.57c0-3.144-2.573-5.698-5.734-5.698-3.16 0-5.733 2.554-5.733 5.698h-.514c0-3.424 2.803-6.21 6.248-6.21 3.446 0 6.25 2.786 6.25 6.21v52.284" fill="#d2462f"/><path d="M440.932 329.896h1.6v-2.042h-1.6v2.042z" fill="#2c2a2a"/><path d="M442.53 330.578h3.11v-3.405h-3.11v3.405z" fill="#2c2a2a"/><path d="M447.246 328.354c-.215-.685-.85-1.18-1.607-1.18v3.36c.756 0 1.39-.498 1.606-1.18-.04-.15-.065-.32-.065-.5 0-.182.026-.35.066-.5" fill="#d2462f"/><path d="M436.627 328.875h1.6v-2.043h-1.6v2.043z" fill="#2c2a2a"/><path d="M433.588 329.556h3.107v-3.405h-3.107v3.406z" fill="#2c2a2a"/><path d="M431.982 328.354c.215.682.85 1.18 1.606 1.18v-3.362c-.756 0-1.39.498-1.606 1.182.04.15.063.32.063.5s-.023.35-.063.5" fill="#d2462f"/><path d="M74.13 106.056c.448-.502 1.114-.78 1.873-.78h30.002c.76 0 1.425.278 1.874.78.447.503.644 1.193.554 1.942l-1.466 12.088c-4.43-3.362-9.96-5.364-15.964-5.364s-11.535 2.002-15.963 5.364l-1.465-12.088c-.092-.75.106-1.44.555-1.942zm37.428 18.494l1.933-15.947c.265-2.174-.392-4.326-1.8-5.904-1.41-1.58-3.48-2.484-5.685-2.484H76.003c-2.204 0-4.276.905-5.684 2.483-1.41 1.577-2.066 3.73-1.804 5.903l1.934 15.947c-3.605 4.474-5.764 10.148-5.764 16.326 0 9.623 5.233 18.026 13.022 22.567H104.3c7.79-4.54 13.023-12.944 13.023-22.567 0-6.178-2.16-11.852-5.765-16.326" fill="#392223"/><path d="M73.4 163.378H45.05l-4.206-57.223h36.757L73.4 163.378" fill="#d2462f"/><path d="M62.967 88.676v-5.23h1.72c.03-.004 2.344-.163 4.67 2.396 1.616 1.78 3.652 4.724 4.835 10.128-2.64-3.68-6.614-6.346-11.225-7.294zM70.987 84c-3.218-2.997-6.143-2.86-6.3-2.843H53.764v2.29h1.72v5.228c-8.227 1.692-14.44 8.85-14.628 17.48h36.736c0-10.637-2.236-18.077-6.607-22.154" fill="#392223"/><path d="M53.765 109.567h5.46v-.694h-5.46v.694zM56.494 111.827h2.73v-.694h-2.73v.694zM56.494 114.088h2.73v-.693h-2.73v.693zM56.494 116.35h2.73v-.694h-2.73v.693zM56.494 118.61h2.73v-.694h-2.73v.694zM56.494 120.87h2.73v-.693h-2.73v.694zM53.765 123.132h5.46v-.694h-5.46v.694zM56.494 125.393h2.73v-.693h-2.73v.693zM56.494 127.654h2.73v-.694h-2.73v.694zM56.494 129.915h2.73v-.694h-2.73v.695zM56.494 132.176h2.73v-.694h-2.73v.694zM56.494 134.437h2.73v-.694h-2.73v.694zM53.765 136.698h5.46v-.693h-5.46v.693zM56.494 138.96h2.73v-.695h-2.73v.694zM56.494 141.22h2.73v-.694h-2.73v.694zM56.494 143.48h2.73v-.693h-2.73v.693zM56.494 145.74h2.73v-.692h-2.73v.693zM56.494 148.002h2.73v-.694h-2.73v.694zM53.765 150.263h5.46v-.694h-5.46v.693zM56.594 152.524h2.63v-.694h-2.63v.694zM56.594 154.785h2.63v-.694h-2.63v.695zM56.594 157.045h2.63v-.694h-2.63v.695zM56.594 159.306h2.63v-.694h-2.63v.694z" fill="#fcfcfe"/><text transform="matrix(.69815 0 0 .69358 41.343 302.103)" style="-inkscape-font-specification:OpenSans-Extrabold" font-weight="800" font-size="12" font-family="OpenSans" fill="#d2462f"><tspan x="0 7.6313534 15.262707" y="0">40%</tspan></text><text transform="matrix(.69815 0 0 .69358 68.132 291.4)" style="-inkscape-font-specification:OpenSans-Extrabold" font-weight="800" font-size="12" font-family="OpenSans" fill="#653639"><tspan x="0 7.6313534 15.262707" y="0">60%</tspan></text><text transform="matrix(.69815 0 0 .69358 95.333 275.68)" style="-inkscape-font-specification:OpenSans-Extrabold" font-weight="800" font-size="12" font-family="OpenSans" fill="#392223"><tspan x="0 7.6313534 15.262707" y="0">90%</tspan></text><path d="M40.89 339.7h19.472v-31.445h-19.47V339.7z" fill="#d2462f"/><path d="M67.88 339.7h19.47v-43.93H67.88v43.93z" fill="#653639"/><path d="M94.87 339.7h19.47v-58.495H94.87V339.7z" fill="#392223"/></svg>