<svg xmlns="http://www.w3.org/2000/svg" width="200" height="150" viewBox="0 0 500 500"><defs><clipPath id="a"><path d="M6710.23 3164.59l-54.64 32.69c-6.94 4.14-9.12 13.15-4.86 20.02l95.44 153.67c4.13 6.64 12.99 8.78 19.69 4.77l54.65-32.69c6.93-4.15 9.11-13.15 4.85-20.02l-95.44-153.67c-4.12-6.64-12.98-8.79-19.69-4.77"/></clipPath><clipPath id="b"><path d="M1284.65 3045.64c-38.47 8.15-63.05 45.95-54.89 84.42 8.15 38.47 45.95 63.05 84.42 54.89 38.47-8.15 63.05-45.95 54.89-84.42-8.15-38.47-45.95-63.05-84.42-54.89m238.44 62.67l-36.95 7.83c-.08 20.28-3.47 40.06-9.77 58.71l33.07 21.5c3.55 2.3 4.56 7.1 2.26 10.64l-38.54 59.27c-2.31 3.55-7.1 4.56-10.65 2.26l-31.69-20.61c-13.99 13.89-30.23 25.69-48.37 34.68l8.16 38.53c.88 4.14-1.79 8.24-5.93 9.12l-69.16 14.66c-4.14.87-8.24-1.79-9.12-5.94l-7.83-36.95c-20.28-.07-40.06-3.46-58.71-9.76l-21.5 33.07c-2.3 3.55-7.1 4.56-10.64 2.25l-59.27-38.53c-3.55-2.31-4.56-7.1-2.26-10.65l20.61-31.69c-13.89-13.99-25.69-30.23-34.67-48.38l-38.53 8.17c-4.15.88-8.25-1.79-9.13-5.93l-14.66-69.16c-.87-4.14 1.8-8.25 5.94-9.12l36.95-7.83c.07-20.28 3.46-40.06 9.76-58.71l-33.07-21.5c-3.55-2.3-4.56-7.1-2.25-10.64l38.53-59.27c2.31-3.55 7.1-4.56 10.65-2.26l31.69 20.61c13.99-13.89 30.23-25.69 48.38-34.68l-8.17-38.53c-.88-4.14 1.79-8.24 5.93-9.12l69.16-14.66c4.14-.88 8.25 1.8 9.12 5.94l7.84 36.95c20.28.07 40.05 3.46 58.7 9.75l21.5-33.06c2.3-3.55 7.1-4.56 10.64-2.26l59.27 38.54c3.55 2.31 4.57 7.1 2.26 10.65l-20.61 31.69c13.89 13.99 25.69 30.23 34.68 48.37l38.53-8.16c4.14-.88 8.24 1.79 9.12 5.93l14.66 69.16c.88 4.14-1.79 8.25-5.93 9.12"/></clipPath><clipPath id="c"><path d="M964.063 3243.96c-22.684 4.81-37.18 27.1-32.372 49.79 4.81 22.69 27.1 37.18 49.787 32.37 22.683-4.8 37.183-27.09 32.373-49.78-4.81-22.69-27.1-37.18-49.787-32.38m140.607 36.97l-21.79 4.62c-.04 11.96-2.04 23.62-5.75 34.61l19.5 12.68c2.09 1.36 2.69 4.19 1.33 6.28l-22.73 34.95c-1.36 2.1-4.19 2.7-6.28 1.33l-18.69-12.15c-8.25 8.19-17.83 15.15-28.52 20.45l4.81 22.72c.52 2.44-1.06 4.87-3.5 5.38l-40.784 8.65c-2.442.51-4.864-1.06-5.38-3.5l-4.616-21.79c-11.96-.04-23.625-2.04-34.622-5.76l-12.675 19.5c-1.364 2.09-4.188 2.69-6.282 1.33l-34.948-22.72c-2.094-1.36-2.69-4.19-1.332-6.28l12.153-18.69c-8.192-8.25-15.15-17.83-20.45-28.53l-22.722 4.82c-2.44.51-4.863-1.06-5.378-3.5l-8.645-40.79c-.52-2.44 1.055-4.86 3.496-5.38l21.793-4.62c.043-11.96 2.043-23.62 5.754-34.62l-19.5-12.67c-2.09-1.37-2.687-4.19-1.328-6.28l22.727-34.95c1.362-2.1 4.182-2.7 6.276-1.34l18.69 12.16c8.25-8.19 17.83-15.15 28.53-20.45l-4.818-22.72c-.52-2.45 1.06-4.87 3.5-5.39l40.785-8.64c2.442-.52 4.864 1.06 5.38 3.5l4.62 21.79c11.957.04 23.622 2.04 34.617 5.76l12.68-19.5c1.36-2.1 4.18-2.7 6.28-1.33l34.95 22.72c2.09 1.36 2.69 4.19 1.33 6.28l-12.15 18.69c8.19 8.25 15.15 17.83 20.45 28.53l22.72-4.82c2.44-.52 4.86 1.06 5.38 3.5l8.65 40.79c.51 2.44-1.06 4.86-3.51 5.38"/></clipPath><clipPath id="d"><path d="M1179.31 3458.3c-27.58 5.85-45.2 32.94-39.35 60.52 5.84 27.57 32.94 45.19 60.51 39.35 27.58-5.85 45.2-32.94 39.35-60.52-5.84-27.58-32.93-45.19-60.51-39.35m170.91 44.93l-26.48 5.61c-.06 14.54-2.49 28.72-7 42.08l23.7 15.41c2.54 1.66 3.27 5.09 1.62 7.64l-27.63 42.48c-1.65 2.54-5.08 3.27-7.63 1.62l-22.72-14.78c-10.02 9.96-21.67 18.42-34.67 24.86l5.85 27.62c.63 2.97-1.28 5.91-4.25 6.54l-49.57 10.51c-2.97.63-5.91-1.29-6.55-4.26l-5.61-26.48c-14.53-.05-28.71-2.49-42.08-7l-15.41 23.7c-1.65 2.55-5.09 3.27-7.63 1.62l-42.48-27.62c-2.55-1.66-3.28-5.09-1.62-7.64l14.77-22.71c-9.96-10.03-18.41-21.67-24.86-34.68l-27.62 5.85c-2.96.63-5.91-1.28-6.54-4.25l-10.5-49.57c-.63-2.97 1.28-5.91 4.25-6.54l26.49-5.62c.05-14.53 2.48-28.71 6.99-42.07l-23.7-15.42c-2.54-1.65-3.27-5.08-1.62-7.63l27.63-42.48c1.65-2.55 5.09-3.27 7.63-1.62l22.72 14.77c10.03-9.95 21.67-18.41 34.67-24.86l-5.85-27.61c-.63-2.97 1.29-5.92 4.25-6.54l49.58-10.51c2.96-.63 5.91 1.28 6.54 4.25l5.61 26.49c14.54.05 28.72 2.48 42.08 6.99l15.41-23.7c1.66-2.54 5.09-3.27 7.64-1.61l42.48 27.62c2.54 1.65 3.27 5.09 1.61 7.63l-14.77 22.72c9.96 10.03 18.42 21.67 24.86 34.67l27.62-5.85c2.97-.63 5.91 1.29 6.54 4.25l10.51 49.58c.62 2.97-1.29 5.91-4.26 6.54"/></clipPath><clipPath id="e"><path d="M970.824 5695.72l477.806 200.05 179.38-428.41-477.81-200.06-179.376 428.42"/></clipPath></defs><path d="M231.284 267.697v16.22l18.11 11.643 18.953-11.644v-16.22h-37.063" fill="#fcce8e"/><path d="M231.284 267.697v16.22l9.994 6.425 27.07-16.615v-6.03h-37.064" fill="#f6b06e"/><path d="M282.667 231.724s-2.526-2.91-3.79.416c0 0 8.002-37.43-29.06-37.43-37.064 0-29.062 37.43-29.062 37.43-1.264-3.327-3.79-.416-3.79-.416-2.106 18.714 6.317 20.378 6.317 20.378s0 10.396 9.687 19.96c9.686 9.566 16.846 9.566 16.846 9.566s7.58-1.247 17.268-10.812c9.687-9.566 9.266-18.714 9.266-18.714s8.423-1.664 6.317-20.378" fill="#fcce8e"/><path d="M221.34 238.316l2.527-11.228s2.527-9.15 3.79-11.23c1.264-2.078 3.627-4.573 3.627-4.573s6.885 2.91 20.793 5.822c13.907 2.91 17.277 2.495 17.277 2.495l-3.79-4.574h7.58s.42 6.654 2.527 8.733c2.107 2.08 2.95 14.556 2.95 14.556l3.37-3.327 2.105-7.07v-22.873s-8.845-20.794-34.116-20.794c-25.27 0-33.694 22.873-33.694 22.873s-1.685 19.546 0 21.625c1.685 2.08 5.054 9.566 5.054 9.566" fill="#3b3b3c"/><path d="M94.515 344.864s12.037 3.863 15.046 4.26c3.01.395 9.63 1.287 13.242 5.25 3.61 3.96 2.407 3.762 3.71 4.753 1.305.99 5.618 4.457 5.618 4.457l-12.84 11.985s-4.513-2.775-5.967-3.17c-1.455-.397-23.02-4.656-24.726-5.746-1.705-1.09-17.655-19.313-17.856-19.908-.2-.594-.098-1.684.604-1.882.702-.197 3.51-.297 6.52 3.17 3.01 3.466 10.03 9.905 10.03 9.905l-9.63-11.194s-.4-1.94 0-1.96c.402-.02 3.31-.22 6.722 3.05 3.41 3.268 10.23 11.786 17.453 11.093 7.22-.695 3.41-4.657 3.41-4.657s-6.02-1.88-7.523-1.88c-1.505 0-5.718-3.567-3.812-7.53" fill="#fcce8e"/><path d="M109.996 262.73s-10.27-1.663-11.08-3.933c-.116-.326-.134-.73-.083-1.176 0 0 4.31-8.166 4.842-9.013.83-1.167 1.45-2.53.453-3.16 0 0-1.836-2.175-4.268 1.408l-.003.004c-.105.12-.202.248-.288.388l-.208.336c-.845 1.233-1.573 2.267-2.146 3.068.184-.774 1.36-5.895.446-6.83 0 0-2.074-2.78-3.058-.77-.984 2.012-3.105 12.042-3.105 12.042s4.846 16.375 11.303 14.784c6.458-1.59 7.193-7.148 7.193-7.148" fill="#f6b06e"/><path d="M84.633 250.153l-2.584-8.917s2.688-2.31 4.585 1.153c1.898 3.46 8.933 19.47 11.006 20.45 2.074.98 9.34 1.658 11.546-2.38 2.204-4.04 4.516-13 10.095-11.19 0 0 1.594 1.04.05 4.325-1.546 3.286-6.51 18.343-5.194 20.74 1.318 2.4 3.118 3.54 3.118 3.54l-4.395 17.037s-12.946-2.107-16.143-8.652c-3.196-6.545-12.084-36.107-12.084-36.107" fill="#fcce8e"/><path d="M389.636 262.73s10.27-1.663 11.08-3.933c.116-.326.133-.73.083-1.176 0 0-4.312-8.166-4.843-9.013-.83-1.167-1.45-2.53-.453-3.16 0 0 1.836-2.175 4.268 1.408l.003.004c.105.12.202.248.288.388.07.114.138.226.207.336.845 1.233 1.573 2.267 2.146 3.068-.184-.774-1.36-5.895-.446-6.83 0 0 2.074-2.78 3.058-.77.984 2.012 3.105 12.042 3.105 12.042s-4.847 16.375-11.304 14.784c-6.46-1.59-7.194-7.148-7.194-7.148" fill="#f6b06e"/><path d="M415 250.153l2.583-8.917s-2.69-2.31-4.586 1.153c-1.898 3.46-8.933 19.47-11.006 20.45-2.072.98-9.34 1.658-11.544-2.38-2.204-4.04-4.516-13-10.095-11.19 0 0-1.592 1.04-.047 4.325 1.545 3.286 6.51 18.343 5.192 20.74-1.317 2.4-3.117 3.54-3.117 3.54l4.395 17.037s12.945-2.107 16.142-8.652C406.11 279.715 415 250.153 415 250.153" fill="#fcce8e"/><path d="M378.584 281.058l3.844-3.476 18.153 11.523-4.815 4.024-17.18-12.072M121.048 281.058l-3.844-3.476-18.153 11.523 4.817 4.024 17.18-12.072" fill="#fdf2f9"/><path d="M232.293 329.5l-27.533-33.456-49.55 9.52-34.513-26.545-21.044 13.272s47.885 44.852 56.52 44.593c.144-.004.284-.02.42-.04l75.7-7.345" fill="#496c9c"/><path d="M267.34 329.5l27.532-33.456 49.55 9.52 34.513-26.545 21.044 13.272s-47.886 44.852-56.52 44.593c-.145-.004-.285-.02-.42-.04l-75.7-7.345" fill="#364f73"/><path d="M93.786 344.864s12.037 3.863 15.046 4.26c3.01.395 9.63 1.287 13.24 5.25 3.612 3.96 2.408 3.762 3.713 4.753 1.303.99 5.617 4.457 5.617 4.457l-12.84 11.985s-4.514-2.775-5.968-3.17c-1.455-.397-23.02-4.656-24.726-5.746-1.705-1.09-17.654-19.313-17.855-19.908-.2-.594-.1-1.684.602-1.882.702-.197 3.51-.297 6.52 3.17 3.01 3.466 10.03 9.905 10.03 9.905l-9.63-11.194s-.4-1.94 0-1.96c.403-.02 3.31-.22 6.722 3.05 3.41 3.268 10.23 11.786 17.453 11.093 7.222-.695 3.41-4.657 3.41-4.657s-6.017-1.88-7.522-1.88-5.718-3.567-3.812-7.53M405.846 344.864s-12.037 3.863-15.046 4.26c-3.01.395-9.63 1.287-13.24 5.25-3.612 3.96-2.408 3.762-3.713 4.753-1.303.99-5.617 4.457-5.617 4.457l12.84 11.985s4.514-2.775 5.968-3.17c1.455-.397 23.02-4.656 24.726-5.746 1.705-1.09 17.654-19.313 17.855-19.908.2-.594.1-1.684-.603-1.882-.702-.197-3.51-.297-6.52 3.17-3.01 3.466-10.03 9.905-10.03 9.905l9.63-11.194s.4-1.94 0-1.96c-.403-.02-3.312-.22-6.722 3.05-3.41 3.268-10.23 11.786-17.453 11.093-7.222-.695-3.41-4.657-3.41-4.657s6.017-1.88 7.522-1.88 5.718-3.567 3.812-7.53" fill="#fcce8e"/><path d="M359.493 362.836l10.3-5.834 14.543 20.94-9.695 5.685-15.147-20.79" fill="#fdf2f9"/><path d="M268.347 283.916l45.093 19.237 28.177 65.516L362.22 357l16.965 26.326s-38.477 21.24-40.295 21.24c-1.818 0-1.818.898-7.27-4.188-5.455-5.085-29.693-35.6-29.693-35.6v77.483h-52.11v-85.26l18.53-73.087" fill="#496c9c"/><path d="M140.57 362.836l-10.3-5.834-14.542 20.94 9.695 5.685 15.148-20.79" fill="#fdf2f9"/><path d="M231.284 283.916l-46.56 20.02-26.278 64.733L137.844 357l-16.966 26.326s38.478 21.24 40.296 21.24c1.817 0 1.817.898 7.27-4.188 5.455-5.085 29.692-35.6 29.692-35.6v77.483h51.68v-85.26l-18.532-73.087" fill="#364f73"/><path d="M231.284 282.795L249.29 294.5l.526 62.502-18.532-73.086v-1.12" fill="#e2e2e1"/><path d="M268.347 283.252l-19.507 10.956.976 62.794 18.53-73.086v-.664" fill="#f0f0ee"/><path d="M249.816 357.002l-14.192-55.973 13.216-6.822.976 62.794" fill="#d0d1cf"/><path d="M249.816 357.002l-.976-62.794 15.445 5.732-14.47 57.062" fill="#d6d8d5"/><path d="M249.816 357.002l-.976-50.338v-12.456l-6.627 3.42 4.126 5.625-3.162 29.108 6.638 24.642" fill="#ef3738"/><path d="M249.816 357.002l-.976-50.338v-12.456l6.627 3.42-4.125 5.625 4.803 30.023-6.33 23.726" fill="#f15359"/><path d="M249.816 356.27v.732l-6.638-24.64 5.662-38.154.976 62.062" fill="#ef3738"/><path d="M231.284 282.795l-18.268 8.348L224.1 302.64l-5.187 9.876 30.903 44.486-18.532-74.207" fill="#496c9c"/><path d="M268.347 283.252l18.223 7.674-11.292 11.714 5.187 9.876-30.903 44.486 18.785-73.75" fill="#364f73"/><path d="M207.457 407.992h22.97v-5.488h-22.97v5.488z" fill="#496c9c"/><path d="M269.206 407.992h22.97v-5.488h-22.97v5.488z" fill="#364f73"/><path d="M190.23 412.11c11.176 0 21.238 4.71 28.264 12.23 2.91-2.964 6.982-4.808 11.493-4.808 8.844 0 16.013 7.08 16.013 15.81 0 .515-.028 1.022-.076 1.523 1.13-.148 2.28-.232 3.452-.232 14.378 0 26.034 11.51 26.034 25.706s-11.656 25.705-26.034 25.705H190.23c-21.238 0-38.453-16.998-38.453-37.967 0-20.97 17.215-37.968 38.452-37.968" fill="#c8cac8"/><path d="M190.23 410.82c11.176 0 21.238 4.71 28.264 12.23 2.91-2.964 6.982-4.81 11.493-4.81 8.844 0 16.013 7.08 16.013 15.812 0 .513-.028 1.02-.076 1.523 1.13-.148 2.28-.233 3.452-.233 14.378 0 26.034 11.51 26.034 25.707 0 14.196-11.656 25.705-26.034 25.705H190.23c-21.238 0-38.453-17-38.453-37.968 0-20.97 17.215-37.967 38.452-37.967" fill="#fff"/><path d="M309.403 412.756c-11.177 0-21.24 4.71-28.265 12.23-2.91-2.964-6.982-4.808-11.493-4.808-8.844 0-16.013 7.078-16.013 15.81 0 .514.028 1.02.076 1.523-1.13-.147-2.28-.232-3.452-.232-14.378 0-26.034 11.51-26.034 25.707 0 14.197 11.656 25.706 26.034 25.706h59.147c21.237 0 38.452-16.998 38.452-37.967 0-20.97-17.215-37.967-38.452-37.967" fill="#c8cac8"/><path d="M309.403 411.465c-11.177 0-21.24 4.71-28.265 12.23-2.91-2.964-6.982-4.81-11.493-4.81-8.844 0-16.013 7.08-16.013 15.812 0 .514.028 1.022.076 1.523-1.13-.148-2.28-.232-3.452-.232-14.378 0-26.034 11.51-26.034 25.706 0 14.197 11.656 25.706 26.034 25.706h59.147c21.237 0 38.452-17 38.452-37.967 0-20.97-17.215-37.968-38.452-37.968" fill="#fff"/><path d="M276.366 242.7c-2.44 7.02-5.017 6.675-9.408 7.226-4.39.55-7.944-1.1-7.944-1.1-5.923-3.992-5.435-12.11-4.53-13.763.907-1.65 2.65-3.853 11.708-3.853 9.06 0 10.313 2.752 10.313 2.752 1.673 3.234-.14 8.74-.14 8.74zm-35.748 6.125s-3.554 1.65-7.945 1.1c-4.39-.55-6.968-.206-9.407-7.224 0 0-1.812-5.504-.14-8.738 0 0 1.255-2.752 10.314-2.752 9.06 0 10.8 2.202 11.707 3.853.906 1.652 1.394 9.77-4.53 13.762zm35.33-18.785s-7.805-1.17-13.17-.344c-5.366.826-9.83 1.927-11.256 1.858-1.427-.07-1.706.003-1.706.003s-.28-.072-1.706-.003c-1.427.07-5.89-1.032-11.256-1.858-5.365-.826-13.17.344-13.17.344l-4.81.55v4.61s1.256.964 1.535 1.515c.278.55 2.02 6.95 3.065 9.495 1.045 2.546 4.878 6.33 13.937 4.748 9.06-1.583 10.104-12.73 10.698-13.35.594-.618 1.706-.825 1.706-.825s1.112.207 1.706.826c.594.618 1.64 11.765 10.698 13.348 9.06 1.582 12.892-2.202 13.937-4.748 1.046-2.546 2.787-8.945 3.066-9.495.28-.55 1.534-1.515 1.534-1.515v-4.61l-4.81-.55" fill="#262729"/><path d="M249.562 357.002l-.186 78.34h2.17l-1.984-78.34" fill="#496c9c"/><path d="M139.28 186.082c.604 2.97-1.343 5.864-4.353 6.463-3.01.598-5.94-1.326-6.546-4.297-.604-2.97 1.344-5.865 4.353-6.463 3.01-.598 5.94 1.325 6.546 4.297M98.208 211.826l-.37.073c-.616.122-1.223-.276-1.347-.886-.123-.61.28-1.21.897-1.33l.37-.074c.617-.124 1.224.275 1.348.884.124.61-.28 1.21-.897 1.332M99.84 214.474l-.37.074c-.616.123-1.223-.276-1.347-.885-.125-.61.28-1.21.896-1.332l.368-.072c.617-.123 1.224.276 1.348.885.125.61-.278 1.21-.896 1.33" fill="#345070"/><path d="M104.754 227.104c-1.907 1.36-4.593.933-5.97-.95L86.828 209.82c-1.38-1.883-.946-4.535.96-5.895 1.906-1.36 4.593-.933 5.97.95l11.955 16.334c1.377 1.88.945 4.534-.96 5.894" fill="#28415b"/><path d="M95.69 181.427l2.61 12.8 2.61 12.8s27.676-6.95 36.46 4.625l-4.936-24.21-4.936-24.21c-3.564 14.028-31.808 18.195-31.808 18.195" fill="#fff"/><path d="M137.71 213.322c-1.135.226-2.252-.507-2.48-1.628l-9.722-47.682c-.228-1.12.514-2.223 1.65-2.45 1.135-.224 2.25.508 2.48 1.63l9.72 47.68c.23 1.122-.513 2.224-1.648 2.45" fill="#fbbe2b"/><path d="M95.69 181.427l-15.707 3.702c-2.86.567-4.588 4.038-3.84 7.71l2.27 11.13c.75 3.675 3.702 6.215 6.563 5.646l15.933-2.588-5.22-25.6" fill="#364f73"/><path d="M82.737 190.66l-6.763 1.346.34 1.67 6.764-1.345c.464-.09.768-.542.675-1.002-.094-.46-.55-.76-1.016-.667M83.304 193.444l-6.763 1.345.34 1.668 6.765-1.344c.465-.092.77-.544.675-1.003-.093-.458-.55-.758-1.016-.666M83.872 196.227l-6.763 1.345.34 1.67 6.763-1.345c.465-.093.768-.544.675-1.004-.093-.458-.55-.758-1.016-.666M84.44 199.01l-6.764 1.344.34 1.67 6.764-1.345c.465-.093.77-.545.675-1.003-.093-.46-.55-.76-1.016-.667M85.007 201.792l-6.764 1.345.34 1.67 6.764-1.345c.465-.093.77-.544.675-1.003-.093-.46-.55-.76-1.015-.668" fill="#28415b"/><path d="M423.663 210.038l-51.78 17.862-9.566-27.04 51.78-17.86 9.566 27.038" fill="#496c9c"/><path d="M362.317 200.86l30.673 4.59-21.106 22.45-9.567-27.04M414.096 183l-21.106 22.45 30.673 4.588L414.096 183M362.317 200.86l19.862-25.967L414.095 183l-51.78 17.86" fill="#364f73"/><path d="M362.317 200.86l-1.454-4.108 51.78-17.862 1.453 4.11-21.106 22.45-30.673-4.59" fill="#fff"/><path d="M403.15 188.104l-29.05 10.02c-.51.177-1.073-.09-1.252-.595-.178-.505.094-1.062.605-1.238l29.05-10.02c.51-.177 1.073.092 1.25.596.18.504-.092 1.06-.603 1.236M404.49 191.89l-29.05 10.022c-.51.176-1.073-.092-1.25-.597-.18-.504.092-1.06.602-1.236l29.05-10.022c.51-.176 1.073.092 1.252.596.178.505-.093 1.06-.604 1.237" fill="#d9dbd7"/><path d="M434.1 317.158l-3.706-2.19c-.47-.277-.62-.88-.33-1.34l6.473-10.29c.28-.446.88-.59 1.335-.322l3.706 2.19c.47.278.62.88.33 1.34l-6.473 10.292c-.28.444-.88.588-1.336.32" fill="#f78d28"/><path d="M457.882 298.49c-3.62 5.753-11.32 7.602-17.198 4.128-5.88-3.473-7.713-10.952-4.094-16.705 3.618-5.754 11.318-7.6 17.197-4.128 5.88 3.474 7.713 10.953 4.095 16.706" fill="#ace2d2"/><g clip-path="url(#a)" transform="matrix(.06782 0 0 -.06697 -21.48 529.83)"><path d="M6810.06 3385.1c-84.63 50.63-111.02 159.67-58.93 243.54 52.09 83.87 162.93 110.81 247.56 60.17 84.64-50.63 111.03-159.67 58.94-243.54s-162.93-110.81-247.57-60.17zm226.36 364.46c-118.49 70.89-273.67 33.17-346.59-84.25-72.92-117.41-35.98-270.07 82.51-340.96 118.49-70.89 273.66-33.17 346.59 84.25 72.92 117.41 35.98 270.07-82.51 340.96" fill="#e27d24"/></g><path d="M440.812 302.372c-5.74-3.39-7.53-10.693-3.997-16.31 3.533-5.617 11.05-7.42 16.79-4.03 5.74 3.39 7.53 10.693 3.997 16.31-3.533 5.617-11.05 7.42-16.79 4.03zm15.35-24.408c-8.035-4.748-18.558-2.222-23.504 5.642-4.946 7.863-2.44 18.087 5.595 22.834 8.037 4.748 18.56 2.222 23.506-5.642 4.945-7.863 2.44-18.087-5.597-22.834" fill="#fbbe2b"/><path d="M456.855 298.86c-2.862 4.548-8.952 6.01-13.603 3.263-4.65-2.747-6.1-8.663-3.237-13.214 2.862-4.55 8.95-6.012 13.602-3.265 4.65 2.747 6.1 8.663 3.238 13.214" fill="#c8ece0"/><path d="M454.827 300.252c-1.407 2.236-4.398 2.954-6.683 1.604s-2.997-4.256-1.59-6.49c1.405-2.237 4.397-2.955 6.682-1.606 2.284 1.35 2.997 4.257 1.59 6.492" fill="#e4f6ee"/><path d="M453.47 282.248c-5.61-3.314-12.982-1.544-16.435 3.944-3.452 5.49-1.696 12.65 3.913 15.964 5.61 3.314 12.98 1.544 16.433-3.944 3.453-5.49 1.7-12.65-3.91-15.964zm-12.832 20.4c-5.887-3.477-7.73-10.993-4.106-16.754 3.623-5.76 11.36-7.617 17.248-4.14 5.887 3.48 7.728 10.995 4.105 16.756-3.623 5.76-11.36 7.617-17.247 4.14" fill="#f78d28"/><path d="M429.56 328.97l-7.986-4.72 5.63-8.952 7.988 4.72-5.63 8.952" fill="#fac12f"/><path d="M418.75 328.74c-.324.516-.165 1.192.357 1.5l6.092 3.6c.52.307 1.213.135 1.54-.383l2.82-4.487-7.986-4.72-2.823 4.49M437.604 314.116l-6.093-3.6c-.52-.307-1.208-.143-1.53.367l-2.776 4.415 7.988 4.72 2.777-4.416c.32-.51.155-1.178-.366-1.486" fill="#3b5050"/><path d="M435.088 320.182l-7.987-4.72.104-.164 7.988 4.72-.104.164M429.532 329.016l-7.987-4.72.103-.163 7.988 4.72-.104.163" fill="#f78d28"/><path d="M65.645 325.863c-2.61-.545-4.275-3.077-3.723-5.653.553-2.576 3.117-4.223 5.726-3.676 2.61.546 4.276 3.077 3.722 5.654-.552 2.576-3.116 4.222-5.725 3.675zm16.17-4.197l-2.506-.524c-.005-1.358-.235-2.683-.663-3.932l2.243-1.44c.24-.154.31-.474.153-.712l-2.613-3.97c-.157-.237-.482-.305-.723-.15l-2.15 1.38c-.948-.93-2.05-1.72-3.28-2.323l.554-2.58c.06-.278-.12-.552-.4-.61l-4.69-.983c-.282-.058-.56.12-.62.398l-.53 2.474c-1.376.005-2.718.232-3.983.654l-1.458-2.215c-.157-.237-.482-.305-.722-.15l-4.02 2.58c-.24.155-.31.475-.153.713l1.397 2.123c-.942.935-1.742 2.023-2.352 3.24l-2.613-.55c-.28-.058-.56.12-.618.398l-.995 4.632c-.06.277.122.553.402.61l2.506.526c.005 1.358.235 2.682.662 3.93l-2.243 1.44c-.24.155-.31.476-.152.714l2.613 3.97c.157.237.48.304.722.15l2.15-1.38c.948.93 2.05 1.72 3.28 2.322l-.554 2.58c-.058.278.123.553.404.612l4.69.98c.28.06.56-.12.62-.396l.53-2.474c1.376-.006 2.717-.233 3.98-.654l1.46 2.214c.155.238.48.305.722.15l4.02-2.58c.24-.154.31-.475.152-.713L75.64 330c.942-.938 1.743-2.026 2.352-3.24l2.613.546c.28.06.56-.12.62-.397l.993-4.633c.06-.277-.122-.552-.402-.61" fill="#496c9c"/><g clip-path="url(#b)" transform="matrix(.06782 0 0 -.06697 -21.48 529.83)"><path d="M1270.76 2777.09l344.01-29.15 60.6 715.21-344.01 29.15-60.6-715.21" fill="#28415b"/></g><path d="M43.903 312.582c-1.54-.322-2.522-1.815-2.196-3.334.326-1.52 1.838-2.49 3.377-2.168 1.538.32 2.522 1.814 2.195 3.334-.327 1.52-1.84 2.49-3.377 2.168zm9.536-2.476l-1.48-.31c-.002-.8-.137-1.58-.39-2.317l1.323-.85c.142-.09.183-.28.09-.42l-1.54-2.34c-.093-.142-.284-.182-.427-.09l-1.267.813c-.56-.548-1.21-1.014-1.936-1.37l.327-1.52c.036-.165-.07-.327-.237-.36l-2.766-.58c-.165-.035-.33.07-.365.234l-.313 1.46c-.812.002-1.603.136-2.348.385l-.86-1.306c-.093-.14-.284-.18-.426-.09l-2.37 1.523c-.143.09-.183.28-.09.42l.823 1.25c-.556.553-1.028 1.195-1.388 1.91l-1.54-.32c-.166-.036-.33.07-.365.233l-.587 2.732c-.035.163.072.325.237.36l1.478.31c.003.8.14 1.58.39 2.318l-1.322.848c-.142.093-.182.282-.09.422l1.54 2.34c.094.14.285.18.427.09l1.268-.814c.56.548 1.21 1.015 1.934 1.37l-.326 1.52c-.035.165.072.327.237.362l2.766.58c.165.033.33-.072.364-.236l.313-1.46c.81-.002 1.602-.136 2.348-.385l.86 1.305c.092.14.284.18.426.09l2.37-1.522c.143-.09.184-.28.09-.42l-.823-1.253c.556-.552 1.028-1.194 1.387-1.91l1.54.323c.167.034.33-.07.366-.235l.586-2.732c.035-.163-.07-.325-.237-.36" fill="#345070"/><path d="M43.903 312.582c-1.54-.322-2.522-1.815-2.196-3.334.326-1.52 1.838-2.49 3.377-2.168 1.538.32 2.522 1.814 2.195 3.334-.327 1.52-1.84 2.49-3.377 2.168zm9.536-2.476l-1.48-.31c-.002-.8-.137-1.58-.39-2.317l1.323-.85c.142-.09.183-.28.09-.42l-1.54-2.34c-.093-.142-.284-.182-.427-.09l-1.267.813c-.56-.548-1.21-1.014-1.936-1.37l.327-1.52c.036-.165-.07-.327-.237-.36l-2.766-.58c-.165-.035-.33.07-.365.234l-.313 1.46c-.812.002-1.603.136-2.348.385l-.86-1.306c-.093-.14-.284-.18-.426-.09l-2.37 1.523c-.143.09-.183.28-.09.42l.823 1.25c-.556.553-1.028 1.195-1.388 1.91l-1.54-.32c-.166-.036-.33.07-.365.233l-.587 2.732c-.035.163.072.325.237.36l1.478.31c.003.8.14 1.58.39 2.318l-1.322.848c-.142.093-.182.282-.09.422l1.54 2.34c.094.14.285.18.427.09l1.268-.814c.56.548 1.21 1.015 1.934 1.37l-.326 1.52c-.035.165.072.327.237.362l2.766.58c.165.033.33-.072.364-.236l.313-1.46c.81-.002 1.602-.136 2.348-.385l.86 1.305c.092.14.284.18.426.09l2.37-1.522c.143-.09.184-.28.09-.42l-.823-1.253c.556-.552 1.028-1.194 1.387-1.91l1.54.323c.167.034.33-.07.366-.235l.586-2.732c.035-.163-.07-.325-.237-.36" fill="#496c9c"/><g clip-path="url(#c)" transform="matrix(.06782 0 0 -.06697 -21.48 529.83)"><path d="M955.87 3085.59l202.88-17.19 35.73 421.79-202.87 17.18-35.74-421.78" fill="#28415b"/></g><path d="M58.5 298.228c-1.87-.392-3.064-2.206-2.668-4.053.396-1.847 2.234-3.027 4.104-2.636 1.87.39 3.065 2.205 2.67 4.052-.397 1.847-2.235 3.027-4.105 2.636zm11.592-3.01l-1.796-.375c-.004-.974-.17-1.923-.475-2.818l1.61-1.032c.17-.11.22-.34.11-.512l-1.875-2.844c-.112-.17-.345-.22-.518-.108l-1.54.99c-.68-.667-1.47-1.234-2.352-1.665l.397-1.85c.042-.2-.087-.396-.29-.438l-3.36-.704c-.202-.04-.402.088-.444.287l-.38 1.773c-.986.003-1.948.167-2.855.47l-1.045-1.588c-.112-.17-.345-.22-.517-.11l-2.88 1.85c-.173.112-.223.342-.11.512l1 1.52c-.674.673-1.247 1.453-1.685 2.324l-1.873-.392c-.2-.042-.4.086-.443.285l-.713 3.32c-.043.2.086.396.288.438l1.796.377c.005.973.17 1.922.475 2.817l-1.607 1.033c-.172.11-.222.34-.11.51l1.874 2.846c.112.17.345.22.518.11l1.54-.99c.68.666 1.47 1.233 2.352 1.665l-.397 1.85c-.043.198.087.395.288.437l3.363.704c.2.042.4-.086.443-.285l.38-1.773c.986-.003 1.948-.166 2.854-.468l1.045 1.586c.11.17.344.22.516.108l2.882-1.85c.172-.11.222-.34.11-.51l-1.003-1.522c.676-.672 1.25-1.45 1.686-2.323l1.875.392c.2.042.4-.087.443-.285l.713-3.32c.043-.2-.087-.396-.288-.438" fill="#345070"/><path d="M58.5 298.228c-1.87-.392-3.064-2.206-2.668-4.053.396-1.847 2.234-3.027 4.104-2.636 1.87.39 3.065 2.205 2.67 4.052-.397 1.847-2.235 3.027-4.105 2.636zm11.592-3.01l-1.796-.375c-.004-.974-.17-1.923-.475-2.818l1.61-1.032c.17-.11.22-.34.11-.512l-1.875-2.844c-.112-.17-.345-.22-.518-.108l-1.54.99c-.68-.667-1.47-1.234-2.352-1.665l.397-1.85c.042-.2-.087-.396-.29-.438l-3.36-.704c-.202-.04-.402.088-.444.287l-.38 1.773c-.986.003-1.948.167-2.855.47l-1.045-1.588c-.112-.17-.345-.22-.517-.11l-2.88 1.85c-.173.112-.223.342-.11.512l1 1.52c-.674.673-1.247 1.453-1.685 2.324l-1.873-.392c-.2-.042-.4.086-.443.285l-.713 3.32c-.043.2.086.396.288.438l1.796.377c.005.973.17 1.922.475 2.817l-1.607 1.033c-.172.11-.222.34-.11.51l1.874 2.846c.112.17.345.22.518.11l1.54-.99c.68.666 1.47 1.233 2.352 1.665l-.397 1.85c-.043.198.087.395.288.437l3.363.704c.2.042.4-.086.443-.285l.38-1.773c.986-.003 1.948-.166 2.854-.468l1.045 1.586c.11.17.344.22.516.108l2.882-1.85c.172-.11.222-.34.11-.51l-1.003-1.522c.676-.672 1.25-1.45 1.686-2.323l1.875.392c.2.042.4-.087.443-.285l.713-3.32c.043-.2-.087-.396-.288-.438" fill="#496c9c"/><g clip-path="url(#d)" transform="matrix(.06782 0 0 -.06697 -21.48 529.83)"><path d="M1169.35 3265.8l246.6-20.89 43.44 512.67-246.6 20.9-43.44-512.68" fill="#28415b"/></g><path d="M297.437 59.514l-.57.197-6.09 11.135h-9.57c3.45-7.76 5.117-16.22 5.915-22.95h17.815c-.16 2.938-1.24 9.456-7.5 11.62zm-88.615 11.33l-6.088-11.133-.57-.196c-6.262-2.163-7.34-8.68-7.5-11.618h17.814c.798 6.73 2.464 15.19 5.915 22.95h-9.57zm99.245-24.582l-.088-1.45h-20.54c.267-2.973.36-5.443.39-7.134h1.044c.688 0 1.25-.556 1.25-1.234 0-.68-.562-1.234-1.25-1.234h-78.148c-.688 0-1.25.555-1.25 1.234 0 .678.562 1.234 1.25 1.234h1.044c.03 1.69.123 4.16.39 7.135h-20.54l-.087 1.45c-.258 4.246 1.323 12.9 9.02 15.946l6.407 11.718h12.92c4.723 9.007 12.18 16.54 23.936 18.45v8.438h-.972s-2.89 4.453 0 8.107h.972v5.138h-.346c-1.622 0-2.948 1.31-2.948 2.912v5.652c0 1.6 1.326 2.91 2.948 2.91h12.66c1.622 0 2.948-1.31 2.948-2.91v-5.652c0-1.6-1.326-2.91-2.948-2.91h-.346v-5.14h.972c2.89-3.653 0-8.106 0-8.106h-.972v-8.44c11.756-1.91 19.213-9.44 23.935-18.448h12.92l6.408-11.72c7.696-3.046 9.277-11.7 9.02-15.946" fill="#fbbe2b"/><path d="M243.816 109.55h11.968v-.627h-11.968v.627z" fill="#f78d28"/><path d="M243.816 100.816h11.968v-.627h-11.968v.626z" fill="#f0e928"/><path d="M243.816 93.01h11.968v-.63h-11.968v.63zM211.77 38.705h76.044v-1.027H211.77v1.027z" fill="#f78d28"/><path d="M243.816 114.06h11.968v-.47h-11.968v.47z" fill="#f0e928"/><path d="M275.812 127.666c.314 0 .572-.39.572-.867v-.695c0-.477-.258-.868-.572-.868h-52.024c-.314 0-.572.39-.572.868v.694c0 .475.258.866.572.866h.835v13.555h-.835c-.314 0-.572.392-.572.87v.692c0 .478.258.868.572.868h52.024c.314 0 .572-.39.572-.868v-.692c0-.478-.258-.87-.572-.87h-.835v-13.554h.835" fill="#28415b"/><path d="M234.77 141.18h30.06v-13.473h-30.06v13.473z" fill="#345070"/><path d="M224.623 128.19h50.335v-.523h-50.335v.522z" fill="#1c3142"/><path d="M224.632 141.223h50.336v-.117h-50.336v.117z" fill="#345070"/><path d="M469.493 270.264h-3.466c-1.208 0-2.195-.975-2.195-2.168v-15.178c0-1.193.987-2.168 2.195-2.168h3.466c1.208 0 2.195.975 2.195 2.168v15.178c0 1.193-.987 2.168-2.195 2.168" fill="#364f73"/><path d="M458.595 270.264h-3.466c-1.208 0-2.196-.975-2.196-2.168v-10.52c0-1.19.988-2.167 2.195-2.167h3.465c1.208 0 2.196.975 2.196 2.167v10.52c0 1.192-.987 2.167-2.195 2.167M480.39 270.264h-3.465c-1.208 0-2.196-.975-2.196-2.168v-23.88c0-1.194.987-2.17 2.195-2.17h3.466c1.208 0 2.196.976 2.196 2.17v23.88c0 1.193-.988 2.168-2.195 2.168" fill="#496c9c"/><path d="M39.9 262.89c-.373.366-.845.543-1.33.61.024.155.046.312.046.472 0 .82-.325 1.59-.912 2.17-.59.58-1.367.9-2.197.9-.152 0-.3-.022-.447-.044-.068.496-.288.955-.652 1.315l-.12.078 7.59 1.874-1.895-7.477-.084.102zm-17.58-9.77l12.088 11.937c.605.6 1.59.598 2.197 0 .608-.6.61-1.57 0-2.17L24.517 250.95l-2.198 2.17zm9.89 14.107c.304.3.796.3 1.1 0 .303-.3.303-.785 0-1.084L21.22 254.205l-1.1 1.084 12.088 11.937zm5.494-5.426c.304.3.795.3 1.1 0 .304-.3.304-.784 0-1.084l-12.088-11.938-1.1 1.087L37.705 261.8zM24.518 246.61l1.1 1.085-6.594 6.512-1.1-1.086c-1.214-1.2-1.214-3.143 0-4.342l2.2-2.17c1.212-1.198 3.18-1.198 4.394 0M454.302 174.474l-26.556-5.06 3.21-16.416 26.556 5.06-3.21 16.416zm5.415-19.174l-13.198-2.516c.198-.237.355-.506.42-.836.205-1.056-.493-2.074-1.56-2.278-1.07-.203-2.11.483-2.317 1.54-.064.33-.01.64.076.93l-13.192-2.515c-.98-.187-1.938.458-2.126 1.42l-3.79 19.387c-.19.97.457 1.912 1.438 2.1l10.792 2.056-3.53 6.902c-.243.474-.028 1.03.478 1.222l.797.317c.513.2 1.124-.034 1.368-.508l3.766-7.385 2.43.463.713 8.24c.047.53.533.972 1.077.97h.86c.54.01.942-.43.895-.96l-.667-7.7 10.792 2.055c.975.187 1.935-.45 2.125-1.42l3.79-19.387c.188-.96-.455-1.91-1.438-2.098" fill="#364f73"/><path d="M431.412 167.252c.763.145 1.5-.347 1.648-1.1.027-.14.008-.268-.006-.397 2.037-1.072 5.638-2.95 7.268-3.762.195.2.436.36.726.414.248.047.48.01.698-.06.767.942 2.062 2.537 2.985 3.674-.028.077-.08.14-.095.22-.147.755.36 1.484 1.123 1.63.763.145 1.5-.348 1.648-1.1.025-.13.006-.26-.007-.39l4.19-2.5c.17.136.367.248.592.29.764.146 1.503-.346 1.65-1.1.148-.753-.353-1.48-1.116-1.627-.756-.144-1.493.35-1.64 1.102-.036.18-.032.36.002.53-1.168.693-2.98 1.77-4.098 2.444-.19-.18-.42-.327-.69-.378-.327-.063-.635.012-.91.154-.76-.942-1.995-2.46-2.87-3.535.088-.138.153-.282.185-.446.148-.756-.35-1.484-1.107-1.628-.763-.145-1.5.347-1.65 1.102-.03.165-.026.33.004.483l-7.284 3.657c-.19-.185-.423-.343-.713-.398-.764-.147-1.5.346-1.647 1.094-.148.754.35 1.482 1.114 1.628M65.513 143.96c.862 2.03-.11 4.368-2.165 5.22-2.05.846-4.42-.113-5.28-2.143-.86-2.03.113-4.363 2.162-5.21 2.057-.85 4.423.1 5.283 2.132M71.293 167.75c-2.57 1.063-5.245 1.417-7.536.994-.784-.148-1.486-.378-2.09-.677l.764-.527c1.4-.943 1.756-2.84.794-4.217l-2.346-3.368c.35-.433.742-.843 1.17-1.237l.29.68c.65 1.534 2.46 2.266 4.02 1.62l3.546-1.464c1.557-.645 2.298-2.43 1.647-3.966l-.3-.713c.59-.026 1.166-.024 1.72.025l.79 4.067c.327 1.64 1.946 2.72 3.604 2.407l.927-.18c-.804 2.508-3.398 5.07-6.997 6.557zm7.805-17.53l-3.766.72c-1.284.245-2.228 1.262-2.438 2.466-.73-.055-1.483-.053-2.262.013l-.862-2.03c-.653-1.544-2.462-2.276-4.02-1.632l-3.544 1.465c-1.562.646-2.303 2.432-1.65 3.975l.867 2.044c-.585.49-1.115 1.018-1.585 1.57-1.017-.696-2.416-.753-3.493-.022l-3.17 2.148c-1.388.946-1.744 2.845-.792 4.224l2.62 3.753c.95 1.373 2.88 1.722 4.27.776l.997-.675c.897.575 1.968.992 3.203 1.224 2.588.473 5.568.084 8.412-1.092 4.353-1.8 7.367-5.075 8.037-8.266l1.214-.23c1.663-.316 2.758-1.916 2.436-3.548l-.872-4.476c-.318-1.64-1.945-2.72-3.602-2.408" fill="#364f73"/><g clip-path="url(#e)" fill="#364f73" transform="matrix(.06782 0 0 -.06697 -21.48 529.83)"><path d="M1493.76 5765.42c12.7-30.32-1.56-65.1-31.87-77.8-30.32-12.69-65.11 1.56-77.8 31.88-12.7 30.32 1.56 65.1 31.88 77.8 30.31 12.69 65.1-1.56 77.79-31.88M1112.61 5542.78c27.04 18.6 33.89 55.59 15.28 82.63-18.68 27.13-55.67 33.98-82.81 15.33-27-18.62-33.85-55.61-15.2-82.75 18.6-27.02 55.59-33.86 82.73-15.21"/></g><path d="M245.272 510.477l-.002-.01.002.01M245.35 510.966h.002c-.03-.14-.053-.277-.072-.414.02.137.043.277.07.414M245.864 512.39l-.01-.02.01.02M245.815 512.294l-.04-.08.04.08M245.494 511.514c.077.237.168.466.275.685-.11-.224-.2-.455-.274-.686h-.002" fill="#232425"/></svg>