<?xml version="1.0" encoding="UTF-8" standalone="no"?>
<!-- Created with Inkscape (http://www.inkscape.org/) -->

<svg
   xmlns:dc="http://purl.org/dc/elements/1.1/"
   xmlns:cc="http://creativecommons.org/ns#"
   xmlns:rdf="http://www.w3.org/1999/02/22-rdf-syntax-ns#"
   xmlns:svg="http://www.w3.org/2000/svg"
   xmlns="http://www.w3.org/2000/svg"
   xmlns:sodipodi="http://sodipodi.sourceforge.net/DTD/sodipodi-0.dtd"
   xmlns:inkscape="http://www.inkscape.org/namespaces/inkscape"
   id="svg2"
   version="1.1"
   inkscape:version="0.91 r13725"
   xml:space="preserve"
   width="240"
   height="150"
   viewBox="0 0 460.79318 211.72359"
   sodipodi:docname="deployiddddng.svg"><metadata
     id="metadata8"><rdf:RDF><cc:Work
         rdf:about=""><dc:format>image/svg+xml</dc:format><dc:type
           rdf:resource="http://purl.org/dc/dcmitype/StillImage" /><dc:title></dc:title></cc:Work></rdf:RDF></metadata><defs
     id="defs6" /><sodipodi:namedview
     pagecolor="#bbbbbb"
     bordercolor="#666666"
     borderopacity="1"
     objecttolerance="10"
     gridtolerance="10"
     guidetolerance="10"
     inkscape:pageopacity="0"
     inkscape:pageshadow="2"
     inkscape:window-width="1301"
     inkscape:window-height="744"
     id="namedview4"
     showgrid="false"
     inkscape:zoom="1.2586667"
     inkscape:cx="247.60626"
     inkscape:cy="161.09448"
     inkscape:window-x="65"
     inkscape:window-y="24"
     inkscape:window-maximized="1"
     inkscape:current-layer="g10"
     borderlayer="true"
     fit-margin-top="0"
     fit-margin-left="0"
     fit-margin-right="0"
     fit-margin-bottom="0" /><g
     id="g10"
     inkscape:groupmode="layer"
     inkscape:label="ink_ext_XXXXXX"
     transform="matrix(1.25,0,0,-1.25,-20.951073,353.62926)"><g
       id="g4144"
       transform="matrix(1.1350333,0,0,0.97440486,-37.612829,-7.6228427)"><path
         d="m 272.53234,248.78805 0,-3.64982 1.44388,0 0,3.64982 -1.44388,0 m 0,-7.29966 0,-3.64982 1.44388,0 0,3.64982 -1.44388,0 m 0,-7.29964 0,-3.64982 1.44388,0 0,3.64982 -1.44388,0 m 0,-7.29965 0,-3.64981 1.44388,0 0,3.64981 -1.44388,0 m 0,-7.29964 0,-3.64982 1.44388,0 0,3.64982 -1.44388,0 m 0,-7.29964 0,-3.64982 1.44388,0 0,3.64982 -1.44388,0 m 0,-7.29965 0,-1.15646 1.44388,0 0,1.15646 -1.44388,0"
         style="fill:#231f20;fill-opacity:1;fill-rule:nonzero;stroke:none"
         id="path784"
         inkscape:connector-curvature="0" /><path
         d="m 114.9265,234.17833 0,-3.64982 1.44435,0 0,3.64982 -1.44435,0 z m 0,-7.29965 0,-3.64983 1.44435,0 0,3.64983 -1.44435,0 z m 0,-7.29964 0,-3.64983 1.44435,0 0,3.64983 -1.44435,0 z m 0,-7.29965 0,-3.64982 1.44435,0 0,3.64982 -1.44435,0 z m 0,-7.29965 0,-3.64982 1.44435,0 0,3.64982 -1.44435,0 z m 0,-7.29964 0,-3.64982 1.44435,0 0,3.64982 -1.44435,0 z m 0,-7.29965 0,-3.64981 1.44435,0 0,3.64981 -1.44435,0 z m 0,-7.29965 0,-3.64982 1.44435,0 0,3.64982 -1.44435,0 z m 0,-7.29964 0,-3.64982 1.44435,0 0,3.64982 -1.44435,0 z m 0,-7.29912 0,-1.17316 1.44435,0 0,1.17316"
         style="fill:#231f20;fill-opacity:1;fill-rule:nonzero;stroke:none"
         id="path786"
         inkscape:connector-curvature="0" /><path
         d="m 137.05159,260.31628 1.75518,0 0,1.66848 -1.75518,0 0,-1.66848 z"
         style="fill:#231f20;fill-opacity:1;fill-rule:nonzero;stroke:none"
         id="path788"
         inkscape:connector-curvature="0" /><path
         d="m 142.3758,260.31628 3.21186,0 0,1.66848 -3.21186,0 0,-1.66848 z m 6.42417,0 3.21186,0 0,1.66848 -3.21186,0 0,-1.66848 z m 6.42371,0 3.21186,0 0,1.66848 -3.21186,0 0,-1.66848 z m 6.42372,0 3.2123,0 0,1.66848 -3.2123,0 0,-1.66848 z m 6.42417,0 3.21186,0 0,1.66848 -3.21186,0 0,-1.66848 z m 6.42373,0 3.21229,0 0,1.66848 -3.21229,0 0,-1.66848 z m 6.42416,0 3.21185,0 0,1.66848 -3.21185,0 0,-1.66848 z m 6.42371,0 3.21185,0 0,1.66848 -3.21185,0 0,-1.66848 z m 6.42416,0 3.21187,0 0,1.66848 -3.21187,0 0,-1.66848 z m 6.42373,0 3.21185,0 0,1.66848 -3.21185,0 0,-1.66848 z m 6.42371,0 3.21231,0 0,1.66848 -3.21231,0 0,-1.66848 z m 6.42417,0 3.21185,0 0,1.66848 -3.21185,0 0,-1.66848 z m 6.4237,0 3.21187,0 0,1.66848 -3.21187,0 0,-1.66848 z m 6.42417,0 3.21187,0 0,1.66848 -3.21187,0 0,-1.66848 z m 6.42373,0 3.21185,0 0,1.66848 -3.21185,0 0,-1.66848 z m 6.42372,0 3.2123,0 0,1.66848 -3.2123,0 0,-1.66848 z m 6.42416,0 3.21186,0 0,1.66848 -3.21186,0 0,-1.66848 z m 6.42371,0 3.21231,0 0,1.66848 -3.21231,0 0,-1.66848 z m 6.42418,0 3.21186,0 0,1.66848 -3.21186,0"
         style="fill:#231f20;fill-opacity:1;fill-rule:nonzero;stroke:none"
         id="path790"
         inkscape:connector-curvature="0" /><path
         d="m 263.71642,260.31628 1.75536,0 0,1.66848 -1.75536,0 0,-1.66848 z"
         style="fill:#231f20;fill-opacity:1;fill-rule:nonzero;stroke:none"
         id="path792"
         inkscape:connector-curvature="0" /><path
         d="m 355.46245,194.28107 10.70159,0 0,11.23869 -10.70159,0 0,-11.23869 z"
         style="fill:#bcbec0;fill-opacity:1;fill-rule:nonzero;stroke:none"
         id="path794"
         inkscape:connector-curvature="0" /><path
         d="m 335.03176,195.69459 16.05298,0 0,1.6685 -16.05298,0 0,-1.6685 z"
         style="fill:#231f20;fill-opacity:1;fill-rule:nonzero;stroke:none"
         id="path796"
         inkscape:connector-curvature="0" /><path
         d="m 328.70871,202.4379 22.37603,0 0,1.6685 -22.37603,0 0,-1.6685 z"
         style="fill:#231f20;fill-opacity:1;fill-rule:nonzero;stroke:none"
         id="path798"
         inkscape:connector-curvature="0" /><path
         d="m 366.42863,194.8859 -10.50173,11.52509 -0.9948,-1.20965 10.50174,-11.5251"
         style="fill:#231f20;fill-opacity:1;fill-rule:nonzero;stroke:none"
         id="path800"
         inkscape:connector-curvature="0" /><path
         d="m 293.68474,168.43511 71.0197,0 0,21.35043 -71.0197,0 0,-21.35043 z"
         style="fill:#f1f2f2;fill-opacity:1;fill-rule:nonzero;stroke:none"
         id="path802"
         inkscape:connector-curvature="0" /><path
         d="m 364.70444,168.43511 0,0.83425 -70.29753,0 0,19.68192 69.57536,0 0,-20.51617 0.72217,0 0,0.83425 0,-0.83425 0.72218,0 0,21.35043 c 0,0.21949 -0.0769,0.43433 -0.2117,0.5897 -0.13405,0.15538 -0.32,0.24453 -0.51048,0.24453 l -71.0197,0 c -0.19002,0 -0.37599,-0.0891 -0.51049,-0.24453 -0.1345,-0.15537 -0.21169,-0.37021 -0.21169,-0.5897 l 0,-21.35043 c 0,-0.2242 0.0772,-0.43798 0.21169,-0.5944 0.1345,-0.15121 0.32047,-0.23984 0.51049,-0.23984 l 71.0197,0 c 0.19048,0 0.37643,0.0885 0.51048,0.23984 0.13496,0.15642 0.2117,0.3702 0.2117,0.5944 l -0.72218,0"
         style="fill:#231f20;fill-opacity:1;fill-rule:nonzero;stroke:none"
         id="path804"
         inkscape:connector-curvature="0" /><path
         d="m 293.68474,147.07843 71.0197,0 0,21.35658 -71.0197,0 0,-21.35658 z"
         style="fill:#d1d3d4;fill-opacity:1;fill-rule:nonzero;stroke:none"
         id="path806"
         inkscape:connector-curvature="0" /><path
         d="m 364.70444,147.07843 0,0.83425 -70.29753,0 0,19.68819 69.57536,0 0,-20.52244 0.72217,0 0,0.83425 0,-0.83425 0.72218,0 0,21.35668 c 0,0.21899 -0.0769,0.43276 -0.2117,0.58919 -0.13405,0.15121 -0.32,0.24506 -0.51048,0.24506 l -71.0197,0 c -0.19002,0 -0.37599,-0.0939 -0.51049,-0.24506 -0.1345,-0.15643 -0.21169,-0.3702 -0.21169,-0.58919 l 0,-21.35668 c 0,-0.21899 0.0772,-0.43277 0.21169,-0.58918 0.1345,-0.15643 0.32047,-0.24506 0.51049,-0.24506 l 71.0197,0 c 0.19048,0 0.37643,0.0885 0.51048,0.24506 0.13496,0.15641 0.2117,0.37019 0.2117,0.58918 l -0.72218,0"
         style="fill:#231f20;fill-opacity:1;fill-rule:nonzero;stroke:none"
         id="path808"
         inkscape:connector-curvature="0" /><path
         d="m 293.68474,125.72697 71.0197,0 0,21.35146 -71.0197,0 0,-21.35146 z"
         style="fill:#f1f2f2;fill-opacity:1;fill-rule:nonzero;stroke:none"
         id="path810"
         inkscape:connector-curvature="0" /><path
         d="m 364.70444,125.72697 0,0.83425 -70.29753,0 0,19.68297 69.57536,0 0,-20.51722 0.72217,0 0,0.83425 0,-0.83425 0.72218,0 0,21.35146 c 0,0.219 -0.0769,0.43276 -0.21123,0.58919 -0.13452,0.15643 -0.32047,0.24506 -0.51095,0.24506 l -71.0197,0 c -0.19002,0 -0.37599,-0.0885 -0.51049,-0.24506 -0.1345,-0.15643 -0.21169,-0.37019 -0.21169,-0.58919 l 0,-21.35146 c 0,-0.21899 0.0772,-0.43798 0.21169,-0.58919 0.1345,-0.15642 0.32047,-0.24506 0.51049,-0.24506 l 71.0197,0 c 0.19048,0 0.37643,0.0885 0.51095,0.24506 0.13449,0.15121 0.21123,0.3702 0.21123,0.58919 l -0.72218,0"
         style="fill:#231f20;fill-opacity:1;fill-rule:nonzero;stroke:none"
         id="path812"
         inkscape:connector-curvature="0" /><path
         d="m 355.21917,158.31989 c 0,-2.63831 -1.85147,-4.78127 -4.13443,-4.78127 -2.28386,0 -4.13488,2.14296 -4.13488,4.78127 0,2.63829 1.85102,4.77605 4.13488,4.77605 2.28296,0 4.13443,-2.13776 4.13443,-4.77605"
         style="fill:#ffffff;fill-opacity:1;fill-rule:nonzero;stroke:none"
         id="path814"
         inkscape:connector-curvature="0" /><path
         d="m 342.08512,158.31989 c 0,-2.63831 -1.85101,-4.78127 -4.13442,-4.78127 -2.28343,0 -4.13489,2.14296 -4.13489,4.78127 0,2.63829 1.85146,4.77605 4.13489,4.77605 2.28341,0 4.13442,-2.13776 4.13442,-4.77605"
         style="fill:#ffffff;fill-opacity:1;fill-rule:nonzero;stroke:none"
         id="path816"
         inkscape:connector-curvature="0" /><path
         d="m 303.9003,138.93933 51.07605,0 0,1.66849 -51.07605,0 0,-1.66849 z"
         style="fill:#231f20;fill-opacity:1;fill-rule:nonzero;stroke:none"
         id="path818"
         inkscape:connector-curvature="0" /><path
         d="m 303.9003,133.3186 51.07605,0 0,1.6687 -51.07605,0 0,-1.6687 z"
         style="fill:#231f20;fill-opacity:1;fill-rule:nonzero;stroke:none"
         id="path820"
         inkscape:connector-curvature="0" /><path
         d="m 303.17768,154.9464 1.44469,0 0,6.74181 -1.44469,0 0,-6.74181 z"
         style="fill:#231f20;fill-opacity:1;fill-rule:nonzero;stroke:none"
         id="path822"
         inkscape:connector-curvature="0" /><path
         d="m 308.04242,154.9464 1.44432,0 0,6.74181 -1.44432,0 0,-6.74181 z"
         style="fill:#231f20;fill-opacity:1;fill-rule:nonzero;stroke:none"
         id="path824"
         inkscape:connector-curvature="0" /><path
         d="m 312.90624,154.9464 1.44434,0 0,6.74181 -1.44434,0 0,-6.74181 z"
         style="fill:#231f20;fill-opacity:1;fill-rule:nonzero;stroke:none"
         id="path826"
         inkscape:connector-curvature="0" /><path
         d="m 317.77097,154.9464 1.44434,0 0,6.74181 -1.44434,0 0,-6.74181 z"
         style="fill:#231f20;fill-opacity:1;fill-rule:nonzero;stroke:none"
         id="path828"
         inkscape:connector-curvature="0" /><path
         d="m 322.63524,154.9464 1.44435,0 0,6.74181 -1.44435,0 0,-6.74181 z"
         style="fill:#231f20;fill-opacity:1;fill-rule:nonzero;stroke:none"
         id="path830"
         inkscape:connector-curvature="0" /><path
         d="m 336.49145,157.48564 2.91849,0 0,1.66848 -2.91849,0 0,-1.66848 z"
         style="fill:#231f20;fill-opacity:1;fill-rule:nonzero;stroke:none"
         id="path832"
         inkscape:connector-curvature="0" /><path
         d="m 349.62506,157.48564 2.919,0 0,1.66848 -2.919,0 0,-1.66848 z"
         style="fill:#231f20;fill-opacity:1;fill-rule:nonzero;stroke:none"
         id="path834"
         inkscape:connector-curvature="0" /><path
         d="m 352.54398,175.73789 1.94524,0 0,7.30496 -1.94524,0 0,-7.30496 z"
         style="fill:#a7a9ac;fill-opacity:1;fill-rule:nonzero;stroke:none"
         id="path836"
         inkscape:connector-curvature="0" /><path
         d="m 347.67926,175.73789 1.94576,0 0,7.30496 -1.94576,0 0,-7.30496 z"
         style="fill:#3b9ada;fill-opacity:1;fill-rule:nonzero;stroke:none"
         id="path838"
         inkscape:connector-curvature="0" /><path
         d="m 342.81497,175.73789 1.94577,0 0,7.30496 -1.94577,0 0,-7.30496 z"
         style="fill:#ffa432;fill-opacity:1;fill-rule:nonzero;stroke:none"
         id="path840"
         inkscape:connector-curvature="0" /><path
         d="m 337.9507,175.73789 1.94577,0 0,7.30496 -1.94577,0 0,-7.30496 z"
         style="fill:#3b9ada;fill-opacity:1;fill-rule:nonzero;stroke:none"
         id="path842"
         inkscape:connector-curvature="0" /><path
         d="m 333.08597,175.73789 1.94577,0 0,7.30496 -1.94577,0 0,-7.30496 z"
         style="fill:#ffa432;fill-opacity:1;fill-rule:nonzero;stroke:none"
         id="path844"
         inkscape:connector-curvature="0" /><path
         d="m 300.49481,181.64591 28.69965,0 0,1.6691 -28.69965,0 0,-1.6691 z"
         style="fill:#231f20;fill-opacity:1;fill-rule:nonzero;stroke:none"
         id="path846"
         inkscape:connector-curvature="0" /><path
         d="m 300.49481,176.02726 28.69965,0 0,1.66849 -28.69965,0 0,-1.66849 z"
         style="fill:#231f20;fill-opacity:1;fill-rule:nonzero;stroke:none"
         id="path848"
         inkscape:connector-curvature="0" /><path
         d="m 303.9003,234.17833 0.72218,0 0,17.98163 c 0,0.21951 -0.0772,0.43433 -0.21169,0.58972 -0.1345,0.15537 -0.32047,0.24453 -0.51049,0.24453 l -6.32395,0 c -0.19005,0 -0.37599,-0.0891 -0.5105,-0.24453 -0.13451,-0.15539 -0.21169,-0.37021 -0.21169,-0.58972 l 0,-17.14739 -10.46606,0 c -0.19047,0 -0.37644,-0.0891 -0.51094,-0.24454 -0.13405,-0.15538 -0.21123,-0.3702 -0.21123,-0.5897 l 0,-6.74332 c 0,-0.2195 0.0772,-0.43432 0.21123,-0.5897 0.1345,-0.15538 0.32047,-0.24453 0.51094,-0.24453 l 28.70001,0 c 0.19,0 0.37597,0.0891 0.51048,0.24453 0.1345,0.15538 0.21168,0.3702 0.21168,0.5897 l 0,6.74332 c 0,0.2195 -0.0772,0.43432 -0.21168,0.5897 -0.13451,0.15538 -0.32048,0.24454 -0.51048,0.24454 l -11.18781,0 0,-0.83424 0.72218,0 -0.72218,0 0,-0.83424 10.46562,0 0,-5.07483 -27.25566,0 0,5.07483 10.46609,0 c 0.19046,0 0.37642,0.0891 0.51091,0.24401 0.13406,0.15538 0.21125,0.37072 0.21125,0.59023 l 0,17.14738 4.87962,0 0,-17.14738 c 0,-0.21951 0.0768,-0.43485 0.21123,-0.59023 0.13452,-0.15487 0.32046,-0.24401 0.51094,-0.24401 l 0,0.83424"
         style="fill:#231f20;fill-opacity:1;fill-rule:nonzero;stroke:none"
         id="path850"
         inkscape:connector-curvature="0" /><path
         d="m 297.57635,233.34409 2.91847,0 0,1.66848 -2.91847,0 0,-1.66848 z"
         style="fill:#231f20;fill-opacity:1;fill-rule:nonzero;stroke:none"
         id="path852"
         inkscape:connector-curvature="0" /><path
         d="m 315.08811,229.97216 6.81001,0 0,1.6685 -6.81001,0 0,-1.6685 z"
         style="fill:#231f20;fill-opacity:1;fill-rule:nonzero;stroke:none"
         id="path854"
         inkscape:connector-curvature="0" /><path
         d="m 279.57801,229.97216 6.81004,0 0,1.6685 -6.81004,0 0,-1.6685 z"
         style="fill:#231f20;fill-opacity:1;fill-rule:nonzero;stroke:none"
         id="path856"
         inkscape:connector-curvature="0" /><path
         d="m 253.2499,267.76035 c 4.57089,0 8.80915,-1.5882 12.30896,-4.38188 2.37505,3.118 5.6379,5.31675 9.3413,6.02951 -0.15256,1.19819 -0.23336,2.43182 -0.23336,3.67954 0,13.8443 9.71411,25.07012 21.69765,25.07012 11.98263,0 21.69945,-11.218 21.69945,-25.06125 0,-2.04235 -0.218,-4.02107 -0.61655,-5.92209 1.60366,0.43797 3.2791,0.58553 5.00058,0.58553 11.98398,0 21.6972,-11.10433 21.6972,-25.15302 l -112.59513,0 c 0,14.04869 9.71412,25.15354 21.6999,25.15354"
         style="fill:#ffffff;fill-opacity:1;fill-rule:nonzero;stroke:none"
         id="path858"
         inkscape:connector-curvature="0" /><path
         d="m 317.44735,267.17638 c 0,0 -2.65083,-2.45582 -3.5206,-2.97878"
         style="fill:#d1d3d4;fill-opacity:1;fill-rule:nonzero;stroke:none"
         id="path860"
         inkscape:connector-curvature="0" /><path
         d="m 316.99553,267.82709 c -4.4e-4,0 -0.0402,-0.0371 -0.1133,-0.10486 -0.25682,-0.23567 -0.914,-0.83582 -1.5969,-1.42969 -0.34077,-0.29668 -0.68831,-0.59179 -0.99163,-0.83634 -0.30106,-0.24348 -0.56828,-0.44057 -0.70051,-0.51878 l 0.6671,-1.47975 c 0.28256,0.17155 0.61656,0.43119 1.00156,0.74561 1.14058,0.93488 2.63142,2.31712 2.63729,2.3218 l -0.90362,1.30195"
         style="fill:#231f20;fill-opacity:1;fill-rule:nonzero;stroke:none"
         id="path862"
         inkscape:connector-curvature="0" /><path
         d="m 265.55886,263.42332 c 0,0 1.19791,-2.36717 1.2489,-4.18687"
         style="fill:#d1d3d4;fill-opacity:1;fill-rule:nonzero;stroke:none"
         id="path864"
         inkscape:connector-curvature="0" /><path
         d="m 264.93554,263.00253 0.002,-0.003 c 0.0257,-0.0505 0.31233,-0.63037 0.59127,-1.39005 0.28119,-0.75552 0.54298,-1.70708 0.55788,-2.40003 l 1.44343,0.0537 c -0.0163,0.55478 -0.11426,1.1033 -0.24464,1.62679 -0.39357,1.56212 -1.08821,2.92194 -1.10266,2.95479 l -1.24664,-0.84206"
         style="fill:#231f20;fill-opacity:1;fill-rule:nonzero;stroke:none"
         id="path866"
         inkscape:connector-curvature="0" /><path
         d="m 162.64581,248.49711 c -4.1376,0 -7.97505,-1.45003 -11.14356,-3.97884 -2.14981,2.82288 -5.1035,4.80839 -8.45618,5.45388 0.13857,1.08401 0.21124,2.19772 0.21124,3.3276 0,12.53192 -8.79379,22.69407 -19.64262,22.69407 -10.84792,0 -19.64443,-10.15641 -19.64443,-22.68886 0,-1.8489 0.1977,-3.64044 0.55833,-5.36106 -1.45246,0.39627 -2.96902,0.55268 -4.52711,0.55268 -10.849272,0 -19.642614,-9.82324 -19.642614,-22.74778 l 101.931364,0 c 0,12.92454 -8.79334,22.74831 -19.64442,22.74831"
         style="fill:#ffffff;fill-opacity:1;fill-rule:nonzero;stroke:none"
         id="path868"
         inkscape:connector-curvature="0" /><path
         d="m 104.52859,247.94493 c 0,0 2.39987,-2.22273 3.18704,-2.69721"
         style="fill:#d1d3d4;fill-opacity:1;fill-rule:nonzero;stroke:none"
         id="path870"
         inkscape:connector-curvature="0" /><path
         d="m 104.07679,247.29422 c 0.003,-0.003 0.60617,-0.56154 1.31254,-1.18357 0.35342,-0.31128 0.7321,-0.63821 1.07829,-0.92184 0.34981,-0.28522 0.65222,-0.52141 0.914,-0.68044 l 0.66801,1.47922 c -0.13179,0.0777 -0.42473,0.2972 -0.74609,0.56207 -0.48792,0.39992 -1.07243,0.91402 -1.53101,1.32593 -0.22974,0.20595 -0.42788,0.38637 -0.56916,0.51516 -0.14082,0.12877 -0.22252,0.20489 -0.22297,0.20489 l -0.90361,-1.30142"
         style="fill:#231f20;fill-opacity:1;fill-rule:nonzero;stroke:none"
         id="path872"
         inkscape:connector-curvature="0" /><path
         d="m 151.50225,244.54799 c 0,0 -1.08372,-2.14349 -1.13064,-3.79111"
         style="fill:#d1d3d4;fill-opacity:1;fill-rule:nonzero;stroke:none"
         id="path874"
         inkscape:connector-curvature="0" /><path
         d="m 150.87891,244.96877 c -0.01,-0.0193 -0.29292,-0.57929 -0.5872,-1.36817 -0.1476,-0.39469 -0.29791,-0.84727 -0.41751,-1.32488 -0.11867,-0.47812 -0.20897,-0.98025 -0.22433,-1.49121 l 1.44344,-0.0554 c 0.008,0.31285 0.0712,0.69608 0.16881,1.08348 0.14489,0.5824 0.36426,1.17316 0.54569,1.60852 0.0907,0.21846 0.17242,0.39836 0.22975,0.52245 0.0288,0.0614 0.0519,0.10945 0.0673,0.14078 l 0.0172,0.0344 0.005,0.009 -1.24711,0.84155"
         style="fill:#231f20;fill-opacity:1;fill-rule:nonzero;stroke:none"
         id="path876"
         inkscape:connector-curvature="0" /><path
         d="m 187.64151,133.59494 27.72674,0 0,21.35146 -27.72674,0 0,-21.35146 z"
         style="fill:#d1d3d4;fill-opacity:1;fill-rule:nonzero;stroke:none"
         id="path878"
         inkscape:connector-curvature="0" /><path
         d="m 265.47174,246.52098 c 0,4.44289 -2.85844,8.4483 -6.87371,8.4483 l -114.55943,0 c -4.01662,0 -7.47311,-4.00541 -7.47311,-8.4483 l 0,-66.28756 128.90625,0 0,66.28756"
         style="fill:#d1d3d4;fill-opacity:1;fill-rule:nonzero;stroke:none"
         id="path880"
         inkscape:connector-curvature="0" /><path
         d="m 136.56549,180.23342 0,-17.72667 c 0,-4.44235 3.45649,-7.56035 7.47311,-7.56035 l 114.55943,0 c 4.01527,0 6.87371,3.118 6.87371,7.56035 l 0,17.72667 -128.90625,0"
         style="fill:#f1f2f2;fill-opacity:1;fill-rule:nonzero;stroke:none"
         id="path882"
         inkscape:connector-curvature="0" /><path
         d="m 136.56549,180.23342 -0.72219,0 0,-17.72667 c -0.004,-2.47666 0.9772,-4.61441 2.48608,-6.08477 1.50934,-1.47037 3.53955,-2.30982 5.70922,-2.30982 l 114.55943,0 c 2.16788,0 4.078,0.84468 5.43975,2.3411 1.364,1.49122 2.15931,3.62375 2.15614,6.05349 l 0,17.72667 c 0,0.21952 -0.0772,0.43433 -0.21169,0.5897 -0.1345,0.15539 -0.32046,0.24455 -0.51049,0.24455 l -128.90625,0 c -0.19003,0 -0.37644,-0.0891 -0.51094,-0.24455 -0.13406,-0.15537 -0.21125,-0.37018 -0.21125,-0.5897 l 0.72219,0 0,-0.83424 128.18364,0 0,-16.89243 c -0.002,-2.01783 -0.63688,-3.66546 -1.70613,-4.84383 -1.07063,-1.17316 -2.59756,-1.88227 -4.44497,-1.88227 l -114.55943,0 c -1.84695,0 -3.55354,0.71955 -4.77671,1.91355 -1.22318,1.20445 -1.97108,2.84687 -1.97424,4.81255 l 0,17.72667 -0.72216,0 0,-0.83424 0,0.83424"
         style="fill:#231f20;fill-opacity:1;fill-rule:nonzero;stroke:none"
         id="path884"
         inkscape:connector-curvature="0" /><path
         d="m 205.81362,167.52266 c 0,-2.86772 -2.0117,-5.19318 -4.49508,-5.19318 -2.48292,0 -4.49461,2.32546 -4.49461,5.19318 0,2.86771 2.01169,5.19213 4.49461,5.19213 2.48338,0 4.49508,-2.32442 4.49508,-5.19213"
         style="fill:#bcbec0;fill-opacity:1;fill-rule:nonzero;stroke:none"
         id="path886"
         inkscape:connector-curvature="0" /><path
         d="m 182.29023,127.97422 37.45596,0 0,5.62078 -37.45596,0 0,-5.62078 z"
         style="fill:#f1f2f2;fill-opacity:1;fill-rule:nonzero;stroke:none"
         id="path888"
         inkscape:connector-curvature="0" /><path
         d="m 219.7461,127.97422 0,0.83424 -36.73371,0 0,3.95224 36.01155,0 0,-4.78648 0.72216,0 0,0.83424 0,-0.83424 0.72218,0 0,5.62072 c 0,0.219 -0.0767,0.43277 -0.21124,0.58919 -0.1345,0.15121 -0.32047,0.24506 -0.51094,0.24506 l -37.45587,0 c -0.19002,0 -0.37599,-0.094 -0.51049,-0.24506 -0.1345,-0.15642 -0.21169,-0.37019 -0.21169,-0.58919 l 0,-5.62072 c 0,-0.219 0.0772,-0.43276 0.21169,-0.58918 0.1345,-0.15644 0.32047,-0.24506 0.51049,-0.24506 l 37.45587,0 c 0.19047,0 0.37644,0.0885 0.51094,0.24506 0.1345,0.15642 0.21124,0.37018 0.21124,0.58918 l -0.72218,0"
         style="fill:#231f20;fill-opacity:1;fill-rule:nonzero;stroke:none"
         id="path890"
         inkscape:connector-curvature="0" /><path
         d="m 144.83479,180.23342 112.85376,0 0,65.74478 -112.85376,0 0,-65.74478 z"
         style="fill:#ffa432;fill-opacity:1;fill-rule:nonzero;stroke:none"
         id="path892"
         inkscape:connector-curvature="0" /><path
         d="m 257.68855,245.9782 0,0.83425 -112.85376,0 c -0.19001,0 -0.37597,-0.0892 -0.51048,-0.24401 -0.1345,-0.15538 -0.21168,-0.3702 -0.21168,-0.59024 l 0,-65.74478 c 0,-0.22002 0.0772,-0.43485 0.21168,-0.59022 0.13451,-0.15538 0.32047,-0.24402 0.51048,-0.24402 l 112.85376,0 c 0.19002,0 0.37598,0.0885 0.51049,0.24402 0.13449,0.15537 0.21167,0.3702 0.21167,0.59022 l 0,65.74478 c 0,0.22004 -0.0772,0.43486 -0.21167,0.59024 -0.13451,0.15484 -0.32047,0.24401 -0.51049,0.24401 l 0,-0.83425 -0.72217,0 0,-64.91053 -111.4094,0 0,64.07629 112.13157,0 0,0.83424 -0.72217,0 0.72217,0"
         style="fill:#231f20;fill-opacity:1;fill-rule:nonzero;stroke:none"
         id="path894"
         inkscape:connector-curvature="0" /><path
         d="m 152.61754,220.13016 97.77436,0 0,17.41956 -97.77436,0 0,-17.41956 z"
         style="fill:#fb9b33;fill-opacity:1;fill-rule:nonzero;stroke:none"
         id="path896"
         inkscape:connector-curvature="0" /><path
         d="m 194.9377,201.58592 22.37658,0 0,14.04876 -22.37658,0 0,-14.04876 z"
         style="fill:#fb9b33;fill-opacity:1;fill-rule:nonzero;stroke:none"
         id="path898"
         inkscape:connector-curvature="0" /><path
         d="m 153.10457,201.58592 35.99573,0 0,14.04876 -35.99573,0 0,-14.04876 z"
         style="fill:#fb9b33;fill-opacity:1;fill-rule:nonzero;stroke:none"
         id="path900"
         inkscape:connector-curvature="0" /><path
         d="m 152.61754,186.91416 67.12856,0 0,10.17612 -67.12856,0 0,-10.17612 z"
         style="fill:#fb9b33;fill-opacity:1;fill-rule:nonzero;stroke:none"
         id="path902"
         inkscape:connector-curvature="0" /><path
         d="m 320.43849,213.66789 c 0,2.98973 -1.95077,5.33813 -4.5393,5.33813 l -91.2861,0 c -2.58943,0 -4.86699,-2.3484 -4.86699,-5.33813 l 0,-77.26779 100.69239,0 0,77.26779"
         style="fill:#d1d3d4;fill-opacity:1;fill-rule:nonzero;stroke:none"
         id="path904"
         inkscape:connector-curvature="0" /><path
         d="m 212.44992,136.4001 0,-5.34439 c 0,-2.98763 2.27844,-5.32874 5.25695,-5.32874 l 105.09673,0 c 2.98031,0 5.41809,2.34111 5.41809,5.32874 l 0,5.34439 -115.77177,0"
         style="fill:#f1f2f2;fill-opacity:1;fill-rule:nonzero;stroke:none"
         id="path906"
         inkscape:connector-curvature="0" /><path
         d="m 212.44992,136.4001 -0.72218,0 0,-5.34439 c -0.002,-1.7467 0.67298,-3.31613 1.75622,-4.41108 1.08282,-1.10015 2.57003,-1.75191 4.22291,-1.75191 l 105.09673,0 c 1.65423,0 3.17078,0.64654 4.29286,1.74149 1.12072,1.08974 1.84922,2.65915 1.8474,4.4215 l 0,5.34439 c 0,0.2242 -0.0768,0.43798 -0.21125,0.59439 -0.13449,0.1512 -0.32045,0.24506 -0.51092,0.24506 l -115.77177,0 c -0.19048,0 -0.37643,-0.0938 -0.51093,-0.24506 -0.13407,-0.15641 -0.21125,-0.37019 -0.21125,-0.59439 l 0.72218,0 0,-0.82904 115.04959,0 0,-4.51535 c -0.002,-1.2253 -0.49197,-2.32025 -1.33556,-3.14928 -0.84177,-0.82381 -2.03427,-1.34521 -3.36035,-1.34521 l -105.09673,0 c -1.32563,0 -2.46711,0.5214 -3.26827,1.33479 -0.80071,0.8186 -1.26471,1.91355 -1.26651,3.1597 l 0,5.34439 -0.72217,0 0,-0.82904 0,0.82904"
         style="fill:#231f20;fill-opacity:1;fill-rule:nonzero;stroke:none"
         id="path908"
         inkscape:connector-curvature="0" /><path
         d="m 227.04274,144.83119 86.58566,0 0,67.43204 -86.58566,0 0,-67.43204 z"
         style="fill:#18affe;fill-opacity:1;fill-rule:nonzero;stroke:none"
         id="path910"
         inkscape:connector-curvature="0" /><path
         d="m 313.62886,144.83119 0,0.83424 -85.86394,0 0,65.76354 85.14132,0 0,-66.59778 0.72262,0 0,0.83424 0,-0.83424 0.72172,0 0,67.43204 c 0,0.21951 -0.0768,0.43433 -0.21124,0.58971 -0.1345,0.15537 -0.32045,0.24453 -0.51048,0.24453 l -86.58612,0 c -0.19047,0 -0.37643,-0.0891 -0.51094,-0.24453 -0.1345,-0.15538 -0.21122,-0.3702 -0.21122,-0.58971 l 0,-67.43204 c 0,-0.21899 0.0767,-0.43277 0.21122,-0.58919 0.13451,-0.15642 0.32047,-0.24506 0.51094,-0.24506 l 86.58612,0 c 0.19003,0 0.37598,0.0885 0.51048,0.24506 0.13451,0.15642 0.21124,0.3702 0.21124,0.58919 l -0.72172,0"
         style="fill:#231f20;fill-opacity:1;fill-rule:nonzero;stroke:none"
         id="path912"
         inkscape:connector-curvature="0" /><path
         d="m 264.49862,129.95033 11.18838,0 0,1.6685 -11.18838,0 0,-1.6685 z"
         style="fill:#231f20;fill-opacity:1;fill-rule:nonzero;stroke:none"
         id="path914"
         inkscape:connector-curvature="0" /><path
         d="m 299.03557,188.09983 9.72888,0 0,17.98169 -9.72888,0 0,-17.98169 z"
         style="fill:#46bffe;fill-opacity:1;fill-rule:nonzero;stroke:none"
         id="path916"
         inkscape:connector-curvature="0" /><path
         d="m 232.87969,188.09983 63.23741,0 0,17.98169 -63.23741,0 0,-17.98169 z"
         style="fill:#46bffe;fill-opacity:1;fill-rule:nonzero;stroke:none"
         id="path918"
         inkscape:connector-curvature="0" /><path
         d="m 232.87969,166.74576 17.02552,0 0,15.73438 -17.02552,0 0,-15.73438 z"
         style="fill:#46bffe;fill-opacity:1;fill-rule:nonzero;stroke:none"
         id="path920"
         inkscape:connector-curvature="0" /><path
         d="m 253.31038,166.74576 54.96764,0 0,15.73438 -54.96764,0 0,-15.73438 z"
         style="fill:#46bffe;fill-opacity:1;fill-rule:nonzero;stroke:none"
         id="path922"
         inkscape:connector-curvature="0" /><path
         d="m 232.87969,152.69916 75.39833,0 0,8.98889 -75.39833,0 0,-8.98889 z"
         style="fill:#46bffe;fill-opacity:1;fill-rule:nonzero;stroke:none"
         id="path924"
         inkscape:connector-curvature="0" /><path
         d="m 98.136925,167.872 71.019715,0 0,21.35146 -71.019715,0 0,-21.35146 z"
         style="fill:#f1f2f2;fill-opacity:1;fill-rule:nonzero;stroke:none"
         id="path926"
         inkscape:connector-curvature="0" /><path
         d="m 169.15664,167.872 0,0.83424 -70.297544,0 0,19.68298 69.575364,0 0,-20.51722 0.72218,0 0,0.83424 0,-0.83424 0.72216,0 0,21.35146 c 0,0.22003 -0.0772,0.43485 -0.21169,0.59023 -0.1345,0.15537 -0.32045,0.24401 -0.51047,0.24401 l -71.019715,0 c -0.190022,0 -0.375981,-0.0887 -0.510485,-0.24401 -0.134505,-0.15538 -0.211687,-0.3702 -0.211687,-0.59023 l 0,-21.35146 c 0,-0.21899 0.07718,-0.43798 0.211687,-0.58919 0.134504,-0.15642 0.320463,-0.24506 0.510485,-0.24506 l 71.019715,0 c 0.19002,0 0.37597,0.0885 0.51047,0.24506 0.13451,0.15121 0.21169,0.3702 0.21169,0.58919 l -0.72216,0"
         style="fill:#231f20;fill-opacity:1;fill-rule:nonzero;stroke:none"
         id="path928"
         inkscape:connector-curvature="0" /><path
         d="m 98.136925,146.51531 71.019715,0 0,21.35679 -71.019715,0 0,-21.35679 z"
         style="fill:#d1d3d4;fill-opacity:1;fill-rule:nonzero;stroke:none"
         id="path930"
         inkscape:connector-curvature="0" /><path
         d="m 169.15664,146.51531 0,0.83425 -70.297544,0 0,19.68819 69.575364,0 0,-20.52244 0.72218,0 0,0.83425 0,-0.83425 0.72216,0 0,21.35669 c 0,0.21899 -0.0772,0.43276 -0.21169,0.58918 -0.1345,0.15642 -0.32045,0.24506 -0.51047,0.24506 l -71.019715,0 c -0.190022,0 -0.375981,-0.0885 -0.510485,-0.24506 -0.134505,-0.15642 -0.211687,-0.37019 -0.211687,-0.58918 l 0,-21.35669 c 0,-0.21899 0.07718,-0.43276 0.211687,-0.58917 0.134504,-0.15643 0.320463,-0.24506 0.510485,-0.24506 l 71.019715,0 c 0.19002,0 0.37597,0.0885 0.51047,0.24506 0.13451,0.15641 0.21169,0.37018 0.21169,0.58917 l -0.72216,0"
         style="fill:#231f20;fill-opacity:1;fill-rule:nonzero;stroke:none"
         id="path932"
         inkscape:connector-curvature="0" /><path
         d="m 98.136925,125.16385 71.019715,0 0,21.35146 -71.019715,0 0,-21.35146 z"
         style="fill:#f1f2f2;fill-opacity:1;fill-rule:nonzero;stroke:none"
         id="path934"
         inkscape:connector-curvature="0" /><path
         d="m 169.15664,125.16385 0,0.83425 -70.297544,0 0,19.68298 69.575364,0 0,-20.51723 0.72218,0 0,0.83425 0,-0.83425 0.72216,0 0,21.35146 c 0,0.22421 -0.0772,0.43798 -0.21169,0.59441 -0.1345,0.15121 -0.32045,0.23984 -0.51047,0.23984 l -71.019715,0 c -0.190022,0 -0.375981,-0.0885 -0.510485,-0.23984 -0.134505,-0.15643 -0.211687,-0.3702 -0.211687,-0.59441 l 0,-21.35146 c 0,-0.21899 0.07718,-0.43276 0.211687,-0.58917 0.134504,-0.15644 0.320463,-0.24506 0.510485,-0.24506 l 71.019715,0 c 0.19002,0 0.37597,0.0885 0.51047,0.24506 0.13451,0.15641 0.21169,0.37018 0.21169,0.58917 l -0.72216,0"
         style="fill:#231f20;fill-opacity:1;fill-rule:nonzero;stroke:none"
         id="path936"
         inkscape:connector-curvature="0" /><path
         d="m 159.67092,157.75677 c 0,-2.63831 -1.85103,-4.77605 -4.13444,-4.77605 -2.28341,0 -4.13489,2.13774 -4.13489,4.77605 0,2.6383 1.85148,4.77606 4.13489,4.77606 2.28341,0 4.13444,-2.13776 4.13444,-4.77606"
         style="fill:#ffffff;fill-opacity:1;fill-rule:nonzero;stroke:none"
         id="path938"
         inkscape:connector-curvature="0" /><path
         d="m 146.53732,157.75677 c 0,-2.63831 -1.85148,-4.77605 -4.13489,-4.77605 -2.28341,0 -4.13443,2.13774 -4.13443,4.77605 0,2.6383 1.85102,4.77606 4.13443,4.77606 2.28341,0 4.13489,-2.13776 4.13489,-4.77606"
         style="fill:#ffffff;fill-opacity:1;fill-rule:nonzero;stroke:none"
         id="path940"
         inkscape:connector-curvature="0" /><path
         d="m 108.35159,138.37621 51.0765,0 0,1.66829 -51.0765,0 0,-1.66829 z"
         style="fill:#231f20;fill-opacity:1;fill-rule:nonzero;stroke:none"
         id="path942"
         inkscape:connector-curvature="0" /><path
         d="m 108.35159,132.7607 51.0765,0 0,1.66849 -51.0765,0 0,-1.66849 z"
         style="fill:#231f20;fill-opacity:1;fill-rule:nonzero;stroke:none"
         id="path944"
         inkscape:connector-curvature="0" /><path
         d="m 107.62942,154.38328 1.44434,0 0,6.74181 -1.44434,0 0,-6.74181 z"
         style="fill:#231f20;fill-opacity:1;fill-rule:nonzero;stroke:none"
         id="path946"
         inkscape:connector-curvature="0" /><path
         d="m 112.49415,154.38328 1.44434,0 0,6.74181 -1.44434,0 0,-6.74181 z"
         style="fill:#231f20;fill-opacity:1;fill-rule:nonzero;stroke:none"
         id="path948"
         inkscape:connector-curvature="0" /><path
         d="m 117.35842,154.38328 1.44435,0 0,6.74181 -1.44435,0 0,-6.74181 z"
         style="fill:#231f20;fill-opacity:1;fill-rule:nonzero;stroke:none"
         id="path950"
         inkscape:connector-curvature="0" /><path
         d="m 122.22315,154.38328 1.44435,0 0,6.74181 -1.44435,0 0,-6.74181 z"
         style="fill:#231f20;fill-opacity:1;fill-rule:nonzero;stroke:none"
         id="path952"
         inkscape:connector-curvature="0" /><path
         d="m 127.08743,154.38328 1.44435,0 0,6.74181 -1.44435,0 0,-6.74181 z"
         style="fill:#231f20;fill-opacity:1;fill-rule:nonzero;stroke:none"
         id="path954"
         inkscape:connector-curvature="0" /><path
         d="m 140.94319,156.92252 2.91849,0 0,1.66849 -2.91849,0 0,-1.66849 z"
         style="fill:#231f20;fill-opacity:1;fill-rule:nonzero;stroke:none"
         id="path956"
         inkscape:connector-curvature="0" /><path
         d="m 154.07725,156.92252 2.919,0 0,1.66849 -2.919,0 0,-1.66849 z"
         style="fill:#231f20;fill-opacity:1;fill-rule:nonzero;stroke:none"
         id="path958"
         inkscape:connector-curvature="0" /><path
         d="m 156.99616,175.17529 1.94526,0 0,7.30475 -1.94526,0 0,-7.30475 z"
         style="fill:#a7a9ac;fill-opacity:1;fill-rule:nonzero;stroke:none"
         id="path960"
         inkscape:connector-curvature="0" /><path
         d="m 152.13144,175.17529 1.94576,0 0,7.30475 -1.94576,0 0,-7.30475 z"
         style="fill:#3b9ada;fill-opacity:1;fill-rule:nonzero;stroke:none"
         id="path962"
         inkscape:connector-curvature="0" /><path
         d="m 147.26716,175.17529 1.94578,0 0,7.30475 -1.94578,0 0,-7.30475 z"
         style="fill:#ffa432;fill-opacity:1;fill-rule:nonzero;stroke:none"
         id="path964"
         inkscape:connector-curvature="0" /><path
         d="m 142.40243,175.17529 1.9463,0 0,7.30475 -1.9463,0 0,-7.30475 z"
         style="fill:#3b9ada;fill-opacity:1;fill-rule:nonzero;stroke:none"
         id="path966"
         inkscape:connector-curvature="0" /><path
         d="m 137.53815,175.17529 1.94578,0 0,7.30475 -1.94578,0 0,-7.30475 z"
         style="fill:#ffa432;fill-opacity:1;fill-rule:nonzero;stroke:none"
         id="path968"
         inkscape:connector-curvature="0" /><path
         d="m 104.947,181.08435 28.69964,0 0,1.6685 -28.69964,0 0,-1.6685 z"
         style="fill:#231f20;fill-opacity:1;fill-rule:nonzero;stroke:none"
         id="path970"
         inkscape:connector-curvature="0" /><path
         d="m 104.947,175.46519 28.69964,0 0,1.66849 -28.69964,0 0,-1.66849 z"
         style="fill:#231f20;fill-opacity:1;fill-rule:nonzero;stroke:none"
         id="path972"
         inkscape:connector-curvature="0" /><path
         d="m 81.141068,152.85558 c -5.185643,0 -9.389583,-4.85427 -9.389583,-10.84519 0,-3.2692 1.251612,-6.19427 3.229459,-8.18082 1.088224,1.25137 2.854384,2.20553 3.692103,2.6331 0.783105,0.40147 1.033157,1.11579 1.103568,1.6007 -0.931149,0.76125 -1.583812,2.01783 -1.583812,2.99286 l 0,4.56749 c 0,0 -0.376433,3.80624 2.918928,3.80624 3.294455,0 2.918475,-3.80624 2.918475,-3.80624 l 0,-4.56749 c 0,-0.97503 -0.45903,-2.23161 -1.39018,-2.99286 0.06996,-0.48491 0.414345,-1.19923 1.196548,-1.6007 0.799354,-0.41191 2.491492,-1.29309 3.586033,-2.46103 1.878547,1.98133 3.082318,4.83862 3.082318,8.00875 0,5.99092 -4.178214,10.84519 -9.363857,10.84519"
         style="fill:#ffa432;fill-opacity:1;fill-rule:nonzero;stroke:none"
         id="path974"
         inkscape:connector-curvature="0" /><path
         d="m 83.057079,138.06337 0.722172,0 0,0.005 c 0,0.21899 -0.07762,0.43275 -0.214846,0.58918 -0.137213,0.16164 -0.323623,0.24506 -0.516803,0.24506 l -0.308729,-0.005 0.0091,-0.83425 0.417504,-0.68302 c 0.584508,0.47968 0.984862,1.11059 1.232657,1.76233 0.248698,0.64654 0.353413,1.31394 0.354316,1.91356 l 0,4.56749 -0.722172,0 0.717206,-0.0939 c 0.0026,0.0261 0.01762,0.18771 0.01762,0.44319 0,0.27634 -0.01762,0.66218 -0.09523,1.10016 -0.116898,0.65697 -0.370565,1.45472 -0.9474,2.10646 -0.28661,0.32329 -0.652662,0.60483 -1.090479,0.79254 -0.437816,0.19293 -0.944238,0.292 -1.52017,0.292 -0.767309,0 -1.414554,-0.18251 -1.934518,-0.50578 -0.389521,-0.24505 -0.701861,-0.56832 -0.938823,-0.91244 -0.356573,-0.52662 -0.547045,-1.09495 -0.653114,-1.60593 -0.105616,-0.50576 -0.127282,-0.95937 -0.127733,-1.26701 0,-0.25548 0.01534,-0.41713 0.0176,-0.44319 l 0.71766,0.0939 -0.722173,0 0,-4.56749 c 0.0036,-0.7039 0.218909,-1.38173 0.547496,-2.01262 0.332201,-0.62569 0.788069,-1.20965 1.340982,-1.66327 0.289772,-0.23465 0.685613,-0.19293 0.933859,0.0991 0.248247,0.29199 0.275328,0.75082 0.06319,1.07931 l -0.0026,0.005 c -0.135407,0.20856 -0.349803,0.3337 -0.576383,0.33891 -0.227032,0 -0.44233,-0.12512 -0.579091,-0.33368 l -0.0032,-0.005 c -0.06906,-0.10428 -0.116899,-0.23463 -0.13631,-0.35977 -0.02257,-0.15642 -0.07267,-0.34412 -0.169259,-0.51097 -0.09931,-0.16685 -0.237864,-0.32849 -0.508228,-0.46927 l 9.26e-4,0 c -0.42879,-0.21898 -1.102215,-0.57354 -1.817165,-1.04281 -0.715853,-0.47446 -1.475487,-1.05322 -2.093846,-1.76233 -0.142629,-0.16164 -0.218456,-0.38584 -0.211687,-0.62047 0.0067,-0.22942 0.0957,-0.44841 0.247345,-0.59962 1.773382,-1.7832 4.097419,-2.87293 6.634499,-2.86771 2.626447,-0.005 5.024058,1.1575 6.819105,3.05542 0.148497,0.15642 0.234706,0.38062 0.235158,0.61525 4.51e-4,0.22942 -0.08486,0.45363 -0.23245,0.61526 -1.207381,1.27744 -2.786228,2.17425 -3.624849,2.60701 l 9.26e-4,0 c -0.267204,0.14078 -0.385008,0.29199 -0.461288,0.43799 -0.07403,0.14077 -0.09885,0.29198 -0.0984,0.40147 l -1.444343,0 c 0,-0.37541 0.07808,-0.82382 0.302408,-1.25658 0.22252,-0.43798 0.598951,-0.84468 1.114401,-1.10537 l 4.52e-4,0 c 0.760085,-0.38584 2.249113,-1.25658 3.230815,-2.30982 l 0.490174,0.61004 -0.487466,0.61526 c -1.542738,-1.62678 -3.589192,-2.61745 -5.844625,-2.61745 -2.177798,0 -4.161514,0.92811 -5.686198,2.45582 l -0.473925,-0.62569 0.510033,-0.5944 c 0.470315,0.54747 1.138324,1.06888 1.787376,1.49643 0.649953,0.42234 1.279596,0.76125 1.688977,0.96981 l 9.26e-4,0 c 0.511839,0.26069 0.886014,0.65696 1.121622,1.06887 0.237865,0.41191 0.344386,0.82382 0.392681,1.1523 l -0.71179,0.14078 0.575481,-0.50576 0.0032,0.005 -0.575931,0.50576 -0.579544,-0.50054 0.0026,-0.005 0.579994,0.50055 0.417506,0.67782 c -0.378236,0.30763 -0.714047,0.73518 -0.941532,1.17316 -0.230192,0.42755 -0.341676,0.87074 -0.337615,1.14188 l 0,4.56748 -0.0049,0.0991 -0.271718,-0.0365 0.272169,0.0312 -4.51e-4,0.005 -0.271718,-0.0365 0.272169,0.0312 c -4.51e-4,0.005 -0.0085,0.0991 -0.0085,0.25548 -4.52e-4,0.1877 0.01309,0.46926 0.06636,0.76646 0.07899,0.44842 0.244636,0.91768 0.541629,1.24616 0.14985,0.17206 0.334456,0.31284 0.589021,0.42755 0.254564,0.10945 0.582702,0.18249 1.012846,0.18249 0.573674,0 0.963647,-0.13034 1.244842,-0.30763 0.211236,-0.13035 0.366955,-0.29197 0.494237,-0.47968 0.190021,-0.27635 0.312338,-0.61527 0.382299,-0.95418 0.07041,-0.33891 0.08801,-0.66739 0.08757,-0.88117 0,-0.0885 -0.0023,-0.15641 -0.0049,-0.20334 l -0.0026,-0.0469 -9.25e-4,-0.005 0.271718,-0.0312 -0.271266,0.0365 -4.52e-4,-0.005 0.271718,-0.0312 -0.271266,0.0365 -0.0045,-0.0991 0,-4.56749 c 4.52e-4,-0.37542 -0.07041,-0.82382 -0.230191,-1.24095 -0.160233,-0.41191 -0.401257,-0.78732 -0.747448,-1.07409 -0.258177,-0.20856 -0.366954,-0.58919 -0.26946,-0.93853 0.09794,-0.34413 0.380043,-0.57876 0.695993,-0.57353 l 0.30918,0.005 -0.0091,0.83424 -0.722171,0 0,-0.005 0.722171,0"
         style="fill:#231f20;fill-opacity:1;fill-rule:nonzero;stroke:none"
         id="path976"
         inkscape:connector-curvature="0" /><path
         d="m 131.49764,228.71767 c -6.39212,0 -11.57415,-5.98675 -11.57415,-13.37034 0,-4.02576 1.54319,-7.63387 3.98143,-10.08552 1.34098,1.54597 3.51787,2.7181 4.55057,3.24784 0.96546,0.49585 1.2462,1.37598 1.33376,1.97141 -1.14869,0.93906 -1.97965,2.4871 -1.97965,3.69311 l 0,5.63011 c 0,0 -0.41298,4.69107 3.64833,4.69107 4.06085,0 3.64785,-4.69107 3.64785,-4.69107 l 0,-5.63011 c 0,-1.20601 -0.58855,-2.75405 -1.73636,-3.69311 0.0862,-0.59543 0.4983,-1.47556 1.4624,-1.97141 0.98485,-0.50525 3.06471,-1.59394 4.41473,-3.033 2.315,2.44433 3.79591,5.96119 3.79591,9.87068 0,7.38359 -5.15314,13.37034 -11.54482,13.37034"
         style="fill:#18affe;fill-opacity:1;fill-rule:nonzero;stroke:none"
         id="path978"
         inkscape:connector-curvature="0" /><path
         d="m 133.59509,210.48106 0.71857,0.0834 -4.4e-4,0.006 c -0.038,0.43329 -0.35749,0.76021 -0.73437,0.75031 l -0.22523,-0.006 0.0158,-0.83372 0.41705,-0.68095 c 0.67975,0.55633 1.18527,1.28317 1.52424,2.04702 0.33808,0.76543 0.5159,1.56786 0.51726,2.32703 l 0,5.63011 -0.72218,0 0.71857,-0.0844 c 0.002,0.023 0.0153,0.18407 0.0158,0.4406 -4.5e-4,0.31597 -0.0203,0.77585 -0.11151,1.30351 -0.13765,0.78731 -0.43691,1.7493 -1.11981,2.53922 -0.33987,0.39263 -0.77453,0.73206 -1.30126,0.96513 -0.52719,0.23358 -1.14238,0.36133 -1.84966,0.36133 -0.94244,9.6e-4 -1.72418,-0.22942 -2.34571,-0.62778 -0.46579,-0.2977 -0.83545,-0.68616 -1.11575,-1.10536 -0.42157,-0.6309 -0.6468,-1.32124 -0.77137,-1.93129 -0.12458,-0.6116 -0.14895,-1.14917 -0.1494,-1.50424 0,-0.25705 0.0135,-0.41817 0.0153,-0.44112 l 0.71857,0.0844 -0.72218,0 0,-5.63011 c 0.004,-0.82486 0.26676,-1.63252 0.66756,-2.38595 0.40396,-0.75186 0.95733,-1.44741 1.61677,-1.9881 0.22206,-0.18146 0.51454,-0.20335 0.75511,-0.0568 l 0.01,0.006 -0.33762,0.73778 -0.59399,-0.47551 0.004,-0.005 0.59353,0.475 -0.71178,0.13973 c -0.0312,-0.21273 -0.0993,-0.46666 -0.23425,-0.70024 -0.13722,-0.23411 -0.33447,-0.4604 -0.69555,-0.64862 -0.52583,-0.26958 -1.35001,-0.70599 -2.22338,-1.28005 -0.87383,-0.57564 -1.79911,-1.2837 -2.54385,-2.13932 -0.14263,-0.16424 -0.21892,-0.38689 -0.21214,-0.61891 0.007,-0.23254 0.0961,-0.44893 0.24779,-0.60117 2.15703,-2.16956 4.98209,-3.4908 8.06756,-3.49027 3.19381,-5.3e-4 6.10957,1.41143 8.2937,3.71865 0.14848,0.15693 0.23425,0.38165 0.23469,0.61368 4.7e-4,0.23255 -0.0844,0.4578 -0.23199,0.61526 -0.74022,0.78783 -1.62489,1.44585 -2.45313,1.98185 -0.82734,0.53443 -1.60005,0.94321 -2.10152,1.20079 -0.36108,0.18771 -0.55924,0.41452 -0.69689,0.64862 -0.1354,0.23411 -0.20356,0.48752 -0.2338,0.69817 l -0.71224,-0.13817 0.71855,0.0834 -0.71855,-0.0834 -0.71224,-0.1387 c 0.0564,-0.38427 0.18054,-0.86866 0.45721,-1.34782 0.27442,-0.47865 0.70818,-0.93958 1.3112,-1.24721 0.48385,-0.24766 1.21551,-0.63611 1.98327,-1.13196 0.7673,-0.49481 1.56936,-1.10069 2.17824,-1.75139 l 0.48973,0.61264 -0.48702,0.61578 c -1.93181,-2.03869 -4.49641,-3.28119 -7.31921,-3.28171 -2.7262,5.2e-4 -5.21136,1.16325 -7.11925,3.08044 l -0.47438,-0.62932 0.51003,-0.59075 c 0.59759,0.69033 1.4308,1.34157 2.23828,1.8708 0.80838,0.53078 1.58878,0.9453 2.09566,1.20547 0.60391,0.30763 1.03722,0.76908 1.31118,1.24824 0.27579,0.47918 0.39946,0.96304 0.45587,1.34522 0.032,0.21692 -0.01,0.43433 -0.1182,0.61526 l -0.004,0.006 c -0.20853,0.34725 -0.60753,0.45989 -0.93115,0.26227 l -0.01,-0.006 0.33761,-0.73726 0.41706,0.68095 c -0.48883,0.39835 -0.92484,0.94582 -1.22364,1.50477 -0.30196,0.55685 -0.45497,1.1257 -0.4509,1.50737 l 0,5.63011 -0.004,0.0844 -0.21802,-0.0261 0.21802,0.023 0,0.003 -0.21802,-0.0261 0.21802,0.023 c -4.6e-4,0.008 -0.008,0.11002 -0.008,0.2753 0,0.23151 0.0158,0.58711 0.0831,0.97503 0.10111,0.58554 0.3173,1.22112 0.72353,1.68569 0.20446,0.23464 0.45767,0.43642 0.79889,0.58866 0.34123,0.15069 0.77408,0.25079 1.33241,0.25079 0.74474,-9.6e-4 1.26425,-0.1757 1.64565,-0.41868 0.28615,-0.18405 0.50055,-0.40982 0.67298,-0.66687 0.25818,-0.38428 0.41795,-0.84832 0.50823,-1.29308 0.0907,-0.44371 0.11103,-0.86083 0.11103,-1.12206 0,-0.0939 -0.002,-0.16789 -0.005,-0.21535 l -0.002,-0.0505 -8.4e-4,-0.009 0.21755,-0.023 -0.2171,0.0256 -4.5e-4,-0.003 0.21755,-0.023 -0.2171,0.0256 -0.004,-0.0839 0,-5.63012 c 0.001,-0.44736 -0.1151,-1.02142 -0.35794,-1.56629 -0.24238,-0.54643 -0.60526,-1.06366 -1.07378,-1.44637 -0.25998,-0.21221 -0.3683,-0.59284 -0.26809,-0.94218 0.0998,-0.34933 0.38275,-0.58032 0.7014,-0.5725 l 0.22524,0.006 -0.0158,0.83424 -0.71856,-0.0834 4.5e-4,-0.006 0.007,-0.0552 0.71224,0.13869"
         style="fill:#231f20;fill-opacity:1;fill-rule:nonzero;stroke:none"
         id="path980"
         inkscape:connector-curvature="0" /><path
         d="m 128.0064,281.16458 c -5.36258,0 -9.70869,-5.02216 -9.70869,-11.21695 0,-3.3766 1.29403,-6.4044 3.33913,-8.46081 1.12478,1.29725 2.95098,2.28062 3.81804,2.72538 0.81017,0.41557 1.03405,1.15387 1.10672,1.65285 -0.96274,0.78783 -1.67093,2.08666 -1.67093,3.0987 l 0,4.72339 c 0,0 -0.24464,3.93503 3.16176,3.93503 3.4073,0 3.16176,-3.93503 3.16176,-3.93503 l 0,-4.72339 c 0,-1.01204 -0.58405,-2.31087 -1.5468,-3.0987 0.0727,-0.49898 0.37236,-1.23728 1.18165,-1.65285 0.82644,-0.42391 2.54882,-1.3374 3.68082,-2.54445 1.94219,2.05067 3.17349,5.00026 3.17349,8.27988 0,6.19479 -4.33483,11.21695 -9.69695,11.21695"
         style="fill:#ffa432;fill-opacity:1;fill-rule:nonzero;stroke:none"
         id="path982"
         inkscape:connector-curvature="0" /><path
         d="m 129.76623,265.86505 0.71721,0.0959 -4.5e-4,0.005 c -0.0434,0.43484 -0.37101,0.75707 -0.74971,0.73777 l -0.0984,-0.005 0.0325,-0.83372 0.41706,-0.68043 c 0.57818,0.47343 1.03044,1.08556 1.34774,1.73835 0.31506,0.65437 0.50192,1.34992 0.50416,2.04077 l 0,4.7234 -0.72216,0 0.72037,-0.06 c 0.001,0.0172 0.006,0.0991 0.006,0.23098 -0.004,0.45675 -0.0437,1.52146 -0.56149,2.58042 -0.25952,0.52662 -0.65266,1.04802 -1.21189,1.42291 -0.55788,0.37697 -1.26606,0.59649 -2.11461,0.59493 -0.84855,0.002 -1.55673,-0.21847 -2.11462,-0.59545 -0.4184,-0.28104 -0.74654,-0.64549 -0.99162,-1.03133 -0.36876,-0.58084 -0.55833,-1.20287 -0.66168,-1.73419 -0.10291,-0.53236 -0.11961,-0.98024 -0.12007,-1.23781 0,-0.13139 0.005,-0.21326 0.006,-0.23098 l 0.72037,0.0605 -0.72218,0 0,-4.7234 c 0.004,-0.731 0.23742,-1.42811 0.58406,-2.07571 0.35026,-0.64496 0.82643,-1.23988 1.39199,-1.70342 0.1828,-0.15016 0.41705,-0.1929 0.63144,-0.11627 l 0.014,0.005 -0.21394,0.7967 -0.45903,-0.64392 0.005,-0.005 0.45903,0.64394 -0.71225,0.13922 c -0.0239,-0.16476 -0.0763,-0.35874 -0.17783,-0.53444 -0.10386,-0.17624 -0.2496,-0.34725 -0.53351,-0.49534 -0.44233,-0.22733 -1.13697,-0.59544 -1.87448,-1.08034 -0.73842,-0.48647 -1.52198,-1.08505 -2.1584,-1.81658 -0.14262,-0.16423 -0.21889,-0.38687 -0.21213,-0.61891 0.007,-0.23201 0.0961,-0.44839 0.2478,-0.60116 1.8298,-1.84056 4.22741,-2.96106 6.84528,-2.96052 2.70905,-5.4e-4 5.18294,1.19817 7.0353,3.155 0.1485,0.15694 0.23425,0.38166 0.23516,0.61368 4.6e-4,0.23256 -0.0848,0.45781 -0.23244,0.61526 -0.63147,0.67158 -1.3798,1.22791 -2.07986,1.681 -0.6987,0.45155 -1.35046,0.79619 -1.77248,1.01257 l 4.5e-4,0 c -0.28345,0.14809 -0.43059,0.31962 -0.53531,0.49638 -0.10242,0.17676 -0.15481,0.37072 -0.17828,0.5334 l -0.71225,-0.13922 0.71721,0.0959 -0.71721,-0.0959 -0.71223,-0.13869 c 0.0496,-0.33631 0.15887,-0.76073 0.40214,-1.18203 0.24104,-0.42129 0.62334,-0.82642 1.14872,-1.09442 l 4.5e-4,0 c 0.40396,-0.20751 1.01465,-0.5313 1.65422,-0.94426 0.63866,-0.41191 1.30443,-0.91559 1.80453,-1.45055 l 0.49017,0.61265 -0.48746,0.61578 c -1.60006,-1.6883 -3.72326,-2.71755 -6.06083,-2.71807 -2.25905,5.2e-4 -4.31633,0.96251 -5.89699,2.5507 l -0.47392,-0.62934 0.50959,-0.59073 c 0.48927,0.56624 1.18119,1.10797 1.85327,1.54804 0.67251,0.44215 1.32338,0.78835 1.74675,1.00578 0.52628,0.26748 0.90859,0.67366 1.14916,1.09547 0.24283,0.42181 0.35069,0.84675 0.39946,1.18098 0.0428,0.29406 -0.0537,0.59387 -0.25322,0.78314 l -0.005,0.005 c -0.18822,0.17885 -0.44007,0.23621 -0.67253,0.15226 l -0.0145,-0.005 0.21394,-0.79722 0.41752,0.68095 c -0.3972,0.32379 -0.75693,0.77273 -1.00156,1.22634 -0.24825,0.45258 -0.36921,0.91036 -0.36471,1.19141 l 0,4.72339 -0.001,0.06 -0.40125,-0.0334 0.40125,0.0293 0,0.003 -0.40125,-0.0334 0.40125,0.0293 c 0,5.2e-4 -0.002,0.0396 -0.002,0.11473 -0.004,0.30033 0.0501,1.11789 0.37101,1.75191 0.15933,0.32015 0.37145,0.59752 0.68515,0.81027 0.31461,0.21064 0.74699,0.36706 1.38747,0.3681 0.64094,-9.6e-4 1.07288,-0.15746 1.38748,-0.3681 0.23651,-0.15956 0.41254,-0.35509 0.55517,-0.57825 0.21349,-0.33318 0.34439,-0.73726 0.41616,-1.10954 0.0722,-0.37176 0.0853,-0.70546 0.0849,-0.87387 l -0.001,-0.0944 -8.4e-4,-0.0193 0,-0.002 0.40983,-0.0302 -0.40937,0.0339 -4.6e-4,-0.003 0.40983,-0.0302 -0.40937,0.0339 -0.002,-0.0595 0,-4.7234 c 0.002,-0.32118 -0.10242,-0.78105 -0.32046,-1.22582 -0.21574,-0.44683 -0.53667,-0.87804 -0.92167,-1.19192 -0.26179,-0.21377 -0.36967,-0.60118 -0.26585,-0.95156 0.10421,-0.35038 0.39539,-0.57928 0.7154,-0.5626 l 0.0984,0.005 -0.032,0.8332 -0.71766,-0.0959 8.4e-4,-0.005 0.005,-0.0432 0.71224,0.13869"
         style="fill:#231f20;fill-opacity:1;fill-rule:nonzero;stroke:none"
         id="path984"
         inkscape:connector-curvature="0" /><path
         d="m 65.545322,238.11127 35.023378,0 0,32.02986 -35.023378,0 0,-32.02986 z"
         style="fill:#ffffff;fill-opacity:1;fill-rule:nonzero;stroke:none"
         id="path986"
         inkscape:connector-curvature="0" /><path
         d="m 100.56884,238.11127 0,0.83426 -34.301345,0 0,30.36182 33.579171,0 0,-31.19608 0.722174,0 0,0.83426 0,-0.83426 0.72217,0 0,32.02981 c 0,0.22003 -0.0767,0.43484 -0.21124,0.59022 -0.1345,0.15538 -0.32046,0.24402 -0.51093,0.24402 l -35.023518,0 c -0.190021,0 -0.376432,-0.0885 -0.510485,-0.24402 -0.134505,-0.15538 -0.211686,-0.37019 -0.211686,-0.59022 l 0,-32.02981 c 0,-0.21951 0.07718,-0.43433 0.211686,-0.58971 0.134053,-0.15537 0.320464,-0.24453 0.510485,-0.24453 l 35.023518,0 c 0.19047,0 0.37643,0.0891 0.51093,0.24453 0.13451,0.15538 0.21124,0.3702 0.21124,0.58971 l -0.72217,0"
         style="fill:#231f20;fill-opacity:1;fill-rule:nonzero;stroke:none"
         id="path988"
         inkscape:connector-curvature="0" /><path
         d="m 68.464249,242.04526 28.69964,0 0,24.72489 -28.69964,0 0,-24.72489 z"
         style="fill:#d1d3d4;fill-opacity:1;fill-rule:nonzero;stroke:none"
         id="path990"
         inkscape:connector-curvature="0" /><path
         d="m 68.646598,249.60456 11.578214,6.94613 11.325457,-7.53792 0.720817,1.44533 -11.667584,7.7663 c -0.213492,0.14235 -0.475279,0.1486 -0.693736,0.0178 l -11.92892,-7.15678 0.665752,-1.48078"
         style="fill:#231f20;fill-opacity:1;fill-rule:nonzero;stroke:none"
         id="path992"
         inkscape:connector-curvature="0" /><path
         d="m 87.399136,252.4337 3.920489,4.02262 5.470901,-4.09874 0.785813,1.39996 -5.93264,4.44393 c -0.272619,0.20439 -0.629192,0.17309 -0.872473,-0.0761 l -4.331224,-4.44393 0.959134,-1.24771"
         style="fill:#231f20;fill-opacity:1;fill-rule:nonzero;stroke:none"
         id="path994"
         inkscape:connector-curvature="0" /><path
         d="m 88.087456,261.84294 c 0,-1.72532 -1.210089,-3.12269 -2.702728,-3.12269 -1.492186,0 -2.702276,1.39737 -2.702276,3.12269 0,1.72324 1.21009,3.12112 2.702276,3.12112 1.492639,0 2.702728,-1.39788 2.702728,-3.12112"
         style="fill:#ffffff;fill-opacity:1;fill-rule:nonzero;stroke:none"
         id="path996"
         inkscape:connector-curvature="0" /><path
         d="m 72.841963,226.60078 34.787457,0 0,-25.5764 1.44434,0 0,26.41063 c 0,0.21952 -0.0767,0.43433 -0.21123,0.58971 -0.13451,0.15539 -0.32047,0.24454 -0.51094,0.24454 l -35.509627,0 0,-1.66848"
         style="fill:#231f20;fill-opacity:1;fill-rule:nonzero;stroke:none"
         id="path998"
         inkscape:connector-curvature="0" /><path
         d="m 105.43311,224.0631 -37.941988,0 0,-28.65788 19.944123,0 0,-10.67731 9.241991,10.67731 8.755874,0 0,28.65788"
         style="fill:#ffa432;fill-opacity:1;fill-rule:nonzero;stroke:none"
         id="path1000"
         inkscape:connector-curvature="0" /><path
         d="m 62.626846,203.27215 20.430233,0 0,-15.73439 -10.215116,0 0,-5.54408 -5.478574,5.54408 -4.736543,0 0,15.73439"
         style="fill:#18affe;fill-opacity:1;fill-rule:nonzero;stroke:none"
         id="path1002"
         inkscape:connector-curvature="0" /><path
         d="m 72.355852,210.86638 28.699638,0 0,1.6685 -28.699638,0 0,-1.6685 z"
         style="fill:#231f20;fill-opacity:1;fill-rule:nonzero;stroke:none"
         id="path1004"
         inkscape:connector-curvature="0" /><path
         d="m 72.355852,217.04814 28.699638,0 0,1.6685 -28.699638,0 0,-1.6685 z"
         style="fill:#231f20;fill-opacity:1;fill-rule:nonzero;stroke:none"
         id="path1006"
         inkscape:connector-curvature="0" /><path
         d="m 72.355852,205.24723 28.699638,0 0,1.66848 -28.699638,0 0,-1.66848 z"
         style="fill:#231f20;fill-opacity:1;fill-rule:nonzero;stroke:none"
         id="path1008"
         inkscape:connector-curvature="0" /><path
         d="m 72.355852,197.94236 7.296278,0 0,1.6685 -7.296278,0 0,-1.6685 z"
         style="fill:#231f20;fill-opacity:1;fill-rule:nonzero;stroke:none"
         id="path1010"
         inkscape:connector-curvature="0" /><path
         d="m 83.057079,199.62806 7.296642,0 0,1.6685 -7.296642,0 0,-1.6685 z"
         style="fill:#231f20;fill-opacity:1;fill-rule:nonzero;stroke:none"
         id="path1012"
         inkscape:connector-curvature="0" /><path
         d="m 93.759211,199.62806 7.296099,0 0,1.6685 -7.296099,0 0,-1.6685 z"
         style="fill:#231f20;fill-opacity:1;fill-rule:nonzero;stroke:none"
         id="path1014"
         inkscape:connector-curvature="0" /><path
         d="m 65.545322,192.32319 14.106674,0 0,1.6685 -14.106674,0 0,-1.6685 z"
         style="fill:#231f20;fill-opacity:1;fill-rule:nonzero;stroke:none"
         id="path1016"
         inkscape:connector-curvature="0" /><path
         d="m 312.16962,241.21102 34.78746,0 0,-25.5764 1.44434,0 0,26.41064 c 0,0.21951 -0.0772,0.43433 -0.21168,0.58971 -0.13451,0.15537 -0.32047,0.24453 -0.51048,0.24453 l -35.50964,0 0,-1.66848"
         style="fill:#231f20;fill-opacity:1;fill-rule:nonzero;stroke:none"
         id="path1018"
         inkscape:connector-curvature="0" /><path
         d="m 344.76077,238.67334 -37.94199,0 0,-28.65789 19.94368,0 0,-10.6773 9.24243,10.6773 8.75588,0 0,28.65789"
         style="fill:#18affe;fill-opacity:1;fill-rule:nonzero;stroke:none"
         id="path1020"
         inkscape:connector-curvature="0" /><path
         d="m 301.9545,217.88239 20.43023,0 0,-15.73439 -10.21511,0 0,-5.54409 -5.47902,5.54409 -4.7361,0 0,15.73439"
         style="fill:#ffa432;fill-opacity:1;fill-rule:nonzero;stroke:none"
         id="path1022"
         inkscape:connector-curvature="0" /><path
         d="m 311.68307,225.47662 28.70012,0 0,1.6685 -28.70012,0 0,-1.6685 z"
         style="fill:#231f20;fill-opacity:1;fill-rule:nonzero;stroke:none"
         id="path1024"
         inkscape:connector-curvature="0" /><path
         d="m 311.68307,231.65786 28.70012,0 0,1.6685 -28.70012,0 0,-1.6685 z"
         style="fill:#231f20;fill-opacity:1;fill-rule:nonzero;stroke:none"
         id="path1026"
         inkscape:connector-curvature="0" /><path
         d="m 311.68307,219.85746 28.70012,0 0,1.6685 -28.70012,0 0,-1.6685 z"
         style="fill:#231f20;fill-opacity:1;fill-rule:nonzero;stroke:none"
         id="path1028"
         inkscape:connector-curvature="0" /><path
         d="m 311.68307,212.5526 7.29662,0 0,1.6685 -7.29662,0 0,-1.6685 z"
         style="fill:#231f20;fill-opacity:1;fill-rule:nonzero;stroke:none"
         id="path1030"
         inkscape:connector-curvature="0" /><path
         d="m 322.38473,214.2383 7.29665,0 0,1.66849 -7.29665,0 0,-1.66849 z"
         style="fill:#231f20;fill-opacity:1;fill-rule:nonzero;stroke:none"
         id="path1032"
         inkscape:connector-curvature="0" /><path
         d="m 333.08597,214.2383 7.29718,0 0,1.66849 -7.29718,0 0,-1.66849 z"
         style="fill:#231f20;fill-opacity:1;fill-rule:nonzero;stroke:none"
         id="path1034"
         inkscape:connector-curvature="0" /><path
         d="m 304.87298,206.93344 14.10667,0 0,1.6685 -14.10667,0 0,-1.6685 z"
         style="fill:#231f20;fill-opacity:1;fill-rule:nonzero;stroke:none"
         id="path1036"
         inkscape:connector-curvature="0" /><path
         d="m 273.2545,286.99909 0,-0.83425 12.41143,0 0,-12.37968 -11.68971,0 0,13.21393 -0.72172,0 0,-0.83425 0,0.83425 -0.72263,0 0,-14.04817 c 0,-0.21952 0.0772,-0.43485 0.2117,-0.5897 0.1345,-0.15539 0.32046,-0.24455 0.51093,-0.24455 l 13.1336,0 c 0.19002,0 0.37597,0.0891 0.51048,0.24455 0.1345,0.15485 0.21168,0.37018 0.21168,0.5897 l 0,14.04817 c 0,0.22003 -0.0772,0.43484 -0.21168,0.59022 -0.13451,0.15538 -0.32046,0.24401 -0.51048,0.24401 l -13.1336,0 c -0.19047,0 -0.37643,-0.0885 -0.51093,-0.24401 -0.1345,-0.15538 -0.2117,-0.37019 -0.2117,-0.59022 l 0.72263,0"
         style="fill:#231f20;fill-opacity:1;fill-rule:nonzero;stroke:none"
         id="path1038"
         inkscape:connector-curvature="0" /><path
         d="m 227.04274,274.926 40.37427,0 0,1.66848 -40.37427,0 0,-1.66848 z"
         style="fill:#231f20;fill-opacity:1;fill-rule:nonzero;stroke:none"
         id="path1040"
         inkscape:connector-curvature="0" /><path
         d="m 247.47298,283.35553 19.94398,0 0,1.66848 -19.94398,0 0,-1.66848 z"
         style="fill:#231f20;fill-opacity:1;fill-rule:nonzero;stroke:none"
         id="path1042"
         inkscape:connector-curvature="0" /><path
         d="m 286.81688,273.45303 -13.15571,14.43713 -0.99478,-1.20966 13.15571,-14.43713"
         style="fill:#231f20;fill-opacity:1;fill-rule:nonzero;stroke:none"
         id="path1044"
         inkscape:connector-curvature="0" /><path
         d="m 166.72472,270.70315 0,0.83424 -12.41187,0 0,12.37968 11.6897,0 0,-13.21392 0.72217,0 0,0.83424 0,-0.83424 0.72216,0 0,14.04817 c 0,0.22002 -0.0772,0.43484 -0.21168,0.59022 -0.13451,0.15538 -0.32046,0.24403 -0.51048,0.24403 l -13.13404,0 c -0.19002,0 -0.37599,-0.0887 -0.51048,-0.24403 -0.13451,-0.15538 -0.2117,-0.3702 -0.2117,-0.59022 l 0,-14.04817 c 0,-0.21952 0.0772,-0.43485 0.2117,-0.58971 0.13449,-0.15538 0.32046,-0.24454 0.51048,-0.24454 l 13.13404,0 c 0.19002,0 0.37597,0.0892 0.51048,0.24454 0.13451,0.15486 0.21168,0.37019 0.21168,0.58971 l -0.72216,0"
         style="fill:#231f20;fill-opacity:1;fill-rule:nonzero;stroke:none"
         id="path1046"
         inkscape:connector-curvature="0" /><path
         d="m 172.56166,281.10776 19.94417,0 0,1.66848 -19.94417,0 0,-1.66848 z"
         style="fill:#231f20;fill-opacity:1;fill-rule:nonzero;stroke:none"
         id="path1048"
         inkscape:connector-curvature="0" /><path
         d="m 172.56166,272.67875 27.7273,0 0,1.66848 -27.7273,0 0,-1.66848 z"
         style="fill:#231f20;fill-opacity:1;fill-rule:nonzero;stroke:none"
         id="path1050"
         inkscape:connector-curvature="0" /><path
         d="m 153.16233,284.43274 13.15527,-14.43662 0.99479,1.20966 -13.15526,14.43661"
         style="fill:#231f20;fill-opacity:1;fill-rule:nonzero;stroke:none"
         id="path1052"
         inkscape:connector-curvature="0" /><path
         d="m 194.9377,281.10776 5.35126,0 0,1.66848 -5.35126,0 0,-1.66848 z"
         style="fill:#231f20;fill-opacity:1;fill-rule:nonzero;stroke:none"
         id="path1054"
         inkscape:connector-curvature="0" /><path
         d="m 50.952492,161.12503 10.701227,0 0,11.24095 -10.701227,0 0,-11.24095 z"
         style="fill:#a7a9ac;fill-opacity:1;fill-rule:nonzero;stroke:none"
         id="path1056"
         inkscape:connector-curvature="0" /><path
         d="m 66.031885,169.285 19.457559,0 0,1.66748 -19.457559,0 0,-1.66748 z"
         style="fill:#231f20;fill-opacity:1;fill-rule:nonzero;stroke:none"
         id="path1058"
         inkscape:connector-curvature="0" /><path
         d="m 66.031885,162.54325 27.240311,0 0,1.6685 -27.240311,0 0,-1.6685 z"
         style="fill:#231f20;fill-opacity:1;fill-rule:nonzero;stroke:none"
         id="path1060"
         inkscape:connector-curvature="0" /><path
         d="m 50.638798,171.48532 10.501728,-11.52302 0.994793,1.20966 -10.50173,11.52301"
         style="fill:#231f20;fill-opacity:1;fill-rule:nonzero;stroke:none"
         id="path1062"
         inkscape:connector-curvature="0" /><path
         d="m 211.83427,275.22163 5.1405,-5.93827 1.02143,1.17942 -5.14052,5.93827"
         style="fill:#231f20;fill-opacity:1;fill-rule:nonzero;stroke:none"
         id="path1064"
         inkscape:connector-curvature="0" /><path
         d="m 212.85568,269.28336 5.14052,5.93827 -1.02143,1.17942 -5.1405,-5.93827"
         style="fill:#231f20;fill-opacity:1;fill-rule:nonzero;stroke:none"
         id="path1066"
         inkscape:connector-curvature="0" /><path
         d="m 47.904927,217.90429 5.140508,-5.93826 1.021422,1.17993 -5.140508,5.93825"
         style="fill:#231f20;fill-opacity:1;fill-rule:nonzero;stroke:none"
         id="path1068"
         inkscape:connector-curvature="0" /><path
         d="m 48.926349,211.96603 5.140508,5.93826 -1.021422,1.17992 -5.140508,-5.93825"
         style="fill:#231f20;fill-opacity:1;fill-rule:nonzero;stroke:none"
         id="path1070"
         inkscape:connector-curvature="0" /><path
         d="m 104.81837,289.83135 5.1405,-5.93774 1.02098,1.17942 -5.14006,5.93826"
         style="fill:#231f20;fill-opacity:1;fill-rule:nonzero;stroke:none"
         id="path1072"
         inkscape:connector-curvature="0" /><path
         d="m 105.83979,283.89361 5.14006,5.93774 -1.02098,1.17994 -5.1405,-5.93826"
         style="fill:#231f20;fill-opacity:1;fill-rule:nonzero;stroke:none"
         id="path1074"
         inkscape:connector-curvature="0" /><path
         d="m 339.76786,282.52649 5.14007,-5.93827 1.02141,1.17994 -5.14005,5.93826"
         style="fill:#231f20;fill-opacity:1;fill-rule:nonzero;stroke:none"
         id="path1076"
         inkscape:connector-curvature="0" /><path
         d="m 340.78929,276.58822 5.14005,5.93827 -1.02141,1.17993 -5.14007,-5.93826"
         style="fill:#231f20;fill-opacity:1;fill-rule:nonzero;stroke:none"
         id="path1078"
         inkscape:connector-curvature="0" /><path
         d="m 366.52161,229.70521 5.1405,-5.93827 1.02143,1.17994 -5.14051,5.93774"
         style="fill:#231f20;fill-opacity:1;fill-rule:nonzero;stroke:none"
         id="path1080"
         inkscape:connector-curvature="0" /><path
         d="m 367.54303,223.76694 5.14051,5.93827 -1.02143,1.17941 -5.1405,-5.93774"
         style="fill:#231f20;fill-opacity:1;fill-rule:nonzero;stroke:none"
         id="path1082"
         inkscape:connector-curvature="0" /><path
         d="m 136.56549,190.3476 7.29626,0 0,2.80988 -7.29626,0 0,-2.80988 z"
         style="fill:#bcbec0;fill-opacity:1;fill-rule:nonzero;stroke:none"
         id="path1084"
         inkscape:connector-curvature="0" /><path
         d="m 258.66123,219.00602 6.81056,0 0,2.80925 -6.81056,0 0,-2.80925 z"
         style="fill:#bcbec0;fill-opacity:1;fill-rule:nonzero;stroke:none"
         id="path1086"
         inkscape:connector-curvature="0" /></g></g></svg>
