<svg xmlns="http://www.w3.org/2000/svg" width="200" height="150"><path d="M149.43 22.306c0 7.224-5.672 13.08-12.67 13.08-6.997 0-12.67-5.856-12.67-13.08 0-7.223 5.673-13.08 12.67-13.08 6.998 0 12.67 5.857 12.67 13.08" fill="#665a57"/><path d="M147.595 22.306c0 6.177-4.85 11.185-10.835 11.185-5.983 0-10.834-5.007-10.834-11.184s4.85-11.184 10.834-11.184 10.835 5.007 10.835 11.184" fill="#eead55"/><path d="M136.016 22.2h1.49v-9.502h-1.49v9.5z" fill="#de5e53"/><path d="M136.016 22.2h1.49v-5.237h-1.49V22.2z" fill="#39b2bd"/><path d="M138.123 22.306c0 .776-.61 1.406-1.363 1.406-.752 0-1.362-.63-1.362-1.406 0-.776.61-1.405 1.362-1.405.753 0 1.363.63 1.363 1.406M80.263 26.842h30.69V7.174h-30.69v19.668z" fill="#665a57"/><path d="M81.222 25.753h28.772V8.263H81.222v17.49z" fill="#39b2bd"/><path d="M101.203 11.735c.72.87 1.156 2 1.156 3.233 0 2.752-2.162 4.982-4.827 4.982-.508 0-.998-.08-1.457-.23.885 1.068 2.2 1.747 3.67 1.747 2.666 0 4.826-2.23 4.826-4.98 0-2.23-1.416-4.114-3.37-4.752" fill="#eead55"/><path d="M107.922 22.01c-.078-.404-.454-.73-.94-.83-.062-.63-.718-1.128-1.52-1.128-.205 0-.4.033-.578.09-.233-.434-.774-.74-1.403-.74-.637 0-1.183.315-1.41.76-.185-.062-.387-.097-.6-.097-.786 0-1.432.474-1.516 1.085-.584.04-1.057.4-1.146.86h9.114M93.47 22.712c-.078-.403-.454-.73-.94-.83-.062-.63-.718-1.126-1.52-1.126-.205 0-.4.033-.578.09-.233-.434-.774-.74-1.403-.74-.64 0-1.185.315-1.413.76-.184-.063-.386-.098-.6-.098-.785 0-1.43.475-1.515 1.086-.584.04-1.057.4-1.146.858h9.114M93.86 16.534c-.056-.29-.326-.523-.676-.595-.044-.454-.515-.81-1.092-.81-.146 0-.286.023-.414.065-.167-.312-.555-.53-1.007-.53-.457 0-.848.225-1.012.544-.132-.046-.277-.072-.43-.072-.564 0-1.028.342-1.09.78-.417.03-.757.287-.82.616h6.542" fill="#fff"/><path d="M157.1 84.9c0 .526-.414.952-.924.952h-37.653c-.51 0-.922-.426-.922-.952V54.994c0-.526.413-.952.923-.952h37.653c.51 0 .923.426.923.952V84.9" fill="#c8b7b7"/><path d="M135.246 76.96l-.664 14.38h7.926l-.663-14.38h-6.6" fill="#363c3c"/><path d="M144.086 91.764c0 .097-.136.175-.302.175h-10.477c-.167 0-.302-.08-.302-.176v-.85c0-.097.135-.176.302-.176h10.477c.166 0 .302.08.302.175v.85M95.457 91.94h23.306v-1.543H95.457v1.542z" fill="#665a57"/><path d="M62.717 91.94h18.686v-.5H62.717v.5z" fill="#c2c5cb"/><path d="M96.097 71.05c-1.362-1.496-1.887-4.608-1.258-4.378.628.23 1.885 1.153 1.885 1.153s-2.2-4.452-2.2-5.395c0-.944.314-1.592 1.572 0s2.41 2.283 2.41 2.283-1.782-4.495-2.62-5.877c0 0-1.938-3.775-2.567-6.295-.63-2.52-2.358-8.57-4.245-10.645-1.885-2.074-5.177-5.53-7.304-7.087-2.126-1.556-6.515-2.766-8.25-2.766h-2.51-3.036c-1.735 0-6.124 1.21-8.25 2.766-2.128 1.556-5.42 5.013-7.306 7.087-1.886 2.075-3.615 8.125-4.244 10.646-.63 2.52-2.568 6.296-2.568 6.296-.837 1.382-2.62 5.877-2.62 5.877s1.153-.69 2.41-2.283c1.26-1.592 1.573-.944 1.573 0 0 .943-2.2 5.395-2.2 5.395s1.256-.922 1.885-1.153c.628-.23.104 2.882-1.258 4.38-1.363 1.497-3.353 0-3.353 0s.104 1.036 1.78 1.96c1.678.92 3.564-.693 5.24-1.154 1.678-.46 1.154.69.63 1.844-.524 1.153-3.668 1.268-2.62 1.624 1.048.356 2.2.566 4.006.105 1.804-.46.92.692.28 1.73-.638 1.036.01 3.226.01 3.226-.105-.922.63-.576 2.48-1.613 1.85-1.038 1.188 1.152 1.518 2.88.33 1.73.928 1.383 2.185 1.038 1.257-.345 3.354.116 4.192 1.347.84 1.23 3.354.267 5.45.037 2.095-.23 2.62.69 2.62.69h1.865s.524-.92 2.62-.69c2.095.23 4.61 1.193 5.45-.037.837-1.23 2.933-1.692 4.19-1.346 1.258.346 1.855.692 2.185-1.037.33-1.728-.33-3.918 1.52-2.88 1.85 1.037 2.583.69 2.48 1.613 0 0 .646-2.19.008-3.227-.638-1.038-1.524-2.19.28-1.73 1.806.462 2.96.252 4.007-.104 1.048-.356-2.096-.47-2.62-1.624-.524-1.153-1.048-2.305.63-1.844 1.676.46 3.562 2.074 5.24 1.153 1.675-.922 1.78-1.96 1.78-1.96s-1.99 1.5-3.353 0" fill="#665a57"/><path d="M63.272 105.863h16.922V100.6H63.272v5.263z" fill="#404e52"/><path d="M63.272 116.282h4.105v-13.658h-4.105v13.658zM76.09 116.282h4.104v-13.658H76.09v13.658z" fill="#404e52"/><path d="M63.095 115.41c.032 0-.503.678-.59.747-.364.292-.783.477-1.177.703-.646.37-1.657 1.157-1.562 2.152.07.76.644.673 1.17.72 1.043.09 2.036.11 3.077-.013l1.11-.393c.53.092 1.06.177 1.592.215 1.2.087.888-1.85.872-2.79l.002-1.342h-4.495M80.37 115.41c-.03 0 .505.678.59.747.365.292.784.477 1.178.703.646.37 1.657 1.157 1.562 2.152-.07.76-.644.673-1.17.72-1.043.09-2.036.11-3.077-.013l-1.11-.393c-.53.092-1.06.177-1.593.215-1.2.087-.887-1.85-.87-2.79l-.003-1.342h4.494" fill="#686f74"/><path d="M63.272 102.175h16.922V100.6H63.272v1.575z" fill="#2b3334"/><path d="M82.52 77.84c-.34-.18-2.443-1.025-3.158-1.31H64.104c-.715.285-2.82 1.13-3.158 1.31-.41.22-.497.592-.497.592l.053.88 1.737 22.31h18.986l1.738-22.31.053-.88s-.087-.372-.497-.59" fill="#de5e53"/><path d="M68.02 92.38l-.497-.576-.496-.576.452-.193.45-.193.045.77.044.768" fill="#81888e"/><path d="M67.48 91.035l.45-.193-3.16-7.86c-.084-.212-.31-.318-.5-.237l-.21.09c-.19.082-.278.32-.193.533l3.16 7.86.452-.193" fill="#3e4445"/><path d="M76.76 76.302c0 2.397-1.884 4.34-4.207 4.34s-4.206-1.943-4.206-4.34c0-2.4 1.883-4.342 4.206-4.342 2.323 0 4.206 1.943 4.206 4.342" fill="#dcd09e"/><path d="M90.4 59.694c0 10.14-7.963 18.36-17.787 18.36-9.825 0-17.79-8.22-17.79-18.36 0-10.14 7.965-18.363 17.79-18.363 9.824 0 17.787 8.223 17.787 18.364" fill="#dccf9d"/><path d="M59.6 62.236c0 1.94-1.523 3.514-3.403 3.514-1.88 0-3.405-1.574-3.405-3.514 0-1.94 1.524-3.515 3.405-3.515 1.88 0 3.404 1.575 3.404 3.516" fill="#dccf9d"/><path d="M58.186 55.463H87.04V70.43c2.112-3.02 3.36-6.727 3.36-10.736 0-10.14-7.963-18.363-17.787-18.363-9.825 0-17.79 8.223-17.79 18.364 0 4.01 1.25 7.715 3.363 10.735V55.462" fill="#665a57"/><path d="M73.867 72.412s-1.407.5-2.522.705c-1.182.217-3.205-.108-3.81-.868-.603-.76-.945-2.224 0-3.146 0 0-.078 2.55 1.315 1.817 1.392-.73 2.154-1.356 3.047-1.68.894-.326 3-.64 3.573.08.604.76.717 2.407-1.603 3.092" fill="#665a57"/><path d="M77.553 72.412s1.407.5 2.522.705c1.182.217 3.205-.108 3.81-.868.603-.76.945-2.224 0-3.146 0 0 .078 2.55-1.314 1.817-1.39-.73-2.153-1.356-3.046-1.68-.894-.326-3-.64-3.573.08-.604.76-.717 2.407 1.603 3.092" fill="#665a57"/><path d="M73.212 78.607c4.958 0 9.426-2.415 12.582-6.28-.4-.174-.79-.296-1.07-.275-.885.066-2.165 2.215-3.64 2.773-1.477.557-5.61.865-6.297.385-.69-.48-1.575-1.007-1.575-1.007s-.885.526-1.574 1.007c-.69.48-4.82.172-6.297-.385-1.475-.558-2.754-2.707-3.64-2.773-.28-.02-.67.1-1.07.276 3.157 3.864 7.625 6.28 12.582 6.28" fill="#665a57"/><path d="M89.622 61.296c-.057.925-.188 1.844-.376 2.75-.113.54-.217 1.144-.446 1.666-.085.194-.187.377-.314.54-.635.822-1.31 1.358-2.29 1.638-.99.283-2.036.28-3.05.237-4.33-.178-5.123-3.64-5.754-6.33-.018-.08-.036-.156-.052-.235-.172-.793-.266-1.652.213-2.35.07-.098.145-.184.224-.265.465-.472 1.115-.677 1.737-.836.563-.143 1.136-.232 1.71-.285.616-.056 1.234-.08 1.85-.075 1.14.01 1.758.014 2.89.15.93.112 2.555.18 3.228.99.568.682.482 1.572.43 2.406zm-16.387.5c-.63 2.69-1.424 6.153-5.752 6.33-1.015.043-2.064.047-3.05-.236-.982-.28-1.656-.816-2.292-1.637-.125-.164-.228-.347-.312-.54-.23-.523-.334-1.128-.447-1.668-.186-.905-.317-1.824-.375-2.75-.052-.833-.137-1.723.43-2.406.673-.81 2.3-.878 3.23-.99 1.13-.136 1.75-.14 2.887-.15.617-.005 1.235.02 1.85.075.576.053 1.15.142 1.71.286.624.16 1.274.365 1.738.837.08.08.156.168.223.266.48.697.387 1.556.215 2.35l-.053.233zm17.175-3.828c-4.004-.854-8.073-1.054-12.097-.208-.81.17-1.31.525-1.597.998-.54.197-1.137.39-1.402.39-.266 0-.863-.193-1.402-.39-.288-.473-.788-.828-1.598-.998-4.024-.846-8.093-.646-12.097.208-.655.14-.73.4-.73.4v1.557s.206.06.543.498c.336.44.093 1.04.617 3.773.524 2.735 2.302 4.632 6.276 4.632 2.432 0 4.388-.876 5.714-3.115.63-1.062 1.003-2.292 1.297-3.5.075-.31.144-.62.198-.923.637-.177 1.182-.273 1.182-.273s.543.096 1.18.273c.055.304.124.614.2.924.294 1.207.668 2.437 1.296 3.5 1.327 2.238 3.283 3.114 5.714 3.114 3.975 0 5.752-1.897 6.276-4.632.524-2.734.28-3.333.618-3.773.337-.44.543-.498.543-.498v-1.558s-.074-.26-.73-.4" fill="#4e5357"/><path d="M59.034 59.865l-3.943-.613c-.288-.046-.49-.326-.445-.624l.074-.505c.042-.298.314-.505.603-.46l3.943.613c.29.045.49.325.446.623l-.074.504c-.044.298-.315.505-.604.46" fill="#4e5357"/><path d="M85.524 78.672s-1.127-8.95-1.916-11.912c-.788-2.96-.9-4.987-4.057-7.758-3.155-2.77-10.03-4.762-12.62-8.746 0 0-1.493-3.855.563-6.905 2.054-3.048 4.662-5.112 10.445-3.817C83.72 40.83 88.68 48.53 89.58 50.123c.903 1.594-.675 19.653-4.056 28.55" fill="#665a57"/><path d="M79.834 81.744c-.878-.672-1.195-1.914-.696-2.962.56-1.18 1.943-1.667 3.087-1.088l7.177 3.636 7.723-8.634c.864-.966 2.325-1.03 3.26-.134.935.89.994 2.398.13 3.364l-8.89 9.94c-.693.773-1.795.986-2.712.52l-8.72-4.417c-.13-.066-.248-.142-.36-.226" fill="#de5e53"/><path d="M100.532 79.516l-6.835-9.818 4.205-2.7 4.203-2.7 5.51 10.67-7.083 4.548" fill="#fff"/><path d="M94.512 70.92l-.815-1.222.84 1.208-.025.015" fill="#645653"/><path d="M102.783 65.61l-.678-1.312.702 1.297-.024.015" fill="#c7b8a3"/><path d="M94.537 70.906l-.84-1.208 4.205-2.7 4.203-2.7.678 1.312-8.246 5.296" fill="#dbd9dd"/><path d="M100.587 62.89l1.648 1.133-4.417 2.837-4.418 2.837-.256-2.026 7.443-4.78" fill="#363c3c"/><path d="M93.87 70.592l8.936-5.74-.782-1.296-8.936 5.74.782 1.296" fill="#2f3333"/><path d="M105.85 71.546l-7.51 4.822-2.74-3.936 8.04-5.163 2.21 4.276M92.738 66.443c-.02-.048.014-.116.078-.157l1.708-1.097.11-.032.576.05 3.627-.93c.063-.017.115.006.125.053l-.08.146-5.365 3.444-.11.03-.072-.045-.597-1.462" fill="#363c3c"/><path d="M107.616 74.967l-.23-.447.23.447" fill="#c7b8a3"/><path d="M100.532 79.516l-.286-.41 7.14-4.586.23.447-7.084 4.55" fill="#dbd9dd"/><path d="M63.272 91.94h18.13v-.91h-18.13v.91z" fill="#eead55"/><path d="M65.24 92.935c-.117-.008-.234-.027-.352-.056L52.922 89.91c-.787-.194-1.404-.824-1.602-1.633-.2-.81.054-1.667.656-2.224l8.493-7.862c.893-.83 2.27-.752 3.072.172.803.924.728 2.344-.167 3.172l-5.405 5.005 7.935 1.966c1.17.29 1.89 1.502 1.608 2.71-.253 1.084-1.23 1.795-2.273 1.715" fill="#dcd09e"/><path d="M63.547 87.926l-5.578-1.383 5.405-5.005c.895-.828.97-2.248.167-3.172-.802-.924-2.18-1-3.073-.172l-8.494 7.86c-.602.56-.855 1.415-.656 2.225.198.808.815 1.438 1.602 1.632l9.328 2.313 1.297-4.3" fill="#de5e53"/><path d="M31.365 145.04h135.152V94.727H31.365v50.315z" fill="#665a57"/><path d="M29.34 96.41h139.2v-4.46H29.34v4.46z" fill="#5b5150"/></svg>