<svg xmlns="http://www.w3.org/2000/svg" width="200" height="150" viewBox="0 0 6250 6250"><path d="M2460.002 2038.744h1322.5V438.742h-1322.5v1600.002z" fill="#f4f4f9"/><path d="M2565.004 1938.73h1112.5v-1400h-1112.5v1400z" fill="#54c6c6"/><path d="M2323.452 2520.684h-358.5v84.748h-1.202c-12.883 28.6-30.287 54.712-51.222 77.527 60.425-17.388 355.25-103.537 410.924-145.64v-16.636" fill="#caa685"/><path d="M2323.452 2656.157V2537.32c-55.675 42.103-350.5 128.252-410.924 145.64-23.85 25.987-52.275 47.698-84.088 63.722 35.05 50.012-4.252 153.613 50.35 181.804l38.002 74.523 30.675 54.063 207.473 302.45 168.04-327.288 40.91-37.99 20.45-52.6 46.764-52.61c49.05-27.987-16.437-97.26 15.712-143.465-51.112-24.536-93.99-41.31-123.364-89.413" fill="#edcfad"/><path d="M1653.75 3856.76l40.5 1551.815h164.24s5.848-1053.213 277.41-1053.213v-557.077l-482.15 58.474" fill="#415885"/><path d="M816.834 3185.41l-41.44-37.203s11.843-98.3-58.675-117.936l-36.875-14.71s-26.078-35.664-45.1-22.35c-19.023 13.3-14.222 21.225-17.375 29.448 0 0-34.5-19.74-51.133-2.463-16.624 17.263-11.495 46.65-11.495 46.65s-27.556-2.3-35.72 12.578c-8.157 14.86-7.548 39.762-7.548 39.762s-11.4-3.94-21.42 9.335c-10.013 13.275 4.936 48.453 4.936 48.453s51.99 103.924 167.996 98.76l33.368-3.037 63.165 35.813 57.314-123.1" fill="#edcfad"/><path d="M1731.316 2713.82c80.313-22.822 142.587-36.8 142.587-36.8l172.576 102.19 86.634 8.687 20.94 1130.352h-516.54l-67.5-784.967c69.077-61.15 193.787-204.226 161.302-419.462" fill="#369970"/><path d="M1324.362 3412.612c101.304-36.44 235.392-191.63 305.288-285.017 51.338-68.596 109.228-132.975 111.503-141.334h.026c16.035-45.513 30.384-92.428 42.32-134.402 214.338-219.798-129.36-150.8-240.098-69.21-110.736 81.587-163.625 239.848-163.062 243.784-7.925 50.976-23.65 102.94-52.778 145.702-20.275 25.813-43.725 42.702-79.03 55.163-124.553 43.976-271.546 15.598-451.714-86.827l-97.01 170.65c122.074 69.403 239.274 112.19 348.34 127.19 98.283 13.523 191.215 4.875 276.214-25.698" fill="#369970"/><path d="M3440.703 3185.41l41.45-37.203s-11.848-98.3 58.674-117.936l36.865-14.71s26.087-35.664 45.114-22.35c19.01 13.3 14.212 21.225 17.36 29.448 0 0 34.514-19.74 51.138-2.463 16.624 17.263 11.5 46.65 11.5 46.65s27.55-2.3 35.714 12.578c8.163 14.86 7.55 39.762 7.55 39.762s11.4-3.94 21.425 9.335c10.012 13.275-4.938 48.453-4.938 48.453s-51.99 103.924-168 98.76l-33.363-3.037-63.16 35.813-57.33-123.1" fill="#edcfad"/><path d="M2611.076 3856.76l-39.873 1551.815h-164.226s-7.11-1053.213-278.673-1053.213v-557.077l482.772 58.474" fill="#506898"/><path d="M2526.225 2713.82c-80.308-22.822-142.582-36.8-142.582-36.8l-172.58 102.19-86.636 8.687-20.94 1130.352h516.54l67.5-784.967c-69.072-61.15-193.787-204.226-161.302-419.462" fill="#3ea879"/><path d="M2933.18 3412.612c-101.3-36.44-235.388-191.63-305.276-285.017-51.35-68.596-109.24-132.975-111.516-141.334h-.02c-16.04-45.513-30.39-92.428-42.328-134.402-214.337-219.798 129.363-150.8 240.103-69.21 110.745 81.587 163.62 239.848 163.07 243.784 7.913 50.976 23.642 102.94 52.766 145.702 20.275 25.813 43.724 42.702 79.034 55.163 124.553 43.976 271.54 15.598 451.717-86.827l97.01 170.65c-122.072 69.403-239.276 112.19-348.334 127.19-98.292 13.523-191.228 4.875-276.227-25.698" fill="#3ea879"/><path d="M1406.34 5728.237s-29.587 4.95-27.112 54.235c2.462 49.302 142.975 83.827 248.973 61.64 106.013-22.188 293.364-123.262 293.364-123.262s7.375-54.24-7.4-64.102c-14.788-9.863-507.823 71.49-507.823 71.49" fill="#bdc9b2"/><path d="M1697.9 5543.35s-42.585-7.402-106.675 34.512c-64.085 41.91-192.284 41.9-202.147 167.626 0 0 27.126 46.847 142.987 46.847 115.85 0 374.71-110.937 374.71-110.937s36.977-115.848-32.046-128.186l-176.83-9.863" fill="#2b3548"/><path d="M1854.113 5509.913s63.638 93.15-47.286 103c0 0-60.2-72.014-108.926-69.564v-57.014l154.628-31.723 1.585 55.3" fill="#dbb491"/><path d="M2874.752 5728.237s29.575 4.95 27.113 54.235c-2.463 49.302-142.975 83.827-248.974 61.64-106.014-22.188-293.36-123.262-293.36-123.262s-7.39-54.24 7.4-64.102c14.787-9.863 507.822 71.49 507.822 71.49" fill="#bdc9b2"/><path d="M2583.18 5543.35s42.585-7.402 106.683 34.512c64.09 41.91 192.29 41.9 202.152 167.626 0 0-27.126 46.847-142.988 46.847-115.86 0-374.71-110.937-374.71-110.937s-36.976-115.848 32.046-128.186l176.816-9.863" fill="#2b3548"/><path d="M2426.98 5509.913s-63.638 93.15 47.286 103c0 0 60.2-72.014 108.913-69.564v-57.014l-154.616-31.723-1.585 55.3" fill="#dbb491"/><path d="M1902.367 5468.536c0 17.877-14.503 32.375-32.388 32.375h-194.855c-17.885 0-32.387-14.497-32.387-32.374v-67.762c0-17.89 14.502-32.387 32.387-32.387h194.854c17.884 0 32.387 14.498 32.387 32.387v67.762M2616.03 5468.536c0 17.877-14.502 32.375-32.39 32.375h-194.85c-17.886 0-32.388-14.497-32.388-32.374v-67.762c0-17.89 14.502-32.387 32.387-32.387h194.85c17.888 0 32.39 14.498 32.39 32.387v67.762" fill="#5e7caf"/><path d="M2041.814 2781.32l130.202 7.94 152.437 17.472-66.688 181.016-33.35 255.65-96.537 291.888-173.402-649.166 87.338-104.8" fill="#fff"/><path d="M2121.402 2790.236v-.388l-.413.196-.414-.196v.388l-69.734 32.396 25.247 54.886h89.714l25.286-54.886-69.688-32.396M2076.327 2882.435h88.502l40.136 384.275-77.237 271.562-99.74-291.223 48.337-364.615" fill="#f36b73"/><path d="M2547.08 2035.046c-9.875 67.872 9.16 126.9 42.447 131.787 33.363 4.937 68.353-46.128 78.276-114.038 9.875-67.84-9.16-126.888-42.45-131.787-33.326-4.9-68.363 46.14-78.273 114.038" fill="#efd1ae"/><path d="M1716.664 2029.507c6.514 67-13.135 123.74-43.673 126.7-30.563 3-60.573-48.9-67.05-115.925-6.45-67 13.123-123.748 43.674-126.73 30.59-2.94 60.65 48.952 67.05 115.955" fill="#dbb591"/><path d="M2129.578 1525.26c-404.325-10.865-449.6 156.57-449.6 472.822 0 320.75 200.388 581.387 449.6 588.553 3.523.098 7 .337 10.498.337h.012V1525.09c-3.51.04-7.012.254-10.51.17" fill="#dbb591"/><path d="M2600.203 1998.082c0-325.2-195.527-473.206-449.702-473.206-3.47 0-6.948.127-10.412.213V2586.97c254.13-.013 460.115-263.65 460.115-588.89" fill="#efd1ae"/><path d="M1678.125 2034.884s-46.434-337.76-11.35-374.315c35.09-36.555 54.09-24.88 54.09-24.88s-43.865-67.23-29.24-97.905c14.627-30.718 141.8-248.552 523.365-200.282 381.55 48.228 402.012 402.012 402.012 402.012s-10.238 276.295-21.924 327.454l-20.476-2.924-40.925-336.248s-46.788 83.334-188.587 35.106c-141.8-48.228-314.302-276.287-575.99-121.336 0 0-40.924 51.167-42.385 74.557-1.462 23.39-43.866 274.834-26.313 340.62l-22.277-21.86" fill="#744c36"/><path d="M1771.94 1886.243c-6.775 0-13.29-3.792-16.476-10.268-4.448-9.075-.686-20.066 8.414-24.497 1.21-.597 30.462-14.74 79.086-23.006 44.39-7.54 114.515-11.46 196.536 12.483 9.714 2.854 15.29 13.036 12.453 22.75-2.837 9.714-13.015 15.295-22.724 12.44-143.84-42.05-248.217 7.712-249.252 8.223-2.59 1.278-5.338 1.875-8.04 1.875M2469.988 1886.243c-2.697 0-5.423-.597-8.01-1.832-.587-.298-27.023-12.823-70.624-20.066-40.29-6.646-103.988-10.054-178.65 11.802-9.715 2.854-19.89-2.727-22.726-12.44-2.838-9.715 2.726-19.897 12.436-22.75 82.025-23.945 152.164-20.025 196.55-12.484 48.627 8.265 77.875 22.41 79.09 23.006 9.087 4.43 12.85 15.422 8.4 24.497-3.178 6.476-9.688 10.268-16.466 10.268" fill="#744c36"/><path d="M2128.24 2191.194c0 19.103-22.363 34.59-49.95 34.59-27.59 0-49.952-15.487-49.952-34.59 0-19.1 22.363-34.574 49.953-34.574 27.587 0 49.95 15.474 49.95 34.574" fill="#dbb591"/><path d="M2257.79 2191.194c0 19.103-22.362 34.59-49.948 34.59-27.59 0-49.954-15.487-49.954-34.59 0-19.1 22.363-34.574 49.954-34.574 27.586 0 49.948 15.474 49.948 34.574" fill="#efd1ae"/><path d="M2091.716 2209.51c0 18.724 21.51 33.97 48.372 34.547v-69.113c-26.86.588-48.372 15.828-48.372 34.565" fill="#dbb591"/><path d="M2141.665 2174.92c-.537 0-1.048.024-1.577.024v69.113c.53.012 1.04.025 1.577.025 27.573 0 49.95-15.474 49.95-34.573 0-19.1-22.377-34.59-49.95-34.59" fill="#efd1ae"/><path d="M1980.916 2929.444l138.296-137.824-145.735 117.753 7.44 20.07M2123.025 2787.807l-1.96-1.197.3 2.872 1.66-1.675" fill="#d6d4d1"/><path d="M2121.066 2786.61l-198.152-121.464-21.8 48.863 72.363 195.363 145.735-117.753 2.152-2.138-.298-2.872" fill="#fff"/><path d="M2260.338 2929.444L2122.04 2791.62l145.737 117.753-7.44 20.07" fill="#d6d4d1"/><path d="M2120.188 2786.61l198.15-121.464 21.802 48.863-72.363 195.363-145.736-117.753-2.15-2.138.298-2.872" fill="#fff"/><path d="M1946.364 2677.646l181.314 860.524-206.314-497.9 37.513-56.263-103.162 7.814-30.862-309.002s85.56-41.12 121.51-5.172M2305.788 2666.995l-177.91 871.175 202.927-508.547-37.517-56.267 103.166 7.8 27.85-299.01s-82.562-51.1-118.516-15.15" fill="#c1bebb"/><path d="M2019.877 2347.082s1.227 5.176 4.252 13.002c6.696 17.387 22.323 48.735 53.21 70 16.56 11.4 37.5 19.963 63.826 21.897 26.334-1.933 47.274-10.445 63.838-21.833 30.884-21.264 46.498-52.69 53.212-70.075 3.025-7.827 4.248-12.99 4.248-12.99h-242.587" fill="#e96172"/><path d="M2032.692 2357.383c.022 0 .047-.2.085-.128 6.152 15.94 20.8 45.476 49.813 65.44 16.986 11.686 36.686 18.388 58.576 20.114 21.9-1.727 41.6-8.565 58.572-20.25 29.026-19.965 43.678-49.354 49.826-65.287.025-.077.064.11.09.11H2032.69zm108.474 103.924c-.226 0-.45-.013-.677-.025-25.5-1.888-48.51-9.786-68.415-23.488-33.124-22.797-49.684-56.284-56.608-74.212-3.203-8.3-4.55-13.76-4.6-13.987-.678-2.76-.052-5.338 1.712-7.575 1.758-2.236 4.447-3.186 7.297-3.186h242.587c2.85 0 5.54.95 7.302 3.186 1.75 2.237 2.386 4.99 1.713 7.75-.065.24-1.403 5.615-4.615 13.902-6.915 17.923-23.475 51.376-56.6 74.173-19.9 13.702-42.914 21.575-68.413 23.45-.226.025-.45.012-.686.012" fill="#efd1ae"/><path d="M2205.004 2430.16H2077.34c16.56 11.4 37.5 19.92 63.826 21.872 26.334-1.95 47.274-10.472 63.838-21.873M2019.877 2347.397s1.227 5.01 4.252 12.836c.936 2.45 2.06 5.164 3.373 8.087h227.335c1.316-2.923 2.44-5.637 3.378-8.087 3.025-7.826 4.248-12.836 4.248-12.836h-242.587" fill="#fff"/><path d="M2027.503 2368.32c8.027 17.902 23.287 43.562 49.838 61.84h127.664c26.547-18.278 41.812-43.938 49.834-61.84h-227.335" fill="#e96172"/><path d="M2007.54 1979.162s-42.665 40.62-95.302 40.62c-52.633 0-95.31-40.62-95.31-40.62s42.677-40.602 95.31-40.602c52.637 0 95.3 40.602 95.3 40.602M2465.242 1979.162s-42.676 40.62-95.314 40.62c-52.637 0-95.313-40.62-95.313-40.62s42.676-40.602 95.313-40.602c52.638 0 95.314 40.602 95.314 40.602" fill="#fff"/><path d="M1949.227 1978.992c0 21.378-17.31 38.68-38.663 38.68-21.35 0-38.664-17.302-38.664-38.68 0-21.345 17.315-38.642 38.664-38.642 21.353 0 38.663 17.297 38.663 38.642" fill="#1d1714"/><path d="M1932.59 1968.68c0 7.16-5.81 12.996-12.977 12.996-7.162 0-12.96-5.837-12.96-12.995 0-7.156 5.798-12.95 12.96-12.95 7.166 0 12.977 5.794 12.977 12.95" fill="#fff"/><path d="M2408.477 1978.992c0 21.378-17.31 38.68-38.66 38.68-21.352 0-38.662-17.302-38.662-38.68 0-21.345 17.31-38.642 38.663-38.642 21.35 0 38.66 17.297 38.66 38.642" fill="#1d1714"/><path d="M2391.84 1968.68c0 7.16-5.812 12.996-12.973 12.996-7.162 0-12.977-5.837-12.977-12.995 0-7.156 5.815-12.95 12.977-12.95 7.16 0 12.973 5.794 12.973 12.95" fill="#fff"/><path d="M140 2038.744h1322.5V438.742H140v1600.002z" fill="#f4f4f9"/><path d="M245 1938.73h1112.5v-1400H245v1400z" fill="#54c6c6"/><path d="M4779.998 2038.744h1322.5V438.742H4780v1600.002z" fill="#f4f4f9"/><path d="M4885.017 1938.73h1112.5v-1400h-1112.5v1400z" fill="#54c6c6"/><path d="M5144.56 2713.046c-57.6-79.188-156.398-119.338-293.626-119.338-155.462 0-264.954 41.338-325.41 122.853-.042.035-.085.086-.127.137 11.8-3.25 35.233-10.89 63.99-26.253 58.965-45.935 146.6-69.172 261.547-69.172 100.247 0 178 22.325 232.064 66.463 19.044 9.5 47.376 21.097 62.97 27.322-.47-.673-.94-1.35-1.407-2.01" fill="#100f0d"/><path d="M5022.202 2542.06H4658.28v86.038h-1.237c-13.08 29.02-30.717 55.52-51.977 78.685 61.35-17.638 360.643-105.1 417.136-147.827v-16.897" fill="#caa685"/><path d="M5022.202 2679.585v-120.63c-56.493 42.728-355.786 130.19-417.136 147.828-24.2 26.39-53.084 48.428-85.378 64.698 35.574 50.768-4.303 155.94 51.125 184.553l38.556 75.652 31.143 54.874 210.634 307.038 170.586-332.252 41.54-38.56 20.748-53.4 47.46-53.4c49.805-28.417-16.657-98.74 15.935-145.638-51.85-24.915-95.39-41.926-125.213-90.763" fill="#eed0ae"/><path d="M4355.364 3891.898l40.73 1555.187h164.58s5.452-1055.49 277.692-1055.49v-558.273l-483.002 58.576" fill="#415885"/><path d="M5314.934 3891.898l-39.962 1555.187h-164.58s-7.03-1055.49-279.27-1055.49v-558.273l483.812 58.576" fill="#4f6899"/><path d="M5087.003 2709.608l-172.972 102.415-86.826 8.65-16.53 1868.7 610.855-24.65-76.432-1562.153c-25.05-83.112-25.818-191.024-45.63-330.288-111.707-35.2-212.465-62.674-212.465-62.674" fill="#fff"/><path d="M3853.004 3206.622c36.524-101.526 105.287-192.213 198.875-262.262 68.75-51.45 220.023-153.15 228.416-155.44v-.022c132.84-46.813 277.565-79.29 277.565-79.29l172.973 102.415 113.753 27.66-34.34 1850.504H4292.61l42.22-1553.653c-4.09-.737-55.47-16.424-59.433-16.974-51.09 7.937-138.532 54.648-181.39 83.836-25.88 20.327-42.8 43.836-55.288 79.214-44.067 124.834-15.63 272.15 87.01 452.697l-171.026 97.227c-69.547-122.337-112.424-239.788-127.463-349.084-13.547-98.5-4.873-191.642 25.764-276.828" fill="#f0f2f2"/><path d="M5566.468 3734.362l-26.286 49.246s-98.5 12.04-100.674 85.378l-5.496 39.4s-28.46 33.92-10.95 49.25c17.51 15.325 24.072 8.75 32.85 9.838 0 0-10.95 38.31 9.84 50.35 20.79 12.035 48.143 0 48.143 0s4.388 27.36 20.79 31.748c16.446 4.375 40.517-2.186 40.517-2.186s-1.065 12.036 14.23 18.597c15.337 6.565 45.97-16.41 45.97-16.41s88.658-75.513 55.81-187.16l-10.948-31.74 19.725-70.05-133.522-26.26" fill="#eed0ae"/><path d="M4107.554 5767.476s-29.635 4.963-27.173 54.362c2.476 49.4 143.3 83.998 249.507 61.76 106.255-22.236 294.01-123.523 294.01-123.523s7.413-54.362-7.413-64.238c-14.783-9.888-508.93 71.64-508.93 71.64" fill="#bfcbb2"/><path d="M4399.758 5582.187s-42.69-7.426-106.894 34.59c-64.247 42-192.723 41.986-202.6 167.996 0 0 27.178 46.95 143.29 46.95 116.1 0 375.517-111.184 375.517-111.184s37.067-116.106-32.122-128.465l-177.19-9.888" fill="#4f5052"/><path d="M4556.285 5548.674s63.82 93.35-47.376 103.213c0 0-60.328-72.163-109.152-69.7v-57.124l154.993-31.812 1.535 55.424" fill="#dbb591"/><path d="M5579.164 5767.476s29.653 4.963 27.182 54.362c-2.47 49.4-143.278 83.998-249.532 61.76-106.212-22.236-293.968-123.523-293.968-123.523s-7.413-54.362 7.413-64.238c14.783-9.888 508.904 71.64 508.904 71.64" fill="#bfcbb2"/><path d="M5286.986 5582.187s42.69-7.426 106.893 34.59c64.246 42 192.697 41.986 202.58 167.996 0 0-27.18 46.95-143.276 46.95S5077.63 5720.54 5077.63 5720.54s-37.023-116.106 32.123-128.465l177.233-9.888" fill="#4f5052"/><path d="M5130.416 5548.674s-63.778 93.35 47.42 103.213c0 0 60.326-72.163 109.15-69.7v-57.124l-154.993-31.812-1.577 55.424" fill="#dbb591"/><path d="M5247.535 2050.456c-9.97 68.45 9.202 127.978 42.774 132.903 33.656 4.97 68.975-46.516 78.944-114.99 9.97-68.44-9.245-127.978-42.817-132.92-33.572-4.942-68.933 46.524-78.902 115.006" fill="#eed0ae"/><path d="M4410.11 2044.87c6.604 67.574-13.25 124.787-44.01 127.774-30.845 3.025-61.094-49.31-67.612-116.9-6.518-67.593 13.207-124.767 44.01-127.792 30.845-2.982 61.18 49.335 67.612 116.918" fill="#dbb591"/><path d="M4826.522 1536.38c-407.72-10.993-453.392 157.932-453.392 476.814 0 323.454 202.07 586.278 453.392 593.49 3.536.112 7.072.35 10.566.35V1536.208c-3.494.043-7.03.256-10.566.17" fill="#dbb591"/><path d="M5301.088 2013.194c0-327.957-197.17-477.2-453.477-477.2-3.493 0-6.986.13-10.522.214v1070.826c256.305-.013 464-265.874 464-593.84" fill="#eed0ae"/><path d="M4371.256 2050.294s-46.822-340.602-11.418-377.455c35.36-36.853 54.533-25.052 54.533-25.052s-44.222-67.825-29.48-98.8c14.74-30.93 142.978-250.595 527.735-201.942 384.8 48.654 405.42 405.378 405.42 405.378s-10.31 278.634-22.112 330.236l-20.62-2.953-41.326-339.042s-47.163 84.015-190.142 35.36c-143.022-48.653-316.974-278.63-580.82-122.358 0 0-41.284 51.594-42.775 75.197-1.448 23.56-44.223 277.13-26.542 343.48l-22.452-22.05" fill="#754b36"/><path d="M4465.836 1900.387c-6.816 0-13.377-3.792-16.572-10.31-4.516-9.202-.725-20.237 8.478-24.753 1.193-.596 30.717-14.826 79.754-23.176 44.735-7.584 115.457-11.59 198.194 12.61 9.8 2.855 15.423 13.122 12.526 22.92-2.855 9.758-13.122 15.424-22.88 12.527-145.065-42.39-250.297 7.796-251.362 8.308-2.6 1.278-5.368 1.874-8.138 1.874M5169.782 1900.387c-2.726 0-5.453-.554-8.052-1.832-.596-.298-27.266-12.95-71.234-20.237-40.644-6.73-104.848-10.097-180.172 11.887-9.8 2.897-20.024-2.77-22.92-12.526-2.855-9.8 2.768-20.067 12.567-22.922 82.696-24.2 153.418-20.194 198.195-12.61 49.037 8.35 78.52 22.58 79.755 23.176 9.16 4.516 12.95 15.55 8.478 24.753-3.195 6.518-9.8 10.31-16.616 10.31M5282.087 2059.42c-63.65 211.51-180.088 265.1-233.343 278.676-3.877-11.588-20.236-51.976-88.403-68.076-28.63-8.325-61.945-14.626-87.21-14.673-7.327-.24-14.91-.53-22.835-.53h-27.948c-8.01 0-15.68.29-23.05.542-24.71.06-57.003 6.237-85.037 14.11-69.7 15.95-86.443 56.748-90.363 68.503-53.382-13.702-169.52-67.49-233.044-278.58l-19.3-9.112s35.192 579.577 462.68 584.677v.128s1.577-.05 2.514-.064c.213.014-.17.014.043.014.724.025 1.576.05 1.576.05v-.127c427.488-5.1 462.85-584.663 462.85-584.663l-19.13 9.125" fill="#754b36"/><path d="M4825.16 2207.933c0 19.248-22.54 34.875-50.36 34.875s-50.357-15.627-50.357-34.875c0-19.262 22.537-34.876 50.358-34.876 27.82 0 50.36 15.614 50.36 34.876" fill="#dbb591"/><path d="M4955.825 2207.933c0 19.248-22.58 34.875-50.4 34.875s-50.358-15.627-50.358-34.875c0-19.262 22.537-34.876 50.358-34.876 27.82 0 50.4 15.614 50.4 34.876" fill="#eed0ae"/><path d="M4788.35 2226.385c0 18.9 21.684 34.262 48.738 34.845v-69.687c-27.054.588-48.74 15.95-48.74 34.842" fill="#dbb591"/><path d="M4838.707 2191.522c-.554 0-1.065.012-1.62.02v69.688c.555.017 1.066.026 1.62.026 27.82 0 50.358-15.61 50.358-34.87 0-19.254-22.538-34.864-50.358-34.864" fill="#eed0ae"/><path d="M4604.427 5506.76c0 17.928-14.528 32.452-32.42 32.452H4377.09c-17.936 0-32.464-14.524-32.464-32.452v-67.587c0-17.923 14.528-32.45 32.464-32.45h194.914c17.893 0 32.42 14.527 32.42 32.45v67.587" fill="#415885"/><path d="M5319.706 5506.76c0 17.928-14.528 32.452-32.464 32.452h-194.914c-17.893 0-32.42-14.524-32.42-32.452v-67.587c0-17.923 14.527-32.45 32.42-32.45h194.914c17.936 0 32.464 14.527 32.464 32.45v67.587" fill="#4f6899"/><path d="M4744.424 2814.132l130.496 7.963 152.778 17.502-66.846 181.412-33.444 256.21-96.753 292.515-173.782-650.575 87.55-105.028" fill="#efefee"/><path d="M4824.18 2823.07v-.387l-.427.187-.384-.187v.388l-69.914 32.465 25.307 55.01h89.937l25.307-55.01-69.828-32.464M4779.018 2915.47h88.66l40.26 385.115-77.41 272.15-99.95-291.863 48.44-365.402" fill="#f36b73"/><path d="M4674.51 2920.544l5.923 58.49 143.746-156.35 138.504 143.638 21.175-28.826-158.062-116.85-151.287 99.898" fill="#c2bfbc"/><path d="M4625.26 2697.708l-21.855 48.974 79.968 215.904 142.425-141.94-200.537-122.938" fill="#fff"/><path d="M5027.826 2686.746l20.322 58.61-85.634 208.764-141.318-133.474 206.63-133.9" fill="#fff"/><path d="M4715.752 2360.157s1.278 5.325 4.388 13.377c6.902 17.886 22.963 50.162 54.746 72.048 17.084 11.725 38.6 20.54 65.738 22.55 27.096-2.01 48.654-10.76 65.695-22.486 31.782-21.89 47.844-54.226 54.745-72.124 3.11-8.052 4.39-13.365 4.39-13.365H4715.75" fill="#e96072"/><path d="M4728.96 2370.757c.04 0 .04-.213.084-.137 6.305 16.4 21.43 46.8 51.295 67.366 17.467 12.023 37.746 18.92 60.284 20.697 22.537-1.777 42.817-8.81 60.285-20.838 29.864-20.56 44.946-50.8 51.25-67.2.044-.09.086.112.13.112h-223.33zm111.664 106.953c-.256 0-.47 0-.724-.026-26.244-1.938-49.932-10.063-70.425-24.165-34.083-23.463-51.125-57.938-58.24-76.385-3.323-8.538-4.686-14.166-4.73-14.4-.723-2.838-.084-5.488 1.748-7.79 1.832-2.312 4.56-3.288 7.5-3.288h249.7c2.94 0 5.71.976 7.5 3.29 1.83 2.3 2.47 5.125 1.788 7.975-.084.234-1.447 5.773-4.728 14.298-7.157 18.464-24.2 52.888-58.282 76.35-20.493 14.098-44.18 22.2-70.424 24.14-.213.025-.47 0-.682 0" fill="#efd1ae"/><path d="M4906.32 2445.66h-131.434c17.084 11.736 38.6 20.513 65.738 22.51 27.096-1.997 48.654-10.774 65.695-22.51M4715.752 2360.472s1.278 5.16 4.388 13.224c.98 2.514 2.13 5.313 3.493 8.312h233.98c1.322-3 2.472-5.798 3.452-8.312 3.11-8.065 4.39-13.224 4.39-13.224H4715.75" fill="#fff"/><path d="M4723.633 2382.008c8.223 18.422 23.944 44.837 51.253 63.65h131.433c27.308-18.813 43.03-45.228 51.294-63.65h-233.98" fill="#e96072"/><path d="M4700.2 1993.647s-42.05 40.035-93.94 40.035c-51.85 0-93.943-40.035-93.943-40.035s42.093-40.047 93.942-40.047c51.89 0 93.94 40.047 93.94 40.047M5163.946 1994.798s-42.05 40.035-93.942 40.035c-51.85 0-93.942-40.035-93.942-40.035s42.093-40.048 93.942-40.048c51.89 0 93.942 40.048 93.942 40.048" fill="#fff"/><path d="M4644.645 1993.958c0 21.537-17.467 38.987-38.982 38.987-21.558 0-38.983-17.45-38.983-38.987 0-21.527 17.425-38.995 38.983-38.995 21.515 0 38.982 17.468 38.982 38.995" fill="#1d1714"/><path d="M4627.86 1983.55c0 7.222-5.837 13.084-13.08 13.084s-13.08-5.862-13.08-13.084c0-7.2 5.837-13.08 13.08-13.08s13.08 5.88 13.08 13.08" fill="#fff"/><path d="M5107.75 1993.958c0 21.537-17.424 38.987-38.982 38.987-21.515 0-38.982-17.45-38.982-38.987 0-21.527 17.467-38.995 38.982-38.995 21.558 0 38.983 17.468 38.983 38.995" fill="#1d1714"/><path d="M5090.965 1983.55c0 7.222-5.837 13.084-13.08 13.084-7.2 0-13.08-5.862-13.08-13.084 0-7.2 5.88-13.08 13.08-13.08 7.243 0 13.08 5.88 13.08 13.08" fill="#fff"/><path d="M4591.05 2750.584l-62.287-33.103 20.577 313.443 95.178-9.126-29.994 53.45 216.13 497.39-239.604-822.053" fill="#d4d4d2"/><path d="M4648.778 2710.234l181.706 862.403-206.757-498.99 37.577-56.387-103.4 7.84-29.14-305.63s83.97-45.262 120.014-9.236" fill="#f0f2f2"/><path d="M5080.016 2753.196l46.95-32.6-18.235 301.2-96.497-5.227 33.913 48.253-215.49 504.912 129.43-584.45 119.93-232.09" fill="#d4d4d2"/><path d="M5008.995 2699.557l-178.34 873.08 203.39-509.668-37.618-56.387 103.4 7.84 27.905-299.677s-82.737-51.21-118.737-15.19" fill="#fff"/><path d="M4473.676 2895.408c1.022 52.075 12.312 89.9 12.78 91.488l26.373-7.963c-.427-1.423-41.753-143 34.934-246.123 11.716-15.79 25.648-29.9 41.624-42.366-28.758 15.363-52.19 23.002-63.99 26.253-35.192 47.486-53.086 109.275-51.722 178.71M5151.25 3071.656l13.122 4.24-13.122-4.24" fill="#100f0d"/><path d="M4504.564 3529.683c-66.93-3.56-74.856-46.55-75.154-48.372l-44.947-268.84 20.407-3.41 44.947 268.838c.17 1.01 6.263 28.473 55.854 31.114l-1.106 20.67M4659.557 3490.697c62.117-25.137 55.64-68.376 55.342-70.2l-44.948-268.84-20.45 3.414 44.948 268.84c.17 1.023 3.323 28.976-42.69 47.585l7.797 19.202" fill="#b1b0b0"/><path d="M4522.116 3496.687c19.64 3.91 33.53 17.386 31.016 30.112-2.556 12.72-20.535 19.86-40.175 15.96-19.684-3.912-33.572-17.388-31.016-30.114 2.514-12.713 20.536-19.862 40.176-15.96M4632.077 3478.307c-17.34 10.09-26.073 27.352-19.555 38.553 6.56 11.213 25.903 12.112 43.2 2.023 17.298-10.084 26.074-27.347 19.556-38.56-6.56-11.2-25.903-12.113-43.2-2.016M4378.797 3219.948c-.384-2.377-9.672-58.99-2.13-119.415 10.523-84.534 48.91-134.7 111.025-145.088 147.24-24.625 187.117 203.4 188.736 213.114l-30.632 5.137c-.34-2.075-36.256-207.15-152.99-187.628-47.845 8-76.56 47.8-85.337 118.302-6.945 55.973 1.874 109.927 1.96 110.464l-30.633 5.112" fill="#262323"/><path d="M5829.292 3212.18c-36.554-101.52-105.317-192.21-198.875-262.26-68.763-51.462-220.05-153.162-228.4-155.437v-.038c-53.127-18.712-113.54-27.01-160.447-39.988-123.253 222.563 26.628 351.116 106.382 405.44l-.51-17.812c4.09-.74 55.47-16.41 59.432-16.973 51.082 7.932 138.548 54.66 181.407 83.85 25.862 20.308 42.776 43.82 55.3 79.2 44.054 124.833 15.595 272.15-87.04 452.71l171.014 97.226c69.572-122.337 112.432-239.8 127.47-349.1 13.55-98.502 4.9-191.638-25.732-276.817" fill="#fff"/><path d="M5145.967 2715.057c-15.593-6.225-43.925-17.822-62.97-27.322 14.87 12.16 27.95 25.97 39.24 41.436 49.59 68.087 54.958 157.065 50.783 219.714-4.644 68.925-21.557 122.15-21.77 122.772l13.122 4.24 13.08 4.24c.766-2.264 18.063-56.464 23.005-128.678 6.52-95.56-12.312-177.224-54.49-236.4" fill="#100f0d"/><path d="M5250.773 3075.836c0 46.362-37.577 83.947-83.93 83.947-46.353 0-83.93-37.585-83.93-83.947s37.577-83.95 83.93-83.95c46.353 0 83.93 37.588 83.93 83.95" fill="#e7e7e5"/><path d="M5166.843 2997.91c-42.988 0-77.923 34.964-77.923 77.926s34.935 77.923 77.923 77.923c42.945 0 77.922-34.962 77.922-77.924s-34.977-77.927-77.922-77.927zm0 167.897c-49.59 0-89.98-40.363-89.98-89.97 0-49.614 40.39-89.977 89.98-89.977s89.98 40.363 89.98 89.976c0 49.608-40.39 89.97-89.98 89.97" fill="#100f0d"/><path d="M5227.553 3075.836c0 33.525-27.18 60.698-60.71 60.698s-60.71-27.173-60.71-60.698c0-33.53 27.18-60.702 60.71-60.702s60.71 27.172 60.71 60.702" fill="#b1b0b0"/><path d="M1231.25 5762.5c0 14.498-11.75 26.252-26.247 26.252h-41.253c-14.494 0-26.25-11.754-26.25-26.253V3530c0-14.504 11.756-26.254 26.25-26.254h41.253c14.498 0 26.248 11.75 26.248 26.253v2232.5M3137.503 5762.5c0 14.498-11.75 26.252-26.248 26.252h-41.253c-14.5 0-26.25-11.754-26.25-26.253V3530c0-14.504 11.75-26.254 26.25-26.254h41.253c14.498 0 26.248 11.75 26.248 26.253v2232.5" fill="#9ca5a7"/><path d="M3250.004 3659.374c0-41.078-33.3-74.378-74.374-74.378H1108.122c-41.075 0-74.37 33.3-74.37 74.378 0 41.075 33.295 74.374 74.37 74.374H3175.63c41.074 0 72.75-33.3 72.75-74.374h1.624" fill="#9ca5a7"/><path d="M2806.828 2814.997h-1356.54c-12.037 0-21.537 9.56-21.537 21.55v1467.15c0 12 9.5 22.55 21.537 22.55h1356.54c12.037 0 21.925-10.55 21.925-22.55v-1467.15c0-11.99-9.888-21.55-21.924-21.55" fill="#314451"/><path d="M1350.628 5846.25h-3.276c-19.726-71.515-85.187-124.024-162.978-124.024-77.786 0-143.243 52.51-162.97 124.023h-3.28c-7.936 0-14.374 6.436-14.374 14.375 0 7.938 6.438 14.375 14.375 14.375h332.503c7.937 0 14.374-6.437 14.374-14.375 0-7.94-6.437-14.376-14.374-14.376M3256.88 5846.25h-3.276c-19.726-71.515-85.187-124.024-162.974-124.024-77.79 0-143.25 52.51-162.977 124.023h-3.276c-7.937 0-14.375 6.436-14.375 14.375 0 7.938 6.438 14.375 14.375 14.375h332.503c7.937 0 14.374-6.437 14.374-14.375 0-7.94-6.437-14.376-14.374-14.376" fill="#9ca5a7"/><path d="M4290.65 4566.175l-407.832-388.804 492.485-516.56 407.805 388.8-492.46 516.565" fill="#2a5f6c"/><path d="M4295.08 4518.522l-364.878-347.887 440.628-462.19 364.903 347.892-440.653 462.185" fill="#fff"/><path d="M4288.817 3910.508l-27.18-25.925 25.902-27.185 27.18 25.924-25.903 27.186M4541.714 4151.608l-225.758-215.235 25.903-27.173 225.757 215.235-25.903 27.173M4239.567 3962.148l-27.173-25.924 25.912-27.177 27.206 25.91-25.945 27.19M4464.005 4176.122l-197.3-188.1 25.904-27.186 197.34 188.1-25.945 27.186M4190.342 4013.797l-27.186-25.925 25.912-27.185 27.2 25.92-25.926 27.19M4396.01 4209.886l-178.53-170.228 25.912-27.186 178.52 170.224-25.903 27.19M4141.105 4065.433l-27.186-25.924 25.91-27.174 27.2 25.924-25.925 27.173M4399.8 4312.06l-231.557-220.75 25.912-27.19 231.55 220.753-25.905 27.186M4091.867 4117.086l-27.173-25.924 25.912-27.19 27.186 25.924-25.925 27.19M4350.55 4363.7l-231.544-220.753 25.912-27.173 231.535 220.736-25.903 27.19" fill="#2d4453"/><path d="M4496.51 3980.136l-18.446-18.09-18.107 18.452-16.02-15.738 18.065-18.44-18.447-18.072 15.72-16.053 18.448 18.077 18.064-18.44 16.062 15.74-18.065 18.438 18.447 18.09-15.72 16.036zm20.45-73.812c-22.025-21.575-57.344-21.225-78.9.784-21.602 22.014-21.26 57.354.766 78.928 21.983 21.575 57.345 21.213 78.902-.788 21.6-22.013 21.26-57.35-.767-78.924" fill="#dc333e"/><path d="M4667.055 3913.01l-76.9-69.062-72.682-73.552s-19.77 28.004-53.767 39.09l80.522 76.76 5.837 5.563 81.842 78.01c9.415-34.495 35.148-56.81 35.148-56.81" fill="#304c52"/><path d="M4634.634 3969.335c-4.602 4.823-12.228 5.023-17.085.426l-154.568-147.387c-4.814-4.6-5.027-12.236-.426-17.063 4.6-4.827 12.27-5.002 17.084-.4l154.567 147.375c4.857 4.602 5.028 12.236.427 17.05M4669.1 3916.524c-4.132 4.35-11.034 4.51-15.38.362l-139.656-133.125c-4.345-4.153-4.516-11.063-.383-15.413 4.176-4.363 11.078-4.525 15.423-.362l139.656 133.124c4.345 4.162 4.515 11.05.34 15.414" fill="#2d4453"/><path d="M4598.974 3833.47c-9.63-9.197-10.012-24.475-.81-34.112 9.203-9.65 24.455-10.012 34.084-.81 9.67 9.186 10.012 24.46.852 34.11-9.203 9.628-24.498 10.003-34.126.813zm47.716 39.95c23.646-24.824 22.708-64.148-2.087-87.81-24.838-23.675-64.162-22.725-87.807 2.1l-12.653 13.25 89.894 85.71 12.653-13.25" fill="#2d4453"/><path d="M4240.768 3908.386l-5.487-39.4c-2.19-73.34-100.69-85.378-100.69-85.378l-20.663-38.75-124.037 69.403 4.614 16.412-10.95 31.74c-32.838 111.648 55.825 187.16 55.825 187.16s30.636 22.976 45.964 16.41c15.32-6.56 14.222-18.596 14.222-18.596s24.088 6.56 40.5 2.186c16.427-4.39 20.803-31.75 20.803-31.75s27.36 12.037 48.145 0c20.79-12.04 9.863-50.348 9.863-50.348 8.75-1.087 15.312 5.487 32.827-9.838 17.514-15.33-10.937-49.25-10.937-49.25" fill="#eed0ae"/><path d="M2198.026 2791.16h-112.65c-17.45 0-31.586-15.013-31.586-33.525 0-18.524 14.136-33.525 31.586-33.525h112.65c17.45 0 31.59 15 31.59 33.525 0 18.512-14.14 33.525-31.59 33.525" fill="#598a9a"/><path d="M2141.703 4316.247c-17.438 0-31.587-15.014-31.587-33.525V2695.195c0-18.512 14.15-33.525 31.587-33.525 17.438 0 31.574 15.013 31.574 33.525v1587.527c0 18.51-14.136 33.525-31.574 33.525" fill="#598a9a"/><path d="M2141.678 2962.134c-17.012 0-31.037-14.362-31.54-32.524-.524-18.515 13.203-33.964 30.628-34.513 138.488-4.35 274.276-28.464 295.71-52.126-.26-3.335-1.41-5.81-3.796-8.447-14.038-15.525-55.94-22.142-80.138-21.754h-.516c-17.212 0-31.288-14.648-31.56-32.985-.273-18.512 13.624-33.764 31.075-34.053 8.875-.086 88.2-.222 126.7 42.365 15.214 16.824 22.59 38.148 21.324 61.686-2.71 50.375-60.136 79.738-192 98.19-81.76 11.447-161.575 14.046-164.936 14.15-.31.01-.627.01-.95.01" fill="#598a9a"/><path d="M2141.678 3099.383c-16.974 0-31-14.31-31.54-32.45-.563-18.5 13.126-33.987 30.55-34.575.892-.038 89.576-3.16 178.427-17.135 153.276-24.114 165.252-57.502 165.3-57.826.962-6.127-.602-8.074-1.752-9.5-10.574-13.174-48.12-20.076-71.634-20.076-.304 0-.564.014-.892 0-17.335 0-31.47-14.838-31.608-33.273-.128-18.486 13.838-33.6 31.26-33.776 14.165-.135 86.864 1.3 120.888 43.538 14.302 17.774 19.85 39.95 16.036 64.15-8.798 55.904-76.3 90.8-218.823 113.163-92.41 14.5-181.45 17.627-185.186 17.75-.34.013-.677.013-1.026.013" fill="#598a9a"/><path d="M2141.678 3239.107c-16.974 0-31-14.323-31.54-32.46-.563-18.498 13.126-33.99 30.55-34.577.926-.026 92.8-3.272 184.877-17.75 162.15-25.498 172.086-60.51 172.137-60.86 1-6.364-.473-8.826-2.062-10.812-11.673-14.55-51.338-21.2-75.026-21.2h-.937c-17.335 0-31.488-14.838-31.612-33.278-.136-18.485 13.838-33.597 31.25-33.772 14.588-.14 89.426 1.325 124.327 44.662 14.583 18.124 20.25 40.76 16.36 65.46-9.024 57.3-78.62 93.138-225.66 116.204-95.638 14.996-187.765 18.234-191.638 18.362-.34.013-.677.02-1.026.02" fill="#598a9a"/><path d="M2141.678 3384.86c-16.974 0-31-14.328-31.54-32.465-.563-18.498 13.126-33.972 30.55-34.573 1.028-.025 103.563-3.65 206.35-19.815 186.204-29.273 194.802-70.548 194.866-70.974 1.397-8.823-1.027-11.673-2.476-13.386-13.424-15.79-59.25-20.527-86.05-18.724-17.31 1.184-32.4-12.854-33.526-31.314-1.112-18.453 12.04-34.387 29.414-35.6 16.125-1.126 98.513-4.487 136.976 40.634 15.96 18.712 22.17 42.74 17.962 69.453-9.612 61.1-88.553 101.236-248.4 126.313-106.35 16.688-208.788 20.288-213.1 20.437-.34 0-.677.013-1.026.013" fill="#598a9a"/><path d="M2411.365 3485.158c-152.224 0-277.352-77.837-283.414-81.676-14.983-9.47-19.896-30.05-10.974-45.96 8.925-15.888 28.302-21.1 43.264-11.662 1.538.963 155.364 96.136 316.203 66.437 70.748-13.063 96.557-40.086 97.124-61.014.51-19.022-17.263-39.025-39.613-44.563-16.986-4.21-27.54-22.248-23.564-40.274 3.962-18.026 20.927-29.26 37.938-25.013 51.764 12.837 89.75 60.89 88.374 111.776-.8 29.473-16.948 100.69-149.438 125.148-25.75 4.75-51.184 6.8-75.9 6.8" fill="#598a9a"/><path d="M2467.79 3588.31c-156.502 0-249.736-98.99-253.788-103.378-12.197-13.224-11.997-34.45.452-47.41 12.436-12.926 32.374-12.738 44.598.4 1.4 1.5 86.575 90.1 225.064 82.913 70.386-3.652 93.06-25.55 95.21-36.627 1.952-10-7.75-26.747-29.536-38.1-15.66-8.147-22.125-28.234-14.44-44.863 7.69-16.61 26.59-23.483 42.264-15.337 46.35 24.14 71.89 69.086 63.574 111.865-6.024 30.96-34.036 83.823-153.996 90.035-6.566.34-13.05.503-19.402.503M2141.716 2962.134c-.315 0-.626 0-.95-.012-3.353-.103-83.176-2.702-164.925-14.15-131.875-18.45-189.288-47.814-192.002-98.19-1.26-23.525 6.1-44.86 21.315-61.685 38.514-42.587 117.774-42.45 126.713-42.365 17.437.29 31.348 15.54 31.075 34.053-.276 18.337-14.36 32.984-31.577 32.984h-.51c-24.69-.35-66.14 6.228-80.152 21.774-2.372 2.64-3.523 5.112-3.787 8.427 21.44 23.663 157.226 47.777 295.715 52.127 17.437.55 31.152 15.998 30.636 34.513-.498 18.162-14.536 32.524-31.548 32.524" fill="#598a9a"/><path d="M2141.716 3099.383c-.34 0-.673 0-1.014-.013-3.75-.123-92.775-3.25-185.187-17.75-142.54-22.36-210.025-57.258-218.827-113.163-3.81-24.2 1.738-46.375 16.04-64.15 34.01-42.237 106.685-43.66 120.885-43.536 17.438.176 31.45 15.326 31.29 33.85-.176 18.51-14.55 33.227-31.886 33.2-23.552-.387-61.614 6.762-72.29 20.076-1.138 1.427-2.71 3.374-1.74 9.5.052.325 12.015 33.713 165.292 57.827 88.862 13.974 177.534 17.097 178.424 17.135 17.434.588 31.114 16.075 30.56 34.574-.537 18.14-14.575 32.45-31.548 32.45" fill="#598a9a"/><path d="M2141.716 3239.107c-.34 0-.673-.008-1.014-.02-3.886-.13-96-3.367-191.637-18.363-147.052-23.066-216.637-58.905-225.665-116.203-3.886-24.7 1.764-47.336 16.364-65.46 34.9-43.35 109.676-44.738 124.327-44.662 17.44.175 31.45 15.325 31.277 33.85-.166 18.4-14.277 33.2-31.578 33.2h-1.062c-23.628 0-63.3 6.65-74.966 21.2-1.598 1.986-3.06 4.448-2.062 10.813.05.35 10.016 35.422 172.59 60.938 92.074 14.434 183.498 17.646 184.414 17.672 17.434.588 31.114 16.066 30.56 34.577-.537 18.137-14.575 32.46-31.548 32.46" fill="#598a9a"/><path d="M2141.716 3384.86c-.34 0-.673-.013-1.014-.013-4.312-.15-106.76-3.75-213.1-20.437-159.85-25.077-238.788-65.214-248.412-126.313-4.2-26.712 2.01-50.74 17.962-69.453 38.463-45.12 120.876-41.76 136.99-40.635 17.398 1.213 30.57 17.172 29.42 35.65-1.137 18.486-16.133 32.472-33.584 31.25-26.713-1.75-72.576 2.935-86 18.737-1.453 1.713-3.877 4.563-2.488 13.386.076.426 8.674 41.7 194.875 70.974 102.786 16.164 205.313 19.79 206.34 19.815 17.433.6 31.113 16.075 30.56 34.573-.538 18.137-14.576 32.465-31.55 32.465" fill="#598a9a"/><path d="M1872.028 3485.158c-24.727 0-50.128-2.05-75.89-6.8-132.486-24.46-148.65-95.675-149.447-125.15-1.375-50.885 36.624-98.938 88.375-111.775 17-4.222 33.977 6.975 37.952 25.013 3.957 18.026-6.59 36.064-23.577 40.274-22.35 5.538-40.112 25.54-39.6 44.563.55 20.928 26.375 47.95 97.123 61.014 160.814 29.686 314.652-65.474 316.203-66.437 15-9.424 34.36-4.188 43.26 11.712 8.9 15.912 4 36.452-10.975 45.91-6.074 3.84-131.21 81.676-283.422 81.676" fill="#598a9a"/><path d="M1815.604 3588.31c-6.365 0-12.83-.16-19.39-.502-119.96-6.212-147.976-59.075-154-90.035-8.325-42.78 17.225-87.726 63.573-111.865 15.666-8.146 34.59-1.287 42.264 15.337 7.678 16.63 1.215 36.716-14.446 44.862-21.792 11.354-31.476 28.102-29.53 38.1 2.152 11.078 24.826 32.976 95.216 36.628 140.25 7.298 224.15-81.924 224.988-82.827 12.21-13.224 32.2-13.45 44.662-.485 12.46 12.96 12.662 34.185.45 47.41-4.038 4.387-97.302 103.378-253.786 103.378M2431.555 4139.25c-40.89 0-74.03-33.15-74.03-74.03 0-40.883 33.14-74.024 74.03-74.024 40.874 0 74.025 33.14 74.025 74.024 0 40.88-33.15 74.03-74.025 74.03zm-189.64 172.97c-26.013 0-47.115-21.084-47.115-47.11 0-26.01 21.102-47.1 47.116-47.1 26.01 0 47.1 21.09 47.1 47.1 0 26.026-21.09 47.11-47.1 47.11zm-222.2 0c-26.014 0-47.11-21.084-47.11-47.11 0-26.01 21.096-47.1 47.11-47.1s47.1 21.09 47.1 47.1c0 26.026-21.086 47.11-47.1 47.11zm-184.96-172.97c-40.892 0-74.03-33.15-74.03-74.03 0-40.883 33.138-74.024 74.03-74.024 40.873 0 74.01 33.14 74.01 74.024 0 40.88-33.137 74.03-74.01 74.03zm631.6-198.655c-9.817 0-19.34 1.227-28.465 3.476-18.187-.446-41.475 2.515-70.364 12.442-86.137 29.61-227.45 104.984-227.45 104.984l-259.76-111.712s-40.616-9.55-78.478-9.164c-.22 0-.434-.025-.647-.025-2.55 0-5.074.115-7.587.277-15.815.813-30.55 3.702-40.9 10.114-41.224 18.524-69.952 59.922-69.952 108.048 0 57.277 40.65 105.053 94.676 116.053 50.84 24.084 116.352 53.438 143.14 65.36-.225 2.802-.365 5.627-.365 8.473 0 58.88 47.726 106.604 106.592 106.604 43.524 0 80.934-26.1 97.486-63.49 6.374-.85 13.126-1.136 19.9-.463 16.45 37.64 53.988 63.954 97.7 63.954 58.862 0 106.587-47.725 106.587-106.604l145.326-74.672c52.174-12.377 91.003-59.237 91.003-115.214 0-65.41-53.03-118.44-118.44-118.44M1355.1 3303.985c-9.21 11.187-25.75 12.798-36.95 3.574l-9.65-7.938c-11.187-9.21-12.785-25.763-3.574-36.95l427.476-519.164c9.21-11.188 25.75-12.8 36.95-3.575l9.65 7.937c11.188 9.21 12.786 25.763 3.575 36.95L1355.1 3303.986M2912.4 3303.985c9.216 11.187 25.755 12.798 36.95 3.574l9.65-7.938c11.193-9.21 12.79-25.763 3.58-36.95l-427.476-519.164c-9.215-11.188-25.75-12.8-36.95-3.575l-9.65 7.937c-11.188 9.21-12.79 25.763-3.575 36.95l427.47 519.165" fill="#598a9a"/><path d="M1840.378 4404.47c-1.964 26.676-44.05 57.29-70.74 55.327l-22.3-6.088c-26.673-1.96-6.16-29.726-4.2-56.4l15.24-210.537c1.96-26.674 25.175-46.715 51.862-44.75l.613.05c26.687 1.96 46.724 25.188 44.76 51.862l-15.235 210.536M2435.875 4404.47c1.964 26.676 25.18 46.717 51.866 44.753l34.012 2.462c26.674-1.964 13.327-27.7 11.363-54.375l-17.736-210.537c-1.966-26.674-25.176-46.715-51.863-44.75l-.614.05c-26.687 1.96-46.724 25.188-44.764 51.862l17.735 210.536" fill="#598a9a"/><path d="M2828.79 4303.696c0 12-9.926 22.278-21.962 22.278h-1356.54c-12.037 0-21.537-10.277-21.537-22.278v-1467.15c0-11.99 9.5-20.94 21.537-20.94h1356.54c12.037 0 21.964 8.95 21.964 20.94v1467.15zm116.237-1646.202h-1632.5c-14.502 0-26.253 11.75-26.253 26.253v1773.75c0 14.502 11.75 26.252 26.253 26.252h1632.5c14.49 0 26.253-11.75 26.253-26.254v-1773.75c0-14.5-11.763-26.252-26.253-26.252" fill="#9ca5a7"/></svg>