<svg xmlns="http://www.w3.org/2000/svg" width="200" height="150" viewBox="0 0 500 500"><defs><clipPath id="a"><path d="M3792.48 6793.41s-186.25 45.14-388.53-162.32c-202.29-207.47-295.01-691.8-192.56-860.41 0 0 499.07 48.39 545.32 165.05 0 0-139.87 266.08-7.31 442.89 156.26 207.19 105.74 264.94 123.61 318.57-18 64.23 12.29 65.34-80.53 96.22z"/></clipPath></defs><path d="M288.056 471.35v-.01.01M288.125 471.814h.002c-.027-.132-.047-.264-.063-.394.016.13.036.264.06.394M288.577 473.165c-.004-.005-.006-.01-.01-.018.004.007.006.013.01.018M288.533 473.076c-.01-.025-.023-.05-.034-.076.01.027.022.05.033.076M288.252 472.335c.067.224.147.442.24.65-.094-.212-.173-.43-.24-.65" fill="#3b757b"/><path d="M28.99 408.294l147.772-101.978 47.726 43.217 98.045-100.993 25.346 22.142 56.96-52.18-10.66 2.77v-19.375l73.99-28.4v19.375l-14.927 69.47-25.587-25.78-79.777 84.16-25.085-25.778-92.016 100.08-51.886-39.425-121.26 102.735-28.644-30.667v-19.374" fill="#d81b2e"/><path d="M28.99 427.668L176.762 325.69l47.726 43.218 98.045-100.994 25.346 22.14 61.296-56.15-14.996-12.633 73.99-28.398-14.927 88.843-25.587-25.778-79.777 84.16-25.085-25.78L230.78 414.4l-55.87-46.397-124.026 97.915-21.894-38.25" fill="#ab1930"/><path d="M297.988 280.813s24.226-29.405 26.89-28.652c2.66.753 19.526 24.694 23 21.51 3.476-3.182 51.37-48.13 51.37-48.13l9.06 7.633s-53.94 47.054-60.43 50.63c0 0-21.414-20.235-25.345-19.674-3.932.56-19.57 18.546-24.545 16.683M394.18 215.256s24.427-6.88 23.9-12.973c-.526-6.093-23.9-.386-23.9-.386v13.36" fill="#8b162a"/><path d="M245.185 337.782l-23.832-3.54 18.02-8.087-7.288-26.285 17.532 14.66 2.39-26.792 5.767 20.22 15.78-20.22-7.993 31.34-20.375 18.704" fill="#f5df3f"/><path d="M3230.03 4533.86s-15.84-15.36-41.05-43.69" fill="none" stroke="#f5dfa2" stroke-width="30" stroke-miterlimit="10" transform="matrix(.05263 0 0 -.05615 82.8 483.97)"/><path d="M3116.54 4402.14c-124.65-163.29-302.17-460.92-261.36-792.5" fill="none" stroke="#f5dfa2" stroke-width="30" stroke-miterlimit="10" stroke-dasharray="114.051, 114.051" transform="matrix(.05263 0 0 -.05615 82.8 483.97)"/><path d="M2864.21 3553.27c3.83-19.37 8.45-38.83 13.89-58.37M321.316 3170.8s16.84 13.25 48.25 35.6" fill="none" stroke="#f5dfa2" stroke-width="30" stroke-miterlimit="10" transform="matrix(.05263 0 0 -.05615 82.8 483.97)"/><path d="M467.957 3272.95c363.87 234.82 1339.163 750.4 2174.633 176.17" fill="none" stroke="#f5df86" stroke-width="30" stroke-miterlimit="10" stroke-dasharray="118.809, 118.809" transform="matrix(.05263 0 0 -.05615 82.8 483.97)"/><path d="M2690.94 3414.54c15.89-11.81 31.72-24.04 47.49-36.68" fill="none" stroke="#f5dfa2" stroke-width="30" stroke-miterlimit="10" transform="matrix(.05263 0 0 -.05615 82.8 483.97)"/><path d="M331.533 124.525s24.49 6.163 32.65 15.262c0 0-5.07 8.056-10.214 4.598-5.144-3.457-22.466-15.96-22.437-19.86" fill="#ebbf18"/><path d="M319.718 124.85s.953-8.428 3.602-11.62c2.648-3.19 11.417-7.384 11.417-7.384s6.944 10.49 8.89 14.377c0 0-9.973 7.666-14.803 8.294-4.83.63-9.106-3.667-9.106-3.667" fill="#787c7d"/><path d="M322.775 121.32s.7-6.175 2.64-8.513c1.94-2.337 8.363-5.41 8.363-5.41s5.087 7.685 6.512 10.532c0 0-7.305 5.615-10.844 6.075-3.538.46-6.67-2.686-6.67-2.686" fill="#c9dfda"/><path d="M329.765 108.49s6.95 11.502 10.047 14.468c0 0-8.438-7.405-10.047-14.468" fill="#394042"/><path d="M315.817 229.073c-.962 13.734-12.18 24.036-25.053 23.01-12.874-1.028-22.53-12.996-21.566-26.73.963-13.735 12.18-24.036 25.053-23.01 12.874 1.03 22.53 12.995 21.567 26.73" fill="#212425"/><path d="M309.81 228.594c-.715 10.194-9.04 17.84-18.597 17.078-9.555-.762-16.722-9.645-16.008-19.84.715-10.194 9.04-17.84 18.597-17.078 9.555.762 16.722 9.645 16.008 19.84" fill="#909292"/><path d="M307.337 228.397c-.612 8.738-7.748 15.29-15.94 14.638-8.19-.654-14.332-8.267-13.72-17.005.613-8.74 7.75-15.293 15.94-14.64 8.19.655 14.333 8.268 13.72 17.007" fill="#575a5b"/><path d="M298.07 227.657c-.23 3.277-2.906 5.735-5.978 5.49-3.072-.245-5.377-3.1-5.147-6.378.23-3.278 2.907-5.736 5.98-5.492 3.07.246 5.374 3.102 5.145 6.38" fill="#909292"/><path d="M278.763 214.895l12.88 14.5 3.453-3.234-12.383-14.735-3.95 3.47" fill="#909292"/><path d="M295.68 227.466c-.13 1.87-1.657 3.272-3.41 3.132-1.753-.14-3.067-1.77-2.936-3.638.13-1.87 1.658-3.272 3.41-3.132 1.753.14 3.068 1.768 2.936 3.638" fill="#c7c8c6"/><path d="M405.18 160.07c-.962 13.734-12.178 24.035-25.052 23.007-12.873-1.027-22.53-12.994-21.566-26.728.963-13.736 12.18-24.037 25.053-23.01 12.873 1.027 22.53 12.994 21.566 26.73" fill="#212425"/><path d="M399.174 159.59c-.715 10.194-9.04 17.84-18.597 17.078-9.555-.763-16.722-9.645-16.008-19.84.714-10.195 9.04-17.84 18.596-17.08 9.555.764 16.722 9.647 16.008 19.84" fill="#909292"/><path d="M396.702 159.392c-.613 8.738-7.75 15.292-15.94 14.638-8.19-.653-14.333-8.267-13.72-17.005.612-8.738 7.748-15.29 15.938-14.638 8.19.653 14.334 8.267 13.722 17.005" fill="#575a5b"/><path d="M387.434 158.653c-.23 3.277-2.907 5.735-5.98 5.49-3.07-.245-5.374-3.1-5.145-6.378.23-3.278 2.906-5.736 5.977-5.49 3.072.244 5.376 3.1 5.147 6.378" fill="#909292"/><path d="M368.127 145.89l12.88 14.5 3.453-3.233-12.383-14.737-3.95 3.47" fill="#909292"/><path d="M385.045 158.462c-.13 1.87-1.658 3.272-3.41 3.132-1.753-.14-3.068-1.77-2.937-3.64.132-1.868 1.658-3.27 3.41-3.13 1.753.14 3.068 1.768 2.937 3.638" fill="#c7c8c6"/><path d="M288.21 177.264s6.59 1.258 9.747 4.214c3.156 2.955 17.56 22.015 18.98 22.804 1.42.79 28.597-20.902 31.475-25.808 2.878-4.907 1.474-43.588-33.43-51.315 0 0-4.223-.444-3.22-4.57 1.006-4.127 5.93.473 5.93.473s25.848 2.9 42.81 23.015c0 0 1.913 26.933 1.115 29.28-.798 2.35-39.046 34.105-48.248 40.468 0 0-7.86-7.048-16.21-6.025-8.35 1.024-28.59.423-31.255-2.155-2.666-2.578-11.205-17.164-7-25.062 4.207-7.898 29.304-5.32 29.304-5.32" fill="#dc9e19"/><path d="M269.982 189.574c-6.32 2.368-18.16 24.72-11.975 40.42 0 0 3.957 5.048 7.76 3.662 3.8-1.387 35.744-24.184 38.24-27.702 2.496-3.518-5.445-27.088-34.025-16.38" fill="#ebbf18"/><path d="M294.394 174.772c-1.706-2.175-26.243-.516-34.955.197-8.71.71-12.162-1.63-13.68 1.666-1.87 4.064 5.305 10.893 12.722 11.995 7.416 1.103 32.905-4.196 35.354-5.91 2.45-1.714 2.715-5.197.558-7.948" fill="#181c1d"/><path d="M359.994 174.835s-5.306-22.636-2.012-28.958c3.294-6.322 9.017-16.94 21.212-17.907 8.227-.652 15.634 3.343 18.784 8.11 0 0-11.84 10.302-18.162 14.642-6.323 4.34-15.438 10.79-12.873 19.395 0 0-1.527 2.735-6.95 4.718" fill="#ebbf18"/><path d="M317.467 218.89c1.97 3.128 1.968 6.784 1.97 10.418.002 1.36 1.975 1.36 1.974 0 0-4-.078-8.047-2.24-11.48-.704-1.12-2.414-.068-1.703 1.063M321.94 218.89c1.172 2.163 1.18 4.62 1.182 7.05 0 1.358 1.974 1.358 1.973 0-.002-2.813-.1-5.617-1.45-8.112-.636-1.175-2.342-.115-1.704 1.063M265.1 240.51c1.663 3.382 4.356 5.858 6.996 8.353.95.897 2.35-.587 1.396-1.488-2.515-2.377-5.102-4.705-6.688-7.93-.59-1.202-2.294-.137-1.704 1.064M262.47 244.44c1.17 1.887 2.268 3.826 4.037 5.15 1.045.78 2.03-1.046.996-1.82-1.464-1.093-2.363-2.836-3.33-4.394-.7-1.126-2.41-.073-1.704 1.063M365.452 182.49c1.926 1.174 3.87 2.3 6.025 2.914 1.23.35 1.752-1.68.524-2.03-1.995-.57-3.77-1.616-5.553-2.702-1.107-.674-2.1 1.145-.995 1.82M364.4 187.263c1.382.84 2.9 1.183 4.445 1.51 1.243.262 1.772-1.767.524-2.03-1.37-.29-2.748-.554-3.975-1.298-1.108-.673-2.102 1.147-.996 1.818M406.675 147.58c.99 1.98 1.165 4.28 1.18 6.487.01 1.358 1.984 1.36 1.975 0-.02-2.59-.293-5.234-1.45-7.55-.6-1.198-2.304-.134-1.705 1.063M411.05 145.925c.753 1.988.998 4.045 1.016 6.177.012 1.357 1.986 1.36 1.974 0-.02-2.304-.273-4.588-1.088-6.737-.47-1.242-2.38-.7-1.903.56" fill="#2b575a"/><path d="M316.17 159.378s4.466.757 6.148.4c1.682-.357 5.546-5.676 6.536-6.37.99-.697 4.53 3.797 4.53 3.797s-10.38 8.988-12.38 9.87l-2.418-.157-1.477.917s-4.423.883-5.203-.34c-.78-1.222.42-7.353.42-7.353s2.424-.857 3.842-.764" fill="#1f1712"/><path d="M276.836 154.07s16.618-16.644 26.477-14.736c9.86 1.91 12.983 13.68 14.275 20.136 0 0-3.708 2.584-5.585 2.208 0 0-1.84-17.617-9-16.932-7.16.686-23.573 13.83-25.05 14.73-1.478.9-22.2-2.62-1.117-5.407" fill="#394042"/><path d="M324.857 181.76s4.106-1.25 5.168-3.208c1.06-1.957 1.924-8.737.635-11.1 0 0 5.656-3.43 7.432-1.288 0 0 1.01 15.512-3.98 19.745l-2.127-.14s1.245 3.12-.23 4.037c-1.478.916-7.06 3.085-7.534 3.054 0 0-3.32-5.527-4.167-7.295-.845-1.768 4.804-3.804 4.804-3.804" fill="#1f1712"/><path d="M271.987 157.4s39.06-3.887 52.87 24.36c0 0-3.527 3.57-4.324 5.037 0 0-8.844-27.925-50.452-22.533-1.167-.33-13.773 7.068-16.802-.842-4.46-11.647 18.71-6.023 18.71-6.023" fill="#394042"/><path d="M313.884 106.06c-.093-1.247-.544-3.465-1.19-6.163-10.877 12.318-16.577-3.196-16.577-3.196 1.256-.233 10.618-3.163 14.61-4.42-.203-.754-.41-1.51-.62-2.267 3.8.168 4.646-5.128 1.82-3.767-2.088 1.007-3.06-.857-3.423-1.898-.06-.213-.122-.424-.183-.634-1.554-5.386-2.826-9.567-2.826-9.567-15.122-13.645-22.028 9.04-21.158 11.77.87 2.728 4.83 17.915 8.73 22.167 3.9 4.252 21.243 3.723 20.818-2.023" fill="#fcd0a4"/><path d="M289.216 96.394s5.458-10.618-3.622-16.622c0 0 16.072-1.02 13.672-2.895-2.083-1.628-3.91-1.68-3.91-1.68s13.12 1.93 14.16-2.486c1.15-4.865-2.566.643-2.566.643s2.504-15.48-3.68-16.494c-6.183-1.015-2.237 6.59-2.237 6.59s-2.858-5.94-10.092-7.088c-7.233-1.147-5.025 5.387-.78 6.784 0 0-11.132 1.492-14.707 8.665 0 0-5.854-1.084-6.23 2.284-.375 3.367 3.75.817 3.75.817s-3.807 2.954-2.185 4.003c1.622 1.05 2.33-1.48 2.33-1.48s-.82 12.75 7.903 15.234c0 0-2.145 3.94-.958 4.773 1.187.833 2.255-1.353 2.255-1.353s-1.335 5.025 1.11 3.715c2.443-1.31 4.964-1.305 5.79-3.408" fill="#614f26"/><path d="M297.97 100.225c2.072 3.08 5.863 6.523 11.284 2.81-2.707-5.09-8.28-3.92-11.284-2.81" fill="#d67a7e"/><path d="M310.728 92.28c-3.993 1.257-13.355 4.187-14.61 4.42 0 0 .624 1.7 1.852 3.525 3.005-1.11 8.577-2.28 11.284 2.81 1.083-.74 2.23-1.767 3.44-3.138-.546-2.288-1.232-4.92-1.966-7.618" fill="#692926"/><path d="M304.51 84.984c.365 1.418.134 2.72-.513 2.91-.648.19-1.468-.807-1.832-2.225-.364-1.418-.133-2.72.515-2.91.648-.19 1.468.807 1.83 2.224" fill="#140e0c"/><path d="M291.943 95.192s-2.003-4.993-5.902-3.517c-3.9 1.476-1.736 5.113-.17 6.818 1.566 1.705 6.566 2.795 6.073-3.3" fill="#fcd0a4"/><path d="M303.178 78.383s-3.615-3.07-5.208 1.506c0 0 .777-6.818 5.208-1.507" fill="#2d2215"/><path d="M288.167 107.272s1.162 1.218 1.3 3.42l-.796-1.438-1.474.905s-1.01-2.44.97-2.888" fill="#fff"/><path d="M298.775 108.083s-7.642-.963-10.647-.22c0 0-3.716.782-3.812-2.51-.096-3.296 5.2-3 9.207-4.96l5.252 7.69" fill="#fcd0a4"/><path d="M282.398 102.52s-9.802-2.535-20.448 9.114c-10.647 11.65-15.526 38.845-10.135 48.312 0 0 26.267-2.717 28.7-9.267 0 0-7.36-14.942-.384-24.87 8.225-11.633 5.566-14.876 6.507-17.887-.948-3.607.646-3.67-4.24-5.403" fill="#394042"/><g clip-path="url(#a)" transform="matrix(.05263 0 0 -.05615 82.8 483.97)"><path d="M3815.13 6813.45s-17.62-277.98-23.98-306.33c-6.36-28.35-29.57-46.67-29.57-46.67s-53.28-103.86-32.78-155.84c20.5-51.99 178.06 257.45 168.85 327.92-9.2 70.46-77.37 180.6-77.37 180.6" fill="#959796"/></g><path d="M260.658 158.88s-8.587 4.894-15.723-3.13c0 0 5.092 2.716 4.89-2.888 0 0 1.232 7.077 10.833 6.018" fill="#585f61"/><path d="M286.85 109.254s-1.168-6.06-9.337-8.468c-8.17-2.41-18.495 7.975-27.156-2.422L239.36 99.74s1.76 10.725 3.077 12.584c0 0 8.924 5.602 15.607 1.017 12.305-8.44 20.644-12.854 28.85-1.708l-.043-2.378" fill="#111"/><path d="M288.98 107.855l-1.784 2.304s-2.565-.99-2.35-2.305c.215-1.313 4.133 0 4.133 0" fill="#adafae"/><path d="M286.85 109.254s.74.568.32 2.44c-.42 1.872-.826-.054-.826-.054l.507-2.386" fill="#111"/><path d="M282.273 119.56s-3.512-.995-6.793-3.995c0 0-3.412 19.236 2.298 26.744 0 0-1.407-9.764 4.495-22.75" fill="#585f61"/><path d="M284.025 105.39s-3.727 2.54-7.116 1.192c0 0 3.016 9.872 5.363 12.98 0 0 4.122-7.708 1.752-14.172" fill="#585f61"/><path d="M281.893 101.277l3.72.386 3.366 6.192-4.828 2.304s-2.85-5.76-2.26-8.883" fill="#fff"/><path d="M263.128 158.208s15.075-4.24 16.75-6.33l-.59-1.43 1.302.418s-1.832-1.517-2.22-1.643v2.528s-10.544 5.684-15.242 6.458" fill="#1c1f21"/><path d="M279.05 105.39c2.853.624-6.795 14.902-1.28 25.705 4.74 9.284 18.78 2.004 29.45-4.42 0 0 1.888 3.415 4.438 4.087 0 0-27.628 17.962-37.22 6.626-11.34-13.4-.108-33.03 4.612-31.998" fill="#394042"/><path d="M275.156 107.272s-14.498 17.624.95 31.673c0 0-13.765-10.378-.95-31.673" fill="#1c1f21"/><path d="M307.22 126.675s-.42-6.78 1.804-8.323c0 0 2.013-1.22 3.333.216 0 0 3.83-.932 4.408 1.385 0 0 3.977 1.02 2.77 5.498 0 0-1.254 1.186-2.113-.39-.86-1.575-2.93-3.483-3.407-.98-.477 2.5.797 5.875-2.357 6.682-3.153.808-4.418-2.046-4.44-4.087" fill="#fcd0a4"/><path d="M318.02 124.715c-.17 2.434-2.157 4.258-4.438 4.076-2.28-.18-3.99-2.3-3.82-4.734.17-2.434 2.157-4.26 4.438-4.077 2.28.18 3.99 2.3 3.82 4.735" fill="#394042"/><path d="M316.483 124.592c-.107 1.527-1.354 2.673-2.786 2.56-1.43-.115-2.505-1.446-2.398-2.973.106-1.53 1.354-2.674 2.785-2.56 1.432.115 2.505 1.445 2.398 2.972" fill="#627072"/><path d="M213.147 125.72l-8.462-7.18c-.88-.75-2.165-.594-2.866.347l-1.587 2.127c-.7.94-.555 2.31.327 3.058l.075.065c.04-.375.18-.757.43-1.092l1.41-1.89c.622-.836 1.666-1.057 2.33-.493l6.376 5.41c.666.564.7 1.7.076 2.535l-1.41 1.89c-.25.334-.567.565-.9.692l.076.063c.882.75 2.165.592 2.866-.35l1.586-2.125c.702-.94.555-2.31-.327-3.058" fill="#181c1d"/><path d="M212.19 124.906l-8.463-7.18c-.88-.748-2.165-.592-2.866.348l-1.585 2.127c-.7.942-.555 2.31.327 3.06l.076.064c.04-.375.18-.757.43-1.092l1.408-1.89c.624-.836 1.667-1.057 2.332-.493l6.375 5.41c.665.563.698 1.698.074 2.534l-1.41 1.89c-.248.334-.566.565-.9.692l.077.064c.882.75 2.165.592 2.866-.348l1.586-2.127c.7-.94.555-2.31-.327-3.06" fill="#272b2c"/><path d="M206.682 172.665c-.702.94-1.985 1.096-2.867.348L170.2 144.488c-.88-.748-1.027-2.118-.325-3.058l19.798-26.556c.702-.94 1.985-1.096 2.867-.35l33.614 28.527c.88.75 1.027 2.118.326 3.06l-19.798 26.555" fill="#181c1d"/><path d="M204.213 170.57c-.702.94-1.94 1.134-2.77.43l-31.34-26.595c-.827-.702-.93-2.035-.228-2.975l19.798-26.556c.702-.94 1.94-1.134 2.77-.432l31.34 26.596c.827.703.93 2.035.228 2.976l-19.797 26.555" fill="#181c1d"/><path d="M2306.91 5581.49c-13.33-16.75-36.88-20.2-52.61-7.69l-595.49 473.66c-15.72 12.51-17.67 36.24-4.34 52.99l376.18 472.94c13.33 16.75 36.88 20.2 52.61 7.69l595.49-473.66c15.72-12.51 17.67-36.24 4.34-52.99l-376.18-472.94z" fill="none" stroke="#576868" stroke-width="10" stroke-miterlimit="10" transform="matrix(.05263 0 0 -.05615 82.8 483.97)"/><path d="M201.08 167.912c-.7.94-1.946 1.13-2.78.42l-31.612-26.825c-.834-.708-.942-2.045-.24-2.985l19.798-26.556c.7-.94 1.946-1.13 2.78-.422l31.612 26.827c.835.71.943 2.045.24 2.986l-19.797 26.556" fill="#272b2c"/><path d="M199.455 164.19c-.625.838-1.736 1.007-2.48.375l-27.825-23.613c-.744-.63-.84-1.823-.215-2.662l17.66-23.686c.625-.84 1.735-1.007 2.48-.376L216.9 137.84c.743.632.84 1.824.214 2.664l-17.66 23.686" fill="#394042"/><path d="M228.522 141.685c.463.78.642 1.64.655 2.556.02 1.358 1.994 1.36 1.974 0-.018-1.27-.28-2.535-.923-3.618-.68-1.144-2.387-.088-1.705 1.063M231.844 141.433c.19.65.227 1.288.228 1.966 0 1.357 1.975 1.357 1.973 0 0-.853-.06-1.71-.298-2.527-.377-1.292-2.283-.74-1.903.56M159.314 136.69c-.892 2.103-.648 4.073.263 6.118.546 1.225 2.248.156 1.704-1.063-.575-1.294-.835-2.64-.262-3.99.52-1.228-1.18-2.3-1.704-1.064M155.232 137.784c0 1.42.05 2.812.298 4.21.236 1.334 2.138.768 1.904-.56-.214-1.21-.228-2.423-.228-3.65 0-1.358-1.974-1.358-1.974 0" fill="#2b575a"/></svg>