<?xml version="1.0" encoding="UTF-8"?>
<svg width="360" height="401" version="1.1" viewBox="0 0 420 401" xmlns="http://www.w3.org/2000/svg" xmlns:cc="http://creativecommons.org/ns#" xmlns:dc="http://purl.org/dc/elements/1.1/" xmlns:rdf="http://www.w3.org/1999/02/22-rdf-syntax-ns#">
<defs>
<clipPath id="a">
<path d="m2628.7 2040.7-186.68 107.78v215.57l186.68-107.79v-215.56"/>
</clipPath>
</defs>
<metadata>
<rdf:RDF>
<cc:Work rdf:about="">
<dc:format>image/svg+xml</dc:format>
<dc:type rdf:resource="http://purl.org/dc/dcmitype/StillImage"/>
<dc:title/>
</cc:Work>
</rdf:RDF>
</metadata>
<g transform="translate(0 -651.36)">
<g transform="matrix(2.1578 0 0 -2.1537 -35.602 1114.8)">
<g transform="matrix(.029549 0 0 .02745 -3.2275 9.9947)">
<path d="m3899.7 301.32-0.02 0.18 0.02-0.18" fill="#fff"/>
<path d="m3901 293.03h0.03c-0.5 2.36-0.89 4.707-1.19 7.02 0.3-2.332 0.69-4.68 1.16-7.02" fill="#fff"/>
<path d="m3909.6 268.97-0.17 0.332 0.17-0.332" fill="#fff"/>
<path d="m3908.7 270.57-0.65 1.34 0.65-1.34" fill="#fff"/>
<path d="m3903.4 283.76c1.27-4 2.8-7.883 4.57-11.582-1.8 3.781-3.3 7.672-4.54 11.582h-0.03" fill="#fff"/>
<path d="m5304.8 2435.7-684.45-395.15v-71.57l684.45 394.82v71.9" fill="#6d7175"/>
<path d="m4586.8 2059.8 0.14-71.09 33.34-19.69v71.57l-33.48 19.21" fill="#868d8f"/>
<path d="m5271.3 2455-684.44-395.25 33.48-19.21 684.45 395.15-33.49 19.31" fill="#abadac"/>
<path d="m5180.3 2508.2-684.45-395.15v-71.57l684.45 394.82v71.9" fill="#6d7175"/>
<path d="m4462.4 2132.3 0.14-71.09 33.33-19.69v71.57l-33.47 19.21" fill="#868d8f"/>
<path d="m5146.8 2527.5-684.44-395.25 33.47-19.21 684.45 395.15-33.48 19.31" fill="#abadac"/>
<path d="m5057 2579.1-684.45-395.16v-71.56l684.45 394.81v71.91" fill="#6d7175"/>
<path d="m4339 2203.1 0.14-71.09 33.33-19.68v71.56l-33.47 19.21" fill="#868d8f"/>
<path d="m5023.5 2598.4-684.44-395.25 33.47-19.21 684.45 395.16-33.48 19.3" fill="#abadac"/>
<path d="m6260 2411.9-3775.9 2180.3c-86.62 50.01-139.99 142.45-139.99 242.48v2398.4c0 107.71 116.55 175.07 209.89 121.31l3775.7-2175.2c86.77-49.98 140.24-142.49 140.24-242.62v-2403.4c0-107.78-116.67-175.13-210.01-121.24" fill="#9ca4aa"/>
<path d="m3866.6 3695.6 1.16-362.44c0.28-86.02-45.5-165.62-120.01-208.63l-315.19-181.93 871.22-502.96 316.1 181.71c74.52 42.81 120.47 122.18 120.47 208.12v363.95l-873.75 502.18" fill="#9ca4aa"/>
<path d="m6313.2 2367.2 82.24 42.23-70.85 98.87-11.39-141.1" fill="#9ca4aa"/>
<path d="m2412.3 7353.2-83.85-43.1 41.85 0.37 42 42.73" fill="#9ca4aa"/>
<path d="m6171.6 2366.2-3775.9 2180.3c-86.62 50.02-139.99 142.45-139.99 242.48v2398.4c0 107.71 116.55 175.08 209.89 121.31l3775.7-2175.2c86.77-49.98 140.24-142.49 140.24-242.63v-2403.4c0-107.78-116.67-175.13-210.01-121.24" fill="#cac9ca"/>
<path d="m2442.4 7102.2v-2294.5l3737.1-2157.7v2303.2l-3737.1 2149" fill="#e6f6f8"/>
<path d="m2629.9 6782.8-0.14-287.36 3297.2-1903.5 0.23 286.83-3297.3 1904.1" fill="#f26545"/>
<path d="m2630.8 6350.8-0.26-862.93 683.35-393.62 0.76 861.41-683.85 395.14" fill="#71cfc8"/>
<path d="m3438 5812.8-1.09-860.33 685.52-397.01 0.24 862.26-684.67 395.08" fill="#d1274e"/>
<path d="m3438 5812.8-1.09-860.33 150.61-87.22 0.22 149.81-2.89 1.66-16.34-7.58-3.48 7.25 9.98 6 61.98 36.08 12.4-7.16 44.06-25.46 8.3-4.8 10.31-5.96 82.13-47.46 41.26-23.82v-0.03l0.04-0.02 51.1-53.53c3.87-4.06 9.14-6.19 14.47-6.19 3.41 0 6.85 0.87 9.97 2.67l48.13 27.69 62.91-35.52-112.36-65.13c-3.12-1.81-6.58-2.7-10.03-2.7-4.5 0-8.97 1.52-12.62 4.48l-51.57 41.95v-0.01l51.57-41.94c3.65-2.96 8.12-4.48 12.62-4.48 3.45 0 6.91 0.89 10.03 2.7l112.36 65.13v-41.54l-112.43-65.07c-3.11-1.8-6.57-2.69-10.01-2.69-4.47 0-8.91 1.49-12.55 4.42l-51.59 41.54v-93.9l286.94-166.18 0.24 862.26-684.67 395.08m149.76-797.72-0.02-0.02 61.5-35.51v0.05l-61.48 35.48" fill="#e4346a"/>
<path d="m4371.1 5346.4-0.25-862.93 685.05-394.59 2.45 861.16-687.25 396.36" fill="#5c9cd5"/>
<path d="m5242.8 4843-0.08-1509 684.56-395.24 2.76 1507.9-687.24 396.36" fill="#f0ba50"/>
<path d="m4678.1 3228.6v-71.54l61.61 35.97-61.61 35.57" fill="#8b9299"/>
<path d="m4678.1 3229.3v-0.7l61.61-35.57 0.65 0.37-62.26 35.9" fill="#b4b3b4"/>
<path d="m4287.8 3582.4c0-35.67-28.92-47.93-64.59-27.38s-64.58 66.13-64.58 101.79c0 35.67 28.91 47.93 64.58 27.38s64.59-66.13 64.59-101.79" fill="#9ca4aa"/>
<path d="m2629.2 6783 32.06 18.56 3297.2-1904.8-0.62-287.71-30.51-17.74-0.16 287.57-3297.9 1904.1" fill="#f26545"/>
<path d="m5958.4 4896.7-31.29-17.88 0.16-287.57 30.51 18.58 0.62 286.87" fill="#c8553c"/>
<path d="m2482.1 7079.4v-2294.6l-39.72 22.94v2294.5l39.72-22.84" fill="#9ca4aa"/>
<path d="m2482.2 4830.1 3697.3-2134.4v-45.72l-3737.1 2157.3 39.75 22.79" fill="#9ca4aa"/>
<path d="m2629.1 6351.9 32.46 18.35 684.37-395.41 0.42-861.67-32.45-18.96 0.76 861.41-685.56 396.28" fill="#71cfc8"/>
<path d="m3346 5974.8-31.27-19.22-0.76-861.25 32.45 18.8-0.42 861.67" fill="#55b2ad"/>
<path d="m2661.6 6370.2-32.46-18.35 685.56-396.28 31.27 19.22-684.37 395.41" fill="#a8e2dd"/>
<path d="m3438 5812.8 94.45 54.53 684.08-395.43-0.6-862.74-93.5-53.7 0.24 862.26-684.67 395.08" fill="#4eade4"/>
<path d="m3438 5812.8 94.45 54.53 684.08-395.43-93.86-54.18-684.67 395.08" fill="#d1274e"/>
<path d="m3532.4 5867.3-94.45-54.53 684.67-395.08 93.86 54.18-684.08 395.43" fill="#f14488"/>
<path d="m4216.5 5471.9-0.6-862.74-93.5-53.7 0.24 862.26 93.86 54.18" fill="#d1274e"/>
<path d="m4371.1 5346.4 32.45 18.36 684.38-395.42 0.42-861.67-32.45-18.8 2.44 861.17-687.24 396.36" fill="#5c9cd5"/>
<path d="m5088 4969.3-29.59-19.3-2.44-861.17 32.45 18.8-0.42 861.67" fill="#497fb3"/>
<path d="m4403.6 5364.7-32.45-18.36 687.24-396.36 29.59 19.3-684.38 395.42" fill="#9dc9e8"/>
<path d="m5242.7 4843.1 32.46 18.35 684.37-395.42 0.25-1508.5-32.44-18.8-0.7 1509.9-683.94 394.46" fill="#f0ba50"/>
<path d="m5959.5 4466 0.25-1508.5v0.04l-0.25 1508.5" fill="#e5f6f8"/>
<path d="m5959.5 4466 0.25-1508.5v0.04l-0.25 1508.5" fill="#d3d4d3"/>
<path d="m5959.5 4466-32.89-17.39 0.7-1509.9 32.44 18.81-0.25 1508.5" fill="#c29a46"/>
<path d="m2661.3 6801.5-32.05-18.55 3297.9-1904.1 31.29 17.88-3297.2 1904.8" fill="#f8a491"/>
<path d="m5275.2 4861.4-32.46-18.35 683.94-394.46 32.89 17.39-684.37 395.42" fill="#f7d89a"/>
<path d="m2629.1 5345.8-0.03-71.87 684.53-395.16v71.84l-684.5 395.19" fill="#e5f6f8"/>
<path d="m2629.1 5345.8-0.03-71.87 684.53-395.16v71.84l-684.5 395.19" fill="#8c8e90"/>
<path d="m3346.8 4970-33.22-19.34v-71.84l32.56 19.04 0.66 72.14" fill="#e5f6f8"/>
<path d="m3346.8 4970-33.22-19.34v-71.84l32.56 19.04 0.66 72.14" fill="#6f7c7f"/>
<path d="m2662.3 5365.2-33.23-19.34 684.5-395.19 33.22 19.34-684.49 395.19" fill="#e5f6f8"/>
<path d="m2662.3 5365.2-33.23-19.34 684.5-395.19 33.22 19.34-684.49 395.19" fill="#abb4b3"/>
<path d="m2629.1 5202.1-0.03-71.87 684.53-395.16v71.84l-684.5 395.19" fill="#e5f6f8"/>
<path d="m2629.1 5202.1-0.03-71.87 684.53-395.16v71.84l-684.5 395.19" fill="#8c8e90"/>
<path d="m3346.8 4826.2-33.22-19.34v-71.84l32.56 19.04 0.66 72.14" fill="#e5f6f8"/>
<path d="m3346.8 4826.2-33.22-19.34v-71.84l32.56 19.04 0.66 72.14" fill="#6f7c7f"/>
<path d="m2662.3 5221.4-33.23-19.34 684.5-395.19 33.22 19.34-684.49 395.19" fill="#e5f6f8"/>
<path d="m2662.3 5221.4-33.23-19.34 684.5-395.19 33.22 19.34-684.49 395.19" fill="#abb4b3"/>
<path d="m2629.1 5058.5-0.03-71.87 684.53-395.17v71.85l-684.5 395.19" fill="#e5f6f8"/>
<path d="m2629.1 5058.5-0.03-71.87 684.53-395.17v71.85l-684.5 395.19" fill="#8c8e90"/>
<path d="m3346.8 4682.6-33.22-19.34v-71.85l32.56 19.05 0.66 72.14" fill="#e5f6f8"/>
<path d="m3346.8 4682.6-33.22-19.34v-71.85l32.56 19.05 0.66 72.14" fill="#6f7c7f"/>
<path d="m2662.3 5077.8-33.23-19.34 684.5-395.19 33.22 19.34-684.49 395.19" fill="#e5f6f8"/>
<path d="m2662.3 5077.8-33.23-19.34 684.5-395.19 33.22 19.34-684.49 395.19" fill="#abb4b3"/>
<path d="m2629.1 4914.8-0.03-71.87 684.53-395.17v71.85l-684.5 395.19" fill="#e5f6f8"/>
<path d="m2629.1 4914.8-0.03-71.87 684.53-395.17v71.85l-684.5 395.19" fill="#8c8e90"/>
<path d="m3346.8 4538.9-33.22-19.34v-71.85l32.56 19.05 0.66 72.14" fill="#e5f6f8"/>
<path d="m3346.8 4538.9-33.22-19.34v-71.85l32.56 19.05 0.66 72.14" fill="#6f7c7f"/>
<path d="m2662.3 4934.1-33.23-19.34 684.5-395.19 33.22 19.34-684.49 395.19" fill="#e5f6f8"/>
<path d="m2662.3 4934.1-33.23-19.34 684.5-395.19 33.22 19.34-684.49 395.19" fill="#abb4b3"/>
<path d="m3500.2 4842.9-0.02-71.87 87.14-50.31 0.11 71.82-87.23 50.36m335.3-193.58v-71.86l159.92-92.32 24.16 14.22 62.5-36.32-5.5-24.76 108.12-62.41v71.84l-349.2 201.61" fill="#e5f6f8"/>
<path d="m3500.2 4842.9-0.02-71.87 87.14-50.31 0.11 71.82-87.23 50.36m335.3-193.58v-71.86l159.92-92.32 24.16 14.22 62.5-36.32-5.5-24.76 108.12-62.41v71.84l-349.2 201.61" fill="#8c8e90"/>
<path d="m4217.9 4467-33.22-19.34v-71.84l32.56 19.04 0.66 72.14" fill="#e5f6f8"/>
<path d="m4217.9 4467-33.22-19.34v-71.84l32.56 19.04 0.66 72.14" fill="#6f7c7f"/>
<path d="m3533.4 4862.2-33.23-19.34 87.23-50.36 0.05 38.5-54.05 31.2m302.07-174.39v-38.53l349.2-201.61 33.22 19.34-382.42 220.8" fill="#e5f6f8"/>
<path d="m3533.4 4862.2-33.23-19.34 87.23-50.36 0.05 38.5-54.05 31.2m302.07-174.39v-38.53l349.2-201.61 33.22 19.34-382.42 220.8" fill="#abb4b3"/>
<path d="m3500.2 4699.1-0.02-71.87 64.64-37.32 14.17 63.71-78.79 45.48m273.66-157.99v-64.67l-97.53 56.21-1.4-6.3 325.77-188.06 14.17 63.67-241.01 139.15m288.57-166.6-14.15-63.69 136.42-78.75v71.84l-122.27 70.6" fill="#e5f6f8"/>
<path d="m3500.2 4699.1-0.02-71.87 64.64-37.32 14.17 63.71-78.79 45.48m273.66-157.99v-64.67l-97.53 56.21-1.4-6.3 325.77-188.06 14.17 63.67-241.01 139.15m288.57-166.6-14.15-63.69 136.42-78.75v71.84l-122.27 70.6" fill="#8c8e90"/>
<path d="m4217.9 4323.3-33.22-19.34v-71.84l32.56 19.04 0.66 72.14" fill="#e5f6f8"/>
<path d="m4217.9 4323.3-33.22-19.34v-71.84l32.56 19.04 0.66 72.14" fill="#6f7c7f"/>
<path d="m3533.4 4718.5-33.23-19.34 78.79-45.48 5.61 25.28 2.67 1.56v6.89l-53.84 31.09m240.43-170.29v-7.04l241.01-139.15 5.5 24.7-62.5 36.33 8.93 5.25-131.3 75.81v-31.42l-0.04 0.02-61.6 35.5m296.15-139.5-7.58-34.14 122.27-70.6 33.22 19.34-147.91 85.4" fill="#e5f6f8"/>
<path d="m3533.4 4718.5-33.23-19.34 78.79-45.48 5.61 25.28 2.67 1.56v6.89l-53.84 31.09m240.43-170.29v-7.04l241.01-139.15 5.5 24.7-62.5 36.33 8.93 5.25-131.3 75.81v-31.42l-0.04 0.02-61.6 35.5m296.15-139.5-7.58-34.14 122.27-70.6 33.22 19.34-147.91 85.4" fill="#abb4b3"/>
<path d="m3500.2 4555.5-0.02-71.87 36.35-20.99 14.16 63.71-50.49 29.15m533.95-308.27-14.15-63.69 164.7-95.08v71.85l-150.55 86.92m-60.5-30.48-5.59-3.22 4.31-2.49 1.28 5.71" fill="#e5f6f8"/>
<path d="m3500.2 4555.5-0.02-71.87 36.35-20.99 14.16 63.71-50.49 29.15m533.95-308.27-14.15-63.69 164.7-95.08v71.85l-150.55 86.92m-60.5-30.48-5.59-3.22 4.31-2.49 1.28 5.71" fill="#8c8e90"/>
<path d="m4217.9 4179.6-33.22-19.34v-71.85l32.56 19.05 0.66 72.14" fill="#e5f6f8"/>
<path d="m4217.9 4179.6-33.22-19.34v-71.85l32.56 19.05 0.66 72.14" fill="#6f7c7f"/>
<path d="m3533.4 4574.8-33.23-19.34 50.49-29.15 7.59 34.14-24.85 14.35m134.96-77.92-1.98-8.91 0.15-0.09 0.04 0.03 325.7-187.41 1.84 8.31-325.75 188.07m373.34-215.55-7.58-34.14 150.55-86.92 33.22 19.34-176.19 101.72" fill="#e5f6f8"/>
<path d="m3533.4 4574.8-33.23-19.34 50.49-29.15 7.59 34.14-24.85 14.35m134.96-77.92-1.98-8.91 0.15-0.09 0.04 0.03 325.7-187.41 1.84 8.31-325.75 188.07m373.34-215.55-7.58-34.14 150.55-86.92 33.22 19.34-176.19 101.72" fill="#abb4b3"/>
<path d="m3500.2 4411.8-0.02-71.87 8.04-4.64 14.16 63.71-22.18 12.8m132.3-76.39-14.15-63.7 325.68-188.01 14.17 63.67-325.7 188.04m373.35-215.54-14.15-63.69 193-111.42v71.85l-178.85 103.26" fill="#e5f6f8"/>
<path d="m3500.2 4411.8-0.02-71.87 8.04-4.64 14.16 63.71-22.18 12.8m132.3-76.39-14.15-63.7 325.68-188.01 14.17 63.67-325.7 188.04m373.35-215.54-14.15-63.69 193-111.42v71.85l-178.85 103.26" fill="#8c8e90"/>
<path d="m4217.9 4035.9-33.22-19.34v-71.85l32.56 19.05 0.66 72.14" fill="#e5f6f8"/>
<path d="m4217.9 4035.9-33.22-19.34v-71.85l32.56 19.05 0.66 72.14" fill="#6f7c7f"/>
<path d="m3528.9 4428.5-28.74-16.73 22.18-12.8 6.56 29.53m109.3-67.3-5.74-25.82 325.7-188.04 7.6 34.14-26.59 15.35-8.1-4.68-0.04 9.39 0.04-9.39-292.87 169.05m375.2-207.22-7.59-34.14 178.85-103.26 33.22 19.34-204.48 118.06" fill="#e5f6f8"/>
<path d="m3528.9 4428.5-28.74-16.73 22.18-12.8 6.56 29.53m109.3-67.3-5.74-25.82 325.7-188.04 7.6 34.14-26.59 15.35-8.1-4.68-0.04 9.39 0.04-9.39-292.87 169.05m375.2-207.22-7.59-34.14 178.85-103.26 33.22 19.34-204.48 118.06" fill="#abb4b3"/>
<path d="m4371.6 4339.4-0.03-71.87 684.53-395.17v71.85l-684.5 395.19" fill="#e5f6f8"/>
<path d="m4371.6 4339.4-0.03-71.87 684.53-395.17v71.85l-684.5 395.19" fill="#8c8e90"/>
<path d="m5089.3 3963.6-33.22-19.34v-71.85l32.56 19.05 0.66 72.14" fill="#e5f6f8"/>
<path d="m5089.3 3963.6-33.22-19.34v-71.85l32.56 19.05 0.66 72.14" fill="#6f7c7f"/>
<path d="m4404.8 4358.8-33.23-19.34 684.5-395.19 33.22 19.34-684.49 395.19" fill="#e5f6f8"/>
<path d="m4404.8 4358.8-33.23-19.34 684.5-395.19 33.22 19.34-684.49 395.19" fill="#abb4b3"/>
<path d="m4371.6 4195.7-0.03-71.87 684.53-395.17v71.85l-684.5 395.19" fill="#e5f6f8"/>
<path d="m4371.6 4195.7-0.03-71.87 684.53-395.17v71.85l-684.5 395.19" fill="#8c8e90"/>
<path d="m5089.3 3819.8-33.22-19.34v-71.85l32.56 19.05 0.66 72.14" fill="#e5f6f8"/>
<path d="m5089.3 3819.8-33.22-19.34v-71.85l32.56 19.05 0.66 72.14" fill="#6f7c7f"/>
<path d="m4404.8 4215-33.23-19.34 684.5-395.19 33.22 19.34-684.49 395.19" fill="#e5f6f8"/>
<path d="m4404.8 4215-33.23-19.34 684.5-395.19 33.22 19.34-684.49 395.19" fill="#abb4b3"/>
<path d="m4371.6 4052.1-0.03-71.86 684.53-395.17v71.84l-684.5 395.19" fill="#e5f6f8"/>
<path d="m4371.6 4052.1-0.03-71.86 684.53-395.17v71.84l-684.5 395.19" fill="#8c8e90"/>
<path d="m5089.3 3676.2-33.22-19.35v-71.84l32.56 19.04 0.66 72.15" fill="#e5f6f8"/>
<path d="m5089.3 3676.2-33.22-19.35v-71.84l32.56 19.04 0.66 72.15" fill="#6f7c7f"/>
<path d="m4404.8 4071.4-33.23-19.35 684.5-395.19 33.22 19.35-684.49 395.19" fill="#e5f6f8"/>
<path d="m4404.8 4071.4-33.23-19.35 684.5-395.19 33.22 19.35-684.49 395.19" fill="#abb4b3"/>
<path d="m4371.6 3908.4-0.03-71.86 684.53-395.17v71.84l-684.5 395.19" fill="#e5f6f8"/>
<path d="m4371.6 3908.4-0.03-71.86 684.53-395.17v71.84l-684.5 395.19" fill="#8c8e90"/>
<path d="m5089.3 3532.5-33.22-19.35v-71.84l32.56 19.04 0.66 72.15" fill="#e5f6f8"/>
<path d="m5089.3 3532.5-33.22-19.35v-71.84l32.56 19.04 0.66 72.15" fill="#6f7c7f"/>
<path d="m4404.8 3927.7-33.23-19.35 684.5-395.19 33.22 19.35-684.49 395.19" fill="#e5f6f8"/>
<path d="m4404.8 3927.7-33.23-19.35 684.5-395.19 33.22 19.35-684.49 395.19" fill="#abb4b3"/>
<path d="m3804.3 3731.6 1.24-385.62c0.23-71.69-37.93-138.02-100.01-173.86l-273.02-157.59 871.19-502.99 273.95 157.34c62.1 35.67 100.39 101.82 100.39 173.44v387.1l-873.74 502.18" fill="#cac9ca"/>
<path d="m3432.5 3014.5v-71.89l62.28 35.94-62.28 35.95" fill="#9ca4aa"/>
<path d="m3804.4 3692.5 0.09-31.1 0.02-0.02-0.1 31.11-0.01 0.01" fill="#e7e6e6"/>
<path d="m3818 3723.7 0.18-39.07-13.68 7.89 0.1-31.11 40.29-23.26 13.83 62.14-6.74 3.87-33.8-19.53-0.18 39.07m88.56-50.91-8.46-38.09-23.51-13.7 803.48-463.97v72.3l-771.51 443.46" fill="#b4b3b4"/>
<path d="m2288.9 2792.2-1518.1 875.83v287.68l1518.1-875.83v-287.68" fill="#eb3620"/>
<path d="m2288.9 2792.2-1518.1 875.83v287.68l1518.1-875.83v-287.68" fill="#f26545"/>
<path d="m808.6 3832.7-14.887 8.59v101.1l14.887-8.59v-101.1" fill="#fff"/>
<path d="m845.98 3811.2-14.886 8.59v101.11l14.886-8.59v-101.11" fill="#fff"/>
<path d="m883.36 3789.6-14.886 8.59v101.1l14.886-8.59v-101.1" fill="#fff"/>
<path d="m920.74 3768-14.886 8.6v101.1l14.886-8.59v-101.11" fill="#fff"/>
<path d="m995.5 3724.9-14.887 8.58v101.11l14.887-8.59v-101.1" fill="#fff"/>
<path d="m1032.9 3703.3-14.89 8.59v101.11l14.89-8.59v-101.11" fill="#fff"/>
<path d="m1070.2 3681.8-14.88 8.59v101.1l14.88-8.59v-101.1" fill="#fff"/>
<path d="m1107.6 3660.2-14.88 8.59v101.11l14.88-8.59v-101.11" fill="#fff"/>
<path d="m1182.4 3617.1-14.89 8.59v101.11l14.89-8.59v-101.11" fill="#fff"/>
<path d="m1219.8 3595.5-14.89 8.59v101.1l14.89-8.59v-101.1" fill="#fff"/>
<path d="m1257.2 3574-14.89 8.58v101.11l14.89-8.59v-101.1" fill="#fff"/>
<path d="m1294.5 3552.4-14.89 8.59v101.1l14.89-8.59v-101.1" fill="#fff"/>
<path d="m1369.3 3509.3-14.89 8.59v101.1l14.89-8.58v-101.11" fill="#fff"/>
<path d="m1406.7 3487.7-14.88 8.59v101.1l14.88-8.59v-101.1" fill="#fff"/>
<path d="m1444 3466.1-14.89 8.59v101.11l14.89-8.59v-101.11" fill="#fff"/>
<path d="m1481.4 3444.6-14.88 8.59v101.1l14.88-8.59v-101.1" fill="#fff"/>
<path d="m1556.2 3401.4-14.89 8.59v101.1l14.89-8.59v-101.1" fill="#fff"/>
<path d="m1593.6 3379.9-14.89 8.59v101.11l14.89-8.59v-101.11" fill="#fff"/>
<path d="m1630.9 3358.3-14.89 8.59v101.1l14.89-8.59v-101.1" fill="#fff"/>
<path d="m1668.3 3336.7-14.89 8.59v101.11l14.89-8.59v-101.11" fill="#fff"/>
<path d="m1743.1 3293.6-14.88 8.58v101.11l14.88-8.59v-101.1" fill="#fff"/>
<path d="m1780.5 3272-14.89 8.59v101.11l14.89-8.59v-101.11" fill="#fff"/>
<path d="m1817.8 3250.5-14.88 8.59v101.1l14.88-8.59v-101.1" fill="#fff"/>
<path d="m1855.2 3228.9-14.89 8.59v101.11l14.89-8.59v-101.11" fill="#fff"/>
<path d="m1930 3185.8-14.89 8.59v101.11l14.89-8.59v-101.11" fill="#fff"/>
<path d="m1967.4 3164.2-14.89 8.59v101.1l14.89-8.59v-101.1" fill="#fff"/>
<path d="m2004.7 3142.7-14.89 8.59v101.11l14.89-8.59v-101.11" fill="#fff"/>
<path d="m2042.1 3121.1-14.89 8.59v101.1l14.89-8.59v-101.1" fill="#fff"/>
<path d="m2116.9 3078-14.88 8.59v101.1l14.88-8.58v-101.11" fill="#fff"/>
<path d="m2154.2 3056.4-14.88 8.59v101.1l14.88-8.59v-101.1" fill="#fff"/>
<path d="m2191.6 3034.8-14.89 8.59v101.11l14.89-8.59v-101.11" fill="#fff"/>
<path d="m2229 3013.3-14.89 8.58v101.11l14.89-8.59v-101.1" fill="#fff"/>
<path d="m958.12 3703.7-14.887 8.59v143.84l14.887-8.58v-143.85" fill="#fff"/>
<path d="m1145 3595.9-14.89 8.59v143.84l14.89-8.59v-143.84" fill="#fff"/>
<path d="m1331.9 3488.1-14.89 8.59v143.84l14.89-8.59v-143.84" fill="#fff"/>
<path d="m1518.8 3380.3-14.89 8.58v143.85l14.89-8.59v-143.84" fill="#fff"/>
<path d="m1705.7 3272.4-14.89 8.59v143.84l14.89-8.59v-143.84" fill="#fff"/>
<path d="m1892.6 3164.6-14.89 8.59v143.84l14.89-8.59v-143.84" fill="#fff"/>
<path d="m2079.5 3056.8-14.89 8.59v143.84l14.89-8.59v-143.84" fill="#fff"/>
<path d="m2266.4 2949-14.89 8.58v143.85l14.89-8.59v-143.84" fill="#fff"/>
<path d="m2353.2 3113v-286.66l-64.37-34.17v287.68l64.37 33.15" fill="#f26545"/>
<path d="m2353.2 3113-64.37-33.15v-287.68l64.37 34.17v286.66" fill="#c8553c"/>
<path d="m770.75 3955.7 64.164 37.32 1518.3-880-64.37-33.15-1518.1 875.83" fill="#f26545"/>
<path d="m834.91 3993-64.164-37.32 1518.1-875.83 64.37 33.15-1518.3 880" fill="#f8a491"/>
<path d="m6200.9 1907.7c0-17.92-5.88-30.96-15.87-38.44l-7.25-4.04-0.3-0.23c-14.34-5.95-34.17-3.28-56.14 9.46-19.6 11.51-37.68 29.14-51.56 49.04l-0.08 0.08c-17.01 24.48-27.77 52.4-27.77 76.5 0 18.39 6.18 31.66 16.63 39.06l0.61 0.38 3.36 1.91 0.23 0.15c14.49 7.47 35.39 5.26 58.58-8.24 19.91-11.59 38.29-29.52 52.17-49.81l0.46-0.68c16.55-24.11 26.93-51.49 26.93-75.14" fill="#c19769"/>
<path d="m6173.9 1982.8-5.11-1.99-0.53-0.23-43.18-25.02-55.37-32.11-681.22-394.55-540.57-313.42-0.08-0.07-7.85-4.5-105.04 63.08 2.67 1.52 1320.9 763.58 0.61 0.38 3.36 1.91 0.23 0.15c14.49 7.47 35.39 5.26 58.58-8.24 19.91-11.59 38.29-29.52 52.17-49.81l0.46-0.68" fill="#42504f"/>
<path d="m6081.5 2045.8c-7 0-13.33-1.44-18.75-4.24l-0.23-0.15-3.36-1.91-0.61-0.38-1320.2-763.19c5 2.23 10.7 3.37 16.93 3.37 11.66 0 25.21-3.99 39.67-12.4 20.43-11.89 38.99-30.5 53.02-51.38l540.57 313.41 681.14 394.63 55.45 32.03 43.18 25.02 0.53 0.23 4.65 2.67c-13.88 20.29-32.26 38.22-52.17 49.81-14.51 8.45-28.12 12.48-39.83 12.48" fill="#688380"/>
<path d="m6200.9 1907.7c0-17.92-5.88-30.96-15.87-38.44l-7.25-4.04-0.3-0.23-1323.2-763.88-1.22-0.77v0.23l-4.96 114.8v0.08l540.5 313.49 681.14 394.63 55.45 32.03 43.71 25.25 4.65 2.67 0.46-0.68c16.55-24.11 26.93-51.49 26.93-75.14" fill="#42504f"/>
<path d="m4651.6 1116.9 15.32 31.44 0.68 1.35 52.62 107.61 1.92 3.94h0.08c12.07 21.18 40.07 24.67 72.69 5.7 20.45-11.9 39.03-30.54 53.07-51.45h0.02v-0.03c15.91-23.72 25.97-50.36 25.97-73.56 0-29.37-16.06-45.61-39.83-45.41v-0.1l-130.48 2.7h-1.24l-3.16 0.12-37.3 0.79c-3.38 0.11-6.3 1.46-8.33 3.6l-1.36 1.81-1.01 1.8c-1.24 3.04-1.24 6.42 0.34 9.69" fill="#42504f"/>
<path d="m4755.3 1279.3c-14.64 0-26.3-6.31-33.02-18.1h-0.08l-1.92-3.94-52.62-107.61-0.68-1.35-15.32-31.44c-0.84-1.74-1.23-3.51-1.23-5.24 0-1.53 0.31-3.03 0.89-4.45l1.01-1.8 0.01-0.01 21.85 12.4 28.4 15.89 3.49 2.03 37.98 21.29 96 53.98 7.89 4.5h0.11-0.02c-14.04 20.91-32.62 39.55-53.07 51.45-14.46 8.41-28.01 12.4-39.67 12.4m92.76-63.88v-0.08l0.9-1.35c1.58-2.37 3.04-4.73 4.39-7.1l0.57-0.79c1.69-2.93 3.38-5.97 4.84-8.9 1.58-3.04 3.05-6.09 4.4-9.13l0.07-0.15c-4.09 9.35-9.22 18.63-15.17 27.49v0.01m16.64-30.96c0.54-1.36 1.06-2.72 1.5-4.05l0.79-1.92c2.48-6.98 4.39-13.86 5.52-20.5 0.45-2.48 0.79-4.96 1.01-7.33v-0.45c0.34-2.82 0.45-5.63 0.45-8.34 0-12.11-2.71-22-7.56-29.42 4.88 7.41 7.62 17.29 7.62 29.41 0 13.46-3.39 28.07-9.33 42.6m-11.1-83.67-0.59-0.27c-3.25-1.63-6.88-2.81-10.78-3.46 4.12 0.68 7.93 1.93 11.37 3.73m-17.27-4.31-1.38-0.02-0.75 0.01v-0.02h0.42l1.71 0.03" fill="#546a68"/>
<path d="m4652.3 1105.4 1.36-1.8c1.91-2.25 4.95-3.6 8.33-3.72l9.58-0.22 30.42-0.68h0.46v0.11h1.24l130.48-2.7v0.12c6.98-0.12 13.41 1.35 18.81 4.05l1.25 0.56c12.28 6.77 19.71 20.74 19.71 40.79 0 2.71-0.11 5.52-0.45 8.34v0.45c-0.22 2.37-0.56 4.85-1.01 7.33-1.13 6.64-3.04 13.52-5.52 20.5l-0.79 1.92c-0.79 2.37-1.81 4.84-2.82 7.21l-0.22 0.45c-1.35 3.04-2.82 6.09-4.4 9.13-1.46 2.93-3.15 5.97-4.84 8.9l-0.57 0.79c-1.35 2.37-2.81 4.73-4.39 7.1l-0.9 1.35v0.11h-0.11l-7.89-4.5-96-53.98-37.98-21.29-3.49-2.03-28.4-15.89-21.86-12.4" fill="#42504f"/>
<path d="m4848 1215.5h-0.11l-7.89-4.5-96-53.98-37.98-21.29-3.49-2.03-28.4-15.89-21.85-12.4h-0.01l1.36-1.8c1.91-2.25 4.95-3.6 8.33-3.72l9.58-0.22 30.42-0.68h0.46v0.11h1.24l130.48-2.7v0.12l0.75-0.01c6.7 0 12.85 1.45 18.06 4.06l1.25 0.56c12.28 6.77 19.71 20.74 19.71 40.79 0 2.71-0.11 5.52-0.45 8.34v0.45c-0.22 2.37-0.56 4.85-1.01 7.33-1.13 6.64-3.04 13.52-5.52 20.5l-0.79 1.92c-0.79 2.37-1.81 4.84-2.82 7.21l-0.22 0.45c-1.35 3.04-2.82 6.09-4.4 9.13-1.46 2.93-3.15 5.97-4.84 8.9l-0.57 0.79c-1.35 2.37-2.81 4.73-4.39 7.1l-0.9 1.35v0.11" fill="#364241"/>
<path d="m4651.3 1107.2 0.9-1.81h0.11l1.36-1.8c1.91-2.25 4.95-3.6 8.33-3.72l9.58-0.22 30.43-0.68h0.45v0.12l0.11 34.59v0.67l-35.61 13.98-15.32-31.44c-1.58-3.27-1.58-6.65-0.34-9.69" fill="#232324"/>
<path d="m4665.6 1141.2c0-13.41 10.88-30.61 24.29-38.41 13.42-7.8 24.29-3.25 24.29 10.16 0 13.42-10.87 30.62-24.29 38.42-13.41 7.8-24.29 3.25-24.29-10.17" fill="#232324"/>
<path d="m2442 2148.4v215.57l186.68-107.79v-215.56l-186.68 107.78" fill="#724cab"/>
<g clip-path="url(#a)">
<path d="m2442 2040.7h186.68v323.35h-186.68v-323.35z" fill="#724cab"/>
</g>
<path d="m2442 2364 186.68 107.78 186.68-107.78-186.68-107.79-186.68 107.79" fill="#724cab"/>
<path d="m2628.7 2256.2-186.68 107.79 186.68 107.78 186.68-107.78-186.68-107.79" fill="#724cab"/>
<path d="m2628.7 2256.2 186.68 107.79v-215.57l-186.68-107.78v215.56" fill="#02a59d"/>
<path d="m2628.7 2256.2 186.68 107.79v-215.57l-186.68-107.78v215.56" fill="#724cab"/>
<path d="m1821.1 4232.6v215.56l186.69-107.78v-215.56l-186.69 107.78" fill="#7996ab"/>
<path d="m1821.1 4448.2 186.69 107.78 186.68-107.78-186.68-107.78-186.69 107.78" fill="#a7bbc9"/>
<path d="m2007.8 4340.4 186.68 107.78v-215.56l-186.68-107.78v215.56" fill="#02a59d"/>
<path d="m2007.8 4340.4 186.68 107.78v-215.56l-186.68-107.78v215.56" fill="#5a7b97"/>
<path d="m1696.1 3800.1v215.56l186.69-107.78v-215.56l-186.69 107.78" fill="#d1274e"/>
<path d="m1696.1 4015.7v-215.56l186.69-107.78v215.56l-186.69 107.78" fill="#e4346a"/>
<path d="m1696.1 4015.7 186.69 107.79 186.68-107.79-186.68-107.78-186.69 107.78" fill="#d1274e"/>
<path d="m1882.8 4123.5-186.69-107.79 186.69-107.78 186.68 107.78-186.68 107.79" fill="#f14488"/>
<path d="m1882.8 3907.9 186.68 107.78v-215.56l-186.68-107.78v215.56" fill="#d1274e"/>
<path d="m1385.9 4987.8-496.8-287.98 0.231-574.97 496.56 287.85v575.1" fill="#71cfc8"/>
<path d="m1385.9 4987.8-496.8-287.98 0.231-574.97 496.56 287.85v575.1" fill="#43b2ab"/>
<path d="m1284.5 4535.4c0 32.85-26.63 44.15-59.48 25.24s-59.48-60.86-59.48-93.71 26.63-44.15 59.48-25.24 59.48 60.86 59.48 93.71" fill="#fff"/>
<path d="m1284.5 4767.5c0 32.85-26.63 44.15-59.48 25.24s-59.48-60.87-59.48-93.72 26.63-44.15 59.48-25.24 59.48 60.87 59.48 93.72" fill="#fff"/>
<path d="m1092.3 4540.8c0 32.85-26.63 44.15-59.48 25.24s-59.479-60.87-59.479-93.72c0-32.84 26.629-44.14 59.479-25.23 32.85 18.9 59.48 60.86 59.48 93.71" fill="#fff"/>
<path d="m1045.1 4527.4-18.75-41.85 186.41-5.3 18.75 41.85-186.41 5.3" fill="#fff"/>
<path d="m1212.8 4740-186.41-219.91 18.75-20.27 186.41 219.92-18.75 20.26" fill="#fff"/>
<path d="m1695.9 1574.3 498.45 287.06 497.19-287.06-497.75-287.33-497.89 287.33" fill="#fff"/>
<path d="m1695.9 1574.3v-71.85l498.17-287.62 497.47 287.62v71.85l-497.75-287.33-497.89 287.33" fill="#e9eae9"/>
<path d="m2193.8 1287 0.28-72.14 497.47 287.62v71.85l-497.75-287.33" fill="#d5d1d3"/>
<path d="m889.3 4124.9-63.981 37.47v572.5l63.75-35 0.231-574.97" fill="#71cfc8"/>
<path d="m4462.4 2132.3 0.14-71.09-0.14 71.09" fill="#868d8f"/>
<path d="m4495.8 2041.5v71.57l684.45 395.15v-71.9l-684.45-394.82" fill="#6d7175"/>
<path d="m4495.8 2041.5v71.57l684.45 395.15v-71.9l-684.45-394.82" fill="#aae1e8"/>
<path d="m4462.4 2132.3 684.44 395.25-684.44-395.25" fill="#5c9cd5"/>
<path d="m4462.4 2132.3 684.44 395.25-684.44-395.25" fill="#aae1e8"/>
<path d="m4462.4 2132.3 684.44 395.25 33.48-19.31-33.48 19.31-684.44-395.25" fill="#abadac"/>
<path d="m4462.4 2132.3 684.44 395.25 33.48-19.31-33.48 19.31-684.44-395.25" fill="#aae1e8"/>
<path d="m4495.8 2041.5-33.33 19.69-0.14 71.09 0.14-71.09 33.33-19.69" fill="#5c9cd5"/>
<path d="m4495.8 2041.5-33.33 19.69-0.14 71.09 0.14-71.09 33.33-19.69" fill="#d5f0f3"/>
<path d="m4495.8 2041.5-33.33 19.69-0.14 71.09 33.47-19.21v-71.57" fill="#868d8f"/>
<path d="m4495.8 2041.5-33.33 19.69-0.14 71.09 33.47-19.21v-71.57" fill="#d5f0f3"/>
<path d="m4462.5 2061.2-0.14 71.09 0.14-71.09m-0.14 71.09" fill="#868d8f"/>
<path d="m4462.5 2061.2-0.14 71.09 0.14-71.09m-0.14 71.09" fill="#d5f0f3"/>
<path d="m4495.8 2113.1-33.47 19.21 684.44 395.25 33.48-19.31-684.45-395.15" fill="#abadac"/>
<path d="m4495.8 2113.1-33.47 19.21 684.44 395.25 33.48-19.31-684.45-395.15" fill="#d5f0f3"/>
<path d="m4462.4 2132.3z" fill="#abadac"/>
<path d="m4462.4 2132.3z" fill="#d5f0f3"/>
<path d="m4372.5 2112.4v71.56l684.45 395.16v-71.91l-684.45-394.81" fill="#6d7175"/>
<path d="m4372.5 2112.4v71.56l684.45 395.16v-71.91l-684.45-394.81" fill="#aae1e8"/>
<path d="m4372.5 2112.4-33.33 19.68-0.14 71.09 33.47-19.21v-71.56" fill="#868d8f"/>
<path d="m4372.5 2112.4-33.33 19.68-0.14 71.09 33.47-19.21v-71.56" fill="#d5f0f3"/>
<path d="m4372.5 2183.9-33.47 19.21 684.44 395.25 33.48-19.3-684.45-395.16" fill="#abadac"/>
<path d="m4372.5 2183.9-33.47 19.21 684.44 395.25 33.48-19.3-684.45-395.16" fill="#d5f0f3"/>
<path d="m5304.8 2435.7v-71.9l-684.45-394.82 684.45 394.82v71.9" fill="#6d7175"/>
<path d="m4620.3 1969v71.57l684.45 395.15v-71.9l-684.45-394.82" fill="#6d7175"/>
<path d="m4620.3 1969v71.57l684.45 395.15v-71.9l-684.45-394.82" fill="#aae1e8"/>
<path d="m4620.3 1969 684.45 394.82v71.9-71.9l-684.45-394.82" fill="#6d7175"/>
<path d="m4620.3 1969 684.45 394.82v71.9-71.9l-684.45-394.82" fill="#aae1e8"/>
<path d="m4587 1988.7-0.14 71.09 684.44 395.25-684.44-395.25 0.14-71.09" fill="#5c9cd5"/>
<path d="m4587 1988.7-0.14 71.09 684.44 395.25-684.44-395.25 0.14-71.09" fill="#aae1e8"/>
<path d="m5304.8 2435.7" fill="#6d7175"/>
<path d="m5304.8 2435.7" fill="#aae1e8"/>
<path d="m4620.3 1969-33.34 19.69-0.14 71.09 33.48-19.21v-71.57" fill="#868d8f"/>
<path d="m4620.3 1969-33.34 19.69-0.14 71.09 33.48-19.21v-71.57" fill="#d5f0f3"/>
<path d="m4620.3 1969" fill="#6d7175"/>
<path d="m4620.3 1969" fill="#d5f0f3"/>
<path d="m4620.3 2040.6-33.48 19.21 684.44 395.25 33.49-19.31-684.45-395.15" fill="#abadac"/>
<path d="m4620.3 2040.6-33.48 19.21 684.44 395.25 33.49-19.31-684.45-395.15" fill="#d5f0f3"/>
<path d="m5304.8 2435.7" fill="#6d7175"/>
<path d="m5304.8 2435.7" fill="#d5f0f3"/>
<path d="m6201.2 1907.7c0-17.71-5.7-30.51-15.4-38.01l-0.2-0.19-7.5-4.3-0.3-0.21-83.3-48.1c9.9 7.5 15.7 20.4 15.7 38.21 0 23.59-10.4 50.99-27 75.1l-0.4 0.69c-13.9 20.3-32.3 38.2-52.2 49.8-23.1 13.5-43.9 15.71-58.4 8.3l93.5 53.61c14.3 6.09 34.1 3.39 55.9-9.3 20-11.61 38.3-29.51 52.2-49.81l0.5-0.7c16.5-24.1 26.9-51.5 26.9-75.09" fill="#c6738c"/>
<path d="m6094.3 1816.7 0.23 0.23-4.91-2.84 4.68 2.61" fill="#a7bbc9"/>
<path d="m5971.8 1988.8-3.36-1.91-0.61-0.38 4.4 2.53-0.2-0.09-0.23-0.15" fill="#a7bbc9"/>
<path d="m6086.7 1812.4 2.87 1.66-2.57-1.43-0.3-0.23" fill="#a7bbc9"/>
<path d="m6046.3 2031.9 11.5 6.6-1.3-1.1-7.8-4.5-2.4-1" fill="#c6738c"/>
<path d="m6168.8 1860 12.5 7.2-12.7-7.4 0.2 0.2" fill="#c6738c"/>
<path d="m6168.4 1859.6 0.23 0.23-4.91-2.84 4.68 2.61" fill="#a7bbc9"/>
<path d="m6045.9 2031.7-3.36-1.91-0.61-0.38 4.41 2.53-0.21-0.09-0.23-0.15" fill="#a7bbc9"/>
<path d="m6160.8 1855.3 2.87 1.66-2.57-1.43-0.3-0.23" fill="#a7bbc9"/>
<path d="m3183.7 1720.7 498.45 287.06 497.2-287.06-497.76-287.33-497.89 287.33" fill="#d1274e"/>
<path d="m3682.1 2007.7-498.45-287.06 497.89-287.33 497.76 287.33-497.2 287.06" fill="#f14488"/>
<path d="m3183.7 1720.7v-71.85l498.17-287.62 497.48 287.62v71.85l-497.76-287.33-497.89 287.33" fill="#d1274e"/>
<path d="m3820.1 1793-36.62-74.62 86.81-69.47-135.52 8.3-72.28-62.15-47.13 79.75-131.49 31.06 106.4 40.99-8.99 81.35 112.89-54.43 125.93 19.22" fill="#fff"/>
<path d="m3183.7 1720.7v-71.85l498.17-287.62-0.28 72.14-497.89 287.33" fill="#e4346a"/>
<path d="m1133.1 2561.7 498.45 287.06 497.19-287.06-497.76-287.33-497.88 287.33" fill="#4765af"/>
<path d="m1631 2274.4-497.88 287.33 498.45 287.06 497.19-287.06-497.76-287.33" fill="#4765af"/>
<path d="m1133.1 2561.7v-71.85l498.16-287.62 497.48 287.62v71.85l-497.76-287.33-497.88 287.33" fill="#27418c"/>
<path d="m1610.9 2682.3 208.91-120.62c13.34-7.7 13.34-26.94 0-34.64l-146.69-84.69c-6.18-3.57-13.8-3.58-19.98-0.01l-111.76 64.39-97.35 56.11c-13.35 7.69-13.36 26.94-0.02 34.65l146.89 84.81c6.19 3.57 13.82 3.57 20 0" fill="#fff"/>
<path d="m1538.6 2436.5 62.16 35.89-59.46 34.26-2.7-70.15" fill="#fff"/>
<path d="m1631.3 2202.2-498.16 287.62v71.85l497.88-287.33 0.28-72.14" fill="#3c4c97"/>
<path d="m3494.8 2978.5-62.27-35.94 871.25-502.97-871.22 502.96 62.26 35.94-0.02 0.01" fill="#eaecec"/>
<path d="m3494.8 2978.5-62.26-35.94 871.22-502.96-0.03 71.87-808.93 467.03" fill="#aeb5b9"/>
<path d="m3432.5 3014.5v-71.89l62.27 35.94-62.27 35.95" fill="#aeb5b9"/>
<path d="m3584.6 4678.9 61.71 36.32 62.5-36.33-184-828.31-62.02-36.14 184.31 828.13-62.5 36.33" fill="#4d3630"/>
<path d="m3557.6 4479.6v-71.86l373.46-215.57-0.34 72.04-373.12 215.39" fill="#6b5043"/>
<path d="m3557.6 4479.6 61.58 35.55 374.07-215.19v-71.85l-62.19-35.94-0.34 72.04-373.12 215.39" fill="#4d3630"/>
<path d="m3666.6 4488-0.04-0.03 325.74-187.38-325.7 187.41" fill="#fff"/>
<path d="m3666.6 4488-0.04-0.03 325.74-187.38-325.7 187.41" fill="#d3cfc9"/>
<path d="m3604.8 4452.4-0.04-0.02 326-188.14-325.96 188.16" fill="#ad8d78"/>
<path d="m3666.5 4487.9-61.75-35.55 325.96-188.16 0.34-72.04 42.54 24.58 18.65 83.79-325.74 187.38" fill="#9b7969"/>
<path d="m3501 4226.1v-71.86l373.46-215.57-0.33 72.04-373.13 215.39" fill="#6b5043"/>
<path d="m3501 4226.1 61.58 35.55 374.08-215.19v-71.85l-62.2-35.94-0.33 72.04-373.13 215.39" fill="#4d3630"/>
<path d="m3610 4234.4-0.02-0.07 325.8-187.41-325.78 187.48" fill="#fff"/>
<path d="m3610 4234.4-0.02-0.07 325.8-187.41-325.78 187.48" fill="#fff"/>
<path d="m3610 4234.4-0.06-0.03 0.09-0.06 0.02 0.07-0.05 0.02" fill="#9b7969"/>
<path d="m3609.9 4234.4-61.56-35.38 325.72-188.3 0.33-72.04 42.81 24.73 18.59 83.52-325.8 187.41-0.09 0.06" fill="#9b7969"/>
<path d="m3957.8 4463 61.71 36.32 62.5-36.32-184-828.31-62.03-36.14 184.32 828.12-62.5 36.33" fill="#4d3630"/>
<path d="m3400.5 3850.7 62.29-36.23 184.31 828.13-62.5 36.33-184.1-828.23" fill="#6b5043"/>
<path d="m3587.2 4680.4-2.59-1.52 2.58-1.5 0.01 3.02" fill="#9b7969"/>
<path d="m4019.6 4499.3-52.78-31.07-8.93-5.25 62.5-36.33 61.71 36.33-62.5 36.32" fill="#9b7969"/>
<path d="m3471.6 4171.4 61.71 36.33 62.5-36.33-325.17-1464.4-62.02-36.14 325.48 1464.2-62.5 36.33" fill="#4d3630"/>
<path d="m3444.7 3972.1v-71.86l373.46-215.57-0.34 72.04-373.12 215.39" fill="#6b5043"/>
<path d="m3378.7 3435.7-30.63-54.28 373.47-215.57-0.34 72.04-342.5 197.81" fill="#6b5043"/>
<path d="m3322 3180.7-36.15-51.28 373.47-215.57-0.34 72.04-336.98 194.81" fill="#6b5043"/>
<path d="m3435.4 3691.4-13.85-64.03 339.89-196.25-0.33 72.05-325.71 188.23" fill="#6b5043"/>
<path d="m3265.3 2926.5-41.86-47.96 373.47-215.58-0.34 72.04-331.27 191.5" fill="#6b5043"/>
<path d="m3265.3 2926.5 61.26 35.84 332.53-191.58v-71.86l-62.18-35.94-0.34 72.04-331.27 191.5" fill="#4d3630"/>
<path d="m3444.7 3972.1 61.57 35.55 374.08-215.19v-71.85l-62.19-35.94-0.34 72.04-373.12 215.39" fill="#4d3630"/>
<path d="m3435.4 3691.4 61.57 35.55 326.66-188.03v-71.85l-62.19-35.95-0.33 72.05-325.71 188.23" fill="#4d3630"/>
<path d="m3378.7 3435.7 61.87 35.63 343.16-197.68v-71.86l-62.19-35.94-0.34 72.04-342.5 197.81" fill="#4d3630"/>
<path d="m3322 3180.7 61.67 35.42 337.84-194.47v-71.86l-62.19-35.94-0.34 72.04-336.98 194.81" fill="#4d3630"/>
<path d="m3553.4 3980.4-61.9-35.44 326.24-188.34 0.34-72.04 62.19 35.94v71.85l-326.87 188.03" fill="#9b7969"/>
<path d="m3497 3726.9-61.57-35.55 325.71-188.23 0.33-72.05 62.19 35.95v71.85l-18.74 10.79-307.92 177.24" fill="#9b7969"/>
<path d="m3440.5 3471.3-0.17-0.1-61.7-35.53 342.5-197.81 0.34-72.04 62.19 35.94v71.86l-343.16 197.68" fill="#9b7969"/>
<path d="m3383.7 3216.1-61.67-35.42 336.98-194.81 0.34-72.04 62.19 35.94v71.86l-138.5 79.72-199.34 114.75" fill="#9b7969"/>
<path d="m3326.6 2962.3-61.26-35.84 331.27-191.5 0.34-72.04 62.18 35.94v71.86l-332.53 191.58" fill="#9b7969"/>
<path d="m3844.9 3955.5 61.71 36.32 62.5-36.33-325.17-1464.4-62.02-36.14 325.48 1464.3-62.5 36.33" fill="#4d3630"/>
<path d="m3146.4 2707 62.59-36.22 361.89 1629.9-99.21-129.31-325.27-1464.4" fill="#6b5043"/>
<path d="m3512 4220v-71.86l373.46-215.57-0.33 72.04-373.13 215.39" fill="#6b5043"/>
<path d="m3519.6 2491.1 62.29-36.22 381.73 1719.2-118.75-218.59-325.27-1464.4" fill="#6b5043"/>
<path d="m3539 3972.4 14.41 8.09 2.85 12-50.11 16.71-3.37-15.25 36.22-21.55" fill="#4d3630"/>
<path d="m3773.7 3634.8 62.29-36.22 184.32 828.12-62.5 36.33-184.11-828.23" fill="#6b5043"/>
<path d="m3565 5016.4 9.98 6 61.98 36.08 12.4-7.16 62.67-36.22-62.67-35.58-61.63 35.57-0.02-0.02-2.89 1.66-16.34-7.58-3.48 7.25" fill="#0b90bf"/>
<path d="m3637 5058.5-61.98-36.08-9.98-6 3.48-7.25 16.34 7.58 2.89-1.66 0.02 0.02 61.48-35.48 0.1 71.66 44.08-25.44 0.03 0.03-44.06 25.46-12.4 7.16m64.76-37.42 10.31-5.96-10.31 5.96" fill="#0b90bf"/>
<path d="m3773.8 4907.6v-431.13l-186.73 107.62 0.62 430.97 186.11-107.46" fill="#4fc5de"/>
<path d="m3835.4 4943.8v-431.13l-186.73 107.61 0.62 430.97 186.11-107.45" fill="#4fc5de"/>
<path d="m3773.8 4476.5v-431.13l-96.1 55.26v431.12l96.1-55.25" fill="#4e4e55"/>
<path d="m3677.7 4531.7v-431.13l-90.63 52.81v431.13l90.63-52.81" fill="#4e4e55"/>
<path d="m3835.5 4943.8v-431.1l-61.6 35.6v359.3l61.6 36.2" fill="#0b90bf"/>
<path d="m3773.5 4548.2 0.4-0.2 61.6-35.3-61.6-36.2-0.4 71.7" fill="#0b90bf"/>
<path d="m3660.6 4110.5 34.17-19.86v431.12l-34.17 19.87v-431.13" fill="#2e281d"/>
<path d="m3773.8 4907.6 113.21-92.07c6.44-5.24 15.46-5.95 22.65-1.78l112.36 65.13v-41.54l-112.43-65.07c-7.15-4.14-16.12-3.45-22.56 1.73l-113.19 91.13-0.04 42.47" fill="#4fc5de"/>
<path d="m3712 5015.1 123.43-71.33-61.6-36.2-124.5 71.95 62.67 35.58" fill="#0b90bf"/>
<path d="m3959.1 4914.4 62.91-35.52-112.36-65.13c-7.19-4.17-16.21-3.46-22.65 1.78l-113.21 92.07 61.64 36.16 51.1-53.53c6.36-6.66 16.45-8.12 24.44-3.52l48.13 27.69" fill="#0b90bf"/>
<path d="m3693.4 5025.8-0.03-0.03 18.6-10.75 0.04 0.02-10.31 5.96-8.3 4.8" fill="#0b90bf"/>
<path d="m3693.4 5025.8-44.03-46.31 62.63 35.56-18.6 10.75" fill="#7bd4e5"/>
<path d="m3693.4 5025.8-44.03-46.31 62.63 35.56-18.6 10.75" fill="#fff"/>
<path d="m3712 5015.1-0.04-0.02-62.63-35.56 124.5-71.95-0.04 0.04 61.64 36.16-123.43 71.33" fill="#0b90bf"/>
<path d="m3835.5 4943.8-61.64-36.16 113.21-92.07c3.65-2.96 8.12-4.48 12.62-4.48 3.45 0 6.91 0.89 10.03 2.7l112.36 65.13-62.91 35.52-48.13-27.69c-3.12-1.8-6.56-2.67-9.97-2.67-5.33 0-10.6 2.13-14.47 6.19l-51.1 53.53" fill="#0b90bf"/>
<path d="m3992.1 4932.7-32.22-18.05 62.45-36.06 32.68 18.59-62.91 35.52" fill="#f0ccab"/>
<path d="m4022.4 4878.6 32.65 18.59v-41.54l-32.65-18.54v41.49" fill="#f0ccab"/>
<path d="m3587.2 4584.1-31.94 17.9v32.17l31.87-17.55 0.07-32.52" fill="#f0ccab"/>
<path d="m3819.5 4125.3 62.51 35.64-62.51 36.93v-72.57" fill="#2e281d"/>
<path d="m3849.5 4161.1-75.68-43.87v-71.84l124.11 72.04v15.76c0 24.85-26.93 40.37-48.43 27.91" fill="#2e281d"/>
<path d="m3835.4 4512.7v-431.76l-61.6-35.56v431.13l61.6 36.19" fill="#2e281d"/>
<path d="m3823.3 5131.6-99.49 56.89-76.24-42.19c-12.63-6.99-20.52-20.25-20.63-34.69l-0.89-118.34 103.04-59.79 59.11 33.98c21.71 12.49 35.1 35.63 35.1 60.69v103.45" fill="#201f1e"/>
<path d="m3823.3 5107.3-52.59-30.66c-12.29-7.17-19.84-20.33-19.84-34.56v-96.36l37.46 21.65c21.64 12.51 34.97 35.61 34.97 60.6v79.33" fill="#f0ccab"/>
<path d="m3743.2 5199.9 99.34-57.32v-1.72c0-13.81-7.31-26.59-19.23-33.58v24.23l-99.49 56.89 19.38 11.5" fill="#201f1e"/>
<path d="m3555.2 4633.8 32.49-18.21v399.44l-2.4 1.4c-13.33 7.79-30.09-1.82-30.09-17.27v-365.36" fill="#4fc5de"/>
<path d="m825.32 4734.8 500.01 287.5 60.54-34.52-496.8-287.98-63.75 35" fill="#71cfc8"/>
<path d="m1325.3 5022.3-500.01-287.5 63.75-35 496.8 287.98-60.54 34.52" fill="#a8e2dd"/>
<path d="m2380.3 4196.2 186.68 107.78 186.69-107.78-186.69-107.79-186.68 107.79" fill="#d1274e"/>
<path d="m2380.3 4196.2 186.68 107.78 186.69-107.78-186.69-107.79-186.68 107.79" fill="#fff"/>
<path d="m2567 4088.4 186.69 107.79v-215.57l-186.69-107.78v215.56" fill="#d5d1d3"/>
<path d="m2380.3 3980.7v215.57l186.68-107.79v-215.56l-186.68 107.78" fill="#e9eae9"/>
<path d="m5118.6 1898.4v215.57l186.69-107.79v-215.56l-186.69 107.78" fill="#6ac32f"/>
<path d="m5305.3 1790.7-186.69 107.78v215.57l186.69-107.79v-215.56" fill="#b5e089"/>
<path d="m5305.3 1790.7-186.69 107.78v215.57l186.69-107.79v-215.56" fill="#d9efb3"/>
<path d="m5118.6 2114 186.69 107.78 186.68-107.78-186.68-107.79-186.69 107.79" fill="#99d648"/>
<path d="m5305.3 2221.8-186.69-107.78 186.69-107.79 186.68 107.79-186.68 107.78" fill="#b3e070"/>
<path d="m5305.3 2006.2 186.68 107.79v-215.57l-186.68-107.78v215.56" fill="#02a59d"/>
<path d="m5305.3 2006.2 186.68 107.79v-215.57l-186.68-107.78v215.56" fill="#6ac32f"/>
<path d="m5305.3 2006.2 186.68 107.79v-215.57l-186.68-107.78v215.56" fill="#6ac32f"/>
<path d="m6175.5 1358.5 498.45 287.05 497.2-287.05-497.76-287.33-497.89 287.33" fill="#f03470"/>
<path d="m6175.5 1358.5v-71.86l498.17-287.62 497.48 287.62v71.86l-497.76-287.33-497.89 287.33" fill="#d21c2d"/>
<path d="m2008.7 3515.7 498.45 287.06 497.2-287.06-497.76-287.33-497.89 287.33" fill="#f0ba50"/>
<path d="m2507.1 3802.7-498.45-287.06 497.89-287.33 497.76 287.33-497.2 287.06" fill="#f7d89a"/>
<path d="m2008.7 3515.7v-71.86l498.17-287.61 497.48 287.61v71.86l-497.76-287.33-497.89 287.33" fill="#f0ba50"/>
<path d="m2488.8 3524.6-173.63-27.6c0.77 0.6 1.65 1.26 2.62 1.86l218.77 135.6c0.97 0.6 2.04 1.15 3 1.63l-38.21-103.71c-1.36-3.75-6.34-6.84-12.55-7.78" fill="#fff"/>
<path d="m2569.7 3631.7 113.96-66.03c10.67-6.19 9.66-17.28-2.23-24.65l-210.89-130.7c-11.9-7.38-30.36-8.35-41.03-2.17l-113.96 66.03c-2.33 1.35-4.23 2.97-5.29 4.75l175.13 26.66c9.22 1.41 17.65 4.43 24.25 8.52s11.35 9.24 13.39 14.81l38.57 105.79c3.01-0.58 5.77-1.66 8.1-3.01" fill="#fff"/>
<path d="m3004.3 3515.7-497.76-287.33 0.28-72.14 497.48 287.61v71.86" fill="#c29a46"/>
<path d="m6175.1 1320.9v-34.25l498.17-287.62v0.203l-497.82 287.42v34.05l-0.35 0.2" fill="#f6f7f7"/>
<path d="m6175.5 1320.7v-34.05l497.82-287.42-0.28 71.249-31.87-18.43-0.35 0.2v-0.2l-465.32 268.65" fill="#db4b48"/>
<path d="m6143 1411.5 498.45 287.06 497.2-287.06-497.76-287.33-497.89 287.33" fill="#4765af"/>
<path d="m6206.2 1447.9-63.2-36.4 497.89-287.33 497.76 287.33-0.59 0.34-434.39-251.15-497.47 287.21" fill="#6f80c0"/>
<path d="m6143 1411.5v-71.85l498.17-287.62 497.48 287.62v71.85l-497.76-287.33-497.89 287.33" fill="#27418c"/>
<path d="m6205.5 1520.1 498.45 287.06 497.2-287.06-497.76-287.33-497.89 287.33" fill="#59c7bd"/>
<path d="m6703.9 1807.2-498.45-287.06 497.89-287.33 497.76 287.33-497.2 287.06" fill="#93dad0"/>
<path d="m6205.5 1520.1v-71.85l498.17-287.62 497.48 287.62v71.85l-497.76-287.33-497.89 287.33" fill="#02a59d"/>
<path d="m6890.2 1487.4c-1.44 16.01-13.65 31.06-32.1 42.49-18.44 11.44-43.13 19.26-69.92 20.76l-28.53 1.51-1.55 17.14c-1.44 16.01-13.65 31.05-32.09 42.49-18.45 11.43-43.13 19.26-69.93 20.76-53.42 2.74-94.41-20.99-91.53-53.01l1.57-17.3 1.31-14.55 1.91-21.18 7.26-80.52 133.92-7.01 35.39-1.79 24.22-1.28 28.54-1.51c53.44-2.91 94.43 20.83 91.53 53" fill="#fff"/>
<path d="m6205.5 1520.1v-71.85l498.17-287.62-0.28 72.14-497.89 287.33" fill="#5ac3b4"/>
<path d="m6142.6 1411.5v-71.85l32.5-18.77v0.2l-32.15 18.57v71.65l-0.35 0.2" fill="#f6f7f7"/>
<path d="m6175.1 1321.1v-0.2l0.35-0.2v0.2l-0.35 0.2" fill="#f0f1f0"/>
<path d="m6175.5 1320.9v-0.2l465.32-268.65v0.2l-465.32 268.65" fill="#e37367"/>
<path d="m6175.5 1320.9v-0.2l465.32-268.65v0.2l-465.32 268.65" fill="#fff"/>
<path d="m6143 1411.3v-71.65l32.15-18.57 0.35-0.2 465.32-268.65-0.28 71.94-497.54 287.13" fill="#525ba2"/>
<path d="m3836 3598.6-62.29 36.22 184.11 828.23 62.5-36.33-184.32-828.12" fill="#6b5043"/>
</g>
</g>
</g>
</svg>
