<?xml version="1.0" encoding="UTF-8" standalone="no"?>
<!-- Created with Inkscape (http://www.inkscape.org/) -->

<svg
   xmlns:dc="http://purl.org/dc/elements/1.1/"
   xmlns:cc="http://creativecommons.org/ns#"
   xmlns:rdf="http://www.w3.org/1999/02/22-rdf-syntax-ns#"
   xmlns:svg="http://www.w3.org/2000/svg"
   xmlns="http://www.w3.org/2000/svg"
   xmlns:sodipodi="http://sodipodi.sourceforge.net/DTD/sodipodi-0.dtd"
   xmlns:inkscape="http://www.inkscape.org/namespaces/inkscape"
   id="svg4762"
   version="1.1"
   inkscape:version="0.91 r13725"
   xml:space="preserve"
   width="200"
   height="150"
   viewBox="0 0 200 150"
   sodipodi:docname="instructor.svg"><metadata
     id="metadata4768"><rdf:RDF><cc:Work
         rdf:about=""><dc:format>image/svg+xml</dc:format><dc:type
           rdf:resource="http://purl.org/dc/dcmitype/StillImage" /><dc:title></dc:title></cc:Work></rdf:RDF></metadata><defs
     id="defs4766"><clipPath
       clipPathUnits="userSpaceOnUse"
       id="clipPath5030"><path
         d="m 10558.2,1465.54 -641.36,0 0,1005.82 c 0,152.89 123.96,276.84 276.86,276.84 l 1.5,0 c -153,0 -276.92,-123.95 -276.92,-276.84 l 0,-1005.82 639.92,0"
         id="path5032"
         inkscape:connector-curvature="0" /></clipPath><clipPath
       clipPathUnits="userSpaceOnUse"
       id="clipPath5376"><path
         d="m 2743.1,1465.54 -641.34,0 0,1005.82 c 0,152.89 123.95,276.84 276.85,276.84 l 1.46,0 c -152.9,0 -276.85,-123.95 -276.85,-276.84 l 0,-1005.82 639.88,0"
         id="path5378"
         inkscape:connector-curvature="0" /></clipPath></defs><sodipodi:namedview
     pagecolor="#ffffff"
     bordercolor="#666666"
     borderopacity="1"
     objecttolerance="10"
     gridtolerance="10"
     guidetolerance="10"
     inkscape:pageopacity="0"
     inkscape:pageshadow="2"
     inkscape:window-width="1301"
     inkscape:window-height="744"
     id="namedview4764"
     showgrid="false"
     fit-margin-top="0"
     fit-margin-left="0"
     fit-margin-right="0"
     fit-margin-bottom="0"
     inkscape:zoom="2.4025436"
     inkscape:cx="138.3804"
     inkscape:cy="76.111723"
     inkscape:window-x="65"
     inkscape:window-y="24"
     inkscape:window-maximized="1"
     inkscape:current-layer="g4770" /><g
     id="g4770"
     inkscape:groupmode="layer"
     inkscape:label="ink_ext_XXXXXX"
     transform="matrix(1.25,0,0,-1.25,-28.055843,151.93266)"><g
       id="g5997"
       transform="matrix(0.18699739,0,0,0.16355161,-187.67034,-13.857377)"><path
         d="m 1307.8368,464.75182 c 0.111,-1.6733 0.2307,-3.34222 0.3811,-5.0053 l 1.9901,0.1723 c -0.1402,1.64993 -0.2701,3.30279 -0.3811,4.96295 l -1.9901,-0.12995 m 1.4718,-14.98668 c 0.2088,-1.66307 0.4497,-3.32031 0.7096,-4.97024 l 1.9697,0.3037 c -0.2497,1.63679 -0.4804,3.27797 -0.7009,4.92645 l -1.9784,-0.25991 m 2.4486,-14.85818 c 0.33,-1.64555 0.6702,-3.28235 1.0309,-4.9133 l 1.9594,0.43365 c -0.3606,1.61636 -0.7096,3.24001 -1.0294,4.8695 l -1.9609,-0.38985 m 3.4298,-14.66398 c 0.4308,-1.61928 0.8907,-3.23125 1.3609,-4.83446 l 1.9098,0.56215 c -0.4599,1.59007 -0.9097,3.18598 -1.3404,4.79065 l -1.9303,-0.51834 m 4.3906,-14.40555 c 0.5505,-1.59153 1.1097,-3.17576 1.6791,-4.74977 l 1.8807,0.68918 c -0.5695,1.56087 -1.1302,3.12904 -1.6704,4.70743 l -1.8894,-0.64684 m 5.3601,-14.11936 c 0.6498,-1.54918 1.3097,-3.09107 1.9902,-4.6242 l 1.8295,0.81329 c -0.679,1.51852 -1.3389,3.04581 -1.9799,4.58186 l -1.8398,-0.77095 m 6.28,-13.72512 c 0.7403,-1.50101 1.5098,-2.99471 2.2895,-4.47819 l 1.7696,0.93009 c -0.7695,1.4718 -1.5287,2.95237 -2.269,4.44023 l -1.7901,-0.89213 m 7.1706,-13.27104 c 0.8396,-1.44989 1.6996,-2.88811 2.5786,-4.31611 l 1.701,1.04691 c -0.8702,1.41485 -1.72,2.83993 -2.5595,4.27669 l -1.7201,-1.00749 m 8.019,-12.76436 c 0.9403,-1.38858 1.8909,-2.76693 2.8604,-4.1336 l 1.6295,1.15495 c -0.9593,1.35499 -1.8996,2.72166 -2.8297,4.0971 l -1.6602,-1.11845 m 8.8498,-12.20369 c 1.0206,-1.32433 2.0602,-2.63551 3.1203,-3.93502 l 1.5506,1.26008 c -1.041,1.28783 -2.0806,2.5888 -3.091,3.90144 l -1.5799,-1.2265 m 9.6207,-11.59335 c 1.1097,-1.25278 2.2296,-2.49389 3.37,-3.72185 l 1.4703,1.36084 c -1.1301,1.21774 -2.2398,2.4457 -3.3407,3.68826 l -1.4996,-1.32725 m 10.3596,-10.93484 c 1.19,-1.17686 2.3902,-2.33911 3.6006,-3.48969 l 1.3799,1.45282 c -1.2105,1.14036 -2.4005,2.29385 -3.5803,3.45903 l -1.4002,-1.42216 m 11.04,-10.2296 c 1.2703,-1.09509 2.5406,-2.17558 3.8298,-3.24439 l 1.2806,1.54043 c -1.2806,1.05713 -2.5406,2.13032 -3.8007,3.21518 l -1.3097,-1.51122 m 11.6897,-9.4791 c 1.3301,-1.0104 2.6808,-2.00474 4.0299,-2.98594 l 1.171,1.61781 c -1.3404,0.9739 -2.6705,1.95948 -3.9905,2.96112 l -1.2104,-1.59299 m 12.2796,-8.69209 c 1.3915,-0.91988 2.8005,-1.82369 4.211,-2.71291 l 1.0702,1.69228 c -1.4002,0.88192 -2.8005,1.77843 -4.1803,2.68954 l -1.1009,-1.66891 m 12.8198,-7.86275 c 1.4514,-0.82497 2.9115,-1.63533 4.3804,-2.42818 l 0.9505,1.75799 c -1.4601,0.78846 -2.91,1.59153 -4.3394,2.40773 l -0.9915,-1.73754 m 13.3003,-6.99689 c 1.501,-0.72714 3.0107,-1.43968 4.5307,-2.1347 l 0.8308,1.81931 c -1.5112,0.68918 -3.0005,1.39295 -4.4913,2.11425 l -0.8702,-1.79886 m 13.7207,-6.10331 c 1.5507,-0.62785 3.1101,-1.2411 4.6797,-1.83537 l 0.7096,1.87042 c -1.5594,0.58989 -3.0998,1.19584 -4.6388,1.81785 l -0.7505,-1.8529 m 14.1354,-5.19364 c 1.5916,-0.52419 3.1831,-1.03231 4.7892,-1.52145 l 0.5841,1.91276 c -1.5916,0.48476 -3.1685,0.98704 -4.7454,1.5083 l -0.6279,-1.89961 m 14.4552,-4.24457 c 1.6208,-0.4176 3.2415,-0.81767 4.8622,-1.20022 l 0.4673,1.94634 c -1.6208,0.37963 -3.2269,0.77678 -4.833,1.19 l -0.4965,-1.93612 m 14.7034,-3.27797 c 1.6354,-0.30809 3.2853,-0.60011 4.9352,-0.87461 l 0.3359,1.97408 c -1.65,0.27012 -3.2853,0.56069 -4.906,0.86731 l -0.3651,-1.96678 m 14.8787,-2.29677 c 1.6645,-0.20004 3.3144,-0.38401 4.9936,-0.54754 l 0.1898,1.98868 c -1.65,0.16499 -3.2999,0.34605 -4.9498,0.54316 l -0.2336,-1.9843 m 14.9954,-1.31557 c 1.6645,-0.0905 3.3437,-0.16499 5.0082,-0.22048 l 0.073,1.99891 c -1.6645,0.0555 -3.3145,0.12849 -4.9644,0.21902 l -0.1168,-1.99745 m 15.0684,-0.33583 c 1.6646,0.0175 3.3437,0.0526 5.0082,0.10513 l -0.058,1.99891 c -1.6499,-0.0511 -3.3144,-0.0876 -4.979,-0.10367 l 0.029,-2.00037 m 15.0393,0.63954 c 1.6645,0.12703 3.329,0.27012 4.9936,0.43219 l -0.1898,1.99015 c -1.65,-0.15916 -3.2999,-0.30225 -4.9644,-0.42636 l 0.1606,-1.99598 m 14.9662,1.62219 c 1.6645,0.23508 3.3145,0.48768 4.9644,0.75926 l -0.3212,1.97409 c -1.6354,-0.26867 -3.2707,-0.51981 -4.9206,-0.75343 l 0.2774,-1.97992 m 14.8348,2.60339 c 1.6353,0.34459 3.2707,0.70816 4.906,1.08633 l -0.4672,1.9478 c -1.6062,-0.37525 -3.2269,-0.73444 -4.8622,-1.0761 l 0.4234,-1.95803 m 14.6158,3.58022 c 1.6207,0.4541 3.2269,0.92279 4.833,1.40901 l -0.584,1.91276 c -1.5916,-0.48184 -3.1831,-0.94762 -4.7892,-1.39441 l 0.5402,-1.92736 m 14.3968,4.55411 c 1.5769,0.55923 3.1539,1.13744 4.7308,1.73171 l -0.7155,1.87041 c -1.5477,-0.58989 -3.11,-1.16226 -4.687,-1.7171 l 0.6717,-1.88502 m 14.061,5.50174 c 1.5331,0.66289 3.0662,1.34477 4.5993,2.04124 l -0.8322,1.81931 c -1.504,-0.69063 -3.0225,-1.36521 -4.5556,-2.02226 l 0.7885,-1.83829 m 13.6521,6.42014 c 1.5039,0.76365 2.9786,1.54481 4.4533,2.34058 l -0.949,1.75944 c -1.4602,-0.78847 -2.9203,-1.56087 -4.4242,-2.31867 l 0.9199,-1.78135 m 13.1995,7.3079 c 1.4309,0.86001 2.8618,1.73609 4.2927,2.62676 l -1.0805,1.69374 c -1.4017,-0.88337 -2.818,-1.75069 -4.2489,-2.6034 l 1.0367,-1.7171 m 12.6738,8.15623 c 1.3871,0.95346 2.7596,1.92006 4.1029,2.90272 l -1.1681,1.62074 c -1.3433,-0.9739 -2.7012,-1.9332 -4.0737,-2.87644 l 1.1389,-1.64702 0,0 m 12.119,8.97098 c 1.2995,1.04107 2.599,2.09527 3.8985,3.16408 l -1.2703,1.53897 c -1.2849,-1.05859 -2.5698,-2.1055 -3.8693,-3.13488 l 1.2411,-1.56817 m 11.4911,9.74192 c 1.2265,1.12429 2.4676,2.25881 3.6795,3.41084 l -1.3725,1.45136 c -1.1973,-1.13889 -2.4238,-2.2661 -3.6503,-3.38018 l 1.3433,-1.48202 m 10.8195,10.46906 c 1.1681,1.20022 2.307,2.41504 3.4605,3.643 l -1.4601,1.35937 c -1.1389,-1.21628 -2.2778,-2.41942 -3.4313,-3.61233 l 1.4309,-1.39004 m 10.1187,11.15094 c 1.0805,1.27322 2.1609,2.56105 3.2122,3.8591 l -1.5623,1.26008 c -1.0513,-1.28637 -2.1026,-2.56105 -3.1685,-3.82552 l 1.5186,-1.29366 m 9.3593,11.78317 c 0.9929,1.34185 1.9712,2.69538 2.9495,4.05913 l -1.6354,1.15642 c -0.9636,-1.35208 -1.9419,-2.69393 -2.9202,-4.0241 l 1.6061,-1.19145 m 8.5709,12.36721 c 0.8907,1.40464 1.7814,2.81657 2.6721,4.24165 l -1.723,1.04691 c -0.8615,-1.41194 -1.7375,-2.81365 -2.6282,-4.20369 l 1.6791,-1.08487 m 7.7241,12.8987 c 0.8176,1.4572 1.6061,2.92608 2.38,4.40373 l -1.7668,0.93301 c -0.7738,-1.46596 -1.5623,-2.92024 -2.3654,-4.36722 l 1.7522,-0.96952 m 6.8479,13.36886 c 0.7301,1.50831 1.4163,3.02391 2.088,4.5512 l -1.8251,0.81182 c -0.6717,-1.51122 -1.358,-3.01514 -2.0588,-4.50885 l 1.7959,-0.85417 m 5.9573,13.78792 c 0.6279,1.55502 1.2119,3.11881 1.796,4.69136 l -1.8836,0.69064 c -0.5694,-1.55795 -1.1535,-3.1086 -1.7667,-4.65048 l 1.8543,-0.73152 m 5.052,14.18798 c 0.5111,1.59299 1.0075,3.19182 1.4748,4.80088 l -1.9274,0.56506 c -0.4672,-1.59445 -0.9491,-3.18014 -1.4601,-4.75853 l 1.9127,-0.60741 m 4.0884,14.49315 c 0.4088,1.62074 0.7884,3.25023 1.1535,4.88702 l -1.942,0.43658 c -0.365,-1.62073 -0.7447,-3.23709 -1.1389,-4.84614 l 1.9274,-0.47746 m 3.1392,14.72969 c 0.2921,1.64556 0.5549,3.29695 0.8177,4.95419 l -1.9712,0.30663 c -0.2628,-1.64264 -0.5256,-3.27943 -0.8176,-4.91039 l 1.9711,-0.35043 m 2.1318,14.90637 c 0.1898,1.65869 0.3504,3.32469 0.511,4.99507 l -2.0003,0.17667 c -0.146,-1.65723 -0.3066,-3.30717 -0.4965,-4.95272 l 1.9858,-0.21902 m 1.1681,15.01295 c 0.073,1.66308 0.1314,3.332 0.1606,5.00529 l -2.0003,0.0453 c -0.029,-1.6587 -0.088,-3.31156 -0.1607,-4.96149 l 2.0004,-0.0891 m 0.1898,15.04654 c -0.044,1.67622 -0.088,3.34951 -0.1606,5.01697 l -2.0004,-0.0818 c 0.073,-1.65431 0.1169,-3.31301 0.1607,-4.97608 l 2.0003,0.0409 m -0.803,15.03631 c -0.1461,1.67184 -0.3067,3.33784 -0.4819,4.998 l -1.9858,-0.21318 c 0.1753,-1.64702 0.3359,-3.29841 0.4819,-4.95419 l 1.9858,0.16937 m -1.7668,14.95455 c -0.2482,1.65724 -0.5256,3.30864 -0.8177,4.95419 l -1.9711,-0.34313 c 0.292,-1.63095 0.5548,-3.26921 0.803,-4.91184 l 1.9858,0.30078 m -2.7596,14.80416 c -0.365,1.63679 -0.7447,3.26775 -1.1389,4.8914 l -1.942,-0.47454 c 0.3797,-1.60905 0.7739,-3.2254 1.1243,-4.8476 l 1.9566,0.43074 m -3.7379,14.59098 c -0.4673,1.60905 -0.9491,3.21226 -1.4601,4.80525 l -1.9128,-0.60157 c 0.511,-1.57985 0.9929,-3.16846 1.4601,-4.76291 l 1.9128,0.55923 m -4.7016,14.33692 c -0.5695,1.57839 -1.1681,3.14802 -1.7814,4.7118 l -1.8543,-0.72714 c 0.5986,-1.54918 1.1973,-3.10567 1.7667,-4.67092 l 1.869,0.68626 m -5.6507,14.00109 c -0.6716,1.53604 -1.3579,3.06187 -2.0879,4.58039 l -1.8106,-0.84833 c 0.7155,-1.50392 1.4017,-3.01806 2.0734,-4.54243 l 1.8251,0.81037 m -6.5559,13.58933 c -0.7739,1.48641 -1.5623,2.96405 -2.38,4.43001 l -1.7522,-0.96806 c 0.8031,-1.45428 1.5916,-2.91732 2.3654,-4.39058 l 1.7668,0.92863 m -7.432,13.11918 c -0.8907,1.43092 -1.7814,2.85162 -2.672,4.26063 l -1.6792,-1.08049 c 0.8907,-1.39879 1.7814,-2.80489 2.6282,-4.22266 l 1.723,1.04252 m -8.2935,12.595 c -0.9637,1.36959 -1.942,2.72604 -2.9495,4.07373 l -1.6061,-1.18999 c 0.9929,-1.33455 1.9566,-2.68079 2.9203,-4.03724 l 1.6353,1.1535 m -9.0966,12.01825 c -1.0512,1.30096 -2.1171,2.59171 -3.1976,3.86931 l -1.5331,-1.2922 c 1.0804,-1.26593 2.1317,-2.54645 3.183,-3.83574 l 1.5477,1.25863 m -9.8558,11.39185 c -1.1243,1.22942 -2.2778,2.4457 -3.4458,3.6503 l -1.431,-1.39003 c 1.1535,-1.19438 2.2924,-2.39898 3.4021,-3.61672 l 1.4747,1.35645 m -10.5858,10.71874 c -1.1973,1.15058 -2.4238,2.28947 -3.6649,3.41522 l -1.3433,-1.48056 c 1.2265,-1.11553 2.4384,-2.2442 3.6503,-3.38602 l 1.3579,1.45136 m -11.243,9.9989 c -1.2849,1.06881 -2.5844,2.12448 -3.8839,3.16555 l -1.2411,-1.56379 c 1.2849,-1.03377 2.5698,-2.07921 3.8401,-3.13926 l 1.2849,1.5375 m -11.8853,9.23818 c -1.3433,0.98266 -2.7013,1.95072 -4.0738,2.90126 l -1.1389,-1.64263 c 1.3579,-0.9447 2.7013,-1.90254 4.0446,-2.87644 l 1.1681,1.61781 m -12.4403,8.43658 c -1.4163,0.89067 -2.8326,1.76528 -4.2781,2.62529 l -1.0221,-1.71418 c 1.4163,-0.85271 2.818,-1.72148 4.2198,-2.60339 l 1.0804,1.69228 m -12.9804,7.59554 c -1.4601,0.79431 -2.9495,1.57401 -4.4242,2.33765 l -0.9199,-1.77842 c 1.4748,-0.7578 2.9349,-1.53021 4.395,-2.31721 l 0.9491,1.75798 m -13.4331,6.72093 c -1.5186,0.69648 -3.0371,1.37544 -4.5702,2.03833 l -0.8031,-1.83391 c 1.5186,-0.65705 3.0371,-1.33163 4.5264,-2.02081 l 0.8469,1.81639 m -13.8566,5.81566 c -1.5623,0.59573 -3.1246,1.1754 -4.7016,1.739 l -0.6716,-1.88355 c 1.5623,-0.55777 3.1246,-1.13305 4.6724,-1.7244 l 0.7008,1.86895 m -14.2361,4.90016 c -1.6062,0.49061 -3.1977,0.96514 -4.8038,1.42216 l -0.5549,-1.92298 c 1.6062,-0.45409 3.1831,-0.92279 4.7746,-1.41047 l 0.5841,1.91129 m -14.5282,3.94525 c -1.6354,0.38401 -3.2561,0.7505 -4.906,1.09947 l -0.4089,-1.95656 c 1.6208,-0.34605 3.2415,-0.70816 4.8476,-1.08925 l 0.4673,1.94634 m -14.7764,2.9728 c -1.6354,0.27597 -3.2999,0.53295 -4.9499,0.77241 l -0.2774,-1.97847 c 1.6354,-0.238 3.2707,-0.49352 4.906,-0.76656 l 0.3213,1.97262 m -14.9079,1.99161 c -1.6645,0.16645 -3.3436,0.31392 -5.0082,0.44533 l -0.1606,-1.99452 c 1.6645,-0.12849 3.3145,-0.27596 4.9644,-0.44096 l 0.2044,1.99015 m -15.0392,1.00894 c -1.6645,0.0569 -3.3291,0.0964 -5.0082,0.11827 l -0.015,-1.9989 c 1.6499,-0.0219 3.2999,-0.0613 4.9644,-0.11827 l 0.058,1.9989 m -15.0538,0.0307 c -1.6646,-0.0496 -3.3437,-0.11827 -5.0083,-0.20587 l 0.1023,-1.99599 c 1.6499,0.0847 3.3144,0.15331 4.979,0.20442 l -0.073,1.99744 m -15.0247,-0.9447 c -1.6645,-0.15915 -3.3291,-0.33728 -4.9936,-0.53294 l 0.2482,-1.98576 c 1.6354,0.19419 3.2853,0.36941 4.9352,0.52856 l -0.1898,1.99014 m -14.9224,-1.92589 c -1.6645,-0.27013 -3.3145,-0.55777 -4.9498,-0.86147 l 0.365,-1.96679 c 1.6207,0.30225 3.2561,0.58551 4.8914,0.85271 l -0.3066,1.97555 m -14.791,-2.91002 c -1.6208,-0.37817 -3.2561,-0.77387 -4.8768,-1.18708 l 0.4964,-1.93758 c 1.6061,0.40883 3.2123,0.80161 4.833,1.17686 l -0.4526,1.9478 m -14.5428,-3.881 c -1.6061,-0.48914 -3.2123,-0.99288 -4.8184,-1.51415 l 0.6278,-1.90107 c 1.5916,0.51688 3.1685,1.01624 4.7746,1.49954 l -0.584,1.91568 m -14.3019,-4.85636 c -1.5798,-0.59281 -3.1407,-1.20168 -4.7016,-1.82953 l 0.7505,-1.85435 c 1.5404,0.62055 3.0911,1.22504 4.6505,1.81201 l -0.6994,1.87187 m -13.9412,-5.79084 c -1.5288,-0.69647 -3.0487,-1.40755 -4.56,-2.13615 l 0.8703,-1.80179 c 1.4907,0.7213 3.0005,1.428 4.5103,2.11717 l -0.8206,1.82077 m -13.5193,-6.70195 c -1.4805,-0.79284 -2.9494,-1.60467 -4.4095,-2.42964 l 0.9899,-1.74046 c 1.4397,0.81913 2.8998,1.62219 4.3599,2.4092 l -0.9403,1.7609 m -13.0403,-7.57364 c -1.4295,-0.89067 -2.8399,-1.79595 -4.2402,-2.71582 l 1.1009,-1.67184 c 1.3901,0.91257 2.7889,1.80909 4.1993,2.691 l -1.06,1.69666 m -12.5103,-8.41613 c -1.3594,-0.9812 -2.71,-1.97554 -4.0489,-2.98595 l 1.209,-1.59591 c 1.3214,1.00164 2.6603,1.98723 4.0109,2.95967 l -1.171,1.62219 m -11.9292,-9.21482 c -1.2907,-1.06589 -2.5698,-2.14784 -3.8299,-3.24293 l 1.3097,-1.51268 c 1.2499,1.08487 2.5202,2.1566 3.7993,3.21372 l -1.2791,1.54189 m -11.2911,-9.97262 c -1.209,-1.14911 -2.4194,-2.31137 -3.6094,-3.4853 l 1.4002,-1.42508 c 1.1798,1.16517 2.38,2.31575 3.5905,3.45464 l -1.3813,1.45574 m -10.6092,-10.68662 c -1.1302,-1.22504 -2.2603,-2.46322 -3.37,-3.71308 l 1.4908,-1.32871 c 1.0995,1.23964 2.2194,2.46468 3.3495,3.6795 l -1.4703,1.36229 0,0 m -9.8792,-11.35389 c -1.0513,-1.29659 -2.1011,-2.60339 -3.1203,-3.92334 l 1.5697,-1.22942 c 1.0191,1.30972 2.0602,2.60485 3.0998,3.88976 l -1.5492,1.263 m -9.1112,-11.97152 c -0.9695,-1.36084 -1.9288,-2.73481 -2.8589,-4.119 l 1.65,-1.12283 c 0.9286,1.37251 1.8791,2.73334 2.8399,4.08249 l -1.631,1.15934 m -8.3095,-12.53805 c -0.8804,-1.4207 -1.7405,-2.85308 -2.58,-4.29422 l 1.72,-1.01186 c 0.8396,1.42946 1.6894,2.84723 2.5596,4.25771 l -1.6996,1.04837 m -7.4597,-13.05056 c -0.7798,-1.47472 -1.5507,-2.9582 -2.291,-4.4519 l 1.7814,-0.89652 c 0.7388,1.48057 1.4995,2.95091 2.2792,4.41249 l -1.7696,0.93593 m -6.591,-13.50757 c -0.6702,-1.51998 -1.339,-3.05019 -1.9887,-4.58915 l 1.85,-0.77679 c 0.6395,1.52583 1.2995,3.04289 1.9697,4.54974 l -1.831,0.8162 m -5.6697,-13.9018 c -0.5796,-1.56963 -1.1403,-3.1451 -1.6893,-4.72933 l 1.8894,-0.65121 c 0.5504,1.56963 1.1009,3.13196 1.6806,4.68552 l -1.8807,0.69502 m -4.7497,-14.29165 c -0.4702,-1.60176 -0.9301,-3.21081 -1.3696,-4.82862 l 1.9302,-0.52564 c 0.4293,1.60321 0.8893,3.19912 1.3594,4.78773 l -1.92,0.56653 m -3.7905,-14.57346 c -0.3694,-1.6295 -0.7199,-3.26629 -1.0498,-4.90893 l 1.9609,-0.39569 c 0.33,1.62804 0.6687,3.25023 1.0396,4.86512 l -1.9507,0.4395 m -2.8195,-14.79248 c -0.2599,-1.64993 -0.4994,-3.30571 -0.7301,-4.96733 l 1.9902,-0.26574 c 0.2205,1.64702 0.4599,3.28819 0.7096,4.92499 l -1.9697,0.30808 m -1.8398,-14.94433 c -0.1504,-1.66307 -0.2803,-3.33199 -0.4,-5.00529 l 2.0003,-0.13433 c 0.1095,1.6587 0.2395,3.31301 0.3899,4.96003 l -1.9902,0.17959 m -0.86,-15.03485 c -0.039,-1.66892 -0.06,-3.34076 -0.07,-5.01989 l 2.0004,-0.004 c 0.01,1.66307 0.029,3.32031 0.07,4.97608 l -2.0004,0.0482 m -0.07,-5.67403 c 0,-1.67768 0.02,-3.35097 0.06,-5.01989 l 1.9902,0.0438 c -0.029,1.65432 -0.05,3.31302 -0.05,4.97609 l -2.0004,0"
         style="fill:#ffffff;fill-opacity:1;fill-rule:nonzero;stroke:none"
         id="path4776"
         inkscape:connector-curvature="0" /><path
         d="m 1398.7672,680.75759 0,27.16991 -25.2396,0 0,-27.16991 c -10.8195,-4.83446 -18.3596,-15.68023 -18.3596,-28.29421 0,-17.11114 13.8697,-30.98228 30.9794,-30.98228 17.1097,0 30.9794,13.87114 30.9794,30.98228 0,12.61398 -7.5401,23.45975 -18.3596,28.29421"
         style="fill:#8bdaf8;fill-opacity:1;fill-rule:nonzero;stroke:none"
         id="path4778"
         inkscape:connector-curvature="0" /><path
         d="m 1380.5376,658.9653 c -5.8901,-1.25717 -11.5203,-1.12722 -16.6994,-0.2015 -0.5709,-2.0062 -0.8906,-4.11316 -0.8906,-6.30042 0,-12.81547 10.3902,-23.20568 23.1998,-23.20568 12.8199,0 23.2101,10.39021 23.2101,23.20568 0,4.75561 -1.4397,9.17394 -3.8898,12.8549 -8.0496,-2.23982 -16.66,-4.58624 -24.9301,-6.35298"
         style="fill:#f8e706;fill-opacity:1;fill-rule:nonzero;stroke:none"
         id="path4780"
         inkscape:connector-curvature="0" /><path
         d="m 1409.0976,708.31005 c 0,-1.90107 -1.5405,-3.44296 -3.4401,-3.44296 l -39.0202,0 c -1.8996,0 -3.4401,1.54189 -3.4401,3.44296 0,1.90108 1.5405,3.44151 3.4401,3.44151 l 39.0202,0 c 1.8996,0 3.4401,-1.54043 3.4401,-3.44151"
         style="fill:#ffffff;fill-opacity:1;fill-rule:nonzero;stroke:none"
         id="path4782"
         inkscape:connector-curvature="0" /><path
         d="m 1384.6975,658.94778 c 0,-4.38913 -3.5598,-7.94744 -7.9504,-7.94744 -4.3891,0 -7.9503,3.55831 -7.9503,7.94744 0,4.39058 3.5612,7.94889 7.9503,7.94889 4.3906,0 7.9504,-3.55831 7.9504,-7.94889"
         style="fill:#ed147d;fill-opacity:1;fill-rule:nonzero;stroke:none"
         id="path4784"
         inkscape:connector-curvature="0" /><path
         d="m 1396.8574,643.27485 c 0,-2.71729 -2.2004,-4.92061 -4.9192,-4.92061 -2.7099,0 -4.9103,2.20332 -4.9103,4.92061 0,2.71582 2.2004,4.91768 4.9103,4.91768 2.7188,0 4.9192,-2.20186 4.9192,-4.91768"
         style="fill:#ed147d;fill-opacity:1;fill-rule:nonzero;stroke:none"
         id="path4786"
         inkscape:connector-curvature="0" /><path
         d="m 1400.788,662.54551 c 0,-3.34367 -2.71,-6.05512 -6.0507,-6.05512 -3.3495,0 -6.0595,2.71145 -6.0595,6.05512 0,3.34514 2.71,6.05512 6.0595,6.05512 3.3407,0 6.0507,-2.70998 6.0507,-6.05512"
         style="fill:#ed147d;fill-opacity:1;fill-rule:nonzero;stroke:none"
         id="path4788"
         inkscape:connector-curvature="0" /><path
         d="m 1386.1474,621.4811 c -17.1097,0 -30.9794,13.87114 -30.9794,30.98228 0,12.61398 7.5401,23.45975 18.3596,28.29421 l 0,24.1095 12.6198,0 0,-44.63149 c -0.4994,-0.11973 -1.0002,-0.238 -1.5098,-0.35481 -0.4599,3.95109 -3.8196,7.01588 -7.8905,7.01588 -4.3891,0 -7.9503,-3.55831 -7.9503,-7.94889 0,-0.27159 0.012,-0.53733 0.041,-0.80161 -1.7098,0.11535 -3.3802,0.32707 -4.9995,0.61763 -0.5709,-2.0062 -0.8906,-4.11316 -0.8906,-6.30042 0,-12.81547 10.3902,-23.20568 23.1998,-23.20568 l 0,-7.7766"
         style="fill:#ade5fa;fill-opacity:1;fill-rule:nonzero;stroke:none"
         id="path4790"
         inkscape:connector-curvature="0" /><path
         d="m 1386.1474,629.2577 c -12.8096,0 -23.1998,10.39021 -23.1998,23.20568 0,2.18726 0.3197,4.29422 0.8906,6.30042 1.6193,-0.29056 3.2897,-0.50228 4.9995,-0.61763 0.4001,-4.01387 3.7904,-7.14583 7.9094,-7.14583 4.3906,0 7.9504,3.55831 7.9504,7.94744 0,0.31538 -0.02,0.62785 -0.06,0.93301 0.5096,0.11681 1.0104,0.23508 1.5098,0.35481 l 0,-30.9779"
         style="fill:#f8ef45;fill-opacity:1;fill-rule:nonzero;stroke:none"
         id="path4792"
         inkscape:connector-curvature="0" /><path
         d="m 1386.1474,704.86709 -19.5101,0 c -1.8996,0 -3.4401,1.54189 -3.4401,3.44296 0,1.90108 1.5405,3.44151 3.4401,3.44151 l 19.5101,0 0,-6.88447"
         style="fill:#ffffff;fill-opacity:1;fill-rule:nonzero;stroke:none"
         id="path4794"
         inkscape:connector-curvature="0" /><path
         d="m 1376.7471,651.00034 c -4.119,0 -7.5093,3.13196 -7.9094,7.14583 -0.029,0.26428 -0.041,0.53002 -0.041,0.80161 0,4.39058 3.5612,7.94889 7.9503,7.94889 4.0709,0 7.4306,-3.06479 7.8905,-7.01588 0.04,-0.30516 0.06,-0.61763 0.06,-0.93301 0,-4.38913 -3.5598,-7.94744 -7.9504,-7.94744"
         style="fill:#f13fa3;fill-opacity:1;fill-rule:nonzero;stroke:none"
         id="path4796"
         inkscape:connector-curvature="0" /><path
         d="m 1396.4573,373.32202 c 0,-29.13523 -23.6204,-52.75267 -52.76,-52.75267 -29.1294,0 -52.7497,23.61744 -52.7497,52.75267 0,29.13378 23.6203,52.75122 52.7497,52.75122 29.1396,0 52.76,-23.61744 52.76,-52.75122"
         style="fill:#8eaade;fill-opacity:1;fill-rule:nonzero;stroke:none"
         id="path4798"
         inkscape:connector-curvature="0" /><path
         d="m 1377.6977,368.59415 c 0,-0.63661 -0.5096,-1.15203 -1.1506,-1.15203 l -65.1199,0 c -0.6395,0 -1.1491,0.51542 -1.1491,1.15203 0,0.63369 0.5096,1.15058 1.1491,1.15058 l 65.1199,0 c 0.641,0 1.1506,-0.51689 1.1506,-1.15058"
         style="fill:#e21d25;fill-opacity:1;fill-rule:nonzero;stroke:none"
         id="path4800"
         inkscape:connector-curvature="0" /><path
         d="m 1318.3277,335.55748 c -0.1606,-0.49644 -0.7797,-0.74174 -1.3798,-0.55047 -0.6103,0.19274 -0.9812,0.74904 -0.8206,1.24402 l 5.7704,18.26319 c 0.1607,0.49498 0.7797,0.74028 1.3799,0.55046 0.6103,-0.19273 0.9797,-0.74904 0.8205,-1.24402 l -5.7704,-18.26318"
         style="fill:#3e464f;fill-opacity:1;fill-rule:nonzero;stroke:none"
         id="path4802"
         inkscape:connector-curvature="0" /><path
         d="m 1321.6977,339.96266 -5.7908,1.82953 18.7508,59.35534 5.7894,-1.83099 -18.7494,-59.35388"
         style="fill:#ffffff;fill-opacity:1;fill-rule:nonzero;stroke:none"
         id="path4804"
         inkscape:connector-curvature="0" /><path
         d="m 1369.648,335.55748 c 0.1592,-0.49644 0.7797,-0.74174 1.3799,-0.55047 0.6088,0.19274 0.9695,0.74904 0.8205,1.24402 l -5.7703,18.26319 c -0.1607,0.49498 -0.7798,0.74028 -1.3901,0.55046 -0.6001,-0.19273 -0.971,-0.74904 -0.8103,-1.24402 l 5.7703,-18.26318"
         style="fill:#3e464f;fill-opacity:1;fill-rule:nonzero;stroke:none"
         id="path4806"
         inkscape:connector-curvature="0" /><path
         d="m 1366.2781,339.96266 5.7894,1.82953 -18.7597,59.35534 -5.7908,-1.83099 18.7611,-59.35388"
         style="fill:#ffffff;fill-opacity:1;fill-rule:nonzero;stroke:none"
         id="path4808"
         inkscape:connector-curvature="0" /><path
         d="m 1346.9184,359.69326 c 0,-1.61927 -1.3112,-2.93046 -2.9305,-2.93046 -1.6207,0 -2.9305,1.31119 -2.9305,2.93046 l 0,17.16955 c 0,1.62074 1.3098,2.93338 2.9305,2.93338 1.6193,0 2.9305,-1.31264 2.9305,-2.93338 l 0,-17.16955"
         style="fill:#3e464f;fill-opacity:1;fill-rule:nonzero;stroke:none"
         id="path4810"
         inkscape:connector-curvature="0" /><path
         d="m 1342.8081,418.32438 2.3596,0 0,14.02969 -2.3596,0 0,-14.02969 z"
         style="fill:#3e464f;fill-opacity:1;fill-rule:nonzero;stroke:none"
         id="path4812"
         inkscape:connector-curvature="0" /><path
         d="m 1348.3872,430.95296 c 0,-1.4572 -1.1797,-2.6399 -2.6399,-2.6399 l -3.5188,0 c -1.4602,0 -2.6414,1.1827 -2.6414,2.6399 l 0,1.64993 c 0,1.45866 1.1812,2.64136 2.6414,2.64136 l 3.5188,0 c 1.4602,0 2.6399,-1.1827 2.6399,-2.64136 l 0,-1.64993"
         style="fill:#3e464f;fill-opacity:1;fill-rule:nonzero;stroke:none"
         id="path4814"
         inkscape:connector-curvature="0" /><path
         d="m 1343.9879,402.12873 c -3.7204,0 -6.7399,3.01807 -6.7399,6.73845 0,3.72039 3.0195,6.73846 6.7399,6.73846 3.7189,0 6.7399,-3.01807 6.7399,-6.73846 0,-3.72038 -3.021,-6.73845 -6.7399,-6.73845 m 0,23.05091 c -9.0104,0 -16.311,-7.30352 -16.311,-16.31246 0,-9.00894 7.3006,-16.311 16.311,-16.311 9.0089,0 16.3095,7.30206 16.3095,16.311 0,9.00894 -7.3006,16.31246 -16.3095,16.31246"
         style="fill:#e21d25;fill-opacity:1;fill-rule:nonzero;stroke:none"
         id="path4816"
         inkscape:connector-curvature="0" /><path
         d="m 1316.9976,334.99241 c -0.01,0.003 -0.029,0.006 -0.039,0.0102 0.01,-0.004 0.029,-0.007 0.039,-0.0102 m 1.3301,0.56507 0,0 1.5697,4.97317 0,0 -1.5697,-4.97317 0,0 m 5.6799,31.88464 -12.5804,0 c -0.6395,0 -1.1491,0.51542 -1.1491,1.15203 l 0,0 c 0,-0.63661 0.5096,-1.15203 1.1491,-1.15203 l 12.5804,0 m -13.6901,1.4791 c 0.1504,0.476 0.5899,0.82351 1.1097,0.82351 l 0,0 c -0.5198,0 -0.9593,-0.34751 -1.1097,-0.82351 m 30.7399,7.94159 0,10e-4 c 0,1.42946 1.0207,2.61946 2.3698,2.87936 -1.3491,-0.2599 -2.3698,-1.4499 -2.3698,-2.88082 m -7.2407,1.47472 4.7804,15.12831 0.01,0 -4.7907,-15.12831 m 10.0807,14.21865 0,0 0,0 m -16.2205,15.96787 c 0,10e-4 0,10e-4 0,10e-4 0,0 0,0 0,-10e-4 m 0,0.0526 c 0,0.004 0,0.007 0,0.009 0,-0.001 0,-0.004 0,-0.009 m 0,0.0555 c 0,0.004 0,0.007 0,0.0117 0,-0.004 0,-0.007 0,-0.0117 m 0,0.0526 c 0,0.006 0,0.0102 0,0.0161 0,-0.006 0,-0.0102 0,-0.0161 m 0,0.054 c 0,0.006 0,0.0117 0,0.019 0,-0.006 0,-0.0131 0,-0.019 m 0,0.0555 c 0,0.006 0,0.0117 0,0.019 0,-0.007 0,-0.0117 0,-0.019 m 0,0.073 c 0,0.019 0,0.0336 0,0.0526 0,-0.0175 0,-0.0351 0,-0.0526 m 0,0.0716 c 0,0.0102 0,0.0219 0,0.0321 0,-0.0102 0,-0.0219 0,-0.0321 m 0,0.054 c 0,0.0102 0,0.0175 0,0.0292 0,-0.0102 0,-0.019 0,-0.0292 m 0,0.0555 c 0,0.009 0,0.0161 0,0.0248 0,-0.007 0,-0.0161 0,-0.0248 m 0,0.0526 c 0,0.007 0,0.0161 0,0.0234 0,-0.007 0,-0.0161 0,-0.0234 m 0,0.0511 c 0,0.007 0,0.0161 0,0.0248 0,-0.009 0,-0.0161 0,-0.0248 m 0,0.0482 c 0,0.009 0,0.019 0,0.0277 0,-0.0102 0,-0.019 0,-0.0277 m 0,0.054 c 0,0.009 0,0.0161 0,0.0248 0,-0.009 0,-0.0161 0,-0.0248 m 0,0.0511 c 0,0.009 0,0.0161 0,0.0234 0,-0.007 0,-0.0146 0,-0.0234 m 0,0.0526 c 0,0.007 0,0.0146 0.01,0.0219 -0.01,-0.007 -0.01,-0.0146 -0.01,-0.0219 m 0.01,0.0511 c 0,0.007 0,0.0146 0,0.0219 0,-0.007 0,-0.0146 0,-0.0219 m 0,0.0526 c 0,0.007 0,0.0117 0,0.0175 0,-0.004 0,-0.0117 0,-0.0175 m 0,0.0526 c 0,0.004 0,0.0102 0,0.0161 0,-0.007 0,-0.0102 0,-0.0161 m 0,0.0526 c 0,0.004 0,0.007 0,0.0102 0,-0.003 0,-0.006 0,-0.0102 m 0,0.0496 c 0,0.004 0,0.007 0,0.0117 0,-0.004 0,-0.007 0,-0.0117 m 0.01,0.0526 c 0,0.001 0,0.003 0,0.004 0,-0.001 0,-0.003 0,-0.004 m 0,0.0496 c 0,0.001 0,0.004 0,0.006 0,-0.001 0,-0.004 0,-0.006"
         style="fill:#aec2e8;fill-opacity:1;fill-rule:nonzero;stroke:none"
         id="path4818"
         inkscape:connector-curvature="0" /><path
         d="m 1341.0574,367.44212 -10.6793,0 0.7301,2.30261 9.9492,0 0,-2.30261 m -17.0498,0 -12.5804,0 c -0.6395,0 -1.1491,0.51542 -1.1491,1.15203 0,0.11243 0.01,0.2234 0.039,0.32707 0.1504,0.476 0.5899,0.82351 1.1097,0.82351 l 13.3105,0 -0.7301,-2.30261"
         style="fill:#ef2e4b;fill-opacity:1;fill-rule:nonzero;stroke:none"
         id="path4820"
         inkscape:connector-curvature="0" /><path
         d="m 1317.3582,334.94277 c -0.1212,0 -0.2409,0.0161 -0.3606,0.0496 -0.01,0.003 -0.029,0.006 -0.039,0.0102 0,0.001 -0.01,0.003 -0.01,0.004 l 0,0 c -0.5198,0.16208 -0.86,0.58405 -0.86,1.00895 0,0.0803 0.021,0.15769 0.039,0.23507 l 1.5711,4.97317 2.199,-0.69355 -1.5697,-4.97317 0,0 c -0.1197,-0.38109 -0.5198,-0.61471 -0.9695,-0.61471"
         style="fill:#747c83;fill-opacity:1;fill-rule:nonzero;stroke:none"
         id="path4822"
         inkscape:connector-curvature="0" /><path
         d="m 1321.6977,339.96266 0,0 -1.8003,0.56799 0,0 -2.199,0.69355 0,0 -1.7915,0.56799 8.1007,25.64993 0,0 0.7301,2.30261 0,0 8.4906,26.86329 c 1.5594,-1.3696 3.3787,-2.44425 5.3688,-3.14218 l -4.7804,-15.12831 -2.7085,-8.5928 -0.7301,-2.30261 0,0 -8.6804,-27.47946"
         style="fill:#ffffff;fill-opacity:1;fill-rule:nonzero;stroke:none"
         id="path4824"
         inkscape:connector-curvature="0" /><path
         d="m 1343.9879,356.7628 c -1.6207,0 -2.9305,1.31119 -2.9305,2.93046 l 0,17.16955 c 0,1.43092 1.0207,2.62092 2.3698,2.88082 0.1811,0.0336 0.3709,0.0526 0.5607,0.0526 l 0,-23.03339"
         style="fill:#747c83;fill-opacity:1;fill-rule:nonzero;stroke:none"
         id="path4826"
         inkscape:connector-curvature="0" /><path
         d="m 1342.8081,425.13876 0,3.1743 1.1798,0 0,-3.13342 c -0.4001,0 -0.7899,-0.0146 -1.1798,-0.0409"
         style="fill:#747c83;fill-opacity:1;fill-rule:nonzero;stroke:none"
         id="path4828"
         inkscape:connector-curvature="0" /><path
         d="m 1343.9879,428.31306 -1.7594,0 c -1.4602,0 -2.6414,1.1827 -2.6414,2.6399 l 0,1.64993 c 0,1.45866 1.1812,2.64136 2.6414,2.64136 l 1.7594,0 0,-6.93119"
         style="fill:#747c83;fill-opacity:1;fill-rule:nonzero;stroke:none"
         id="path4830"
         inkscape:connector-curvature="0" /><path
         d="m 1343.9879,392.55618 0,0 c -0.031,0 -0.06,0 -0.091,0 l 0,0 c -1.8588,0.0102 -3.6299,0.34605 -5.29,0.92572 l 0,-0.0161 -0.01,0 c -1.9901,0.69793 -3.8094,1.77258 -5.3688,3.14218 l 0,0.0161 c -3.3203,2.91878 -5.4507,7.15458 -5.5514,11.89997 0,0.001 0,0.001 0,0.001 0,0.0175 0,0.0351 0,0.0511 0,0.004 0,0.007 0,0.009 0,0.0161 0,0.0321 0,0.0467 0,0.004 0,0.007 0,0.0117 0,0.0131 0,0.0278 0,0.0409 0,0.006 0,0.0102 0,0.0161 0,0.0131 0,0.0263 0,0.038 0,0.006 0,0.0131 0,0.019 0,0.0117 0,0.0248 0,0.0365 0,0.007 0,0.0117 0,0.019 0,0.0175 0,0.0365 0,0.054 l 0,0 c 0,0.0175 0,0.035 0,0.0526 0,0.006 0,0.0131 0,0.019 0,0.0102 0,0.0219 0,0.0321 0,0.007 0,0.0146 0,0.0219 0,0.0102 0,0.019 0,0.0292 0,0.009 0,0.0175 0,0.0263 0,0.009 0,0.0175 0,0.0248 0,0.009 0,0.019 0,0.0277 0,0.007 0,0.0161 0,0.0234 0,0.009 0,0.0175 0,0.0277 0,0.009 0,0.0161 0,0.0248 0,0.009 0,0.0161 0,0.0234 0,0.009 0,0.0175 0,0.0277 0,0.0102 0,0.0175 0,0.0263 0,0.009 0,0.0161 0,0.0248 0,0.009 0,0.0175 0,0.0263 0,0.009 0,0.0161 0,0.0234 0,0.0102 0,0.019 0,0.0292 0,0.007 0,0.0146 0.01,0.0219 0,0.009 0,0.0204 0,0.0292 0,0.007 0,0.0146 0,0.0219 0,0.0102 0,0.0204 0,0.0307 0,0.006 0,0.0131 0,0.0175 0,0.0117 0,0.0234 0,0.0351 0,0.006 0,0.009 0,0.0161 0,0.0117 0,0.0234 0,0.0365 0,0.004 0,0.007 0,0.0102 0,0.0131 0,0.0263 0,0.0394 0,0.004 0,0.007 0,0.0117 0.01,0.0131 0.01,0.0277 0.01,0.0409 0,0.001 0,0.003 0,0.004 0,0.0146 0,0.0307 0,0.0453 0,10e-4 0,0.004 0,0.006 0.4308,8.21756 6.94,14.81 15.1108,15.39551 l 0,0.019 c 0.3899,0.0263 0.7797,0.0409 1.1798,0.0409 l 0,-9.574 c -3.7204,0 -6.7399,-3.01807 -6.7399,-6.73846 l 0,0 c 0,-3.72038 3.0195,-6.73845 6.7399,-6.73845 l 0,-9.57255"
         style="fill:#ef2e4b;fill-opacity:1;fill-rule:nonzero;stroke:none"
         id="path4832"
         inkscape:connector-curvature="0" /><path
         d="m 1534.4109,729.67891 c 0,0 -0.8761,9.30242 -13.0681,13.73243 0,0 -2.2194,2.87935 3.3291,7.75177 0,0 10.1916,-6.20259 11.3013,-21.4842 l -1.5623,0"
         style="fill:#5e4a1b;fill-opacity:1;fill-rule:nonzero;stroke:none"
         id="path4834"
         inkscape:connector-curvature="0" /><path
         d="m 1534.1043,738.54038 c 0,0 -1.1243,18.37999 20.9089,16.51103 0,0 -2.4238,-21.81419 -20.9089,-16.51103"
         style="fill:#90d123;fill-opacity:1;fill-rule:nonzero;stroke:none"
         id="path4836"
         inkscape:connector-curvature="0" /><path
         d="m 1558.9409,729.45843 c -10.6443,7.65979 -22.9677,1.4937 -22.9677,1.4937 0,0 -12.338,6.16609 -22.9823,-1.4937 -10.6588,-7.65979 -9.1549,-22.23179 -4.4825,-32.69209 4.6724,-10.46322 13.5937,-17.70687 17.7696,-17.70833 4.5848,-10e-4 5.3879,3.13634 9.6952,3.13634 4.2782,0 5.1105,-3.1378 9.6806,-3.13634 4.176,10e-4 13.0973,7.24511 17.7697,17.70833 4.6724,10.4603 6.1617,25.0323 -4.4826,32.69209"
         style="fill:#e21d25;fill-opacity:1;fill-rule:nonzero;stroke:none"
         id="path4838"
         inkscape:connector-curvature="0" /><path
         d="m 1526.278,679.05801 0,0 c -4.1759,10e-4 -13.0972,7.24511 -17.7696,17.70833 -2.1026,4.69867 -3.5627,10.22814 -3.5627,15.58678 0,-5.35864 1.4601,-10.88811 3.5627,-15.58678 4.6724,-10.46322 13.5937,-17.70687 17.7696,-17.70833 l 0,0 0,0 0,0 m 0.073,0 c 0.015,0 0.029,0 0.029,10e-4 0,-10e-4 -0.015,-10e-4 -0.029,-10e-4 m 0.044,10e-4 c 0.015,0 0.029,0 0.044,0 -0.015,0 -0.029,0 -0.044,0 m 0.058,0 c 0,0 0.029,0 0.029,0 0,0 -0.029,0 -0.029,0 m 0.044,0 c 0.015,0.001 0.029,0.001 0.044,0.003 -0.015,-10e-4 -0.029,-10e-4 -0.044,-0.003 m 0.044,0.003 c 4.3219,0.11681 5.2126,3.10129 9.3593,3.13196 l 0,-0.003 c -4.1467,-0.0321 -5.0374,-3.01223 -9.3593,-3.12904 m -13.4185,50.49679 c 4.0445,2.85599 8.308,3.73937 12.0605,3.73937 3.6503,0 6.7896,-0.83811 8.717,-1.51269 0,0 0,0 0,0 -1.9274,0.67458 -5.0813,1.51269 -8.717,1.51269 -3.7525,0 -8.016,-0.88484 -12.0605,-3.73937"
         style="fill:#a1b9e5;fill-opacity:1;fill-rule:nonzero;stroke:none"
         id="path4840"
         inkscape:connector-curvature="0" /><path
         d="m 1535.4038,731.20619 c -0.3504,0.1504 -0.8615,0.35627 -1.5039,0.57967 0,0 0,0 0,0 0.6424,-0.2234 1.1535,-0.42927 1.5039,-0.57967"
         style="fill:#77682e;fill-opacity:1;fill-rule:nonzero;stroke:none"
         id="path4842"
         inkscape:connector-curvature="0" /><path
         d="m 1526.278,679.05801 0,0 c -4.1759,10e-4 -13.0972,7.24511 -17.7696,17.70833 -2.1026,4.69867 -3.5627,10.22814 -3.5627,15.58678 -0.015,6.57054 2.1756,12.88702 8.0452,17.10531 0.044,0.0336 0.088,0.0672 0.1315,0.10075 4.0445,2.85453 8.308,3.73937 12.0605,3.73937 3.6357,0 6.7896,-0.83811 8.717,-1.51269 0.6424,-0.2234 1.1535,-0.42927 1.5039,-0.57967 0.2482,-0.10512 0.4088,-0.18397 0.4964,-0.22339 l 0,-48.78845 c -4.1467,-0.0307 -5.0374,-3.01515 -9.3593,-3.13196 l 0,0 c -0.015,-0.001 -0.029,-0.001 -0.044,-0.003 0,0 0,0 -0.015,0 0,0 -0.029,0 -0.029,0 l -0.015,0 c -0.015,0 -0.029,0 -0.044,0 l -0.015,0 c 0,-10e-4 -0.015,-10e-4 -0.029,-10e-4 -0.015,0 -0.044,0 -0.073,0 l 0,0"
         style="fill:#ec1e32;fill-opacity:1;fill-rule:nonzero;stroke:none"
         id="path4844"
         inkscape:connector-curvature="0" /><path
         d="m 1525.3582,719.67855 c 0,-2.64574 -2.1464,-4.7892 -4.7892,-4.7892 -2.6575,0 -4.7892,2.14346 -4.7892,4.7892 0,2.64573 2.1317,4.78919 4.7892,4.78919 2.6428,0 4.7892,-2.14346 4.7892,-4.78919"
         style="fill:#ffffff;fill-opacity:1;fill-rule:nonzero;stroke:none"
         id="path4846"
         inkscape:connector-curvature="0" /><path
         d="m 1751.925,368.18824 c 0,-19.73498 -16.0029,-35.73206 -35.7292,-35.73206 -19.7262,0 -35.7291,15.99708 -35.7291,35.73206 0,19.73352 16.0029,35.7306 35.7291,35.7306 19.7263,0 35.7292,-15.99708 35.7292,-35.7306"
         style="fill:#e21d25;fill-opacity:1;fill-rule:nonzero;stroke:none"
         id="path4848"
         inkscape:connector-curvature="0" /><path
         d="m 1743.6899,368.18824 c 0,-15.18525 -12.3088,-27.4926 -27.4941,-27.4926 -15.1852,0 -27.494,12.30735 -27.494,27.4926 0,15.18233 12.3088,27.49114 27.494,27.49114 15.1853,0 27.4941,-12.30881 27.4941,-27.49114"
         style="fill:#fdf8dc;fill-opacity:1;fill-rule:nonzero;stroke:none"
         id="path4850"
         inkscape:connector-curvature="0" /><path
         d="m 1723.219,368.18824 c 0,-3.87516 -3.1538,-7.01588 -7.0232,-7.01588 -3.8693,0 -7.0085,3.14072 -7.0085,7.01588 0,3.8737 3.1392,7.01296 7.0085,7.01296 3.8694,0 7.0232,-3.13926 7.0232,-7.01296"
         style="fill:#636e83;fill-opacity:1;fill-rule:nonzero;stroke:none"
         id="path4852"
         inkscape:connector-curvature="0" /><path
         d="m 1748.1287,337.21325 -8.2643,8.2599 c -1.4017,1.40756 -3.6941,1.40756 -5.0958,0 -1.4163,-1.40901 -1.4163,-3.6941 0,-5.10166 l 8.2643,-8.2599 c 1.4017,-1.40901 3.6941,-1.40901 5.0958,0 1.4017,1.40902 1.4017,3.69265 0,5.10166"
         style="fill:#e21d25;fill-opacity:1;fill-rule:nonzero;stroke:none"
         id="path4854"
         inkscape:connector-curvature="0" /><path
         d="m 1692.5273,345.47169 -8.2643,-8.25844 c -1.4017,-1.40901 -1.4017,-3.69264 0,-5.10166 1.4163,-1.40901 3.6941,-1.40901 5.1104,0 l 8.2497,8.2599 c 1.4163,1.40756 1.4163,3.69265 0,5.1002 -1.4017,1.40902 -3.6795,1.40902 -5.0958,0"
         style="fill:#e21d25;fill-opacity:1;fill-rule:nonzero;stroke:none"
         id="path4856"
         inkscape:connector-curvature="0" /><path
         d="m 1680.9485,410.44557 c -6.4391,-6.43621 -6.4391,-16.87168 0,-23.30789 l 23.3036,23.30789 c -6.4392,6.43767 -16.8644,6.43767 -23.3036,0"
         style="fill:#e21d25;fill-opacity:1;fill-rule:nonzero;stroke:none"
         id="path4858"
         inkscape:connector-curvature="0" /><path
         d="m 1751.4431,410.44557 c -6.4245,6.43767 -16.8643,6.43767 -23.3035,0 l 23.3035,-23.30789 c 6.4392,6.43621 6.4392,16.87168 0,23.30789"
         style="fill:#e21d25;fill-opacity:1;fill-rule:nonzero;stroke:none"
         id="path4860"
         inkscape:connector-curvature="0" /><path
         d="m 1718.1816,366.1908 c -0.6278,-0.76949 -1.8689,-0.81037 -2.745,-0.0905 -0.8761,0.71984 -1.0951,1.92736 -0.4527,2.6983 l 14.4114,17.07172 c 0.6279,0.76949 1.8544,0.81183 2.7451,0.0905 0.876,-0.71984 1.0804,-1.92736 0.4526,-2.69684 l -14.4114,-17.07318"
         style="fill:#636e83;fill-opacity:1;fill-rule:nonzero;stroke:none"
         id="path4862"
         inkscape:connector-curvature="0" /><path
         d="m 1713.6844,374.39083 c 0.6863,-0.6921 0.5987,-1.90692 -0.2044,-2.71144 -0.803,-0.80453 -2.0295,-0.89506 -2.7158,-0.2015 l -9.9142,9.92298 c -0.6863,0.69355 -0.5987,1.90837 0.2044,2.7129 0.8031,0.80452 2.0296,0.89505 2.7158,0.20003 l 9.9142,-9.92297"
         style="fill:#636e83;fill-opacity:1;fill-rule:nonzero;stroke:none"
         id="path4864"
         inkscape:connector-curvature="0" /><path
         d="m 1719.2767,368.18824 c 0,-1.69958 -1.3871,-3.07647 -3.0809,-3.07647 -1.6937,0 -3.0808,1.37689 -3.0808,3.07647 0,1.69666 1.3871,3.07501 3.0808,3.07501 1.6938,0 3.0809,-1.37835 3.0809,-3.07501"
         style="fill:#a3339f;fill-opacity:1;fill-rule:nonzero;stroke:none"
         id="path4866"
         inkscape:connector-curvature="0" /><path
         d="m 1737.8932,365.17601 c -1.6645,0 -3.0224,1.34769 -3.0224,3.01223 0,1.66162 1.3579,3.01077 3.0224,3.01077 1.65,0 3.0079,-1.34915 3.0079,-3.01077 0,-1.66454 -1.3579,-3.01223 -3.0079,-3.01223"
         style="fill:#a4a6a4;fill-opacity:1;fill-rule:nonzero;stroke:none"
         id="path4868"
         inkscape:connector-curvature="0" /><path
         d="m 1716.1958,343.48739 0,6.02153 c 1.6646,0 3.0079,-1.34769 3.0079,-3.01076 0,-1.66308 -1.3433,-3.01077 -3.0079,-3.01077"
         style="fill:#a4a6a4;fill-opacity:1;fill-rule:nonzero;stroke:none"
         id="path4870"
         inkscape:connector-curvature="0" /><path
         d="m 1716.1958,386.86463 0,6.023 c 1.6646,0 3.0079,-1.34915 3.0079,-3.01223 0,-1.66307 -1.3433,-3.01077 -3.0079,-3.01077"
         style="fill:#a4a6a4;fill-opacity:1;fill-rule:nonzero;stroke:none"
         id="path4872"
         inkscape:connector-curvature="0" /><path
         d="m 1703.595,411.06612 c -3.1246,2.80489 -7.0524,4.20807 -10.9947,4.20807 l 0,0 c 3.9423,0 7.8701,-1.40318 10.9947,-4.20807"
         style="fill:#a2b9e4;fill-opacity:1;fill-rule:nonzero;stroke:none"
         id="path4874"
         inkscape:connector-curvature="0" /><path
         d="m 1680.9485,387.13768 c -3.2268,3.2181 -4.8329,7.43639 -4.8329,11.65467 0,4.21829 1.6061,8.43512 4.8329,11.65322 3.2123,3.21957 7.4321,4.82862 11.6518,4.82862 3.9423,0 7.8701,-1.40318 10.9947,-4.20807 0.2336,-0.20003 0.438,-0.40737 0.6571,-0.62055 l -23.3036,-23.30789"
         style="fill:#eb1e33;fill-opacity:1;fill-rule:nonzero;stroke:none"
         id="path4876"
         inkscape:connector-curvature="0" /><path
         d="m 1686.8182,331.05447 c -0.9344,0 -1.8543,0.35189 -2.5552,1.05712 -0.7008,0.70378 -1.0513,1.62658 -1.0513,2.55083 0,-0.92425 0.3505,-1.84705 1.0513,-2.55083 0.7009,-0.70523 1.6208,-1.05712 2.5552,-1.05712 l 0,0 m 29.3776,1.40171 c -0.029,0 -0.073,0 -0.1022,0 0.029,0 0.073,0 0.1022,0 l 0,0 m -0.1314,0 c -0.029,0 -0.044,0 -0.073,0 0.029,0 0.044,0 0.073,0 m -0.1168,0 c -0.015,0 -0.044,0 -0.088,0 0.044,0 0.073,0 0.088,0 m -0.1022,10e-4 c -0.029,0 -0.058,0 -0.1022,0.001 0.029,-0.001 0.073,-0.001 0.1022,-0.001 m -0.1314,0.001 c -0.029,0 -0.044,0 -0.073,0 0.029,0 0.044,0 0.073,0 m -0.1168,10e-4 c -0.015,0 -0.044,0 -0.058,10e-4 0.015,-10e-4 0.044,-10e-4 0.058,-10e-4 m -0.1022,10e-4 c -0.029,0 -0.058,0.001 -0.088,0.001 0.029,0 0.058,-0.001 0.088,-0.001 m -0.146,0.003 c -0.015,0 -0.029,0 -0.044,10e-4 0.015,-10e-4 0.029,-10e-4 0.044,-10e-4 m -0.1168,0.003 c 0,0 0,0 -0.015,0 0.015,0 0.015,0 0.015,0 m -34.7509,34.70706 c 0,10e-4 0,0.003 0,0.006 0,-0.003 0,-0.004 0,-0.006 m 0,0.11097 c 0,0.003 0,0.009 0,0.0131 0,-0.004 0,-0.0102 0,-0.0131 m 0,0.11096 c 0,0.007 0,0.0132 0,0.0219 0,-0.007 0,-0.0161 0,-0.0219 m -0.015,0.11097 c 0,0.0102 0,0.0219 0,0.0321 0,-0.0102 0,-0.0219 0,-0.0321 m 0,0.11097 c 0,0.0161 0,0.0307 0,0.0453 0,-0.0146 0,-0.0292 0,-0.0453 m 0,0.11389 c 0,0.0146 0,0.0307 0,0.0453 0,-0.0161 0,-0.0292 0,-0.0453 m 0,0.11389 c 0,0.0175 0,0.0321 0,0.0482 0,-0.0146 0,-0.0321 0,-0.0482 m 0,0.11243 c 0,0.0263 0,0.054 0,0.0788 0,-0.0263 0,-0.0511 0,-0.0788 m 0,0.11389 c 0,0.038 0,0.0759 0,0.11535 l 0,0 c 0,-0.0394 0,-0.0774 0,-0.11535"
         style="fill:#a2b9e4;fill-opacity:1;fill-rule:nonzero;stroke:none"
         id="path4878"
         inkscape:connector-curvature="0" /><path
         d="m 1716.1958,332.45618 c -0.029,0 -0.073,0 -0.1022,0 0,0 -0.029,0 -0.029,0 -0.029,0 -0.044,0 -0.073,0 -0.015,0 -0.029,0 -0.044,0 -0.015,0 -0.044,0 -0.088,0 0,0 0,10e-4 -0.015,10e-4 -0.029,0 -0.073,0 -0.1022,0.001 0,0 -0.029,0 -0.029,0 -0.029,0 -0.044,0 -0.073,0 -0.015,0 -0.029,10e-4 -0.044,10e-4 -0.015,0 -0.044,0 -0.058,10e-4 -0.015,0 -0.029,0 -0.044,0 -0.029,0 -0.058,0.001 -0.088,0.001 -0.015,0 -0.044,0 -0.058,10e-4 -0.015,0 -0.029,0 -0.044,0.001 -0.015,0 -0.044,10e-4 -0.073,10e-4 0,0 0,0 -0.015,0 -7.1254,0.1942 -13.7398,2.47929 -19.2444,6.25954 l 0,-0.006 1.6499,1.64993 c 1.4163,1.40756 1.4163,3.69265 0,5.1002 -0.7008,0.70524 -1.6207,1.05713 -2.5406,1.05713 -0.9345,0 -1.8543,-0.35189 -2.5552,-1.05713 l -2.0588,-2.05877 c -5.9719,6.19675 -9.739,14.53988 -9.9872,23.762 0,10e-4 0,0.003 0,0.006 0,0.035 0,0.0701 0,0.10513 0,0.003 0,0.009 0,0.0131 0,0.0321 0,0.0642 0,0.0978 0,0.006 0,0.0146 0,0.0219 0,0.0292 0,0.0599 -0.015,0.0891 0,0.0102 0,0.0219 0,0.0321 0,0.0248 0,0.0526 0,0.0788 0,0.0161 0,0.0307 0,0.0453 0,0.0234 0,0.0453 0,0.0686 0,0.0161 0,0.0292 0,0.0453 0,0.0219 0,0.0453 0,0.0686 0,0.0161 0,0.0336 0,0.0482 0,0.0219 0,0.0423 0,0.0642 0,0.0277 0,0.0526 0,0.0788 0,0.0131 0,0.0219 0,0.035 0,0.038 0,0.0759 0,0.11535 0,19.73352 16.0029,35.7306 35.7291,35.7306 l 0,-8.23946 c -15.1852,0 -27.494,-12.30881 -27.494,-27.49114 0,-15.18525 12.3088,-27.4926 27.494,-27.4926 l 0,-8.23946"
         style="fill:#eb1e33;fill-opacity:1;fill-rule:nonzero;stroke:none"
         id="path4880"
         inkscape:connector-curvature="0" /><path
         d="m 1716.1958,340.69564 c -15.1852,0 -27.494,12.30735 -27.494,27.4926 0,15.18233 12.3088,27.49114 27.494,27.49114 l 0,-2.79175 c -1.6645,0 -3.0078,-1.34915 -3.0078,-3.01223 0,-1.66307 1.3433,-3.01077 3.0078,-3.01077 l 0,-11.66343 c -0.9782,0 -1.9127,-0.20004 -2.7596,-0.56361 l -9.666,9.67621 c -0.3066,0.31393 -0.73,0.46724 -1.1681,0.46724 -0.5402,0 -1.1097,-0.22632 -1.5477,-0.66727 -0.8031,-0.80453 -0.8907,-2.01935 -0.2044,-2.7129 l 9.4324,-9.44114 c -0.7009,-1.08779 -1.0951,-2.38292 -1.0951,-3.77149 0,-3.87516 3.1392,-7.01588 7.0085,-7.01588 l 0,-11.66344 c -1.6645,0 -3.0078,-1.34769 -3.0078,-3.01076 0,-1.66308 1.3433,-3.01077 3.0078,-3.01077 l 0,-2.79175 m -21.6827,30.50337 c -1.6646,0 -3.0225,-1.34915 -3.0225,-3.01077 0,-1.66454 1.3579,-3.01223 3.0225,-3.01223 1.6499,0 3.0078,1.34769 3.0078,3.01223 0,1.66162 -1.3579,3.01077 -3.0078,3.01077"
         style="fill:#fef9e3;fill-opacity:1;fill-rule:nonzero;stroke:none"
         id="path4882"
         inkscape:connector-curvature="0" /><path
         d="m 1716.1958,361.17236 c -3.8693,0 -7.0085,3.14072 -7.0085,7.01588 0,1.38857 0.3942,2.6837 1.0951,3.77149 l 0.4818,-0.48184 c 0.3066,-0.31393 0.7301,-0.46724 1.1681,-0.46724 0.5402,0 1.1097,0.22778 1.5477,0.66874 0.8031,0.80452 0.8907,2.01934 0.2044,2.71144 l -0.2482,0.24676 c 0.8469,0.36357 1.7814,0.56361 2.7596,0.56361 l 0,-3.93795 c -1.6937,0 -3.0808,-1.37835 -3.0808,-3.07501 0,-1.69958 1.3871,-3.07647 3.0808,-3.07647 l 0,-3.93941"
         style="fill:#7f8798;fill-opacity:1;fill-rule:nonzero;stroke:none"
         id="path4884"
         inkscape:connector-curvature="0" /><path
         d="m 1686.8182,331.05447 c -0.9344,0 -1.8543,0.35189 -2.5552,1.05712 -0.7008,0.70378 -1.0513,1.62658 -1.0513,2.55083 0,0.9228 0.3505,1.8456 1.0513,2.55083 l 6.2055,6.19967 0,0 2.0588,2.05877 c 0.7009,0.70524 1.6207,1.05713 2.5552,1.05713 0.9199,0 1.8398,-0.35189 2.5406,-1.05713 1.4163,-1.40755 1.4163,-3.69264 0,-5.1002 l -1.6499,-1.64993 -6.5998,-6.60997 c -0.029,-0.0336 -0.073,-0.0657 -0.1022,-0.0978 -0.7008,-0.63954 -1.5769,-0.9593 -2.453,-0.9593"
         style="fill:#eb1e33;fill-opacity:1;fill-rule:nonzero;stroke:none"
         id="path4886"
         inkscape:connector-curvature="0" /><path
         d="m 1711.9323,371.01065 c -0.438,0 -0.8615,0.15331 -1.1681,0.46724 l -0.4818,0.48184 -9.4324,9.44114 c -0.6863,0.69355 -0.5987,1.90837 0.2044,2.7129 0.438,0.44095 1.0075,0.66727 1.5477,0.66727 0.4381,0 0.8615,-0.15331 1.1681,-0.46724 l 9.666,-9.67621 0.2482,-0.24676 c 0.6863,-0.6921 0.5987,-1.90692 -0.2044,-2.71144 -0.438,-0.44096 -1.0075,-0.66874 -1.5477,-0.66874"
         style="fill:#7f8798;fill-opacity:1;fill-rule:nonzero;stroke:none"
         id="path4888"
         inkscape:connector-curvature="0" /><path
         d="m 1716.1958,365.11177 c -1.6937,0 -3.0808,1.37689 -3.0808,3.07647 0,1.69666 1.3871,3.07501 3.0808,3.07501 l 0,-6.15148"
         style="fill:#ad3da5;fill-opacity:1;fill-rule:nonzero;stroke:none"
         id="path4890"
         inkscape:connector-curvature="0" /><path
         d="m 1694.5131,365.17601 c -1.6646,0 -3.0225,1.34769 -3.0225,3.01223 0,1.66162 1.3579,3.01077 3.0225,3.01077 1.6499,0 3.0078,-1.34915 3.0078,-3.01077 0,-1.66454 -1.3579,-3.01223 -3.0078,-3.01223"
         style="fill:#b5b6b4;fill-opacity:1;fill-rule:nonzero;stroke:none"
         id="path4892"
         inkscape:connector-curvature="0" /><path
         d="m 1716.1958,343.48739 c -1.6645,0 -3.0078,1.34769 -3.0078,3.01077 0,1.66307 1.3433,3.01076 3.0078,3.01076 l 0,-6.02153"
         style="fill:#b5b6b4;fill-opacity:1;fill-rule:nonzero;stroke:none"
         id="path4894"
         inkscape:connector-curvature="0" /><path
         d="m 1716.1958,386.86463 c -1.6645,0 -3.0078,1.3477 -3.0078,3.01077 0,1.66308 1.3433,3.01223 3.0078,3.01223 l 0,-6.023"
         style="fill:#b5b6b4;fill-opacity:1;fill-rule:nonzero;stroke:none"
         id="path4896"
         inkscape:connector-curvature="0" /><path
         d="m 1318.338,496.17944 c -4.3906,0 -7.9606,3.56415 -7.9606,7.95911 0,4.39496 3.57,7.95912 7.9606,7.95912 4.3993,0 7.9591,-3.56416 7.9591,-7.95912 0,-4.39496 -3.5598,-7.95911 -7.9591,-7.95911 m 46.239,42.06606 c -3.0297,14.02299 -22.7399,29.56013 -44.719,25.01331 -21.9807,-4.54827 -34.491,-26.90709 -29.5602,-50.02517 4.9308,-23.11808 29.9091,-29.65796 40.1694,-24.25405 7.2013,3.78901 4.9308,18.19017 7.5809,23.11808 2.6501,4.92498 8.3388,4.92498 17.4295,5.30461 9.0994,0.37963 12.1307,6.82168 9.0994,20.84322"
         style="fill:#d49d2b;fill-opacity:1;fill-rule:nonzero;stroke:none"
         id="path4898"
         inkscape:connector-curvature="0" /><path
         d="m 1310.757,524.22396 c 0,-3.97736 -3.2195,-7.20131 -7.1998,-7.20131 -3.9701,0 -7.1999,3.22395 -7.1999,7.20131 0,3.97591 3.2298,7.19986 7.1999,7.19986 3.9803,0 7.1998,-3.22395 7.1998,-7.19986"
         style="fill:#cd1894;fill-opacity:1;fill-rule:nonzero;stroke:none"
         id="path4900"
         inkscape:connector-curvature="0" /><path
         d="m 1320.6172,543.55157 c 0,-3.97737 -3.2298,-7.19985 -7.1998,-7.19985 -3.9789,0 -7.1999,3.22248 -7.1999,7.19985 0,3.97591 3.221,7.19985 7.1999,7.19985 3.97,0 7.1998,-3.22394 7.1998,-7.19985"
         style="fill:#5cc7b0;fill-opacity:1;fill-rule:nonzero;stroke:none"
         id="path4902"
         inkscape:connector-curvature="0" /><path
         d="m 1340.3172,548.85765 c 0,-3.97737 -3.2196,-7.19985 -7.1999,-7.19985 -3.9701,0 -7.1998,3.22248 -7.1998,7.19985 0,3.9759 3.2297,7.19985 7.1998,7.19985 3.9803,0 7.1999,-3.22395 7.1999,-7.19985"
         style="fill:#f8e706;fill-opacity:1;fill-rule:nonzero;stroke:none"
         id="path4904"
         inkscape:connector-curvature="0" /><path
         d="m 1357.3772,536.35172 c 0,-3.97737 -3.2298,-7.20131 -7.1999,-7.20131 -3.9802,0 -7.1998,3.22394 -7.1998,7.20131 0,3.97591 3.2196,7.19985 7.1998,7.19985 3.9701,0 7.1999,-3.22394 7.1999,-7.19985"
         style="fill:#3f58b0;fill-opacity:1;fill-rule:nonzero;stroke:none"
         id="path4906"
         inkscape:connector-curvature="0" /><path
         d="m 1302.2372,494.14841 c -0.01,0.007 -0.01,0.0117 -0.019,0.0161 0.01,-0.004 0.01,-0.009 0.019,-0.0161 m -0.07,0.0511 c -0.01,0.0117 -0.019,0.0219 -0.039,0.0336 0.021,-0.0117 0.031,-0.0234 0.039,-0.0336 m -0.06,0.054 c -0.019,0.0131 -0.039,0.0277 -0.06,0.0409 0.021,-0.0131 0.041,-0.0277 0.06,-0.0409 m -0.07,0.0526 c -5.4594,4.24457 -9.939,10.47929 -11.7394,18.92754 -0.7198,3.38602 -1.0702,6.75598 -1.0702,10.05585 0,-3.29987 0.3504,-6.66983 1.0702,-10.05585 1.8004,-8.44679 6.28,-14.68297 11.7394,-18.92754 m 16.3008,1.87334 c -4.3702,0 -7.9299,3.53641 -7.9504,7.90801 0.021,-4.3716 3.5802,-7.90801 7.9504,-7.90801 1.3389,0 2.599,0.33437 3.7101,0.91841 l 0,-0.006 c -1.1111,-0.58258 -2.3712,-0.91257 -3.7101,-0.91257 m -7.9606,7.95911 0,0 c 0,4.39496 3.57,7.95912 7.9606,7.95912 0.02,0 0.039,0 0.06,0 -0.02,0 -0.039,0 -0.06,0 -4.3906,0 -7.9606,-3.56416 -7.9606,-7.95912 m 11.6707,7.0407 c -1.06,0.55631 -2.25,0.88629 -3.5203,0.9155 1.2703,-0.0292 2.4603,-0.35481 3.5203,-0.90966 l 0,-0.006 m -3.5203,0.9155 c -0.021,0 -0.039,0 -0.05,0.001 0.01,-0.001 0.029,-0.001 0.05,-0.001 m -0.07,0.001 c -0.01,0 -0.029,0 -0.039,0 0.01,0 0.029,0 0.039,0 m 1.4003,51.1626 c 0.029,0.006 0.05,0.0117 0.08,0.0175 -0.031,-0.006 -0.051,-0.0117 -0.08,-0.0175"
         style="fill:#aec2e8;fill-opacity:1;fill-rule:nonzero;stroke:none"
         id="path4908"
         inkscape:connector-curvature="0" /><path
         d="m 1322.0481,487.19824 c -6.2011,0.003 -13.62,2.21208 -19.8109,6.95017 -0.01,0.007 -0.01,0.0117 -0.019,0.0161 -0.02,0.0117 -0.031,0.0248 -0.051,0.0351 -0.01,0.0102 -0.019,0.0219 -0.039,0.0336 -0.01,0.006 -0.02,0.0117 -0.02,0.0204 -0.019,0.0131 -0.039,0.0277 -0.06,0.0409 0,0.004 -0.01,0.007 -0.01,0.0117 -5.4594,4.24457 -9.939,10.48075 -11.7394,18.92754 -0.7198,3.38602 -1.0702,6.75598 -1.0702,10.05585 0.01,19.23124 11.8693,36.08832 30.6304,39.96932 l 0,0 c 0.029,0.006 0.05,0.0117 0.08,0.0175 0.7096,0.14309 1.409,0.26428 2.1098,0.36795 l 0,-52.45919 c -1.06,0.55485 -2.25,0.88045 -3.5203,0.90966 l 0,0 c -0.021,0 -0.039,0 -0.05,10e-4 -0.01,0 -0.01,0 -0.02,0 -0.01,0 -0.029,0 -0.039,0 -0.01,0 -0.01,0.001 -0.021,0.001 -0.02,0 -0.039,0 -0.06,0 -4.3906,0 -7.9606,-3.56416 -7.9606,-7.95912 l 0,0 c 0,-0.0175 0.01,-0.035 0.01,-0.0511 0.021,-4.3716 3.5802,-7.90801 7.9504,-7.90801 1.3389,0 2.599,0.32999 3.7101,0.91257 l 0,-9.89377 m -18.4909,44.22558 c -3.9701,0 -7.1999,-3.22395 -7.1999,-7.19986 0,-3.97736 3.2298,-7.20131 7.1999,-7.20131 3.9803,0 7.1998,3.22395 7.1998,7.20131 0,3.97591 -3.2195,7.19986 -7.1998,7.19986 m 9.8602,19.3276 c -3.9789,0 -7.1999,-3.22394 -7.1999,-7.19985 0,-3.97737 3.221,-7.19985 7.1999,-7.19985 3.97,0 7.1998,3.22248 7.1998,7.19985 0,3.97591 -3.2298,7.19985 -7.1998,7.19985"
         style="fill:#e0b861;fill-opacity:1;fill-rule:nonzero;stroke:none"
         id="path4910"
         inkscape:connector-curvature="0" /><path
         d="m 1303.5572,517.02265 c -3.9701,0 -7.1999,3.22395 -7.1999,7.20131 0,3.97591 3.2298,7.19986 7.1999,7.19986 3.9803,0 7.1998,-3.22395 7.1998,-7.19986 0,-3.97736 -3.2195,-7.20131 -7.1998,-7.20131"
         style="fill:#d83fa7;fill-opacity:1;fill-rule:nonzero;stroke:none"
         id="path4912"
         inkscape:connector-curvature="0" /><path
         d="m 1313.4174,536.35172 c -3.9789,0 -7.1999,3.22248 -7.1999,7.19985 0,3.97591 3.221,7.19985 7.1999,7.19985 3.97,0 7.1998,-3.22394 7.1998,-7.19985 0,-3.97737 -3.2298,-7.19985 -7.1998,-7.19985"
         style="fill:#8cd7c3;fill-opacity:1;fill-rule:nonzero;stroke:none"
         id="path4914"
         inkscape:connector-curvature="0" /><path
         d="m 1707.0409,702.11184 -6.5267,0 0,0.35481 c 0,1.40318 -1.1535,2.54061 -2.5407,2.54061 l -56.857,0 c -1.4017,0 -2.5406,-1.13743 -2.5406,-2.54061 l 0,-75.28963 c 0,-3.67074 0.4234,-8.87899 11.3013,-8.87899 l 57.1637,0 c 1.4309,0 2.5698,1.15058 2.5698,2.56982 l 0,78.67564 c 0,1.41778 -1.1389,2.56835 -2.5698,2.56835"
         style="fill:#ef3a1f;fill-opacity:1;fill-rule:nonzero;stroke:none"
         id="path4916"
         inkscape:connector-curvature="0" /><path
         d="m 1648.3003,705.00726 -7.1838,0 c -1.4017,0 -2.5406,-1.13743 -2.5406,-2.54061 l 0,-75.28963 c 0,-3.48384 0.3942,-8.34312 9.7244,-8.8308 l 0,86.66104"
         style="fill:#d33222;fill-opacity:1;fill-rule:nonzero;stroke:none"
         id="path4918"
         inkscape:connector-curvature="0" /><path
         d="m 1703.2738,697.31097 -2.7596,0 0,-68.61688 c 0,-1.40318 -1.1535,-2.54061 -2.5407,-2.54061 l -50.9435,0 0,-0.77824 c 0,-1.25717 1.022,-2.27633 2.2777,-2.27633 l 53.9661,0 c 1.2557,0 2.2778,1.01916 2.2778,2.27633 l 0,69.66086 c 0,1.25716 -1.0221,2.27487 -2.2778,2.27487"
         style="fill:#f8e8bb;fill-opacity:1;fill-rule:nonzero;stroke:none"
         id="path4920"
         inkscape:connector-curvature="0" /><path
         d="m 1666.1137,676.34803 -1.8981,-6.17047 3.7963,0 -1.8982,6.17047 m -9.4908,-15.42763 0,3.08523 1.8982,0 5.6945,18.51432 3.7963,0 5.6945,-18.51432 1.8981,0 0,-3.08523 -7.5926,0 0,3.08523 1.8981,0 -0.949,3.0867 -5.6945,0 -0.9491,-3.0867 1.8982,0 0,-3.08523 -7.5927,0"
         style="fill:#f8e706;fill-opacity:1;fill-rule:nonzero;stroke:none"
         id="path4922"
         inkscape:connector-curvature="0" /><path
         d="m 1682.3795,651.62527 5.7528,0 0,5.7631 -5.7528,0 0,-5.7631 z m 0,8.64245 5.7528,0 0,5.76164 -5.7528,0 0,-5.76164 z m -4.322,-11.5218 0,2.87935 1.4455,0 0,14.40409 -1.4455,0 0,2.88081 10.6589,0 2.307,-2.30406 0,-6.91367 -0.8615,-0.86439 0.8615,-0.8644 0,-6.91366 -2.307,-2.30407 -10.6589,0"
         style="fill:#90d123;fill-opacity:1;fill-rule:nonzero;stroke:none"
         id="path4924"
         inkscape:connector-curvature="0" /><path
         d="m 1665.8509,638.59808 -2.161,2.1712 0,14.65231 2.161,2.16973 6.5121,0 2.1756,-2.16973 0,-3.25753 -2.7158,0 0,2.71436 -5.4316,0 0,-13.56743 5.4316,0 0,2.71436 2.7158,0 0,-3.25607 -2.1756,-2.1712 -6.5121,0"
         style="fill:#6fd0e5;fill-opacity:1;fill-rule:nonzero;stroke:none"
         id="path4926"
         inkscape:connector-curvature="0" /><path
         d="m 1686.4094,689.06567 5.052,-4.14966 0,20.64464 -10.104,0 0,-20.64464 5.052,4.14966"
         style="fill:#3f58b0;fill-opacity:1;fill-rule:nonzero;stroke:none"
         id="path4928"
         inkscape:connector-curvature="0" /><path
         d="m 1673.0931,626.15348 -23.9314,0 0,78.85378 -0.8614,0 24.7928,0 0,-38.99396 -5.0812,16.50665 -3.7963,0 -5.6945,-18.51432 -1.8982,0 0,-3.08523 7.5927,0 0,3.08523 -1.8982,0 0.9491,3.08669 5.6945,0 0.949,-3.08669 -1.8981,0 0,-3.08523 5.0812,0 0,-4.05038 -0.7301,0.7213 -6.5121,0 -2.161,-2.16973 0,-14.65231 2.161,-2.1712 6.5121,0 0.7301,0.7213 0,-13.1659 m -5.0812,44.02408 -3.7963,0 1.8981,6.17047 1.8982,-6.17047"
         style="fill:#f2522a;fill-opacity:1;fill-rule:nonzero;stroke:none"
         id="path4930"
         inkscape:connector-curvature="0" /><path
         d="m 1647.4534,626.15348 -8.8629,0 c 0,0.11681 0,0.23362 0,0.34751 -0.015,0.22924 -0.015,0.45556 -0.015,0.67603 l 0,75.28963 c 0,1.40318 1.1389,2.54061 2.5406,2.54061 l 7.1838,0 -0.8469,0 0,-78.85378"
         style="fill:#df4a27;fill-opacity:1;fill-rule:nonzero;stroke:none"
         id="path4932"
         inkscape:connector-curvature="0" /><path
         d="m 1673.0931,660.9204 -5.0812,0 0,3.08523 1.8981,0 -0.949,3.08669 -5.6945,0 -0.9491,-3.08669 1.8982,0 0,-3.08523 -7.5927,0 0,3.08523 1.8982,0 5.6945,18.51432 3.7963,0 5.0812,-16.50665 0,-5.0929 m -6.9794,15.42763 -1.8981,-6.17047 3.7963,0 -1.8982,6.17047"
         style="fill:#f8eb2c;fill-opacity:1;fill-rule:nonzero;stroke:none"
         id="path4934"
         inkscape:connector-curvature="0" /><path
         d="m 1671.8228,641.31099 -5.4316,0 0,13.56743 5.4316,0 0,-2.71436 1.2703,0 0,-8.13871 -1.2703,0 0,-2.71436"
         style="fill:#f2522a;fill-opacity:1;fill-rule:nonzero;stroke:none"
         id="path4936"
         inkscape:connector-curvature="0" /><path
         d="m 1672.363,638.59808 -6.5121,0 -2.161,2.1712 0,14.65231 2.161,2.16973 6.5121,0 0.7301,-0.7213 0,-4.70596 -1.2703,0 0,2.71436 -5.4316,0 0,-13.56743 5.4316,0 0,2.71436 1.2703,0 0,-4.70597 -0.7301,-0.7213"
         style="fill:#87d8e8;fill-opacity:1;fill-rule:nonzero;stroke:none"
         id="path4938"
         inkscape:connector-curvature="0" /><path
         d="m 1648.3003,626.15348 0.8498,0 0,78.85334 -0.8498,0 0,-78.85334 z"
         style="fill:#c13022;fill-opacity:1;fill-rule:nonzero;stroke:none"
         id="path4940"
         inkscape:connector-curvature="0" /><path
         d="m 1647.4534,626.15348 0.8504,0 0,78.85334 -0.8504,0 0,-78.85334 z"
         style="fill:#e57256;fill-opacity:1;fill-rule:nonzero;stroke:none"
         id="path4942"
         inkscape:connector-curvature="0" /><path
         d="m 1794.2247,517.53807 c 0,-27.91019 -22.6319,-50.53621 -50.5348,-50.53621 -27.9175,0 -50.5347,22.62602 -50.5347,50.53621 0,27.9102 22.6172,50.53476 50.5347,50.53476 27.9029,0 50.5348,-22.62456 50.5348,-50.53476"
         style="fill:#8eaade;fill-opacity:1;fill-rule:nonzero;stroke:none"
         id="path4944"
         inkscape:connector-curvature="0" /><path
         d="m 1763.0219,558.89743 c -8.4103,0 -23.0115,-15.0991 -33.9186,-35.12172 -13.6813,-25.0761 -15.8861,-45.73972 -9.3448,-49.3068 0.7155,-0.39131 1.5624,-0.59134 2.4822,-0.59134 8.4103,0 23.0115,15.10056 33.9332,35.12318 6.2055,11.37434 10.5275,22.86986 12.1774,32.37378 1.5478,8.93302 0.5111,15.10494 -2.8472,16.93301 -0.7155,0.39278 -1.5477,0.58989 -2.4822,0.58989 m -40.7812,-87.52689 c -1.3579,0 -2.599,0.30224 -3.6795,0.89651 -8.8191,4.81548 -5.1688,27.9686 8.3373,52.71034 11.6956,21.4477 26.5596,36.42853 36.1234,36.42853 1.3579,0 2.599,-0.30079 3.6795,-0.89651 4.4242,-2.41066 5.8843,-9.35937 4.1175,-19.56415 -1.6937,-9.76675 -6.1179,-21.53823 -12.4402,-33.14619 -11.7101,-21.4477 -26.5596,-36.42853 -36.138,-36.42853"
         style="fill:#4c71ba;fill-opacity:1;fill-rule:nonzero;stroke:none"
         id="path4946"
         inkscape:connector-curvature="0" /><path
         d="m 1722.0801,558.80837 c -0.9344,0 -1.7813,-0.2015 -2.4968,-0.60011 -6.5267,-3.59628 -4.2489,-24.25114 9.5492,-49.26737 10.9801,-19.93794 25.6251,-34.9728 34.05,-34.9728 0.9491,0 1.7814,0.2015 2.5114,0.60157 3.3437,1.84413 4.3512,8.02044 2.7596,16.94616 -1.6937,9.49516 -6.0595,20.9717 -12.3234,32.31975 -10.9801,19.93794 -25.6251,34.9728 -34.05,34.9728 m 41.1024,-87.34876 c -9.5638,0 -24.4716,14.91658 -36.2402,36.27084 -13.6083,24.68041 -17.39,47.81747 -8.5709,52.67383 1.0951,0.60449 2.3508,0.91257 3.7087,0.91257 9.5784,0 24.4716,-14.91658 36.2548,-36.27084 6.3807,-11.58167 10.8633,-23.33418 12.5862,-33.09216 1.8106,-10.19748 0.3797,-17.15057 -4.0153,-19.58167 -1.0951,-0.60449 -2.3508,-0.91257 -3.7233,-0.91257"
         style="fill:#4c71ba;fill-opacity:1;fill-rule:nonzero;stroke:none"
         id="path4948"
         inkscape:connector-curvature="0" /><path
         d="m 1743.1205,531.81221 -0.5403,-0.001 c -12.9659,-0.0496 -25.1287,-1.80617 -34.2398,-4.94689 -8.5563,-2.95382 -13.4769,-6.83774 -13.4623,-10.65888 0.029,-7.36046 19.0254,-15.24073 47.2641,-15.24073 l 0.5548,10e-4 c 28.56,0.10805 47.7167,8.15623 47.6875,15.6043 -0.029,7.36047 -19.0107,15.2422 -47.264,15.2422 m -0.9783,-33.35644 c -27.8737,0 -49.7317,7.79412 -49.7609,17.74045 -0.029,5.03304 5.3586,9.66308 15.1414,13.03742 9.374,3.22832 21.8142,5.03449 35.0429,5.08559 l 0.5549,0.001 c 27.8736,0 49.7316,-7.79266 49.7754,-17.74045 0.044,-10.05439 -22.004,-18.01497 -50.1843,-18.12155 l -0.5694,-0.003"
         style="fill:#4c71ba;fill-opacity:1;fill-rule:nonzero;stroke:none"
         id="path4950"
         inkscape:connector-curvature="0" /><path
         d="m 1753.7647,516.3875 c 0,-6.14565 -4.979,-11.1305 -11.1261,-11.1305 -6.1471,0 -11.1261,4.98485 -11.1261,11.1305 0,6.14856 4.979,11.13341 11.1261,11.13341 6.1471,0 11.1261,-4.98485 11.1261,-11.13341"
         style="fill:#e21d25;fill-opacity:1;fill-rule:nonzero;stroke:none"
         id="path4952"
         inkscape:connector-curvature="0" /><path
         d="m 1737.9808,552.37654 c -2.2193,-3.09546 -6.5121,-3.81384 -9.6076,-1.60613 -3.0954,2.2077 -3.8109,6.50775 -1.6061,9.60466 2.2048,3.09546 6.5121,3.8153 9.593,1.60614 3.1101,-2.2077 3.8255,-6.50776 1.6207,-9.60467"
         style="fill:#30548f;fill-opacity:1;fill-rule:nonzero;stroke:none"
         id="path4954"
         inkscape:connector-curvature="0" /><path
         d="m 1703.1424,502.39663 c -3.4313,-1.64556 -7.5342,-0.20004 -9.1696,3.22686 -1.6499,3.42691 -0.219,7.54152 3.2123,9.18708 3.4313,1.64555 7.5488,0.20004 9.1987,-3.22687 1.65,-3.42836 0.1899,-7.54152 -3.2414,-9.18707"
         style="fill:#30548f;fill-opacity:1;fill-rule:nonzero;stroke:none"
         id="path4956"
         inkscape:connector-curvature="0" /><path
         d="m 1775.2139,546.99161 c 2.6282,-2.74356 2.526,-7.10202 -0.2044,-9.73608 -2.745,-2.63405 -7.0962,-2.54644 -9.739,0.19712 -2.6282,2.74211 -2.5406,7.10056 0.1898,9.73462 2.745,2.63406 7.1108,2.54499 9.7536,-0.19566"
         style="fill:#30548f;fill-opacity:1;fill-rule:nonzero;stroke:none"
         id="path4958"
         inkscape:connector-curvature="0" /><path
         d="m 1740.7843,519.91077 c 0,-1.48348 -1.1973,-2.68662 -2.6867,-2.68662 -1.4747,0 -2.6866,1.20314 -2.6866,2.68662 0,1.48494 1.2119,2.68662 2.6866,2.68662 1.4894,0 2.6867,-1.20168 2.6867,-2.68662"
         style="fill:#fdf8dc;fill-opacity:1;fill-rule:nonzero;stroke:none"
         id="path4960"
         inkscape:connector-curvature="0" /><path
         d="m 1742.6386,505.257 c -6.1471,0 -11.1261,4.98485 -11.1261,11.1305 0,6.14856 4.979,11.13341 11.1261,11.13341 l 0.015,-10e-4 0,-22.26099 -0.015,-10e-4 0,0 m -4.541,17.34039 c -1.4747,0 -2.6866,-1.20168 -2.6866,-2.68662 0,-1.48348 1.2119,-2.68662 2.6866,-2.68662 1.4894,0 2.6867,1.20314 2.6867,2.68662 0,1.48494 -1.1973,2.68662 -2.6867,2.68662"
         style="fill:#ed2239;fill-opacity:1;fill-rule:nonzero;stroke:none"
         id="path4962"
         inkscape:connector-curvature="0" /><path
         d="m 1738.0976,517.22415 c -1.4747,0 -2.6866,1.20314 -2.6866,2.68662 0,1.48494 1.2119,2.68662 2.6866,2.68662 1.4894,0 2.6867,-1.20168 2.6867,-2.68662 0,-1.48348 -1.1973,-2.68662 -2.6867,-2.68662"
         style="fill:#fefae4;fill-opacity:1;fill-rule:nonzero;stroke:none"
         id="path4964"
         inkscape:connector-curvature="0" /><path
         d="m 1706.3108,511.7195 c -0.015,0.0277 -0.029,0.0555 -0.044,0.0832 0.015,-0.0277 0.029,-0.0555 0.044,-0.0832 m -9.0527,3.12465 c 0.9345,0.43658 1.9273,0.64538 2.9056,0.64538 -0.9783,0 -1.9711,-0.2088 -2.9056,-0.64538 m 2.9348,0.64538 c -0.015,0 -0.029,0 -0.029,0 l 0,0 c 0,0 0.015,0 0.029,0"
         style="fill:#a6bce6;fill-opacity:1;fill-rule:nonzero;stroke:none"
         id="path4966"
         inkscape:connector-curvature="0" /><path
         d="m 1693.9728,505.62349 0,0 c -0.4818,0.96368 -0.7008,1.98285 -0.6862,2.98449 0,2.56251 1.4455,5.01843 3.8985,6.20259 0.029,0.0117 0.058,0.0219 0.073,0.0336 0.9345,0.43658 1.9273,0.64538 2.9056,0.64538 0,0 0,0 0,0 0,0 0.015,0 0.029,0 2.4676,-0.007 4.8476,-1.36084 6.0741,-3.68681 0.015,-0.0277 0.029,-0.0555 0.044,-0.0832 0.029,-0.0453 0.044,-0.0905 0.073,-0.1358 l -12.411,-5.96021"
         style="fill:#5777a8;fill-opacity:1;fill-rule:nonzero;stroke:none"
         id="path4968"
         inkscape:connector-curvature="0" /><path
         d="m 1726.7671,560.37507 c 0.015,0.0263 0.044,0.054 0.058,0.0818 -0.015,-0.0277 -0.044,-0.0555 -0.058,-0.0818 m 0.1022,0.13872 c 1.3433,1.78864 3.4021,2.74356 5.4901,2.74794 -2.088,-0.004 -4.1468,-0.9593 -5.4901,-2.74794 m 5.5193,2.74794 -0.015,0 0,0 0.015,0"
         style="fill:#a6bce6;fill-opacity:1;fill-rule:nonzero;stroke:none"
         id="path4970"
         inkscape:connector-curvature="0" /><path
         d="m 1728.3732,550.77041 0,0 c -1.8835,1.34623 -2.891,3.46778 -2.891,5.62146 0,1.37981 0.4234,2.77276 1.2849,3.9832 l 0,0 c 0.015,0.0263 0.044,0.054 0.058,0.0818 0.015,0.0175 0.029,0.038 0.044,0.0569 1.3433,1.78864 3.4021,2.74356 5.4901,2.74794 0.015,0 0.015,0 0.015,0 l 0.015,0 c 1.3725,-0.003 2.7742,-0.41905 3.9715,-1.28052 l -7.9869,-11.2108"
         style="fill:#5777a8;fill-opacity:1;fill-rule:nonzero;stroke:none"
         id="path4972"
         inkscape:connector-curvature="0" /><path
         d="m 1770.2349,535.33548 -0.015,0 0.015,0 0,0 m 0.044,0 c 1.6207,0.0102 3.2415,0.58989 4.541,1.74776 -1.2995,-1.15787 -2.9203,-1.73754 -4.541,-1.74776 m 4.6578,1.85289 c 0.015,0.0219 0.044,0.0438 0.073,0.0672 l 0,0 c -0.029,-0.0234 -0.058,-0.0453 -0.073,-0.0672 m -9.5492,0.14893 c -0.015,0.0117 -0.029,0.0234 -0.044,0.0336 0.015,-0.0102 0.029,-0.0219 0.044,-0.0336"
         style="fill:#a6bce6;fill-opacity:1;fill-rule:nonzero;stroke:none"
         id="path4974"
         inkscape:connector-curvature="0" /><path
         d="m 1770.2349,535.33548 -0.015,0 c -1.7522,0.004 -3.5043,0.67457 -4.833,2.00182 -0.015,0.0117 -0.029,0.0234 -0.044,0.0336 -0.015,0.0263 -0.044,0.054 -0.073,0.0818 l 0,0 c -1.2849,1.33893 -1.9274,3.06187 -1.9274,4.78335 0.015,1.80325 0.7301,3.60358 2.1172,4.95127 l 9.5492,-9.93174 c -0.029,-0.0234 -0.058,-0.0453 -0.073,-0.0672 -0.044,-0.0365 -0.073,-0.0716 -0.1168,-0.10513 -1.2995,-1.15787 -2.9203,-1.73754 -4.541,-1.74776 -0.015,0 -0.029,0 -0.044,0"
         style="fill:#5777a8;fill-opacity:1;fill-rule:nonzero;stroke:none"
         id="path4976"
         inkscape:connector-curvature="0" /><g
         id="g4978"
         transform="matrix(0.99999822,0,0,0.99999822,233.56909,-84.762977)"><text
           transform="matrix(1,0,0,-1,1320.88,88.9762)"
           style="font-variant:normal;font-weight:300;font-size:10px;font-family:Montserrat;-inkscape-font-specification:Montserrat-Light;writing-mode:lr-tb;fill:#ffffff;fill-opacity:1;fill-rule:nonzero;stroke:none"
           id="text4980"><tspan
             x="0 7.1700001 15.35 21.07 28.950001 41.389999 46.130001 50.799999 59.560001 66.089996 74.559998 87 91.739998 100.53 108.71 113.49 121.67 127.39 132.13 138.66 143.33 149.23 153.97 161.74001 174.17999 182.06 187.96001 191.92999 196.67 204.02988 212.20987 220.76987 227.29987 235.17987 242.78987 248.6097 256.48969 262.38971 270.85971 276.57971 281.3197 289.08969 297.8797 302.54971 311.30969 315.97971 322.5097 330.11969 334.7897 343.3497 351.70969 356.444 364.32401 369.104 373.77399 379.67401 383.664 388.40399 396.9744 401.64441 408.4946 416.26462 428.70462 437.17462 443.70462"
             y="0"
             sodipodi:role="line"
             id="tspan4982">Lorem ipsum dolor sit amet, consectetur adipiscing elit. Vivamus </tspan><tspan
             x="-9.1099997 -4.3299999 3.8499999 12.61 20.790001 26.51 32.41 37.080002 43.610001 48.349998 56.529999 62.25 69.860001 74.529999 79.269997 87.739998 92.519997 98.419998 104.14 108.81 116.16987 124.04987 130.57986 135.31987 140.09987 147.86987 155.47987 163.94987 170.47987 175.21986 183.97987 192.44987 197.22987 204.20987 208.87987 217.43987 225.20987 230.92987 234.89987 239.63988 246.45001 254.33002 259.11002 263.85001 268.52002 280.96002 289.72 297.60001 303.32001 312.11002 316.78 324.65302 330.55301 335.293 343.853 352.323 357.103 361.883 369.65302 374.39301 379.53271 387.41272 393.13272 405.57272 413.45273 422.01273 427.91272 436.38272 448.82272 452.81274"
             y="12"
             sodipodi:role="line"
             id="tspan4984">lobortis orci ultrices lacus pulvinar, vel imperdiet nulla fermentum. </tspan><tspan
             x="136.08 147.28999 155.06 163.53 169.25 173.92 180.45 185.19 193.75 201.63 209.24001 213.98 220.83006 228.60007 234.32007 238.99007 247.46007 253.99007 258.73007 271.17007 278.94006 287.30008 295.86008 303.63007 307.62006"
             y="24"
             sodipodi:role="line"
             id="tspan4986">Mauris nec varius magna. </tspan></text>
</g><path
         d="m 1607.1833,450.78577 c 0,0 -15.4919,-17.44406 -61.1936,-17.44406 -45.7164,0 -75.5467,17.44406 -75.5467,17.44406 0,0 -17.3754,159.33851 66.0997,159.33851 104.2525,0 70.6406,-159.33851 70.6406,-159.33851"
         style="fill:#442717;fill-opacity:1;fill-rule:nonzero;stroke:none"
         id="path4994"
         inkscape:connector-curvature="0" /><path
         d="m 1525.6064,368.94458 c 8.1621,-10.73042 24.2964,-10.73042 32.4584,0 2.6867,3.54517 4.1468,7.87589 4.1468,12.32926 l 0,69.51193 -40.752,0 0,-69.51193 c 0,-4.45337 1.4602,-8.78409 4.1468,-12.32926"
         style="fill:#fde8d3;fill-opacity:1;fill-rule:nonzero;stroke:none"
         id="path4996"
         inkscape:connector-curvature="0" /><path
         d="m 1562.2116,425.41034 c -13.1995,-4.52345 -27.5379,-4.52345 -40.752,0 l 0,25.37543 40.752,0 0,-25.37543"
         style="fill:#fadabc;fill-opacity:1;fill-rule:nonzero;stroke:none"
         id="path4998"
         inkscape:connector-curvature="0" /><path
         d="m 1483.7593,552.04655 c 0,32.07592 26.0048,58.07773 58.0836,58.07773 32.0643,0 58.069,-26.00181 58.069,-58.07773 l 4.541,-47.51523 c 2.672,-28.03284 -13.6084,-54.42889 -39.8613,-64.62053 -14.6304,-5.68424 -30.867,-5.68424 -45.5266,0 -26.2529,10.19164 -42.5333,36.58769 -39.8466,64.62053 l 4.5409,47.51523"
         style="fill:#fdf3e2;fill-opacity:1;fill-rule:nonzero;stroke:none"
         id="path5000"
         inkscape:connector-curvature="0" /><path
         d="m 1581.1201,579.52747 c 0,0 -13.9879,-52.88263 -74.0572,-48.35042 0,0 -36.6199,-53.63896 -24.9097,-97.83534 0,0 -23.8963,8.68918 -23.8963,35.13049 0,26.44131 -20.3497,160.76797 91.5729,153.20455 83.8693,-5.66526 78.715,-125.25055 63.9532,-170.64276 -2.891,-8.92572 -10.2792,-15.65979 -19.4488,-17.69228 0,0 12.5863,47.66124 8.1767,91.44586 -4.395,43.78608 -21.3908,54.7399 -21.3908,54.7399"
         style="fill:#6c3317;fill-opacity:1;fill-rule:nonzero;stroke:none"
         id="path5002"
         inkscape:connector-curvature="0" /><path
         d="m 1490.0379,496.29187 c 0,-6.67859 6.5267,-12.09418 14.5866,-12.09418 8.0598,0 14.5866,5.41559 14.5866,12.09418 0,6.68005 -6.5268,12.09563 -14.5866,12.09563 -8.0599,0 -14.5866,-5.41558 -14.5866,-12.09563"
         style="fill:#fbc8d2;fill-opacity:1;fill-rule:nonzero;stroke:none"
         id="path5004"
         inkscape:connector-curvature="0" /><path
         d="m 1564.4456,496.29333 c 0,-6.68005 6.5267,-12.09564 14.5866,-12.09564 8.0598,0 14.6012,5.41559 14.6012,12.09564 0,6.68005 -6.5414,12.09417 -14.6012,12.09417 -8.0599,0 -14.5866,-5.41412 -14.5866,-12.09417"
         style="fill:#fbc8d2;fill-opacity:1;fill-rule:nonzero;stroke:none"
         id="path5006"
         inkscape:connector-curvature="0" /><path
         d="m 1505.3545,520.5795 c -0.292,0.476 0.2482,1.01041 0.7301,0.73298 l 2.161,-1.26738 c 0.7884,2.43256 2.1901,4.05475 3.7963,4.05475 2.4676,0 4.4679,-3.8737 4.4679,-8.65121 0,-4.77751 -2.0003,-8.65121 -4.4679,-8.65121 -2.4676,0 -4.4826,3.8737 -4.4826,8.65121 0,0.42344 0.015,0.83665 0.044,1.24402 l -2.2486,3.88684"
         style="fill:#442717;fill-opacity:1;fill-rule:nonzero;stroke:none"
         id="path5008"
         inkscape:connector-curvature="0" /><path
         d="m 1580.4631,520.5795 c 0.2774,0.476 -0.2628,1.01041 -0.7301,0.73298 l -2.1755,-1.26738 c -0.7885,2.43256 -2.1902,4.05475 -3.7964,4.05475 -2.4676,0 -4.4679,-3.8737 -4.4679,-8.65121 0,-4.77751 2.0003,-8.65121 4.4679,-8.65121 2.4822,0 4.4826,3.8737 4.4826,8.65121 0,0.42344 -0.015,0.83665 -0.044,1.24402 l 2.2632,3.88684"
         style="fill:#442717;fill-opacity:1;fill-rule:nonzero;stroke:none"
         id="path5010"
         inkscape:connector-curvature="0" /><path
         d="m 1569.0304,550.10751 c 3.8693,4.10002 19.4487,0.26428 19.0253,-12.05475 0,0 -6.5851,11.1451 -18.7625,6.45373 0,0 -1.2119,4.5804 -0.2628,5.60102"
         style="fill:#442717;fill-opacity:1;fill-rule:nonzero;stroke:none"
         id="path5012"
         inkscape:connector-curvature="0" /><path
         d="m 1533.1698,498.61784 0.015,0.0438 c 0.1314,0.54317 0.3796,1.04107 0.7009,1.47472 3.0662,6.55448 5.2856,14.07994 6.8041,20.30881 0.6133,2.48659 4.103,2.53623 4.7746,0.0686 2.6282,-9.57839 6.6582,-19.07501 6.6582,-19.07501 l 0.5986,-1.39733 c 0.6717,-0.93594 0.9637,-2.15222 0.6425,-3.45173 -0.3067,-1.18854 -1.1681,-2.1931 -2.2924,-2.70122 -1.1681,-0.54024 -2.2778,-0.47162 -3.2269,-0.0993 -0.9199,-1.51268 -2.5844,-2.53185 -4.4826,-2.53185 -1.9273,0 -3.5919,1.04545 -4.5117,2.5888 -0.4819,-0.2088 -1.0075,-0.33437 -1.5478,-0.34751 -1.1389,-0.0307 -2.1755,0.51688 -2.9494,1.33893 -1.4163,1.50684 -1.4455,2.6983 -1.1827,3.78025"
         style="fill:#fadabc;fill-opacity:1;fill-rule:nonzero;stroke:none"
         id="path5014"
         inkscape:connector-curvature="0" /><path
         d="m 1543.8433,464.32254 c 15.6525,0 17.098,9.75214 17.171,10.16682 0.1168,0.93155 -0.5403,1.78426 -1.4747,1.90545 -0.9053,0.12265 -1.7668,-0.52564 -1.8982,-1.44844 -0.058,-0.3402 -1.2995,-7.22467 -13.7981,-7.22467 -12.9075,0 -14.9662,7.34294 -14.9809,7.41741 -0.2482,0.90819 -1.168,1.45282 -2.0733,1.21628 -0.9053,-0.238 -1.4601,-1.16664 -1.2265,-2.07483 0.1168,-0.40591 2.7888,-9.95802 18.2807,-9.95802"
         style="fill:#f78f9e;fill-opacity:1;fill-rule:nonzero;stroke:none"
         id="path5016"
         inkscape:connector-curvature="0" /><path
         d="m 1448.1879,213.98643 187.2925,0 0,146.86179 c 0,22.32377 -18.1055,40.42196 -40.4161,40.42196 l -35.846,0 -17.3754,-10.9363 -20.3833,10.9363 -32.8381,0 c -22.3398,0 -40.4336,-18.09819 -40.4336,-40.42196 l 0,-146.86179"
         style="fill:#a41c22;fill-opacity:1;fill-rule:nonzero;stroke:none"
         id="path5018"
         inkscape:connector-curvature="0" /><path
         d="m 1595.0643,401.27018 -46.8407,-56.09635 c -3.329,-3.98321 -9.4469,-3.98321 -12.776,0 l -46.8261,56.09635 38.4742,0 14.7472,-11.8956 17.3754,11.8956 35.846,0"
         style="fill:#f5f5f5;fill-opacity:1;fill-rule:nonzero;stroke:none"
         id="path5020"
         inkscape:connector-curvature="0" /><path
         d="m 1541.8429,368.26563 0,27.16845 c 0,0.61471 -0.2628,1.20168 -0.7008,1.62949 l -24.5155,23.68023 c -1.1827,1.14911 -3.1684,0.67603 -3.7087,-0.88921 l -5.7236,-16.52418 c -0.2629,-0.77095 -0.1022,-1.62512 0.438,-2.23691 l 30.2391,-34.3245 c 1.3725,-1.56671 3.9715,-0.59135 3.9715,1.49663"
         style="fill:#ffffff;fill-opacity:1;fill-rule:nonzero;stroke:none"
         id="path5022"
         inkscape:connector-curvature="0" /><path
         d="m 1541.8429,368.26563 0,27.16845 c 0,0.61471 0.2482,1.20168 0.6863,1.62949 l 24.5154,23.68023 c 1.1827,1.14911 3.1684,0.67603 3.7087,-0.88921 l 5.7091,-16.52418 c 0.2774,-0.77095 0.1022,-1.62512 -0.4381,-2.23691 l -30.2245,-34.3245 c -1.3871,-1.56671 -3.9569,-0.59135 -3.9569,1.49663"
         style="fill:#ffffff;fill-opacity:1;fill-rule:nonzero;stroke:none"
         id="path5024"
         inkscape:connector-curvature="0" /><g
         transform="scale(0.146012,0.146012)"
         id="g5026"><g
           id="g5028"
           clip-path="url(#clipPath5030)"><path
             d="m 9916.84,1465.54 641.316,0 0,1282.66 -641.316,0 0,-1282.66 z"
             style="fill:#a6bce6;fill-opacity:1;fill-rule:nonzero;stroke:none"
             id="path5034"
             inkscape:connector-curvature="0" /></g></g><path
         d="m 1541.6239,213.98643 -93.436,0 0,146.86179 c 0,22.32377 18.0938,40.42196 40.4336,40.42196 l 0,0 46.8261,-56.09635 c 1.6207,-1.93174 3.8839,-2.92608 6.1763,-2.98449 l 0,-128.20291"
         style="fill:#c21e25;fill-opacity:1;fill-rule:nonzero;stroke:none"
         id="path5036"
         inkscape:connector-curvature="0" /><path
         d="m 1507.5009,401.27018 -0.1898,0 c -0.4381,0.59573 -0.5695,1.35791 -0.3212,2.06023 l 5.7236,16.52418 c 0.3212,0.97536 1.2265,1.52582 2.1318,1.52582 0.044,0 0.073,-10e-4 0.1168,-0.003 -0.8907,-0.0409 -1.7229,-0.58697 -2.0442,-1.5229 l -5.7236,-16.52418 c -0.2337,-0.6994 -0.1314,-1.46596 0.3066,-2.06023"
         style="fill:#a6bce6;fill-opacity:1;fill-rule:nonzero;stroke:none"
         id="path5038"
         inkscape:connector-curvature="0" /><path
         d="m 1541.6239,342.18934 c -2.2924,0.0584 -4.5556,1.05275 -6.1763,2.98449 l -46.8261,56.09635 18.6896,0 0.1898,0 c 0.044,-0.0613 0.088,-0.11973 0.1314,-0.17668 l 30.2391,-34.3245 c 0.4672,-0.5344 1.0805,-0.7724 1.6791,-0.7724 0.8615,0 1.6938,0.48622 2.0734,1.29221 l 0,-25.09947"
         style="fill:#f7f8f8;fill-opacity:1;fill-rule:nonzero;stroke:none"
         id="path5040"
         inkscape:connector-curvature="0" /><path
         d="m 1521.4596,416.08164 -0.219,0.20587 0,18.75086 c -18.2515,2.53477 -32.4584,7.40281 -41.19,11.06187 0,0.0292 0,0.0584 0,0.0905 8.7024,-3.66928 22.9969,-8.60303 41.409,-11.15824 l 0,-18.95089 m -39.5254,17.26007 c 0,0 -23.8876,8.68918 -23.8876,35.13049 0,24.50374 -17.4396,141.64624 69.0929,152.65847 -86.3223,-11.15678 -68.8826,-128.1708 -68.8826,-152.65847 0,-24.89066 21.1659,-34.05 23.6627,-35.0385 0,-0.0307 0.015,-0.0599 0.015,-0.092"
         style="fill:#a6bce6;fill-opacity:1;fill-rule:nonzero;stroke:none"
         id="path5042"
         inkscape:connector-curvature="0" /><path
         d="m 1521.4596,435.03253 c -18.4121,2.55521 -32.7066,7.48896 -41.409,11.15824 -0.73,10.14929 0.5403,20.4738 2.8911,30.26099 6.1471,-16.37525 19.0107,-29.89888 36.1233,-36.54097 0.7885,-0.30516 1.5916,-0.59719 2.3946,-0.87023 l 0,-4.00803"
         style="fill:#553018;fill-opacity:1;fill-rule:nonzero;stroke:none"
         id="path5044"
         inkscape:connector-curvature="0" /><path
         d="m 1541.6239,396.39338 c -0.1168,0.24822 -0.2774,0.476 -0.4818,0.67019 l -19.6825,19.01807 0,22.95892 0,-13.63022 c 6.5268,-2.23836 13.3455,-3.36995 20.1643,-3.39332 l 0,-25.62364"
         style="fill:#feeedd;fill-opacity:1;fill-rule:nonzero;stroke:none"
         id="path5046"
         inkscape:connector-curvature="0" /><path
         d="m 1541.6239,422.01702 c -6.8188,0.0234 -13.6375,1.15496 -20.1643,3.39332 l 0,13.63022 c 6.5268,-2.23836 13.3455,-3.36849 20.1643,-3.39186 l 0,-13.63168"
         style="fill:#fbe3cc;fill-opacity:1;fill-rule:nonzero;stroke:none"
         id="path5048"
         inkscape:connector-curvature="0" /><path
         d="m 1541.6239,435.6487 c -6.8188,0.0234 -13.6375,1.1535 -20.1643,3.39186 l 0,0 c -0.803,0.27304 -1.6061,0.56507 -2.3946,0.87023 -17.1126,6.64209 -29.9762,20.16572 -36.1233,36.54097 7.14,29.83755 24.1212,54.72529 24.1212,54.72529 2.4676,-0.18689 4.8622,-0.27596 7.1837,-0.27596 10.6443,0.001 19.6971,1.89232 27.3773,4.93229 l 0,-13.96313 c -0.438,-0.31539 -0.7739,-0.79139 -0.9345,-1.42508 -1.5185,-6.22887 -3.7379,-13.75433 -6.8041,-20.30881 -0.3213,-0.43365 -0.5695,-0.93155 -0.7009,-1.47472 l -0.015,-0.0438 c -0.2628,-1.08195 -0.2336,-2.27341 1.1827,-3.78025 0.7593,-0.80015 1.7667,-1.34039 2.8618,-1.34039 0.029,0 0.058,0 0.088,10e-4 0.5403,0.0131 1.0659,0.13871 1.5478,0.34751 0.6278,-1.05567 1.5915,-1.87626 2.7742,-2.29239 l 0,-23.75469 c -10.9217,0.78116 -12.7468,7.26993 -12.7615,7.34002 -0.2044,0.76364 -0.8906,1.27176 -1.6499,1.27176 -0.146,0 -0.292,-0.019 -0.4234,-0.0555 -0.9053,-0.238 -1.4601,-1.16664 -1.2265,-2.07483 0.1022,-0.38547 2.526,-9.0323 16.0613,-9.88939 l 0,-28.74247 m -36.9994,72.7388 c -8.0599,0 -14.5866,-5.41558 -14.5866,-12.09563 0,-6.67859 6.5267,-12.09418 14.5866,-12.09418 8.0598,0 14.5866,5.41559 14.5866,12.09418 0,4.50301 -2.9641,8.42927 -7.359,10.51286 0.058,-0.004 0.1314,-0.007 0.1898,-0.007 2.4676,0 4.4679,3.8737 4.4679,8.65121 0,4.77751 -2.0003,8.65121 -4.4679,8.65121 -1.6062,0 -3.0079,-1.62219 -3.7963,-4.05475 l -2.161,1.26738 c -0.1022,0.0526 -0.1898,0.0759 -0.2774,0.0759 -0.3797,0 -0.6863,-0.42343 -0.4527,-0.80891 l 2.2486,-3.88684 c -0.029,-0.40737 -0.044,-0.82058 -0.044,-1.24402 0,-3.643 1.1681,-6.75889 2.818,-8.03504 -1.7667,0.62785 -3.7087,0.9739 -5.7528,0.9739"
         style="fill:#fef6e9;fill-opacity:1;fill-rule:nonzero;stroke:none"
         id="path5050"
         inkscape:connector-curvature="0" /><path
         d="m 1504.6245,484.19769 c -8.0599,0 -14.5866,5.41559 -14.5866,12.09418 0,6.68005 6.5267,12.09563 14.5866,12.09563 2.0441,0 3.9861,-0.34605 5.7528,-0.9739 0.4673,-0.35481 0.9491,-0.56798 1.4748,-0.60887 4.3949,-2.08359 7.359,-6.00985 7.359,-10.51286 0,-6.67859 -6.5268,-12.09418 -14.5866,-12.09418"
         style="fill:#fcd3db;fill-opacity:1;fill-rule:nonzero;stroke:none"
         id="path5054"
         inkscape:connector-curvature="0" /><path
         d="m 1512.0419,506.79743 c -0.058,0 -0.1314,0.003 -0.1898,0.007 -0.5257,0.0409 -1.0075,0.25406 -1.4748,0.60887 -1.6499,1.27615 -2.818,4.39204 -2.818,8.03504 0,0.42344 0.015,0.83665 0.044,1.24402 l -2.2486,3.88684 c -0.2336,0.38548 0.073,0.80891 0.4527,0.80891 0.088,0 0.1752,-0.0234 0.2774,-0.0759 l 2.161,-1.26738 c 0.7884,2.43256 2.1901,4.05475 3.7963,4.05475 2.4676,0 4.4679,-3.8737 4.4679,-8.65121 0,-4.77751 -2.0003,-8.65121 -4.4679,-8.65121"
         style="fill:#553018;fill-opacity:1;fill-rule:nonzero;stroke:none"
         id="path5056"
         inkscape:connector-curvature="0" /><path
         d="m 1541.6239,491.55378 c -1.1827,0.41613 -2.1464,1.23672 -2.7742,2.29239 -0.4819,-0.2088 -1.0075,-0.33437 -1.5478,-0.34751 -0.029,-10e-4 -0.058,-10e-4 -0.088,-10e-4 -1.0951,0 -2.1025,0.54024 -2.8618,1.34039 -1.4163,1.50684 -1.4455,2.6983 -1.1827,3.78025 l 0.015,0.0438 c 0.1314,0.54317 0.3796,1.04107 0.7009,1.47472 3.0662,6.55448 5.2856,14.07994 6.8041,20.30881 0.1606,0.63369 0.4965,1.10969 0.9345,1.42508 l 0,-30.31647"
         style="fill:#fbe3cc;fill-opacity:1;fill-rule:nonzero;stroke:none"
         id="path5058"
         inkscape:connector-curvature="0" /><path
         d="m 1541.6239,464.39117 c -13.5353,0.85709 -15.9591,9.50392 -16.0613,9.88939 -0.2336,0.90819 0.3212,1.83683 1.2265,2.07483 0.1314,0.0365 0.2774,0.0555 0.4234,0.0555 0.7593,0 1.4455,-0.50812 1.6499,-1.27176 0.015,-0.0701 1.8398,-6.55886 12.7615,-7.34002 l 0,-3.40792"
         style="fill:#f8a5b3;fill-opacity:1;fill-rule:nonzero;stroke:none"
         id="path5060"
         inkscape:connector-curvature="0" /><path
         d="m 1539.5505,365.9966 c -0.5986,0 -1.2119,0.238 -1.6791,0.7724 l -30.2391,34.3245 c -0.044,0.0569 -0.088,0.11535 -0.1314,0.17668 l 0,0 c -0.438,0.59427 -0.5403,1.36083 -0.3066,2.06023 l 5.7236,16.52418 c 0.3213,0.93593 1.1535,1.48202 2.0442,1.5229 0.511,-0.0248 1.0367,-0.22632 1.4601,-0.63369 l 4.8184,-4.66216 0,0.20587 0.219,-0.20587 19.6825,-19.01807 c 0.2044,-0.19419 0.365,-0.42197 0.4818,-0.67019 l 0,-29.10457 c -0.3796,-0.80599 -1.2119,-1.29221 -2.0734,-1.29221"
         style="fill:#ffffff;fill-opacity:1;fill-rule:nonzero;stroke:none"
         id="path5062"
         inkscape:connector-curvature="0" /><path
         d="m 1424.7676,137.55703 -127.1502,0 15.8496,31.38031 -15.8496,33.24402 127.1502,0 0,-64.62433"
         style="fill:#3f58b0;fill-opacity:1;fill-rule:nonzero;stroke:none"
         id="path5064"
         inkscape:connector-curvature="0" /><path
         d="m 1658.6817,137.55703 127.1619,0 -13.0535,30.91016 13.0535,33.71417 -127.1619,0 0,-64.62433"
         style="fill:#3f58b0;fill-opacity:1;fill-rule:nonzero;stroke:none"
         id="path5066"
         inkscape:connector-curvature="0" /><path
         d="m 1345.5882,181.61411 c 0,0 51.7496,-37.1056 79.1794,-44.05708 l 0,34.74443 -79.1794,9.31265"
         style="fill:#283d87;fill-opacity:1;fill-rule:nonzero;stroke:none"
         id="path5068"
         inkscape:connector-curvature="0" /><path
         d="m 1737.864,181.61411 c 0,0 -51.7466,-37.1056 -79.1823,-44.05708 l 0,34.74443 79.1823,9.31265"
         style="fill:#283d87;fill-opacity:1;fill-rule:nonzero;stroke:none"
         id="path5070"
         inkscape:connector-curvature="0" /><path
         d="m 1737.864,181.61703 c -129.1038,-40.71151 -263.172,-40.70625 -392.2758,0 4.9089,21.4477 9.8193,42.8954 14.7297,64.3431 119.6013,-37.57764 243.2151,-37.5791 362.8135,0 4.9206,-21.4477 9.8266,-42.8954 14.7326,-64.3431"
         style="fill:#4e6ebe;fill-opacity:1;fill-rule:nonzero;stroke:none"
         id="path5072"
         inkscape:connector-curvature="0" /><path
         d="m 1541.6385,237.10597 0.044,0.18105 0,-0.18105 -0.044,0 z m 133.9222,-8.74612 c -0.438,0.0394 -1.942,0.18981 -4.2781,0.42343 1.5477,0.0117 2.8472,1.21336 2.9494,2.77715 0.1022,1.63388 -1.1681,3.31593 -2.8034,3.41668 -0.3797,0.0248 -1.6062,0.27742 -3.3145,0.40007 0.9053,0.4468 1.5477,1.32871 1.6499,2.40482 0.1314,1.63242 -1.0805,3.06479 -2.7158,3.20059 -0.4672,0.038 -2.015,0.18105 -4.4096,0.40445 1.3142,0.12995 2.4384,1.13889 2.6429,2.51286 0.219,1.6222 -0.8907,3.12758 -2.5114,3.36412 -11.7248,1.7098 -24.5593,5.071 -36.9849,8.32269 -28.0343,7.34586 -54.5209,14.28289 -70.7136,4.02263 -6.9502,-4.40081 -11.4473,-11.76127 -13.3455,-21.87698 0,0.18543 -0.015,0.37233 -0.044,0.56068 -1.8982,10.14054 -6.4099,17.51706 -13.3601,21.92371 -16.1927,10.2588 -42.6793,3.32323 -70.7253,-4.02117 -12.4095,-3.25169 -25.4689,-7.14145 -37.1892,-8.85125 -1.6193,-0.238 -2.7509,-1.74339 -2.51,-3.36412 0.2,-1.37397 1.32,-2.38291 2.6399,-2.51286 -2.4004,-0.22486 -3.9598,-0.3665 -4.4198,-0.40446 -1.6309,-0.13579 -2.9903,-1.97408 -2.8604,-3.60649 0.091,-1.07611 0.7506,-1.95949 1.65,-2.40482 -1.6996,-0.12265 -2.8502,-0.32123 -3.2196,-0.34459 -1.6397,-0.10367 -2.8808,-1.63533 -2.78,-3.27067 0.091,-1.40171 1.1403,-2.50703 2.4705,-2.73188 -1.9215,-0.2015 -3.1305,-0.32561 -3.3306,-0.34459 -1.6295,-0.15185 -2.8311,-1.59737 -2.6807,-3.22687 0.1401,-1.53896 1.4411,-2.69246 2.9509,-2.69246 0.091,0 0.1898,0.004 0.2803,0.0131 1.3492,0.12557 12.2387,1.22504 27.3189,2.74649 28.9337,2.9217 76.519,7.72549 82.3741,8.22631 2.7742,-3.4926 7.7386,-9.96385 7.7678,-11.67073 2.672,1.38419 15.5211,7.51231 30.2537,0 6.629,8.60156 7.7094,7.6116 7.7094,7.6116 l 81.4309,-5.70907 1.4602,1.62073 c 0.2482,-0.0263 0.511,-0.0511 0.7592,-0.0759 15.0831,-1.52291 25.9902,-2.62384 27.3335,-2.74941 0.088,-0.009 0.1898,-0.0131 0.2774,-0.0131 1.5185,0 2.8034,1.1535 2.9494,2.69246 0.1606,1.6295 -1.0513,3.07502 -2.672,3.22687"
         style="fill:#ffffff;fill-opacity:1;fill-rule:nonzero;stroke:none"
         id="path5074"
         inkscape:connector-curvature="0" /><path
         d="m 1678.4225,224.31093 c -0.4818,0.0438 -2.599,0.25407 -5.8404,0.57821 -11.3452,1.14182 -36.9119,3.73061 -59.938,6.0449 -11.5057,1.15641 -22.3836,2.24566 -30.5019,3.05019 -4.0737,0.40299 -7.4612,0.73444 -9.8996,0.96952 -1.2265,0.11681 -2.2048,0.21026 -2.9348,0.27596 -0.3651,0.0321 -0.6571,0.0584 -0.9053,0.0788 -0.1168,0.009 -0.219,0.019 -0.3212,0.0248 -0.1022,0.007 -0.1898,0.0131 -0.3213,0.019 -0.2774,0.0102 -0.5694,0.0175 -0.8906,0.0175 -0.8761,0 -1.9274,-0.0511 -3.1101,-0.24968 -0.8761,-0.15185 -1.8251,-0.38693 -2.818,-0.78408 -0.7301,-0.29787 -1.5039,-0.69064 -2.2486,-1.21482 -1.1097,-0.77824 -2.1902,-1.88502 -2.9494,-3.26045 -0.7885,-1.37251 -1.2411,-2.97134 -1.358,-4.61836 -0.073,-0.952 -0.2336,-1.5302 -0.3212,-1.7755 -0.044,-0.0949 -0.073,-0.14456 -0.073,-0.16208 l -0.015,-0.009 0.4673,-0.33145 -0.3359,0.45556 -0.1314,-0.12411 0.4673,-0.33145 -0.3359,0.45556 0.3651,-0.47016 -0.2629,0.54025 -0.1022,-0.0701 0.3651,-0.47016 -0.2629,0.54025 0.044,-0.0628 -0.044,0.0642 0,-0.001 0.044,-0.0628 -0.044,0.0642 c 0,-0.0131 -0.3358,-0.10075 -0.9636,-0.0978 l -23.3328,0 c -0.511,-10e-4 -0.8322,0.0555 -0.9344,0.0847 l -0.044,0.0117 0,-0.0117 0,0.0117 0,-0.0117 0,0.0117 -0.2483,-0.57821 0.4235,0.46432 -0.1752,0.11389 -0.2483,-0.57821 0.4235,0.46432 -0.3067,-0.32707 0.3797,0.24676 -0.073,0.0803 -0.3067,-0.32707 0.3797,0.24676 c 0,0.003 -0.073,0.11535 -0.1606,0.42782 -0.1022,0.311 -0.1899,0.81328 -0.2629,1.51852 -0.1168,1.95072 -0.7446,3.83866 -1.7959,5.35426 -0.7739,1.13744 -1.7522,2.03833 -2.745,2.69538 -1.5186,0.9885 -3.0371,1.46888 -4.3804,1.74485 -1.3579,0.27012 -2.5552,0.33144 -3.5481,0.3329 -0.3212,0 -0.6132,-0.007 -0.8907,-0.0175 l 0,0 c -0.1606,-0.007 -0.2482,-0.0131 -0.365,-0.0219 -0.438,-0.0321 -1.1535,-0.0978 -2.2048,-0.19566 -7.87,-0.7359 -33.8894,-3.34951 -58.4719,-5.82879 -12.2913,-1.23819 -24.2103,-2.44279 -33.3112,-3.35974 -4.5395,-0.45848 -8.3899,-0.84541 -11.2094,-1.13013 -2.8209,-0.28327 -4.6504,-0.46432 -5.0899,-0.5052 -2.7509,-0.25553 -4.7702,-2.69247 -4.5206,-5.44187 0.2599,-2.75087 2.6896,-4.77167 5.4404,-4.51615 0.5797,0.0555 2.6502,0.26136 5.9004,0.58696 11.3597,1.14182 36.9293,3.72915 59.9408,6.04344 11.5058,1.15788 22.3691,2.24567 30.5019,3.05019 4.0592,0.403 7.4321,0.73298 9.8705,0.96514 1.2119,0.11681 2.1755,0.20734 2.8764,0.27158 0.3504,0.0321 0.6132,0.0555 0.8177,0.0716 0.1022,0.007 0.1752,0.0146 0.219,0.0175 l 0.044,0.003 -0.1314,2.03833 0.088,-2.04125 0.044,0.003 -0.1314,2.03833 0.088,-2.04125 0,0 c 0.146,0.007 0.3212,0.0102 0.4964,0.0102 0.4819,0.001 0.9929,-0.0307 1.4163,-0.10659 0.3213,-0.0526 0.5987,-0.13141 0.7739,-0.20295 0.1314,-0.0526 0.2044,-0.10075 0.2336,-0.12265 l 0.029,-0.0131 0.073,0.0861 -0.1022,-0.0701 0.029,-0.0161 0.073,0.0861 -0.1022,-0.0701 0.1168,0.0861 -0.1168,-0.0672 0,-0.019 0.1168,0.0861 -0.1168,-0.0672 0.029,-0.0818 c 0.015,-0.0686 0.044,-0.18835 0.058,-0.38109 0.1314,-1.69228 0.4235,-3.24585 0.9929,-4.70889 0.438,-1.09363 1.0367,-2.13469 1.8252,-3.03267 0.584,-0.67165 1.2703,-1.25424 1.9711,-1.71564 1.0951,-0.69501 2.234,-1.10969 3.2999,-1.34331 1.0805,-0.23362 2.0734,-0.30078 3.0224,-0.30078 l 23.3328,0 c 1.1096,10e-4 2.3215,0.0934 3.6211,0.44971 0.9636,0.26867 1.9857,0.70086 2.9348,1.35354 0.7009,0.48622 1.3579,1.09509 1.9274,1.78426 0.8468,1.03815 1.4601,2.23983 1.8835,3.49699 0.4088,1.26154 0.6425,2.58733 0.7447,4.01679 0.015,0.23362 0.058,0.35773 0.073,0.41467 l 0.015,0.0438 0,0.003 0,-0.003 0,0.003 0,-0.003 -0.146,0.0935 0.1314,-0.12265 0.015,0.0292 -0.146,0.0935 0.1314,-0.12265 -0.029,0.0292 0.029,-0.0307 0,0.001 -0.029,0.0292 0.029,-0.0307 c 0,0.001 0.029,0.0409 0.1606,0.0964 0.1752,0.0832 0.511,0.18982 0.9199,0.25552 0.4234,0.0657 0.9052,0.0949 1.3579,0.0934 0.1752,0 0.3358,-0.003 0.4964,-0.0102 l 0.1168,2.72166 -0.1606,-2.71874 0.044,-0.003 0.1168,2.72166 -0.1606,-2.71874 0.029,0.29933 -0.029,-0.29933 0,0 0.029,0.29933 -0.029,-0.29933 c 0.044,-0.003 0.2482,-0.019 0.5403,-0.0453 1.1681,-0.10075 3.7379,-0.34605 7.286,-0.6921 12.4402,-1.21628 37.1162,-3.69994 59.1348,-5.92079 11.0093,-1.11115 21.347,-2.15659 29.1732,-2.94506 3.9131,-0.39423 7.1838,-0.72276 9.593,-0.96514 2.4238,-0.24238 3.9423,-0.39423 4.4388,-0.44095 2.745,-0.25552 5.1834,1.76528 5.4316,4.51615 0.2628,2.7494 -1.7521,5.18634 -4.4972,5.44187"
         style="fill:#f36044;fill-opacity:1;fill-rule:nonzero;stroke:none"
         id="path5076"
         inkscape:connector-curvature="0" /><path
         d="m 1432.0974,239.86413 c 12.0197,1.61198 21.0695,3.76273 29.1469,5.83172 8.0891,2.06899 15.1706,4.03723 23.4349,5.37616 1.6354,0.26429 2.745,1.80471 2.4822,3.44005 -0.2774,1.63679 -1.8105,2.74648 -3.4459,2.4822 -8.6439,-1.40463 -15.9445,-3.44004 -23.9576,-5.48713 -8,-2.04709 -16.7403,-4.12192 -28.4607,-5.69593 -1.6397,-0.22194 -2.7903,-1.7317 -2.5698,-3.37434 0.2205,-1.64117 1.7303,-2.79466 3.37,-2.57273"
         style="fill:#e3e3e1;fill-opacity:1;fill-rule:nonzero;stroke:none"
         id="path5078"
         inkscape:connector-curvature="0" /><path
         d="m 1627.552,239.16912 c -17.2587,2.9801 -25.6397,4.31173 -35.8168,5.96167 -1.6353,0.26574 -3.183,-0.84541 -3.4313,-2.48075 -0.2774,-1.63533 0.8323,-3.17722 2.4676,-3.4415 10.1917,-1.65286 18.5144,-2.97427 35.7584,-5.95145 1.6207,-0.2818 3.183,0.81329 3.4605,2.4457 0.292,1.63242 -0.8177,3.18452 -2.4384,3.46633"
         style="fill:#e3e3e1;fill-opacity:1;fill-rule:nonzero;stroke:none"
         id="path5080"
         inkscape:connector-curvature="0" /><path
         d="m 1654.535,244.3248 c -5.4901,0.76948 -11.7832,1.71564 -17.8135,2.76109 -6.0303,1.04398 -11.7978,2.1931 -16.2365,3.33783 -1.5916,0.41468 -3.2415,-0.55046 -3.6503,-2.15514 -0.4235,-1.60467 0.5548,-3.24 2.1464,-3.65468 4.7015,-1.21336 10.6004,-2.37707 16.7329,-3.43858 6.1179,-1.06151 12.4549,-2.01788 17.9887,-2.79175 1.6499,-0.2307 3.1685,0.9155 3.3875,2.55667 0.2336,1.64118 -0.9053,3.15678 -2.5552,3.38456"
         style="fill:#e3e3e1;fill-opacity:1;fill-rule:nonzero;stroke:none"
         id="path5082"
         inkscape:connector-curvature="0" /><path
         d="m 1657.8787,234.50695 c -7.6803,1.03669 -13.6376,1.90546 -18.3246,2.6691 -1.6499,0.26574 -3.183,-0.84395 -3.4458,-2.47928 -0.2775,-1.63534 0.8322,-3.17576 2.4822,-3.44296 4.76,-0.77679 10.7611,-1.65286 18.4851,-2.69247 1.6353,-0.22193 3.1538,0.92864 3.3729,2.56982 0.219,1.64263 -0.9345,3.15385 -2.5698,3.37433"
         style="fill:#e3e3e1;fill-opacity:1;fill-rule:nonzero;stroke:none"
         id="path5084"
         inkscape:connector-curvature="0" /><path
         d="m 1538.2656,233.99445 c -0.1752,1.93028 -0.6716,4.46797 -1.6937,7.28746 -1.5039,4.21099 -4.176,9.0615 -8.7315,12.91914 -2.2778,1.92444 -5.0374,3.58314 -8.2789,4.74393 -3.2561,1.16518 -6.9794,1.82953 -11.2283,1.82807 -1.942,0 -4.0008,-0.13871 -6.1617,-0.43073 -1.6354,-0.22194 -2.7889,-1.73463 -2.5699,-3.37726 0.2191,-1.64118 1.7376,-2.79175 3.3875,-2.56981 1.9128,0.2599 3.6941,0.37817 5.3441,0.37817 4.8184,-0.003 8.5855,-0.99142 11.6079,-2.50849 2.2632,-1.13889 4.1322,-2.58733 5.6799,-4.20806 2.3216,-2.42672 3.9277,-5.26082 4.979,-7.91969 1.0513,-2.65304 1.5477,-5.14109 1.6937,-6.69611 0.1606,-1.64994 1.6208,-2.8633 3.2707,-2.71145 1.6499,0.15478 2.8472,1.6149 2.7012,3.26483"
         style="fill:#e3e3e1;fill-opacity:1;fill-rule:nonzero;stroke:none"
         id="path5086"
         inkscape:connector-curvature="0" /><path
         d="m 1419.5681,226.22077 c 3.9394,0.52126 12.1686,1.6514 20.0898,2.73627 7.8992,1.08341 15.5196,2.12301 18.139,2.45154 1.65,0.20588 2.8049,1.70396 2.6151,3.34805 -0.219,1.6441 -1.7142,2.81073 -3.3539,2.60486 -2.7114,-0.33875 -10.3011,-1.37544 -18.2208,-2.4603 -7.9095,-1.08487 -16.1504,-2.21501 -20.0591,-2.73189 -1.6398,-0.2161 -2.8005,-1.7244 -2.5815,-3.3685 0.2204,-1.64117 1.72,-2.79759 3.3714,-2.58003"
         style="fill:#e3e3e1;fill-opacity:1;fill-rule:nonzero;stroke:none"
         id="path5088"
         inkscape:connector-curvature="0" /><path
         d="m 1466.3547,239.22022 c 3.9861,0.74904 9.739,2.1274 16.1051,3.32031 6.3516,1.19438 13.3017,2.18872 19.4342,2.1858 3.5773,0.003 6.8772,-0.34167 9.5784,-1.10677 1.3433,-0.38109 2.5406,-0.86439 3.5481,-1.44114 1.0221,-0.5782 1.8836,-1.24402 2.5698,-2.01204 1.1097,-1.2338 2.9933,-1.33601 4.2344,-0.22924 1.2265,1.10823 1.3287,3.00493 0.219,4.23727 -1.1681,1.3068 -2.5552,2.37415 -4.0591,3.22832 -2.2778,1.28053 -4.833,2.09674 -7.5343,2.60924 -2.7158,0.50958 -5.5922,0.714 -8.5563,0.714 -6.7603,-0.003 -14.0025,-1.06443 -20.5439,-2.28801 -6.5267,-1.22358 -12.3672,-2.62384 -16.0905,-3.31885 -1.6353,-0.30517 -2.7012,-1.87188 -2.4092,-3.50137 0.3213,-1.6295 1.8836,-2.70268 3.5043,-2.39752"
         style="fill:#e3e3e1;fill-opacity:1;fill-rule:nonzero;stroke:none"
         id="path5090"
         inkscape:connector-curvature="0" /><path
         d="m 1483.1753,233.38996 c 2.088,0.26282 4.687,0.64099 7.3152,0.9958 2.6136,0.35481 5.2564,0.68918 7.3006,0.86585 1.6499,0.14164 2.8764,1.59592 2.7304,3.24585 -0.1314,1.6514 -1.5769,2.87352 -3.2414,2.73043 -2.2486,-0.19274 -4.9499,-0.53733 -7.5927,-0.89652 -2.6574,-0.36065 -5.271,-0.7359 -7.2714,-0.98996 -1.6353,-0.2088 -2.8034,-1.71126 -2.599,-3.35536 0.2044,-1.64409 1.723,-2.80489 3.3583,-2.59609"
         style="fill:#e3e3e1;fill-opacity:1;fill-rule:nonzero;stroke:none"
         id="path5092"
         inkscape:connector-curvature="0" /><path
         d="m 1552.823,230.38649 c 0.3504,1.81931 1.0951,4.73955 3.0955,7.09181 0.9929,1.17977 2.2924,2.2442 4.1321,3.05895 1.8398,0.80891 4.2636,1.36959 7.4904,1.37105 1.7668,0 3.7525,-0.16499 6.0157,-0.54608 1.6354,-0.27597 3.1831,0.82496 3.4459,2.45738 0.2774,1.63387 -0.8177,3.1816 -2.4384,3.45756 -2.5552,0.4322 -4.8914,0.63077 -7.0232,0.63077 -3.9277,0.001 -7.213,-0.69063 -9.9142,-1.88063 -2.015,-0.88921 -3.6941,-2.05731 -5.052,-3.3539 -2.0296,-1.94488 -3.3291,-4.15112 -4.1613,-6.14126 -0.8323,-1.98868 -1.2411,-3.79193 -1.4748,-4.97025 -0.3212,-1.62365 0.7301,-3.20496 2.3654,-3.52911 1.6062,-0.32561 3.1977,0.7286 3.5189,2.35371"
         style="fill:#e3e3e1;fill-opacity:1;fill-rule:nonzero;stroke:none"
         id="path5094"
         inkscape:connector-curvature="0" /><path
         d="m 1559.671,249.75645 c 0.511,0.65705 1.1389,1.24548 1.9711,1.77988 1.2119,0.79869 2.8619,1.46596 4.9206,1.9186 2.0734,0.4541 4.5702,0.69502 7.4175,0.69356 7.943,0.007 18.6603,-1.8602 31.4363,-5.45063 1.6062,-0.44826 3.2561,0.48184 3.6941,2.07629 0.4527,1.59591 -0.4672,3.25315 -2.0733,3.69994 -13.0973,3.66929 -24.2088,5.66673 -33.0571,5.67403 -4.249,-0.003 -7.9869,-0.45994 -11.1992,-1.51414 -1.6207,-0.52711 -3.0954,-1.20898 -4.4241,-2.07191 -1.3141,-0.8644 -2.4822,-1.91422 -3.4459,-3.14802 -1.0075,-1.31265 -0.7593,-3.19621 0.5548,-4.20661 1.3141,-1.0104 3.1977,-0.76364 4.2052,0.54901"
         style="fill:#e3e3e1;fill-opacity:1;fill-rule:nonzero;stroke:none"
         id="path5096"
         inkscape:connector-curvature="0" /></g></g></svg>