<svg xmlns="http://www.w3.org/2000/svg" width="200" height="150" viewBox="0 0 500 500"><defs><clipPath id="a"><path d="M1111.56 3462.08l-1.67.07c-55.31 0-118.663-68.67-118.663-150.96 0-81.97 63.043-146.5 118.113-146.94v-.26h892.29v298.09h-890.07"/></clipPath></defs><path d="M243.145 486.784v-.01.01M243.237 487.315h.003c-.036-.15-.064-.3-.084-.45.02.15.048.3.082.45M243.848 488.855l-.013-.02.013.02M243.79 488.753l-.047-.086.047.086M243.41 487.908c.09.256.198.505.324.74-.13-.24-.235-.488-.323-.74" fill="#313132"/><path d="M363.894 137.14h51.417V84.646h-51.416v52.492z" fill="#e4cd98"/><path d="M415.31 137.14h49.128V84.646H415.31v52.492z" fill="#f6dfaa"/><path d="M355.115 145.136h60.196v-8.254h-60.195v8.254z" fill="#151914"/><path d="M415.31 145.136h60.88v-8.254h-60.88v8.254z" fill="#1a231c"/><path d="M350.556 151.29h64.755v-8.257h-64.754v8.256z" fill="#181e18"/><path d="M415.31 151.29h66.322v-8.257h-66.32v8.256z" fill="#212d24"/><path d="M362.422 136.882h9.356V83.294h-9.356v53.588zM394.446 136.882h9.355V83.294h-9.354v53.588z" fill="#267663"/><path d="M426.47 136.882h9.356V83.294h-9.357v53.588zM458.492 136.882h9.358V83.294h-9.358v53.588z" fill="#308b75"/><path d="M456.564 136.882h13.215v-5.993h-13.216v5.992zM424.54 136.882h13.215v-5.993H424.54v5.992z" fill="#3ebb9d"/><path d="M392.515 136.882h13.217v-5.993h-13.217v5.992zM360.493 136.882h13.216v-5.993h-13.217v5.992z" fill="#36a78c"/><path d="M456.564 87.967h13.215v-4.41h-13.216v4.41zM424.54 87.967h13.215v-4.41H424.54v4.41z" fill="#3ebb9d"/><path d="M392.515 87.967h13.217v-4.41h-13.217v4.41zM360.493 87.967h13.216v-4.41h-13.217v4.41z" fill="#36a78c"/><path d="M415.203 49.102l-57.948 31.763h58.056V49.162l-.107-.06" fill="#bead82"/><path d="M415.31 49.162v31.703h57.84l-57.84-31.703" fill="#d1bf93"/><path d="M357.255 85.763h58.056v-4.898h-58.055v4.898z" fill="#36a78c"/><path d="M415.31 85.763h57.84v-4.898h-57.84v4.898z" fill="#3ebb9d"/><path d="M415.203 56.11l-39.8 21.817h39.908V56.17l-.107-.06" fill="#e4cd98"/><path d="M415.31 56.17v21.757h40.695L415.31 56.17" fill="#f6dfaa"/><path d="M413.453 106.75c-4.253 0-7.703 2.627-7.703 5.865v24.248h9.56V106.75h-1.857" fill="#402d1b"/><path d="M424.582 112.615c0-3.238-3.45-5.864-7.703-5.864h-1.57v30.113h9.272v-24.248" fill="#513d29"/><path d="M410.787 67.72c0 2.314 1.997 4.203 4.524 4.358V63.36c-2.526.155-4.523 2.044-4.523 4.36" fill="#36a78c"/><path d="M415.645 63.345c-.113 0-.223.008-.334.015v8.718c.112.007.222.016.335.016 2.683 0 4.858-1.96 4.858-4.375 0-2.417-2.175-4.375-4.858-4.375" fill="#3ebb9d"/><path d="M218.904 360.095l-.64.665v8.862h5.225v-7.03c2.446-2.143 11.783-9.33 26.84-9.432v-4.705c-20.073.117-30.97 11.168-31.426 11.64" fill="#181e18"/><path d="M280.44 360.533c-.37-.493-9.326-12.084-29.794-12.084-.107 0-.21.004-.317.006v4.705c.105 0 .21-.005.316-.005 15.418 0 23.143 7.394 25.02 9.484v8.337h5.224v-9.846l-.45-.597" fill="#212d24"/><path d="M190.386 443.194h59.943v-59.46h-59.944v59.46z" fill="#402d1b"/><path d="M250.33 443.194h55.964v-59.46H250.33v59.46z" fill="#513d29"/><path d="M185.153 368.482v34.79c0 5.56 4.292 5.375 4.292 5.375h60.884v-40.165h-65.177" fill="#553e22"/><path d="M310.913 368.482H250.33v40.165h57.162s3.896-.03 3.896-4.307c0-4.278-.475-35.858-.475-35.858" fill="#664f31"/><path d="M216.76 368.624h7.917v-7.13h-7.918v7.13z" fill="#e7a112"/><path d="M274.24 368.767h7.917v-7.128h-7.917v7.127zM288.016 416.423c0 1.412-1.282 2.566-2.85 2.566H274.24c-1.567 0-2.85-1.155-2.85-2.567V404.59c0-1.412 1.283-2.567 2.85-2.567h10.926c1.568 0 2.85 1.155 2.85 2.566v11.833" fill="#f8b20e"/><path d="M283.754 412.074c0 1.413-1.282 2.567-2.85 2.567H278.5c-1.566 0-2.85-1.153-2.85-2.566v-3.136c0-1.41 1.284-2.566 2.85-2.566h2.404c1.568 0 2.85 1.155 2.85 2.566v3.136" fill="#dea214"/><path d="M228.16 416.423c0 1.412-1.282 2.566-2.85 2.566h-10.926c-1.568 0-2.85-1.155-2.85-2.567V404.59c0-1.412 1.282-2.567 2.85-2.567h10.926c1.568 0 2.85 1.155 2.85 2.566v11.833" fill="#e7a112"/><path d="M223.898 412.074c0 1.413-1.282 2.567-2.85 2.567h-2.402c-1.57 0-2.85-1.153-2.85-2.566v-3.136c0-1.41 1.28-2.566 2.85-2.566h2.402c1.568 0 2.85 1.155 2.85 2.566v3.136" fill="#cb9019"/><path d="M198.707 444.334h12.114v-1.497h-12.113v1.497z" fill="#181e18"/><path d="M285.8 444.618h12.113v-1.497H285.8v1.498z" fill="#212d24"/><path d="M400.542 211.66c0 24.676 9.98 38.357 25.322 38.357v4.29h2.904v-42.646h-28.226" fill="#f0f0ef"/><path d="M428.768 211.66v42.648h2.31v-4.29c15.34 0 25.32-13.682 25.32-38.357h-27.63" fill="#fff"/><path d="M428.47 254.308h-2.606v-4.29c-15.342 0-25.322-13.682-25.322-38.357h28.226v-2.414h-28.226c-1.48 0-2.68 1.08-2.68 2.415 0 12.383 2.525 22.65 7.3 29.69 4.398 6.485 10.59 10.233 18.02 10.954v2.004c0 1.332 1.2 2.414 2.682 2.414h2.904v-2.414h-.298" fill="#dedfdd"/><path d="M456.4 209.246H428.77v2.415H456.4h-.003c0 24.676-9.98 38.357-25.32 38.357v4.29h-2.31v2.415h2.31c1.48 0 2.68-1.082 2.68-2.414v-2.004c7.43-.72 13.622-4.47 18.02-10.953 4.764-7.02 7.287-17.25 7.3-29.59l.003-.1c0-1.333-1.197-2.414-2.68-2.414" fill="#f1f2f2"/><path d="M428.47 250.872h-2.606v4.29c-15.342 0-25.322 13.68-25.322 38.356h28.226v-42.646h-.298" fill="#f0f0ef"/><path d="M431.077 255.162v-4.29h-2.31v42.646h27.63c0-24.676-9.98-38.356-25.32-38.356" fill="#fff"/><path d="M400.542 293.518c0-24.676 9.98-38.356 25.322-38.356v-4.29h2.904v-2.415h-2.904c-1.48 0-2.682 1.08-2.682 2.415v2.004c-7.43.72-13.622 4.47-18.02 10.952-4.775 7.04-7.3 17.308-7.3 29.69 0 1.334 1.2 2.415 2.68 2.415h28.226v-2.415h-28.226" fill="#dedfdd"/><path d="M451.778 263.828c-4.4-6.483-10.59-10.232-18.02-10.952v-2.004c0-1.334-1.2-2.415-2.68-2.415h-2.31v2.415h2.31v4.29c15.34 0 25.32 13.68 25.32 38.356h-27.63v2.415h27.63c1.48 0 2.68-1.08 2.68-2.415 0-12.382-2.525-22.65-7.3-29.69" fill="#f1f2f2"/><path d="M422.66 235.867c-6.393-1.44-12.787-3.518-19.18-3.94 4.027 11.775 11.966 18.09 22.384 18.09v27.29h2.904V236.16c-1.984.147-4.013.084-6.107-.293" fill="#e7a112"/><path d="M428.768 236.16v41.148h2.31v-27.29c10.71 0 18.8-6.677 22.713-19.1-8.61-.004-16.39 4.604-25.022 5.242" fill="#f8b20e"/><path d="M455.785 283.576c-8.04-5.428-17.25-10.034-27.017-10.297v20.238h27.63c0-3.546-.213-6.858-.613-9.942" fill="#f8b20e"/><path d="M422.66 273.686c-7.76 1.497-14.49 5.78-21.468 9.586-.424 3.17-.65 6.585-.65 10.246h28.226v-20.24c-2.015-.055-4.05.06-6.107.408" fill="#e7a112"/><path d="M394.12 293.803h2.57v-83.685h-2.57v83.685z" fill="#553e22"/><path d="M460.25 293.266h2.57v-83.684h-2.57v83.684z" fill="#664f31"/><path d="M388.553 213.74h40.215v-5.902h-40.215v5.9z" fill="#402d1b"/><path d="M428.768 213.74h38.262v-5.902h-38.262v5.9z" fill="#513d29"/><path d="M390.21 297.425h38.558v-5.9h-38.56v5.9z" fill="#402d1b"/><path d="M428.768 297.425h39.916v-5.9h-39.916v5.9z" fill="#513d29"/><path d="M69.277 162.054h51.918v-15.618H69.277v15.618z" fill="#664f31"/><path d="M17.132 162.054h52.145v-15.618H17.132v15.618z" fill="#553e22"/><path d="M17.132 155.623h52.145v-3.368H17.132v3.368z" fill="#e7a112"/><path d="M69.277 155.623h51.918v-3.368H69.277v3.368z" fill="#f8b20e"/><path d="M102.094 133.882H69.277v12.554h38.995v-8.573s-.737-3.98-6.178-3.98" fill="#212d24"/><path d="M30.055 138.324v8.112h39.222v-12.554H35.78c-6.463 0-5.725 4.442-5.725 4.442M86.725 78.195l-19.848 21.14L90.833 117.3l19.51-21.416 3.73-3.987-23.656-17.74-3.692 4.038" fill="#181e18"/><path d="M113.25 49.196L90.417 74.158l23.655 17.74 23.135-24.737-23.957-17.964" fill="#212d24"/><path d="M134.69 108.57c-1.27 1.375-1.064 3.418.463 4.565l34.807 26.1c1.527 1.145 3.797.96 5.07-.417l.67-.726-40.337-30.25-.672.728" fill="#553e22"/><path d="M135.843 107.325l-.48.518 40.338 30.25.48-.52c1.272-1.375 1.065-3.42-.462-4.565l-34.805-26.1c-1.528-1.145-3.797-.96-5.07.417" fill="#664f31"/><path d="M109.336 89.558c-1.272 1.374-1.065 3.418.462 4.562l34.805 26.102c1.53 1.146 3.8.958 5.072-.418l.67-.725-40.337-30.25-.672.728" fill="#553e22"/><path d="M110.487 88.312l-.48.518 40.34 30.25.48-.52c1.27-1.376 1.064-3.42-.464-4.565l-34.805-26.1c-1.528-1.146-3.8-.958-5.07.417" fill="#664f31"/><path d="M120.686 91.74l-2.784 3.01 50.25 37.682 2.784-3.01-50.25-37.68" fill="#f8b20e"/><path d="M114.927 97.968l50.25 37.68 2.974-3.216-50.248-37.682-2.975 3.218" fill="#e7a112"/><path d="M159.17 131.32l2.217 1.663 3.073-3.32-2.22-1.665-3.07 3.32" fill="#181e18"/><path d="M164.928 125.093l-2.688 2.905 2.22 1.665 2.686-2.908-2.218-1.662" fill="#212d24"/><path d="M90.265 74.045l23.96 17.966 4.46-4.822 11.486-12.42-23.956-17.963-15.95 17.24" fill="#513d29"/><path d="M85.4 79.307l-11.487 12.42L97.87 109.69l16.354-17.68-23.96-17.965-4.864 5.262" fill="#402d1b"/><path d="M84.994 79.746l-5.58 6.034 23.957 17.965 10.854-11.734-23.96-17.965-5.27 5.7" fill="#e7a112"/><path d="M90.265 74.045l23.96 17.966 4.865-5.26 5.58-6.034-23.956-17.965-10.45 11.295" fill="#f8b20e"/><path d="M106.656 102.06c.507.38.576 1.065.154 1.522l-3.642 3.937c-.42.456-1.182.517-1.69.138L75.482 88.162c-.505-.38-.576-1.064-.153-1.522l3.64-3.936c.424-.456 1.183-.518 1.69-.138l26 19.495M99.052 110.28c.507.382.577 1.066.155 1.523l-3.64 3.936c-.424.456-1.184.518-1.69.138l-26-19.494c-.506-.38-.575-1.066-.153-1.522l3.64-3.936c.423-.458 1.183-.52 1.69-.14l25.998 19.495" fill="#553e22"/><path d="M97.428 64.434c-.507-.38-.576-1.064-.154-1.522l3.64-3.936c.423-.457 1.184-.52 1.69-.14l25.998 19.497c.508.38.577 1.065.155 1.52l-3.64 3.938c-.424.457-1.184.52-1.69.14l-26-19.496M105.03 56.214c-.506-.38-.575-1.065-.153-1.523l3.64-3.934c.424-.457 1.184-.52 1.692-.14l25.996 19.497c.507.38.576 1.064.154 1.52l-3.64 3.937c-.423.457-1.183.52-1.69.14l-26-19.496" fill="#664f31"/><path d="M24.536 209.76v72.977c0 8.513 4.26 13.012 11.885 13.012h.382v-95.556s-12.266 1.88-12.266 9.567" fill="#236c5b"/><path d="M36.802 272.92h27.843v-72.726H36.802v72.727z" fill="#267663"/><path d="M105.044 200.194h-40.4v72.727h40.75l-.35-72.726" fill="#308b75"/><path d="M36.802 272.92v22.83h27.842v-22.83H36.802" fill="#236c5b"/><path d="M105.393 272.92h-40.75v22.83h40.858l-.107-22.83" fill="#2c806d"/><path d="M39.104 274.66l-.12-.006c-3.93 0-8.434 4.396-8.434 9.663 0 5.246 4.48 9.377 8.396 9.405v.016h25.698v-19.08h-25.54" fill="#e4cd98"/><path d="M64.644 293.74h37.732v-19.08H64.644v19.08z" fill="#f6dfaa"/><g clip-path="url(#a)" transform="matrix(.0711 0 0 -.064 -39.913 496.256)"><path d="M982.652 3136.9h56.848v319.62h-56.848V3136.9z" fill="#ab1c22"/></g><text style="-inkscape-font-specification:Roboto-Bold" transform="matrix(.71087 0 0 .64007 46.398 246.13)" font-weight="bold" font-size="34.839" font-family="Roboto" fill="#fff"><tspan y="0" x="0 19.222698 41.523994">LAW</tspan></text><path d="M105.116 214.637h-.003l-.036-7.413h.04v7.413" fill="#e5edd0"/><path d="M105.113 214.637h-40.47v-7.413h40.434l.036 7.413" fill="#49a58f"/><path d="M36.802 214.637h27.843v-7.413H36.802v7.413zM36.802 267.36h27.843v-7.414H36.802v7.414z" fill="#3b917d"/><path d="M64.644 267.36h40.472v-7.414H64.644v7.414z" fill="#49a58f"/><path d="M41.986 222.19h17.69v-4.944h-17.69v4.943z" fill="#3b917d"/><path d="M83.157 222.19h17.69v-4.944h-17.69v4.943z" fill="#49a58f"/><path d="M41.986 258.024h17.69v-4.943h-17.69v4.944z" fill="#3b917d"/><path d="M83.157 258.024h17.69v-4.943h-17.69v4.944z" fill="#49a58f"/><path d="M24.49 256.968v-20.43l.046-.038v20.428c-.016.014-.03.027-.047.04" fill="#e1ebcb"/><path d="M24.536 256.928V236.5c5.142-4.06 12.266-4.837 12.266-4.837v21.007s-8.47 1.022-12.266 4.258" fill="#398878"/><path d="M53.462 337.68l-17.207 15.493v81.117h41.16v-96.61H53.463" fill="#f0f0ef"/><path d="M77.416 434.29h40.89v-96.61h-40.89v96.61z" fill="#fff"/><path d="M53.462 353.173H36.255l17.207-15.493v15.493" fill="#d3d3d2"/><path d="M52.13 365.015h25.286v-1.684H52.13v1.685z" fill="#66686c"/><path d="M77.416 365.015h28.326v-1.684H77.416v1.685z" fill="#7a7b7f"/><path d="M52.13 370.91h25.286v-1.685H52.13v1.684z" fill="#66686c"/><path d="M77.416 370.91h28.326v-1.685H77.416v1.684z" fill="#7a7b7f"/><path d="M52.13 376.803h25.286v-1.684H52.13v1.683z" fill="#66686c"/><path d="M77.416 376.803h28.326v-1.684H77.416v1.683zM77.416 382.697h28.326v-1.685H77.416v1.685z" fill="#7a7b7f"/><path d="M52.13 382.697h25.286v-1.685H52.13v1.685zM52.13 388.59h25.286v-1.683H52.13v1.684z" fill="#66686c"/><path d="M77.416 388.59h28.326v-1.683H77.416v1.684z" fill="#7a7b7f"/><path d="M52.13 394.484h25.286V392.8H52.13v1.684z" fill="#66686c"/><path d="M77.416 394.484h28.326V392.8H77.416v1.684z" fill="#7a7b7f"/><path d="M52.13 400.378h25.286v-1.684H52.13v1.684z" fill="#66686c"/><path d="M77.416 400.378h28.326v-1.684H77.416v1.684z" fill="#7a7b7f"/><path d="M52.13 406.272h25.286v-1.684H52.13v1.684z" fill="#66686c"/><path d="M77.416 406.272h6.35v-1.684h-6.35v1.684zM83.923 416.48h21.117v-1.684H83.923v1.685z" fill="#7a7b7f"/><path d="M65.846 417.744c0 2.48-2.233 4.493-4.99 4.493-2.756 0-4.99-2.012-4.99-4.493 0-2.482 2.234-4.493 4.99-4.493 2.757 0 4.99 2.012 4.99 4.494" fill="#de222b"/><path d="M60.857 412.28c-3.347 0-6.07 2.45-6.07 5.464 0 3.013 2.723 5.464 6.07 5.464 3.347 0 6.07-2.45 6.07-5.464 0-3.013-2.723-5.464-6.07-5.464zm0 12.094c-4.06 0-7.365-2.974-7.365-6.63 0-3.656 3.304-6.63 7.365-6.63 4.06 0 7.364 2.974 7.364 6.63 0 3.656-3.303 6.63-7.363 6.63" fill="#ab1c22"/><path d="M448.97 432.32h22.557v-69.697H448.97v69.696z" fill="#624c2f"/><path d="M424.958 432.32h24.014v-69.697h-24.014v69.696z" fill="#503b21"/><path d="M426.12 432.71h22.852v-7.44H426.12v7.44z" fill="#49361d"/><path d="M448.97 432.71h22.557v-7.44H448.97v7.44zM448.97 364.582h22.557v-7.44H448.97v7.44z" fill="#5b482b"/><path d="M422.437 364.582h26.534v-7.44h-26.533v7.44z" fill="#49361d"/><path d="M448.97 420.42h22.557v-52.424H448.97v52.425z" fill="#513d29"/><path d="M431.49 420.42h17.48v-52.424h-17.48v52.425zM368.61 428.205h27.898V376.87h-27.9v51.335z" fill="#402d1b"/><path d="M396.508 428.205h28.962V376.87h-28.962v51.335z" fill="#513d29"/><path d="M361.635 432.983h34.873V425.2h-34.873v7.783z" fill="#594128"/><path d="M396.508 432.983h32.903V425.2H396.51v7.783z" fill="#6a5337"/><path d="M377.682 420.014h18.826v-34.95h-18.826v34.95z" fill="#503a21"/><path d="M396.508 420.014h19.887v-34.95h-19.887v34.95z" fill="#624b2f"/><path d="M362.543 378.92h33.965v-7.784h-33.965v7.783z" fill="#594128"/><path d="M396.508 378.92h33.813v-7.784H396.51v7.783z" fill="#6a5337"/><path d="M193.138 61h14.16V26.454h-14.16V61z" fill="#402d1b"/><path d="M207.297 61h14.7V26.454h-14.7V61z" fill="#513d29"/><path d="M196.286 55.582h22.765V30.217h-22.764v25.365z" fill="#be1e2a"/><path d="M236.28 61h14.16V26.454h-14.16V61z" fill="#402d1b"/><path d="M250.44 61h14.698V26.454H250.44V61z" fill="#513d29"/><path d="M239.428 55.582h22.765V30.217h-22.765v25.365z" fill="#be1e2a"/><path d="M279.908 61h14.16V26.454h-14.16V61z" fill="#402d1b"/><path d="M294.07 61h14.697V26.454H294.07V61z" fill="#513d29"/><path d="M283.058 55.582h22.764V30.217h-22.764v25.365z" fill="#be1e2a"/><path d="M185.976 99.167h21.308V59.962h-21.308v39.205z" fill="#402d1b"/><path d="M207.284 99.167h22.118V59.962h-22.118v39.205z" fill="#513d29"/><path d="M185.977 102.816h21.307v-5.943h-21.307v5.943z" fill="#594128"/><path d="M207.284 102.816h22.118v-5.943h-22.118v5.943z" fill="#6a5337"/><path d="M192.906 92.91h14.378V66.218h-14.378V92.91z" fill="#503a21"/><path d="M207.284 92.91h15.188V66.218h-15.188V92.91z" fill="#624b2f"/><path d="M185.977 61.526h21.307v-5.944h-21.307v5.944z" fill="#594128"/><path d="M207.284 61.526h22.118v-5.944h-22.118v5.944z" fill="#6a5337"/><path d="M229.402 99.167h21.308V59.962h-21.308v39.205z" fill="#402d1b"/><path d="M250.71 99.167h22.116V59.962H250.71v39.205z" fill="#513d29"/><path d="M229.402 102.816h21.308v-5.943h-21.308v5.943z" fill="#594128"/><path d="M250.71 102.816h22.116v-5.943H250.71v5.943z" fill="#6a5337"/><path d="M236.33 92.91h14.38V66.218h-14.38V92.91z" fill="#503a21"/><path d="M250.71 92.91h15.187V66.218H250.71V92.91z" fill="#624b2f"/><path d="M229.402 61.526h21.308v-5.944h-21.308v5.944z" fill="#594128"/><path d="M250.71 61.526h22.116v-5.944H250.71v5.944z" fill="#6a5337"/><path d="M272.826 99.167h21.31V59.962h-21.31v39.205z" fill="#402d1b"/><path d="M294.135 99.167h22.117V59.962h-22.117v39.205z" fill="#513d29"/><path d="M272.826 102.816h21.31v-5.943h-21.31v5.943z" fill="#594128"/><path d="M294.135 102.816h22.117v-5.943h-22.117v5.943z" fill="#6a5337"/><path d="M279.755 92.91h14.38V66.218h-14.38V92.91z" fill="#503a21"/><path d="M294.135 92.91h15.187V66.218h-15.187V92.91z" fill="#624b2f"/><path d="M272.826 61.526h21.31v-5.944h-21.31v5.944z" fill="#594128"/><path d="M294.135 61.526h22.117v-5.944h-22.117v5.944z" fill="#6a5337"/><path d="M319.2 269.96l-13.138-3.17-2.64-.636-115.646.026-15.672 3.78c-11.074 2.673-18.842 12.274-18.842 23.29v29.267c0 3.788 3.182 6.86 7.107 6.86h170.566c3.924 0 7.106-3.072 7.106-6.86V293.25c0-11.016-7.768-20.618-18.84-23.29z" fill="#707487"/><path fill="#e6b47d" d="M217.224 240.214h56.856v41.152h-56.856z"/><path d="M217.224 240.214v27.995c33.628 4.245 56.856-24.566 56.856-24.566v-3.43h-56.856z" fill="#d2a073"/><path fill="#d7deed" d="M220.778 277.936h49.75v51.44h-49.75z"/><g fill="#464655"><path d="M217.224 329.376l-17.767-41.152 7.107-6.858-14.214-3.43-5.274-10.18c-.967-1.867.003-4.128 2.055-4.787l28.095-9.04 14.214 75.446M274.08 329.376l17.768-41.152-7.107-6.858 14.214-3.43 5.275-10.18c.966-1.867-.004-4.128-2.056-4.787l-28.094-9.04-14.214 75.446"/></g><path fill="#69a0c3" d="M252.76 329.376l-2.173-44.58h-9.87l-2.172 44.58"/><path d="M288.294 192.377V168.2H203.01v24.177c-4.054.794-7.106 4.253-7.106 8.4v6.86c0 4.146 3.052 7.605 7.107 8.4v6.306c0 6.88 3.29 13.304 8.764 17.12l15.8 11.012c3.233 2.254 7.03 3.456 10.916 3.456h14.323c3.886 0 7.685-1.2 10.918-3.455l15.8-11.012c5.475-3.816 8.764-10.24 8.764-17.12v-6.306c4.055-.795 7.107-4.254 7.107-8.4v-6.86c0-4.147-3.05-7.606-7.106-8.4z" fill="#f0c891"/><path d="M238.545 277.936v6.86c0 1.893 1.592 3.428 3.554 3.428h7.106c1.962 0 3.554-1.535 3.554-3.43v-6.858h-14.215z" fill="#578cb1"/><path d="M242.1 130.477c-24.876 0-28.43 10.288-28.43 10.288-14.213 0-21.32 3.43-21.32 17.147 0 9.216 3.553 37.722 3.553 37.722l7.107 3.43 6.624-24.025s32.465 10.306 75.106 10.306l3.554 13.717 7.107-3.43s3.554-20.576 3.554-34.293c0-20.575-28.427-30.863-56.855-30.863z" fill="#694b41"/><path d="M213.67 140.765c-14.213 0-21.32 3.43-21.32 17.147 0 9.216 3.554 37.722 3.554 37.722l7.107 3.43 6.624-24.025s32.465 10.306 75.107 10.306c-49.748-10.288-71.07-34.293-71.07-44.58z" fill="#553732"/><g fill="#464655"><path d="M220.78 205.923c-.372 0-.752-.057-1.125-.178l-21.32-6.858c-1.863-.6-2.87-2.542-2.248-4.338.62-1.797 2.63-2.778 4.496-2.17l21.32 6.86c1.862.598 2.87 2.54 2.248 4.337-.495 1.437-1.882 2.346-3.37 2.346zM270.528 205.923c-1.49 0-2.876-.91-3.372-2.346-.62-1.797.386-3.74 2.247-4.338l21.32-6.86c1.866-.608 3.876.373 4.497 2.17.62 1.795-.385 3.738-2.247 4.337l-21.32 6.858c-.374.12-.754.178-1.125.178z"/></g><path d="M245.653 238.89c-4.335 0-8.528-.834-12.13-2.41-1.786-.782-2.578-2.815-1.767-4.54.81-1.725 2.917-2.49 4.704-1.708 5.372 2.35 13.014 2.35 18.386 0 1.792-.78 3.895-.016 4.703 1.708.81 1.725.018 3.758-1.77 4.54-3.6 1.576-7.795 2.41-12.127 2.41z" fill="#d2a073"/><path d="M234.992 212.78h-14.214c-1.962 0-3.554-1.536-3.554-3.43v-6.858c0-1.894 1.592-3.43 3.554-3.43h14.214c1.962 0 3.553 1.536 3.553 3.43v6.858c0 1.895-1.59 3.43-3.553 3.43z" fill="#fff"/><path d="M227.885 209.35c-1.954 0-3.554-1.543-3.554-3.43v-3.428c0-1.886 1.6-3.43 3.555-3.43 1.954 0 3.554 1.543 3.554 3.43v3.43c0 1.885-1.6 3.428-3.555 3.428z" fill="#5a4137"/><path d="M256.313 212.78h14.214c1.962 0 3.553-1.536 3.553-3.43v-6.858c0-1.894-1.59-3.43-3.553-3.43h-14.214c-1.963 0-3.554 1.536-3.554 3.43v6.858c0 1.895 1.59 3.43 3.553 3.43z" fill="#fff"/><path d="M263.42 209.35c-1.955 0-3.554-1.543-3.554-3.43v-3.428c0-1.886 1.6-3.43 3.554-3.43 1.954 0 3.553 1.543 3.553 3.43v3.43c0 1.885-1.6 3.428-3.553 3.428z" fill="#5a4137"/><path d="M252.76 209.35c-1.963 0-3.555-1.535-3.555-3.43 0-1.89-1.594-3.428-3.553-3.428-1.96 0-3.554 1.538-3.554 3.43 0 1.893-1.59 3.428-3.553 3.428-1.963 0-3.554-1.535-3.554-3.43 0-5.672 4.783-10.287 10.66-10.287 5.88 0 10.662 4.615 10.662 10.288 0 1.895-1.59 3.43-3.553 3.43z" fill="#464655"/><g fill="#707487"><path d="M238.545 209.35c-1.962 0-3.553-1.535-3.553-3.43v-3.428h-14.214v3.43c0 1.893-1.59 3.428-3.554 3.428-1.962 0-3.553-1.535-3.553-3.43v-3.428c0-3.783 3.188-6.86 7.108-6.86h14.213c3.92 0 7.108 3.077 7.108 6.86v3.43c0 1.893-1.59 3.428-3.553 3.428zM274.08 209.35c-1.962 0-3.553-1.535-3.553-3.43v-3.428h-14.214v3.43c0 1.893-1.59 3.428-3.554 3.428-1.963 0-3.555-1.535-3.555-3.43v-3.428c0-3.783 3.188-6.86 7.107-6.86h14.214c3.92 0 7.107 3.077 7.107 6.86v3.43c0 1.893-1.59 3.428-3.553 3.428z"/></g><g fill="#e4eaf6"><path d="M217.224 250.502l28.428 27.434s-14.213 3.43-24.874 17.147c-.007.01-10.08-26.744-13.263-35.196-.56-1.486.008-3.144 1.37-4.02l8.34-5.365zM274.08 250.502l-28.428 27.434s14.214 3.43 24.875 17.147c.007.01 10.08-26.744 13.262-35.196.558-1.486-.01-3.144-1.37-4.02l-8.34-5.365z"/></g><g fill="#5b5d6e"><path d="M159.68 277.272c-3.988 4.292-6.418 9.893-6.418 15.977v29.267c0 3.788 3.18 6.86 7.107 6.86h24.873v-18.913c0-5.457-2.246-10.69-6.245-14.55l-19.318-18.642zM331.625 277.272c3.988 4.292 6.418 9.893 6.418 15.977v29.267c0 3.788-3.182 6.86-7.107 6.86h-24.874v-18.913c0-5.457 2.246-10.69 6.244-14.55l19.32-18.642z"/></g></svg>