<svg  height="150"
 width="200" xmlns="http://www.w3.org/2000/svg" viewBox="0 0 1000 1000">
  <path fill="#243b3c" d="M289 742.5c-1.3-16-2-32.2-3.6-48-1.6-15.8-.6-31.7-2-47.4-1-9-1-18-2.5-27-1-5-2-13-9-12-1 0-1 0-1 1-3 0-6 1-8 2s-3 6-3 8c0 5 1 11 1 16 0 19 2 39 2 58-1 19 4 38 3 57-1 7-1 16 2 23 2 6 7 7 12 7 14 5 7-29 7-34"/>
  <path fill="#243b3c" d="M290.2 803.4c-.6-5.6 4.5-48.5-10-43.6-2.4.8-4.7.3-6 3.2-1.6 4-1.5 9-1.6 13.3 0 1.2 0 2.3-.2 3.5l-.2.8v4.6c-.5 5.3-1 10.7-.3 15.8v13.8c0 5.8 0 16.6 6 20.2 4 2.6 12 2.8 12-3.7 0-9.2 0-18.7-1-28"/>
  <path fill="#243b3c" d="M359.6 806.2c-8.7-6.7-17.7-13.5-27.2-19-5.8-3.6-44-37.7-48-22.5-.6 2.4-2.4 4-.3 7 3 4 8 7.6 12 10.6 1 1 2 1.7 4 2.6h1l5 3c5 4 10 8 16 11l14 9c6 3 16 11 23 9 5-2 10-8 4-13m-81-42c-4-15-42 19-48 22-9 5-18 12-27 19-6 4-1 10 4 12 7 2 17-6 23-9l14-9c6-3 10-8 15-12l5-3 1-1 3-3c4-3 9-7 12-11 2-3 0-5 0-7m-1-266l-3-48c-1-16 0-32-2-47 0-9-1-18-2-27-1-5-1-14-8-13 0 0-1 0-1 1-3 0-6 0-8 2-2 1-2 5-2 8l1 15c0 19 3 39 2 58 0 19 4 38 4 57 0 7 0 15 2 22 2 5 7 7 12 6 15 4 7-29 7-35"/>
  <path fill="#436b6b" d="M248.7 620c0 .4.3.6.5.8 1.6 6.2 5.8 10.6 11.5 13.6 6 3.2 13.2 3.6 20 2 6-1.6 9.7-7.6 11.8-13.2 13-35-52.5-33.6-43.8-3.2M293 759.4c-7-5.2-15.8-5-21.8-.6-6.2 3.8-10.4 12-7.3 18.8 5 10.8 18 13.2 28 7.6 9-5 8-20 1-25.8m-11 62c-5 .2-8 2.6-10 7 0 .6-1 1.4-1 2.3-2 3.2-1 6 2 9 5 7 17 4.7 20-3.3 3-8.3-4-15.4-12-15m85-14.4c-5-7.3-15-6-20 .8-3 3.7-3 8.2 0 11.8l1 2c1 2.8 4 3.6 8 3.5 9 0 14-11 9-18m-151 1c-5-7-14-8-19-1s0 18 9 19c4 1 7 0 8-3l1-2c2-3 2-8 0-11m51-432l2-2c-1-4-2-10-8-9-1 0-1 1-1 1-3 0-6 1-8 2-2 2-2 6-2 8v1c3 4 12 5 16 2m120 128c-3-7-8-15-11-21-8-16-16-32-25-48-5-7-8-15-12-23l-16-24c-2-3-5-6-6-9l-4-4c-6-2-14 1-19 4-16 8-34 13-50 23-7 4-15 8-22 11l-24 11c-15 9-30 17-45 26-6 4-11 8-16 13-1 1-2 2-2 3v3c1 5 4 10 6 15l11 23 24 45s15 30 25 44c4 6 7 12 14 16 2 2 5 2 8 1 6-1 13-6 19-9 17-9 33-19 50-28 15-8 30-16 44-25 15-9 30-17 42-29 2-2 9-9 8-13"/>
  <path fill="#243b3c" d="M421.6 515c-3.8-1-8.7 0-12.8-.5-5.2-.8-11-.2-16.3-.5-1.8 0-9.5-.6-11 .3-5.2 3-10 7-15.2 10.2-1 .6-149.3 86.3-149.3 90.8 0 4 8.7 5 11.3 6 7.3 2.3 15.2 5 23 4.6 2.7-1 5.3-3 7.5-4 3.8-2 7.3-5 11-7 8-5 16.2-8 24-13 32.6-19 66-36 97.7-57 9.8-7 19.8-13 28.7-20 2-2 7-4 7-7s-3.4-4-5.6-5"/>
  <path fill="#5f0d2c" d="M349.7 399.4c-4.3-9-8-18.5-14-26.5-.5-1-1.3-1-2.2-1-2 1-2.7 3-2 5-1.3 9-7 16-13.6 23-7 7-19 14-29 14-3 0-6 1-9 1s-7 0-10 1c-4 1-7 4-10 6-4 2-8 3-11 5-1 0-1 1-2 1-2 3-4 5-6 7-5 4-10 7-14 10-9 6-19 11-29 14s-20 7-30 8c-5 1-14 0-18 3-1 0-1 1-1 2 1 4 5 8 7 13 3 6 5 12 9 18 5 10 10 22 15 32 5 11 12 22 18 33 6 9 10 19 16 28h2c14-4 28-14 41-22 16-10 32-19 48-28 31-18 61-38 90-59 1 0 1-1 1-2s-47-78-52-89"/>
  <path fill="#bee7db" d="M411.6 489c-.7-4.3-4-8.5-6.4-12.3-3-4.8-6.2-9.5-9.3-14.3-4-4.8-6-10-10-14.7-4-5.2-8-10.4-11-16-6-10.6-12-21-17-31.3-3-4-4-8.5-7-12.6-2-2.7-4-5-5-8l-3-5.7c-1 0-3 0-3 1-2 3-3 7-5 10-3 5-6 9-10 13-7 7-15 13-23 17-9 5-22 9-32 7-2 0-3 1-5 2-2 3-7 3-9 6-11 14-26 25-41 34-9 5-18 9-28 12-8 3-17 3-26 5-1 0-1 1-1 1l-1 1c0 1 0 2 1 2 3 5 12 24 15 29 6 10 43 81 48 91 0 1 2 1 2 1 3-1 5-3 8-5s7-3 11-5c7-4 14-9 22-13 16-8 32-20 47-30 8-5 16-9 24-14 8-4 15-9 22-14 15-10 30-19 44-31v-1"/>
  <path fill="#d6f1ee" d="M411.6 482.4c-11-19-23.7-37-33.6-56.7-4.8-9.5-10-19.3-15.7-28.2-2.7-4.4-5.2-9-8-13.3-2.5-3.5-4-7.8-7-11-.7-.6-2-.6-2.7 0-1 1.3-.7 2-1.2 3.4-1.4 4-3.2 8-5 12-3.7 7-8.3 13.2-13.8 19-6 6.4-13 10.8-20.8 14.5-5.2 3-10.3 5-16 6-4.4 1-10 3-14.3 2-.6 0-1 0-1.3 1-.5 0-1 1-1 1 0 1 0 1 .3 2 2.2 3 3.6 6 5.3 9 3.6 7 6.4 14 9.8 21 6.6 13 13.2 26 20 39 6.2 12 13.6 23 21 34 3 5 5.4 10 10.2 13 1.8 2 4.8 2 7.5 1 16.7 0 34-8 47-18 8-6 14.6-12 18.5-22 2-4 2.8-9 4.4-13 1.3-3-2-7-3.6-10"/>
  <path fill="#fff" d="M346 547.2c-.3-3-4-7-5.5-9.7-3.2-5.8-7-11.4-10-17.2-6.3-11.4-13.8-22-20.2-33.4-5.6-10-11.7-20-17.7-30-3.3-6-6.3-11-10-16-2.8-4-5.4-8-7.4-13-.5-1-2.3-1-3-1-1 1-2 3-2.6 4-2 5-6.8 8-10.8 12-7.2 7-14.4 14-23.2 19-9.3 5-19.6 9-30 11-5.2 1-10.4 1-15.6 2l-12.6 3c-1 0-1.5 1-1.5 1-1 0-1 1-1 1 3 4 4 9 7 14l9 17c6 10 13 20 19 31 6 10 11 20 17 30 5 8 10 17 16 24 0 0 1 1 2 1h23c11-1 22-6 31-11s19-12 26-20c4-4 8-8 11-13 2-4 5-10 5-15"/>
  <path fill="#436b6b" d="M278.3 447c-2.3 3.4-4 7-7 10-3 3.2-6.8 5.8-10.2 8.8-6 5.5-13 10-21 14-6 4-14 6.7-21 9.3-4 2-9 3-14 3-4 1-9 1-13 0v1c9 2 19 1 27-2 8-2 16-5 23-9 8-4 15-8 22-14l11-9c3-2 6-6 6-10 0 0 0-1-1 0"/>
  <path fill="#436b6b" d="M280.8 450.4c-.5 4-3.7 6.6-6.2 9.4-3 3.4-6 6.6-9.5 9.3l-5 5c-1 2-3 3-6 4-3 3-7 5-11 7-8 5-16 9-26 10-5 1-9 3-14 3h-9v1c1 0 2 1 3 1 2 1 5 1 7 1 5 0 9-1 14-2s10-2 15-4c5-1 9-4 13-7l13-7c5-3 8-6 12-9 4-2 7-6 10-9 3-2 5-5 6-9 0 0-1-1-1 0"/>
  <path fill="#436b6b" d="M284 453.2c-1 1.6-1.2 3.4-2.2 5-1 1.7-2.3 3-3.4 4.6-2.7 3.8-5.8 7.5-9.2 10.7-6.7 6.5-15 11.6-23 16.2-7.5 4.2-16 8-24.5 9.6-4.6 1-9.2 2-14 2.2-2.2.2-4.6 0-7 0-1.7 0-3.5-.6-5.4-.5-.7 0-.7 1 0 1 2 .2 3.6.8 5.5 1 2.7 0 5.4 0 8.2-.2 4.3-.2 9-1 13-2 9-2.8 17.7-5.8 26-10.4 8.2-4.6 16.4-10 23.2-16.4 3.2-3 6-6.8 8.7-10.3 2-3.2 5-6 5-10.3 0-.5-1-.7-1-.2"/>
  <path fill="#436b6b" d="M286.2 457.4c-1.7 3.6-3.2 7-5.4 10.3-2.4 3.6-5.6 7-8.8 10-3.2 3-7.4 5.7-11.4 8-1.7 1-3.3 2.4-5 3.5l-5.7 3c-4 2-8 4.6-12 6.5-4 2.2-9 3.5-14 4.5-3 .6-5 1.2-8 1.5-2 .2-4 .2-6 .5-3 .5-5 1-7 1.2-1 0-5 .3-5-.5l-1-1h-1c-1 0-1 1 0 1s1 0 2 1h5c2 0 4-1 7-1s4 0 7-1c5-1 10-2 15-4s9-4 13-7 9-4 12-7c1-2 4-3 6-5s4-3 5-4c7-6 12-14 15-22 0-1-1-2-2-1"/>
  <path fill="#436b6b" d="M290.7 460.3c-1 1.4-1.8 3-2.5 4.5-.8 2.2-2.4 4-3.6 6-2.6 4-5.8 7.2-9.5 10.3-7 6-14 11-22 15-4 2-8 5-12 6-4 2-9 3-13 5s-9 3-13 3c-4 1-8 2-13 1v1c5 1 9 0 13 0s9-1 13-2c5-1 10-2 15-4 4-1 8-3 12-5 8-4 16-9 23-14 4-2 7-5 10-9s5-8 7-13c0-1 0-1-1 0m63-69c-1 4-3 7-5 10-2 4-5 6-7 9-4 6-10 10-15 14s-10 7-16 9c-3 2-7 2-10 3s-6 1-10 0v1c7 2 14 1 20-2 6-2 12-5 17-9 6-4 11-9 16-14l8-9c2-3 4-6 4-10 0-1 0-1-1-1"/>
  <path fill="#436b6b" d="M356 395.2c-.3 4-2.7 6.5-4.5 9.4-2 3.4-4.4 6.6-7 9.3l-3.5 4-4.6 4c-2.7 2-5.6 4-8.4 7-5.7 5-12 8-19 10-3.5 1-6.8 2-10.4 2-1.8 0-3.7 0-5.4-1-.6 0-1-1-1.7-1-.4 0-.4 0 0 1 .6 0 1.5 0 2 1h5c3.4 0 6.7-1 10-2 3.7-1 7.3-3 11-4 3.2-2 6.2-4 9.2-7l9-8c3.2-3 5.8-6 8.7-9 2.6-3 4.7-7 7-10 1.7-3 3.4-5 3.8-9 0-1-1-1-1 0"/>
  <path fill="#436b6b" d="M358.3 398c-.6 1.6-.8 3.4-1.5 5-.7 1.7-1.7 3-2.5 4.6-2 3.8-4.3 7.5-6.7 10.7-5 6.5-11 11.6-17 16.2-5.3 4-11.6 8-17.8 9.6l-10 3h-9.2c-.6 0-.6 1 0 1 1.3 0 2.6 1 4 1 2 0 4 1 6 0 3 0 6.5-1 9.5-2 7-2 13-5 19-10s12-10 17-16c3-3 5-6 7-10 2-3 4-6 4-10"/>
  <path fill="#436b6b" d="M360 402.2c-1.2 3.5-2.4 7-4 10.3-1.7 3.6-4 7-6.3 10-2.4 3-5.5 5.7-8.4 8-1.3 1-2.4 2.4-3.7 3.5l-4 3c-3 2-5.5 4.6-8.4 6.5-3 2-6.6 3.5-10 4.5-1.8.6-3.7 1.2-5.6 1.5-1.3.2-2.7.2-4 .5-1.7.5-3.4 1-5 1.2-.6 0-3.4.3-3.7-.5l-1-.2h-1c-1 .2-1 1 0 1l1 .8c1 0 2 .3 4 .2 1-.2 3-1 5-1.2 2-.2 3-.2 5-.7 4-1.2 7-2 11-4 3-1.5 6-4 9-6.5 3-2 6-4 9-7l4-4c1-1 3-2 4-4 5-6 9-13 11-21 0-1-1-1-1 0"/>
  <path fill="#436b6b" d="M363.3 405c-.7 1.5-1.4 3-1.8 4.6-.6 2-1.8 4-2.7 6-1.8 4-4.2 7.2-7 10.3-5 5-10.6 10-16.4 14l-8.8 6c-3.2 2-6.5 3-9.8 4l-10 3c-3.2 0-6.4 1-9.6 1-.5 0-.6 1 0 1 3 1 6.2-1 9.5-1 3.2 0 6.5-2 9.6-3l10.7-4c3-2 5.7-4 8.4-6 6-5 11.6-9 16.8-15 2.6-3 5-6 7-10s3.4-8 5-13c0-1-.5-1-1-1m11.3 23c-1.6 3-3 7-5 10s-4.7 6-7 9c-4.5 5-9.6 10-14.7 14-4.8 4-10 6-15.3 9-3.2 1-6.6 2-10 2-3 0-6.2 1-9.3 0-.3 0-.3 1 0 1 6 1 13 0 18.8-2 5.6-3 11-6 16.3-10 5.3-4 10.3-9 15-14 2.5-3 5.2-6 7.5-10 1.8-3 4-7 4.3-10 1-1 0-1 0-1"/>
  <path fill="#436b6b" d="M376.2 431c-.4 4-2.6 6.6-4.3 9.4-3 3.4-5 6.6-7 9.4l-4 4.2c-2 2-3 3-4 4.8-3 2.4-6 4.6-8 7-6 5-12 8.6-19 10.2-4 .7-7 2-10 2.2-2 0-4 0-5-.5-1-.2-1-.6-2-.5-1 0-1 .5 0 .6 0 0 1 .8 2 1 1 .6 3 .5 5 .5 3 0 6-1 9-2s7-2 10-4c3-1.2 6-4 9-6.2l8-7c3-2 5-6 8-9l6-9c1-2 3-5 3-9 0-1-1-1-1 0"/>
  <path fill="#436b6b" d="M378.4 433.8c-.6 1.6-.8 3.5-1.5 5l-3 4.7c-2 3.7-4 7.4-7 10.6-5 7-11 12-16 17-6 4-12 8-17 10-4 1-7 2-10 3h-9c-1 0-1 1 0 1s2 1 4 1h5c3 0 6-1 9-2 6-2 12-5 18-10 6-4 11-10 16-16 2-3 4-6 6-10 2-3 3-6 3-10h-1"/>
  <path fill="#436b6b" d="M380 438c-1.2 3.6-2.3 7-3.8 10.3-1.7 3.6-4 7-6 10-2.4 3-5.3 5.7-8 8-1.3 1-2.4 2.5-3.6 3.5l-4 3c-2.6 2.2-5 4.6-8 6.6-2.8 2-6.2 3.4-9.4 4.5-1.8 0-3.6 1-5.3 1h-4l-5 1c-1 0-3 0-4-1 0-1-1-1-1-1h-1c-1 0-1 1 0 1s1 0 1 1h3c1 0 3-1 5-1 1-1 3-1 4-1 4-1 7-2 11-4 3-2 6-4 9-7 2-3 6-4 8-8 1-2 3-3 5-4l4-4c4-6 8-13 10-22 0-1-1-1-1-1"/>
  <path fill="#436b6b" d="M383 441c-.6 1.3-1.2 2.8-1.6 4.4-.6 2.2-1.7 4-2.5 6-2 4-5 7.3-7 10.3-5 5.8-10 10.3-16 14.7-3 2.2-6 4.4-9 6-3 2-7 3-10 4.4-3 1.4-7 2.6-10 3-3 .4-6 1.4-9 1-1-.2-1 .8 0 1 3 1.2 6-.3 9-.4 3-.2 6-1.5 9-2.7 3-1.4 7-2.8 10-4.6 3-1 5-3 8-5 5-4 11-9 16-14l6-9c2-4 3-8 5-12 0-1-1-1-1-1m12 24c-2 4-3 7-5 10-2 4-5 6-7 9-5 6-10 10-15 14s-10 7-15 10c-3 2-7 2-10 3-4 1-7 1-10 1-1 0-1 1 0 1 6 2 12 1 18-2 5-2 11-5 16-9s10-8 15-14l7-9c1-2 4-6 4-10 0 0 0-1-1 0"/>
  <path fill="#436b6b" d="M397.5 468.6c-.4 4-2.6 6.5-4.4 9.3l-6 9-3 4c-1 2-2 3-4 4l-8 7c-5 5-12 8-18 10-3 0-6 2-10 2-1 0-3 0-5-1l-1-1c1 0 2 1 2 1h5c3 0 6-2 10-2 4-1 7-3 11-4 3-2 6-4 9-7l9-8c3-3 6-7 9-10s5-7 7-10 4-5 4-9c0-1-1-1-1 0"/>
  <path fill="#436b6b" d="M399.6 471.3c-.6 1.6-.7 3.5-1.4 5-.7 1.7-1.6 3.2-2.4 4.7-2 3.7-4 7.4-6.4 10.6-4.7 6.5-10.5 11.7-16 16.2-5.4 4.2-11.3 8-17.2 9.6-3.3 1-6.4 2-9.7 2.3h-5c-1.2 0-2.5-.6-3.8-.5-.4 0-.4 1 0 1 1.4 0 2.6.8 4 .8h5.6c3-.3 6.2-1 9-2.2 6.4-2.7 12.4-5.7 18.2-10.3 5.8-4.5 11.5-10 16.3-16.4 2.2-3 4.2-6 6-10 1.7-3 3.6-6 3.5-10 0 0-.5-1-.7 0"/>
  <path fill="#436b6b" d="M401.2 475.5c-1 3.6-2.2 7-3.7 10.3-1.7 3.6-4 7-6.2 10s-5.2 5.7-8 8c-1.2 1-2.2 2.4-3.5 3.5l-4 3c-2.6 2.2-5 4.6-7.8 6.6-3 2-6.3 3-9.6 4l-5.4 1h-3.2c-1.6 0-3.2 1-4.8 1-.6 0-3 0-3.6-1 0-1-.2-1-.4-1h-.8c-.3 0-.3 1 0 1h5.3c2-1 3.5-1 5-1 1.8-1 3.4-1 5-1 3.5-1 7-2 10.6-4 3-2 6-4 9-7s6-4 9-7c2-2 3-3 5-4l4-5c5-6 9-13 11-22 0-1 0-1-1-1"/>
  <path fill="#436b6b" d="M404.4 478.4c-.7 1.4-1.3 3-1.7 4.5-.6 2-1.7 4-2.6 6-1 4-4 7-6 10-5 6-10 10-15 14l-8 6c-3 2-6 3-9 4l-9 3c-3 0-6 1-9 1v1c4 1 7-1 10-1s7-2 10-3c4-2 7-3 10-5l8-6c6-5 11-9 16-15 3-3 5-6 7-10s4-8 5-13c1-1 0-1 0-1m-105 5c-2 3-4 7-7 10s-7 6-10 9c-6 5-13 10-21 14-7 4-14 6-22 9l-14 3h-14v1c9 1 18 0 27-2 8-3 16-6 23-10 8-4 15-9 22-14 4-3 8-6 11-10 3-3 6-7 6-10 0-1 0-1-1-1"/>
  <path fill="#436b6b" d="M302.7 486c-.6 4-3.7 6.6-6.2 9.4-3 3.4-6 6.6-9.6 9.4-2 1.3-4 2.8-5 4.3-2 2-4 3-6 5l-12 7c-8 5-17 9-26 10l-15 3h-11c-1 0-1 1 0 1s2 1 3 1c2 1 4 1 6 1 5 0 9-1 13-2 5-1 10-2 15-4 4-1 8-4 12-6l13-8c4-2 7-6 12-9 3-2 6-6 9-9 2-3 4-5 5-9 0-1-2-1-2 0"/>
  <path fill="#436b6b" d="M305.8 488.8c-1 1.6-1 3.5-2 5-1 1.7-2.4 3.2-3.5 4.7-2.7 3.7-6 7.4-9.2 10.6-6 7-15 12-23 17-7 4-16 8-24 10-4 1-9 2-14 3h-12v1c2 0 4 1 6 1h8c5 0 9-1 13-2 9-2 18-5 26-10 8-4 17-10 24-16 4-3 7-6 9-10 3-3 5-6 5-10h-1"/>
  <path fill="#436b6b" d="M308 493c-1.6 3.6-3.2 7-5.3 10.3-2.4 3.6-5.6 7-8.8 10-4 3-8 5.7-12 8-2 1-4 2.5-5 3.5l-6 3c-4 2.2-8 4.6-12 6.6-5 2-9 3.4-14 4.5-3 0-5 1-8 1h-5c-3 0-5 1-7 1-1 0-5 0-5-1s-1-1-1-1h-1c-1 0-1 1 0 1s1 0 2 1h5c2 0 5-1 7-1 2-1 4-1 7-1 5-1 10-2 15-4 4-2 8-4 13-7 3-3 8-4 12-8 2-2 4-3 6-4l5-4c7-6 12-13 15-22 0-1-1-1-2-1"/>
  <path fill="#436b6b" d="M312.6 496c-1 1.3-2 2.8-2.5 4.4 0 2.2-2 4-3 6-2 4-6 7.3-9 10.3-7 5.8-14 10.3-22 14.7-4 2.3-8 4.4-12 6-4 2-9 3-13 4.4-4 1.4-9 2.6-13 3-4 .4-8 1.4-13 1v1c5 1.2 9-.3 13-.4 5 0 9-1.5 13-2.7 5-1.4 10-2.8 15-4.6 4-1 8-3 12-5 8-4 16-9 23-14 4-3 7-6 10-9 3-4 5-8 7-12 0-1 0-1-1-1m8 22c-2 4-4 7-7 10s-7 6-10 9c-6 6-13 10-21 14-7 4-14 7-22 9-4 2-9 2-14 3-4 1-9 1-13 1 9 2 19 1 27-2 8-2 16-5 23-9 8-4 15-8 21-14 4-3 8-6 11-9 3-2 6-6 6-10 1 0 0-1-1 0"/>
  <path fill="#436b6b" d="M323.3 522c-.5 4-3.7 6.5-6.2 9.4-3 3.3-6 6.5-9 9.3l-5 4.4c-2 2-4 3-6 5l-11 7c-8 5-16 9-26 10l-14 3h-9v1c1 0 2 1 3 1 2 1 5 1 7 1 5 0 9-1 14-2s10-2 15-4c5-1 9-4 13-6s8-5 13-7c5-3 8-6 12-9s7-6 10-10c3-2 5-5 5-8 0 0-1-1-1 0"/>
  <path fill="#436b6b" d="M326.4 524.7c-1 1.7-1 3.5-2 5-1 1.7-2.4 3.2-3.5 4.7-3 3.7-6 7.5-10 10.7-7 7-15 12-23 17-8 4-16 8-25 10-5 1-9 2-14 2-2 1-5 0-7 0h-6c-1 0-1 1 0 1 2 0 3 1 5 1s5 1 8 0c4 0 9-1 13-2 9-3 17-5 26-10 8-4 16-10 23-16 3-3 6-7 8-10s5-6 5-10h-1"/>
  <path fill="#436b6b" d="M328.7 529c-1.7 3.5-3.2 7-5.4 10.2-2.4 3.7-5.6 7-8.8 10-3.2 3-7.4 5.8-11.4 8-1 1-3 2.5-5 3.6l-5 3c-4 2-7 4.5-11 6.5s-9 3.5-13 4.5c-2 .5-5 1.2-7 1.5-1 .2-3 0-5 .5-2 .4-4 1-7 1.2-1 0-4 .3-5-.5v-.3l-1 .2v1c1 0 2 .6 2 .6 2 .2 4 .4 6 .3 3-.2 5-1 7-1.2h7c5-1 10-2 15-4 5-1 9-4 13-6s9-4 12-7c2-2 5-3 7-4l6-4c7-6 12-13 15-21 1 0-1-1-1 0"/>
  <path fill="#436b6b" d="M333.2 532c-1 1.2-1.8 2.7-2.5 4.3-.8 2.2-2.4 4-3.6 6-2 4.2-5 7.3-9 10.4-7 5.8-14 10.3-22 14.7-4 2.2-7 4.4-12 6-4 1.8-9 2.8-13 4.3s-9 2.6-14 3c-4 .4-8 1.4-13 1v1c5 1.3 9-.2 13-.4 5 0 9-1.5 13-2.7 5-1.4 10-2.7 15-4.5 4-1 8-3 12-5 8-4 16-9 23-14 4-3 7-6 10-9 3-4 5-8 7-12 0-1 0-1-1-1"/>
  <path fill="#0d2022" d="M209 509.4c-5.7 2-8-3.8-6-8.3l.8-2 1 2-.8 1c-1 2-1 3 .2 4 .2 1 .6 1 1 1h.2c.5 1 1.2 0 .8 0h-.4l-1-1 1.4-1 2.2 4 1.7 3h-1zm-6.8-19.4c.6-.2 1 0 1 .6 1 1.4.6 3 .2 4.6-.7-1.8-1.2-3.6-1.2-5.2zm5.4 11.6c1.3 0 2.3.6 3.2 1.5 1.4 2 1.7 3 1 5l-4.5-6h.3zm5 7.6c1-1.2 1.5-2.8 1-4.6-.7-2.6-4.6-5.2-7.5-4.5l-1-2c1-2 2-3 1-5 0-1-1-4-3-4-4-1 0 9 0 10v1l-1 5c-1 4 1 9 6 10 2 0 4 0 5-1l1 1c1 1 1 2 1 3 1 3-4 4-3 1 0 1 1 2 2 1 1-3-4-2-3 1 1 2 3 3 5 3 1 0 4-1 3-3 0-2-1-4-2-7m16 1c0-1-2-1-3 0 0 0-1 1-1 2s0 1 1 1c1 1 3 1 4 0s2-2 1-3m0-1s0 1-1 1h-2l-4 1v1l1-1 2-1c1 0 2 0 3-1m12-8l-2 1c-1 0-1 1-2 1-1 2 1 3 2 3 2 0 4-1 3-2 0-1-1-1-2-1m-13 8c-1-4-4-9-6-13h-1c1 5 4 10 6 14 1 1 2 1 2 0m16-6c-1-2-2-5-3-7l-2-4-1-1c0 2 2 4 2 5 2 3 3 6 4 9 1 1 2 1 2 0m13-10c0-1-2-2-3-1l-1 1v2c0 1 0 2 1 2s2 1 2 0c1 0 3-1 2-3m9-9c0-1-2 0-3 0l-1 1v2c1 2 3 1 3 0 1-1 2-2 1-3m9-9c0-1-2 0-3 1s-1 3 0 4 2 0 3-1 1-2 0-3m5-11c0-1-1-1-1-1l-1 1v2c0 1 1 2 2 2s2-2 2-3v-2m-52 70c-1-1-2-1-3-1s-3 1-3 3h1v1c1 1 2 1 4 1 1 0 2-1 2-2m15-5c-1-1-2-1-2-1h-3s-1 1-1 2 2 2 3 1l2-1c1-1 1-2 1-2m6-45l-5-6c1 2 3 4 4 5l2 3c0 1 1 2 2 3 0 0 1 0 1-1-1-2-2-4-4-6m13-4c-2-2-3-4-4-6-2-2-3-4-4-6-1-1-1 0-1 0 0 2 2 4 3 6l2 3 1 2c0 1 1 0 1-1m9-9l-3-5c-2-2-4-4-5-6-1 0-2 0-1 1 0 2 2 4 3 6s3 4 4 6c0 2 2 0 1 0m5-10c-1-2-2-4-3-5-1-2-2-3-3-4l-1-1h-1v1c0 1 1 2 2 3s2 2 3 4c1 1 1 1.8 2 2.7 0 1 2 1 1 0m-48 73c-2-4-4-8-7-12 0 0-1 0-1 1 3 4 5 8 7 12 0 1 2 0 1-1m15-5.5v-.5l-3-6c-2-2-3-5-5-7 0-1-1 0-1 0 2 4 5 8 7 13 0 1 2 0 1-1m25 7c-1-1-2-1-3 0-1 0-2 2-2 3v1c1 1 2 1 3 1s2-2 2-3 0-1.8-1-2m6 1l-1 1-2 1-3 2v1c1 0 3-1 4-1l2-2 1-1c0-1 0-2-1-2m10-14c-1 0-2 0-3 .3s-3 2-2 3c0 .6 1 1 1 1 1 0 2-1 3-2.5 0-1-1-1-1-2m13-15c-2-1-3 0-4 1s-1 3.4 1 4c1 0 2-1 3-2s0-2-1-3m8-16c-1 0-2 0-2 1-1 1-2 2-2 3s0 2 1 2 2 0 2-1c1-1 2-3 0-4m-55 77c-1-1-2-2-3-1-2 0-2 2-1 4 0 0 1 1 2 0 2 0 3-2 2-3m16 2h-1c-1 0-1 0-1 1-1 2 1 2 2 2s3 0 3-1.6c1-2-1-3-2-2m22-2h-3c-1 0-1 1-1 2h2c1 0 1-1 2-1 1-1 1-1 1-2s0-2-1-2m-3 1c0-1-2-1.4-3-1-1 0-1 1-2 2v1c0 1 1 1 2 1s2-.3 2-1c0-1 1-1.4 0-2.3m20-3c-1-1-3-1.5-4-1-1 .7-2 1.6-2 2.5-1 0-1 1 0 1 0 1 2 1 3 0s2-2 1-4"/>
  <path fill="#0d2022" d="M304.6 568c-.2.3-.8.6-1.2.8l-2 1.2-2.7 2c-.3.3 0 .8.4.8 2 0 3-1 4-1.4 1-.4 2-1 3-1.2l1-.6 1-.4c1-1 0-2.2-1-1.3m-34-29c0-2-2-4-3-6s-2-5-3-6c0-1-1 0 0 0 1 2 1 3 2 5 1 1 1 2 2 3 0 1 1 1 1 2s2 0 2-1m12-14c0-2-2-4-3-6s-3-4-4-6c0-1-1 0-1 0l3 4c2 2 3 4 4 7 1 1 2 0 2-1m13-15s-1-1-1-2l-1-3c-1-2-2-3-3-4 0-1-1 0-1 0l3 6c1 1 2 3 3 4s2-1 1-1m7-17s-1-2-2-2c0-1-1-2-2-3 0-1-1-1-2-2l-1-2s-1 1 0 1l4 5c1 1 1 2 2 3 1 0 1 1 2 2 1 0 2-1 1-2m-57 78l-4-7c-1-2-2-5-4-7 0-1-1 0-1 0l3 7c1 2 3 5 4 7 0 1 2 0 1-1m17 3c-3-3-5-9-8-13 0-1-1 0 0 0 2 4 4 10 7 14 0 0 2-1 1-2m22-1c-3-5-5-10-8-14 0-1-1 0-1 0l4 7c1 3 3 5 4 8 1 1 2 1 2 0"/>
  <path fill="#0d2022" d="M305.6 569c-.5-2.2-2-4-3-5.7-1.7-2.8-3.7-5.4-5.4-8.2-.2 0-1 0-.7 1 1.2 3 2.8 5 4.2 8 1.2 2 2.3 5 4 7 .3 1 1 0 1 0M303 451c-1-1.7-.5-4 0-6l.2.2 1.6 2.4c-.5 1-.7 2-.4 3 .6 1.7 2.2 2 3.3 1.4l1 1.5h.2c-2 1-5-.6-6-2.2zm-2.3-13.8c-.2-.5-.2-1 0-1.5.4 1 .8 1.8 1 2.7.3.5.4 1 .4 2 0-1-1-2-1-3zm8.2 11c2 1 2 2.3 1 4l-2-2v-1c0-1-1-.6-1-.4l-1-.3c-1-1 0-1.2 1-.7zm4 8.8l-2-3.7v-.4c2-3 0-6-2-7-1-1-3-1-4 0l-3-4v-1c0-1-1-10-4-9s-1 6 1 9c-1 4-2 7 0 10s5 3 8 2l2 3 1 2-2 2-2-2c-1-1-1 0-1 1 1 1 2 2 4 2 1 0 2-1 3-2 0-2-1-3-2-5"/>
  <path fill="#0d2022" d="M311.6 457.7c-.6-.5-1.5-.7-2.3-.2-1.8 1.2.3 3.8 1.6 4.4 0 0 1-1 0-1l-1-1c-1-1-1-1-1-2h1c0-1 0-2-1-2m12-7h-1c-1 0-2 1-2 1-1 0-1 1 0 2 0 0 1 1 2 1s3-1 3-3-2-3-3-2m6 2l-4 2c-1 0-2 0-3 1-1 0 0 1 0 1 1 0 2-1 3-1l4-2v-1c1-1 0-2-1-1m12-9c-1-1-2-1-3 0-2 1-3 2-2 3 0 2 2 1 3 1s2-2 1-3m8-10c-1-1-2-1-3 0-1 0-1 0-1 1-1 0-1 1-1 2 0 2 2 2 3 1 0-1 1-2 1-3m9-7h-1c-1-1-2 0-3 1s-1 2 0 3 3-1 3-2v-2m2-12l-1 1c-1 0-1 1-1 2 0 0 0 1 1 1s2 0 2-1c1-1 1-2 1-3 0-2-2-2-3-2m-24 77c-1-2-3-2-4-1-1 0-1 0-1 1v1c1 1 3 1 4 1s2-2 2-3m10-8h-2c-1 0-1 1-2 2v1h2l2-2c1-2 0-3-2-3m12-9c-1-1-2-1-3 0l-1 1c0 1-1 1-1 1s0 1 1 1c0 1 1 1 2 0 1 0 1-1 1-1v-2m9-8c-1 0-2 1-2 1-1 1-1 2-1 2v2h1c1 1 3 0 3-2 1-1 1-3-1-3m9-10v-2c0-1-1-2-2-1l-1 1-1 1v2s1 1 2 1 1-1 2-1 1-2 1-3m-23 66c-1-1-2-1-4 0-1 1-1 2-1 2 0 2 2 1 3 1s2-2 1-3m12-8h-3c-1 0-1 0-1 1h-1c-1 1-1 3 0 3h1c0 1 1 0 2 0s2-1 2-2-1-2-2-2m11-10h-3c-1 1-1 1-1 2v3l1 1c1 0 1-1 2-1 0-1 1-1 1-2v-2m12-9c-1 0-1 1-1 1-1 0-1 1-2 2-1 0-1 1 0 2s3 0 3-1 1-1 1-2-1-2-2-2m7-11c0-1-1-1-2-2l-1 1s-1 1-1 2 0 2 1 2c0 1 1 1 2 0 2-1 2-2 2-4"/>
  <path fill="#0d2022" d="M328 453c-1.2-2-2.5-4-3.7-6.3-1-1.5-1.8-4-3.5-5-.4-.3-.7.2-.5.5 1.2 1.8 2 4 3 6l2 3.2c.6 1 .7 1.7 1.6 2.5l1-1m11-12c-1-1-2-3-3-4l-2-3c-1-1-2-2-2-3s-1 0-1 0c0 1 2 3 2 4s2 4 3 5l1-1m9-10c-1-1-2-3-3-4l-2-3c-1-1-2-2-2-3-1-1-1 0-1 0 0 1 2 3 3 4l3 5c0 1 1-1 1-1m-12 59l-3-6-3-6h-1v2l2 4 1 3c0 1 1 2 1 3s2 0 1-1m11-9l-1-2-2-3c-2-2-3-4-4-6-1-1-2 0-1 0 0 2 1 4 2 6l2 3s0 1 1 2c1 0 2-1 1-2m11-10c-1 0-1-2-1-2l-2-3c-1-2-2-4-4-5 0-1-1 0 0 0 1 2 2 3 4 5 1 1 1 4 3 5 1 1 1-1 1-1m8-11l-4-5h-1l3 5c1 1 2 3 3 3h1c0-2-2-3-3-4m10-8l-3-3-2-3c-1-1-2-2-2-3s-1 0-1 0c0 2 2 3 3 4l3 6c0 1 1 1 1 0v-1m-22 68l-3-6s-2-5-3-7c0 0-1 0-1 1 0 2 1 4 2 5 1 3 3 6 4 8 1 1 2 1 2 0m12-8l-7-13c0-1-1 0-1 0l4 7c1 2 2 5 3 6 0 1 1 0 1-1m9-11l-3-4c-1-1-3-3-3-4-1-1-2 0-1 0 0 2 1 3 2 4l3 5c1 1 2 0 1-1m14-7v-1c-2-4-5-7-8-9-1 0-1 0-1 1 3 3 6 6 8 10h1v-1m5-12c0-1-1-1-1-2s-1-2-2-3-2-2-2-3-1-2-1-2c-1-1-1 0-1 0 1 1 2 3 3 4l2 2 2 2c1 1 2 1 2 0m-36-57c-1-2-3-3-4-4l-6-7c-1-1-2 0-1 1l4 6 2 3c0 1 2 2 2 3s2 0 1-1m4-13s0-1-1-1c-1-1-1-2-2-3s-3-4-5-5c-1 0-1 0-1 1l4 5c1 1 1 2 2 3 0 0 1 1 1 2s2 0 2-1"/>
  <path fill="#2d2738" d="M391.3 680.2c-2.5-4.6-5.7-8.6-8.8-13-3.7-5.2-6.7-11-9.7-16.6-4.3-7.7-9-15.2-13.7-22.7l6 3c4 2 32 11 20 19-1 1 0 4 2 3 9-4 6-13 0-18-5-4-11-5-17-8s-11-7-15-11c-1-2-4 0-3 2 6 11 13 22 19 33 3 5 7 11 10 16 2 3 5 6 7 9-3 0-7 2-10 4-4 2-8 5-9 9 0 9 11 8 17 5 4-2 7-5 9-8s1-7-1-9m-43-375c1-5 1-9 1-14 1-6 1-12 2-17 1-8 2-16 2-23l2 5c2 4 17 25 5 24-2 0-3 3-1 3 8 2 11-6 8-12-1-5-5-10-8-14-3-5-4-10-5-16 0-2-3-2-3 0-1 11-1 22-3 33 0 5-1 11-1 17v10c-2-3-6-3-9-3-4-2-8-1-11 2-5 6 4 11 10 12 3 1 7 1 10-1 2-1 4-4 4-6m456 494c1-3 1-5 1-8s1-7 1-10c1-5 1-9 1-14l2 3c1 2 10 15 3 14-1 0-1 2 0 2 5 1 6-3 5-7-1-3-3-6-5-8l-3-9c0-1-1-1-2 0-1 6-1 13-2 19l-1 10v6c-1-1-3-2-5-2-2-1-5-1-6 1-3 4 2 6 6 7 2 0 4 0 6-1 1-1 2-3 2-4m11-198c-2-4-5-7-8-11s-6-9-9-14l-13-18 5 2c3 2 27 9 18 16-1 1 0 4 2 3 8-3 5-11-1-14-4-3-10-5-14-6-6-2-10-6-14-9-2-1-3 0-3 2 6 9 13 17 18 26 3 5 6 9 9 14 1 2 3 5 6 7-4 0-7 1-9 3-4 1-7 4-7 8 0 8 9 6 14 4 3-2 6-4 7-7 1-2 1-6-1-7M185 740c-2.7-5-9-6.4-14.7-5.4-5-.5-10 .4-12 4-4 8.6 6 12.6 13 13 4 0 8-.7 11.5-3 2-1.7 4-5.5 2.8-8"/>
  <path fill="#2d2738" d="M197 686c-5.5 9.5-6.7 22.8-8.6 33.3-1.3 6.6-3 13-4.8 19.5-1 3-1 5-4.3 6.6-2.8 1.3-5 .6-7.8 1-1.4 0-1.8 2-.4 2.3 5 1.3 8 1.2 13-1.4 4-2.5 5-11.5 6-15.8 2-7.5 3-15.3 5-23 2-7 4-14.7 4-22 1-.7 0-1-1-.4m533-95c-1-2-4-3-6-2-2 0-4 0-5 2-2 4 3 5 6 6 2 0 4 0 5-1s2-2 2-3"/>
  <path fill="#2d2738" d="M735.6 568c-2.3 4-2.8 9.7-3.7 14.2l-2 8.3c-1 1.3-1 2.2-2 2.8-1 .5-2 .2-4 .4-1 0-1 .8 0 1 2 .5 3 .5 5-.6 2-1 2-4 2-6 1-3 1-6 2-9 0-3 1-6 2-9h-1m69-167c-3-1-6 0-8 2-3 2-5 3-5 6 0 5 6 4 9 2 1-1 3-3 4-5 1-1 1-3-1-4"/>
  <path fill="#2d2738" d="M794.6 373.8c.2 5.7 3.5 12 5.5 17.4 2 3.4 3 6.7 4 10.2 1 1.6 1 2.6 0 4.2-1 1.3-2 1.7-3 2.6 0 .4 0 1.4 1 1.2 3-.8 4-1.7 5-4 2-2.4-1-6.7-1-9-1-4-3-7.8-4-11.6-1-3.7-2-8-4-11.2v.2m-72-157.2c-2-4.4-7-5.5-12-4.7-4-1-8 0-10 3-4 7 5 10 10 10 3 0 7-1 10-3 2-2 4-5 3-7"/>
  <path fill="#2d2738" d="M733.8 172c-4.5 8-5.5 19-7 27.7-1 5.5-2.5 10.7-4 16-.8 2.6-1 4.4-3.6 5.6-2.3 1-4.2.5-6.5.7-1 0-1.5 1.7-.3 2 4 1 6.5 1 10.2-1 3.5-2.2 4-9.7 5-13.2 1.5-6.3 2.5-12.7 3.7-19 1-6 3.4-12.3 3.5-18.4 0-.5-.7-.7-1-.3M165.5 407c-4.8-1-9 2.3-11.3 6.5-3 3-5 6.8-3.7 10 3 7.5 11 3 14.8-1.3 2-2.5 4-5.7 4-9 0-2.3-1.3-5.5-3.8-6"/>
  <path fill="#2d2738" d="M137.3 370.2c3.2 8.5 11.3 16.2 17 23 3.7 4.3 7 8.8 10.2 13.4 1.6 2 2.8 3.4 2 6.3-.5 2-2.2 3-3.5 5-.6 1 .4 2 1.4 1 3.3-3 5-5 5.6-9 .6-4-5-9-7.2-13-3.8-5-8.3-10-12.5-15-4-5-7.5-11-12-15-.6-1-1.2 0-1 0m532 305c-1.5-6-7.4-9-13-9-4.8-2-10-2-12.7 1-6.2 7 3 13 9.6 15 3.8 1 8 1 11.7-1 2-1 5-5 4-8"/>
  <path fill="#2d2738" d="M692.6 626c-7.3 8-11 20.8-15.2 30.7-2.6 6.2-5.5 12-8.6 18-1.5 2.8-2 5-5.6 5.7-3 .7-5-.5-7.8-.8-1.4 0-2.2 1.6-.8 2.3 4.3 2 7.4 2 12.2 1 4.7-2 7-11 9-15 3.5-7 6.2-15 9.2-22 2.8-7 7-14 8.7-21 0-1-.7-1-1-1m15.3 70c-1.5-6-7.3-9-13-9-4.8-2-10-2-12.7 1-6 7 3 13 9.6 15 3 1 8 1 11-1 2-1 5-5 4-8"/>
  <path fill="#2d2738" d="M731.3 646c-7.2 8-11 20.8-15 30.7-2.7 6.2-5.7 12-8.8 18-1.5 2.8-2 5-5.6 5.7-3 .7-5-.5-8-.8-2 0-2 1.6-1 2.3 4 2 7 2 12 1 4-2 7-11 9-15l9-22c2-7 7-14 8-21 0-1-1-1-1-1"/>
  <path fill="#2d2738" d="M732.7 644.4c-6-4.3-13.3-7.3-20-10-6.2-2.7-12.8-8-19.3-9-1-.2-2 1.4-.8 2 5.7 2.7 11.2 6 17 9 7 3.6 14.7 6.3 21.4 10.8 1.8 1.2 3.4-1.6 1.7-2.8m-4 6c-6-3.4-12.8-6-19.3-8.5-6.7-3-12.8-7-19.5-9-2-1-3 1-2 2 10 8 25 11 37 18h1c1 0 3-2 1-3M465 159c-3-2-6.7-.5-9.3 1.8-2.8 1.3-5 3.4-5 6 .4 5.7 7 4.4 10.5 2.4 2-1 4-3 4.6-5 .7-1.6.5-4.2-1-5"/>
  <path fill="#2d2738" d="M454.8 128.3c.2 6.5 4 13.7 6.3 19.7 2 3.7 3 7.5 4 11.4 1 2 1 3 0 4.8-1 1.5-2 2-3 3 0 .4 0 1.5 1 1.3 3-1 5-2 6-4.7 2-2.6-1-7.4-2-10-1-4.4-3-8.7-5-13-1-4.2-2-9-5-12.8v.3m36 24c-3-2-6-.7-9 1.6-2 1-5 3-5 6 1 5 7 4 11 2 2-1 4-3 5-5s1-4-1-5"/>
  <path fill="#2d2738" d="M480 120.7c.2 6.5 4 13.7 6.2 19.7 1.5 3.8 2.7 7.6 3.8 11.5.6 1 1.2 3 0 4-1 1-2.4 2-3.7 3-.7 0-.3 1 .6 1 2-1 4-2 5-5s-2-8-2-10c-2-5-4-9-5-13-2-4-3-9-5-13 0-1-1 0-1 0"/>
  <path fill="#2d2738" d="M480 119.5c-4.5.7-9 2.4-13 4-3.7 1.5-8.8 2-12 4.2-.6.4-.4 1.4.4 1.2 3.6-2 7.4-3 11-4 4.7-2 9.2-4 14-5 1.2 0 .7-2-.5-2m0 4c-4 1-8 2-12 4s-8 3-12 4c-1 0-1 1 0 1 8-1 15-6 23-8 1-1 0-3-1-2M358 775c-.8-2-3-3-5-2.8-1.8-.5-3.6-.5-4.6.8-2 2.8 1.5 4.8 4 5.2 1.3.3 2.8.2 4-.5 1-.5 2-1.7 1.5-2.8"/>
  <path fill="#2d2738" d="M365 756.2c-2.3 3-3.4 8-4.6 11.6-.8 2.3-1.7 4.5-2.7 6.7-.5 1-.6 2-2 2.2-1 .4-1.7 0-2.7 0-.5 0-.8.6-.3.8 1.6.7 2.8.8 4.5 0 1.6-.6 2.3-3.8 3-5.3 1-2.6 1.8-5.3 2.7-8 0-2.5 2-5.2 2-7.8 0-.2-1-.3-1-.2m7 25c-1-2-3-2.8-5-2.7-2-.5-4-.5-5 .8-2 2.8 1 4.8 3 5.2 1 .3 3 .2 4-.5 1-.5 2-1.7 1-2.8"/>
  <path fill="#2d2738" d="M379.7 762.5c-2.4 3-3.5 8-4.8 11.6-1 3-2 5-3 7-1 1-1 2-2 2-1 1-2 0-3 0s-1 1 0 1c1 1 2 1 4 0 1 0 2-4 3-5l2-8c1-2 2-5 2-8h-1"/>
  <path fill="#2d2738" d="M380 762c-2.2-1.4-5-2.4-7.4-3.2-2.3-.8-4.8-2.6-7.2-2.8-.4 0-.7.6-.2.8 2 .8 4.2 2 6.3 2.8 2.7 1.2 5.6 2 8 3.4.8.4 1.3-.7.6-1m-1 2.2c-2-1-5-2-7-2.6l-7-2.7c0-1-1 0 0 0 4 3 10 3 14 5h1c1 0 1-1 1-2m-64-530c-2-1-4 1-5 3-1 1-2 3-1 4 1 3 5 1 6-1 1-1 2-3 2-4s0-3-1-3"/>
  <path fill="#2d2738" d="M302.4 218.2c1.4 3.6 5 7 7.5 10 1 1.8 3 3.7 4 5.7 0 0 1 1 1 2l-2 2c1-1 2-2 2-4s-2-4-3-6l-6-7c-2-2-4-5-6-6 0-1-1 0-1 0m25 7c-2-1-4 1-5 3-2 1-2 3-2 4 1 3 5 1 7-1 1-1 2-3 2-4s-1-2-2-2"/>
  <path fill="#2d2738" d="M315.2 208.8c1.4 3.7 5 7 7.5 10 1.6 1.8 3 3.7 4.5 5.7.6 1 1.2 1.5 1 2.8-.4 1-1 1.5-1.6 2.4-.3.4 0 1 .6.6 1.4-1 2-2 2.3-3.8.3-1.7-2.2-4-3-5.2-1.8-2.3-3.8-4.4-5.6-6.5-2-2-4-4.5-6-6.2 0-.2-1 0-1 .2"/>
  <path fill="#2d2738" d="M315 208c-2.5 1.4-4.7 3.3-6.7 5-1.8 1.6-4.6 3-6 4.8-.2.3 0 1 .5.6 1.8-1.4 3.8-2.7 5.7-4 2.4-1.8 4.5-3.8 7-5.3.7 0 0-1-.6-1m1 3c-2 2-4 3-6 5s-4 3-6 5v1c4-2 8-6 12-9l-1-1"/>
  <path fill="#681a17" d="M555 808.6c2.5-7.8 0-20.2-7.2-25.4-7.6-5.6-19.5-5.2-27.4-.2-.4.2-.5.5-.6.8-8.3 4-15 12.2-22 18-6.7 5.8-13.3 11-21.3 15.2-5.3 2.8-14 4.2-16 10.8-1.4 4.4 5.6 8.2 8.5 9.4 6 2.6 13.7 2.6 20 2.2 6.7-.4 14-2.6 19.6-6.2 6-3.8 11.4-11 18.4-12.7 1 2.3 1.7 5 4.3 6 1.4.3 3.8-.8 5-1.2l9.8-3c3-.6 9-1.6 10-4.5v-3c-1-3-1-3.6 0-6.2"/>
  <path fill="#3c0f13" d="M555.3 807c-1.4.7-2.8 1.6-3.8 2-6.3 2.3-13 3.5-19.5 5.4-6.3 2-11.4 4-17 7.6-6.5 4-14 6.3-21.4 8.4-6.2 1.8-12.2 1.3-18.4 1.3-5.5 0-10-2-14.4-4.7 0 .3-.3.5-.3.8-1.4 4.4 5.6 8.2 8.5 9.4 6 2.6 13.7 2.6 20 2.2 6.7-.4 14-2.6 19.6-6.2 6-3.8 11.4-11 18.4-12.7 1 2.3 1.7 5 4.3 6 1.4.3 3.8-.8 5-1.2l9.8-3c3-.6 9-1.6 10-4.5v-3c-1-3-1-3.6 0-6.2l1-1.7m-53 4c0-1-1-1-2 0v1h2c1 0 2-2 1-2m5-7s-1 0-1 1l1 1 1 1c1-1 1-1 1-2s0-1-1-1m7-5c0-1-1-1-1-1-1 0-1 1-1 2s1 1 2 1l1-1v-1"/>
  <path fill="#e38162" d="M501.3 811.7c-2.2-2.6-7.6-6.8-11.3-4.4-.3.3-.3 1 .3 1 2.4-.3 4.2 0 6.2 1.3 1 .6 2 1.5 2.8 2.3.4 0 .7 0 1.3 1 .7 0 1.2-1 .7-2m6.7-6c-1.6-4-6.6-8-10.8-5-.4 0-.3 1 .2 1 2.2-1 4-1 6 0 1.7 0 2.5 2 3.3 3 .5 1 2 0 1.4-1m6-5v-1c0-2-2-4-4-5-1-1-4-2-6 0v1c4-1 8 1 9 4 1 1 2 1 2 0"/>
  <path fill="#3c0f13" d="M488 811.3c-.5-.2-1.3-.3-1.7 0-.5.2-.2.8.3.8.5 1 1 1 1.3 0m2 1h-1c-1 0-1 1-1 1 0 1 0 1 1 1m2 1s-1-1-2-1-1 1-1 1c0 1 1 1 1 1m2 1l-2-1c-1 0-1 1-1 1l1 1m2 2l-1-1c-1 0-1 1-1 1v1m2 2l-1-1c-1 0-1 1-1 1v1l1 1m0 1s-1 0-1 1v1h1l-1-1m2 2c-1 0-1 0-1 1l1 1s0-1-1-1m1 2v2h1s0-1-1-1m35-14h-1s-1 0-1 1v1c0 1 0 1 1 1v-2m1-3h-1c-1 1 0 1 0 2s0 1 0 0c1 0 1-1 1-1m1-3s-1 1-1 2h1c0-1 1-1 0-2m1-3l-1 2c0 1 1 1 1 0 1 0 1-1 1-1s-1-1-1 0m2-2c-1 0-1 1-1 1 0 1 1 1 1 0 0 0 1 0 0-1m2-2s-1 0-1 1 0 1 1 1l1-1s0-1-1-1m2-1l-1 1c0 1 0 1 1 1h1s0-1-1-1m3-1c-1 0-3 1-2 1s2 0 2-1c1 0 0 0 0 0m3-1c-1-1-2-1-2 0v1h1s1 0 1-1m1-2h-1v1h1v-1m-86 27v1s0 1 1 1 1 0 1-1-.3-1-1-1m3.5 2c0-1-1-1-2-1s-1 0-1 1c1 0 1 1 2 1s1-1 1-1m2 0l-1-1s-1 1 0 1h1s1-1 0-1m3 0l-1-1c-1 0-1 1 0 1 1 1 1 1 2 0v-1m3 1c0-1-1-1-1.6 0-1 0-1 0-.4 1h2c1-1 1-1 0-1m4 0h-1c-1 1-1 1 0 1 0 1 1 1 2 0v-1m3 0l-2 1v1c1 1 2 1 2 0v-1m4 0h-2v1c1 1 2 0 2 0 1 0 1-1 0-1m4-1c-1 0-2 0-2 1v1c1 0 2 0 2-1v-1m3-1l-1 1c0 1 0 1 1 1h1c1 0 1-1 0-1m3-1h-1c-1 0 0 1 1 1l1-1v-1m44-14h-2c0 1 0 2 1 1h1s0-1-1-1m3-1h-2v1c1 1 2 0 2 0 .3-.3 0-1 0-1m2.4-1h-1c0 .8 0 2 1 1.7 1-1 2-1 2-1 1-1 0-1 0-1m4-1h-1v1s1 0 1-1c1 0 0-1 0-1m3-1h-1c-1 0-1 2 0 2 0 0 1 0 1-1m2-1h-1s-1 .5 0 1c0 .4 1 .5 1 0v-1"/>
  <path fill="#681a17" d="M722.2 817c-4.5-1-9.4-1.2-14-2-6.8-1-12.5-3.2-17.7-7.7-4-3.6-6.3-9.3-9.7-13.6-3.7-4.6-7.6-7.8-12.8-10.7-8-4.5-15.5-3.5-24-1-.5 0-1 .8-1 1.5 0-1-2.4 1.5-2.5 1.6l-.4 1c-3 3-5 8-6 12-1 3 0 7 1 10 1 5 3 6 0 11 0 1 0 2 1 2 3 4 15 11 20 9 1 0 2 0 2-1 4-5 8 2 9 4 3 3 7 5 10 7 9 4 20 4 30 4 9 0 21 0 27-8 6-7 1-14-7-16"/>
  <path fill="#3c0f13" d="M717 834c-8.5 1.4-15.7 1-24.2 0-6-.6-16-3.7-33-10.8-9.3-3.8-23-7.6-26.7-18.3l1 2c1 5 3 6 0 11 0 0 0 1 1 2 3 4 15 11 20 8l2-2c4-6 8 2 9 3 3 3 7 5 10 6 9 3 20 3 30 3 9 0 21 0 26-8 2-3 3-5 3-8-4 4-9 7-15 8m-38-23v-1h-1s-1 1 0 1v1h1c1-1 1-1 1-2"/>
  <path fill="#3c0f13" d="M686.2 814.3c-1-.5-2 .3-2 1.3 0 .3 0 .6.2.7.2.4.6.6 1 .5h.7c1-.6 1-2 1-2.5m9 6.7v-.2l1-.8v-1c0-.3-1-.5-1-.5-1 .2-2 1.6-1 2.4h2"/>
  <path fill="#e38162" d="M688.4 804.6c-4 0-8 2.3-10.2 5.4-.3.5.3 1.2.8.8 1.4-1 2.5-2.2 4-3 1.6-1 3.5-1.7 5.4-1.7 1 0 1-1 0-1m6.2 5c-2 0-4 1-5.7 2-2 1-4 3-4 4-1 1 0 1 0 1 2-2 5-5 9-5h1l-1-1m6 3c-2 1-4 2-5 3-2 2-3 4-3 5v1l2-3c1-1 3-2 4-3s0-2-1-2"/>
  <path fill="#3c0f13" d="M648.3 805c-.2 0-.5-.2-.7 0-.3 0-.5.2-.5.6l1 .2v.2c0 .4 1 .7 1 .8 1 .2 1 0 1-.4V805m1 3l-1 1 1 2c1 0 1 0 1-.5 0-1 0-1.5-1-2m2 3.4c0-1-1 0-1 0l1 1h1c1-1 0-1 0-2m1 3h-1c0 1 0 1 1 2h1c1-1 0-2 0-2m-1 1c0-1-1 0-1 1 1 0 1 1 1 1 1 0 1 0 1-1 1-1 0-1 0-2"/>
  <path fill="#3c0f13" d="M654.4 819.5l-.3-.6c0-1-1-1-1 0 0 0 0 1 1 1s2 0 1-1m-20-18c0-1 0-1-1 0 0 0 1 2 2 2 1-1 0-2 0-2m4 4c0-1-1-2-1-2 0-1-1 0-1 0 0 1 1 2 2 2s1-1 1-1m3 2c0-1-1-2-1-2 0-1-1 0-1 1 1 0 1 1 2 1s1-1 1-1m3 2c0-1-1-1-1-1s-1 0 0 1c1 0 1 1 2 1v-1m1 1c1 1 2 2 2 1 1-1-1-2-1-2m4 3c0-1-1-1-1-1h-1v1s1 1 2 1 1 0 1-1m2 1c0-1-1 0 0 1h1c1-1 1-1 0-1m41 16h-1v1c0 1 2 1 2 0v-1m1-3h-1c-1 0-1 1-1 1s0 1 1 0c0 0 1-1 1-2m0-3s-1 0 0 0c-1 0-1 1 0 1 0 0 0 1 1 0v-1c0-1-1-1-1-1m2-3c-1 1 0 2 1 1 0-1 0-1-1-1m3-3c-1 0-1 1-2 1 0 1 1 1 2 0h1l1-1c0-1 0-1-1-1m2-2h-2c-1 1 0 2 0 1l1-1s0-1-1-1m2-2s-1 0-1 1c0 0 1 2 1 1 1-1 1-1 1-2v-1m2-2h-1c-1 0 0 2 1 1v-1s0-1-1-1m-8 15c0-1-1-1-2 0v1h2c1-1 1-1 0-1m4 0h-2c-1 0-1 1 0 1s1 1 2 0v-1m4 1c-1-1-2-1-3-1 0 0-1 0 0 1h3v-1m3 0h-2c-1 0-1 1 0 1h1s1 0 1-1c0 0 0-1-1 0m5 0h-3c-1 0-1 1 0 1h2v-1m4 0h-2c-1 0-1 1 0 1h2c1 0 1-1 0-1m3-1h-2c-1 0 0 1 0 1h1v-2m4-1c-1-1-2 0-2 0-1 1 0 2 0 2s2 0 2-1v-1m3-2h-2c-1 0 0 2 1 1 0 0 1 0 1-1v-1h-1m3-2h-1c-1 1 0 2 0 1 1-1 1-1 1-2m3-2h-1s0 1-1 1c0 1 1 1 1 1s1-1 1-2"/>
  <path fill="#225664" d="M685.3 793.5l-.2-.2v-.5c-7-7.2-14-16.6-19-25-3-5.8-7-11.4-11-17-3-5.6-6-11.7-9-17.5-12-22-24-44-34-66.8-11-24.2-22-49-30-74.6-4-14-10-28-15-42-2-5-3-15-8-19v-2c-3-2-8-2-11-3-6-2-12-2-19-3-14-2-28-4-42-4-7 0-13 0-20 1-4 0-8 0-12 1-6 2-2 15-1 20 0 1 0 2 1 2l3 17c3 14 5 29 8 44 6 29 12 58 19 87 7 26 15 54 26 78 2 5 4 11 7 16 2 3 7 3 10 4h15c6 0 11-3 17-4l1-1 1-1c1-1 1-1 1-2-1-8-5-15-7-23l-9-29c-5-20-8-40-13-60-4-19-9-38-12-57l-6-30-3-10c4 1 9 1 14 1 3 0 2-1 3 2s3 6 4 8c2 5 5 11 7 16 5 12 8 24 13 35 4 11 9 21 13 31l16 35c5 10 11 21 17 31 5 10 11 20 17 29 6 10 12 21 21 28 0 1 1 1 1 1 3 2 6 4 9 5 5 2 10 2 16 2 9 0 20-1 27-8 2-1 2-2 1-4"/>
  <path fill="#0d2022" d="M467 558.8c-1.4 5-2 10-4.7 14.7-1.7 2.6-3.6 4.7-5.8 6.4l.8 5c8.5-6 14.8-17 12.3-27-.3-2-2.2-1-2.5 0m111 24c0-2-1-4-2-6-2-1-5-1-8-3-4-3-11-9-13-14 0-2-2-2-3 0-1 5 9 13 12 16 4 3 10 5 15 5"/>
  <path fill="#15373d" d="M531.4 770.6c-2.8-8.7-6.8-16.8-9.7-25.5-2.7-8-4.5-16-7-25-2.7-8-5-17-7.4-25-2.2-8-4-16-6-25-2.4-9-4.5-17-6-26-1.6-8-2.7-17-4.7-26l-3.5-13-1-7c0-2-1-5-2-7h-1c0 4 2 8 3 11 1 5 3 9 4 13 2 9 4 18 5 27l6 27s4 18 7 26c2 9 4 17 7 26s5 18 7 27c3 9 7 17 10 26l5 13c2 4 3 7 4 11h2c-2-8-6-16-8-23m119 13l-15-24c-5-8-11-16-16-25-5-8-9-17-14-26-4-9-9-18-13-27-3-9-6-18-10-26l-6-14c-1-4-3-9-4-14l-9-27-4-10 8 27c3 9 5 19 9 28s8 18 11 27 7 17 11 26c9 17 18 35 29 52l16 24c6 8 11 16 17 23 2 3 5 6 7 9h2c-6-6-11-13-16-20"/>
  <path fill="#fff" d="M571 545c-.2-3.4-1.3-6.8-2.3-10-1.6-5-1.6-10.5-2.5-15.5-1.7-8.8-4.8-17.6-5.8-26.6s-2.4-18-3.8-27c-2.5-15-6.5-30-7-46-.2-3-.5-6-1-8 0-2 .4-5-.5-6-1-3-6-2-10-3-14-3-29-7-42-14l-10-7c-2-3-4-6-6-8-1-2-3-4-5-2l-1 1c-5 6-7 15-10 22-3 9-5 19-8 29-4 18-6 37-8 55-1 9-1 18-1 27 0 7 0 15 2 23 1 4 1 14 6 16 8 3 16 5 24 7 14 3 29 3 43 3 15 0 31-1 45-4 6-2 8-4 7-10"/>
  <path fill="#225664" d="M739 518.8c-2-4.7-5.3-8.8-7.5-13.4-2.3-5-4.3-11-7.5-15.5-.8-1-2.3-2-3.3-1-3.3 4-8.5 4-13.2 6-5.7 2-11.2 4-17 5-8.8 2-18.2 2-27 2h-.4c-4-1-8-2-13-3-9-3-16-6-23-12s-14-13-19-21c-9-14-16-30-23-46-2-6-4-7-9-5-4 1-12 3-15 6-2 0-4 1-6 3-1 1-2 2-1 4 2 3 4 7 5 10 2 6 5 11 7 17 4 9 9 18 14 27 10 19 26 33 44 44 18 10 40 11 60 9s40-10 58-19c1-1 1-2 1-3"/>
  <path fill="#15373d" d="M505.2 392.8c-3.3-3-6-6.6-9.3-9.7-6-5-14-9-20-15h-1c-1 0-2-1-2 0-9 12-18 25-23 39-7 19-13 38-17 57s-6 37-7 55c-1 14-2 30 1 44 0 1 1 2 1 2 10 3 20 4 31 5 5 1 10 1 15 1s10 2 16 1c0 0 1 0 2-1v-6c-1-5-1-11-2-16-1-10-3-21-3-31-2-21-2-42 1-63 1-9 3-18 5-28s7-18 10-27c0-1 0-3-1-4m90 164c-7-16-11-33-14-50-4-18-8-36-10-54l-3-26c-1-8 0-16-2-24 0 0-1-1-2-1-7-1-33-15-36-3 0 1 1 2 1 2-2 16-2 32-2 48 0 19 2 38 3 56 2 18 4 37 8 54 1 5 2 10 7 10 7 1 14 2 21 1 8-1 15-1 23-2 6-1 8-1 6-7"/>
  <path fill="#0d2022" d="M505.2 392.8c-3.3-3-6-6.6-9.3-9.7-5-4-10-7-15-10l-10 21-7 15c-1 3-3 7-3 10s1 3 3 5c1 1 8 6 6 8s-5 3-7 5c-3 2-5 3-5 6 0 5 1 10 1 15 0 22 8 44 14 65 3 12 6 23 10 35 2 6 3 11 5 17h1s1 0 2-1c0-2 0-4-1-6-1-5-1-11-1-16-1-11-3-21-3-32-2-21-2-41 1-62 1-9 3-18 5-28s7-18 10-27c0-1 0-3-1-4m23 6v2c-3 16-3 32-3 48 0 19 2 37 3 56 1 18 3 36 7 54 1 4 2 9 6 10v-13l3-40c1-13 3-26 6-39 2-6 3-12 3-18 0-4 1-9-2-11-2-1-5-2-7-5-1 0 3-1 4-2 3-1 5-2 5-5 1-4 0-8 0-12 0-5 1-11 0-16 0-2 0-5 1-7-10-4-28-11-30-1"/>
  <path fill="#3c0f13" d="M824.8 438.3c-2.5-2-5-2.7-8.2-2.7-.5 0-1 0-1.5.2-3-.4-7 2.4-7 5.4 0 4.5 9 5.5 12 6 6 .5 11-4.6 6-9m20 11.8c-2-3.6-6-7.5-10-4-2 1.6-2 4-1 6.2 1 1.6 2 3 4 3 2 1.3 3 2.7 5 3.5 2 .7 4 .3 5-1.4 1-2 0-5.4-1-7.3m-193-38.3c-1-3-2-7-2-10.2 0-1.5 1-5.6-1-6.6-2-2-5 0-7 0s-5 0-8 1v2c0 3 3 6 5 9 4 4 9 4 14 5 1 0 2-1 2-3"/>
  <path fill="#761825" d="M744.7 444.2c-1.3-4.5-4.5-8.4-9.5-8.7-7.7-.3-15.3 0-23 .6-17.3 2-34.4 2-51.8 2-17-1-34.4-1-51.2-4-15.2-2-31-1-46 2-11.2 2-22.5 10-22.2 22 0 1 0 1 .2 1l-.3 3c0 4 1 8 2 11 2 6 9 11 15 13 7 3 14 3 22 2 4-1 9-3 13-3 5-1 8 0 12 3 1 1 2 0 2-1 3-10 15-11 24-11 8 0 21 4 21 14 0 2 2 3 3 1 4-6 17 0 22 2 7 3 15 5 23 6 11 1 27-6 34-16s11-21 8-33"/>
  <path fill="#cb633c" d="M738 409c-6.6-4.2-15.3-5.6-23-6.6-8.6-1.2-17.8 3.2-26-1-1-.7-2.3 0-2.8 1.2-3.2 8-21.7 6.5-28.6 5.5H650c-2 0-13-2-7.6-7 1.8-1 3.7-1 5-3 .7 0 1-1 1-1 1.2-1 0-3-1.6-2-.6 0-1.3 0-1.7 1-3 1-7-1-10-2-4-2-8-4-12-5-8-2-19-1-27 2-17 6-33 17-45 30-5 6-9 14-10 22 0 7 2 17 8 21 8 5 15 5 24 5 5 0 10-2 15-2 3 0 6 0 8 1l6 3c2 1 3 0 3-2 1-9 16-14 23-15 6-1 12-1 18 1s11 9 8 15c0 1 1 4 2 3 9-4 21 3 29 6s17 4 25 3c7-1 15-4 21-8 4-3 6-5 8-9l6-13c4-7 7-12 8-20 0-7-6-13-11-16"/>
  <path fill="#3c0f13" d="M642 435c-1.2-1.5-3-2-5.5-1-.6.4-1 1.2-1 1.8v.8c0 .6.4 1.3 1 1.7l1 .4c-1 1.4-2.4 2-4.4 1.6-2 0-4-.4-6-.4s-5-1-7-2c-5-1-11-2-16 0-4 1-11 12-2 12 5 0 4-5 1-6 8-10 26 2 37-2 5-2 6-7 4-9"/>
  <path fill="#761825" d="M875 461c-4-4.2-9-6-15-4.6-4.8 1.2-7.3 3.4-9.7 7-6.4-10.4-21.6-14-32.3-17.3-3.3-1-6.6-1-10-2-2.2 0-5.8 0-7.8-1-4-2-5.4 6-6 10l-.3 1-1 1v4c0 1 2 2 3 3s3 6 2 8c-1 1 0 3 1 2 6 0 12 1 17 4 6 3 11 7 17 11s10 7 17 7c4 1 11 1 16-2 10-5 13-20 4-28"/>
  <path fill="#cb633c" d="M855.6 462.7c-4.8 3-5.4 4.3-6.2 9l-7-6c-2.3-1.8-5.3-2.7-7.8-4.2-6-3.4-9-4-15.3-6.6-5.7-3-17-4-23-4H794v2s0 1 1 1c0 0 0 1 .6 1 .7 1 2.3 1 3 2 1.6 1 3.4 6 2.6 8-.3 1 .6 2 1.7 2 6 0 12 1 17 4 6 3 11 7 17 10s10 6 17 7c5 0 12 0 16-2 11-6 11-15 2-24-4-4-15-4-17-3"/>
  <path fill="#3c0f13" d="M824.6 466.3c-1.5-2.2-4.5-2.4-6-.3-1 1.2-1.6 2.3-2 3.6-.5 1-1 3-1.3 3.7-.4.7-.2 1.3.2 1.7 0 .4 0 .8.5 1.2.7.6 2 1.6 3 1.2 1.6-.6 1.8-1.8 2.5-3.2 1-2 4.7-5.4 3-8"/>
  <path fill="#5b1d23" d="M817 468.5c-2.7-.5-4.3 1.3-5 3.7 0 .3-.2.5-.3.7-1.4 2-.5 6 .6 8 1.7 4 8.3 7 9.7 1 1-4 1-13-5-14"/>
  <path fill="#3c0f13" d="M843.8 475.6c-2-2-4.3.7-5 2.3-.6 1-1 2-1.3 3-.2 1-.5 2-.5 3s.6 1 1.2 1c.3 0 .8 1 1.5 1 1 0 2 0 2.8-1 1-1 1.4-2 1.8-4 .8-3 1.5-6-.5-8"/>
  <path fill="#5b1d23" d="M846.6 482.5c-.8-1.8-2.5-2.4-4.3-2.4-1.7 0-3.4 1-5 2-2.2 1-5 3-5.8 6-.8 2-.8 4 1 6 2.2 2 4.8 2 7.4 1 4-1 8-6 6-11"/>
  <path fill="#761825" d="M808.4 459c-2-6.4-3-7-9.3-8.4-4-1-9-2.6-13-3.5-4 0-9-1-13-2l-12-3c-5 0-10 0-15-1-5 0-10-2-11 4 0 1 1 2 1 2 1 3 1 5 2 8s2 8 3 11c3 4 10 4 13 1 4-3-1-11 7-11 7 0 13 1 19 2 4 1 9 3 13 3 5 0 11 1 16 3 2 0 3-1 3-2"/>
  <path fill="#ea8b6e" d="M640.5 415.7c-1.3-3.8-3.2-8-7-9.6-3.7-1-9 2-11.7 4-4 3-6.5 7-6.7 13 0 4 1 10 5 12h1c1 1 2 1 3 0 3-2 5-5 7-7 3-3 7-6 11-8 1 0 1-1 1-2"/>
  <path fill="#3c0f13" d="M606.4 404c-1-1-2.8-2.3-4.4-1.8-4.3 1.5-9.3 2.4-13.8 2.7-8.2 0-16.2 1-24.3 3-5 1-12 0-14 6-2 5 1 6 6 6 0 0 1 0 1-1 5-1 11-2 17-2 7 0 14 4 22 5 1 0 2-1 2-2-1-2-1-4 0-6 0-5 5-6 8-9v-2m209 43c-6-3-14-5-21-6-8-2-15-5-23-6-7-2-15-5-22-7-8-2-17-4-26-6-17-4-34-6-52-9-8-1-8-1-13 4-4 4-7 7-8 13 0 0-1 1 0 1 0 1 2 2 3 0 16 2 31 3 47 5 17 2 34 4 51 7 8 1 16 3 25 5 8 2 17 3 26 5 3 1 10 3 12-1s0-7-3-9"/>
  <path fill="#5b1d23" d="M815.8 454c-3.7-.4-7.5-1.5-11-2.3-4.5-1-9-1.5-13.2-2.5-4.5-1-9-1.8-13.6-2.5-5-.8-10-2-15-2.8-8.8-2-17.7-4-26.7-5-10-2-20.2-3-30.3-5-9.5-2-19.2-3-28.8-4-9-2-18-3-27.2-4-9.8-2-19.6-2-29.3-4l-14.2-3-6-1c-2.2 0-4.7 0-6.7-1h-.3c3 1 7 1 10.2 2 5.2 0 10.3 1 15.4 2 10 2 19 2 28 3l58 8c10 1 19 3 28 4 10 1 20 3 29 4 10 1 19 3 29 5l13 2c4 1 8 1 12 2h2c1 0 1-2 0-2"/>
  <path fill="#5b1d23" d="M816.6 453c-2-.3-4-1.2-5.8-1.8-1.7-.6-3.6-.8-5.3-1.4-4-1.5-8.6-2-12.8-3-9-2.3-18.4-4.4-27.7-6-9.5-1.8-19-3.4-28.7-5-9.5-1.4-19-4-28.4-5.4-10-1.4-19-2.2-28-3.3-10-1-20-3-30-4l-28-3-14-1h-16c-1 0-1 1-1 2 1 0 2 1 4 1s4 1 7 1c5 0 10 1 14 2 9 1 19 3 28 4 10 1 20 4 30 5 9 1 19 2 28 4l13 2c5 1 10 3 15 3 9 2 19 3 28 5l27 6 12 3c4 1 8 3 12 3 1 1 2-1 1-1"/>
  <path fill="#5b1d23" d="M816.8 452.2c-2.5-1.4-6-2-9-2.8-4.7-1-9.5-3-14.2-4.3l-26.8-6c-9.3-1-18.5-4-27.7-6-9-2-19-4-29-6-9-2-19-3-28-4l-28-3c-9-1-18-2-28-2-4 0-9-1-13-1s-9-1-13-1h-2c-1 0-1 2 0 2 3 1 8 1 11 2 5 1 9 1 14 1 4 0 9 1 13 1 5 0 10 1 15 1l15 1c5 1 10 2 14 2 10 1 20 3 30 5 20 4 39 8 58 13 9 3 18 4 27 6 8 2 16 5 25 8l1 1c1 0 2-1 1-2"/>
  <path fill="#5b1d23" d="M817.8 451h-.2v-.2h-.2c-2.5-1.5-5.6-2-8.2-3-4.5-1.5-9-2.8-13.6-4.4-8.8-3.3-18.2-5-27.2-7.8-8.8-2.6-17.7-4.8-26.8-6.5-9.3-1-18.6-3-28-5-18.7-4-37.6-6-56.5-9-9-1-18-1-27-3-8-1-17-1-26-2h-6c-1 0-1 2 0 2l26 3 28 3c11 1 21 3 31 5l27 5 28 6 14 3c5 1 9 3 13 4 5 1 9 3 14 4l15 4c4 1 8 3 12 4l7 3 3 1c1 0 2 1 3 1l1 1c1 1 2 0 2-1"/>
  <path fill="#5b1d23" d="M819 449.7c0-.5-.6-1-1-1.2l-6.3-2c-9-2.6-17.7-6-26.8-8.2-10-2.3-19-5.4-28-8-10-2.5-19-4.6-28-6.7-9-2-19-4-28-5-10-1-19-2.4-29-4.2-18-3.5-36-4.3-54-6.8-4-.4-8-1-11-1-2-.2-4-.2-6-.6-1-.2-1-.3-2-.2-1 0-1 1.3 0 1.4l2 .6c1 .6 3 .4 5 .5 5 .2 9 1 14 1.5s9 1.3 14 1.7c5 .4 10 1.4 14 1.6 8 1 17 3 25 4 5 1 10 2 14 2 4 1 9 1 14 2 10 1 20 4 29 6l28 7c9 3 18 6 27 8l26 9 2 1v1c-1 1-1 3-2 4s0 2 1 2c1-1 1-3 1-5"/>
  <path fill="#761825" d="M859.2 470.6c.4-1 1-1.5 1.8-2 0 .4.4.6.8.7.4 0 .7.2 1 .6 3.6 2-6 6-3.6 0zm8.5-2.7c-3-2-6.5-3-9 0-2 2-3 6-.2 7 5.7 3 8-5 5.6-7h2c4 2 3 7 1 10s-9 1-12 0c-2-2-4-6-4-8 0-1-1-1-1 0-1 8 8 12 15 11s10-11 5-15"/>
  <path fill="#f8df97" d="M795.4 455.6c-3-4.2-7.7-8-11.8-5-.4-.5-.8-1-1.5-1.4-1-.5-2-.5-3-.2-3-4.6-14-8-20-6.6-1-2.5 0-6.7-3-8-3-1.2-6-1.5-9 .5-2 1-1 6 0 9 1 6 3 12 5 18 2 5-3 10-5 14-3 5-7 9-11 14-3 4 1 16 6 17h1c9-8 25-18 30-20l8-4c4-2 10-4 13-7 7-6 9-16 4-23"/>
  <path fill="#de9f4f" d="M761.2 447.7c-.4-1.5-1-2.7-1.2-4.2 0-.5 0-1-.2-1.3-.3 0-.7 0-1 .2v-.4 3.4c.6 2.7 2 5.5 3 8 2.7 6.8 3.5 13-.7 19.4 0 .7 1 1.3 2 .8 5-3.8 5-11.4 3-16.5-1-3-3-6-3-9"/>
  <path fill="#de9f4f" d="M768.6 455.8c-1.3-3.2-4-6.2-7.3-7.3-.4-.2-.7.4-.4.6 2 3 4 4 5 7 2 5-1 8-2 12-1 1 0 1 1 1 2-3 4-8 2-12m13-4c-1-1-2-3-3-3s-1 1 0 1c1 1 2 5 2 6v6c0 3-2 6-3 8-2 3-4 4-6 6-1 1 0 1 0 1 6-2 9-8 10-14 0-3 0-5-1-8m7 4c-1-1-1-2-2-3-1 0-3-2-3-2h-1v2l2 2c1 2 2 5 3 7 0 3 0 6-1 9s-4 4-6 6c-1 1 0 2 0 2 5-2 8-7 9-12 0-3-1-6-2-8"/>
  <path fill="#e38162" d="M812 310.7h-.8c-.7.2-1 .8-1.2 1.5-1.2 1-3 1.6-4.4 2.2-2.5 1.4-4.8 2.8-7.5 3.8-1 .5-3 1.4-4 2.3-13 6.2-26 14.2-39 21.4-13 7-27 15-41 22-27 14-53 31-79 46-27 16-53 32-80 49-13 8-26 17-39 26l-19 13-8 6c-1 1-5 4-6 4-2 0-2 3 0 3 4 0 9-5 12-7 6-5 12-9 18-13 13-9 26-17 39-26 27-19 54-35 82-52 27-16 54-33 81-48l42-23 19-11c7-4 14-7 21-11 3-1 6-3 8-4s5-3 7-4 4-2 5-4c1-1 0-3-1-3"/>
  <path fill="#761825" d="M812.2 311.5c0-1-.5-2-1.7-2-5.2 0-10.6.3-15.7-.5-3.7-.6-6.2 0-8.6 1-.5-.2-1-.3-1.5 0-13.6 6-26 14-39 21.3-13.8 7.6-27.5 15.4-41.4 22.8-27 15-52.8 32-79.2 47-27 16-53 33-80 50-13 9-26 17-39 26l-18 13-4 4v1l-1 1-2 2c0 1 0 1-1 1-1 2-3 3-5 4 0 0-1 0-1 1-2 2-6 4-5 8 1 2 2 6 5 5 3 0 6-2 9-4 1 3 3 6 5 4 1 0 1-1 1-2 0 0 0-1-1-1 0-1-1-3-1-4h1l7-5c5-4 11-8 17-12 13-9 27-17 39-26 27-18 54-35 82-51 27-16 54-33 81-48 14-7 28-15 42-23 6-3 12-7 19-11s14-7 21-11c5-1 9-2 14-2 3 0 6 0 8-1v-2"/>
  <path fill="#f8df97" d="M527.8 478.3c4.3.7 11.7-3.6 6.5-8-1.5-1.2-3.4-1.6-5-3-2.2-1.8-3.8-3.7-6.3-5.2-4-2-7.6-4-12.3-3-4.4 1-9.8 4-13.7 6l-7 3c-2.4 0-5 1-7.4 1-6.2 2-11.6 5-17.8 6-6.2 2-12.2 3-18 5-.6 0-1.2 0-1.5 1h-.2c0 1-1 1 0 2v1c0 1 0 3-1 4 0 4 0 8 2 11 1 2 3 1 3 0 6 0 13-2 19-4 2 0 4-2 5 0s3 3 5 3c4 1 7 2 11 2 2 0 6-1 6 2 0 4-2 10 2 12s6-1 7-4c0 0 2-7 4-5s3 4 5 6c3 3 6 3 9 0h1c4 4 10 5 12-2 2-5-2-10-4-15s-8-10-12-15c6-4 10 3 15 3"/>
  <path fill="#de9f4f" d="M504 493c-3-5.2-10.6-4.6-15.7-6.8-.5-.2-1 .3-.6.8 1 1 2.5 1.2 4 1.5 3 .8 6 2 8.7 3.3 5.5 2.3 1.6 9.6.8 13.2 0 .3 0 .6.2.8.8-2 2-5 3-4 1-3 1.4-6-.3-8.7m18 16c-2-1-2-4-3-7-1-4-2-8-4-12-2-3-3-4-7-5l-11-3s-1 1 0 1c2 2 6 2 9 3 2 1 5 2 6 3 2 2 4 5 5 8l3 12 1 2c2 2 3 3 5 3 0 0-1-1-2-1m-8-33h1l-1-1 2-1h-2c-1 0-11 0-11-1h-1v1c3 1 6 1 9 2h4"/>
  <path fill="#fff" d="M464 499c-2.7-8.3 1-17.5-.8-25.8 0-.5-.6-1-1-1-4.2-1-9.2.8-13.2 1.7-.6 0-1 0-1 1-1.5 8-1.3 17-.7 25 .5 7 12.6 3 16 0 .7-1 1-2 .8-2"/>
  <path fill="#225664" d="M466 377.6c-4.6-2.2-10.4 1-15 2.6-8.3 3-16.2 7.8-23.8 12.5-14.7 9-27 20.7-39 32.8-5.8 5.7-11.5 12.6-15 20-4 7.7-8.7 14.3-9 23.3-.8 15.8 11.2 27.7 24 34.5 13.8 7.4 27.4 8.7 42.6 8 11.2-.3 25-2.6 25-2.6s0-10-.5-14.7c-.3-3.8-.8-8.2-.3-12 .4-2.7 1-5.8.8-8.6-.3-5.3-11-.5-13 0-9 2.3-26.7 5.7-33-3.4-7-10.3-.6-20.3 7.2-28 10.3-10 21.8-19 33-27.7 5-4 7.5-11 10-16.4 2.5-6 5-12 8-18 .8-2-.6-3-2-3"/>
  <path fill="#7a1328" d="M477.7 507.2h-.3c-1.5-.3-2-2-2.5-3.3l-1-1-1-1c-1-1-1-1-1-2s0-2 1-2 1 0 1 1v-1s1 0 1 1l1 2c1 1-1 2-2 2"/>
  <path fill="#f0441d" d="M678.2 275c1-9-2-21-12.3-23-1 0 0-2.5 0-3.7v-7c-1-5.5-3-13-7-17.4-8-11-17-19-31-19-3 0-6 0-9 1-4 0-2 1-3-3-2-7-6-11-11-16-9-10-23-14-35-15-6-1-13 0-19 3-2 1-5 2-7 3 0 0-1 1-1 2-9-7-20-9-31-7-12 2-26 7-33 17-2 2-3 4-4 6-1 1 0 3-2 4-6 1-13 5-17 9-5 4-9 8-11 14-2 5-1 10 1 15-6 2-11 6-13 12-3 6-4 14 1 20 2 3 2 4 0 7-2 2-1 6 0 9 0 2 2 5 4 7l3 1h4c1 0 2 0 2-1h1s2 1 2 0c8 0 18 2 25-4 4-3 6-8 9-11 5-4 10-7 15-11 4-3 8-5 12-8 5-3 7-7 14-8s12 1 18 4c4 2 10 3 14 5 10 4 20 9 31 12 5 1 10 2 15 4 7 2 11 6 14 13 4 10 8 24 4 35-2 5-1 10-2 15l-3 9c-1 1-2 2-2 3s0 2 2 3c8 0 18-5 23-10 7-7 15-18 14-29 9-4 15-12 16-22 0-6-1-11-4-16-1-2 1-3 2-5 1-3 2-6 2-8"/>
  <path fill="#ab3c1f" d="M482.4 263.3c-2 4-3.2 7.8-6 11.2-3.2 3.5-7 6-11.5 7.3-1 0-1 1 0 1 4 1.3 9-3 12-5.7 3-3 7-8 7-13 0 0-2-1-2 0"/>
  <path fill="#ab3c1f" d="M477 265.5c-1.3 2-2 4.2-3.4 6-1.2 1.5-3 2.8-4 4.4 0 0 .2 1 .8 0 2.2-1 3.6-3 5.2-4 1.5-2 3.3-5 3-7 0-1-1.2-2-1.7-1m28-20c-2 4-3 8-7 11-2 1-4 2-6 2h-3c-1 0-1 1 0 1 3 1 7-1 10-2 5-3 7-8 7-13 0-1-2-1-2 0m-61 32c-2 2-3 4-3 7 0 2 0 4 2 5l1-1c-1-1-1-3-1-4-1-3 1-4 2-6 0-1-1-2-2-2m6-32c-7 4-15 17-9 25 0 0 1 0 1-1 0-4-1-7 0-11 1-5 5-8 8-12 1-1 0-2-1-2m3 7c-4 1-8 7-5 11 0 0 1 0 1-1-1-2 0-4 1-5 1-2 2-3 3-5 0-1-1-2-2-1m6-5c-1 0-3 0-3 2v1h1l1-1 1-1c1-1 0-2-1-2m23-40c-8 1-15 5-20 11-3 4-8 16-3 20 0 0 1 0 1-1-2-7 1-15 5-20s10-6 16-9c1-1 0-3-1-3m-1 12c-4 1-12 6-10 11 0 1 1 1 1 0 1-2 2-4 4-6l5-4c1-1 0-2-1-2m6-4c-1 0-2 0-2 1-1 1 0 2 1 1 0 0 1 0 1-1s0-1-1-2m50 30c-4 1-7 2-11 2-3 0-7-1-10-3-1 0-2 1-1 2 6 4 14 6 21 2 0-1 0-2-1-2m7-3c-1 0-1 1-2 1l-1 1c-1 1 0 2 1 2h2l1-1c0-1-1-2-1-1m61 8c-17 2-32 2-45-11-1-1-2 0-1 1 10 14 30 17 46 13 1-1 1-3-1-3m-9-8c-5-1-10 1-14-2-1-1-2 1-1 1 2 1 3 2 6 3 3 0 6 0 8-1 1-1 1-2 0-3m5-2h-1c-1 0-1 2 0 2h1c2 0 2-2 0-2m39 33c-5-2-9-3-13-6-5-2-9-8-9-14 0-1-2-1-2 0-1 6 3 11 6 14 5 5 11 8 17 8 2 0 2-2 1-2"/>
  <path fill="#ab3c1f" d="M629 263c-2.6-1-5-2-6.5-4.3-.7-1-2.2-.2-1.6 1 1 3 4 5 7 5.3 1 0 1-1.5 0-2m13 19.3c-1 1.2-2 3.3-2 5 0 .5 1 .5 1 0v-4c0-1-1-1.7-2-1m6 28c-2-2.7-4-5-5-7.8-1-2.3-1-5.3-1-7.7 0-1-2-1.2-2-.3-2 6 0 13.4 5 17.2 1 .8 2-.2 2-1.5m4 7v.2-.2m-2 8.3c-4 .7-5 5.2-6 8.5v6.3c0 4.4-2 7.3-4 10.7-1 1 0 1.6 1 1.3 11-4.6 2-19 9-25.5 1-.5 0-1.4-1-1.3m3 10c0-1.3-2-1-2 0 0 1.8-1 3.3-1 5 0 1 1 1.4 2 .7 1-1.6 1-4 1-5.8M541 186c-8-7-19-7-28-4-8.6 2.3-20 9.6-20 19 0 1 1 1 1.3.3 4-9.2 12-14.7 21-17.3 4-1 8-1 12-1 5 0 9 2.8 13 4.8 1 .6 3-.8 2-1.7"/>
  <path fill="#ab3c1f" d="M530 188.7c-8-6-22.7-.3-26.8 8-.4 1 1 1.7 1.5.8 2.6-3.8 6.4-6 10.8-7.3 5-1.3 9 0 14 .3 1 .2 1-1.2.4-1.8m8 1.5c-1-.5-1-.5-2-.5l-2-.3c-2-.4-2 1.6-1 2 1 .4 2 1 3 0v-1.2m48-4.7c-6-3.7-14-5.2-21-4-4 1-13 2-15 6.6 0 1 1 2 1 1 3-3 11-4 16-4 6 0 12 2 18 4 1 1 2-1 1-2m15 9c-2-2-5-4-8-5-1 0-1 1-1 1 0 1 2 2 3 3s2 3 4 3c0 1 2 0 1-1m6 7c-1-1-2 0-2 1l1 4c0 2 0 3 1 4 0 1 1 1 2 0 0-3-1-6-3-8m-14 0c-4-7-19-13-27-9-1 1 0 2 0 2 10-1 17 3 24 9 1 1 3 0 2-1m4 4s0-1-1-1-1 1-1 1v2c1 1 3 0 2-1m51 17c-5-3-9-6-14-6-3 0-7-1-10 1-1 1 0 2 1 2 7-1 15 3 21 7 6 6 8 13 8 21 0 1 2 2 2 0 3-8-2-19-9-24"/>
  <path fill="#ab3c1f" d="M650.4 233.4c-.2-.7-.8-1-1.6-1-.6.3-1.2 1-1 1.7.5 2 .8 3 1.5 4 .3 1 .7 1 1.2 1 .4 0 .8 0 .8-1-.2-1-.4-2-1-3m-7.7-7c-1.5-2-3.8-2-6.2-3-1.3 0-4-1-4.6 1-.2 0 .2 1 .6 1h1.5l2 1c2 0 3 1 5 2 1 1 2 0 1-1m29 41c-1-4-3-9-8-9-1 0-1 1-1 2 3 1 4 5 5 8 1 5-1 9-3 13-1 1 1 3 2 2 3-4 4-10 3-15"/>
  <path fill="#ab3c1f" d="M666.8 269.8c-.5-2-2-3.7-3.5-5.2-.6-.7-2 .2-1.3 1 1 1.5 2 3 2.5 4.8.5 1.7 0 3.7-.2 5.4 0 1.3 1.8 1.4 2.2.3.6-2 1-4 .3-6m3.2 24c-.8 0-2 0-1.5 1 2 4 1.2 9 .2 13-1 5-3.8 7-7 10-1 1 0 3 1 2 9-3 12.8-17 7.2-25"/>
  <path fill="#ab3c1f" d="M665.8 307c0-1-1.5-1-1.6 0-.3 1.6-1 3-2 4.6-.6 1 .8 2 1.7 1.2 0-.8 1-1.7 1-3v-3m-197-39.3l-4 3.3c-2 1.2-3 1.8-5 2.3-1 1-1 2 0 2 4 1 8-2 10-6 0-1-1-2-2-1m24-18l-2 1c-1 1-1 1-2 1s-1 2 0 2h2s1-1 2-1c0 0-1-2-2-1m42-16c-5 2-9 3-14 2-1 0-1 1 0 2 5 2 11 2 16-2 1-1-1-2-2-2"/>
  <path fill="#f8df97" d="M644.4 319c-8-7-11.6-22-9.5-32 0-2.8 2-6-1-7.5-7-3.2-13-4.3-19-9.8-3-2.2-5-4.8-7-7-2-1.8-2-3.6-4-4.6-2 0-4 1-5 1-4 1-8 1-11 1-9 0-16-2-24-6l-9-5c-2-1-4-3-6-5h-2c-6 3-10 5-16 6-8 1-15 1-22-3-1 0-3 0-3 2 0 4-2 7-4 11-4 7-10 9-17 7-1 0-2 1-3 2-2 7-5 11-10 15s-9 4-14 4c-2-4-6-5-10-4-5 2-7 9-8 13-3 11-4 25 10 27l-1 7c-1 5 0 12 1 17 1 7 1 13 3 20 1 6 5 12 8 17 12 21 35 36 59 39 12 2 24 1 36-1 13-2 25-9 36-16 2-1 4-4 6-6l6-6c5-5 10-11 14-16s6-12 9-18l3-8c0-1 0-3 1-5 1 0 2-1 1-2-3-7 1-12 4-18 0-1 0-2-1-2"/>
  <path fill="#de9f4f" d="M553 383.6c-5.7 3.2-11 6-17.6 6.2-7.7.2-16.5-4.8-22-9.7-5.4-5-8.8-10-10.6-17-1.4-6-1-11-1.2-17h.8c1.4 0 3 0 4.3 1 1.6 1 2.3 2 3.6 3 .8 1 1.8 0 2 0 1.4-5-6.4-6-10-6-5.5 0-11.3 3-12.6 9-.4 2 2 3 3 2 1.7-2 3.3-4 5.5-5-1.3 7-.3 13 1.2 20 1.8 8 6.8 14 12.7 19 11 11 32 14 43 2 2-1 0-3-2-2m14-48s0-1-1-1c-1 1-1 2-2 3-1 3 0 7-1 10-1 4-4 6-8 6-3 0-5-3-7-5-1-1-3 0-2 2 1 8 11 9 16 7 4-2 5-5 6-8 1-4 0-8 1-12"/>
  <path fill="#f0441d" d="M545.5 259.2c-.7-3.4-4.7-3.7-7.5-3.8-5.3-.2-12 0-17.2 1.6-2.5.8-8.3.5-9 4.2-.5 2-.5 4.6.5 6.6 1 6 9.6 7.5 15.8 6.5 5-.7 12-.2 16-3.7 4-3.6 3-6.8 2-11.4m86 44c-3-4.4-8-9-12-12.3-2-2-5-5-8-2-3 2-6 4-6 9 1 5 7 9 10 13 5 4 12 9 17 5 2-1 4-3 5-5 2-4-2-7-4-9"/>
  <path fill="#341d14" d="M515.2 292.4c-5-2-12.7-4-17.6-1-1 .4-1 1.8 0 2.3 1 .5 1.5.4 2.6.4 3.3 0 6.3 0 9.5 1 3 1 6.5 2 8.7 4 1.8 2 2.5 5 4.2 7 1.2 2 3 0 2.7-1-1-5-5-9-10-11"/>
  <path fill="#311916" d="M508 290.6c-2.4-.5-8.7-.2-8 3.6v.4c-.8 2.2-.2 4 1.2 5.6 1.6 2 4.5 2 6.8 2.2 2.5 0 4.4-.8 5.8-2.8 3-4.3-2-8.2-5.7-9"/>
  <path fill="#341d14" d="M610.8 341c-5-2-12.7-4-17.6-1.2-1 .6-1 2 0 2.4 1 .5 1.5.4 2.6.4 3.3 0 6.3 0 9.5.7 3 .8 6.5 2 8.7 4.2 1.8 1.8 2.5 4.3 4.2 6.2 1.2 1.3 3 0 2.7-1.5-1-5.6-6-9.4-11-11.3"/>
  <path fill="#311916" d="M603.7 339.2c-2.5-.6-9-.3-8 3.6l-.2.4c-.8 2.2 0 4 1.3 5.6 1.6 1.8 4.5 2 6.8 2.2 2.4 0 4.4-.8 5.8-2.8 3-4.3-2-8.2-5.7-9"/>
  <path fill="#f5ab7f" d="M597 361.8c-8-2-17 2.7-17.8 11v2.7c.4 4.5 2.8 9.2 6 11.3 6.2 4.4 19.4 4.7 22.4-4.3 3.3-9.8 0-18.3-10.5-20.7M485 314c-8.2-2-17 2.7-18 11v2.7c.4 4.5 3 9.2 6 11.3 6.2 4.4 19.4 4.7 22.4-4.3 3.4-9.8 0-18.3-10.3-20.7"/>
  <path fill="#7c6362" d="M481 327.6c-1.8 0-1.8 2.7 0 2.7 1.7 0 1.7-2.7 0-2.7m1 7.2c-1.2 0-1.6 2-.6 2.4.4.4 1 .4 1.4 0 1-.5.6-2.4-.7-2.4m11-4c-1 0-1 2.2 0 2.2 2 0 2-2.3 0-2.3m-9-10.7v-.4c-1-.3-1 .4-1 1 0 .2 1 .4 1 .5 1 2 3 0 2-1m-11 6c-1 0-1 2 0 2s1-2 0-2m2 7l-1 1v1l1 1c2 0 2-2 0-2m-9-15h-2c0 1 0 2 1 2s2-1 1-1m31 5c-1 0-1 3 0 3s2-2 0-2m-37-27s-1 0-1 1 1 1 1 1v1c1 0 1-2 0-2m960 688c-1 0-1 2 0 2s2-2 0-2m12-32c-1 0-1 2 0 2s1-1 0-1m13 8c-1 0-1 2 0 2s1-1 0-1m-3 13c-1 0-1 2 0 2s1-2 0-2m-29 9c-1 0-1 0-1 1s1 1 2 1h1c1 0 1-1 0-1m121 32c1 1 0 4-1 2-1-1 0-3 2-2m-5 5c1 1 0 3-1 3 0 0-1 0-1-1s1-2 2-1m-5-10c1 1 0 3-2 2s1-3 2-2m14-3h1c1 1 1 2 1 2-1 1-2-2 0-1m5 11c1 1 0 2-1 1s1-2 2-1m-6 4l1 1v1h-1c-1 0 1-2 2-1m17-5c1 0 2 1 2 1 0 1-1 2-1 1-1 0-1-1 0-2m-27-15c1 1 0 3-1 2-2-1 0-3 1-2m45 2c1 0 2 1 1 2s-1 1-2 0V2v.3c0-.8 1-1.8 1-1.4m1164 778c1 1 0 2-1 1s1-3 2-2m11-33c1 0 0 2-1 1s0-2 1-1m-15-2c1 0 0 2-1 1s0-2 1-2m-5 12c1 1 0 2-1 1s0-3 1-2m17 25c1 0 1 1 1 2h-1c0-1 0-2 1-1"/>
  <path fill="#fff" d="M504 293c-.7 0-1.3.6-1.5 1.3l-.2.6s.3 1 .8 1c1 0 3 0 3-1s0-2-1-2m2 5c0-1 0-1-1-1h-1v1h2v-1m3-4v1c1 0 1-1 0-1m91 46c-1 0-1 0-1 1s0 1 1 2c1 0 3 0 3-1s0-2-1-2m2 5c0-1 0-1-1-1h-1v1h2m3-4c-1 0-1 1 0 1s1-1 0-1m136 172c-5-7-5-17-11-23 0-1-1-1-2-1s-2 1-4 2l-2 1c3 4 5 9 7 13s5 8 7 12c3-1 5-3 6-4 0-1 0-2-1-3"/>
  <path fill="#0d2022" d="M429.5 501c0-5.3-7.4-6.7-10.5-3.4-1.8 2-2 5-.5 7 .3.6.7 1.2 1.3 1.7 2 1.3 4.5 1.4 6.5.4 2.3-1 3.2-3.3 3.2-5.8"/>
  <path fill="#15373d" d="M424.7 497.8c-.7-.2-1.4 0-2 0-1.5 0-2.4 1.3-2.8 2.6-1 1.4 0 3 1 4 2 2 6 0 6-3.4 0-1.6-1-2.8-3-3.2"/>
  <path fill="#0d2022" d="M422.6 499.6c-1 0-1 1.6 0 1.6s1-1.6 0-1.6m2 0c-1 0-1 1.5 0 1.5s1-1 0-1m-2 3c-1 0-1 2 0 2 1.3 0 1.3-1 0-1m2 0c-1 0-1 2 0 2s1-2 0-2m19.8-2c0-5-7.4-6-10.6-3-1.7 2-2 5-.5 7 .3 1 .8 1 1.4 2 1.8 1 4.5 2 6.5 1 2.3-1 3.2-3 3.2-6"/>
  <path fill="#15373d" d="M440.2 496.5c-1.2-.4-2.5 0-3.7.4h-.6l-1 1c-1 0-1 1-1 2v1c2 3 6 1 7-2 0-2-1-4-2-4"/>
  <path fill="#0d2022" d="M438 499.4c-.3-.6-1.2-.6-1.4.2-.2.8.8 1.3 1.4.8.3-.3.3-.7 0-1m1.3-1c-1 0-1 1.7 0 1.7s1-1 0-1m-1.6 3c-1 0-1 2 0 2s1-1 0-1m1.8 0c-1 0-1 2 0 2s1-1 0-1m270.3 5c-1.4-5-8.8-4-11 0-1.3 2-.6 6 1.2 7 .5 1 1 1 1.7 1 2.2 1 4.7 1 6.5-1 2-2 2.2-4 1.6-6"/>
  <path fill="#15373d" d="M704.4 503.7c-.8 0-1.4.3-2 .7-1.4.3-2 1.8-2 3 0 1.6 1 3 2.2 3.6 3 1.3 6.2-1.7 5.2-4.8-.5-1.5-2-2.4-3.4-2.5"/>
  <path fill="#0d2022" d="M702.8 506c-1 .3-.6 2 .4 1.6 1-.2.6-1.8-.4-1.6m2-.6c-1 .3-.6 2 .4 1.6 1-.3.6-1.8-.4-1.6m-1.3 3c-1 0-.7 2 .4 1.6 1-.3 0-2-1-1.7m2-.5c-1 .3-1 2 0 1.7 1-.3 0-2-1-1.7m18-7.2c-2-5-9-4.5-11-.5-2 3-1 6 1 7 0 1 1 1 1 2 2 1 4 1 6-1 2-1 2-4 1-6"/>
  <path fill="#15373d" d="M719 498.7c-1.2 0-2.4.5-3.4 1.3-.2 0-.3.3-.5.5v3.5l1 1c3 2.2 7 0 7-3.6 0-1.7-1-3.2-3-3.3"/>
  <path fill="#0d2022" d="M717.8 502c-.6-.5-1.4-.2-1.5.5 0 1 1 1.2 1.6.5 0-.4 0-.8-1-1m1-1.2c-1 .3-1 2 0 1.6 1-.3 0-2-1-1.6m-1 2.8c-1 .2-1 2 0 1.6 1-.2 0-2-1-1.6m2-1c-1 .4-1 2 0 1.8 1-.3 0-2-1-1.7"/>
  <path fill="#d1ece1" d="M434.2 606.8c-6.3 0-6.3 9.7 0 9.7 6.2 0 6.2-9.7 0-9.7M281.4 324c0-.8-.2-1.6-.5-2.3-1-3-4-5.2-8-5.2s-8 3.5-8 7.5c0 5 3 8 7 8 3 0 6-2 7-5v-2m270-201c-7 0-7 10 0 10s6-10 0-10m155 152c-2-1-3-1-4 0-2 1-2 2.6-2 4 0 1.8 2 3 3 3 2 0 3-1.2 4-3s0-3.3-2-4.2M785 381c-5 0-5 8 0 8s5-8 0-8m6.2 286.3h-.8c-.6-.3-1.3-.5-2-.5-1.2 0-2.4.4-3.4 1-2 1.2-3.4 3.4-3.4 5.8s1.3 4.7 3.4 6c1 .5 2.2.8 3.4.8.7 0 1.4 0 2-.3h.8c2.8 0 4.8-3 4.8-6s-2-5-4.8-6m-355.7 83c-6.2 0-6.2 10 0 10s6.2-9 0-9m-10-56c-5 0-5 8 0 8s5-7 0-7m-251-58v1M327 719l-1-1.3-1.4-1c-1-.7-2-1-3.3-1-1.2 0-2.3.3-3.2 1 0 .2-1 .6-1 1-1 1.2-2 3-2 4.6 0 3.6 3 6.5 7 6.5s7-3 7-6.5c0-1.2 0-2.3-1-3.3m-8 128.6c-4 0-7 3.4-7 7.4s4 7.5 8 7.5 8-3.4 8-7.5c0-4-3-7.4-7-7.4m-167-219c-6 0-6 10.5 0 10.5s7-10 0-10m-31 325v-2c0-1-1-1-2-1-2-1-5 1-6 3v4s2 3 3 3c2 1 4 0 5-1l1-2c1 0 1-1 1-1m658 418c-7 0-7 11 0 11s7-11 0-11m135 190c-7 0-7 12 0 12s8-11 0-11M572 747c-1.5-1-4 0-5 1.5-1 1.4-.5 4 1.4 5h1c2 1 3 .7 4 0 3-1 3-5 0-7m221 91c-5 0-5 9 0 9s6-8 0-8m53-471c-5 0-5 8 0 8s6-8 0-8m-11 37c-4 0-4 8 0 8s5-7.7 0-7.7m27 240c0-1-1-1-2-1h-1c-1 0-3 2-3 3.7 0 1.6 2 3.5 4 3.3h1l2-1c1-1 1-1.7 1-2.6 0-1 0-2-1-2M419 165c-5.4 0-5.4 8.4 0 8.4 5.5 0 5.5-8.4 0-8.4m203.6-51.4c-4.6 0-4.6 7.2 0 7.2s4.6-7.2 0-7.2M402 359c-4.8 0-4.8 7.5 0 7.5 5 0 5-7.5 0-7.5m-446.8-2.4c-5 0-5 7.7 0 7.7s5-7.7 0-7.7m509 266.2c-.4-1.2-2-2-3-2s-2.6.8-3 2c-.4.6-.6 1-.6 1.8 0 .4 0 .8.2 1.2v.6c.8 3.3 6 3.3 6.7 0v-1c.2-1 0-1.7-.4-2.7m94 66c-5 0-5 8.3 0 8.3s5-8.3 0-8.3m-13-109.4c-1-1.2-3-1.2-4 0 0 .7-1 1.7-1 3 0 .8 0 1.5 1 2.2l2 1c1 0 1 0 1-.2 2-.2 4-1.3 4-3 0-1.6-1-2.5-2-3m34 62c-3 0-3 5.6 0 5.6s4-6 0-6m66 441c-1-1-4 0-4 2s3 3 4 2l1-1c2-1 2-4 0-4m-249-58c-3 0-3 5 0 5 4 0 4-6 0-6m90-50c-4 0-4 6 0 6s4-6 0-6m110 205c-3 0-3 5 0 5 4 0 4-6 0-6m208-198l-1-1c-1 0-2 0-3 1 0 1 0 3 1 3 1 1 3 1 4 0s2-2 2-3-1-2-3-2m231-490c-4 0-4 7 0 7s4-6 0-6m639 495h-2c-1 0-2 1-2 1-1 1-1 2-1 2v1c-1 2 1 3 3 3 1 0 2-1 3-2s0-3-2-4M698 741c-4.4 0-4.4 7 0 7 4.5 0 4.5-7 0-7m82-228.4c-4 0-4 5.7 0 5.7s3.6-5.6 0-5.6"/>
  <path fill="#6bcdc2" d="M981.4 1906v-1 1m1 3v-.2m0 0v-.3.2m-.7-1.7l.6 1.5-.6-1.5"/>
</svg>
