<svg xmlns="http://www.w3.org/2000/svg" width="200" height="150" viewBox="0 0 539 500"><defs><clipPath id="a"><path d="M4379.39 4305.35c82.79-3.45 165.55-6.87 248.34-10.32 21.14-.89 42.25-1.79 63.34-2.69l186.85 512.06c-45.77-13.08-136.96-40.95-182.73-54.02-13.59-3.88-27.17-7.76-40.76-11.65-152.69-43.63-305.47-87.27-458.19-130.92-26.93-29.49-53.88-58.94-80.77-88.44-59.61-65.17-119.16-130.35-178.71-195.56 33.73-1.38 67.49-2.81 101.23-4.2 113.81-4.75 227.58-9.5 341.4-14.26z"/></clipPath><clipPath id="b"><path d="M4379.39 4305.35c82.79-3.45 165.55-6.87 248.34-10.32 21.14-.89 42.25-1.79 63.34-2.69l186.85 512.06c-45.77-13.08-136.96-40.95-182.73-54.02-13.59-3.88-27.17-7.76-40.76-11.65-152.69-43.63-305.47-87.27-458.19-130.92-26.93-29.49-53.88-58.94-80.77-88.44-59.61-65.17-119.16-130.35-178.71-195.56 33.73-1.38 67.49-2.81 101.23-4.2 113.81-4.75 227.58-9.5 341.4-14.26"/></clipPath><clipPath id="c"><path d="M4961.27 3797.64c-14.79 81.55-29.57 163.08-44.35 244.65-3.76 20.82-7.58 41.63-11.35 62.4l489.25 233.55c-6.66-47.15-22.85-109.26-33.87-163.24-3.25-16.04-6.07-31.33-8.06-45.3-22.26-157.34-44.54-314.68-66.81-471.99-25.5-30.74-51-61.47-76.52-92.18-56.4-67.99-112.81-135.96-169.22-203.93-6.01 33.24-12.06 66.5-18.07 99.73-20.35 112.11-40.68 224.18-61 336.31z"/></clipPath><clipPath id="d"><path d="M4961.27 3797.64c-14.79 81.55-29.57 163.08-44.35 244.65-3.76 20.82-7.58 41.63-11.35 62.4l489.25 233.55c-6.66-47.15-22.85-109.26-33.87-163.24-3.25-16.04-6.07-31.33-8.06-45.3-22.26-157.34-44.54-314.68-66.81-471.99-25.5-30.74-51-61.47-76.52-92.18-56.4-67.99-112.81-135.96-169.22-203.93-6.01 33.24-12.06 66.5-18.07 99.73-20.35 112.11-40.68 224.18-61 336.31"/></clipPath><clipPath id="e"><path d="M4596.95 3806.88c-47.2 0-96.36 12.26-131.46 53.12-35.83 41.64-48.4 104.86-37.99 186.01 12.01 94.05 54.77 212.21 127.82 348.95 94.55 176.98 239.8 385.03 434.6 612.05 30.07 35.05 61.32 70.54 93.75 106.45 29.04 32.16 58.39 63.48 87.91 93.93l6.89-6.3s342.54 225.17 418.2 378.91l201.1-176.88c-22.09-.55-44.22-7.83-63.1-22.29-47.56-36.38-56.6-104.42-20.23-151.98 21.36-27.91 53.58-42.55 86.17-42.55 22.98 0 46.14 7.28 65.81 22.32 45.97 35.16 55.98 99.91 23.73 147.16l56.52 64.22-236.34 246.19c213.15 148.36 403.37 244.7 528.6 285.19 44.86 14.51 81.38 21.85 107.63 21.85 16.93 0 29.59-3.05 37.46-9.19l1.78-1.49c20.61-19.13 21.35-75.37 2.52-158.51-57.93-255.43-301.02-764.78-722.27-1231.22-243.98-270.2-471.17-471.03-663.05-599.15-128.9-86.02-241.88-139.24-333.33-158.53-21.94-4.63-47.04-8.26-72.72-8.26m886.42 1314.55c-44.98 0-90.32-14.25-128.8-43.7-93.05-71.19-110.78-204.33-39.56-297.43 41.77-54.58 104.83-83.24 168.64-83.24 44.97 0 90.31 14.24 128.79 43.67 93.05 71.19 110.79 204.39 39.59 297.43-41.77 54.6-104.85 83.27-168.66 83.27"/></clipPath><clipPath id="f"><path d="M4596.95 3806.88c-47.2 0-96.36 12.26-131.46 53.12-35.83 41.64-48.4 104.86-37.99 186.01 12.01 94.05 54.77 212.21 127.82 348.95 94.55 176.98 239.8 385.03 434.6 612.05 30.07 35.05 61.32 70.54 93.75 106.45 29.04 32.16 58.39 63.48 87.91 93.93l6.89-6.3s342.54 225.17 418.2 378.91l201.1-176.88c-22.09-.55-44.22-7.83-63.1-22.29-47.56-36.38-56.6-104.42-20.23-151.98 21.36-27.91 53.58-42.55 86.17-42.55 22.98 0 46.14 7.28 65.81 22.32 45.97 35.16 55.98 99.91 23.73 147.16l56.52 64.22-236.34 246.19c213.15 148.36 403.37 244.7 528.6 285.19 44.86 14.51 81.38 21.85 107.63 21.85 16.93 0 29.59-3.05 37.46-9.19l1.78-1.49c20.61-19.13 21.35-75.37 2.52-158.51-57.93-255.43-301.02-764.78-722.27-1231.22-243.98-270.2-471.17-471.03-663.05-599.15-128.9-86.02-241.88-139.24-333.33-158.53-21.94-4.63-47.04-8.26-72.72-8.26m886.42 1314.55c-44.98 0-90.32-14.25-128.8-43.7-93.05-71.19-110.78-204.33-39.56-297.43 41.77-54.58 104.83-83.24 168.64-83.24 44.97 0 90.31 14.24 128.79 43.67 93.05 71.19 110.79 204.39 39.59 297.43-41.77 54.6-104.85 83.27-168.66 83.27"/></clipPath><clipPath id="g"><path d="M5731.62 5233.67c-8.41 10.99-13.78 23.34-16.28 36.07-6.12 31.35 5.36 64.92 32.46 85.61 38.06 29.13 92.54 21.89 121.67-16.18 29.14-38.07 21.88-92.57-16.17-121.69-38.07-29.14-92.55-21.88-121.68 16.19"/></clipPath><clipPath id="h"><path d="M5731.62 5241.98c-8.41 10.99-13.78 23.34-16.28 36.07-6.12 31.35 5.36 64.92 32.46 85.61 38.06 29.13 92.54 21.89 121.67-16.18 29.14-38.07 21.88-92.57-16.17-121.69-38.07-29.14-92.55-21.88-121.68 16.19"/></clipPath><clipPath id="i"><path d="M6311.36 5871.34c-52.67 50.05-203.6 33.47-328.61-26.16-169-80.64-1033.72-636-1506.07-1596.92-56.62-115.17-242.97-671.72 323.39-416.95 653.85 294.1 1751.02 1812.16 1511.29 2040.03"/></clipPath><clipPath id="j"><path d="M5451.54 5951.75c20.67-50.17 80.19-86.63 124.61-64.96 44.66 21.79 68.22 74.46 45.41 131.03-1.89 4.67-4.1 9.22-6.62 13.62l-163.4-79.69"/></clipPath></defs><path d="M-282.53 679.522c-.207-.097-.413-.198-.624-.288l.385-.334c.083.207.15.42.24.622M210.01 589.79c-.285-.132-.57-.272-.86-.396.174-.157.362-.3.53-.46.114.285.21.577.33.856M471.135-93.98c-.207-.097-.412-.198-.623-.29l.384-.332c.08.206.152.42.24.622M-231.983-56.448c-.285-.132-.567-.27-.857-.394.173-.158.36-.3.53-.462.112.285.205.576.327.856M523.158 791.138c-.206-.098-.41-.2-.622-.288l.385-.336c.082.208.15.42.238.624M-91.826 248.93c-.208-.097-.414-.196-.625-.286l.385-.336c.08.207.15.42.24.622" fill="#bbe3da"/><path d="M254.613 227.094c-3.104-2.362-6.357-4.928-9.666-7.667-28.38-23.496-6.177-53.64-6.177-53.64.51.322.98.63 1.477.947l-1.464-1.28 1.616-1.506 40.465 35.433c-4.266 4.213-8.507 8.544-12.704 12.992-4.685 4.966-9.2 9.874-13.547 14.722" fill="#66aeaa"/><path d="M120.166 870.29l-.003-.024.003.025M120.355 871.44h.005c-.073-.327-.13-.652-.17-.973.04.323.097.65.165.972M121.595 874.766l-.023-.045.023.046M121.477 874.545l-.094-.186.094.185M120.704 872.72c.183.553.404 1.09.66 1.6-.262-.52-.477-1.058-.656-1.6h-.004" fill="#4e8d88"/><path d="M666.157 349.39c-.285-.135-.567-.273-.857-.397.173-.157.36-.3.53-.46.112.284.207.576.327.857" fill="#bbe3da"/><path d="M397.5 158.322l-.272-.148c-.277-.244-.293-.655-.04-.917l66.35-68.622c.257-.26.687-.28.96-.036.275.243.292.655.038.917l-66.35 68.622c-.18.184-.448.247-.686.182" fill="#e4cfb7"/><path d="M461.848 87.312c.486-1.638 2.265-2.588 3.976-2.122 1.712.465 2.705 2.17 2.22 3.807-.488 1.638-2.27 2.587-3.98 2.122-1.713-.467-2.703-2.17-2.216-3.808" fill="#e4cfb7"/><g clip-path="url(#a)" transform="matrix(.1445 0 0 -.1383 -466.492 919.562)"><g fill="#a72633" clip-path="url(#b)"><path d="M4379.382 4305.354c82.782-3.447 165.544-6.874 248.336-10.322-130.184 56.132-272.047 108.446-403.598 164.148-62.09-46.513-124.12-93.026-186.14-139.568 113.807-4.746 227.575-9.502 341.402-14.258z"/><path d="M4627.718 4295.032c5.03-.21 10.05-.42 15.068-.64-131.19 59.252-274.752 114.456-407.387 173.25-3.73-2.823-7.52-5.64-11.28-8.463 131.55-55.703 273.414-108.017 403.598-164.15z"/><path d="M4642.786 4294.393c16.103-.68 32.197-1.363 48.27-2.046-134.372 69.247-283.413 133.71-419.485 202.42-12.04-9.05-24.1-18.077-36.17-27.125 132.634-58.793 276.197-113.997 407.386-173.25z"/><path d="M4691.057 4292.347s3.154 8.657 8.652 23.72c-123.056 77.05-264.138 148.21-389.253 224.597-13.574-16.944-26.6-32.412-38.886-45.898 136.073-68.71 285.114-133.172 419.487-202.42z"/><path d="M4699.71 4316.067c36.776 100.775 178.19 488.333 178.19 488.333-43.154-12.34-126.688-37.822-174.46-51.64-117.4-33.466-267.184-155.58-392.983-212.096 125.115-76.386 266.197-147.547 389.252-224.597zM4037.98 4319.612c62.02 46.542 124.05 93.055 186.14 139.568-7.978 3.355-15.888 6.748-23.78 10.147-61.052-49.6-122.038-99.218-183.043-148.86 6.895-.29 13.79-.57 20.683-.86z"/><path d="M4224.12 4459.18c3.76 2.823 7.55 5.64 11.28 8.462-8.018 3.55-16.016 7.114-23.965 10.718-3.69-3.008-7.412-6.02-11.094-9.033 7.892-3.4 15.802-6.792 23.78-10.147z"/><path d="M4235.4 4467.642c12.07 9.048 24.13 18.076 36.17 27.124-8.222 4.15-16.434 8.335-24.57 12.54-11.854-9.65-23.71-19.298-35.565-28.946 7.95-3.604 15.947-7.168 23.964-10.718z"/><path d="M4271.57 4494.766c12.286 13.486 25.313 28.954 38.887 45.898-7.598 4.62-15.117 9.277-22.578 13.935-14.112-17.07-27.774-32.97-40.88-47.295 8.136-4.204 16.348-8.39 24.57-12.54z"/><path d="M4310.457 4540.664c125.8 56.517 275.582 178.63 392.983 212.096-2.89-.84-5.655-1.636-8.272-2.383-124.92-35.64-275.64-141.79-407.29-195.778 7.462-4.66 14.98-9.317 22.58-13.936zM4017.297 4320.467c61.005 49.642 121.99 99.26 183.044 148.86-31.717 12.978-63.435 25.922-95.105 38.866-56.2-61.45-112.337-122.898-168.484-184.382 26.837-1.093 53.692-2.225 80.547-3.343z"/><path d="M4200.34 4469.327c3.683 3.012 7.404 6.025 11.095 9.033-31.992 13.67-63.993 27.353-95.975 41.015-3.408-3.726-6.817-7.45-10.225-11.182 31.67-12.944 63.388-25.888 95.106-38.866z"/><path d="M4211.435 4478.36l35.566 28.945c-32.958 15.976-65.906 31.962-98.816 47.924-10.918-11.95-21.826-23.897-32.724-35.855 31.982-13.662 63.983-27.344 95.975-41.015z"/><path d="M4247 4507.305c13.106 14.326 26.768 30.224 40.88 47.294-30.557 17.743-61.113 35.482-91.65 53.21-16.015-17.533-32.04-35.057-48.046-52.58 32.91-15.963 65.858-31.95 98.817-47.925z"/><path d="M4287.88 4554.6c131.648 53.987 282.368 160.138 407.288 195.777-13.584-3.877-27.167-7.763-40.75-11.65-152.694-43.632-305.475-87.264-458.188-130.916 30.537-17.728 61.093-35.467 91.65-53.21z"/></g></g><g clip-path="url(#c)" transform="matrix(.1445 0 0 -.1383 -466.492 919.562)"><g fill="#a72633" clip-path="url(#d)"><path d="M4961.262 3797.615c-14.785 81.55-29.57 163.08-44.344 244.64 74.128-123.307 145.56-250.772 218.4-376.08-37.665-68.308-75.36-136.587-113.062-204.855-20.34 112.105-40.673 224.17-60.994 336.295z"/><path d="M4916.918 4042.254l-2.52 13.9c77.175-123.925 151.508-252.3 227.336-378.358-2.14-3.897-4.278-7.764-6.416-11.62-72.84 125.307-144.272 252.772-218.4 376.078z"/><path d="M4914.398 4056.155c-2.94 16.18-5.907 32.352-8.837 48.5 87.85-126.148 172.358-257.55 258.595-386.246-7.47-13.545-14.932-27.08-22.42-40.614-75.83 126.06-150.162 254.433-227.337 378.36z"/><path d="M4905.56 4104.654l22.05 10.527c94.04-114.408 183.96-235.253 276.045-352.778-14.687-15.38-28.017-30.136-39.5-43.993-86.237 128.696-170.746 260.097-258.594 386.244z"/><path d="M4927.61 4115.18c95.32 45.498 467.19 223.02 467.19 223.02-6.552-46.39-22.333-107.266-33.348-160.638-16.982-121.373-119.03-283.368-157.797-415.16-92.086 117.525-182.005 238.37-276.044 352.78zM5022.256 3461.32c37.703 68.268 75.397 136.547 113.062 204.855 1.21-2.05 2.392-4.1 3.564-6.152-38.534-68.054-77.077-136.118-115.63-204.182-.33 1.827-.66 3.653-1 5.48z"/><path d="M5135.318 3666.175c2.138 3.857 4.277 7.724 6.416 11.62 1.25-2.05 2.48-4.1 3.71-6.18-2.197-3.848-4.375-7.706-6.562-11.592-1.172 2.05-2.353 4.1-3.564 6.152z"/><path d="M5141.734 3677.796c7.49 13.534 14.95 27.07 22.42 40.613 1.397-2.1 2.823-4.18 4.21-6.28-7.637-13.495-15.264-27-22.92-40.516-1.23 2.08-2.46 4.13-3.71 6.182z"/><path d="M5164.155 3718.41c11.483 13.856 24.813 28.61 39.5 43.992 1.475-1.895 2.988-3.818 4.482-5.723-14.696-15.547-28.114-30.468-39.774-44.55-1.386 2.1-2.812 4.18-4.208 6.28z"/><path d="M5203.655 3762.402c38.768 131.792 140.815 293.787 157.797 415.16-.18-.87-.35-1.734-.53-2.598-17.265-123.364-114.907-285.106-152.787-418.285-1.494 1.904-3.007 3.827-4.482 5.722zM5023.252 3455.84c38.553 68.065 77.096 136.13 115.63 204.183 20.36-35.41 40.868-70.642 61.58-105.465-53.367-64.333-106.754-128.647-160.13-192.96-5.684 31.414-11.397 62.838-17.08 94.243z"/><path d="M5138.882 3660.023c2.187 3.886 4.365 7.744 6.562 11.59 21.2-35.622 42.518-71.06 64.1-106.098l-9.082-10.957c-20.712 34.823-41.22 70.056-61.58 105.465z"/><path d="M5145.444 3671.614c7.656 13.515 15.283 27.02 22.92 40.516 24.12-36.463 48.396-72.653 72.946-108.355-10.586-12.753-21.17-25.507-31.767-38.26-21.58 35.037-42.898 70.476-64.1 106.1z"/><path d="M5168.363 3712.13c11.66 14.082 25.078 29.003 39.774 44.55 25.702-33.417 51.63-66.492 77.927-98.99-14.92-17.98-29.833-35.957-44.754-53.915-24.55 35.702-48.826 71.892-72.947 108.355z"/><path d="M5208.137 3756.68c37.88 133.178 135.522 294.92 152.787 418.284-3.25-16.034-6.064-31.327-8.056-45.3-22.265-157.33-44.54-314.667-66.804-471.975-26.298 32.498-52.225 65.573-77.927 98.99z"/></g></g><g clip-path="url(#e)" transform="matrix(.1445 0 0 -.1383 -466.492 919.562)"><g fill="#e9dfd9" clip-path="url(#f)"><path d="M4669.632 3815.17c91.454 19.296 204.432 72.51 333.327 158.534-87.09 35.405-197.333 73.598-284.98 159.852-106.61-119.838-189.85-214.266-246.755-279.86 54.492-56.388 138.31-51.212 198.407-38.526z"/><path d="M5002.96 3973.704c191.883 128.114 419.07 328.943 663.05 599.146-89.705 92.41-201.228 176.288-306.344 275.7-259.432-287.268-476.598-529.356-641.685-714.994 87.647-86.254 197.89-124.447 284.98-159.852z"/><path d="M5666.01 4572.85c421.248 466.432 664.333 975.78 722.262 1231.207 18.828 83.144 18.086 139.384-2.52 158.51-180.31-192.558-576.52-616.212-1026.086-1114.016 105.116-99.412 216.64-183.29 306.345-275.7zM4471.225 3853.695c56.904 65.595 140.145 160.023 246.756 279.86-1.23 1.217-2.47 2.433-3.72 3.673-106.19-120.18-188.914-215.077-245.252-281.18.73-.8 1.475-1.582 2.217-2.353z"/><path d="M4717.98 4133.556c165.088 185.638 382.254 427.726 641.686 714.995-1.563 1.476-3.145 2.96-4.727 4.425-259.393-287.215-476.17-529.596-640.68-715.747 1.25-1.24 2.49-2.456 3.72-3.672z"/><path d="M5359.666 4848.55c449.567 497.805 845.775 921.46 1026.086 1114.017-.58.53-1.152 1.03-1.777 1.49-181.57-191.255-579.498-613.293-1029.036-1111.082 1.58-1.465 3.163-2.95 4.726-4.424zM4469.008 3856.048c56.338 66.103 139.062 161 245.252 281.18-1.923 1.938-3.847 3.926-5.78 5.932-105.635-120.682-187.558-216.214-243.026-283.128 1.17-1.357 2.353-2.685 3.554-3.984z"/><path d="M4714.26 4137.228c164.51 186.15 381.287 428.532 640.68 715.747-2.354 2.217-4.708 4.453-7.06 6.69-259.482-286.98-475.78-529.67-639.4-716.505 1.933-2.006 3.857-3.994 5.78-5.932z"/><path d="M5354.94 4852.975c449.537 497.79 847.464 919.827 1029.035 1111.08-.49.39-1 .76-1.523 1.12-183.915-188.862-584.81-608.005-1034.573-1105.51 2.352-2.237 4.706-4.473 7.06-6.69zM4465.454 3860.032c55.468 66.914 137.39 162.446 243.025 283.128-67.432 68.96-118.76 153.92-153.193 251.83-73.056-136.738-115.81-254.9-127.822-348.943-10.41-81.152 2.16-144.374 37.99-186.015z"/><path d="M4708.48 4143.16c163.62 186.835 379.918 429.524 639.4 716.504-87.98 82.558-177.226 167.714-264.247 253.817-242.508-268.494-419.206-514.195-528.346-718.49 34.433-97.91 85.76-182.87 153.192-251.83z"/><path d="M5347.88 4859.664c449.76 497.506 850.657 916.65 1034.572 1105.51-21.094 14.326-71.6 9.507-143.573-13.774-242.86-78.52-730.065-367.044-1155.247-837.92 87.02-86.102 176.268-171.258 264.246-253.816z"/></g></g><path d="M359.245 196.412c-5.256-6.578-3.95-15.987 2.923-21.02 6.87-5.033 16.704-3.78 21.96 2.795 5.26 6.58 3.95 15.99-2.922 21.023-6.873 5.033-16.7 3.782-21.96-2.798" fill="#baa189"/><path d="M379.232 198.04l1.503-1.27c-.437.432-.91.838-1.425 1.215-.026.02-.052.038-.078.056m-18.45-6.75c-.46 0-.892-.01-1.29-.02-.042-.17-.08-.342-.117-.513-.885-4.336.774-8.978 4.69-11.84 2.275-1.666 4.954-2.47 7.612-2.47 2.37 0 4.72.638 6.756 1.88l2.868 2.413c.118.135.234.274.346.415 1.745 2.18 2.586 4.75 2.583 7.298 0-1.402-.253-2.81-.773-4.157-2.11 1.763-5.682 4.107-10.87 5.473-4.648 1.222-8.834 1.52-11.805 1.52" fill="#b29b85"/><g clip-path="url(#g)" transform="matrix(.1445 0 0 -.1383 -466.492 919.562)"><path d="M5800.63 5199.61c-26.11 0-51.92 11.73-69.01 34.06-7.59 9.92-12.7 20.95-15.47 32.36 2.76-.08 5.75-.14 8.93-.14 20.56 0 49.53 2.15 81.7 10.99 35.9 9.88 60.61 26.83 75.22 39.58 3.6-9.74 5.35-19.92 5.34-30.06-.02-21.92-8.3-43.63-24.18-60.13l-10.4-9.2c-15.62-11.77-33.95-17.46-52.13-17.46" fill="#b29b85"/></g><path d="M361.727 194.596c-1.215-1.52-1.99-3.228-2.352-4.988-.885-4.336.774-8.98 4.69-11.84 5.5-4.03 13.372-3.028 17.58 2.238 4.212 5.265 3.163 12.802-2.335 16.83-5.5 4.03-13.374 3.025-17.583-2.24" fill="#bfe8e1"/><g clip-path="url(#h)" transform="matrix(.1445 0 0 -.1383 -466.492 919.562)"><path d="M5898.31 5341.63s-28.53-39.11-91.53-56.44c-62.58-17.19-113.04-9.07-113.04-9.07l98.56-104.28 105.01 92.99 1 76.8" fill="#bfe8e1"/></g><path d="M301.527 258.447c-10.29-12.876-7.73-31.29 5.716-41.135 13.448-9.85 32.693-7.402 42.983 5.472 10.29 12.868 7.725 31.29-5.72 41.135-13.452 9.846-32.69 7.395-42.98-5.473" fill="#baa189"/><path d="M325.89 266.36c-7.38 0-14.68-3.174-19.51-9.22-2.378-2.974-3.9-6.318-4.6-9.76-1.73-8.485 1.52-17.567 9.178-23.175 4.45-3.26 9.695-4.834 14.898-4.834 7.38 0 14.68 3.172 19.51 9.215 8.24 10.305 6.19 25.058-4.577 32.936-4.452 3.262-9.697 4.84-14.9 4.84" fill="#b29b85"/><path d="M306.38 254.89c-2.378-2.974-3.9-6.317-4.6-9.758-1.73-8.487 1.52-17.568 9.178-23.176 10.764-7.88 26.172-5.922 34.407 4.38 8.24 10.303 6.19 25.057-4.576 32.935-10.765 7.89-26.17 5.93-34.41-4.38" fill="#bfe8e1"/><path d="M432.834 175.317c20.81-37.605 33.475-73.463 23.172-80.597-9.296-6.438-44.146 6.334-79.553 29.907l56.38 50.69" fill="#c7313b"/><path d="M164.84 354.21s12.626 20.24 51.348 44.63c0 0-1.974 6.68-4.815 12.55-2.812 5.818-6.2 11.13-6.2 11.13s-47.044-25.62-63.01-58.372c0 0 5.35-3.393 11.61-6.193 6.752-3.02 11.067-3.744 11.067-3.744" fill="#344a58"/><path d="M176.14 346.03s6.517 20.39 46.858 41.762l-4.845 12.97s-44.942-25.39-54.775-49.547l12.76-5.186" fill="#c7313b"/><g clip-path="url(#i)" transform="matrix(.1445 0 0 -.1383 -466.492 919.562)"><path d="M4581.33 4896.26c-25.57 33.72-38.06 50.84-62.42 85.49 33.38 22.19 50.07 33.29 83.44 55.45 23.54-33.47 35.61-49.98 60.3-82.55-32.53-23.36-48.79-35.04-81.32-58.39" fill="#3d788f"/><path d="M4500.02 4837.85c-26.45 34.89-39.36 52.6-64.57 88.46 33.38 22.17 50.08 33.26 83.46 55.44 24.36-34.65 36.85-51.77 62.42-85.49-32.54-23.37-48.79-35.05-81.31-58.41" fill="#c7313b"/><path d="M4581.33 4896.26c25.56-33.73 38.65-50.34 65.37-83.13-31.62-24.5-47.45-36.74-79.06-61.25-27.66 33.9-41.18 51.09-67.62 85.97 32.52 23.36 48.77 35.04 81.31 58.41" fill="#3d788f"/><path d="M4662.65 4954.65c24.67-32.58 37.31-48.62 63.11-80.28-31.64-24.51-47.42-36.74-79.06-61.24-26.72 32.79-39.81 49.4-65.37 83.13 32.53 23.35 48.79 35.03 81.32 58.39" fill="#c7313b"/><path d="M4714.94 4732.44c-27.86 31.79-41.5 47.94-68.24 80.69 31.64 24.5 47.42 36.73 79.06 61.24 25.82-31.64 39.02-47.23 65.9-77.91-30.68-25.61-46.03-38.41-76.72-64.02" fill="#3d788f"/><path d="M4638.21 4668.43c-28.82 32.86-42.95 49.56-70.57 83.45 31.61 24.51 47.44 36.75 79.06 61.25 26.74-32.75 40.38-48.9 68.24-80.69-30.7-25.6-46.04-38.41-76.73-64.01" fill="#c7313b"/><path d="M4714.94 4732.44c27.85-31.77 42.09-47.41 71.06-78.17-29.72-26.68-44.59-40.02-74.31-66.71-29.95 31.82-44.66 48-73.48 80.87 30.69 25.6 46.03 38.41 76.73 64.01" fill="#344a58"/><path d="M4791.66 4796.46c26.91-30.7 40.64-45.8 68.62-75.51-29.71-26.69-44.58-40.01-74.28-66.68-28.97 30.76-43.21 46.4-71.06 78.17 30.69 25.61 46.04 38.41 76.72 64.02" fill="#c7313b"/><path d="M4859.74 4578.66c-30.03 29.71-44.79 44.85-73.74 75.61 29.7 26.67 44.57 39.99 74.28 66.68 27.98-29.7 42.2-44.33 71.2-73.02-28.69-27.71-43.05-41.56-71.74-69.27" fill="#344a58"/><path d="M4787.99 4509.37c-31.07 30.74-46.33 46.37-76.3 78.19 29.72 26.69 44.59 40.03 74.31 66.71 28.95-30.76 43.71-45.9 73.74-75.61-28.7-27.71-43.06-41.57-71.75-69.29" fill="#c7313b"/><path d="M4859.74 4578.66c30.01-29.71 45.28-44.3 76.35-72.96-27.65-28.71-41.48-43.05-69.13-71.77-32.13 29.61-47.92 44.71-78.97 75.44 28.69 27.72 43.05 41.58 71.75 69.29" fill="#344a58"/><path d="M4931.48 4647.93c29.01-28.69 43.77-42.77 73.77-70.43-27.66-28.72-41.5-43.09-69.16-71.8-31.07 28.66-46.34 43.25-76.35 72.96 28.69 27.71 43.05 41.56 71.74 69.27" fill="#c7313b"/><path d="M5015.04 4435.46c-32.09 27.54-47.89 41.6-78.95 70.24 27.66 28.71 41.5 43.08 69.16 71.8 30-27.66 45.25-41.24 76.22-67.83-26.57-29.69-39.87-44.53-66.43-74.21" fill="#344a58"/><path d="M4948.61 4361.26c-33.18 28.49-49.53 43.05-81.65 72.67 27.65 28.72 41.48 43.06 69.13 71.77 31.06-28.64 46.86-42.7 78.95-70.24-26.56-29.68-39.87-44.52-66.43-74.2" fill="#c7313b"/><path d="M5015.04 4435.46c32.07-27.54 48.34-41.04 81.4-67.47-25.46-30.6-38.17-45.9-63.62-76.51-34.21 27.35-51.04 41.29-84.21 69.78 26.56 29.68 39.87 44.52 66.43 74.2" fill="#344a58"/><path d="M5081.47 4509.67c30.97-26.61 46.71-39.67 78.63-65.18-25.45-30.59-38.21-45.89-63.66-76.5-33.06 26.43-49.33 39.93-81.4 67.47 26.56 29.68 39.86 44.52 66.43 74.21" fill="#c7313b"/><path d="M5180.25 4303.37c-34 25.28-50.78 38.2-83.81 64.62 25.45 30.61 38.21 45.91 63.66 76.5 31.94-25.52 48.1-38 80.93-62.41-24.3-31.47-36.48-47.22-60.78-78.71" fill="#344a58"/><path d="M5119.51 4224.63c-35.16 26.16-52.52 39.53-86.69 66.85 25.45 30.61 38.16 45.91 63.62 76.51 33.03-26.42 49.81-39.34 83.81-64.62-24.29-31.5-36.44-47.24-60.74-78.74" fill="#c7313b"/><path d="M5180.25 4303.37c34.01-25.26 51.25-37.62 86.2-61.74-23.13-32.32-34.71-48.51-57.83-80.85-36.13 24.93-53.94 37.71-89.11 63.85 24.3 31.5 36.45 47.24 60.74 78.74" fill="#344a58"/><path d="M5241.03 4382.08c32.84-24.4 49.49-36.33 83.22-59.61-23.13-32.32-34.69-48.49-57.8-80.84-34.95 24.12-52.19 36.48-86.2 61.74 24.3 31.49 36.48 47.24 60.78 78.71" fill="#c7313b"/><path d="M5354.83 4182.85c-35.8 22.91-53.46 34.68-88.38 58.78 23.11 32.35 34.67 48.52 57.8 80.84 33.73-23.27 50.8-34.62 85.37-56.74-21.91-33.14-32.86-49.72-54.79-82.88" fill="#344a58"/><path d="M5300.07 4100c-37.04 23.69-55.33 35.85-91.45 60.78 23.12 32.34 34.7 48.53 57.83 80.85 34.92-24.1 52.58-35.87 88.38-58.78-21.89-33.13-32.85-49.71-54.76-82.85" fill="#c7313b"/><path d="M5354.83 4182.85c35.81-22.9 53.95-34.05 90.6-55.71-20.66-33.92-30.99-50.87-51.66-84.78-37.91 22.43-56.66 33.96-93.7 57.64 21.91 33.14 32.87 49.72 54.76 82.85" fill="#3d788f"/><path d="M5409.62 4265.73c34.59-22.12 52.09-32.9 87.48-53.84-20.66-33.9-31-50.84-51.67-84.75-36.65 21.66-54.79 32.81-90.6 55.71 21.93 33.16 32.88 49.74 54.79 82.88" fill="#c7313b"/><path d="M5538.13 4074.51c-37.49 20.42-56.04 30.95-92.7 52.63 20.67 33.91 31.01 50.85 51.67 84.75 35.4-20.92 53.32-31.1 89.51-50.82-19.39-34.63-29.08-51.93-48.48-86.56" fill="#3d788f"/><path d="M5489.65 3987.93c-38.78 21.12-57.96 32.01-95.88 54.43 20.67 33.91 31 50.86 51.66 84.78 36.66-21.68 55.21-32.21 92.7-52.63-19.38-34.64-29.11-51.94-48.48-86.58" fill="#c7313b"/><path d="M5538.13 4074.51c37.5-20.43 56.41-30.31 94.7-49.45-18.09-35.3-27.14-52.95-45.23-88.26-39.58 19.78-59.19 30.04-97.95 51.13 19.37 34.64 29.1 51.94 48.48 86.58" fill="#3d788f"/><path d="M5586.61 4161.07c36.2-19.7 54.5-29.25 91.46-47.73-18.1-35.3-27.13-52.96-45.24-88.28-38.29 19.14-57.2 29.02-94.7 49.45 19.4 34.63 29.09 51.93 48.48 86.56" fill="#c7313b"/></g><path d="M205.51 289.5s-4.958 6.383-5.335 7.903c0 0 16.773 17.554 34.976 32.12 29.836 23.875 39.673 28.204 39.673 28.204s6.47-4.985 6.52-5.5c0 0-16.872-10.828-39.275-29.124-23.89-19.513-36.558-33.603-36.558-33.603" fill="#344a58"/><path d="M233.852 200.863l10.43 37.59 12.55-13.813" fill="#36747f"/><path d="M236.782 161.176s-22.202 30.144 6.176 53.64c18.04 14.936 34.37 24.66 34.37 24.66l-18.794 31.95 11.856 5.963s31.248-39.456 28.153-45.082c-18.747-34.09-19.15-44.09-61.76-71.132" fill="#418091"/><path d="M259.08 270.87l11.696 6.183s5.41 6.22 3.35 12.435l-20.14-11.378 5.094-7.24" fill="#151516"/><path d="M398.757 187.742c-3.096 2.84-8.013 2.743-10.982-.223l-6.89-6.88c-2.967-2.963-2.863-7.668.234-10.51 3.096-2.84 8.012-2.742 10.98.222l6.89 6.88c2.967 2.964 2.865 7.67-.233 10.51" fill="#f0c4aa"/><path d="M286.678 114.335l-49.883 46.508 45.002 39.408s49.497-31.14 60.43-52.402l39.977 33.653 10.598-11.524-80.92-80.676-25.204 25.035" fill="#9ac7cc"/><path d="M347.913 58.427c13.012 18.136 9.106 42.334-8.722 54.055-17.826 11.72-42.832 6.522-55.843-11.61l-1.484-2.068c-13.012-18.13-9.11-42.332 8.72-54.053 17.83-11.72 42.83-6.52 55.842 11.61l1.488 2.067" fill="#f0c4aa"/><path d="M360.79 35.605c-34.19 43.28-72.782 20.23-72.782 20.23-3.07 20.444-.565 33.92-.565 33.92-6.302-1.547-7.67-4.387-10.095-3.554-10.706 3.667 4.8 18.168 4.8 18.168s-4.15-2.65-6.144-2.907c-12.34-1.59-20.444-15.34-22.616-21.216-2.917-7.886-2.753-13.022-2.268-15.75 1.08-6.042 7.157-12.23 7.157-12.23.227-8.094-.437-17.378 14.994-29.015 15.856-11.957 44.915-6.268 44.915-6.268-9.284 1.885-12.55 5.162-12.55 5.162s12.134-6.366 23.973-.34c22.235 11.326 31.18 13.8 31.18 13.8" fill="#512c15"/><path d="M290.228 93.556c2.627 3.663 1.658 8.672-2.17 11.187-3.828 2.517-9.06 1.587-11.69-2.076l-3.423-4.774c-2.634-3.664-1.66-8.672 2.166-11.186 3.827-2.517 9.06-1.586 11.69 2.076l3.428 4.773" fill="#f0c4aa"/><path d="M336.406 85.43c-2.86 0-7.23-3.268-12.146-16.608 0 0 15.763 12.074 15.633 13.974-.055.812-1.35 2.634-3.487 2.634" fill="#ec9682"/><path d="M321.256 96.435c2.986 6.938 11.587 11.98 18.006 8.984 6.453-3.015 9.857-10.3 6.56-18.123-.272-.645-.59-1.275-.955-1.883l-23.61 11.02" fill="#e3b197"/><g clip-path="url(#j)" transform="matrix(.1445 0 0 -.1383 -466.492 919.562)"><path d="M5547.83 5880.41c-38.56 0-79.8 31.31-96.29 71.34l111.6 54.42c27.14-8.77 51.57-34.4 62.22-63.51-8.17-24.52-25.79-44.44-49.21-55.87-8.97-4.38-18.56-6.38-28.32-6.38" fill="#dd6253"/></g><path d="M312.43 88.385c-1.275 0-2.258-.374-2.638-1.118-.745-1.465 1.132-3.81 4.19-5.24 1.505-.703 3.017-1.053 4.252-1.053 1.277 0 2.26.374 2.64 1.118.747 1.466-1.128 3.81-4.188 5.237-1.507.703-3.02 1.055-4.255 1.055M338.142 76.377c-1.278 0-2.26-.372-2.64-1.116-.746-1.465 1.13-3.81 4.19-5.24 1.506-.702 3.017-1.05 4.254-1.05 1.276 0 2.26.372 2.64 1.115.745 1.466-1.13 3.81-4.19 5.24-1.506.702-3.017 1.052-4.254 1.052" fill="#eeb199"/><path d="M308.346 67.55s-.788.002-1.93.272c-.567.144-1.222.344-1.868.667-.323.158-.644.35-.952.56-.295.23-.605.45-.85.74-.287.248-.498.557-.712.858-.233.29-.34.643-.51.948-.14.32-.202.654-.3.96-.1.306-.09.616-.138.892-.098.555-.027 1.025-.032 1.353l.016.517-.147.013s-.113-.175-.27-.51c-.14-.332-.403-.817-.453-1.45-.03-.315-.125-.665-.07-1.035.046-.37.046-.783.182-1.183.163-.388.238-.846.514-1.22.25-.388.503-.785.845-1.116.327-.347.72-.607 1.095-.87.38-.255.808-.418 1.2-.573.805-.292 1.586-.385 2.242-.382 1.32 0 2.136.42 2.136.42l.003.14" fill="#512c15"/><path d="M305.71 78.536c-1.355-2.655-.204-5.858 2.57-7.154 2.777-1.296 6.123-.192 7.477 2.463 1.353 2.655.203 5.86-2.575 7.154-2.774 1.297-6.12.193-7.472-2.464" fill="#fff"/><path d="M307.863 77.744c-.85-1.658-.125-3.662 1.604-4.47 1.736-.812 3.828-.122 4.673 1.538.844 1.66.125 3.662-1.61 4.472-1.73.81-3.824.12-4.667-1.54" fill="#63381e"/><path d="M309.024 77.2c-.53-1.043-.076-2.3 1.013-2.81 1.09-.51 2.405-.076 2.936.967.533 1.042.08 2.302-1.01 2.81-1.09.51-2.405.076-2.94-.967" fill="#151516"/><path d="M330.68 66.876c-1.354-2.654-.2-5.858 2.572-7.153 2.773-1.297 6.12-.193 7.476 2.462 1.354 2.654.2 5.858-2.572 7.154-2.776 1.295-6.12.19-7.475-2.464" fill="#fff"/><path d="M332.83 66.084c-.845-1.66-.126-3.66 1.608-4.472 1.734-.807 3.827-.12 4.672 1.54.848 1.658.127 3.66-1.61 4.472-1.73.81-3.823.12-4.67-1.54" fill="#63381e"/><path d="M334 65.54c-.534-1.044-.083-2.3 1.008-2.81 1.09-.51 2.404-.076 2.936.967.532 1.042.08 2.3-1.013 2.81-1.086.51-2.402.076-2.93-.967" fill="#151516"/></svg>
